<svg width="20" height="20" viewBox="0 0 20 20" fill="none" xmlns="http://www.w3.org/2000/svg">
<path d="M5 4C5 3.44772 4.55228 3 4 3C3.44772 3 3 3.44772 3 4V11.2676C2.4022 11.6134 2 12.2597 2 13C2 13.7403 2.4022 14.3866 3 14.7324V16C3 16.5523 3.44772 17 4 17C4.55228 17 5 16.5523 5 16V14.7324C5.5978 14.3866 6 13.7403 6 13C6 12.2597 5.5978 11.6134 5 11.2676V4Z" fill="#4A5568"/>
<path d="M11 4C11 3.44772 10.5523 3 10 3C9.44772 3 9 3.44772 9 4V5.26756C8.4022 5.61337 8 6.25972 8 7C8 7.74028 8.4022 8.38663 9 8.73244V16C9 16.5523 9.44772 17 10 17C10.5523 17 11 16.5523 11 16V8.73244C11.5978 8.38663 12 7.74028 12 7C12 6.25972 11.5978 5.61337 11 5.26756V4Z" fill="#4A5568"/>
<path d="M16 3C16.5523 3 17 3.44772 17 4V11.2676C17.5978 11.6134 18 12.2597 18 13C18 13.7403 17.5978 14.3866 17 14.7324V16C17 16.5523 16.5523 17 16 17C15.4477 17 15 16.5523 15 16V14.7324C14.4022 14.3866 14 13.7403 14 13C14 12.2597 14.4022 11.6134 15 11.2676V4C15 3.44772 15.4477 3 16 3Z" fill="#4A5568"/>
</svg>
