<svg width="20" height="20" viewBox="0 0 20 20" fill="none" xmlns="http://www.w3.org/2000/svg">
<path d="M6 13C3.79086 13 2 11.2091 2 9C2 6.79086 3.79086 5 6 5C6 2.79086 7.79086 1 10 1C12.2091 1 14 2.79086 14 5C16.2091 5 18 6.79086 18 9C18 11.2091 16.2091 13 14 13H11V8C11 7.44772 10.5523 7 10 7C9.44772 7 9 7.44772 9 8V13H6Z" fill="#4A5568"/>
<path d="M9 13H11V15.5858L12.2929 14.2929C12.6834 13.9024 13.3166 13.9024 13.7071 14.2929C14.0976 14.6834 14.0976 15.3166 13.7071 15.7071L10.7071 18.7071C10.3166 19.0976 9.68342 19.0976 9.29289 18.7071L6.29289 15.7071C5.90237 15.3166 5.90237 14.6834 6.29289 14.2929C6.68342 13.9024 7.31658 13.9024 7.70711 14.2929L9 15.5858V13Z" fill="#4A5568"/>
</svg>
