<svg width="20" height="20" viewBox="0 0 20 20" fill="none" xmlns="http://www.w3.org/2000/svg">
<path fill-rule="evenodd" clip-rule="evenodd" d="M15.6569 15.6569C14.1566 17.1571 12.1217 18 10 18C7.87827 18 5.84344 17.1571 4.34315 15.6569C2.84285 14.1566 2 12.1217 2 10C2 7.87827 2.84285 5.84344 4.34315 4.34315C5.84344 2.84285 7.87827 2 10 2C12.1217 2 14.1566 2.84285 15.6569 4.34315C17.1571 5.84344 18 7.87827 18 10C18 12.1217 17.1571 14.1566 15.6569 15.6569ZM7 5C7 4.44772 7.44772 4 8 4V5C8 4 8.00197 4 8.00197 4L8.00397 4.00001L8.00806 4.00003L8.0166 4.00013L8.03511 4.00058C8.04808 4.001 8.06232 4.00167 8.07775 4.0027C8.10857 4.00476 8.14436 4.00824 8.18439 4.01396C8.26428 4.02537 8.36249 4.0459 8.47248 4.08257C8.69593 4.15705 8.95994 4.29573 9.20711 4.54289C9.71079 5.04657 10 5.84586 10 7V8H14C14.5523 8 15 8.44772 15 9C15 9.55228 14.5523 10 14 10H10V13C10 13.5523 10.4477 14 11 14C11.5523 14 12 13.5523 12 13C12 12.4477 12.4477 12 13 12C13.5523 12 14 12.4477 14 13C14 14.6569 12.6569 16 11 16C9.34315 16 8 14.6569 8 13V10H6C5.44772 10 5 9.55228 5 9C5 8.44772 5.44772 8 6 8H8V7C8 6.58035 7.9472 6.31637 7.89507 6.15998C7.86349 6.06525 7.83257 6.01079 7.81314 5.98257C7.35016 5.89506 7 5.48842 7 5Z" fill="black"/>
</svg>
