<svg width="20" height="20" viewBox="0 0 20 20" fill="none" xmlns="http://www.w3.org/2000/svg">
<path fill-rule="evenodd" clip-rule="evenodd" d="M6.29279 5.293C6.10532 5.48053 6 5.73484 6 6C6 6.26516 6.10532 6.51947 6.29279 6.707L9.58579 10L6.29279 13.293C6.11063 13.4816 6.00983 13.7342 6.01211 13.9964C6.01439 14.2586 6.11956 14.5094 6.30497 14.6948C6.49038 14.8802 6.74119 14.9854 7.00339 14.9877C7.26558 14.99 7.51818 14.8892 7.70679 14.707L11.7068 10.707C11.8943 10.5195 11.9996 10.2652 11.9996 10C11.9996 9.73484 11.8943 9.48053 11.7068 9.293L7.70679 5.293C7.51926 5.10553 7.26495 5.00021 6.99979 5.00021C6.73462 5.00021 6.48031 5.10553 6.29279 5.293V5.293Z" fill="black"/>
<path fill-rule="evenodd" clip-rule="evenodd" d="M12.9996 5C12.4473 5 11.9996 5.44772 11.9996 6V14C11.9996 14.5523 12.4473 15 12.9996 15C13.5519 15 13.9996 14.5523 13.9996 14V6C13.9996 5.44772 13.5519 5 12.9996 5Z" fill="black"/>
</svg>
