<svg width="20" height="20" viewBox="0 0 20 20" fill="none" xmlns="http://www.w3.org/2000/svg">
<path fill-rule="evenodd" clip-rule="evenodd" d="M13.7068 5.293C13.8943 5.48053 13.9996 5.73484 13.9996 6C13.9996 6.26516 13.8943 6.51947 13.7068 6.707L10.4138 10L13.7068 13.293C13.8889 13.4816 13.9897 13.7342 13.9875 13.9964C13.9852 14.2586 13.88 14.5094 13.6946 14.6948C13.5092 14.8802 13.2584 14.9854 12.9962 14.9877C12.734 14.99 12.4814 14.8892 12.2928 14.707L8.29279 10.707C8.10532 10.5195 8 10.2652 8 10C8 9.73484 8.10532 9.48053 8.29279 9.293L12.2928 5.293C12.4803 5.10553 12.7346 5.00021 12.9998 5.00021C13.265 5.00021 13.5193 5.10553 13.7068 5.293V5.293Z" fill="black"/>
<path fill-rule="evenodd" clip-rule="evenodd" d="M7 5C7.55228 5 8 5.44772 8 6V14C8 14.5523 7.55228 15 7 15C6.44772 15 6 14.5523 6 14V6C6 5.44772 6.44772 5 7 5Z" fill="black"/>
</svg>
