<svg width="20" height="20" viewBox="0 0 20 20" fill="none" xmlns="http://www.w3.org/2000/svg">
<path fill-rule="evenodd" clip-rule="evenodd" d="M10 18C12.1217 18 14.1566 17.1571 15.6569 15.6569C17.1571 14.1566 18 12.1217 18 10C18 7.87827 17.1571 5.84344 15.6569 4.34315C14.1566 2.84285 12.1217 2 10 2C7.87827 2 5.84344 2.84285 4.34315 4.34315C2.84285 5.84344 2 7.87827 2 10C2 12.1217 2.84285 14.1566 4.34315 15.6569C5.84344 17.1571 7.87827 18 10 18ZM6.8356 5.01361C7.38037 4.92281 7.8956 5.29083 7.98639 5.8356L8.4833 8.81702C8.48543 8.82855 8.48736 8.84015 8.4891 8.85181L8.5 8.91724L9.01361 5.8356C9.09397 5.35341 9.51116 5 10 5C10.4888 5 10.906 5.35341 10.9864 5.8356L11.5 8.91724L11.5109 8.85181C11.5126 8.84015 11.5146 8.82855 11.5167 8.81702L12.0136 5.8356C12.1044 5.29083 12.6196 4.92281 13.1644 5.01361C13.7092 5.1044 14.0772 5.61963 13.9864 6.1644L13.6805 8H15C15.5523 8 16 8.44772 16 9C16 9.55229 15.5523 10 15 10H13.3471L13.1805 11H15C15.5523 11 16 11.4477 16 12C16 12.5523 15.5523 13 15 13H12.8471L12.4864 15.1644C12.406 15.6466 11.9888 16 11.5 16C11.0112 16 10.594 15.6466 10.5136 15.1644L10 12.0828L9.48639 15.1644C9.40603 15.6466 8.98884 16 8.5 16C8.01116 16 7.59397 15.6466 7.51361 15.1644L7.15287 13H5C4.44772 13 4 12.5523 4 12C4 11.4477 4.44772 11 5 11H6.81954L6.65287 10H5C4.44772 10 4 9.55229 4 9C4 8.44772 4.44772 8 5 8H6.31954L6.01361 6.1644C5.92281 5.61963 6.29083 5.1044 6.8356 5.01361Z" fill="black"/>
</svg>
