<svg width="20" height="20" viewBox="0 0 20 20" fill="none" xmlns="http://www.w3.org/2000/svg">
<path fill-rule="evenodd" clip-rule="evenodd" d="M15.707 5.293C15.8945 5.48053 15.9998 5.73484 15.9998 6C15.9998 6.26516 15.8945 6.51947 15.707 6.707L12.414 10L15.707 13.293C15.8892 13.4816 15.99 13.7342 15.9877 13.9964C15.9854 14.2586 15.8802 14.5094 15.6948 14.6948C15.5094 14.8802 15.2586 14.9854 14.9964 14.9877C14.7342 14.99 14.4816 14.8892 14.293 14.707L10.293 10.707C10.1055 10.5195 10.0002 10.2652 10.0002 10C10.0002 9.73484 10.1055 9.48053 10.293 9.293L14.293 5.293C14.4805 5.10553 14.7348 5.00021 15 5.00021C15.2652 5.00021 15.5195 5.10553 15.707 5.293V5.293Z" fill="black"/>
<path fill-rule="evenodd" clip-rule="evenodd" d="M10.7068 5.29279C10.8943 5.48031 10.9996 5.73462 10.9996 5.99979C10.9996 6.26495 10.8943 6.51926 10.7068 6.70679L7.41379 9.99979L10.7068 13.2928C10.8889 13.4814 10.9897 13.734 10.9875 13.9962C10.9852 14.2584 10.88 14.5092 10.6946 14.6946C10.5092 14.88 10.2584 14.9852 9.99619 14.9875C9.73399 14.9897 9.48139 14.8889 9.29279 14.7068L5.29279 10.7068C5.10532 10.5193 5 10.265 5 9.99979C5 9.73462 5.10532 9.48031 5.29279 9.29279L9.29279 5.29279C9.48031 5.10532 9.73462 5 9.99979 5C10.265 5 10.5193 5.10532 10.7068 5.29279V5.29279Z" fill="black"/>
</svg>
