<svg width="20" height="20" viewBox="0 0 20 20" fill="none" xmlns="http://www.w3.org/2000/svg">
<path fill-rule="evenodd" clip-rule="evenodd" d="M5.29279 14.707C5.10532 14.5195 5 14.2652 5 14C5 13.7348 5.10532 13.4805 5.29279 13.293L8.58579 10L5.29279 6.70701C5.11063 6.51841 5.00983 6.26581 5.01211 6.00361C5.01439 5.74141 5.11956 5.4906 5.30497 5.30519C5.49038 5.11978 5.74119 5.01461 6.00339 5.01234C6.26558 5.01006 6.51818 5.11085 6.70679 5.29301L10.7068 9.29301C10.8943 9.48054 10.9996 9.73485 10.9996 10C10.9996 10.2652 10.8943 10.5195 10.7068 10.707L6.70679 14.707C6.51926 14.8945 6.26495 14.9998 5.99979 14.9998C5.73462 14.9998 5.48031 14.8945 5.29279 14.707Z" fill="black"/>
<path fill-rule="evenodd" clip-rule="evenodd" d="M10.2926 14.6947C10.1051 14.5072 9.99979 14.2529 9.99979 13.9877C9.99979 13.7225 10.1051 13.4682 10.2926 13.2807L13.5856 9.98771L10.2926 6.69471C10.1104 6.50611 10.0096 6.25351 10.0119 5.99131C10.0142 5.72911 10.1193 5.4783 10.3048 5.29289C10.4902 5.10749 10.741 5.00232 11.0032 5.00004C11.2654 4.99776 11.518 5.09855 11.7066 5.28071L15.7066 9.28071C15.894 9.46824 15.9994 9.72255 15.9994 9.98771C15.9994 10.2529 15.894 10.5072 15.7066 10.6947L11.7066 14.6947C11.519 14.8822 11.2647 14.9875 10.9996 14.9875C10.7344 14.9875 10.4801 14.8822 10.2926 14.6947Z" fill="black"/>
</svg>
