<svg width="20" height="20" viewBox="0 0 20 20" fill="none" xmlns="http://www.w3.org/2000/svg">

<path d="M6 4H5C4.44772 4 4 4.44772 4 5V15C4 15.5523 4.44772 16 5 16H15C15.5523 16 16 15.5523 16 15V5C16 4.44772 15.5523 4 15 4H14" stroke="#4A5568" stroke-width="2" stroke-linecap="round"/>
<path d="M4 12H7L8 14H12L13 12H16V16H4V12Z" fill="#4A5568"/>
<path d="M7.29289 7.29289C7.68342 6.90237 8.31658 6.90237 8.70711 7.29289L9 7.58579L9 3C9 2.44772 9.44771 2 10 2C10.5523 2 11 2.44771 11 3L11 7.58579L11.2929 7.29289C11.6834 6.90237 12.3166 6.90237 12.7071 7.29289C13.0976 7.68342 13.0976 8.31658 12.7071 8.70711L10.7071 10.7071C10.5196 10.8946 10.2652 11 10 11C9.73478 11 9.48043 10.8946 9.29289 10.7071L7.29289 8.70711C6.90237 8.31658 6.90237 7.68342 7.29289 7.29289Z" fill="#4A5568"/>
</svg>
