<svg width="20" height="20" viewBox="0 0 20 20" fill="none" xmlns="http://www.w3.org/2000/svg">
<path fill-rule="evenodd" clip-rule="evenodd" d="M8 4C6.34315 4 5 5.34315 5 7V11C5 13.7614 7.23858 16 10 16C12.7614 16 15 13.7614 15 11V7C15 6.44772 15.4477 6 16 6C16.5523 6 17 6.44772 17 7V11C17 14.866 13.866 18 10 18C6.13401 18 3 14.866 3 11V7C3 4.23858 5.23858 2 8 2C10.7614 2 13 4.23858 13 7V11C13 12.6569 11.6569 14 10 14C8.34315 14 7 12.6569 7 11V7C7 6.44772 7.44772 6 8 6C8.55228 6 9 6.44772 9 7V11C9 11.5523 9.44772 12 10 12C10.5523 12 11 11.5523 11 11V7C11 5.34315 9.65685 4 8 4Z" fill="#4A5568"/>
</svg>
