<svg width="20" height="20" viewBox="0 0 20 20" fill="none" xmlns="http://www.w3.org/2000/svg">

<path d="M5 12C5 12.5523 5.44771 13 6 13C6.55228 13 7 12.5523 7 12L7 6.41421L8.29289 7.70711C8.68342 8.09763 9.31658 8.09763 9.70711 7.70711C10.0976 7.31658 10.0976 6.68342 9.70711 6.29289L6.70711 3.29289C6.51957 3.10536 6.26522 3 6 3C5.73478 3 5.48043 3.10536 5.29289 3.29289L2.29289 6.29289C1.90237 6.68342 1.90237 7.31658 2.29289 7.70711C2.68342 8.09763 3.31658 8.09763 3.70711 7.70711L5 6.41421L5 12Z" fill="#4A5568"/>
<path d="M15 8C15 7.44772 14.5523 7 14 7C13.4477 7 13 7.44772 13 8L13 13.5858L11.7071 12.2929C11.3166 11.9024 10.6834 11.9024 10.2929 12.2929C9.90237 12.6834 9.90237 13.3166 10.2929 13.7071L13.2929 16.7071C13.4804 16.8946 13.7348 17 14 17C14.2652 17 14.5196 16.8946 14.7071 16.7071L17.7071 13.7071C18.0976 13.3166 18.0976 12.6834 17.7071 12.2929C17.3166 11.9024 16.6834 11.9024 16.2929 12.2929L15 13.5858L15 8Z" fill="#4A5568"/>
</svg>
