<svg width="20" height="20" viewBox="0 0 20 20" fill="none" xmlns="http://www.w3.org/2000/svg">

<path d="M3 3C2.44772 3 2 3.44772 2 4C2 4.55228 2.44772 5 3 5H14C14.5523 5 15 4.55228 15 4C15 3.44772 14.5523 3 14 3H3Z" fill="#4A5568"/>
<path d="M3 7C2.44772 7 2 7.44772 2 8C2 8.55228 2.44772 9 3 9H8C8.55228 9 9 8.55228 9 8C9 7.44772 8.55228 7 8 7H3Z" fill="#4A5568"/>
<path d="M3 11C2.44772 11 2 11.4477 2 12C2 12.5523 2.44772 13 3 13H7C7.55228 13 8 12.5523 8 12C8 11.4477 7.55228 11 7 11H3Z" fill="#4A5568"/>
<path d="M13 16C13 16.5523 13.4477 17 14 17C14.5523 17 15 16.5523 15 16L15 10.4142L16.2929 11.7071C16.6834 12.0976 17.3166 12.0976 17.7071 11.7071C18.0976 11.3166 18.0976 10.6834 17.7071 10.2929L14.7071 7.29289C14.5196 7.10536 14.2652 7 14 7C13.7348 7 13.4804 7.10536 13.2929 7.29289L10.2929 10.2929C9.90237 10.6834 9.90237 11.3166 10.2929 11.7071C10.6834 12.0976 11.3166 12.0976 11.7071 11.7071L13 10.4142L13 16Z" fill="#4A5568"/>
</svg>
