<svg width="20" height="20" viewBox="0 0 20 20" fill="none" xmlns="http://www.w3.org/2000/svg">

<path d="M8 9C9.65685 9 11 7.65685 11 6C11 4.34315 9.65685 3 8 3C6.34315 3 5 4.34315 5 6C5 7.65685 6.34315 9 8 9Z" fill="#4A5568"/>
<path d="M8 11C11.3137 11 14 13.6863 14 17H2C2 13.6863 4.68629 11 8 11Z" fill="#4A5568"/>
<path d="M16 7C16 6.44772 15.5523 6 15 6C14.4477 6 14 6.44772 14 7V8H13C12.4477 8 12 8.44771 12 9C12 9.55228 12.4477 10 13 10H14V11C14 11.5523 14.4477 12 15 12C15.5523 12 16 11.5523 16 11V10H17C17.5523 10 18 9.55228 18 9C18 8.44772 17.5523 8 17 8H16V7Z" fill="#4A5568"/>
</svg>
