<svg width="20" height="20" viewBox="0 0 20 20" fill="none" xmlns="http://www.w3.org/2000/svg">

<path d="M13 6C13 7.65685 11.6569 9 10 9C8.34315 9 7 7.65685 7 6C7 4.34315 8.34315 3 10 3C11.6569 3 13 4.34315 13 6Z" fill="#4A5568"/>
<path d="M18 8C18 9.10457 17.1046 10 16 10C14.8954 10 14 9.10457 14 8C14 6.89543 14.8954 6 16 6C17.1046 6 18 6.89543 18 8Z" fill="#4A5568"/>
<path d="M14 15C14 12.7909 12.2091 11 10 11C7.79086 11 6 12.7909 6 15V18H14V15Z" fill="#4A5568"/>
<path d="M6 8C6 9.10457 5.10457 10 4 10C2.89543 10 2 9.10457 2 8C2 6.89543 2.89543 6 4 6C5.10457 6 6 6.89543 6 8Z" fill="#4A5568"/>
<path d="M16 18V15C16 13.9459 15.7282 12.9552 15.2507 12.0943C15.4902 12.0327 15.7413 12 16 12C17.6569 12 19 13.3431 19 15V18H16Z" fill="#4A5568"/>
<path d="M4.74926 12.0943C4.27185 12.9552 4 13.9459 4 15V18H1V15C1 13.3431 2.34315 12 4 12C4.25871 12 4.50977 12.0327 4.74926 12.0943Z" fill="#4A5568"/>
</svg>
