<svg xmlns="http://www.w3.org/2000/svg" viewBox="0 0 20 20" fill="currentColor" aria-hidden="true">
  <path d="M3.905 14.19a1.905 1.905 0 110 3.81 1.905 1.905 0 010-3.81zM10 18a1.904 1.904 0 110-3.81A1.904 1.904 0 1110 18zM16.095 14.19a1.904 1.904 0 110 3.81 1.904 1.904 0 110-3.81zM3.905 8.095a1.905 1.905 0 110 3.81 1.905 1.905 0 010-3.81zM10 11.905a1.904 1.904 0 110-3.81 1.904 1.904 0 110 3.81zM16.095 11.905a1.904 1.904 0 110-3.81 1.904 1.904 0 110 3.81zM3.905 2a1.905 1.905 0 110 3.81 1.905 1.905 0 010-3.81zM10 5.81A1.904 1.904 0 1110 2a1.904 1.904 0 110 3.81zM16.095 5.81a1.904 1.904 0 110-3.81 1.904 1.904 0 110 3.81z"/>
</svg>
