<svg xmlns="http://www.w3.org/2000/svg" viewBox="0 0 20 20" fill="currentColor" aria-hidden="true">
  <path fill-rule="evenodd" d="M3 4a1 1 0 011-1h4a1 1 0 010 2H6.414l2.293 2.293a1 1 0 01-1.414 1.414L5 6.414V8a1 1 0 01-2 0V4zm9 1a1 1 0 110-2h4a1 1 0 011 1v4a1 1 0 11-2 0V6.414l-2.293 2.293a1 1 0 11-1.414-1.414L13.586 5H12zm-9 7a1 1 0 112 0v1.586l2.293-2.293a1 1 0 011.414 1.414L6.414 15H8a1 1 0 110 2H4a1 1 0 01-1-1v-4zm13-1a1 1 0 011 1v4a1 1 0 01-1 1h-4a1 1 0 110-2h1.586l-2.293-2.293a1 1 0 011.414-1.414L15 13.586V12a1 1 0 011-1z" clip-rule="evenodd"/>
</svg>
