<svg xmlns="http://www.w3.org/2000/svg" viewBox="0 0 26 26" fill="currentColor" aria-hidden="true">
  <g clip-path="url(#clip0_1245_27713)">
    <path d="M11.5 1c-.398 0-.78.15-1.06.422-.283.271-.44.634-.44 1.016 0 .38.157.748.44 1.015.283.272.662.422 1.06.422h3c.398 0 .78-.15 1.06-.422.283-.271.44-.634.44-1.015 0-.382-.157-.749-.44-1.016A1.544 1.544 0 0014.5 1h-3z"/>
    <path fill-rule="evenodd" d="M4 5.313c0-.763.318-1.493.88-2.032A3.065 3.065 0 017 2.437c0 1.145.474 2.241 1.316 3.052A4.599 4.599 0 0011.5 6.75h3a4.615 4.615 0 003.184-1.261A4.22 4.22 0 0019 2.438c.796 0 1.557.304 2.12.843.562.539.88 1.269.88 2.031v15.813c0 .763-.318 1.492-.88 2.032A3.065 3.065 0 0119 24H7a3.065 3.065 0 01-2.12-.843A2.814 2.814 0 014 21.125V5.312zm14.56 8.203c.272-.272.425-.635.42-1.012 0-.378-.16-.737-.44-1.005a1.533 1.533 0 00-1.048-.422 1.56 1.56 0 00-1.056.403l-4.94 4.735-1.94-1.86a1.542 1.542 0 00-1.056-.403c-.394 0-.77.154-1.048.422-.28.268-.437.627-.44 1.005 0 .377.149.74.42 1.012l3 2.875a1.544 1.544 0 002.12 0l6-5.75h.008z" clip-rule="evenodd"/>
  </g>
  <defs>
    <clipPath id="clip0_1245_27713">
      <path d="M0 0h18v23H0z" transform="translate(4 1)"/>
    </clipPath>
  </defs>
</svg>
