<svg xmlns="http://www.w3.org/2000/svg" viewBox="0 0 26 26" fill="currentColor" aria-hidden="true">
  <g fill-rule="evenodd" clip-path="url(#clip0_1245_27725)" clip-rule="evenodd">
    <path d="M13 2c-.382 0-.746.154-1.015.431a1.487 1.487 0 00-.422 1.036v1.466c0 .39.15.762.422 1.036.269.273.636.431 1.015.431.379 0 .746-.154 1.015-.431.268-.274.422-.65.422-1.036V3.467c0-.39-.15-.762-.422-1.036A1.428 1.428 0 0013 2z"/>
    <path d="M23.658 5.792a2.846 2.846 0 00-2.033-.859h-4.313a4.444 4.444 0 01-1.264 3.11A4.268 4.268 0 0113 9.333a4.268 4.268 0 01-3.048-1.29 4.444 4.444 0 01-1.264-3.11H4.375c-.761 0-1.493.308-2.033.86A2.963 2.963 0 001.5 7.866v13.2c0 .776.301 1.523.842 2.074.54.551 1.272.859 2.033.859h17.25c.761 0 1.493-.308 2.033-.859.54-.551.842-1.298.842-2.074v-13.2c0-.777-.302-1.523-.842-2.075zM6.445 11.445A2.135 2.135 0 017.97 10.8c.573 0 1.12.233 1.525.645.405.413.633.972.633 1.557s-.228 1.144-.633 1.557a2.135 2.135 0 01-1.525.645 2.135 2.135 0 01-1.526-.645 2.223 2.223 0 01-.633-1.557c0-.585.228-1.144.633-1.557zm5.048 9.622H4.449a3.712 3.712 0 01.739-3.05 3.62 3.62 0 011.242-.994 3.54 3.54 0 013.081 0c.482.233.904.57 1.243.994a3.714 3.714 0 01.739 3.05zm8.275-1.898a1.428 1.428 0 01-1.014.431h-2.875c-.383 0-.747-.154-1.015-.431a1.494 1.494 0 01-.423-1.036c0-.386.15-.761.423-1.035a1.428 1.428 0 011.015-.431h2.875c.382 0 .746.153 1.014.431.269.274.423.649.423 1.035 0 .387-.15.762-.423 1.036zm1.438-4.4a1.428 1.428 0 01-1.015.431H15.88c-.383 0-.747-.154-1.015-.431a1.487 1.487 0 01-.423-1.036c0-.386.15-.761.423-1.035a1.428 1.428 0 011.015-.431h4.312c.383 0 .747.154 1.015.431.268.274.423.649.423 1.035 0 .387-.151.762-.423 1.036z"/>
  </g>
  <defs>
    <clipPath id="clip0_1245_27725">
      <path d="M0 0h23v22H0z" transform="translate(1.5 2)"/>
    </clipPath>
  </defs>
</svg>
