<svg viewBox="0 0 20 20" fill="currentColor" stroke="none" xmlns="http://www.w3.org/2000/svg">
<path fill-rule="evenodd" clip-rule="evenodd" d="M10 15C12.7614 15 15 12.7614 15 10C15 7.23858 12.7614 5 10 5C7.23858 5 5 7.23858 5 10C5 12.7614 7.23858 15 10 15ZM12.5 10C13.3284 10 14 9.32843 14 8.5C14 7.67157 13.3284 7 12.5 7C11.6716 7 11 7.67157 11 8.5C11 9.32843 11.6716 10 12.5 10Z"></path>
<path d="M18 5C18 6.10457 17.1046 7 16 7C14.8954 7 14 6.10457 14 5C14 3.89543 14.8954 3 16 3C17.1046 3 18 3.89543 18 5Z"></path>
<path fill-rule="evenodd" clip-rule="evenodd" d="M16.9408 10.9143C16.9799 10.615 17 10.3099 17 10C17 9.69013 16.9799 9.38496 16.9408 9.08574L17.9324 8.95639C17.977 9.29839 18 9.64677 18 10C18 10.3532 17.977 10.7016 17.9324 11.0436L16.9408 10.9143ZM16.7631 8.18761L17.7292 7.92937C17.5463 7.24511 17.2751 6.59717 16.9288 5.99864L16.0632 6.49944C16.3662 7.02306 16.6032 7.58956 16.7631 8.18761ZM13.5006 3.9368L14.0014 3.07124C13.4028 2.72493 12.7549 2.45372 12.0706 2.27082L11.8124 3.2369C12.4104 3.39676 12.9769 3.63384 13.5006 3.9368ZM10.9143 3.05917L11.0436 2.06757C10.7016 2.02295 10.3532 2 10 2C9.64677 2 9.29839 2.02295 8.95639 2.06757L9.08574 3.05917C9.38496 3.02013 9.69013 3 10 3C10.3099 3 10.615 3.02013 10.9143 3.05917ZM8.18761 3.2369L7.92937 2.27082C7.24511 2.45372 6.59717 2.72493 5.99864 3.07124L6.49944 3.9368C7.02306 3.63384 7.58956 3.39676 8.18761 3.2369ZM5.73851 4.4462L5.12918 3.65328C4.57534 4.07889 4.07889 4.57534 3.65328 5.12918L4.4462 5.73851C4.81885 5.25358 5.25358 4.81885 5.73851 4.4462ZM3.9368 6.49944L3.07124 5.99864C2.72493 6.59717 2.45372 7.24511 2.27082 7.92937L3.2369 8.18761C3.39676 7.58956 3.63384 7.02306 3.9368 6.49944ZM3.05917 9.08574C3.02013 9.38496 3 9.69013 3 10C3 10.3099 3.02013 10.615 3.05917 10.9143L2.06757 11.0436C2.02295 10.7016 2 10.3532 2 10C2 9.64677 2.02295 9.29839 2.06757 8.95639L3.05917 9.08574ZM3.2369 11.8124L2.27082 12.0706C2.45372 12.7549 2.72493 13.4028 3.07124 14.0014L3.9368 13.5006C3.63384 12.9769 3.39676 12.4104 3.2369 11.8124ZM4.4462 14.2615L3.65328 14.8708C4.07889 15.4247 4.57534 15.9211 5.12918 16.3467L5.73851 15.5538C5.25358 15.1811 4.81885 14.7464 4.4462 14.2615ZM6.49944 16.0632L5.99864 16.9288C6.59717 17.2751 7.24511 17.5463 7.92937 17.7292L8.18761 16.7631C7.58956 16.6032 7.02306 16.3662 6.49944 16.0632ZM9.08574 16.9408L8.95639 17.9324C9.29839 17.977 9.64677 18 10 18C10.3532 18 10.7016 17.977 11.0436 17.9324L10.9143 16.9408C10.615 16.9799 10.3099 17 10 17C9.69013 17 9.38496 16.9799 9.08574 16.9408ZM11.8124 16.7631L12.0706 17.7292C12.7549 17.5463 13.4028 17.2751 14.0014 16.9288L13.5006 16.0632C12.9769 16.3662 12.4104 16.6032 11.8124 16.7631ZM14.2615 15.5538L14.8708 16.3467C15.4247 15.9211 15.9211 15.4247 16.3467 14.8708L15.5538 14.2615C15.1811 14.7464 14.7464 15.1811 14.2615 15.5538ZM16.0632 13.5006L16.9288 14.0014C17.2751 13.4028 17.5463 12.7549 17.7292 12.0706L16.7631 11.8124C16.6032 12.4104 16.3662 12.9769 16.0632 13.5006Z"></path>
</svg>
