<svg xmlns="http://www.w3.org/2000/svg" viewBox="0 0 26 26" fill="currentColor" aria-hidden="true">
  <g clip-path="url(#clip0_1245_27707)">
    <path d="M9.965 11.452a4.5 4.5 0 003.217-1.361 4.688 4.688 0 001.334-3.283c0-1.233-.48-2.412-1.334-3.283a4.506 4.506 0 00-3.217-1.358 4.5 4.5 0 00-3.217 1.361 4.688 4.688 0 00-1.334 3.283c0 1.233.48 2.411 1.334 3.283a4.5 4.5 0 003.217 1.361v-.003zM9.965 14.549c2.413 0 4.726.98 6.434 2.719a9.38 9.38 0 012.664 6.566H.866c0-2.463.96-4.823 2.665-6.566a9.004 9.004 0 016.434-2.72z"/>
    <path d="M22.098 8.358a1.56 1.56 0 00-.443-1.095 1.503 1.503 0 00-1.073-.452c-.4 0-.787.162-1.072.452-.285.291-.444.686-.444 1.095v1.547h-1.515c-.404 0-.788.162-1.073.452-.284.29-.443.686-.443 1.095 0 .408.159.803.443 1.094.285.29.669.453 1.073.453h1.516v1.546c0 .412.158.804.443 1.095a1.497 1.497 0 002.145 0 1.56 1.56 0 00.443-1.095V13h1.516c.404 0 .788-.163 1.072-.453a1.56 1.56 0 00.444-1.094 1.56 1.56 0 00-.444-1.095 1.503 1.503 0 00-1.072-.452h-1.516V8.358z"/>
  </g>
  <defs>
    <clipPath id="clip0_1245_27707">
      <path d="M0 0h24.267v21.667H0z" transform="translate(.866 2.167)"/>
    </clipPath>
  </defs>
</svg>
