<svg xmlns="http://www.w3.org/2000/svg" viewBox="0 0 26 26" fill="currentColor" aria-hidden="true">
  <g clip-path="url(#clip0_1245_27719)">
    <path d="M14.509 6.898a4.591 4.591 0 01-1.327 3.235 4.497 4.497 0 01-3.2 1.342c-1.2 0-2.353-.483-3.2-1.342a4.597 4.597 0 01-1.327-3.235c0-1.214.477-2.379 1.328-3.235a4.491 4.491 0 013.2-1.342c1.2 0 2.352.483 3.199 1.342.85.86 1.327 2.021 1.327 3.235zM19.036 23.679a9.213 9.213 0 00-2.651-6.473 9.006 9.006 0 00-6.403-2.68 9.006 9.006 0 00-6.402 2.68 9.207 9.207 0 00-2.651 6.473h18.107z"/>
    <path d="M17.527 9.949c-.4 0-.786.16-1.068.446a1.533 1.533 0 00-.441 1.08c0 .406.159.793.441 1.079a1.5 1.5 0 001.068.446h6.035c.4 0 .786-.16 1.068-.446.282-.286.441-.673.441-1.08 0-.406-.159-.793-.44-1.079a1.5 1.5 0 00-1.069-.446h-6.035z"/>
  </g>
  <defs>
    <clipPath id="clip0_1245_27719">
      <path d="M0 0h24.143v21.357H0z" transform="translate(.929 2.321)"/>
    </clipPath>
  </defs>
</svg>
