<svg xmlns="http://www.w3.org/2000/svg" viewBox="0 0 20 20" fill="currentColor" aria-hidden="true">
  <path fill-rule="evenodd" d="M4.649 3.084A1 1 0 015.163 4.4 13.95 13.95 0 004 10c0 1.993.416 3.886 1.164 5.6a1 1 0 01-1.832.8A15.95 15.95 0 012 10c0-2.274.475-4.44 1.332-6.4a1 1 0 011.317-.516zM12.96 7a3 3 0 00-2.342 1.126l-.328.41-.111-.279A2 2 0 008.323 7H8a1 1 0 000 2h.323l.532 1.33-1.035 1.295a1 1 0 01-.781.375H7a1 1 0 100 2h.039a3 3 0 002.342-1.126l.328-.41.111.279A2 2 0 0011.677 14H12a1 1 0 100-2h-.323l-.532-1.33 1.035-1.295A1 1 0 0112.961 9H13a1 1 0 100-2h-.039zm1.874-2.6a1 1 0 011.833-.8A15.95 15.95 0 0118 10c0 2.274-.475 4.44-1.332 6.4a1 1 0 11-1.832-.8A13.949 13.949 0 0016 10c0-1.993-.416-3.886-1.165-5.6z" clip-rule="evenodd"/>
</svg>
