<svg xmlns="http://www.w3.org/2000/svg" viewBox="0 0 25 27" fill="currentColor">
  <path d="M2.533 11.825L17.077 0l1.258 1.547L3.791 13.372z"/>
  <path d="M10.943 6.22l-.92.676c-.107.079-.191.12-.206.103-.018-.023.075-.129.209-.237l.543-.442c.1-.081.203-.156.292-.214a.864.864 0 00.158-.132l.247-.279c.05-.057.03-.066-.042-.022a7.311 7.311 0 00-.743.535l-.053-.066c-.01-.012-.077.026-.15.085l-.262.213c-.072.059-.123.117-.113.129l.054.066-.02.017c-.523.424-.881.84-.76.89.086.036.416-.147.795-.425l.873-.642c.107-.078.191-.12.206-.102.018.022-.075.128-.21.237l-.542.442c-.1.081-.203.156-.292.213a.862.862 0 00-.158.133l-.247.279c-.05.056-.03.066.042.021.222-.136.485-.326.742-.535l.054.066c.01.012.077-.026.15-.084l.261-.214c.072-.058.123-.116.114-.128l-.054-.066c.38-.312.708-.642.785-.805.107-.228-.26-.074-.753.288zM5.147 12.19l15.11-11.093 4.316 5.88-15.11 11.091z"/>
  <circle cx="14.873" cy="9.574" r="2.995" transform="rotate(-36.281 14.873 9.574)"/>
  <path d="M15.33 9.057l-1.042.51c-.12.06-.239.053-.289-.015-.062-.086 0-.237.138-.339l.565-.414a.954.954 0 01.331-.16.247.247 0 00.159-.132l.165-.395c.034-.08-.018-.134-.109-.117a2.157 2.157 0 00-.852.384l-.184-.25c-.034-.047-.123-.04-.197.015l-.273.2c-.075.055-.109.138-.075.184l.184.251-.02.016c-.543.398-.77 1.004-.47 1.306.213.215.656.191 1.084-.018l.988-.484c.12-.059.24-.053.29.015.062.085 0 .237-.139.339l-.564.414a.954.954 0 01-.332.16.247.247 0 00-.158.132l-.166.395c-.034.08.019.134.11.117.282-.053.583-.188.851-.384l.184.25c.034.047.123.04.198-.016l.273-.2c.075-.055.108-.137.074-.183l-.185-.252c.394-.296.66-.714.621-1.041-.053-.457-.603-.561-1.16-.288z"/>
  <path d="M2.483 9.604l1.68-.015-.839.838H2.16c-.158.15-.17.326-.17.466 0 .155.06.317.17.372l18.032-.014a2 2 0 012.001 2v3.958h-4.456a1.89 1.89 0 00-1.89 1.89c0 1.081.876 1.958 1.958 1.958h4.388V25a2 2 0 01-2 2H2.5a2 2 0 01-2-2V11.604a2 2 0 011.983-2z"/>
  <path d="M21.487 20.73h-3.63a1.606 1.606 0 010-3.211h3.63a1.606 1.606 0 110 3.212z"/>
  <circle cx="17.74" cy="19.117" r=".683"/>
</svg>
