<svg width="24" height="24" viewBox="0 0 24 24" fill="none" xmlns="http://www.w3.org/2000/svg">
<path d="M9 19V13C9 11.8954 8.10457 11 7 11H5C3.89543 11 3 11.8954 3 13V19C3 20.1046 3.89543 21 5 21H7C8.10457 21 9 20.1046 9 19ZM9 19V9C9 7.89543 9.89543 7 11 7H13C14.1046 7 15 7.89543 15 9V19M9 19C9 20.1046 9.89543 21 11 21H13C14.1046 21 15 20.1046 15 19M15 19V5C15 3.89543 15.8954 3 17 3H19C20.1046 3 21 3.89543 21 5V19C21 20.1046 20.1046 21 19 21H17C15.8954 21 15 20.1046 15 19Z" stroke="#4B5563" stroke-width="2" stroke-linecap="round" stroke-linejoin="round"/>
</svg>
