<svg width="24" height="24" viewBox="0 0 24 24" fill="none" xmlns="http://www.w3.org/2000/svg">
<path d="M12 8C10.3431 8 9 8.89543 9 10C9 11.1046 10.3431 12 12 12C13.6569 12 15 12.8954 15 14C15 15.1046 13.6569 16 12 16M12 8C13.1104 8 14.0799 8.4022 14.5987 9M12 8V7M12 8L12 16M12 16L12 17M12 16C10.8896 16 9.92008 15.5978 9.40137 15M21 12C21 16.9706 16.9706 21 12 21C7.02944 21 3 16.9706 3 12C3 7.02944 7.02944 3 12 3C16.9706 3 21 7.02944 21 12Z" stroke="#4A5568" stroke-width="2" stroke-linecap="round" stroke-linejoin="round"/>
</svg>
