<svg width="24" height="24" viewBox="0 0 24 24" fill="none" xmlns="http://www.w3.org/2000/svg">
<path d="M12 3V4V3ZM9.98639 7.8356C9.8956 7.29083 9.38037 6.92281 8.8356 7.01361C8.29083 7.1044 7.92281 7.61963 8.01361 8.1644L9.98639 7.8356ZM10.5 17L9.51361 17.1644C9.59397 17.6466 10.0112 18 10.5 18C10.9888 18 11.406 17.6466 11.4864 17.1644L10.5 17ZM12 8L12.9864 7.8356C12.906 7.35341 12.4888 7 12 7C11.5112 7 11.094 7.35341 11.0136 7.8356L12 8ZM13.5 17L12.5136 17.1644C12.594 17.6466 13.0112 18 13.5 18C13.9888 18 14.406 17.6466 14.4864 17.1644L13.5 17ZM15.9864 8.1644C16.0772 7.61963 15.7092 7.1044 15.1644 7.01361C14.6196 6.92281 14.1044 7.29083 14.0136 7.8356L15.9864 8.1644ZM7 10C6.44772 10 6 10.4477 6 11C6 11.5523 6.44772 12 7 12V10ZM17 12C17.5523 12 18 11.5523 18 11C18 10.4477 17.5523 10 17 10V12ZM7 13C6.44772 13 6 13.4477 6 14C6 14.5523 6.44772 15 7 15V13ZM17 15C17.5523 15 18 14.5523 18 14C18 13.4477 17.5523 13 17 13V15ZM14.5 10C13.9477 10 13.5 10.4477 13.5 11C13.5 11.5523 13.9477 12 14.5 12V10ZM9.5 12C10.0523 12 10.5 11.5523 10.5 11C10.5 10.4477 10.0523 10 9.5 10V12ZM10 15C10.5523 15 11 14.5523 11 14C11 13.4477 10.5523 13 10 13V15ZM14 13C13.4477 13 13 13.4477 13 14C13 14.5523 13.4477 15 14 15V13ZM20 12C20 13.0506 19.7931 14.0909 19.391 15.0615L21.2388 15.8268C21.7413 14.6136 22 13.3132 22 12L20 12ZM19.391 15.0615C18.989 16.0321 18.3997 16.914 17.6569 17.6569L19.0711 19.0711C19.9997 18.1425 20.7362 17.0401 21.2388 15.8268L19.391 15.0615ZM17.6569 17.6569C16.914 18.3997 16.0321 18.989 15.0615 19.391L15.8268 21.2388C17.0401 20.7362 18.1425 19.9997 19.0711 19.0711L17.6569 17.6569ZM15.0615 19.391C14.0909 19.7931 13.0506 20 12 20V22C13.3132 22 14.6136 21.7413 15.8268 21.2388L15.0615 19.391ZM12 20C10.9494 20 9.90914 19.7931 8.93853 19.391L8.17317 21.2388C9.38642 21.7413 10.6868 22 12 22V20ZM8.93853 19.391C7.96793 18.989 7.08601 18.3997 6.34315 17.6569L4.92893 19.0711C5.85752 19.9997 6.95991 20.7362 8.17317 21.2388L8.93853 19.391ZM6.34315 17.6569C5.60028 16.914 5.011 16.0321 4.60896 15.0615L2.7612 15.8268C3.26375 17.0401 4.00035 18.1425 4.92893 19.0711L6.34315 17.6569ZM4.60896 15.0615C4.20693 14.0909 4 13.0506 4 12L2 12C2 13.3132 2.25866 14.6136 2.7612 15.8268L4.60896 15.0615ZM4 12C4 9.87827 4.84285 7.84344 6.34315 6.34315L4.92893 4.92893C3.05357 6.8043 2 9.34784 2 12L4 12ZM6.34315 6.34315C7.84344 4.84285 9.87827 4 12 4V2C9.34784 2 6.8043 3.05357 4.92893 4.92893L6.34315 6.34315ZM12 4C14.1217 4 16.1566 4.84285 17.6569 6.34315L19.0711 4.92893C17.1957 3.05357 14.6522 2 12 2V4ZM17.6569 6.34315C19.1571 7.84344 20 9.87827 20 12L22 12C22 9.34783 20.9464 6.8043 19.0711 4.92893L17.6569 6.34315ZM8.01361 8.1644L9.51361 17.1644L11.4864 16.8356L9.98639 7.8356L8.01361 8.1644ZM11.4864 17.1644L12.9864 8.1644L11.0136 7.8356L9.51361 16.8356L11.4864 17.1644ZM11.0136 8.1644L12.5136 17.1644L14.4864 16.8356L12.9864 7.8356L11.0136 8.1644ZM14.4864 17.1644L15.9864 8.1644L14.0136 7.8356L12.5136 16.8356L14.4864 17.1644ZM14.5 12H17V10H14.5V12ZM7 12H9.5V10H7V12ZM7 15H10V13H7V15ZM14 15H17V13H14V15Z" fill="black"/>
</svg>
