<svg width="24" height="24" viewBox="0 0 24 24" fill="none" xmlns="http://www.w3.org/2000/svg">
<path d="M10 6C9.44772 6 9 6.44772 9 7C9 7.55228 9.44772 8 10 8V6ZM8 10C7.44772 10 7 10.4477 7 11C7 11.5523 7.44772 12 8 12V10ZM16 12C16.5523 12 17 11.5523 17 11C17 10.4477 16.5523 10 16 10V12ZM12 3V4V3ZM16 15C16 14.4477 15.5523 14 15 14C14.4477 14 14 14.4477 14 15H16ZM12 15C12 14.9941 12 14.9883 12 14.9824C12 14.9766 12 14.9708 12 14.9649C12 14.9591 12 14.9533 12 14.9475C12 14.9417 12 14.9359 12 14.9301C12 14.9243 12 14.9185 12 14.9127C12 14.9069 12 14.9011 12 14.8954C12 14.8896 12 14.8838 12 14.8781C12 14.8723 12 14.8666 12 14.8608C12 14.8551 12 14.8494 12 14.8436C12 14.8379 12 14.8322 12 14.8265C12 14.8208 12 14.8151 12 14.8094C12 14.8037 12 14.798 12 14.7923C12 14.7866 12 14.781 12 14.7753C12 14.7696 12 14.764 12 14.7583C12 14.7527 12 14.747 12 14.7414C12 14.7358 12 14.7301 12 14.7245C12 14.7189 12 14.7133 12 14.7077C12 14.7021 12 14.6965 12 14.6909C12 14.6853 12 14.6797 12 14.6741C12 14.6685 12 14.663 12 14.6574C12 14.6519 12 14.6463 12 14.6407C12 14.6352 12 14.6297 12 14.6241C12 14.6186 12 14.6131 12 14.6075C12 14.602 12 14.5965 12 14.591C12 14.5855 12 14.58 12 14.5745C12 14.569 12 14.5635 12 14.558C12 14.5526 12 14.5471 12 14.5416C12 14.5362 12 14.5307 12 14.5253C12 14.5198 12 14.5144 12 14.5089C12 14.5035 12 14.4981 12 14.4927C12 14.4872 12 14.4818 12 14.4764C12 14.471 12 14.4656 12 14.4602C12 14.4548 12 14.4494 12 14.444C12 14.4387 12 14.4333 12 14.4279C12 14.4226 12 14.4172 12 14.4118C12 14.4065 12 14.4011 12 14.3958C12 14.3905 12 14.3851 12 14.3798C12 14.3745 12 14.3692 12 14.3639C12 14.3585 12 14.3532 12 14.3479C12 14.3426 12 14.3374 12 14.3321C12 14.3268 12 14.3215 12 14.3162C12 14.311 12 14.3057 12 14.3004C12 14.2952 12 14.2899 12 14.2847C12 14.2794 12 14.2742 12 14.269C12 14.2637 12 14.2585 12 14.2533C12 14.2481 12 14.2429 12 14.2377C12 14.2325 12 14.2273 12 14.2221C12 14.2169 12 14.2117 12 14.2065C12 14.2013 12 14.1962 12 14.191C12 14.1858 12 14.1807 12 14.1755C12 14.1704 12 14.1652 12 14.1601C12 14.1549 12 14.1498 12 14.1447C12 14.1396 12 14.1344 12 14.1293C12 14.1242 12 14.1191 12 14.114C12 14.1089 12 14.1038 12 14.0987C12 14.0936 12 14.0886 12 14.0835C12 14.0784 12 14.0733 12 14.0683C12 14.0632 12 14.0582 12 14.0531C12 14.0481 12 14.043 12 14.038C12 14.0329 12 14.0279 12 14.0229C12 14.0179 12 14.0128 12 14.0078C12 14.0028 12 13.9978 12 13.9928C12 13.9878 12 13.9828 12 13.9778C12 13.9728 12 13.9679 12 13.9629C12 13.9579 12 13.9529 12 13.948C12 13.943 12 13.9381 12 13.9331C12 13.9282 12 13.9232 12 13.9183C12 13.9134 12 13.9084 12 13.9035C12 13.8986 12 13.8937 12 13.8887C12 13.8838 12 13.8789 12 13.874C12 13.8691 12 13.8642 12 13.8593C12 13.8544 12 13.8496 12 13.8447C12 13.8398 12 13.8349 12 13.8301C12 13.8252 12 13.8203 12 13.8155C12 13.8106 12 13.8058 12 13.801C12 13.7961 12 13.7913 12 13.7865C12 13.7816 12 13.7768 12 13.772C12 13.7672 12 13.7624 12 13.7576C12 13.7527 12 13.7479 12 13.7432C12 13.7384 12 13.7336 12 13.7288C12 13.724 12 13.7192 12 13.7145C12 13.7097 12 13.7049 12 13.7002C12 13.6954 12 13.6907 12 13.6859C12 13.6812 12 13.6764 12 13.6717C12 13.667 12 13.6622 12 13.6575C12 13.6528 12 13.6481 12 13.6433C12 13.6386 12 13.6339 12 13.6292C12 13.6245 12 13.6198 12 13.6151C12 13.6104 12 13.6058 12 13.6011C12 13.5964 12 13.5917 12 13.5871C12 13.5824 12 13.5777 12 13.5731C12 13.5684 12 13.5638 12 13.5591C12 13.5545 12 13.5498 12 13.5452C12 13.5406 12 13.536 12 13.5313C12 13.5267 12 13.5221 12 13.5175C12 13.5129 12 13.5083 12 13.5037C12 13.4991 12 13.4945 12 13.4899C12 13.4853 12 13.4807 12 13.4761C12 13.4715 12 13.467 12 13.4624C12 13.4578 12 13.4533 12 13.4487C12 13.4442 12 13.4396 12 13.4351C12 13.4305 12 13.426 12 13.4214C12 13.4169 12 13.4124 12 13.4078C12 13.4033 12 13.3988 12 13.3943C12 13.3898 12 13.3853 12 13.3808C12 13.3763 12 13.3718 12 13.3673C12 13.3628 12 13.3583 12 13.3538C12 13.3493 12 13.3448 12 13.3404C12 13.3359 12 13.3314 12 13.327C12 13.3225 12 13.3181 12 13.3136C12 13.3092 12 13.3047 12 13.3003C12 13.2958 12 13.2914 12 13.287C12 13.2825 12 13.2781 12 13.2737C12 13.2693 12 13.2648 12 13.2604C12 13.256 12 13.2516 12 13.2472C12 13.2428 12 13.2384 12 13.234C12 13.2296 12 13.2253 12 13.2209C12 13.2165 12 13.2121 12 13.2078C12 13.2034 12 13.199 12 13.1947C12 13.1903 12 13.1859 12 13.1816C12 13.1772 12 13.1729 12 13.1686C12 13.1642 12 13.1599 12 13.1555C12 13.1512 12 13.1469 12 13.1426C12 13.1383 12 13.1339 12 13.1296C12 13.1253 12 13.121 12 13.1167C12 13.1124 12 13.1081 12 13.1038C12 13.0995 12 13.0952 12 13.091C12 13.0867 12 13.0824 12 13.0781C12 13.0739 12 13.0696 12 13.0653C12 13.0611 12 13.0568 12 13.0525C12 13.0483 12 13.044 12 13.0398C12 13.0356 12 13.0313 12 13.0271C12 13.0228 12 13.0186 12 13.0144C12 13.0102 12 13.0059 12 13.0017C12 12.9975 12 12.9933 12 12.9891C12 12.9849 12 12.9807 12 12.9765C12 12.9723 12 12.9681 12 12.9639C12 12.9597 12 12.9555 12 12.9514C12 12.9472 12 12.943 12 12.9388C12 12.9347 12 12.9305 12 12.9263C12 12.9222 12 12.918 12 12.9139C12 12.9097 12 12.9056 12 12.9014C12 12.8973 12 12.8931 12 12.889C12 12.8849 12 12.8807 12 12.8766C12 12.8725 12 12.8684 12 12.8643C12 12.8601 12 12.856 12 12.8519C12 12.8478 12 12.8437 12 12.8396C12 12.8355 12 12.8314 12 12.8273C12 12.8232 12 12.8191 12 12.8151C12 12.811 12 12.8069 12 12.8028C12 12.7988 12 12.7947 12 12.7906C12 12.7866 12 12.7825 12 12.7784C12 12.7744 12 12.7703 12 12.7663C12 12.7622 12 12.7582 12 12.7542C12 12.7501 12 12.7461 12 12.742C12 12.738 12 12.734 12 12.73C12 12.7259 12 12.7219 12 12.7179C12 12.7139 12 12.7099 12 12.7059C12 12.7019 12 12.6979 12 12.6939C12 12.6899 12 12.6859 12 12.6819C12 12.6779 12 12.6739 12 12.6699C12 12.6659 12 12.662 12 12.658C12 12.654 12 12.65 12 12.6461C12 12.6421 12 12.6382 12 12.6342C12 12.6302 12 12.6263 12 12.6223C12 12.6184 12 12.6144 12 12.6105C12 12.6066 12 12.6026 12 12.5987C12 12.5947 12 12.5908 12 12.5869C12 12.583 12 12.579 12 12.5751C12 12.5712 12 12.5673 12 12.5634C12 12.5595 12 12.5556 12 12.5517C12 12.5477 12 12.5438 12 12.54C12 12.5361 12 12.5322 12 12.5283C12 12.5244 12 12.5205 12 12.5166C12 12.5127 12 12.5089 12 12.505C12 12.5011 12 12.4972 12 12.4934C12 12.4895 12 12.4856 12 12.4818C12 12.4779 12 12.4741 12 12.4702C12 12.4664 12 12.4625 12 12.4587C12 12.4548 12 12.451 12 12.4472C12 12.4433 12 12.4395 12 12.4357C12 12.4318 12 12.428 12 12.4242C12 12.4204 12 12.4165 12 12.4127C12 12.4089 12 12.4051 12 12.4013C12 12.3975 12 12.3937 12 12.3899C12 12.3861 12 12.3823 12 12.3785C12 12.3747 12 12.3709 12 12.3671C12 12.3633 12 12.3595 12 12.3558C12 12.352 12 12.3482 12 12.3444C12 12.3406 12 12.3369 12 12.3331C12 12.3293 12 12.3256 12 12.3218C12 12.3181 12 12.3143 12 12.3105C12 12.3068 12 12.303 12 12.2993C12 12.2955 12 12.2918 12 12.2881C12 12.2843 12 12.2806 12 12.2769C12 12.2731 12 12.2694 12 12.2657C12 12.2619 12 12.2582 12 12.2545C12 12.2508 12 12.2471 12 12.2433C12 12.2396 12 12.2359 12 12.2322C12 12.2285 12 12.2248 12 12.2211C12 12.2174 12 12.2137 12 12.21C12 12.2063 12 12.2026 12 12.1989C12 12.1952 12 12.1915 12 12.1879C12 12.1842 12 12.1805 12 12.1768C12 12.1731 12 12.1695 12 12.1658C12 12.1621 12 12.1585 12 12.1548C12 12.1511 12 12.1475 12 12.1438C12 12.1402 12 12.1365 12 12.1328C12 12.1292 12 12.1255 12 12.1219C12 12.1182 12 12.1146 12 12.111C12 12.1073 12 12.1037 12 12.1C12 12.0964 12 12.0928 12 12.0892C12 12.0855 12 12.0819 12 12.0783C12 12.0747 12 12.071 12 12.0674C12 12.0638 12 12.0602 12 12.0566C12 12.053 12 12.0493 12 12.0457C12 12.0421 12 12.0385 12 12.0349C12 12.0313 12 12.0277 12 12.0241C12 12.0205 12 12.0169 12 12.0134C12 12.0098 12 12.0062 12 12.0026C12 11.999 12 11.9954 12 11.9919C12 11.9883 12 11.9847 12 11.9811C12 11.9776 12 11.974 12 11.9704C12 11.9668 12 11.9633 12 11.9597C12 11.9562 12 11.9526 12 11.949C12 11.9455 12 11.9419 12 11.9384C12 11.9348 12 11.9313 12 11.9277C12 11.9242 12 11.9206 12 11.9171C12 11.9135 12 11.91 12 11.9065C12 11.9029 12 11.8994 12 11.8959C12 11.8923 12 11.8888 12 11.8853C12 11.8817 12 11.8782 12 11.8747C12 11.8712 12 11.8677 12 11.8641C12 11.8606 12 11.8571 12 11.8536C12 11.8501 12 11.8466 12 11.8431C12 11.8396 12 11.836 12 11.8325C12 11.829 12 11.8255 12 11.822C12 11.8185 12 11.815 12 11.8116C12 11.8081 12 11.8046 12 11.8011C12 11.7976 12 11.7941 12 11.7906C12 11.7871 12 11.7837 12 11.7802C12 11.7767 12 11.7732 12 11.7697C12 11.7663 12 11.7628 12 11.7593C12 11.7558 12 11.7524 12 11.7489C12 11.7454 12 11.742 12 11.7385C12 11.7351 12 11.7316 12 11.7281C12 11.7247 12 11.7212 12 11.7178C12 11.7143 12 11.7109 12 11.7074C12 11.704 12 11.7005 12 11.6971C12 11.6936 12 11.6902 12 11.6867C12 11.6833 12 11.6799 12 11.6764C12 11.673 12 11.6695 12 11.6661C12 11.6627 12 11.6592 12 11.6558C12 11.6524 12 11.649 12 11.6455C12 11.6421 12 11.6387 12 11.6353C12 11.6318 12 11.6284 12 11.625C12 11.6216 12 11.6182 12 11.6148C12 11.6113 12 11.6079 12 11.6045C12 11.6011 12 11.5977 12 11.5943C12 11.5909 12 11.5875 12 11.5841C12 11.5807 12 11.5773 12 11.5739C12 11.5705 12 11.5671 12 11.5637C12 11.5603 12 11.5569 12 11.5535C12 11.5501 12 11.5467 12 11.5433C12 11.5399 12 11.5365 12 11.5332C12 11.5298 12 11.5264 12 11.523C12 11.5196 12 11.5162 12 11.5129C12 11.5095 12 11.5061 12 11.5027C12 11.4994 12 11.496 12 11.4926C12 11.4892 12 11.4859 12 11.4825C12 11.4791 12 11.4758 12 11.4724C12 11.469 12 11.4657 12 11.4623C12 11.4589 12 11.4556 12 11.4522C12 11.4489 12 11.4455 12 11.4422C12 11.4388 12 11.4354 12 11.4321C12 11.4287 12 11.4254 12 11.422C12 11.4187 12 11.4153 12 11.412C12 11.4086 12 11.4053 12 11.4019C12 11.3986 12 11.3953 12 11.3919C12 11.3886 12 11.3852 12 11.3819C12 11.3786 12 11.3752 12 11.3719C12 11.3685 12 11.3652 12 11.3619C12 11.3585 12 11.3552 12 11.3519C12 11.3485 12 11.3452 12 11.3419C12 11.3386 12 11.3352 12 11.3319C12 11.3286 12 11.3253 12 11.3219C12 11.3186 12 11.3153 12 11.312C12 11.3086 12 11.3053 12 11.302C12 11.2987 12 11.2954 12 11.292C12 11.2887 12 11.2854 12 11.2821C12 11.2788 12 11.2755 12 11.2722C12 11.2689 12 11.2655 12 11.2622C12 11.2589 12 11.2556 12 11.2523C12 11.249 12 11.2457 12 11.2424C12 11.2391 12 11.2358 12 11.2325C12 11.2292 12 11.2259 12 11.2226C12 11.2193 12 11.216 12 11.2127C12 11.2094 12 11.2061 12 11.2028C12 11.1995 12 11.1962 12 11.1929C12 11.1896 12 11.1863 12 11.183C12 11.1797 12 11.1764 12 11.1731C12 11.1698 12 11.1665 12 11.1633C12 11.16 12 11.1567 12 11.1534C12 11.1501 12 11.1468 12 11.1435C12 11.1402 12 11.137 12 11.1337C12 11.1304 12 11.1271 12 11.1238C12 11.1205 12 11.1173 12 11.114C12 11.1107 12 11.1074 12 11.1041C12 11.1008 12 11.0976 12 11.0943C12 11.091 12 11.0877 12 11.0845C12 11.0812 12 11.0779 12 11.0746C12 11.0713 12 11.0681 12 11.0648C12 11.0615 12 11.0583 12 11.055C12 11.0517 12 11.0484 12 11.0452C12 11.0419 12 11.0386 12 11.0353C12 11.0321 12 11.0288 12 11.0255C12 11.0223 12 11.019 12 11.0157C12 11.0125 12 11.0092 12 11.0059C12 11.0027 12 10.9994 12 10.9961C12 10.9929 12 10.9896 12 10.9863C12 10.9831 12 10.9798 12 10.9765C12 10.9733 12 10.97 12 10.9667C12 10.9635 12 10.9602 12 10.957C12 10.9537 12 10.9504 12 10.9472C12 10.9439 12 10.9406 12 10.9374C12 10.9341 12 10.9309 12 10.9276C12 10.9243 12 10.9211 12 10.9178C12 10.9146 12 10.9113 12 10.908C12 10.9048 12 10.9015 12 10.8983C12 10.895 12 10.8917 12 10.8885C12 10.8852 12 10.882 12 10.8787C12 10.8755 12 10.8722 12 10.8689C12 10.8657 12 10.8624 12 10.8592C12 10.8559 12 10.8527 12 10.8494C12 10.8461 12 10.8429 12 10.8396C12 10.8364 12 10.8331 12 10.8299C12 10.8266 12 10.8234 12 10.8201C12 10.8168 12 10.8136 12 10.8103C12 10.8071 12 10.8038 12 10.8006C12 10.7973 12 10.7941 12 10.7908C12 10.7875 12 10.7843 12 10.781C12 10.7778 12 10.7745 12 10.7713C12 10.768 12 10.7648 12 10.7615C12 10.7582 12 10.755 12 10.7517C12 10.7485 12 10.7452 12 10.742C12 10.7387 12 10.7355 12 10.7322C12 10.7289 12 10.7257 12 10.7224C12 10.7192 12 10.7159 12 10.7127C12 10.7094 12 10.7062 12 10.7029C12 10.6996 12 10.6964 12 10.6931C12 10.6899 12 10.6866 12 10.6834C12 10.6801 12 10.6768 12 10.6736C12 10.6703 12 10.6671 12 10.6638C12 10.6606 12 10.6573 12 10.654C12 10.6508 12 10.6475 12 10.6443C12 10.641 12 10.6377 12 10.6345C12 10.6312 12 10.628 12 10.6247C12 10.6214 12 10.6182 12 10.6149C12 10.6117 12 10.6084 12 10.6051C12 10.6019 12 10.5986 12 10.5953C12 10.5921 12 10.5888 12 10.5856C12 10.5823 12 10.579 12 10.5758C12 10.5725 12 10.5692 12 10.566C12 10.5627 12 10.5594 12 10.5562C12 10.5529 12 10.5496 12 10.5464C12 10.5431 12 10.5398 12 10.5366C12 10.5333 12 10.53 12 10.5267C12 10.5235 12 10.5202 12 10.5169C12 10.5137 12 10.5104 12 10.5071C12 10.5038 12 10.5006 12 10.4973C12 10.494 12 10.4908 12 10.4875C12 10.4842 12 10.4809 12 10.4777C12 10.4744 12 10.4711 12 10.4678C12 10.4645 12 10.4613 12 10.458C12 10.4547 12 10.4514 12 10.4481C12 10.4449 12 10.4416 12 10.4383C12 10.435 12 10.4317 12 10.4285C12 10.4252 12 10.4219 12 10.4186C12 10.4153 12 10.412 12 10.4087C12 10.4055 12 10.4022 12 10.3989C12 10.3956 12 10.3923 12 10.389C12 10.3857 12 10.3824 12 10.3791C12 10.3758 12 10.3726 12 10.3693C12 10.366 12 10.3627 12 10.3594C12 10.3561 12 10.3528 12 10.3495C12 10.3462 12 10.3429 12 10.3396C12 10.3363 12 10.333 12 10.3297C12 10.3264 12 10.3231 12 10.3198C12 10.3165 12 10.3132 12 10.3099C12 10.3066 12 10.3032 12 10.2999C12 10.2966 12 10.2933 12 10.29C12 10.2867 12 10.2834 12 10.2801C12 10.2768 12 10.2735 12 10.2701C12 10.2668 12 10.2635 12 10.2602C12 10.2569 12 10.2536 12 10.2502C12 10.2469 12 10.2436 12 10.2403C12 10.237 12 10.2336 12 10.2303C12 10.227 12 10.2237 12 10.2203C12 10.217 12 10.2137 12 10.2103C12 10.207 12 10.2037 12 10.2003C12 10.197 12 10.1937 12 10.1903C12 10.187 12 10.1837 12 10.1803C12 10.177 12 10.1737 12 10.1703C12 10.167 12 10.1636 12 10.1603C12 10.157 12 10.1536 12 10.1503C12 10.1469 12 10.1436 12 10.1402C12 10.1369 12 10.1335 12 10.1302C12 10.1268 12 10.1235 12 10.1201C12 10.1168 12 10.1134 12 10.11C12 10.1067 12 10.1033 12 10.1C12 10.0966 12 10.0932 12 10.0899C12 10.0865 12 10.0832 12 10.0798C12 10.0764 12 10.0731 12 10.0697C12 10.0663 12 10.0629 12 10.0596C12 10.0562 12 10.0528 12 10.0494C12 10.0461 12 10.0427 12 10.0393C12 10.0359 12 10.0325 12 10.0292C12 10.0258 12 10.0224 12 10.019C12 10.0156 12 10.0122 12 10.0088C12 10.0055 12 10.0021 12 9.99867C12 9.99527 12 9.99188 12 9.98848C12 9.98508 12 9.98169 12 9.97828C12 9.97488 12 9.97148 12 9.96808C12 9.96467 12 9.96127 12 9.95786C12 9.95445 12 9.95104 12 9.94763C12 9.94422 12 9.9408 12 9.93739C12 9.93397 12 9.93056 12 9.92714C12 9.92372 12 9.9203 12 9.91687C12 9.91345 12 9.91003 12 9.9066C12 9.90317 12 9.89974 12 9.89631C12 9.89288 12 9.88945 12 9.88601C12 9.88258 12 9.87914 12 9.8757C12 9.87226 12 9.86882 12 9.86538C12 9.86194 12 9.85849 12 9.85504C12 9.8516 12 9.84815 12 9.8447C12 9.84124 12 9.83779 12 9.83434C12 9.83088 12 9.82742 12 9.82396C12 9.8205 12 9.81704 12 9.81358C12 9.81011 12 9.80665 12 9.80318C12 9.79971 12 9.79624 12 9.79277C12 9.78929 12 9.78582 12 9.78234C12 9.77886 12 9.77538 12 9.7719C12 9.76842 12 9.76494 12 9.76145C12 9.75796 12 9.75448 12 9.75099C12 9.74749 12 9.744 12 9.74051C12 9.73701 12 9.73351 12 9.73001C12 9.72651 12 9.72301 12 9.71951C12 9.716 12 9.71249 12 9.70898C12 9.70547 12 9.70196 12 9.69845C12 9.69493 12 9.69142 12 9.6879C12 9.68438 12 9.68086 12 9.67733C12 9.67381 12 9.67028 12 9.66675C12 9.66323 12 9.65969 12 9.65616C12 9.65263 12 9.64909 12 9.64555C12 9.64201 12 9.63847 12 9.63493C12 9.63138 12 9.62784 12 9.62429C12 9.62074 12 9.61719 12 9.61363C12 9.61008 12 9.60652 12 9.60296C12 9.5994 12 9.59584 12 9.59227C12 9.58871 12 9.58514 12 9.58157C12 9.578 12 9.57443 12 9.57086C12 9.56728 12 9.5637 12 9.56012C12 9.55654 12 9.55296 12 9.54937C12 9.54579 12 9.5422 12 9.5386C12 9.53501 12 9.53142 12 9.52782C12 9.52422 12 9.52063 12 9.51702C12 9.51342 12 9.50981 12 9.50621C12 9.5026 12 9.49899 12 9.49537C12 9.49176 12 9.48814 12 9.48452C12 9.4809 12 9.47728 12 9.47366C12 9.47003 12 9.4664 12 9.46277C12 9.45914 12 9.45551 12 9.45187C12 9.44823 12 9.44459 12 9.44095C12 9.43731 12 9.43366 12 9.43001C12 9.42637 12 9.42271 12 9.41906C12 9.4154 12 9.41175 12 9.40809C12 9.40443 12 9.40076 12 9.3971C12 9.39343 12 9.38976 12 9.38609C12 9.38241 12 9.37874 12 9.37506C12 9.37138 12 9.3677 12 9.36401C12 9.36033 12 9.35664 12 9.35295C12 9.34926 12 9.34556 12 9.34187C12 9.33817 12 9.33447 12 9.33076C12 9.32706 12 9.32335 12 9.31964C12 9.31593 12 9.31222 12 9.3085C12 9.30479 12 9.30107 12 9.29734C12 9.29362 12 9.28989 12 9.28617C12 9.28244 12 9.2787 12 9.27497C12 9.27123 12 9.26749 12 9.26375C12 9.26001 12 9.25626 12 9.25251C12 9.24876 12 9.24501 12 9.24125C12 9.2375 12 9.23374 12 9.22998C12 9.22621 12 9.22245 12 9.21868C12 9.21491 12 9.21114 12 9.20736C12 9.20358 12 9.1998 12 9.19602C12 9.19224 12 9.18845 12 9.18466C12 9.18087 12 9.17708 12 9.17328C12 9.16948 12 9.16568 12 9.16188C12 9.15808 12 9.15427 12 9.15046C12 9.14665 12 9.14283 12 9.13902C12 9.1352 12 9.13138 12 9.12755C12 9.12373 12 9.1199 12 9.11607C12 9.11223 12 9.1084 12 9.10456C12 9.10072 12 9.09688 12 9.09303C12 9.08918 12 9.08533 12 9.08148C12 9.07762 12 9.07377 12 9.06991C12 9.06604 12 9.06218 12 9.05831C12 9.05444 12 9.05057 12 9.04669C12 9.04282 12 9.03894 12 9.03505C12 9.03117 12 9.02728 12 9.02339C12 9.0195 12 9.01561 12 9.01171C12 9.00781 12 9.00391 12 9H10C10 9.00391 10 9.00781 10 9.01171C10 9.01561 10 9.0195 10 9.02339C10 9.02728 10 9.03117 10 9.03505C10 9.03894 10 9.04282 10 9.04669C10 9.05057 10 9.05444 10 9.05831C10 9.06218 10 9.06604 10 9.06991C10 9.07377 10 9.07762 10 9.08148C10 9.08533 10 9.08918 10 9.09303C10 9.09688 10 9.10072 10 9.10456C10 9.1084 10 9.11223 10 9.11607C10 9.1199 10 9.12373 10 9.12755C10 9.13138 10 9.1352 10 9.13902C10 9.14283 10 9.14665 10 9.15046C10 9.15427 10 9.15808 10 9.16188C10 9.16568 10 9.16948 10 9.17328C10 9.17708 10 9.18087 10 9.18466C10 9.18845 10 9.19224 10 9.19602C10 9.1998 10 9.20358 10 9.20736C10 9.21114 10 9.21491 10 9.21868C10 9.22245 10 9.22621 10 9.22998C10 9.23374 10 9.2375 10 9.24125C10 9.24501 10 9.24876 10 9.25251C10 9.25626 10 9.26001 10 9.26375C10 9.26749 10 9.27123 10 9.27497C10 9.2787 10 9.28244 10 9.28617C10 9.28989 10 9.29362 10 9.29734C10 9.30107 10 9.30479 10 9.3085C10 9.31222 10 9.31593 10 9.31964C10 9.32335 10 9.32706 10 9.33076C10 9.33447 10 9.33817 10 9.34187C10 9.34556 10 9.34926 10 9.35295C10 9.35664 10 9.36033 10 9.36401C10 9.3677 10 9.37138 10 9.37506C10 9.37874 10 9.38241 10 9.38609C10 9.38976 10 9.39343 10 9.3971C10 9.40076 10 9.40443 10 9.40809C10 9.41175 10 9.4154 10 9.41906C10 9.42271 10 9.42637 10 9.43001C10 9.43366 10 9.43731 10 9.44095C10 9.44459 10 9.44823 10 9.45187C10 9.45551 10 9.45914 10 9.46277C10 9.4664 10 9.47003 10 9.47366C10 9.47728 10 9.4809 10 9.48452C10 9.48814 10 9.49176 10 9.49537C10 9.49899 10 9.5026 10 9.50621C10 9.50981 10 9.51342 10 9.51702C10 9.52063 10 9.52422 10 9.52782C10 9.53142 10 9.53501 10 9.5386C10 9.5422 10 9.54579 10 9.54937C10 9.55296 10 9.55654 10 9.56012C10 9.5637 10 9.56728 10 9.57086C10 9.57443 10 9.578 10 9.58157C10 9.58514 10 9.58871 10 9.59227C10 9.59584 10 9.5994 10 9.60296C10 9.60652 10 9.61008 10 9.61363C10 9.61719 10 9.62074 10 9.62429C10 9.62784 10 9.63138 10 9.63493C10 9.63847 10 9.64201 10 9.64555C10 9.64909 10 9.65263 10 9.65616C10 9.65969 10 9.66323 10 9.66675C10 9.67028 10 9.67381 10 9.67733C10 9.68086 10 9.68438 10 9.6879C10 9.69142 10 9.69493 10 9.69845C10 9.70196 10 9.70547 10 9.70898C10 9.71249 10 9.716 10 9.71951C10 9.72301 10 9.72651 10 9.73001C10 9.73351 10 9.73701 10 9.74051C10 9.744 10 9.74749 10 9.75099C10 9.75448 10 9.75796 10 9.76145C10 9.76494 10 9.76842 10 9.7719C10 9.77538 10 9.77886 10 9.78234C10 9.78582 10 9.78929 10 9.79277C10 9.79624 10 9.79971 10 9.80318C10 9.80665 10 9.81011 10 9.81358C10 9.81704 10 9.8205 10 9.82396C10 9.82742 10 9.83088 10 9.83434C10 9.83779 10 9.84124 10 9.8447C10 9.84815 10 9.8516 10 9.85504C10 9.85849 10 9.86194 10 9.86538C10 9.86882 10 9.87226 10 9.8757C10 9.87914 10 9.88258 10 9.88601C10 9.88945 10 9.89288 10 9.89631C10 9.89974 10 9.90317 10 9.9066C10 9.91003 10 9.91345 10 9.91687C10 9.9203 10 9.92372 10 9.92714C10 9.93056 10 9.93397 10 9.93739C10 9.9408 10 9.94422 10 9.94763C10 9.95104 10 9.95445 10 9.95786C10 9.96127 10 9.96467 10 9.96808C10 9.97148 10 9.97488 10 9.97828C10 9.98169 10 9.98508 10 9.98848C10 9.99188 10 9.99527 10 9.99867C10 10.0021 10 10.0055 10 10.0088C10 10.0122 10 10.0156 10 10.019C10 10.0224 10 10.0258 10 10.0292C10 10.0325 10 10.0359 10 10.0393C10 10.0427 10 10.0461 10 10.0494C10 10.0528 10 10.0562 10 10.0596C10 10.0629 10 10.0663 10 10.0697C10 10.0731 10 10.0764 10 10.0798C10 10.0832 10 10.0865 10 10.0899C10 10.0932 10 10.0966 10 10.1C10 10.1033 10 10.1067 10 10.11C10 10.1134 10 10.1168 10 10.1201C10 10.1235 10 10.1268 10 10.1302C10 10.1335 10 10.1369 10 10.1402C10 10.1436 10 10.1469 10 10.1503C10 10.1536 10 10.157 10 10.1603C10 10.1636 10 10.167 10 10.1703C10 10.1737 10 10.177 10 10.1803C10 10.1837 10 10.187 10 10.1903C10 10.1937 10 10.197 10 10.2003C10 10.2037 10 10.207 10 10.2103C10 10.2137 10 10.217 10 10.2203C10 10.2237 10 10.227 10 10.2303C10 10.2336 10 10.237 10 10.2403C10 10.2436 10 10.2469 10 10.2502C10 10.2536 10 10.2569 10 10.2602C10 10.2635 10 10.2668 10 10.2701C10 10.2735 10 10.2768 10 10.2801C10 10.2834 10 10.2867 10 10.29C10 10.2933 10 10.2966 10 10.2999C10 10.3032 10 10.3066 10 10.3099C10 10.3132 10 10.3165 10 10.3198C10 10.3231 10 10.3264 10 10.3297C10 10.333 10 10.3363 10 10.3396C10 10.3429 10 10.3462 10 10.3495C10 10.3528 10 10.3561 10 10.3594C10 10.3627 10 10.366 10 10.3693C10 10.3726 10 10.3758 10 10.3791C10 10.3824 10 10.3857 10 10.389C10 10.3923 10 10.3956 10 10.3989C10 10.4022 10 10.4055 10 10.4087C10 10.412 10 10.4153 10 10.4186C10 10.4219 10 10.4252 10 10.4285C10 10.4317 10 10.435 10 10.4383C10 10.4416 10 10.4449 10 10.4481C10 10.4514 10 10.4547 10 10.458C10 10.4613 10 10.4645 10 10.4678C10 10.4711 10 10.4744 10 10.4777C10 10.4809 10 10.4842 10 10.4875C10 10.4908 10 10.494 10 10.4973C10 10.5006 10 10.5038 10 10.5071C10 10.5104 10 10.5137 10 10.5169C10 10.5202 10 10.5235 10 10.5267C10 10.53 10 10.5333 10 10.5366C10 10.5398 10 10.5431 10 10.5464C10 10.5496 10 10.5529 10 10.5562C10 10.5594 10 10.5627 10 10.566C10 10.5692 10 10.5725 10 10.5758C10 10.579 10 10.5823 10 10.5856C10 10.5888 10 10.5921 10 10.5953C10 10.5986 10 10.6019 10 10.6051C10 10.6084 10 10.6117 10 10.6149C10 10.6182 10 10.6214 10 10.6247C10 10.628 10 10.6312 10 10.6345C10 10.6377 10 10.641 10 10.6443C10 10.6475 10 10.6508 10 10.654C10 10.6573 10 10.6606 10 10.6638C10 10.6671 10 10.6703 10 10.6736C10 10.6768 10 10.6801 10 10.6834C10 10.6866 10 10.6899 10 10.6931C10 10.6964 10 10.6996 10 10.7029C10 10.7062 10 10.7094 10 10.7127C10 10.7159 10 10.7192 10 10.7224C10 10.7257 10 10.7289 10 10.7322C10 10.7355 10 10.7387 10 10.742C10 10.7452 10 10.7485 10 10.7517C10 10.755 10 10.7582 10 10.7615C10 10.7648 10 10.768 10 10.7713C10 10.7745 10 10.7778 10 10.781C10 10.7843 10 10.7875 10 10.7908C10 10.7941 10 10.7973 10 10.8006C10 10.8038 10 10.8071 10 10.8103C10 10.8136 10 10.8168 10 10.8201C10 10.8234 10 10.8266 10 10.8299C10 10.8331 10 10.8364 10 10.8396C10 10.8429 10 10.8461 10 10.8494C10 10.8527 10 10.8559 10 10.8592C10 10.8624 10 10.8657 10 10.8689C10 10.8722 10 10.8755 10 10.8787C10 10.882 10 10.8852 10 10.8885C10 10.8917 10 10.895 10 10.8983C10 10.9015 10 10.9048 10 10.908C10 10.9113 10 10.9146 10 10.9178C10 10.9211 10 10.9243 10 10.9276C10 10.9309 10 10.9341 10 10.9374C10 10.9406 10 10.9439 10 10.9472C10 10.9504 10 10.9537 10 10.957C10 10.9602 10 10.9635 10 10.9667C10 10.97 10 10.9733 10 10.9765C10 10.9798 10 10.9831 10 10.9863C10 10.9896 10 10.9929 10 10.9961C10 10.9994 10 11.0027 10 11.0059C10 11.0092 10 11.0125 10 11.0157C10 11.019 10 11.0223 10 11.0255C10 11.0288 10 11.0321 10 11.0353C10 11.0386 10 11.0419 10 11.0452C10 11.0484 10 11.0517 10 11.055C10 11.0583 10 11.0615 10 11.0648C10 11.0681 10 11.0713 10 11.0746C10 11.0779 10 11.0812 10 11.0845C10 11.0877 10 11.091 10 11.0943C10 11.0976 10 11.1008 10 11.1041C10 11.1074 10 11.1107 10 11.114C10 11.1173 10 11.1205 10 11.1238C10 11.1271 10 11.1304 10 11.1337C10 11.137 10 11.1402 10 11.1435C10 11.1468 10 11.1501 10 11.1534C10 11.1567 10 11.16 10 11.1633C10 11.1665 10 11.1698 10 11.1731C10 11.1764 10 11.1797 10 11.183C10 11.1863 10 11.1896 10 11.1929C10 11.1962 10 11.1995 10 11.2028C10 11.2061 10 11.2094 10 11.2127C10 11.216 10 11.2193 10 11.2226C10 11.2259 10 11.2292 10 11.2325C10 11.2358 10 11.2391 10 11.2424C10 11.2457 10 11.249 10 11.2523C10 11.2556 10 11.2589 10 11.2622C10 11.2655 10 11.2689 10 11.2722C10 11.2755 10 11.2788 10 11.2821C10 11.2854 10 11.2887 10 11.292C10 11.2954 10 11.2987 10 11.302C10 11.3053 10 11.3086 10 11.312C10 11.3153 10 11.3186 10 11.3219C10 11.3253 10 11.3286 10 11.3319C10 11.3352 10 11.3386 10 11.3419C10 11.3452 10 11.3485 10 11.3519C10 11.3552 10 11.3585 10 11.3619C10 11.3652 10 11.3685 10 11.3719C10 11.3752 10 11.3786 10 11.3819C10 11.3852 10 11.3886 10 11.3919C10 11.3953 10 11.3986 10 11.4019C10 11.4053 10 11.4086 10 11.412C10 11.4153 10 11.4187 10 11.422C10 11.4254 10 11.4287 10 11.4321C10 11.4354 10 11.4388 10 11.4422C10 11.4455 10 11.4489 10 11.4522C10 11.4556 10 11.4589 10 11.4623C10 11.4657 10 11.469 10 11.4724C10 11.4758 10 11.4791 10 11.4825C10 11.4859 10 11.4892 10 11.4926C10 11.496 10 11.4994 10 11.5027C10 11.5061 10 11.5095 10 11.5129C10 11.5162 10 11.5196 10 11.523C10 11.5264 10 11.5298 10 11.5332C10 11.5365 10 11.5399 10 11.5433C10 11.5467 10 11.5501 10 11.5535C10 11.5569 10 11.5603 10 11.5637C10 11.5671 10 11.5705 10 11.5739C10 11.5773 10 11.5807 10 11.5841C10 11.5875 10 11.5909 10 11.5943C10 11.5977 10 11.6011 10 11.6045C10 11.6079 10 11.6113 10 11.6148C10 11.6182 10 11.6216 10 11.625C10 11.6284 10 11.6318 10 11.6353C10 11.6387 10 11.6421 10 11.6455C10 11.649 10 11.6524 10 11.6558C10 11.6592 10 11.6627 10 11.6661C10 11.6695 10 11.673 10 11.6764C10 11.6799 10 11.6833 10 11.6867C10 11.6902 10 11.6936 10 11.6971C10 11.7005 10 11.704 10 11.7074C10 11.7109 10 11.7143 10 11.7178C10 11.7212 10 11.7247 10 11.7281C10 11.7316 10 11.7351 10 11.7385C10 11.742 10 11.7454 10 11.7489C10 11.7524 10 11.7558 10 11.7593C10 11.7628 10 11.7663 10 11.7697C10 11.7732 10 11.7767 10 11.7802C10 11.7837 10 11.7871 10 11.7906C10 11.7941 10 11.7976 10 11.8011C10 11.8046 10 11.8081 10 11.8116C10 11.815 10 11.8185 10 11.822C10 11.8255 10 11.829 10 11.8325C10 11.836 10 11.8396 10 11.8431C10 11.8466 10 11.8501 10 11.8536C10 11.8571 10 11.8606 10 11.8641C10 11.8677 10 11.8712 10 11.8747C10 11.8782 10 11.8817 10 11.8853C10 11.8888 10 11.8923 10 11.8959C10 11.8994 10 11.9029 10 11.9065C10 11.91 10 11.9135 10 11.9171C10 11.9206 10 11.9242 10 11.9277C10 11.9313 10 11.9348 10 11.9384C10 11.9419 10 11.9455 10 11.949C10 11.9526 10 11.9562 10 11.9597C10 11.9633 10 11.9668 10 11.9704C10 11.974 10 11.9776 10 11.9811C10 11.9847 10 11.9883 10 11.9919C10 11.9954 10 11.999 10 12.0026C10 12.0062 10 12.0098 10 12.0134C10 12.0169 10 12.0205 10 12.0241C10 12.0277 10 12.0313 10 12.0349C10 12.0385 10 12.0421 10 12.0457C10 12.0493 10 12.053 10 12.0566C10 12.0602 10 12.0638 10 12.0674C10 12.071 10 12.0747 10 12.0783C10 12.0819 10 12.0855 10 12.0892C10 12.0928 10 12.0964 10 12.1C10 12.1037 10 12.1073 10 12.111C10 12.1146 10 12.1182 10 12.1219C10 12.1255 10 12.1292 10 12.1328C10 12.1365 10 12.1402 10 12.1438C10 12.1475 10 12.1511 10 12.1548C10 12.1585 10 12.1621 10 12.1658C10 12.1695 10 12.1731 10 12.1768C10 12.1805 10 12.1842 10 12.1879C10 12.1915 10 12.1952 10 12.1989C10 12.2026 10 12.2063 10 12.21C10 12.2137 10 12.2174 10 12.2211C10 12.2248 10 12.2285 10 12.2322C10 12.2359 10 12.2396 10 12.2433C10 12.2471 10 12.2508 10 12.2545C10 12.2582 10 12.2619 10 12.2657C10 12.2694 10 12.2731 10 12.2769C10 12.2806 10 12.2843 10 12.2881C10 12.2918 10 12.2955 10 12.2993C10 12.303 10 12.3068 10 12.3105C10 12.3143 10 12.3181 10 12.3218C10 12.3256 10 12.3293 10 12.3331C10 12.3369 10 12.3406 10 12.3444C10 12.3482 10 12.352 10 12.3558C10 12.3595 10 12.3633 10 12.3671C10 12.3709 10 12.3747 10 12.3785C10 12.3823 10 12.3861 10 12.3899C10 12.3937 10 12.3975 10 12.4013C10 12.4051 10 12.4089 10 12.4127C10 12.4165 10 12.4204 10 12.4242C10 12.428 10 12.4318 10 12.4357C10 12.4395 10 12.4433 10 12.4472C10 12.451 10 12.4548 10 12.4587C10 12.4625 10 12.4664 10 12.4702C10 12.4741 10 12.4779 10 12.4818C10 12.4856 10 12.4895 10 12.4934C10 12.4972 10 12.5011 10 12.505C10 12.5089 10 12.5127 10 12.5166C10 12.5205 10 12.5244 10 12.5283C10 12.5322 10 12.5361 10 12.54C10 12.5438 10 12.5477 10 12.5517C10 12.5556 10 12.5595 10 12.5634C10 12.5673 10 12.5712 10 12.5751C10 12.579 10 12.583 10 12.5869C10 12.5908 10 12.5947 10 12.5987C10 12.6026 10 12.6066 10 12.6105C10 12.6144 10 12.6184 10 12.6223C10 12.6263 10 12.6302 10 12.6342C10 12.6382 10 12.6421 10 12.6461C10 12.65 10 12.654 10 12.658C10 12.662 10 12.6659 10 12.6699C10 12.6739 10 12.6779 10 12.6819C10 12.6859 10 12.6899 10 12.6939C10 12.6979 10 12.7019 10 12.7059C10 12.7099 10 12.7139 10 12.7179C10 12.7219 10 12.7259 10 12.73C10 12.734 10 12.738 10 12.742C10 12.7461 10 12.7501 10 12.7542C10 12.7582 10 12.7622 10 12.7663C10 12.7703 10 12.7744 10 12.7784C10 12.7825 10 12.7866 10 12.7906C10 12.7947 10 12.7988 10 12.8028C10 12.8069 10 12.811 10 12.8151C10 12.8191 10 12.8232 10 12.8273C10 12.8314 10 12.8355 10 12.8396C10 12.8437 10 12.8478 10 12.8519C10 12.856 10 12.8601 10 12.8643C10 12.8684 10 12.8725 10 12.8766C10 12.8807 10 12.8849 10 12.889C10 12.8931 10 12.8973 10 12.9014C10 12.9056 10 12.9097 10 12.9139C10 12.918 10 12.9222 10 12.9263C10 12.9305 10 12.9347 10 12.9388C10 12.943 10 12.9472 10 12.9514C10 12.9555 10 12.9597 10 12.9639C10 12.9681 10 12.9723 10 12.9765C10 12.9807 10 12.9849 10 12.9891C10 12.9933 10 12.9975 10 13.0017C10 13.0059 10 13.0102 10 13.0144C10 13.0186 10 13.0228 10 13.0271C10 13.0313 10 13.0356 10 13.0398C10 13.044 10 13.0483 10 13.0525C10 13.0568 10 13.0611 10 13.0653C10 13.0696 10 13.0739 10 13.0781C10 13.0824 10 13.0867 10 13.091C10 13.0952 10 13.0995 10 13.1038C10 13.1081 10 13.1124 10 13.1167C10 13.121 10 13.1253 10 13.1296C10 13.1339 10 13.1383 10 13.1426C10 13.1469 10 13.1512 10 13.1555C10 13.1599 10 13.1642 10 13.1686C10 13.1729 10 13.1772 10 13.1816C10 13.1859 10 13.1903 10 13.1947C10 13.199 10 13.2034 10 13.2078C10 13.2121 10 13.2165 10 13.2209C10 13.2253 10 13.2296 10 13.234C10 13.2384 10 13.2428 10 13.2472C10 13.2516 10 13.256 10 13.2604C10 13.2648 10 13.2693 10 13.2737C10 13.2781 10 13.2825 10 13.287C10 13.2914 10 13.2958 10 13.3003C10 13.3047 10 13.3092 10 13.3136C10 13.3181 10 13.3225 10 13.327C10 13.3314 10 13.3359 10 13.3404C10 13.3448 10 13.3493 10 13.3538C10 13.3583 10 13.3628 10 13.3673C10 13.3718 10 13.3763 10 13.3808C10 13.3853 10 13.3898 10 13.3943C10 13.3988 10 13.4033 10 13.4078C10 13.4124 10 13.4169 10 13.4214C10 13.426 10 13.4305 10 13.4351C10 13.4396 10 13.4442 10 13.4487C10 13.4533 10 13.4578 10 13.4624C10 13.467 10 13.4715 10 13.4761C10 13.4807 10 13.4853 10 13.4899C10 13.4945 10 13.4991 10 13.5037C10 13.5083 10 13.5129 10 13.5175C10 13.5221 10 13.5267 10 13.5313C10 13.536 10 13.5406 10 13.5452C10 13.5498 10 13.5545 10 13.5591C10 13.5638 10 13.5684 10 13.5731C10 13.5777 10 13.5824 10 13.5871C10 13.5917 10 13.5964 10 13.6011C10 13.6058 10 13.6104 10 13.6151C10 13.6198 10 13.6245 10 13.6292C10 13.6339 10 13.6386 10 13.6433C10 13.6481 10 13.6528 10 13.6575C10 13.6622 10 13.667 10 13.6717C10 13.6764 10 13.6812 10 13.6859C10 13.6907 10 13.6954 10 13.7002C10 13.7049 10 13.7097 10 13.7145C10 13.7192 10 13.724 10 13.7288C10 13.7336 10 13.7384 10 13.7432C10 13.7479 10 13.7527 10 13.7576C10 13.7624 10 13.7672 10 13.772C10 13.7768 10 13.7816 10 13.7865C10 13.7913 10 13.7961 10 13.801C10 13.8058 10 13.8106 10 13.8155C10 13.8203 10 13.8252 10 13.8301C10 13.8349 10 13.8398 10 13.8447C10 13.8496 10 13.8544 10 13.8593C10 13.8642 10 13.8691 10 13.874C10 13.8789 10 13.8838 10 13.8887C10 13.8937 10 13.8986 10 13.9035C10 13.9084 10 13.9134 10 13.9183C10 13.9232 10 13.9282 10 13.9331C10 13.9381 10 13.943 10 13.948C10 13.9529 10 13.9579 10 13.9629C10 13.9679 10 13.9728 10 13.9778C10 13.9828 10 13.9878 10 13.9928C10 13.9978 10 14.0028 10 14.0078C10 14.0128 10 14.0179 10 14.0229C10 14.0279 10 14.0329 10 14.038C10 14.043 10 14.0481 10 14.0531C10 14.0582 10 14.0632 10 14.0683C10 14.0733 10 14.0784 10 14.0835C10 14.0886 10 14.0936 10 14.0987C10 14.1038 10 14.1089 10 14.114C10 14.1191 10 14.1242 10 14.1293C10 14.1344 10 14.1396 10 14.1447C10 14.1498 10 14.1549 10 14.1601C10 14.1652 10 14.1704 10 14.1755C10 14.1807 10 14.1858 10 14.191C10 14.1962 10 14.2013 10 14.2065C10 14.2117 10 14.2169 10 14.2221C10 14.2273 10 14.2325 10 14.2377C10 14.2429 10 14.2481 10 14.2533C10 14.2585 10 14.2637 10 14.269C10 14.2742 10 14.2794 10 14.2847C10 14.2899 10 14.2952 10 14.3004C10 14.3057 10 14.311 10 14.3162C10 14.3215 10 14.3268 10 14.3321C10 14.3374 10 14.3426 10 14.3479C10 14.3532 10 14.3585 10 14.3639C10 14.3692 10 14.3745 10 14.3798C10 14.3851 10 14.3905 10 14.3958C10 14.4011 10 14.4065 10 14.4118C10 14.4172 10 14.4226 10 14.4279C10 14.4333 10 14.4387 10 14.444C10 14.4494 10 14.4548 10 14.4602C10 14.4656 10 14.471 10 14.4764C10 14.4818 10 14.4872 10 14.4927C10 14.4981 10 14.5035 10 14.5089C10 14.5144 10 14.5198 10 14.5253C10 14.5307 10 14.5362 10 14.5416C10 14.5471 10 14.5526 10 14.558C10 14.5635 10 14.569 10 14.5745C10 14.58 10 14.5855 10 14.591C10 14.5965 10 14.602 10 14.6075C10 14.6131 10 14.6186 10 14.6241C10 14.6297 10 14.6352 10 14.6407C10 14.6463 10 14.6519 10 14.6574C10 14.663 10 14.6685 10 14.6741C10 14.6797 10 14.6853 10 14.6909C10 14.6965 10 14.7021 10 14.7077C10 14.7133 10 14.7189 10 14.7245C10 14.7301 10 14.7358 10 14.7414C10 14.747 10 14.7527 10 14.7583C10 14.764 10 14.7696 10 14.7753C10 14.781 10 14.7866 10 14.7923C10 14.798 10 14.8037 10 14.8094C10 14.8151 10 14.8208 10 14.8265C10 14.8322 10 14.8379 10 14.8436C10 14.8494 10 14.8551 10 14.8608C10 14.8666 10 14.8723 10 14.8781C10 14.8838 10 14.8896 10 14.8954C10 14.9011 10 14.9069 10 14.9127C10 14.9185 10 14.9243 10 14.9301C10 14.9359 10 14.9417 10 14.9475C10 14.9533 10 14.9591 10 14.9649C10 14.9708 10 14.9766 10 14.9824C10 14.9883 10 14.9941 10 15H12ZM12 9C12 7.84586 11.7108 7.04657 11.2071 6.54289C10.9599 6.29573 10.6959 6.15705 10.4725 6.08257C10.3625 6.0459 10.2643 6.02537 10.1844 6.01396C10.1444 6.00824 10.1086 6.00476 10.0777 6.0027C10.0623 6.00167 10.0481 6.001 10.0351 6.00058C10.0286 6.00037 10.0224 6.00023 10.0166 6.00013C10.0137 6.00009 10.0108 6.00005 10.0081 6.00003C10.0067 6.00002 10.0053 6.00001 10.004 6.00001C10.0033 6.00001 10.0023 6 10.002 6C10.001 6 10 6 10 7C10 8 9.99903 8 9.99805 8C9.99774 8 9.99676 7.99999 9.99612 7.99999C9.99484 7.99999 9.99357 7.99998 9.99231 7.99997C9.98978 7.99995 9.9873 7.99992 9.98485 7.99988C9.97996 7.9998 9.97522 7.99969 9.97063 7.99954C9.96144 7.99924 9.95282 7.99881 9.94471 7.99827C9.92853 7.99719 9.91423 7.99567 9.90155 7.99386C9.87635 7.99026 9.85626 7.98535 9.84002 7.97993C9.80407 7.96795 9.79006 7.95427 9.79289 7.95711C9.79573 7.95994 9.84455 8.00843 9.89507 8.15998C9.9472 8.31637 10 8.58035 10 9H12ZM20 12C20 13.0506 19.7931 14.0909 19.391 15.0615L21.2388 15.8268C21.7413 14.6136 22 13.3132 22 12L20 12ZM19.391 15.0615C18.989 16.0321 18.3997 16.914 17.6569 17.6569L19.0711 19.0711C19.9997 18.1425 20.7362 17.0401 21.2388 15.8268L19.391 15.0615ZM17.6569 17.6569C16.914 18.3997 16.0321 18.989 15.0615 19.391L15.8268 21.2388C17.0401 20.7362 18.1425 19.9997 19.0711 19.0711L17.6569 17.6569ZM15.0615 19.391C14.0909 19.7931 13.0506 20 12 20V22C13.3132 22 14.6136 21.7413 15.8268 21.2388L15.0615 19.391ZM12 20C10.9494 20 9.90914 19.7931 8.93853 19.391L8.17317 21.2388C9.38642 21.7413 10.6868 22 12 22V20ZM8.93853 19.391C7.96793 18.989 7.08601 18.3997 6.34315 17.6569L4.92893 19.0711C5.85752 19.9997 6.95991 20.7362 8.17317 21.2388L8.93853 19.391ZM6.34315 17.6569C5.60028 16.914 5.011 16.0321 4.60896 15.0615L2.7612 15.8268C3.26375 17.0401 4.00035 18.1425 4.92893 19.0711L6.34315 17.6569ZM4.60896 15.0615C4.20693 14.0909 4 13.0506 4 12L2 12C2 13.3132 2.25866 14.6136 2.7612 15.8268L4.60896 15.0615ZM4 12C4 9.87827 4.84285 7.84344 6.34315 6.34315L4.92893 4.92893C3.05357 6.8043 2 9.34784 2 12L4 12ZM6.34315 6.34315C7.84344 4.84285 9.87827 4 12 4V2C9.34784 2 6.8043 3.05357 4.92893 4.92893L6.34315 6.34315ZM12 4C14.1217 4 16.1566 4.84285 17.6569 6.34315L19.0711 4.92893C17.1957 3.05357 14.6522 2 12 2V4ZM17.6569 6.34315C19.1571 7.84344 20 9.87827 20 12L22 12C22 9.34783 20.9464 6.8043 19.0711 4.92893L17.6569 6.34315ZM14 15C14 15.5523 13.5523 16 13 16V18C14.6569 18 16 16.6569 16 15H14ZM13 16C12.4477 16 12 15.5523 12 15H10C10 16.6569 11.3431 18 13 18V16ZM8 12H16V10H8V12Z" fill="black"/>
</svg>
