<svg width="24" height="24" viewBox="0 0 24 24" fill="none" xmlns="http://www.w3.org/2000/svg">
<path d="M20.3542 15.3542L21.2821 15.7271C21.4314 15.3554 21.3446 14.9304 21.0613 14.6471C20.778 14.3639 20.353 14.277 19.9813 14.4264L20.3542 15.3542ZM8.64581 3.64587L9.57369 4.01876C9.72307 3.64704 9.6362 3.22204 9.35292 2.93877C9.06964 2.65549 8.64465 2.56861 8.27293 2.718L8.64581 3.64587ZM19.9813 14.4264C19.0613 14.7961 18.0557 15.0001 17 15.0001V17.0001C18.3155 17.0001 19.5739 16.7455 20.7271 16.2821L19.9813 14.4264ZM17 15.0001C12.5817 15.0001 9 11.4183 9 7.00006H7C7 12.5229 11.4772 17.0001 17 17.0001V15.0001ZM9 7.00006C9 5.94438 9.20396 4.93879 9.57369 4.01876L7.71794 3.27299C7.25452 4.42612 7 5.6846 7 7.00006H9ZM4 12.0001C4 8.6372 6.07526 5.75664 9.0187 4.57375L8.27293 2.718C4.59771 4.19496 2 7.79294 2 12.0001H4ZM12 20.0001C7.58172 20.0001 4 16.4183 4 12.0001H2C2 17.5229 6.47715 22.0001 12 22.0001V20.0001ZM19.4263 14.9814C18.2434 17.9248 15.3629 20.0001 12 20.0001V22.0001C16.2071 22.0001 19.8051 19.4024 21.2821 15.7271L19.4263 14.9814Z" fill="#4A5568"/>
</svg>
