<svg width="24" height="24" viewBox="0 0 24 24" fill="none" xmlns="http://www.w3.org/2000/svg">
<path d="M20 12C20 16.4183 16.4183 20 12 20V22C17.5228 22 22 17.5228 22 12H20ZM12 20C7.58172 20 4 16.4183 4 12H2C2 17.5228 6.47715 22 12 22V20ZM4 12C4 7.58172 7.58172 4 12 4V2C6.47715 2 2 6.47715 2 12H4ZM12 4C16.4183 4 20 7.58172 20 12H22C22 6.47715 17.5228 2 12 2V4ZM15 12C15 13.6569 13.6569 15 12 15V17C14.7614 17 17 14.7614 17 12H15ZM12 15C10.3431 15 9 13.6569 9 12H7C7 14.7614 9.23858 17 12 17V15ZM9 12C9 10.3431 10.3431 9 12 9V7C9.23858 7 7 9.23858 7 12H9ZM12 9C13.6569 9 15 10.3431 15 12H17C17 9.23858 14.7614 7 12 7V9ZM17.6569 4.92893L14.1213 8.46447L15.5355 9.87868L19.0711 6.34315L17.6569 4.92893ZM14.1213 15.5355L17.6569 19.0711L19.0711 17.6569L15.5355 14.1213L14.1213 15.5355ZM9.87868 8.46447L6.34315 4.92893L4.92893 6.34315L8.46447 9.87868L9.87868 8.46447ZM8.46447 14.1213L4.92893 17.6569L6.34315 19.0711L9.87868 15.5355L8.46447 14.1213Z" fill="#4B5563"/>
</svg>
