<svg width="24" height="24" viewBox="0 0 24 24" fill="none" xmlns="http://www.w3.org/2000/svg">
<path d="M15 17V19M15 11V13M15 5V7" stroke="black" stroke-width="2" stroke-linecap="round"/>
<path d="M22 15C20.3431 15 19 13.6569 19 12C19 10.3431 20.3431 9 22 9M2 15C3.65685 15 5 13.6569 5 12C5 10.3431 3.65685 9 2 9" stroke="black" stroke-width="2"/>
<path d="M21 14V17C21 18.1046 20.1046 19 19 19H5C3.89543 19 3 18.1046 3 17V14M21 10V7C21 5.89543 20.1046 5 19 5H5C3.89543 5 3 5.89543 3 7V10" stroke="black" stroke-width="2"/>
</svg>
