<svg width="24" height="24" viewBox="0 0 24 24" fill="none" xmlns="http://www.w3.org/2000/svg">
<path d="M17 14V20M14 17H20M6 10H8C9.10457 10 10 9.10457 10 8V6C10 4.89543 9.10457 4 8 4H6C4.89543 4 4 4.89543 4 6V8C4 9.10457 4.89543 10 6 10ZM16 10H18C19.1046 10 20 9.10457 20 8V6C20 4.89543 19.1046 4 18 4H16C14.8954 4 14 4.89543 14 6V8C14 9.10457 14.8954 10 16 10ZM6 20H8C9.10457 20 10 19.1046 10 18V16C10 14.8954 9.10457 14 8 14H6C4.89543 14 4 14.8954 4 16V18C4 19.1046 4.89543 20 6 20Z" stroke="#4B5563" stroke-width="2" stroke-linecap="round" stroke-linejoin="round"/>
</svg>
