<svg width="350" height="66" viewBox="0 0 350 66" fill="none" xmlns="http://www.w3.org/2000/svg">
<path fill-rule="evenodd" clip-rule="evenodd" d="M31.059 0L33.4319 2.25736C39.4133 7.94731 47.4809 11.432 56.3663 11.432C56.5077 11.432 56.649 11.4311 56.79 11.4294L59.3207 11.3978L60.1112 13.8128C61.4143 17.7941 62.1179 22.0446 62.1179 26.4532C62.1179 45.302 49.2835 61.1311 31.9191 65.6203L31.059 65.8427L30.1988 65.6203C12.8344 61.1311 0 45.302 0 26.4532C0 22.0446 0.703574 17.7941 2.00672 13.8128L2.7972 11.3978L5.32792 11.4294C5.46894 11.4311 5.61019 11.432 5.75166 11.432C14.637 11.432 22.7046 7.94731 28.686 2.25736L31.059 0ZM7.89346 18.3085C7.24622 20.913 6.90199 23.6407 6.90199 26.4532C6.90199 41.7494 17.1086 54.6595 31.0589 58.6715C45.0093 54.6595 55.2159 41.7494 55.2159 26.4532C55.2159 23.6407 54.8717 20.913 54.2245 18.3085C45.4708 17.8472 37.454 14.5752 31.059 9.37832C24.6639 14.5752 16.6471 17.8472 7.89346 18.3085Z" fill="#8B5CF6"/>
<path d="M109.407 23.086C105.348 23.086 102.198 24.6085 100.38 27.349V11.7587H92.5649V54.3886H100.38V37.9456C100.38 32.6473 103.228 30.394 107.045 30.394C110.558 30.394 113.042 32.5255 113.042 36.6667V54.3886H120.858V35.6923C120.858 27.5926 115.829 23.086 109.407 23.086ZM132.923 42.3913H155.763C155.945 41.356 156.066 40.3207 156.066 39.1636C156.066 30.2113 149.704 23.086 140.738 23.086C131.226 23.086 124.744 30.0895 124.744 39.1636C124.744 48.2377 131.166 55.2412 141.344 55.2412C147.16 55.2412 151.704 52.8661 154.551 48.7249L148.25 45.0709C146.918 46.837 144.494 48.1159 141.465 48.1159C137.345 48.1159 134.013 46.4107 132.923 42.3913ZM132.801 36.3013C133.71 32.4037 136.558 30.1504 140.738 30.1504C144.01 30.1504 147.281 31.9165 148.25 36.3013H132.801ZM168.126 29.176V23.9386H160.311V54.3886H168.126V39.8335C168.126 33.439 173.276 31.612 177.335 32.0992V23.3296C173.518 23.3296 169.702 25.0348 168.126 29.176ZM193.989 55.2412C202.895 55.2412 210.044 48.2377 210.044 39.1636C210.044 30.0895 202.895 23.086 193.989 23.086C185.083 23.086 177.995 30.0895 177.995 39.1636C177.995 48.2377 185.083 55.2412 193.989 55.2412ZM193.989 47.5678C189.385 47.5678 185.81 44.0965 185.81 39.1636C185.81 34.2307 189.385 30.7594 193.989 30.7594C198.654 30.7594 202.229 34.2307 202.229 39.1636C202.229 44.0965 198.654 47.5678 193.989 47.5678ZM218.208 20.2846C220.873 20.2846 223.055 18.0923 223.055 15.4736C223.055 12.8549 220.873 10.6016 218.208 10.6016C215.603 10.6016 213.422 12.8549 213.422 15.4736C213.435 16.7455 213.943 17.9617 214.838 18.8611C215.733 19.7606 216.942 20.2716 218.208 20.2846ZM214.33 54.3886H222.146V23.9386H214.33V54.3886ZM242.506 55.2412C248.444 55.2412 253.593 52.0744 256.198 47.3242L249.413 43.4266C248.201 45.9235 245.596 47.446 242.446 47.446C237.781 47.446 234.327 43.9747 234.327 39.1636C234.327 34.2916 237.781 30.8203 242.446 30.8203C245.536 30.8203 248.141 32.4037 249.352 34.9006L256.077 30.9421C253.593 26.2528 248.444 23.086 242.506 23.086C233.298 23.086 226.512 30.0895 226.512 39.1636C226.512 48.2377 233.298 55.2412 242.506 55.2412ZM273.065 55.2412C281.97 55.2412 289.119 48.2377 289.119 39.1636C289.119 30.0895 281.97 23.086 273.065 23.086C264.159 23.086 257.07 30.0895 257.07 39.1636C257.07 48.2377 264.159 55.2412 273.065 55.2412ZM273.065 47.5678C268.46 47.5678 264.886 44.0965 264.886 39.1636C264.886 34.2307 268.46 30.7594 273.065 30.7594C277.73 30.7594 281.304 34.2307 281.304 39.1636C281.304 44.0965 277.73 47.5678 273.065 47.5678ZM310.248 23.086C306.189 23.086 303.039 24.6085 301.221 27.349V23.9386H293.406V54.3886H301.221V37.9456C301.221 32.6473 304.068 30.394 307.885 30.394C311.399 30.394 313.883 32.5255 313.883 36.6667V54.3886H321.698V35.6923C321.698 27.5926 316.67 23.086 310.248 23.086ZM334.369 32.5864C334.369 30.9421 335.944 30.0895 337.883 30.0895C340.125 30.0895 341.821 31.2466 342.73 33.1954L349.394 29.5414C347.031 25.3393 342.79 23.086 337.883 23.086C331.643 23.086 326.372 26.5573 326.372 32.7691C326.372 43.4875 342.003 41.0515 342.003 45.4972C342.003 47.2633 340.306 48.1159 337.823 48.1159C334.793 48.1159 332.733 46.6543 331.885 44.1574L325.1 47.9941C327.281 52.6834 331.764 55.2412 337.823 55.2412C344.305 55.2412 350 52.0744 350 45.4972C350 34.2916 334.369 37.093 334.369 32.5864Z" fill="#0F172A"/>
</svg>
