<svg width="597" height="50" viewBox="0 0 597 50" fill="none" xmlns="http://www.w3.org/2000/svg">
<g clip-path="url(#clip0_215_535)">
<path d="M34.8193 6.37632V29.6236C34.8193 40.0764 25.7798 46.2801 17.2654 46.2801C8.17386 46.2801 0 42.9469 0 31.9181V30.7142C0 29.8266 0.723727 29.1043 1.61301 29.1043H6.73587C7.62515 29.1043 8.34888 29.8266 8.34888 30.7142V31.9181C8.34888 35.596 11.2816 38.2918 17.1566 38.2918C23.5992 38.2918 26.1299 33.1787 26.1299 29.0476V6.37632C26.1299 5.71062 26.6691 5.17241 27.3361 5.17241C28.9917 5.17241 31.9575 5.17241 33.6178 5.17241C34.2848 5.17241 34.8241 5.71062 34.8241 6.37632H34.8193ZM201.499 37.2248C197.483 37.2248 184.645 37.2248 181.296 37.2248C180.851 37.2248 180.492 36.866 180.492 36.4222V6.37632C180.492 5.71062 179.953 5.17241 179.286 5.17241H172.895C172.228 5.17241 171.689 5.71062 171.689 6.37632C171.689 12.2967 171.689 38.2635 171.689 44.1744C171.689 44.8401 172.228 45.3783 172.89 45.3783C177.833 45.3783 196.556 45.3783 201.504 45.3783C202.171 45.3783 202.71 44.8401 202.71 44.1744V38.4334C202.71 37.7677 202.171 37.2295 201.504 37.2295C200.837 37.2295 201.499 37.2248 201.499 37.2248ZM236.399 5.99862C238.078 11.1306 247.084 38.5939 248.962 44.3302C249.132 44.8496 248.745 45.3783 248.196 45.3783C246.167 45.3783 241.914 45.3783 240.348 45.3783C239.994 45.3783 239.681 45.147 239.577 44.8071L237.335 37.4467C237.231 37.1068 236.924 36.8754 236.569 36.8754C233.65 36.8754 220.855 36.8754 217.951 36.8754C217.601 36.8754 217.293 37.102 217.184 37.4325C216.692 38.9716 215.325 43.2774 214.833 44.8165C214.729 45.1517 214.417 45.3736 214.067 45.3736H206.333C205.785 45.3736 205.397 44.8401 205.567 44.3208L218.187 6.00334C218.348 5.50761 218.812 5.17241 219.332 5.17241C222.34 5.17241 232.25 5.17241 235.254 5.17241C235.774 5.17241 236.233 5.50289 236.394 5.99862H236.399ZM234.544 28.4811L228.088 7.70298C227.856 6.95231 226.792 6.94286 226.55 7.69354C224.899 12.8916 221.092 24.8646 219.947 28.4716C219.781 28.991 220.169 29.5198 220.713 29.5198H233.773C234.317 29.5198 234.705 28.9957 234.544 28.4764V28.4811ZM115.541 45.3783H123.805C124.774 45.3783 125.351 44.2925 124.803 43.4946L110.688 22.8109C110.385 22.3671 110.413 21.7817 110.754 21.3662L122.461 7.14588C123.109 6.35743 122.546 5.17241 121.529 5.17241H114.004C113.644 5.17241 113.299 5.33293 113.072 5.61148L97.3673 24.6947C96.8848 25.2801 95.9388 24.9402 95.9388 24.1848V6.37632C95.9388 5.71062 95.3995 5.17241 94.7326 5.17241H88.3468C87.6798 5.17241 87.1405 5.71062 87.1405 6.37632V44.1697C87.1405 44.8354 87.6798 45.3736 88.3468 45.3736H94.7326C95.3995 45.3736 95.9388 44.8354 95.9388 44.1697V28.3725C95.9388 27.7068 96.478 27.1686 97.145 27.1686H101.837C102.239 27.1686 102.613 27.3669 102.835 27.6974L114.543 44.8543C114.77 45.1848 115.144 45.3831 115.541 45.3831V45.3783ZM165.104 5.17241H158.719C158.052 5.17241 157.512 5.71062 157.512 6.37632V37.6025C157.512 38.2682 156.973 38.8064 156.306 38.8064H136.165C135.498 38.8064 134.959 38.2682 134.959 37.6025V6.37632C134.959 5.71062 134.419 5.17241 133.752 5.17241H127.362C126.695 5.17241 126.156 5.71062 126.156 6.37632V30.7709C126.156 43.5229 135.536 46.2754 146.183 46.2754C156.831 46.2754 166.325 43.5748 166.325 30.7709V6.37632C166.325 5.71062 165.786 5.17241 165.119 5.17241H165.104ZM83.3232 25.2754C83.3232 38.83 75.4474 46.2707 60.7789 46.2707C46.1104 46.2707 38.2346 38.83 38.2346 25.2754C38.2346 11.7207 46.1104 4.28009 60.7789 4.28009C75.4474 4.28009 83.3232 11.7207 83.3232 25.2754ZM74.1939 13.1135C74.1939 12.4384 73.6452 11.886 72.964 11.886H48.5891C47.9126 11.886 47.3592 12.4336 47.3592 13.1135V37.442C47.3592 38.1171 47.9079 38.6695 48.5891 38.6695H72.964C73.6404 38.6695 74.1939 38.1218 74.1939 37.442V13.1135Z" fill="white"/>
</g>
<path d="M297 2V48.5602" stroke="#CCD3DA" stroke-width="2.25" stroke-linecap="round" stroke-linejoin="round"/>
<path fill-rule="evenodd" clip-rule="evenodd" d="M366.963 2L368.641 3.59628C372.871 7.61989 378.576 10.0841 384.859 10.0841C384.959 10.0841 385.059 10.0834 385.159 10.0822L386.948 10.0599L387.507 11.7676C388.429 14.583 388.926 17.5887 388.926 20.7062C388.926 34.035 379.85 45.2284 367.571 48.4029L366.963 48.5602L366.355 48.4029C354.076 45.2284 345 34.035 345 20.7062C345 17.5887 345.498 14.583 346.419 11.7676L346.978 10.0599L348.768 10.0822C348.867 10.0834 348.967 10.0841 349.067 10.0841C355.35 10.0841 361.055 7.61989 365.285 3.59628L366.963 2ZM350.582 14.9467C350.124 16.7885 349.881 18.7174 349.881 20.7062C349.881 31.5228 357.098 40.6521 366.963 43.4891C376.828 40.6521 384.046 31.5228 384.046 20.7062C384.046 18.7174 383.802 16.7885 383.344 14.9467C377.154 14.6205 371.485 12.3068 366.963 8.63181C362.441 12.3068 356.772 14.6205 350.582 14.9467Z" fill="#8B5CF6"/>
<path d="M426.867 18.3251C423.996 18.3251 421.768 19.4017 420.483 21.3397V10.315H414.957V40.4605H420.483V28.833C420.483 25.0863 422.497 23.4929 425.196 23.4929C427.681 23.4929 429.437 25.0002 429.437 27.9286V40.4605H434.964V27.2396C434.964 21.5119 431.408 18.3251 426.867 18.3251ZM443.495 31.9767H459.647C459.775 31.2446 459.861 30.5125 459.861 29.6943C459.861 23.3637 455.362 18.3251 449.022 18.3251C442.296 18.3251 437.712 23.2776 437.712 29.6943C437.712 36.1109 442.253 41.0634 449.45 41.0634C453.563 41.0634 456.776 39.3839 458.79 36.4555L454.334 33.8716C453.392 35.1204 451.678 36.0248 449.536 36.0248C446.623 36.0248 444.266 34.819 443.495 31.9767V31.9767ZM443.41 27.6702C444.052 24.914 446.066 23.3206 449.022 23.3206C451.335 23.3206 453.649 24.5695 454.334 27.6702H443.41ZM468.389 22.6316V18.928H462.863V40.4605H468.389V30.168C468.389 25.6462 472.031 24.3542 474.901 24.6987V18.4974C472.202 18.4974 469.503 19.7032 468.389 22.6316ZM486.678 41.0634C492.976 41.0634 498.031 36.1109 498.031 29.6943C498.031 23.2776 492.976 18.3251 486.678 18.3251C480.38 18.3251 475.368 23.2776 475.368 29.6943C475.368 36.1109 480.38 41.0634 486.678 41.0634ZM486.678 35.6372C483.422 35.6372 480.894 33.1825 480.894 29.6943C480.894 26.206 483.422 23.7513 486.678 23.7513C489.977 23.7513 492.505 26.206 492.505 29.6943C492.505 33.1825 489.977 35.6372 486.678 35.6372ZM503.804 16.3441C505.689 16.3441 507.231 14.7938 507.231 12.942C507.231 11.0902 505.689 9.4968 503.804 9.4968C501.962 9.4968 500.42 11.0902 500.42 12.942C500.429 13.8414 500.788 14.7014 501.421 15.3375C502.054 15.9735 502.909 16.3349 503.804 16.3441V16.3441ZM501.062 40.4605H506.589V18.928H501.062V40.4605ZM520.987 41.0634C525.185 41.0634 528.827 38.824 530.669 35.465L525.871 32.7088C525.014 34.4745 523.171 35.5511 520.944 35.5511C517.645 35.5511 515.203 33.0964 515.203 29.6943C515.203 26.2491 517.645 23.7944 520.944 23.7944C523.129 23.7944 524.971 24.914 525.828 26.6797L530.583 23.8805C528.827 20.5645 525.185 18.3251 520.987 18.3251C514.475 18.3251 509.676 23.2776 509.676 29.6943C509.676 36.1109 514.475 41.0634 520.987 41.0634ZM542.596 41.0634C548.893 41.0634 553.949 36.1109 553.949 29.6943C553.949 23.2776 548.893 18.3251 542.596 18.3251C536.298 18.3251 531.285 23.2776 531.285 29.6943C531.285 36.1109 536.298 41.0634 542.596 41.0634ZM542.596 35.6372C539.34 35.6372 536.812 33.1825 536.812 29.6943C536.812 26.206 539.34 23.7513 542.596 23.7513C545.894 23.7513 548.422 26.206 548.422 29.6943C548.422 33.1825 545.894 35.6372 542.596 35.6372ZM568.89 18.3251C566.019 18.3251 563.791 19.4017 562.506 21.3397V18.928H556.98V40.4605H562.506V28.833C562.506 25.0863 564.52 23.4929 567.219 23.4929C569.704 23.4929 571.46 25.0002 571.46 27.9286V40.4605H576.987V27.2396C576.987 21.5119 573.431 18.3251 568.89 18.3251ZM585.947 25.0432C585.947 23.8805 587.061 23.2776 588.432 23.2776C590.017 23.2776 591.216 24.0958 591.859 25.4739L596.571 22.89C594.901 19.9185 591.902 18.3251 588.432 18.3251C584.019 18.3251 580.292 20.7798 580.292 25.1724C580.292 32.7519 591.345 31.0293 591.345 34.173C591.345 35.4219 590.145 36.0248 588.389 36.0248C586.247 36.0248 584.79 34.9912 584.19 33.2256L579.392 35.9387C580.934 39.2547 584.105 41.0634 588.389 41.0634C592.973 41.0634 597 38.824 597 34.173C597 26.2491 585.947 28.23 585.947 25.0432V25.0432Z" fill="white"/>
<defs>
<clipPath id="clip0_215_535">
<rect width="249" height="42" fill="white" transform="translate(0 4.28009)"/>
</clipPath>
</defs>
</svg>
