<svg width="350" height="130" viewBox="0 0 350 130" fill="none" xmlns="http://www.w3.org/2000/svg">
<path fill-rule="evenodd" clip-rule="evenodd" d="M31.059 48L33.4319 50.2574C39.4133 55.9473 47.4809 59.432 56.3663 59.432C56.5077 59.432 56.649 59.4311 56.79 59.4294L59.3207 59.3978L60.1112 61.8128C61.4143 65.7941 62.1179 70.0446 62.1179 74.4532C62.1179 93.302 49.2835 109.131 31.9191 113.62L31.059 113.843L30.1988 113.62C12.8344 109.131 0 93.302 0 74.4532C0 70.0446 0.703574 65.7941 2.00672 61.8128L2.7972 59.3978L5.32792 59.4294C5.46894 59.4311 5.61019 59.432 5.75166 59.432C14.637 59.432 22.7046 55.9473 28.686 50.2574L31.059 48ZM7.89346 66.3085C7.24622 68.913 6.90199 71.6407 6.90199 74.4532C6.90199 89.7494 17.1086 102.659 31.0589 106.671C45.0093 102.659 55.2159 89.7494 55.2159 74.4532C55.2159 71.6407 54.8717 68.913 54.2245 66.3085C45.4708 65.8472 37.454 62.5752 31.059 57.3783C24.6639 62.5752 16.6471 65.8472 7.89346 66.3085Z" fill="#8B5CF6"/>
<path d="M109.407 71.086C105.348 71.086 102.198 72.6085 100.38 75.349V59.7587H92.5649V102.389H100.38V85.9456C100.38 80.6473 103.228 78.394 107.045 78.394C110.558 78.394 113.042 80.5255 113.042 84.6667V102.389H120.858V83.6923C120.858 75.5926 115.829 71.086 109.407 71.086ZM132.923 90.3913H155.763C155.945 89.356 156.066 88.3207 156.066 87.1636C156.066 78.2113 149.704 71.086 140.738 71.086C131.226 71.086 124.744 78.0895 124.744 87.1636C124.744 96.2377 131.166 103.241 141.344 103.241C147.16 103.241 151.704 100.866 154.551 96.7249L148.25 93.0709C146.918 94.837 144.494 96.1159 141.465 96.1159C137.345 96.1159 134.013 94.4107 132.923 90.3913V90.3913ZM132.801 84.3013C133.71 80.4037 136.558 78.1504 140.738 78.1504C144.01 78.1504 147.281 79.9165 148.25 84.3013H132.801ZM168.126 77.176V71.9386H160.311V102.389H168.126V87.8335C168.126 81.439 173.276 79.612 177.335 80.0992V71.3296C173.518 71.3296 169.702 73.0348 168.126 77.176ZM193.989 103.241C202.895 103.241 210.044 96.2377 210.044 87.1636C210.044 78.0895 202.895 71.086 193.989 71.086C185.083 71.086 177.995 78.0895 177.995 87.1636C177.995 96.2377 185.083 103.241 193.989 103.241ZM193.989 95.5678C189.385 95.5678 185.81 92.0965 185.81 87.1636C185.81 82.2307 189.385 78.7594 193.989 78.7594C198.654 78.7594 202.229 82.2307 202.229 87.1636C202.229 92.0965 198.654 95.5678 193.989 95.5678ZM218.208 68.2846C220.873 68.2846 223.055 66.0923 223.055 63.4736C223.055 60.8549 220.873 58.6016 218.208 58.6016C215.603 58.6016 213.422 60.8549 213.422 63.4736C213.435 64.7455 213.943 65.9617 214.838 66.8611C215.733 67.7606 216.942 68.2716 218.208 68.2846V68.2846ZM214.33 102.389H222.146V71.9386H214.33V102.389ZM242.506 103.241C248.444 103.241 253.593 100.074 256.198 95.3242L249.413 91.4266C248.201 93.9235 245.596 95.446 242.446 95.446C237.781 95.446 234.327 91.9747 234.327 87.1636C234.327 82.2916 237.781 78.8203 242.446 78.8203C245.536 78.8203 248.141 80.4037 249.352 82.9006L256.077 78.9421C253.593 74.2528 248.444 71.086 242.506 71.086C233.298 71.086 226.512 78.0895 226.512 87.1636C226.512 96.2377 233.298 103.241 242.506 103.241ZM273.065 103.241C281.97 103.241 289.119 96.2377 289.119 87.1636C289.119 78.0895 281.97 71.086 273.065 71.086C264.159 71.086 257.07 78.0895 257.07 87.1636C257.07 96.2377 264.159 103.241 273.065 103.241ZM273.065 95.5678C268.46 95.5678 264.886 92.0965 264.886 87.1636C264.886 82.2307 268.46 78.7594 273.065 78.7594C277.73 78.7594 281.304 82.2307 281.304 87.1636C281.304 92.0965 277.73 95.5678 273.065 95.5678ZM310.248 71.086C306.189 71.086 303.039 72.6085 301.221 75.349V71.9386H293.406V102.389H301.221V85.9456C301.221 80.6473 304.068 78.394 307.885 78.394C311.399 78.394 313.883 80.5255 313.883 84.6667V102.389H321.698V83.6923C321.698 75.5926 316.67 71.086 310.248 71.086ZM334.369 80.5864C334.369 78.9421 335.944 78.0895 337.883 78.0895C340.125 78.0895 341.821 79.2466 342.73 81.1954L349.394 77.5414C347.031 73.3393 342.79 71.086 337.883 71.086C331.643 71.086 326.372 74.5573 326.372 80.7691C326.372 91.4875 342.003 89.0515 342.003 93.4972C342.003 95.2633 340.306 96.1159 337.823 96.1159C334.793 96.1159 332.733 94.6543 331.885 92.1574L325.1 95.9941C327.281 100.683 331.764 103.241 337.823 103.241C344.305 103.241 350 100.074 350 93.4972C350 82.2916 334.369 85.093 334.369 80.5864V80.5864Z" fill="#0F172A"/>
</svg>
