<svg width="640" height="220" viewBox="0 0 640 220" fill="none" xmlns="http://www.w3.org/2000/svg">
  <g clip-path="url(#clip0)">
    <rect width="640" height="220" fill="white" />
    <path
      d="M408 152C408 150.895 408.895 150 410 150H412C413.105 150 414 150.895 414 152V154C414 155.105 413.105 156 412 156H410C408.895 156 408 155.105 408 154V152Z"
      stroke="#CBD5E1" stroke-opacity="0.14" stroke-width="2" stroke-linecap="round" stroke-linejoin="round" />
    <path
      d="M418 152C418 150.895 418.895 150 420 150H422C423.105 150 424 150.895 424 152V154C424 155.105 423.105 156 422 156H420C418.895 156 418 155.105 418 154V152Z"
      stroke="#CBD5E1" stroke-opacity="0.14" stroke-width="2" stroke-linecap="round" stroke-linejoin="round" />
    <path
      d="M408 162C408 160.895 408.895 160 410 160H412C413.105 160 414 160.895 414 162V164C414 165.105 413.105 166 412 166H410C408.895 166 408 165.105 408 164V162Z"
      stroke="#CBD5E1" stroke-opacity="0.14" stroke-width="2" stroke-linecap="round" stroke-linejoin="round" />
    <path
      d="M418 162C418 160.895 418.895 160 420 160H422C423.105 160 424 160.895 424 162V164C424 165.105 423.105 166 422 166H420C418.895 166 418 165.105 418 164V162Z"
      stroke="#CBD5E1" stroke-opacity="0.14" stroke-width="2" stroke-linecap="round" stroke-linejoin="round" />
    <path
      d="M599 5H601L601.4 7M603 15H613L617 7H601.4M603 15L601.4 7M603 15L600.707 17.2929C600.077 17.9229 600.523 19 601.414 19H613M613 19C611.895 19 611 19.8954 611 21C611 22.1046 611.895 23 613 23C614.105 23 615 22.1046 615 21C615 19.8954 614.105 19 613 19ZM605 21C605 22.1046 604.105 23 603 23C601.895 23 601 22.1046 601 21C601 19.8954 601.895 19 603 19C604.105 19 605 19.8954 605 21Z"
      stroke="#CBD5E1" stroke-opacity="0.14" stroke-width="2" stroke-linecap="round" stroke-linejoin="round" />
    <path
      d="M515 9C516.105 9 517 9.89543 517 11M521 11C521 14.3137 518.314 17 515 17C514.394 17 513.809 16.9101 513.257 16.7429L511 19H509V21H507V23H504C503.448 23 503 22.5523 503 22V19.4142C503 19.149 503.105 18.8946 503.293 18.7071L509.257 12.7429C509.09 12.1914 509 11.6062 509 11C509 7.68629 511.686 5 515 5C518.314 5 521 7.68629 521 11Z"
      stroke="#CBD5E1" stroke-opacity="0.14" stroke-width="2" stroke-linecap="round" stroke-linejoin="round" />
    <path
      d="M413 19V17M416 19V15M419 19V13M421 23H411C409.895 23 409 22.1046 409 21V7C409 5.89543 409.895 5 411 5H416.586C416.851 5 417.105 5.10536 417.293 5.29289L422.707 10.7071C422.895 10.8946 423 11.149 423 11.4142V21C423 22.1046 422.105 23 421 23Z"
      stroke="#CBD5E1" stroke-opacity="0.14" stroke-width="2" stroke-linecap="round" stroke-linejoin="round" />
    <path
      d="M463 18L459 14M459 14L463 10M459 14L473 14M468 18V19C468 20.6569 466.657 22 465 22H458C456.343 22 455 20.6569 455 19V9C455 7.34315 456.343 6 458 6H465C466.657 6 468 7.34315 468 9V10"
      stroke="#CBD5E1" stroke-opacity="0.14" stroke-width="2" stroke-linecap="round" stroke-linejoin="round" />
    <path
      d="M566.364 20.364C569.879 16.8492 569.879 11.1508 566.364 7.63604C562.849 4.12132 557.151 4.12132 553.636 7.63604M566.364 20.364C562.849 23.8787 557.151 23.8787 553.636 20.364C550.121 16.8492 550.121 11.1508 553.636 7.63604M566.364 20.364L553.636 7.63604"
      stroke="#CBD5E1" stroke-opacity="0.14" stroke-width="2" stroke-linecap="round" stroke-linejoin="round" />
    <path
      d="M364 12H364.01M368 12H368.01M372 12H372.01M365 18H361C359.895 18 359 17.1046 359 16V8C359 6.89543 359.895 6 361 6H375C376.105 6 377 6.89543 377 8V16C377 17.1046 376.105 18 375 18H370L365 23V18Z"
      stroke="#CBD5E1" stroke-opacity="0.14" stroke-width="2" stroke-linecap="round" stroke-linejoin="round" />
    <path
      d="M564 54V66L560 64L556 66V54M554 70H566C567.105 70 568 69.1046 568 68V56C568 54.8954 567.105 54 566 54H554C552.895 54 552 54.8954 552 56V68C552 69.1046 552.895 70 554 70Z"
      stroke="#CBD5E1" stroke-opacity="0.14" stroke-width="2" stroke-linecap="round" stroke-linejoin="round" />
    <path
      d="M519 70H505C503.895 70 503 69.1046 503 68L503 56C503 54.8954 503.895 54 505 54L515 54C516.105 54 517 54.8954 517 56V57M519 70C517.895 70 517 69.1046 517 68L517 57M519 70C520.105 70 521 69.1046 521 68V59C521 57.8954 520.105 57 519 57L517 57M513 54L509 54M507 66H513M507 58H513V62H507V58Z"
      stroke="#CBD5E1" stroke-opacity="0.14" stroke-width="2" stroke-linecap="round" stroke-linejoin="round" />
    <path
      d="M613 64V70M610 67H616M602 60H604C605.105 60 606 59.1046 606 58V56C606 54.8954 605.105 54 604 54H602C600.895 54 600 54.8954 600 56V58C600 59.1046 600.895 60 602 60ZM612 60H614C615.105 60 616 59.1046 616 58V56C616 54.8954 615.105 54 614 54H612C610.895 54 610 54.8954 610 56V58C610 59.1046 610.895 60 612 60ZM602 70H604C605.105 70 606 69.1046 606 68V66C606 64.8954 605.105 64 604 64H602C600.895 64 600 64.8954 600 66V68C600 69.1046 600.895 70 602 70Z"
      stroke="#CBD5E1" stroke-opacity="0.14" stroke-width="2" stroke-linecap="round" stroke-linejoin="round" />
    <path
      d="M472 62C472 66.4183 468.418 70 464 70V72C469.523 72 474 67.5228 474 62H472ZM464 70C459.582 70 456 66.4183 456 62H454C454 67.5228 458.477 72 464 72V70ZM456 62C456 57.5817 459.582 54 464 54V52C458.477 52 454 56.4772 454 62H456ZM464 54C468.418 54 472 57.5817 472 62H474C474 56.4772 469.523 52 464 52V54ZM467 62C467 63.6569 465.657 65 464 65V67C466.761 67 469 64.7614 469 62H467ZM464 65C462.343 65 461 63.6569 461 62H459C459 64.7614 461.239 67 464 67V65ZM461 62C461 60.3431 462.343 59 464 59V57C461.239 57 459 59.2386 459 62H461ZM464 59C465.657 59 467 60.3431 467 62H469C469 59.2386 466.761 57 464 57V59ZM469.657 54.9289L466.121 58.4645L467.536 59.8787L471.071 56.3431L469.657 54.9289ZM466.121 65.5355L469.657 69.0711L471.071 67.6569L467.536 64.1213L466.121 65.5355ZM461.879 58.4645L458.343 54.9289L456.929 56.3431L460.464 59.8787L461.879 58.4645ZM460.464 64.1213L456.929 67.6569L458.343 69.0711L461.879 65.5355L460.464 64.1213Z"
      fill="#CBD5E1" fill-opacity="0.14" />
    <path
      d="M557 117V111C557 109.895 556.105 109 555 109H553C551.895 109 551 109.895 551 111V117C551 118.105 551.895 119 553 119H555C556.105 119 557 118.105 557 117ZM557 117V107C557 105.895 557.895 105 559 105H561C562.105 105 563 105.895 563 107V117M557 117C557 118.105 557.895 119 559 119H561C562.105 119 563 118.105 563 117M563 117V103C563 101.895 563.895 101 565 101H567C568.105 101 569 101.895 569 103V117C569 118.105 568.105 119 567 119H565C563.895 119 563 118.105 563 117Z"
      stroke="#CBD5E1" stroke-opacity="0.14" stroke-width="2" stroke-linecap="round" stroke-linejoin="round" />
    <path
      d="M412 107L415 110L412 113M417 113H420M409 118H423C424.105 118 425 117.105 425 116V104C425 102.895 424.105 102 423 102H409C407.895 102 407 102.895 407 104V116C407 117.105 407.895 118 409 118Z"
      stroke="#CBD5E1" stroke-opacity="0.14" stroke-width="2" stroke-linecap="round" stroke-linejoin="round" />
    <path
      d="M367.524 99.4633C367.674 99.0027 368.326 99.0027 368.476 99.4633L370.582 105.946C370.649 106.152 370.841 106.291 371.058 106.291L377.874 106.292C378.358 106.292 378.56 106.912 378.168 107.196L372.654 111.203C372.478 111.33 372.405 111.556 372.472 111.762L374.578 118.245C374.728 118.705 374.2 119.089 373.809 118.804L368.294 114.797C368.119 114.67 367.881 114.67 367.706 114.797L362.191 118.804C361.8 119.089 361.272 118.705 361.422 118.245L363.528 111.762C363.595 111.556 363.522 111.33 363.346 111.203L357.832 107.196C357.44 106.912 357.642 106.292 358.126 106.292L364.942 106.291C365.159 106.291 365.351 106.152 365.418 105.946L367.524 99.4633Z"
      stroke="#CBD5E1" stroke-opacity="0.14" stroke-width="2" />
    <path
      d="M468 106V114M464 109V114M460 112V114M458 118H470C471.105 118 472 117.105 472 116V104C472 102.895 471.105 102 470 102H458C456.895 102 456 102.895 456 104V116C456 117.105 456.895 118 458 118Z"
      stroke="#CBD5E1" stroke-opacity="0.14" stroke-width="2" stroke-linecap="round" stroke-linejoin="round" />
    <path
      d="M502.999 101L506.588 104.589M520.999 119L517.41 115.411M513.874 116.825C513.266 116.94 512.64 117 511.999 117C507.522 117 503.731 114.057 502.457 110C502.804 108.895 503.337 107.874 504.02 106.971M509.877 107.879C510.42 107.336 511.17 107 511.999 107C513.656 107 514.999 108.343 514.999 110C514.999 110.828 514.663 111.578 514.12 112.121M509.877 107.879L514.12 112.121M509.877 107.879L506.588 104.589M514.12 112.121L506.588 104.589M514.12 112.121L517.41 115.411M506.588 104.589C508.148 103.584 510.005 103 511.999 103C516.477 103 520.267 105.943 521.541 110C520.835 112.251 519.353 114.159 517.41 115.411"
      stroke="#CBD5E1" stroke-opacity="0.14" stroke-width="2" stroke-linecap="round" stroke-linejoin="round" />
    <path
      d="M365.75 67L365 70L364 71H372L371 70L370.25 67M359 63H377M361 67H375C376.105 67 377 66.1046 377 65V55C377 53.8954 376.105 53 375 53H361C359.895 53 359 53.8954 359 55V65C359 66.1046 359.895 67 361 67Z"
      stroke="#CBD5E1" stroke-opacity="0.14" stroke-width="2" stroke-linecap="round" stroke-linejoin="round" />
    <path
      d="M421 58H423C424.105 58 425 58.8954 425 60V66C425 67.1046 424.105 68 423 68H421V72L417 68H413C412.448 68 411.948 67.7761 411.586 67.4142M411.586 67.4142L415 64H419C420.105 64 421 63.1046 421 62V56C421 54.8954 420.105 54 419 54H409C407.895 54 407 54.8954 407 56V62C407 63.1046 407.895 64 409 64H411V68L411.586 67.4142Z"
      stroke="#CBD5E1" stroke-opacity="0.14" stroke-width="2" stroke-linecap="round" stroke-linejoin="round" />
    <path
      d="M613.657 116.657C610.533 119.781 605.467 119.781 602.343 116.657C600.781 115.095 600 113.047 600 111C600 108.953 600.781 106.905 602.343 105.343C602.343 105.343 603 107 605 108C605 106 605.5 103 607.986 101C610 103 612.091 103.777 613.657 105.343C615.219 106.905 616 108.953 616 111C616 113.047 615.219 115.095 613.657 116.657Z"
      stroke="#CBD5E1" stroke-opacity="0.14" stroke-width="2" stroke-linecap="round" stroke-linejoin="round" />
    <path
      d="M605.879 114.121C607.05 115.293 608.95 115.293 610.121 114.121C610.707 113.535 611 112.768 611 112C611 111.232 610.707 110.464 610.121 109.879C609.539 109.297 608.777 109.004 608.015 109L607 112L605 112C605 112.768 605.293 113.535 605.879 114.121Z"
      stroke="#CBD5E1" stroke-opacity="0.14" stroke-width="2" stroke-linecap="round" stroke-linejoin="round" />
    <path
      d="M360 154V150M360 150H364M360 150L365 155M376 154V150M376 150H372M376 150L371 155M360 162V166M360 166H364M360 166L365 161M376 166L371 161M376 166V162M376 166H372"
      stroke="#CBD5E1" stroke-opacity="0.14" stroke-width="2" stroke-linecap="round" stroke-linejoin="round" />
    <path
      d="M463 150C463 148.895 463.895 148 465 148C466.105 148 467 148.895 467 150V151C467 151.552 467.448 152 468 152H471C471.552 152 472 152.448 472 153V156C472 156.552 471.552 157 471 157H470C468.895 157 468 157.895 468 159C468 160.105 468.895 161 470 161H471C471.552 161 472 161.448 472 162V165C472 165.552 471.552 166 471 166H468C467.448 166 467 165.552 467 165V164C467 162.895 466.105 162 465 162C463.895 162 463 162.895 463 164V165C463 165.552 462.552 166 462 166H459C458.448 166 458 165.552 458 165V162C458 161.448 457.552 161 457 161H456C454.895 161 454 160.105 454 159C454 157.895 454.895 157 456 157H457C457.552 157 458 156.552 458 156V153C458 152.448 458.448 152 459 152H462C462.552 152 463 151.552 463 151V150Z"
      stroke="#CBD5E1" stroke-opacity="0.14" stroke-width="2" stroke-linecap="round" stroke-linejoin="round" />
    <path
      d="M512 156V162M512 162L509 159M512 162L515 159M503 163V153C503 151.895 503.895 151 505 151H511L513 153H519C520.105 153 521 153.895 521 155V163C521 164.105 520.105 165 519 165H505C503.895 165 503 164.105 503 163Z"
      stroke="#CBD5E1" stroke-opacity="0.14" stroke-width="2" stroke-linecap="round" stroke-linejoin="round" />
    <path
      d="M557 159H563M560 156V162M551 163V153C551 151.895 551.895 151 553 151H559L561 153H567C568.105 153 569 153.895 569 155V163C569 164.105 568.105 165 567 165H553C551.895 165 551 164.105 551 163Z"
      stroke="#CBD5E1" stroke-opacity="0.14" stroke-width="2" stroke-linecap="round" stroke-linejoin="round" />
    <path
      d="M605 159H611M599 163V153C599 151.895 599.895 151 601 151H607L609 153H615C616.105 153 617 153.895 617 155V163C617 164.105 616.105 165 615 165H601C599.895 165 599 164.105 599 163Z"
      stroke="#CBD5E1" stroke-opacity="0.14" stroke-width="2" stroke-linecap="round" stroke-linejoin="round" />
    <path
      d="M365 213V200L377 197V210M365 213C365 214.105 363.657 215 362 215C360.343 215 359 214.105 359 213C359 211.895 360.343 211 362 211C363.657 211 365 211.895 365 213ZM377 210C377 211.105 375.657 212 374 212C372.343 212 371 211.105 371 210C371 208.895 372.343 208 374 208C375.657 208 377 208.895 377 210ZM365 204L377 201"
      stroke="#CBD5E1" stroke-opacity="0.14" stroke-width="2" stroke-linecap="round" stroke-linejoin="round" />
    <path
      d="M411 198V214M421 198V214M407 202H411M421 202H425M407 206H425M407 210H411M421 210H425M408 214H424C424.552 214 425 213.552 425 213V199C425 198.448 424.552 198 424 198H408C407.448 198 407 198.448 407 199V213C407 213.552 407.448 214 408 214Z"
      stroke="#CBD5E1" stroke-opacity="0.14" stroke-width="2" />
    <path
      d="M456 201V211C456 213.209 459.582 215 464 215C468.418 215 472 213.209 472 211V201M456 201C456 203.209 459.582 205 464 205C468.418 205 472 203.209 472 201M456 201C456 198.791 459.582 197 464 197C468.418 197 472 198.791 472 201M472 206C472 208.209 468.418 210 464 210C459.582 210 456 208.209 456 206"
      stroke="#CBD5E1" stroke-opacity="0.14" stroke-width="2" />
    <path
      d="M565 210L569 206M569 206L565 202M569 206L555 206M561 210V211C561 212.657 559.657 214 558 214H554C552.343 214 551 212.657 551 211V201C551 199.343 552.343 198 554 198H558C559.657 198 561 199.343 561 201V202"
      stroke="#CBD5E1" stroke-opacity="0.14" stroke-width="2" stroke-linecap="round" stroke-linejoin="round" />
    <path
      d="M505 206H519M505 206C503.895 206 503 205.105 503 204V200C503 198.895 503.895 198 505 198H519C520.105 198 521 198.895 521 200V204C521 205.105 520.105 206 519 206M505 206C503.895 206 503 206.895 503 208V212C503 213.105 503.895 214 505 214H519C520.105 214 521 213.105 521 212V208C521 206.895 520.105 206 519 206M517 202H517.01M517 210H517.01"
      stroke="#CBD5E1" stroke-opacity="0.14" stroke-width="2" stroke-linecap="round" stroke-linejoin="round" />
    <path
      d="M603.405 209.697C603.014 210.087 603.014 210.72 603.405 211.111C603.795 211.501 604.429 211.501 604.819 211.111L603.405 209.697ZM611.183 211.111C611.574 211.501 612.207 211.501 612.597 211.111C612.988 210.72 612.988 210.087 612.597 209.697L611.183 211.111ZM608.001 213C607.449 213 607.001 213.448 607.001 214C607.001 214.552 607.449 215 608.001 215V213ZM608.011 215C608.563 215 609.011 214.552 609.011 214C609.011 213.448 608.563 213 608.011 213V215ZM600.223 206.222C599.832 206.612 599.832 207.246 600.223 207.636C600.614 208.027 601.247 208.027 601.637 207.636L600.223 206.222ZM614.365 207.636C614.756 208.027 615.389 208.027 615.779 207.636C616.17 207.246 616.17 206.612 615.779 206.222L614.365 207.636ZM596.687 202.686C596.297 203.077 596.297 203.71 596.687 204.101C597.078 204.491 597.711 204.491 598.102 204.101L596.687 202.686ZM617.901 204.101C618.291 204.491 618.924 204.491 619.315 204.101C619.705 203.71 619.705 203.077 619.315 202.686L617.901 204.101ZM604.819 211.111C606.577 209.354 609.426 209.354 611.183 211.111L612.597 209.697C610.059 207.158 605.943 207.158 603.405 209.697L604.819 211.111ZM608.001 215H608.011V213H608.001V215ZM601.637 207.636C605.152 204.121 610.85 204.121 614.365 207.636L615.779 206.222C611.484 201.926 604.519 201.926 600.223 206.222L601.637 207.636ZM598.102 204.101C603.569 198.633 612.433 198.633 617.901 204.101L619.315 202.686C613.066 196.438 602.936 196.438 596.687 202.686L598.102 204.101Z"
      fill="#CBD5E1" fill-opacity="0.14" />
    <path
      d="M37 22H42V20C42 18.3431 40.6569 17 39 17C38.0444 17 37.1931 17.4468 36.6438 18.1429M37 22H27M37 22V20C37 19.3438 36.8736 18.717 36.6438 18.1429M27 22H22V20C22 18.3431 23.3431 17 25 17C25.9556 17 26.8069 17.4468 27.3562 18.1429M27 22V20C27 19.3438 27.1264 18.717 27.3562 18.1429M27.3562 18.1429C28.0935 16.301 29.8948 15 32 15C34.1052 15 35.9065 16.301 36.6438 18.1429M35 9C35 10.6569 33.6569 12 32 12C30.3431 12 29 10.6569 29 9C29 7.34315 30.3431 6 32 6C33.6569 6 35 7.34315 35 9ZM41 12C41 13.1046 40.1046 14 39 14C37.8954 14 37 13.1046 37 12C37 10.8954 37.8954 10 39 10C40.1046 10 41 10.8954 41 12ZM27 12C27 13.1046 26.1046 14 25 14C23.8954 14 23 13.1046 23 12C23 10.8954 23.8954 10 25 10C26.1046 10 27 10.8954 27 12Z"
      stroke="#CBD5E1" stroke-opacity="0.14" stroke-width="2" stroke-linecap="round" stroke-linejoin="round" />
    <path
      d="M25 58H39M25 58C23.8954 58 23 57.1046 23 56C23 54.8954 23.8954 54 25 54H39C40.1046 54 41 54.8954 41 56C41 57.1046 40.1046 58 39 58M25 58L25 68C25 69.1046 25.8954 70 27 70H37C38.1046 70 39 69.1046 39 68V58M30 62H34"
      stroke="#CBD5E1" stroke-opacity="0.14" stroke-width="2" stroke-linecap="round" stroke-linejoin="round" />
    <path d="M24 104H40M24 110H40M33 116H40" stroke="#CBD5E1" stroke-opacity="0.14" stroke-width="2"
      stroke-linecap="round" stroke-linejoin="round" />
    <path
      d="M28 162C25.2386 162 23 159.761 23 157C23 154.552 24.7599 152.514 27.0838 152.084C27.5141 149.76 29.5515 148 32 148C34.4485 148 36.4859 149.76 36.9162 152.084C39.2401 152.514 41 154.552 41 157C41 159.761 38.7614 162 36 162M29 165L32 168M32 168L35 165M32 168V156"
      stroke="#CBD5E1" stroke-opacity="0.14" stroke-width="2" stroke-linecap="round" stroke-linejoin="round" />
    <path
      d="M28.6839 207.342C28.8862 206.938 29 206.482 29 206C29 205.518 28.8862 205.062 28.6839 204.658M28.6839 207.342C28.1913 208.325 27.1745 209 26 209C24.3431 209 23 207.657 23 206C23 204.343 24.3431 203 26 203C27.1745 203 28.1913 203.675 28.6839 204.658M28.6839 207.342L35.3161 210.658M28.6839 204.658L35.3161 201.342M35.3161 201.342C35.8087 202.325 36.8255 203 38 203C39.6569 203 41 201.657 41 200C41 198.343 39.6569 197 38 197C36.3431 197 35 198.343 35 200C35 200.482 35.1138 200.938 35.3161 201.342ZM35.3161 210.658C35.1138 211.062 35 211.518 35 212C35 213.657 36.3431 215 38 215C39.6569 215 41 213.657 41 212C41 210.343 39.6569 209 38 209C36.8255 209 35.8087 209.675 35.3161 210.658Z"
      stroke="#CBD5E1" stroke-opacity="0.14" stroke-width="2" stroke-linecap="round" stroke-linejoin="round" />
    <path
      d="M87 23V7C87 5.89543 86.1046 5 85 5H75C73.8954 5 73 5.89543 73 7V23M87 23L89 23M87 23H82M73 23L71 23M73 23H78M77 8.99998H78M77 13H78M82 8.99998H83M82 13H83M78 23V18C78 17.4477 78.4477 17 79 17H81C81.5523 17 82 17.4477 82 18V23M78 23H82"
      stroke="#CBD5E1" stroke-opacity="0.14" stroke-width="2" stroke-linecap="round" stroke-linejoin="round" />
    <path
      d="M80 58V62L83 65M89 62C89 66.9706 84.9706 71 80 71C75.0294 71 71 66.9706 71 62C71 57.0294 75.0294 53 80 53C84.9706 53 89 57.0294 89 62Z"
      stroke="#CBD5E1" stroke-opacity="0.14" stroke-width="2" stroke-linecap="round" stroke-linejoin="round" />
    <path d="M72 106H88M72 114H88" stroke="#CBD5E1" stroke-opacity="0.14" stroke-width="2" stroke-linecap="round"
      stroke-linejoin="round" />
    <path
      d="M79 149.055C74.5 149.552 71 153.367 71 158C71 162.97 75.0294 167 80 167C84.6326 167 88.4476 163.5 88.9451 159H79V149.055Z"
      stroke="#CBD5E1" stroke-opacity="0.14" stroke-width="2" stroke-linecap="round" stroke-linejoin="round" />
    <path d="M88.4878 155H83V149.512C85.5572 150.416 87.5839 152.443 88.4878 155Z" stroke="#CBD5E1"
      stroke-opacity="0.14" stroke-width="2" stroke-linecap="round" stroke-linejoin="round" />
    <path
      d="M72.318 200.318C70.5607 202.075 70.5607 204.925 72.318 206.682L80.0001 214.364L87.682 206.682C89.4393 204.925 89.4393 202.075 87.682 200.318C85.9246 198.561 83.0754 198.561 81.318 200.318L80.0001 201.636L78.682 200.318C76.9246 198.561 74.0754 198.561 72.318 200.318Z"
      stroke="#CBD5E1" stroke-opacity="0.14" stroke-width="2" stroke-linecap="round" stroke-linejoin="round" />
    <path
      d="M119 8L122 9M122 9L119 18C120.773 19.3334 123.229 19.3334 125.001 18M122 9L125 18M122 9L128 7M134 9L137 8M134 9L131 18C132.773 19.3334 135.229 19.3334 137.001 18M134 9L137 18M134 9L128 7M128 5V7M128 23V7M128 23H125M128 23H131"
      stroke="#CBD5E1" stroke-opacity="0.14" stroke-width="2" stroke-linecap="round" stroke-linejoin="round" />
    <path
      d="M120 66L124.586 61.4142C125.367 60.6332 126.633 60.6332 127.414 61.4142L132 66M130 64L131.586 62.4142C132.367 61.6332 133.633 61.6332 134.414 62.4142L136 64M130 58H130.01M122 70H134C135.105 70 136 69.1046 136 68V56C136 54.8954 135.105 54 134 54H122C120.895 54 120 54.8954 120 56V68C120 69.1046 120.895 70 122 70Z"
      stroke="#CBD5E1" stroke-opacity="0.14" stroke-width="2" stroke-linecap="round" stroke-linejoin="round" />
    <path d="M123 114V102M123 102L119 106M123 102L127 106M133 106V118M133 118L137 114M133 118L129 114" stroke="#CBD5E1"
      stroke-opacity="0.14" stroke-width="2" stroke-linecap="round" stroke-linejoin="round" />
    <path
      d="M123 167H133C134.105 167 135 166.105 135 165V155.414C135 155.149 134.895 154.895 134.707 154.707L129.293 149.293C129.105 149.105 128.851 149 128.586 149H123C121.895 149 121 149.895 121 151V165C121 166.105 121.895 167 123 167Z"
      stroke="#CBD5E1" stroke-opacity="0.14" stroke-width="2" stroke-linecap="round" stroke-linejoin="round" />
    <path
      d="M119.055 205H121C122.105 205 123 205.895 123 207V208C123 209.105 123.895 210 125 210C126.105 210 127 210.895 127 212V214.945M124 197.936V199.5C124 200.881 125.119 202 126.5 202H127C128.105 202 129 202.895 129 204C129 205.105 129.895 206 131 206C132.105 206 133 205.105 133 204C133 202.895 133.895 202 135 202L136.064 202M131 214.488V212C131 210.895 131.895 210 133 210H136.064M137 206C137 210.971 132.971 215 128 215C123.029 215 119 210.971 119 206C119 201.029 123.029 197 128 197C132.971 197 137 201.029 137 206Z"
      stroke="#CBD5E1" stroke-opacity="0.14" stroke-width="2" stroke-linecap="round" stroke-linejoin="round" />
    <path
      d="M175 7H170C168.895 7 168 7.89543 168 9V20C168 21.1046 168.895 22 170 22H181C182.105 22 183 21.1046 183 20V15M181.586 5.58579C182.367 4.80474 183.633 4.80474 184.414 5.58579C185.195 6.36683 185.195 7.63316 184.414 8.41421L175.828 17H173L173 14.1716L181.586 5.58579Z"
      stroke="#CBD5E1" stroke-opacity="0.14" stroke-width="2" stroke-linecap="round" stroke-linejoin="round" />
    <path
      d="M171 57H171.01M171 53H176C176.512 53 177.024 53.1952 177.414 53.5858L184.414 60.5858C185.195 61.3668 185.195 62.6332 184.414 63.4142L177.414 70.4142C176.633 71.1953 175.367 71.1953 174.586 70.4142L167.586 63.4142C167.195 63.0237 167 62.5118 167 62V57C167 54.7909 168.791 53 171 53Z"
      stroke="#CBD5E1" stroke-opacity="0.14" stroke-width="2" stroke-linecap="round" stroke-linejoin="round" />
    <path d="M172 105L184 105M184 105L180 101M184 105L180 109M180 115L168 115M168 115L172 119M168 115L172 111"
      stroke="#CBD5E1" stroke-opacity="0.14" stroke-width="2" stroke-linecap="round" stroke-linejoin="round" />
    <path
      d="M176 156V162M176 162L173 159M176 162L179 159M181 167H171C169.895 167 169 166.105 169 165V151C169 149.895 169.895 149 171 149H176.586C176.851 149 177.105 149.105 177.293 149.293L182.707 154.707C182.895 154.895 183 155.149 183 155.414V165C183 166.105 182.105 167 181 167Z"
      stroke="#CBD5E1" stroke-opacity="0.14" stroke-width="2" stroke-linecap="round" stroke-linejoin="round" />
    <path
      d="M179.536 202.464C181.488 204.417 181.488 207.583 179.536 209.536M182.364 199.636C185.879 203.151 185.879 208.849 182.364 212.364M169.586 209H168C167.448 209 167 208.552 167 208V204C167 203.448 167.448 203 168 203H169.586L174.293 198.293C174.923 197.663 176 198.109 176 199V213C176 213.891 174.923 214.337 174.293 213.707L169.586 209Z"
      stroke="#CBD5E1" stroke-opacity="0.14" stroke-width="2" stroke-linecap="round" stroke-linejoin="round" />
    <path
      d="M232.268 5.73223L232.975 5.02513V5.02513L232.268 5.73223ZM218.5 23.0355V24.0355C218.765 24.0355 219.02 23.9301 219.207 23.7426L218.5 23.0355ZM215 23.0355H214C214 23.5878 214.448 24.0355 215 24.0355V23.0355ZM215 19.4644L214.293 18.7573C214.105 18.9448 214 19.1992 214 19.4644H215ZM229.439 6.43934C230.025 5.85355 230.975 5.85355 231.561 6.43934L232.975 5.02513C231.608 3.65829 229.392 3.65829 228.025 5.02513L229.439 6.43934ZM231.561 6.43934C232.146 7.02513 232.146 7.97487 231.561 8.56066L232.975 9.97487C234.342 8.60804 234.342 6.39196 232.975 5.02513L231.561 6.43934ZM231.561 8.56066L217.793 22.3284L219.207 23.7426L232.975 9.97487L231.561 8.56066ZM218.5 22.0355H215V24.0355H218.5V22.0355ZM228.025 5.02513L214.293 18.7573L215.707 20.1715L229.439 6.43934L228.025 5.02513ZM214 19.4644V23.0355H216V19.4644H214ZM226.525 7.93934L230.061 11.4749L231.475 10.0607L227.939 6.52513L226.525 7.93934Z"
      fill="#CBD5E1" fill-opacity="0.14" />
    <path
      d="M221.114 53.3419L222.063 53.0257V53.0257L221.114 53.3419ZM222.863 58.5886L221.915 58.9048L221.915 58.9048L222.863 58.5886ZM219.967 60.5166L219.52 59.6222C219.04 59.8622 218.835 60.4384 219.055 60.9277L219.967 60.5166ZM225.484 66.033L225.072 66.9446C225.562 67.1652 226.138 66.9602 226.378 66.4802L225.484 66.033ZM226.806 63.3879L225.912 62.9407L225.912 62.9407L226.806 63.3879ZM227.411 63.1371L227.095 64.0858L227.095 64.0858L227.411 63.1371ZM232.658 64.886L232.342 65.8347L232.658 64.886ZM215 56V55C214.448 55 214 55.4477 214 56H215ZM215 56V57C215.553 57 216 56.5523 216 56H215ZM216 52C214.896 52 214 52.8954 214 54H216L216 54V52ZM220.64 52H216V54H220.64V52ZM222.063 53.0257C221.859 52.4131 221.286 52 220.64 52V54C220.425 54 220.234 53.8623 220.166 53.6581L222.063 53.0257ZM223.812 58.2724L222.063 53.0257L220.166 53.6581L221.915 58.9048L223.812 58.2724ZM223.06 60.0884C223.727 59.7545 224.048 58.9805 223.812 58.2724L221.915 58.9048C221.836 58.6688 221.943 58.4108 222.165 58.2995L223.06 60.0884ZM220.414 61.4111L223.06 60.0884L222.165 58.2995L219.52 59.6222L220.414 61.4111ZM225.895 65.1214C223.672 64.1194 221.881 62.3279 220.879 60.1056L219.055 60.9277C220.258 63.5947 222.405 65.7422 225.072 66.9446L225.895 65.1214ZM225.912 62.9407L224.589 65.5858L226.378 66.4802L227.7 63.8351L225.912 62.9407ZM227.728 62.1884C227.019 61.9524 226.245 62.273 225.912 62.9407L227.7 63.8351C227.589 64.0576 227.331 64.1645 227.095 64.0858L227.728 62.1884ZM232.974 63.9374L227.728 62.1884L227.095 64.0858L232.342 65.8347L232.974 63.9374ZM234 65.3604C234 64.7147 233.587 64.1415 232.974 63.9374L232.342 65.8347C232.138 65.7667 232 65.5756 232 65.3604H234ZM234 70V65.3604H232V70H234ZM232 72C233.105 72 234 71.1046 234 70H232V72ZM230 72H232V70H230V72ZM214 56C214 64.8366 221.163 72 230 72V70C222.268 70 216 63.732 216 56H214ZM215 55H215V57H215V55ZM214 54V56H216V54H214Z"
      fill="#CBD5E1" fill-opacity="0.14" />
    <path d="M218 116L230 104M218 104L230 116" stroke="#CBD5E1" stroke-opacity="0.14" stroke-width="2"
      stroke-linecap="round" stroke-linejoin="round" />
    <path
      d="M221 159H227M224 156L224 162M229 167H219C217.895 167 217 166.105 217 165V151C217 149.895 217.895 149 219 149H224.586C224.851 149 225.105 149.105 225.293 149.293L230.707 154.707C230.895 154.895 231 155.149 231 155.414V165C231 166.105 230.105 167 229 167Z"
      stroke="#CBD5E1" stroke-opacity="0.14" stroke-width="2" stroke-linecap="round" stroke-linejoin="round" />
    <path fill-rule="evenodd" clip-rule="evenodd"
      d="M217.586 209H216C215.448 209 215 208.552 215 208V204C215 203.448 215.448 203 216 203H217.586L222.293 198.293C222.923 197.663 224 198.109 224 199V213C224 213.891 222.923 214.337 222.293 213.707L217.586 209Z"
      stroke="#CBD5E1" stroke-opacity="0.14" stroke-width="2" stroke-linecap="round" stroke-linejoin="round" />
    <path d="M229 208L231 206M231 206L233 204M231 206L229 204M231 206L233 208" stroke="#CBD5E1" stroke-opacity="0.14"
      stroke-width="2" stroke-linecap="round" stroke-linejoin="round" />
    <path
      d="M274.999 14C274.999 15.6569 273.656 17 271.999 17C270.342 17 268.999 15.6569 268.999 14C268.999 12.3431 270.342 11 271.999 11C273.656 11 274.999 12.3431 274.999 14Z"
      stroke="#CBD5E1" stroke-opacity="0.14" stroke-width="2" stroke-linecap="round" stroke-linejoin="round" />
    <path
      d="M262.457 14C263.731 9.94288 267.522 7 271.999 7C276.477 7 280.267 9.94291 281.541 14C280.267 18.0571 276.477 21 271.999 21C267.522 21 263.731 18.0571 262.457 14Z"
      stroke="#CBD5E1" stroke-opacity="0.14" stroke-width="2" stroke-linecap="round" stroke-linejoin="round" />
    <path
      d="M276 53H281M281 53V58M281 53L275 59M265 53C263.895 53 263 53.8954 263 55V56C263 64.2843 269.716 71 278 71H279C280.105 71 281 70.1046 281 69V65.7208C281 65.2903 280.725 64.9082 280.316 64.7721L275.823 63.2743C275.351 63.1169 274.835 63.3306 274.612 63.7757L273.484 66.033C271.039 64.9308 269.069 62.9612 267.967 60.5165L270.224 59.3879C270.669 59.1653 270.883 58.6493 270.726 58.1772L269.228 53.6838C269.092 53.2754 268.71 53 268.279 53H265Z"
      stroke="#CBD5E1" stroke-opacity="0.14" stroke-width="2" stroke-linecap="round" stroke-linejoin="round" />
    <path d="M272 102V118M280 110L264 110" stroke="#CBD5E1" stroke-opacity="0.14" stroke-width="2"
      stroke-linecap="round" stroke-linejoin="round" />
    <path
      d="M269 159H275M277 167H267C265.895 167 265 166.105 265 165V151C265 149.895 265.895 149 267 149H272.586C272.851 149 273.105 149.105 273.293 149.293L278.707 154.707C278.895 154.895 279 155.149 279 155.414V165C279 166.105 278.105 167 277 167Z"
      stroke="#CBD5E1" stroke-opacity="0.14" stroke-width="2" stroke-linecap="round" stroke-linejoin="round" />
    <path
      d="M272 200V198M272 200C270.895 200 270 200.895 270 202C270 203.105 270.895 204 272 204M272 200C273.105 200 274 200.895 274 202C274 203.105 273.105 204 272 204M266 212C267.105 212 268 211.105 268 210C268 208.895 267.105 208 266 208M266 212C264.895 212 264 211.105 264 210C264 208.895 264.895 208 266 208M266 212V214M266 208V198M272 204V214M278 212C279.105 212 280 211.105 280 210C280 208.895 279.105 208 278 208M278 212C276.895 212 276 211.105 276 210C276 208.895 276.895 208 278 208M278 212V214M278 208V198"
      stroke="#CBD5E1" stroke-opacity="0.14" stroke-width="2" stroke-linecap="round" stroke-linejoin="round" />
    <path d="M313 7C313 5.89543 313.895 5 315 5H325C326.105 5 327 5.89543 327 7V23L320 19.5L313 23V7Z" stroke="#CBD5E1"
      stroke-opacity="0.14" stroke-width="2" stroke-linecap="round" stroke-linejoin="round" />
    <path
      d="M329 53L323 59M323 59V54M323 59H328M313 53C311.895 53 311 53.8954 311 55V56C311 64.2843 317.716 71 326 71H327C328.105 71 329 70.1046 329 69V65.7208C329 65.2903 328.725 64.9082 328.316 64.7721L323.823 63.2743C323.351 63.1169 322.835 63.3306 322.612 63.7757L321.484 66.033C319.039 64.9308 317.069 62.9612 315.967 60.5165L318.224 59.3879C318.669 59.1653 318.883 58.6493 318.726 58.1772L317.228 53.6838C317.092 53.2754 316.71 53 316.279 53H313Z"
      stroke="#CBD5E1" stroke-opacity="0.14" stroke-width="2" stroke-linecap="round" stroke-linejoin="round" />
    <path
      d="M312 102V107H312.582M327.938 109C327.446 105.054 324.08 102 320 102C316.643 102 313.768 104.068 312.582 107M312.582 107H317M328 118V113H327.418M327.418 113C326.232 115.932 323.357 118 320 118C315.92 118 312.554 114.946 312.062 111M327.418 113H323"
      stroke="#CBD5E1" stroke-opacity="0.14" stroke-width="2" stroke-linecap="round" stroke-linejoin="round" />
    <path
      d="M316 153V149M324 153V149M315 157H325M313 167H327C328.105 167 329 166.105 329 165V153C329 151.895 328.105 151 327 151H313C311.895 151 311 151.895 311 153V165C311 166.105 311.895 167 313 167Z"
      stroke="#CBD5E1" stroke-opacity="0.14" stroke-width="2" stroke-linecap="round" stroke-linejoin="round" />
    <path
      d="M321.828 204.172C320.266 202.609 317.734 202.609 316.172 204.172L312.172 208.172C310.609 209.734 310.609 212.266 312.172 213.828C313.734 215.391 316.266 215.391 317.828 213.828L318.93 212.727M318.172 207.828C319.734 209.391 322.266 209.391 323.828 207.828L327.828 203.828C329.391 202.266 329.391 199.734 327.828 198.172C326.266 196.609 323.734 196.609 322.172 198.172L321.072 199.271"
      stroke="#CBD5E1" stroke-opacity="0.14" stroke-width="2" stroke-linecap="round" stroke-linejoin="round" />
    <path
      d="M269.607 101.163C266.237 101.163 263.62 102.421 262.111 104.685V91.8055H255.621V127.023H262.111V113.439C262.111 109.062 264.476 107.201 267.645 107.201C270.563 107.201 272.626 108.961 272.626 112.383V127.023H279.116V111.578C279.116 104.886 274.94 101.163 269.607 101.163Z"
      fill="#111827" />
    <path
      d="M289.135 117.112H308.102C308.253 116.256 308.354 115.401 308.354 114.445C308.354 107.05 303.071 101.163 295.625 101.163C287.727 101.163 282.343 106.949 282.343 114.445C282.343 121.942 287.676 127.727 296.129 127.727C300.958 127.727 304.732 125.765 307.096 122.344L301.864 119.325C300.757 120.784 298.745 121.841 296.229 121.841C292.808 121.841 290.041 120.432 289.135 117.112ZM289.035 112.081C289.789 108.861 292.154 106.999 295.625 106.999C298.342 106.999 301.059 108.458 301.864 112.081H289.035Z"
      fill="#111827" />
    <path
      d="M318.369 106.194V101.868H311.878V127.023H318.369V114.999C318.369 109.716 322.645 108.207 326.016 108.609V101.365C322.846 101.365 319.677 102.773 318.369 106.194Z"
      fill="#111827" />
    <path
      d="M339.846 127.727C347.241 127.727 353.178 121.942 353.178 114.445C353.178 106.949 347.241 101.163 339.846 101.163C332.45 101.163 326.564 106.949 326.564 114.445C326.564 121.942 332.45 127.727 339.846 127.727ZM339.846 121.388C336.022 121.388 333.054 118.52 333.054 114.445C333.054 110.37 336.022 107.502 339.846 107.502C343.72 107.502 346.688 110.37 346.688 114.445C346.688 118.52 343.72 121.388 339.846 121.388Z"
      fill="#111827" />
    <path
      d="M359.957 98.849C362.171 98.849 363.982 97.0378 363.982 94.8744C363.982 92.7111 362.171 90.8496 359.957 90.8496C357.794 90.8496 355.983 92.7111 355.983 94.8744C355.983 97.0378 357.794 98.849 359.957 98.849ZM356.737 127.023H363.227V101.868H356.737V127.023Z"
      fill="#111827" />
    <path
      d="M380.135 127.727C385.066 127.727 389.342 125.111 391.505 121.187L385.871 117.967C384.864 120.03 382.701 121.287 380.085 121.287C376.211 121.287 373.343 118.42 373.343 114.445C373.343 110.42 376.211 107.553 380.085 107.553C382.651 107.553 384.814 108.861 385.82 110.924L391.405 107.653C389.342 103.779 385.066 101.163 380.135 101.163C372.488 101.163 366.853 106.949 366.853 114.445C366.853 121.942 372.488 127.727 380.135 127.727Z"
      fill="#111827" />
    <path
      d="M405.513 127.727C412.908 127.727 418.845 121.942 418.845 114.445C418.845 106.949 412.908 101.163 405.513 101.163C398.117 101.163 392.231 106.949 392.231 114.445C392.231 121.942 398.117 127.727 405.513 127.727ZM405.513 121.388C401.689 121.388 398.721 118.52 398.721 114.445C398.721 110.37 401.689 107.502 405.513 107.502C409.387 107.502 412.355 110.37 412.355 114.445C412.355 118.52 409.387 121.388 405.513 121.388Z"
      fill="#111827" />
    <path
      d="M436.391 101.163C433.02 101.163 430.404 102.421 428.894 104.685V101.868H422.404V127.023H428.894V113.439C428.894 109.062 431.259 107.201 434.429 107.201C437.347 107.201 439.409 108.961 439.409 112.383V127.023H445.899V111.578C445.899 104.886 441.724 101.163 436.391 101.163Z"
      fill="#111827" />
    <path
      d="M456.422 109.012C456.422 107.653 457.73 106.949 459.34 106.949C461.201 106.949 462.61 107.905 463.365 109.515L468.899 106.496C466.937 103.025 463.415 101.163 459.34 101.163C454.158 101.163 449.781 104.031 449.781 109.163C449.781 118.017 462.761 116.005 462.761 119.678C462.761 121.137 461.352 121.841 459.289 121.841C456.774 121.841 455.063 120.633 454.359 118.571L448.724 121.74C450.535 125.614 454.258 127.727 459.289 127.727C464.673 127.727 469.402 125.111 469.402 119.678C469.402 110.42 456.422 112.735 456.422 109.012Z"
      fill="#111827" />
    <path fill-rule="evenodd" clip-rule="evenodd"
      d="M226.277 91.7107C225.623 91.7439 224.965 91.7607 224.303 91.7607C214.486 91.7607 205.53 88.0698 198.749 82C191.967 88.0696 183.012 91.7603 173.194 91.7603C172.532 91.7603 171.874 91.7435 171.221 91.7103C170.424 94.7884 170 98.0166 170 101.344C170 119.205 182.216 134.213 198.749 138.468C215.282 134.213 227.498 119.205 227.498 101.344C227.498 98.0167 227.074 94.7887 226.277 91.7107ZM198.749 130.988C211.264 126.947 220.311 115.194 220.311 101.344C220.311 100.475 220.275 99.6148 220.206 98.7656C212.3 98.0592 204.971 95.3293 198.749 91.1019C192.526 95.3291 185.197 98.0588 177.292 98.7652C177.223 99.6146 177.187 100.474 177.187 101.344C177.187 115.194 186.233 126.947 198.749 130.988Z"
      fill="#9333EA" />
  </g>
  <defs>
    <clipPath id="clip0">
      <rect width="640" height="220" fill="white" />
    </clipPath>
  </defs>
</svg>