<svg width="456" height="648" viewBox="0 0 456 648" fill="none" xmlns="http://www.w3.org/2000/svg">
<rect width="456" height="648" fill="white"/>
<rect width="24" height="24" fill="white"/>
<path d="M3 8L10.8906 13.2604C11.5624 13.7083 12.4376 13.7083 13.1094 13.2604L21 8M5 19H19C20.1046 19 21 18.1046 21 17V7C21 5.89543 20.1046 5 19 5H5C3.89543 5 3 5.89543 3 7V17C3 18.1046 3.89543 19 5 19Z" stroke="#252F3F" stroke-width="2" stroke-linecap="round" stroke-linejoin="round"/>
<rect y="48" width="24" height="24" fill="white"/>
<path d="M17.6569 64.6569C16.7202 65.5935 14.7616 67.5521 13.4138 68.8999C12.6327 69.681 11.3677 69.6814 10.5866 68.9003C9.26234 67.576 7.34159 65.6553 6.34315 64.6569C3.21895 61.5327 3.21895 56.4673 6.34315 53.3431C9.46734 50.219 14.5327 50.219 17.6569 53.3431C20.781 56.4673 20.781 61.5327 17.6569 64.6569Z" stroke="#252F3F" stroke-width="2" stroke-linecap="round" stroke-linejoin="round"/>
<path d="M15 59C15 60.6569 13.6569 62 12 62C10.3431 62 9 60.6569 9 59C9 57.3431 10.3431 56 12 56C13.6569 56 15 57.3431 15 59Z" stroke="#252F3F" stroke-width="2" stroke-linecap="round" stroke-linejoin="round"/>
<rect y="96" width="24" height="24" fill="white"/>
<path d="M7 117C4.79086 117 3 115.209 3 113V101C3 99.8954 3.89543 99 5 99H9C10.1046 99 11 99.8954 11 101V113C11 115.209 9.20914 117 7 117ZM7 117H19C20.1046 117 21 116.105 21 115V111C21 109.895 20.1046 109 19 109H16.6569M11 103.343L12.6569 101.686C13.4379 100.905 14.7042 100.905 15.4853 101.686L18.3137 104.515C19.0948 105.296 19.0948 106.562 18.3137 107.343L9.82843 115.828M7 113H7.01" stroke="#252F3F" stroke-width="2" stroke-linecap="round" stroke-linejoin="round"/>
<rect y="144" width="24" height="24" fill="white"/>
<path d="M4 150H20M4 156H20M4 162H20" stroke="#252F3F" stroke-width="2" stroke-linecap="round" stroke-linejoin="round"/>
<rect y="192" width="24" height="24" fill="white"/>
<path d="M8.22766 201C8.77678 199.835 10.2584 199 12.0001 199C14.2092 199 16.0001 200.343 16.0001 202C16.0001 203.399 14.7224 204.575 12.9943 204.907C12.4519 205.011 12.0001 205.448 12.0001 206M12 209H12.01M21 204C21 208.971 16.9706 213 12 213C7.02944 213 3 208.971 3 204C3 199.029 7.02944 195 12 195C16.9706 195 21 199.029 21 204Z" stroke="#252F3F" stroke-width="2" stroke-linecap="round" stroke-linejoin="round"/>
<rect y="240" width="24" height="24" fill="white"/>
<path d="M3 249C3 247.895 3.89543 247 5 247H5.92963C6.59834 247 7.2228 246.666 7.59373 246.109L8.40627 244.891C8.7772 244.334 9.40166 244 10.0704 244H13.9296C14.5983 244 15.2228 244.334 15.5937 244.891L16.4063 246.109C16.7772 246.666 17.4017 247 18.0704 247H19C20.1046 247 21 247.895 21 249V258C21 259.105 20.1046 260 19 260H5C3.89543 260 3 259.105 3 258V249Z" stroke="#252F3F" stroke-width="2" stroke-linecap="round" stroke-linejoin="round"/>
<path d="M15 253C15 254.657 13.6569 256 12 256C10.3431 256 9 254.657 9 253C9 251.343 10.3431 250 12 250C13.6569 250 15 251.343 15 253Z" stroke="#252F3F" stroke-width="2" stroke-linecap="round" stroke-linejoin="round"/>
<rect y="288" width="24" height="24" fill="white"/>
<path d="M3 307V298.07C3 297.402 3.3342 296.777 3.8906 296.406L10.8906 291.74C11.5624 291.292 12.4376 291.292 13.1094 291.74L20.1094 296.406C20.6658 296.777 21 297.402 21 298.07V307M3 307C3 308.105 3.89543 309 5 309H19C20.1046 309 21 308.105 21 307M3 307L9.75 302.5M21 307L14.25 302.5M3 298L9.75 302.5M21 298L14.25 302.5M14.25 302.5L13.1094 303.261C12.4376 303.708 11.5624 303.708 10.8906 303.261L9.75 302.5" stroke="#252F3F" stroke-width="2" stroke-linecap="round" stroke-linejoin="round"/>
<rect y="336" width="24" height="24" fill="white"/>
<path d="M5 346L12 339M12 339L19 346M12 339V357" stroke="#252F3F" stroke-width="2" stroke-linecap="round" stroke-linejoin="round"/>
<rect y="384" width="24" height="24" fill="white"/>
<path d="M10 398L12 396M12 396L14 394M12 396L10 394M12 396L14 398M21 396C21 400.971 16.9706 405 12 405C7.02944 405 3 400.971 3 396C3 391.029 7.02944 387 12 387C16.9706 387 21 391.029 21 396Z" stroke="#252F3F" stroke-width="2" stroke-linecap="round" stroke-linejoin="round"/>
<rect y="432" width="24" height="24" fill="white"/>
<path d="M5 444H5.01M12 444H12.01M19 444H19.01M6 444C6 444.552 5.55228 445 5 445C4.44772 445 4 444.552 4 444C4 443.448 4.44772 443 5 443C5.55228 443 6 443.448 6 444ZM13 444C13 444.552 12.5523 445 12 445C11.4477 445 11 444.552 11 444C11 443.448 11.4477 443 12 443C12.5523 443 13 443.448 13 444ZM20 444C20 444.552 19.5523 445 19 445C18.4477 445 18 444.552 18 444C18 443.448 18.4477 443 19 443C19.5523 443 20 443.448 20 444Z" stroke="#252F3F" stroke-width="2" stroke-linecap="round" stroke-linejoin="round"/>
<rect y="480" width="24" height="24" fill="white"/>
<path d="M13.8434 489.655C14.2053 490.073 14.8369 490.117 15.254 489.755C15.6712 489.393 15.7159 488.762 15.354 488.345L13.8434 489.655ZM10.1567 494.345C9.79471 493.927 9.16313 493.883 8.74599 494.245C8.32885 494.607 8.28411 495.238 8.64607 495.655L10.1567 494.345ZM13 487C13 486.448 12.5523 486 12 486C11.4477 486 11 486.448 11 487H13ZM11 497C11 497.552 11.4477 498 12 498C12.5523 498 13 497.552 13 497L11 497ZM20 492C20 496.418 16.4183 500 12 500V502C17.5228 502 22 497.523 22 492H20ZM12 500C7.58172 500 4 496.418 4 492H2C2 497.523 6.47715 502 12 502V500ZM4 492C4 487.582 7.58172 484 12 484V482C6.47715 482 2 486.477 2 492H4ZM12 484C16.4183 484 20 487.582 20 492H22C22 486.477 17.5228 482 12 482V484ZM12 491C11.3415 491 10.7905 490.82 10.4334 490.582C10.0693 490.339 10 490.114 10 490H8C8 490.991 8.6023 491.765 9.32398 492.246C10.0526 492.732 11.0017 493 12 493V491ZM10 490C10 489.886 10.0693 489.661 10.4334 489.418C10.7905 489.18 11.3415 489 12 489V487C11.0017 487 10.0526 487.268 9.32398 487.754C8.6023 488.235 8 489.009 8 490H10ZM12 489C12.9038 489 13.563 489.332 13.8434 489.655L15.354 488.345C14.5969 487.472 13.3171 487 12 487V489ZM12 493C12.6585 493 13.2095 493.18 13.5666 493.418C13.9308 493.661 14 493.886 14 494H16C16 493.009 15.3977 492.235 14.676 491.754C13.9474 491.268 12.9983 491 12 491V493ZM11 487V488H13V487H11ZM11 496L11 497L13 497L13 496L11 496ZM12 495C11.0962 495 10.437 494.668 10.1567 494.345L8.64607 495.655C9.40317 496.528 10.683 497 12 497L12 495ZM14 494C14 494.114 13.9308 494.339 13.5666 494.582C13.2095 494.82 12.6586 495 12 495V497C12.9983 497 13.9474 496.732 14.676 496.246C15.3977 495.765 16 494.991 16 494H14ZM11 488L11 496L13 496L13 488L11 488Z" fill="#252F3F"/>
<rect y="528" width="24" height="24" fill="white"/>
<path d="M8 540H8.01M12 540H12.01M16 540H16.01M21 540C21 544.418 16.9706 548 12 548C10.4607 548 9.01172 547.657 7.74467 547.051L3 548L4.39499 544.28C3.51156 543.042 3 541.574 3 540C3 535.582 7.02944 532 12 532C16.9706 532 21 535.582 21 540Z" stroke="#252F3F" stroke-width="2" stroke-linecap="round" stroke-linejoin="round"/>
<rect y="576" width="24" height="24" fill="white"/>
<path d="M10 582H6C4.89543 582 4 582.895 4 584V594C4 595.105 4.89543 596 6 596H16C17.1046 596 18 595.105 18 594V590M14 580H20M20 580V586M20 580L10 590" stroke="#252F3F" stroke-width="2" stroke-linecap="round" stroke-linejoin="round"/>
<rect y="624" width="24" height="24" fill="white"/>
<path d="M3 631V641C3 642.105 3.89543 643 5 643H19C20.1046 643 21 642.105 21 641V633C21 631.895 20.1046 631 19 631H13L11 629H5C3.89543 629 3 629.895 3 631Z" stroke="#252F3F" stroke-width="2" stroke-linecap="round" stroke-linejoin="round"/>
<rect x="48" width="24" height="24" fill="white"/>
<path d="M63 17H68L66.5951 15.5951C66.2141 15.2141 66 14.6973 66 14.1585V11C66 8.38757 64.3304 6.16509 62 5.34142V5C62 3.89543 61.1046 3 60 3C58.8954 3 58 3.89543 58 5V5.34142C55.6696 6.16509 54 8.38757 54 11V14.1585C54 14.6973 53.7859 15.2141 53.4049 15.5951L52 17H57M63 17V18C63 19.6569 61.6569 21 60 21C58.3431 21 57 19.6569 57 18V17M63 17H57" stroke="#252F3F" stroke-width="2" stroke-linecap="round" stroke-linejoin="round"/>
<rect x="48" y="48" width="24" height="24" fill="white"/>
<path d="M64 55C64 57.2091 62.2091 59 60 59C57.7909 59 56 57.2091 56 55C56 52.7909 57.7909 51 60 51C62.2091 51 64 52.7909 64 55Z" stroke="#252F3F" stroke-width="2" stroke-linecap="round" stroke-linejoin="round"/>
<path d="M60 62C56.134 62 53 65.134 53 69H67C67 65.134 63.866 62 60 62Z" stroke="#252F3F" stroke-width="2" stroke-linecap="round" stroke-linejoin="round"/>
<rect x="48" y="96" width="24" height="24" fill="white"/>
<path d="M68 109V102C68 100.895 67.1046 100 66 100H54C52.8954 100 52 100.895 52 102V109M68 109V114C68 115.105 67.1046 116 66 116H54C52.8954 116 52 115.105 52 114V109M68 109H65.4142C65.149 109 64.8946 109.105 64.7071 109.293L62.2929 111.707C62.1054 111.895 61.851 112 61.5858 112H58.4142C58.149 112 57.8946 111.895 57.7071 111.707L55.2929 109.293C55.1054 109.105 54.851 109 54.5858 109H52" stroke="#252F3F" stroke-width="2" stroke-linecap="round" stroke-linejoin="round"/>
<rect x="48" y="144" width="24" height="24" fill="white"/>
<path d="M52 150H68M52 156H60M52 162H68" stroke="#252F3F" stroke-width="2" stroke-linecap="round" stroke-linejoin="round"/>
<rect x="48" y="192" width="24" height="24" fill="white"/>
<path d="M60 201V203M60 207H60.01M53.0718 211H66.9282C68.4678 211 69.4301 209.333 68.6603 208L61.7321 196C60.9623 194.667 59.0378 194.667 58.268 196L51.3398 208C50.57 209.333 51.5322 211 53.0718 211Z" stroke="#252F3F" stroke-width="2" stroke-linecap="round" stroke-linejoin="round"/>
<rect x="48" y="240" width="24" height="24" fill="white"/>
<path d="M69 252C69 256.971 64.9706 261 60 261M69 252C69 247.029 64.9706 243 60 243M69 252H51M60 261C55.0294 261 51 256.971 51 252M60 261C61.6569 261 63 256.971 63 252C63 247.029 61.6569 243 60 243M60 261C58.3431 261 57 256.971 57 252C57 247.029 58.3431 243 60 243M51 252C51 247.029 55.0294 243 60 243" stroke="#252F3F" stroke-width="2" stroke-linecap="round" stroke-linejoin="round"/>
<rect x="48" y="288" width="24" height="24" fill="white"/>
<path d="M56 295V303C56 304.105 56.8954 305 58 305H64M56 295V293C56 291.895 56.8954 291 58 291H62.5858C62.851 291 63.1054 291.105 63.2929 291.293L67.7071 295.707C67.8946 295.895 68 296.149 68 296.414V303C68 304.105 67.1046 305 66 305H64M56 295H54C52.8954 295 52 295.895 52 297V307C52 308.105 52.8954 309 54 309H62C63.1046 309 64 308.105 64 307V305" stroke="#252F3F" stroke-width="2" stroke-linecap="round" stroke-linejoin="round"/>
<rect x="48" y="336" width="24" height="24" fill="white"/>
<path d="M62 341L69 348M69 348L62 355M69 348L51 348" stroke="#252F3F" stroke-width="2" stroke-linecap="round" stroke-linejoin="round"/>
<rect x="48" y="384" width="24" height="24" fill="white"/>
<path d="M57 396L59 398L63 394M69 396C69 400.971 64.9706 405 60 405C55.0294 405 51 400.971 51 396C51 391.029 55.0294 387 60 387C64.9706 387 69 391.029 69 396Z" stroke="#252F3F" stroke-width="2" stroke-linecap="round" stroke-linejoin="round"/>
<rect x="48" y="432" width="24" height="24" fill="white"/>
<path d="M60 437L60 437.01M60 444L60 444.01M60 451L60 451.01M60 438C59.4477 438 59 437.552 59 437C59 436.448 59.4477 436 60 436C60.5523 436 61 436.448 61 437C61 437.552 60.5523 438 60 438ZM60 445C59.4477 445 59 444.552 59 444C59 443.448 59.4477 443 60 443C60.5523 443 61 443.448 61 444C61 444.552 60.5523 445 60 445ZM60 452C59.4477 452 59 451.552 59 451C59 450.448 59.4477 450 60 450C60.5523 450 61 450.448 61 451C61 451.552 60.5523 452 60 452Z" stroke="#252F3F" stroke-width="2" stroke-linecap="round" stroke-linejoin="round"/>
<rect x="48" y="480" width="24" height="24" fill="white"/>
<path d="M57 488L60 493M60 493L63 488M60 493V497M57 492H63M57 495H63M69 492C69 496.971 64.9706 501 60 501C55.0294 501 51 496.971 51 492C51 487.029 55.0294 483 60 483C64.9706 483 69 487.029 69 492Z" stroke="#252F3F" stroke-width="2" stroke-linecap="round" stroke-linejoin="round"/>
<rect x="48.5" y="528.5" width="23" height="23" fill="white"/>
<path d="M68 549L67.5528 549.894C67.8628 550.049 68.2309 550.033 68.5257 549.851C68.8205 549.668 69 549.347 69 549H68ZM52 549H51C51 549.347 51.1795 549.668 51.4743 549.851C51.7691 550.033 52.1372 550.049 52.4472 549.894L52 549ZM60 549L59.5528 549.894C59.8343 550.035 60.1657 550.035 60.4472 549.894L60 549ZM56 547L56.4472 546.106C56.1657 545.965 55.8343 545.965 55.5528 546.106L56 547ZM64 547L64.4472 546.106C64.1657 545.965 63.8343 545.965 63.5528 546.106L64 547ZM63 543C63 543.552 63.4477 544 64 544C64.5523 544 65 543.552 65 543H63ZM56 538L55.2929 537.293C54.9024 537.683 54.9024 538.317 55.2929 538.707L56 538ZM58.2929 541.707C58.6834 542.098 59.3166 542.098 59.7071 541.707C60.0976 541.317 60.0976 540.683 59.7071 540.293L58.2929 541.707ZM59.7071 535.707C60.0976 535.317 60.0976 534.683 59.7071 534.293C59.3166 533.902 58.6834 533.902 58.2929 534.293L59.7071 535.707ZM54 532H66V530H54V532ZM67 533V549H69V533H67ZM53 549V533H51V549H53ZM60.4472 548.106L56.4472 546.106L55.5528 547.894L59.5528 549.894L60.4472 548.106ZM55.5528 546.106L51.5528 548.106L52.4472 549.894L56.4472 547.894L55.5528 546.106ZM68.4472 548.106L64.4472 546.106L63.5528 547.894L67.5528 549.894L68.4472 548.106ZM63.5528 546.106L59.5528 548.106L60.4472 549.894L64.4472 547.894L63.5528 546.106ZM66 532C66.5523 532 67 532.448 67 533H69C69 531.343 67.6569 530 66 530V532ZM54 530C52.3431 530 51 531.343 51 533H53C53 532.448 53.4477 532 54 532V530ZM65 543V542H63V543H65ZM60 537H56V539H60V537ZM65 542C65 539.239 62.7614 537 60 537V539C61.6569 539 63 540.343 63 542H65ZM59.7071 540.293L56.7071 537.293L55.2929 538.707L58.2929 541.707L59.7071 540.293ZM56.7071 538.707L59.7071 535.707L58.2929 534.293L55.2929 537.293L56.7071 538.707Z" fill="#252F3F"/>
<rect x="48.5" y="528.5" width="23" height="23" stroke="white"/>
<rect x="48" y="576" width="24" height="24" fill="white"/>
<path d="M60 579V580M60 596V597M69 588H68M52 588H51M66.364 594.364L65.6569 593.657M54.3431 582.343L53.636 581.636M66.364 581.636L65.6569 582.343M54.3432 593.657L53.6361 594.364M64 588C64 590.209 62.2091 592 60 592C57.7909 592 56 590.209 56 588C56 585.791 57.7909 584 60 584C62.2091 584 64 585.791 64 588Z" stroke="#252F3F" stroke-width="2" stroke-linecap="round" stroke-linejoin="round"/>
<rect x="48" y="624" width="24" height="24" fill="white"/>
<path d="M53 627V631M51 629H55M54 641V645M52 643H56M61 627L63.2857 633.857L69 636L63.2857 638.143L61 645L58.7143 638.143L53 636L58.7143 633.857L61 627Z" stroke="#252F3F" stroke-width="2" stroke-linecap="round" stroke-linejoin="round"/>
<rect x="96" width="24" height="24" fill="white"/>
<path d="M99 12L101 10M101 10L108 3L115 10M101 10V20C101 20.5523 101.448 21 102 21H105M115 10L117 12M115 10V20C115 20.5523 114.552 21 114 21H111M105 21C105.552 21 106 20.5523 106 20V16C106 15.4477 106.448 15 107 15H109C109.552 15 110 15.4477 110 16V20C110 20.5523 110.448 21 111 21M105 21H111" stroke="#252F3F" stroke-width="2" stroke-linecap="round" stroke-linejoin="round"/>
<rect x="96" y="48" width="24" height="24" fill="white"/>
<path d="M108 52.3542C108.733 51.5238 109.805 51 111 51C113.209 51 115 52.7909 115 55C115 57.2091 113.209 59 111 59C109.805 59 108.733 58.4762 108 57.6458M111 69H99V68C99 64.6863 101.686 62 105 62C108.314 62 111 64.6863 111 68V69ZM111 69H117V68C117 64.6863 114.314 62 111 62C109.907 62 108.883 62.2922 108 62.8027M109 55C109 57.2091 107.209 59 105 59C102.791 59 101 57.2091 101 55C101 52.7909 102.791 51 105 51C107.209 51 109 52.7909 109 55Z" stroke="#252F3F" stroke-width="2" stroke-linecap="round" stroke-linejoin="round"/>
<rect x="96" y="96" width="24" height="24" fill="white"/>
<path d="M104 100H102C100.895 100 100 100.895 100 102V114C100 115.105 100.895 116 102 116H114C115.105 116 116 115.105 116 114V102C116 100.895 115.105 100 114 100H112M108 99V107M108 107L111 104M108 107L105 104M100 109H102.586C102.851 109 103.105 109.105 103.293 109.293L105.707 111.707C105.895 111.895 106.149 112 106.414 112H109.586C109.851 112 110.105 111.895 110.293 111.707L112.707 109.293C112.895 109.105 113.149 109 113.414 109H116" stroke="#252F3F" stroke-width="2" stroke-linecap="round" stroke-linejoin="round"/>
<rect x="96" y="144" width="24" height="24" fill="white"/>
<path d="M100 150H116M100 156H116M100 162H107" stroke="#252F3F" stroke-width="2" stroke-linecap="round" stroke-linejoin="round"/>
<rect x="96" y="192" width="24" height="24" fill="white"/>
<path d="M104 209C101.239 209 99 206.761 99 204C99 201.552 100.76 199.514 103.084 199.084C103.514 196.76 105.552 195 108 195C110.448 195 112.486 196.76 112.916 199.084C115.24 199.514 117 201.552 117 204C117 206.761 114.761 209 112 209M105 204L108 201M108 201L111 204M108 201V213" stroke="#252F3F" stroke-width="2" stroke-linecap="round" stroke-linejoin="round"/>
<rect x="96" y="240" width="24" height="24" fill="white"/>
<path d="M104 256H102C100.895 256 100 255.105 100 254V246C100 244.895 100.895 244 102 244H110C111.105 244 112 244.895 112 246V248M106 260H114C115.105 260 116 259.105 116 258V250C116 248.895 115.105 248 114 248H106C104.895 248 104 248.895 104 250V258C104 259.105 104.895 260 106 260Z" stroke="#252F3F" stroke-width="2" stroke-linecap="round" stroke-linejoin="round"/>
<rect x="96" y="288" width="24" height="24" fill="white"/>
<path d="M99 298H117M103 303H104M108 303H109M102 307H114C115.657 307 117 305.657 117 304V296C117 294.343 115.657 293 114 293H102C100.343 293 99 294.343 99 296V304C99 305.657 100.343 307 102 307Z" stroke="#252F3F" stroke-width="2" stroke-linecap="round" stroke-linejoin="round"/>
<rect x="96" y="336" width="24" height="24" fill="white"/>
<path d="M115 350L108 357M108 357L101 350M108 357L108 339" stroke="#252F3F" stroke-width="2" stroke-linecap="round" stroke-linejoin="round"/>
<rect x="96" y="384" width="24" height="24" fill="white"/>
<path d="M108 392V396M108 400H108.01M117 396C117 400.971 112.971 405 108 405C103.029 405 99 400.971 99 396C99 391.029 103.029 387 108 387C112.971 387 117 391.029 117 396Z" stroke="#252F3F" stroke-width="2" stroke-linecap="round" stroke-linejoin="round"/>
<rect x="96" y="432" width="24" height="24" fill="white"/>
<path d="M100 448L100 449C100 450.657 101.343 452 103 452L113 452C114.657 452 116 450.657 116 449L116 448M112 440L108 436M108 436L104 440M108 436L108 448" stroke="#252F3F" stroke-width="2" stroke-linecap="round" stroke-linejoin="round"/>
<rect x="96" y="480" width="24" height="24" fill="white"/>
<path d="M110.121 495.536C108.95 497.488 107.05 497.488 105.879 495.536C104.707 493.583 104.707 490.417 105.879 488.464C107.05 486.512 108.95 486.512 110.121 488.464M104 490.5H108M104 493.5H108M117 492C117 496.971 112.971 501 108 501C103.029 501 99 496.971 99 492C99 487.029 103.029 483 108 483C112.971 483 117 487.029 117 492Z" stroke="#252F3F" stroke-width="2" stroke-linecap="round" stroke-linejoin="round"/>
<rect x="96" y="528" width="24" height="24" fill="white"/>
<path d="M117 538V539C117.552 539 118 538.552 118 538H117ZM117 542H118C118 541.448 117.552 541 117 541V542ZM99 542V541C98.4477 541 98 541.448 98 542H99ZM99 538H98C98 538.552 98.4477 539 99 539V538ZM101 532C99.3431 532 98 533.343 98 535H100C100 534.448 100.448 534 101 534V532ZM115 532H101V534H115V532ZM118 535C118 533.343 116.657 532 115 532V534C115.552 534 116 534.448 116 535H118ZM118 538V535H116V538H118ZM116 540C116 539.448 116.448 539 117 539V537C115.343 537 114 538.343 114 540H116ZM117 541C116.448 541 116 540.552 116 540H114C114 541.657 115.343 543 117 543V541ZM118 545V542H116V545H118ZM115 548C116.657 548 118 546.657 118 545H116C116 545.552 115.552 546 115 546V548ZM101 548H115V546H101V548ZM98 545C98 546.657 99.3431 548 101 548V546C100.448 546 100 545.552 100 545H98ZM98 542V545H100V542H98ZM100 540C100 540.552 99.5523 541 99 541V543C100.657 543 102 541.657 102 540H100ZM99 539C99.5523 539 100 539.448 100 540H102C102 538.343 100.657 537 99 537V539ZM98 535V538H100V535H98Z" fill="#252F3F"/>
<path d="M111 533V535" stroke="#252F3F" stroke-width="2" stroke-linecap="round"/>
<path d="M111 539V541" stroke="#252F3F" stroke-width="2" stroke-linecap="round" stroke-linejoin="round"/>
<path d="M111 545V547" stroke="#252F3F" stroke-width="2" stroke-linecap="round" stroke-linejoin="round"/>
<rect x="96" y="576" width="24" height="24" fill="white"/>
<path d="M116.354 591.354L117.282 591.727C117.431 591.356 117.345 590.931 117.061 590.647C116.778 590.364 116.353 590.277 115.981 590.426L116.354 591.354ZM104.646 579.646L105.574 580.019C105.723 579.647 105.636 579.222 105.353 578.939C105.07 578.656 104.645 578.569 104.273 578.718L104.646 579.646ZM115.981 590.426C115.061 590.796 114.056 591 113 591V593C114.315 593 115.574 592.746 116.727 592.282L115.981 590.426ZM113 591C108.582 591 105 587.418 105 583H103C103 588.523 107.477 593 113 593V591ZM105 583C105 581.945 105.204 580.939 105.574 580.019L103.718 579.273C103.255 580.426 103 581.685 103 583H105ZM100 588C100 584.637 102.075 581.757 105.019 580.574L104.273 578.718C100.598 580.195 98 583.793 98 588H100ZM108 596C103.582 596 100 592.418 100 588H98C98 593.523 102.477 598 108 598V596ZM115.426 590.981C114.243 593.925 111.363 596 108 596V598C112.207 598 115.805 595.402 117.282 591.727L115.426 590.981Z" fill="#252F3F"/>
<rect x="96" y="624" width="24" height="24" fill="white"/>
<path d="M109 631C109 633.209 107.209 635 105 635C102.791 635 101 633.209 101 631C101 628.791 102.791 627 105 627C107.209 627 109 628.791 109 631Z" stroke="#252F3F" stroke-width="2" stroke-linecap="round" stroke-linejoin="round"/>
<path d="M105 638C101.686 638 99 640.686 99 644V645H111V644C111 640.686 108.314 638 105 638Z" stroke="#252F3F" stroke-width="2" stroke-linecap="round" stroke-linejoin="round"/>
<path d="M117 636L111 636" stroke="#252F3F" stroke-width="2" stroke-linecap="round" stroke-linejoin="round"/>
<rect x="144" width="24" height="24" fill="white"/>
<path d="M165 13.2554C162.221 14.3805 159.183 15 156 15C152.817 15 149.779 14.3805 147 13.2554M160 6V4C160 2.89543 159.105 2 158 2H154C152.895 2 152 2.89543 152 4V6M156 12H156.01M149 20H163C164.105 20 165 19.1046 165 18V8C165 6.89543 164.105 6 163 6H149C147.895 6 147 6.89543 147 8V18C147 19.1046 147.895 20 149 20Z" stroke="#252F3F" stroke-width="2" stroke-linecap="round" stroke-linejoin="round"/>
<rect x="144" y="48" width="24" height="24" fill="white"/>
<path d="M161 68H166V66C166 64.3431 164.657 63 163 63C162.044 63 161.193 63.4468 160.644 64.1429M161 68H151M161 68V66C161 65.3438 160.874 64.717 160.644 64.1429M151 68H146V66C146 64.3431 147.343 63 149 63C149.956 63 150.807 63.4468 151.356 64.1429M151 68V66C151 65.3438 151.126 64.717 151.356 64.1429M151.356 64.1429C152.094 62.301 153.895 61 156 61C158.105 61 159.906 62.301 160.644 64.1429M159 55C159 56.6569 157.657 58 156 58C154.343 58 153 56.6569 153 55C153 53.3431 154.343 52 156 52C157.657 52 159 53.3431 159 55ZM165 58C165 59.1046 164.105 60 163 60C161.895 60 161 59.1046 161 58C161 56.8954 161.895 56 163 56C164.105 56 165 56.8954 165 58ZM151 58C151 59.1046 150.105 60 149 60C147.895 60 147 59.1046 147 58C147 56.8954 147.895 56 149 56C150.105 56 151 56.8954 151 58Z" stroke="#252F3F" stroke-width="2" stroke-linecap="round" stroke-linejoin="round"/>
<rect x="144" y="96" width="24" height="24" fill="white"/>
<path d="M149 104H163M149 104C147.895 104 147 103.105 147 102C147 100.895 147.895 100 149 100H163C164.105 100 165 100.895 165 102C165 103.105 164.105 104 163 104M149 104L149 114C149 115.105 149.895 116 151 116H161C162.105 116 163 115.105 163 114V104M154 108H158" stroke="#252F3F" stroke-width="2" stroke-linecap="round" stroke-linejoin="round"/>
<rect x="144" y="144" width="24" height="24" fill="white"/>
<path d="M148 150H164M148 156H164M157 162H164" stroke="#252F3F" stroke-width="2" stroke-linecap="round" stroke-linejoin="round"/>
<rect x="144" y="192" width="24" height="24" fill="white"/>
<path d="M152 208C149.239 208 147 205.761 147 203C147 200.552 148.76 198.514 151.084 198.084C151.514 195.76 153.552 194 156 194C158.448 194 160.486 195.76 160.916 198.084C163.24 198.514 165 200.552 165 203C165 205.761 162.761 208 160 208M153 211L156 214M156 214L159 211M156 214V202" stroke="#252F3F" stroke-width="2" stroke-linecap="round" stroke-linejoin="round"/>
<rect x="144" y="240" width="24" height="24" fill="white"/>
<path d="M152.684 253.342C152.886 252.938 153 252.482 153 252C153 251.518 152.886 251.062 152.684 250.658M152.684 253.342C152.191 254.325 151.174 255 150 255C148.343 255 147 253.657 147 252C147 250.343 148.343 249 150 249C151.174 249 152.191 249.675 152.684 250.658M152.684 253.342L159.316 256.658M152.684 250.658L159.316 247.342M159.316 247.342C159.809 248.325 160.826 249 162 249C163.657 249 165 247.657 165 246C165 244.343 163.657 243 162 243C160.343 243 159 244.343 159 246C159 246.482 159.114 246.938 159.316 247.342ZM159.316 256.658C159.114 257.062 159 257.518 159 258C159 259.657 160.343 261 162 261C163.657 261 165 259.657 165 258C165 256.343 163.657 255 162 255C160.826 255 159.809 255.675 159.316 256.658Z" stroke="#252F3F" stroke-width="2" stroke-linecap="round" stroke-linejoin="round"/>
<rect x="144" y="288" width="24" height="24" fill="white"/>
<path d="M160 299V300H161V299H160ZM152 299H151V300H152V299ZM157 303C157 302.448 156.552 302 156 302C155.448 302 155 302.448 155 303H157ZM155 305C155 305.552 155.448 306 156 306C156.552 306 157 305.552 157 305H155ZM150 300H162V298H150V300ZM163 301V307H165V301H163ZM162 308H150V310H162V308ZM149 307V301H147V307H149ZM150 308C149.448 308 149 307.552 149 307H147C147 308.657 148.343 310 150 310V308ZM163 307C163 307.552 162.552 308 162 308V310C163.657 310 165 308.657 165 307H163ZM162 300C162.552 300 163 300.448 163 301H165C165 299.343 163.657 298 162 298V300ZM150 298C148.343 298 147 299.343 147 301H149C149 300.448 149.448 300 150 300V298ZM159 295V299H161V295H159ZM160 298H152V300H160V298ZM153 299V295H151V299H153ZM156 292C157.657 292 159 293.343 159 295H161C161 292.239 158.761 290 156 290V292ZM156 290C153.239 290 151 292.239 151 295H153C153 293.343 154.343 292 156 292V290ZM155 303V305H157V303H155Z" fill="#252F3F"/>
<rect x="144" y="336" width="24" height="24" fill="white"/>
<path d="M154 355L147 348M147 348L154 341M147 348L165 348" stroke="#252F3F" stroke-width="2" stroke-linecap="round" stroke-linejoin="round"/>
<rect x="144" y="384" width="24" height="24" fill="white"/>
<path d="M156 393V396M156 396V399M156 396H159M156 396H153M165 396C165 400.971 160.971 405 156 405C151.029 405 147 400.971 147 396C147 391.029 151.029 387 156 387C160.971 387 165 391.029 165 396Z" stroke="#252F3F" stroke-width="2" stroke-linecap="round" stroke-linejoin="round"/>
<rect x="144" y="432" width="24" height="24" fill="white"/>
<path d="M148 448L148 449C148 450.657 149.343 452 151 452L161 452C162.657 452 164 450.657 164 449L164 448M160 444L156 448M156 448L152 444M156 448L156 436" stroke="#252F3F" stroke-width="2" stroke-linecap="round" stroke-linejoin="round"/>
<rect x="144" y="480" width="24" height="24" fill="white"/>
<path d="M159 489C159 487.895 158.105 487 157 487C155.895 487 155 487.895 155 489V494C155 495.105 154.105 496 153 496H159M153 492H157M165 492C165 496.971 160.971 501 156 501C151.029 501 147 496.971 147 492C147 487.029 151.029 483 156 483C160.971 483 165 487.029 165 492Z" stroke="#252F3F" stroke-width="2" stroke-linecap="round" stroke-linejoin="round"/>
<rect x="144" y="528" width="24" height="24" fill="white"/>
<path d="M152 539V535C152 532.791 153.791 531 156 531C158.209 531 160 532.791 160 535M156 543V545M150 549H162C163.105 549 164 548.105 164 547V541C164 539.895 163.105 539 162 539H150C148.895 539 148 539.895 148 541V547C148 548.105 148.895 549 150 549Z" stroke="#252F3F" stroke-width="2" stroke-linecap="round"/>
<rect x="144" y="576" width="24" height="24" fill="white"/>
<path d="M152 581H150C148.895 581 148 581.895 148 583V595C148 596.105 148.895 597 150 597H160C161.105 597 162 596.105 162 595V594M152 581C152 582.105 152.895 583 154 583H156C157.105 583 158 582.105 158 581M152 581C152 579.895 152.895 579 154 579H156C157.105 579 158 579.895 158 581M158 581H160C161.105 581 162 581.895 162 583V586M164 590H154M154 590L157 587M154 590L157 593" stroke="#252F3F" stroke-width="2" stroke-linecap="round" stroke-linejoin="round"/>
<rect x="144" y="624" width="24" height="24" fill="white"/>
<path d="M152 631L156 627M156 627L160 631M156 627V645" stroke="#252F3F" stroke-width="2" stroke-linecap="round" stroke-linejoin="round"/>
<rect x="192" width="24" height="24" fill="white"/>
<path d="M201 12L203 14L207 10M212.618 5.98434C212.413 5.99472 212.207 5.99997 212 5.99997C208.927 5.99997 206.123 4.84453 204 2.94434C201.877 4.84446 199.073 5.99985 196 5.99985C195.793 5.99985 195.587 5.9946 195.382 5.98422C195.133 6.94783 195 7.95842 195 9.00001C195 14.5915 198.824 19.2898 204 20.622C209.176 19.2898 213 14.5915 213 9.00001C213 7.95847 212.867 6.94791 212.618 5.98434Z" stroke="#252F3F" stroke-width="2" stroke-linecap="round" stroke-linejoin="round"/>
<rect x="192" y="48" width="24" height="24" fill="white"/>
<path d="M211 69V53C211 51.8954 210.105 51 209 51H199C197.895 51 197 51.8954 197 53V69M211 69L213 69M211 69H206M197 69L195 69M197 69H202M201 55H202M201 59H202M206 55H207M206 59H207M202 69V64C202 63.4477 202.448 63 203 63H205C205.552 63 206 63.4477 206 64V69M202 69H206" stroke="#252F3F" stroke-width="2" stroke-linecap="round" stroke-linejoin="round"/>
<rect x="192" y="96" width="24" height="24" fill="white"/>
<path d="M204 104V108L207 111M213 108C213 112.971 208.971 117 204 117C199.029 117 195 112.971 195 108C195 103.029 199.029 99 204 99C208.971 99 213 103.029 213 108Z" stroke="#252F3F" stroke-width="2" stroke-linecap="round" stroke-linejoin="round"/>
<rect x="192" y="144" width="24" height="24" fill="white"/>
<path d="M196 152H212M196 160H212" stroke="#252F3F" stroke-width="2" stroke-linecap="round" stroke-linejoin="round"/>
<rect x="192" y="192" width="24" height="24" fill="white"/>
<path d="M203 195.055C198.5 195.552 195 199.367 195 204C195 208.971 199.029 213 204 213C208.633 213 212.448 209.5 212.945 205H203V195.055Z" stroke="#252F3F" stroke-width="2" stroke-linecap="round" stroke-linejoin="round"/>
<path d="M212.488 201H207V195.512C209.557 196.416 211.584 198.443 212.488 201Z" stroke="#252F3F" stroke-width="2" stroke-linecap="round" stroke-linejoin="round"/>
<rect x="192" y="240" width="24" height="24" fill="white"/>
<path d="M196.318 246.318C194.561 248.075 194.561 250.925 196.318 252.682L204 260.364L211.682 252.682C213.439 250.925 213.439 248.075 211.682 246.318C209.925 244.561 207.075 244.561 205.318 246.318L204 247.636L202.682 246.318C200.925 244.561 198.075 244.561 196.318 246.318Z" stroke="#252F3F" stroke-width="2" stroke-linecap="round" stroke-linejoin="round"/>
<rect x="192" y="288" width="24" height="24" fill="white"/>
<path d="M205 295H213M213 295V303M213 295L205 303L201 299L195 305" stroke="#252F3F" stroke-width="2" stroke-linecap="round" stroke-linejoin="round"/>
<rect x="192" y="336" width="24" height="24" fill="white"/>
<path d="M205 345L208 348M208 348L205 351M208 348L200 348M213 348C213 352.971 208.971 357 204 357C199.029 357 195 352.971 195 348C195 343.029 199.029 339 204 339C208.971 339 213 343.029 213 348Z" stroke="#252F3F" stroke-width="2" stroke-linecap="round" stroke-linejoin="round"/>
<rect x="192" y="384" width="24" height="24" fill="white"/>
<path d="M207 396H201M213 396C213 400.971 208.971 405 204 405C199.029 405 195 400.971 195 396C195 391.029 199.029 387 204 387C208.971 387 213 391.029 213 396Z" stroke="#252F3F" stroke-width="2" stroke-linecap="round" stroke-linejoin="round"/>
<rect x="192" y="432" width="24" height="24" fill="white"/>
<path d="M196 438H212M196 442H212M196 446H212M196 450H212" stroke="#252F3F" stroke-width="2" stroke-linecap="round" stroke-linejoin="round"/>
<rect x="192" y="480" width="24" height="24" fill="white"/>
<path d="M201 488H207M202 488C203.657 488 205 489.343 205 491C205 492.657 203.657 494 202 494H201L204 497M201 491H207M213 492C213 496.971 208.971 501 204 501C199.029 501 195 496.971 195 492C195 487.029 199.029 483 204 483C208.971 483 213 487.029 213 492Z" stroke="#252F3F" stroke-width="2" stroke-linecap="round" stroke-linejoin="round"/>
<rect x="192" y="528" width="24" height="24" fill="white"/>
<path d="M200 540H200.01M204 540H204.01M208 540H208.01M213 540C213 544.971 208.971 549 204 549C199.029 549 195 544.971 195 540C195 535.029 199.029 531 204 531C208.971 531 213 535.029 213 540Z" stroke="#252F3F" stroke-width="2" stroke-linecap="round" stroke-linejoin="round"/>
<rect x="192" y="576" width="24" height="24" fill="white"/>
<path d="M199 584H209M199 588H203M204 596L200 592H197C195.895 592 195 591.105 195 590V582C195 580.895 195.895 580 197 580H211C212.105 580 213 580.895 213 582V590C213 591.105 212.105 592 211 592H208L204 596Z" stroke="#252F3F" stroke-width="2" stroke-linecap="round" stroke-linejoin="round"/>
<rect x="192" y="624" width="24" height="24" fill="white"/>
<path d="M209 632L213 636M213 636L209 640M213 636L195 636" stroke="#252F3F" stroke-width="2" stroke-linecap="round" stroke-linejoin="round"/>
<rect x="240" width="24" height="24" fill="white"/>
<path d="M260.618 5.98434C260.413 5.99472 260.207 5.99997 260 5.99997C256.927 5.99997 254.123 4.84453 252 2.94434C249.877 4.84446 247.073 5.99985 244 5.99985C243.793 5.99985 243.587 5.9946 243.382 5.98422C243.133 6.94783 243 7.95842 243 9.00001C243 14.5915 246.824 19.2898 252 20.622C257.176 19.2898 261 14.5915 261 9.00001C261 7.95847 260.867 6.94791 260.618 5.98434Z" stroke="#252F3F" stroke-width="2" stroke-linecap="round" stroke-linejoin="round"/>
<path d="M252 9V11M252 15H252.01" stroke="#252F3F" stroke-width="2" stroke-linecap="round" stroke-linejoin="round"/>
<rect x="240" y="48" width="24" height="24" fill="white"/>
<path d="M243 54L246 55M246 55L243 64C244.773 65.3334 247.229 65.3334 249.001 64M246 55L249 64M246 55L252 53M258 55L261 54M258 55L255 64C256.773 65.3334 259.229 65.3334 261.001 64M258 55L261 64M258 55L252 53M252 51V53M252 69V53M252 69H249M252 69H255" stroke="#252F3F" stroke-width="2" stroke-linecap="round" stroke-linejoin="round"/>
<rect x="240" y="96" width="24" height="24" fill="white"/>
<path d="M244 112L248.586 107.414C249.367 106.633 250.633 106.633 251.414 107.414L256 112M254 110L255.586 108.414C256.367 107.633 257.633 107.633 258.414 108.414L260 110M254 104H254.01M246 116H258C259.105 116 260 115.105 260 114V102C260 100.895 259.105 100 258 100H246C244.895 100 244 100.895 244 102V114C244 115.105 244.895 116 246 116Z" stroke="#252F3F" stroke-width="2" stroke-linecap="round" stroke-linejoin="round"/>
<rect x="240" y="144" width="24" height="24" fill="white"/>
<path d="M247 160V148M247 148L243 152M247 148L251 152M257 152V164M257 164L261 160M257 164L253 160" stroke="#252F3F" stroke-width="2" stroke-linecap="round" stroke-linejoin="round"/>
<rect x="240" y="192" width="24" height="24" fill="white"/>
<path d="M247 213H257C258.105 213 259 212.105 259 211V201.414C259 201.149 258.895 200.895 258.707 200.707L253.293 195.293C253.105 195.105 252.851 195 252.586 195H247C245.895 195 245 195.895 245 197V211C245 212.105 245.895 213 247 213Z" stroke="#252F3F" stroke-width="2" stroke-linecap="round" stroke-linejoin="round"/>
<rect x="240" y="240" width="24" height="24" fill="white"/>
<path d="M243.055 251H245C246.105 251 247 251.895 247 253V254C247 255.105 247.895 256 249 256C250.105 256 251 256.895 251 258V260.945M248 243.936V245.5C248 246.881 249.119 248 250.5 248H251C252.105 248 253 248.895 253 250C253 251.105 253.895 252 255 252C256.105 252 257 251.105 257 250C257 248.895 257.895 248 259 248L260.064 248M255 260.488V258C255 256.895 255.895 256 257 256H260.064M261 252C261 256.971 256.971 261 252 261C247.029 261 243 256.971 243 252C243 247.029 247.029 243 252 243C256.971 243 261 247.029 261 252Z" stroke="#252F3F" stroke-width="2" stroke-linecap="round" stroke-linejoin="round"/>
<rect x="240" y="288" width="24" height="24" fill="white"/>
<path d="M253 305H261M261 305V297M261 305L253 297L249 301L243 295" stroke="#252F3F" stroke-width="2" stroke-linecap="round" stroke-linejoin="round"/>
<rect x="240" y="336" width="24" height="24" fill="white"/>
<path d="M255 349L252 352M252 352L249 349M252 352L252 344M252 357C247.029 357 243 352.971 243 348C243 343.029 247.029 339 252 339C256.971 339 261 343.029 261 348C261 352.971 256.971 357 252 357Z" stroke="#252F3F" stroke-width="2" stroke-linecap="round" stroke-linejoin="round"/>
<rect x="240" y="384" width="24" height="24" fill="white"/>
<path d="M245.121 401.804C247.153 400.655 249.5 400 252 400C254.5 400 256.847 400.655 258.879 401.804M255 394C255 395.657 253.657 397 252 397C250.343 397 249 395.657 249 394C249 392.343 250.343 391 252 391C253.657 391 255 392.343 255 394ZM261 396C261 400.971 256.971 405 252 405C247.029 405 243 400.971 243 396C243 391.029 247.029 387 252 387C256.971 387 261 391.029 261 396Z" stroke="#252F3F" stroke-width="2" stroke-linecap="round" stroke-linejoin="round"/>
<rect x="240" y="432" width="24" height="24" fill="white"/>
<path d="M249 449V439M249 449C249 450.105 248.105 451 247 451H245C243.895 451 243 450.105 243 449V439C243 437.895 243.895 437 245 437H247C248.105 437 249 437.895 249 439M249 449C249 450.105 249.895 451 251 451H253C254.105 451 255 450.105 255 449M249 439C249 437.895 249.895 437 251 437H253C254.105 437 255 437.895 255 439M255 449V439M255 449C255 450.105 255.895 451 257 451H259C260.105 451 261 450.105 261 449V439C261 437.895 260.105 437 259 437H257C255.895 437 255 437.895 255 439" stroke="#252F3F" stroke-width="2" stroke-linecap="round" stroke-linejoin="round"/>
<rect x="240" y="480" width="24" height="24" fill="white"/>
<path d="M259 489L252 496L245 489" stroke="#252F3F" stroke-width="2" stroke-linecap="round" stroke-linejoin="round"/>
<rect x="240" y="528" width="24" height="24" fill="white"/>
<path d="M247 548L251 532M253 548L257 532M246 537H260M244 543H258" stroke="#252F3F" stroke-width="2" stroke-linecap="round" stroke-linejoin="round"/>
<rect x="240" y="576" width="24" height="24" fill="white"/>
<path d="M243 597V593M243 593V581C243 579.895 243.895 579 245 579H251.5L252.5 580H261L258 586L261 592H252.5L251.5 591H245C243.895 591 243 591.895 243 593ZM252 579.5V585" stroke="#252F3F" stroke-width="2" stroke-linecap="round" stroke-linejoin="round"/>
<rect x="240" y="624" width="24" height="24" fill="white"/>
<path d="M256 641L252 645M252 645L248 641M252 645L252 627" stroke="#252F3F" stroke-width="2" stroke-linecap="round" stroke-linejoin="round"/>
<rect x="288" width="24" height="24" fill="white"/>
<path d="M298.325 4.31731C298.751 2.5609 301.249 2.5609 301.675 4.31731C301.951 5.45193 303.251 5.99038 304.248 5.38285C305.791 4.44239 307.558 6.2087 306.617 7.75218C306.01 8.74925 306.548 10.0492 307.683 10.3246C309.439 10.751 309.439 13.249 307.683 13.6754C306.548 13.9508 306.01 15.2507 306.617 16.2478C307.558 17.7913 305.791 19.5576 304.248 18.6172C303.251 18.0096 301.951 18.5481 301.675 19.6827C301.249 21.4391 298.751 21.4391 298.325 19.6827C298.049 18.5481 296.749 18.0096 295.752 18.6172C294.209 19.5576 292.442 17.7913 293.383 16.2478C293.99 15.2507 293.452 13.9508 292.317 13.6754C290.561 13.249 290.561 10.751 292.317 10.3246C293.452 10.0492 293.99 8.74926 293.383 7.75218C292.442 6.2087 294.209 4.44239 295.752 5.38285C296.749 5.99037 298.049 5.45193 298.325 4.31731Z" stroke="#252F3F" stroke-width="2" stroke-linecap="round" stroke-linejoin="round"/>
<path d="M303 12C303 13.6569 301.657 15 300 15C298.343 15 297 13.6569 297 12C297 10.3431 298.343 9 300 9C301.657 9 303 10.3431 303 12Z" stroke="#252F3F" stroke-width="2" stroke-linecap="round" stroke-linejoin="round"/>
<rect x="288" y="48" width="24" height="24" fill="white"/>
<path d="M299 53H294C292.895 53 292 53.8954 292 55V66C292 67.1046 292.895 68 294 68H305C306.105 68 307 67.1046 307 66V61M305.586 51.5858C306.367 50.8047 307.633 50.8047 308.414 51.5858C309.195 52.3668 309.195 53.6332 308.414 54.4142L299.828 63H297L297 60.1716L305.586 51.5858Z" stroke="#252F3F" stroke-width="2" stroke-linecap="round" stroke-linejoin="round"/>
<rect x="288" y="96" width="24" height="24" fill="white"/>
<path d="M295 103H295.01M295 99H300C300.512 99 301.024 99.1952 301.414 99.5858L308.414 106.586C309.195 107.367 309.195 108.633 308.414 109.414L301.414 116.414C300.633 117.195 299.367 117.195 298.586 116.414L291.586 109.414C291.195 109.024 291 108.512 291 108V103C291 100.791 292.791 99 295 99Z" stroke="#252F3F" stroke-width="2" stroke-linecap="round" stroke-linejoin="round"/>
<rect x="288" y="144" width="24" height="24" fill="white"/>
<path d="M296 151L308 151M308 151L304 147M308 151L304 155M304 161L292 161M292 161L296 165M292 161L296 157" stroke="#252F3F" stroke-width="2" stroke-linecap="round" stroke-linejoin="round"/>
<rect x="288" y="192" width="24" height="24" fill="white"/>
<path d="M300 202V208M300 208L297 205M300 208L303 205M305 213H295C293.895 213 293 212.105 293 211V197C293 195.895 293.895 195 295 195H300.586C300.851 195 301.105 195.105 301.293 195.293L306.707 200.707C306.895 200.895 307 201.149 307 201.414V211C307 212.105 306.105 213 305 213Z" stroke="#252F3F" stroke-width="2" stroke-linecap="round" stroke-linejoin="round"/>
<rect x="288" y="240" width="24" height="24" fill="white"/>
<path d="M303.536 248.464C305.488 250.417 305.488 253.583 303.536 255.536M306.364 245.636C309.879 249.151 309.879 254.849 306.364 258.364M293.586 255H292C291.448 255 291 254.552 291 254V250C291 249.448 291.448 249 292 249H293.586L298.293 244.293C298.923 243.663 300 244.109 300 245V259C300 259.891 298.923 260.337 298.293 259.707L293.586 255Z" stroke="#252F3F" stroke-width="2" stroke-linecap="round" stroke-linejoin="round"/>
<rect x="288" y="288" width="24" height="24" fill="white"/>
<path d="M291 292C291 291.448 291.448 291 292 291H308C308.552 291 309 291.448 309 292V294.586C309 294.851 308.895 295.105 308.707 295.293L302.293 301.707C302.105 301.895 302 302.149 302 302.414V305L298 309V302.414C298 302.149 297.895 301.895 297.707 301.707L291.293 295.293C291.105 295.105 291 294.851 291 294.586V292Z" stroke="#252F3F" stroke-width="2" stroke-linecap="round" stroke-linejoin="round"/>
<rect x="288" y="336" width="24" height="24" fill="white"/>
<path d="M299 351L296 348M296 348L299 345M296 348L304 348M291 348C291 343.029 295.029 339 300 339C304.971 339 309 343.029 309 348C309 352.971 304.971 357 300 357C295.029 357 291 352.971 291 348Z" stroke="#252F3F" stroke-width="2" stroke-linecap="round" stroke-linejoin="round"/>
<rect x="288" y="384" width="24" height="24" fill="white"/>
<path d="M309 405L303 399M305 394C305 397.866 301.866 401 298 401C294.134 401 291 397.866 291 394C291 390.134 294.134 387 298 387C301.866 387 305 390.134 305 394Z" stroke="#252F3F" stroke-width="2" stroke-linecap="round" stroke-linejoin="round"/>
<path d="M298 391V394M298 394V397M298 394H301M298 394H295" stroke="#252F3F" stroke-width="2" stroke-linecap="round" stroke-linejoin="round"/>
<rect x="288" y="432" width="24" height="24" fill="white"/>
<path d="M303.172 439L296.586 445.586C295.805 446.367 295.805 447.633 296.586 448.414C297.367 449.195 298.633 449.195 299.414 448.414L305.828 441.828C307.391 440.266 307.391 437.734 305.828 436.172C304.266 434.609 301.734 434.609 300.172 436.172L293.757 442.757C291.414 445.101 291.414 448.899 293.757 451.243C296.101 453.586 299.899 453.586 302.243 451.243L308.5 445" stroke="#252F3F" stroke-width="2" stroke-linecap="round" stroke-linejoin="round"/>
<rect x="288" y="480" width="24" height="24" fill="white"/>
<path d="M297 485L304 492L297 499" stroke="#252F3F" stroke-width="2" stroke-linecap="round" stroke-linejoin="round"/>
<rect x="288" y="528" width="24" height="24" fill="white"/>
<path d="M301 532C301 531.448 300.552 531 300 531C299.448 531 299 531.448 299 532H301ZM299 533C299 533.552 299.448 534 300 534C300.552 534 301 533.552 301 533H299ZM306 543C305.448 543 305 543.448 305 544C305 544.552 305.448 545 306 545V543ZM308 545C308.552 545 309 544.552 309 544C309 543.448 308.552 543 308 543V545ZM300 544V543C299.448 543 299 543.448 299 544H300ZM302 545C302.552 545 303 544.552 303 544C303 543.448 302.552 543 302 543V545ZM299 548C299 548.552 299.448 549 300 549C300.552 549 301 548.552 301 548H299ZM301 537C301 536.448 300.552 536 300 536C299.448 536 299 536.448 299 537H301ZM300 540H299C299 540.552 299.448 541 300 541V540ZM304 547C303.448 547 303 547.448 303 548C303 548.552 303.448 549 304 549V547ZM308 549C308.552 549 309 548.552 309 548C309 547.448 308.552 547 308 547V549ZM292 539C291.448 539 291 539.448 291 540C291 540.552 291.448 541 292 541V539ZM296 541C296.552 541 297 540.552 297 540C297 539.448 296.552 539 296 539V541ZM300.01 541C300.562 541 301.01 540.552 301.01 540C301.01 539.448 300.562 539 300.01 539V541ZM304.01 541C304.562 541 305.01 540.552 305.01 540C305.01 539.448 304.562 539 304.01 539V541ZM308 539C307.448 539 307 539.448 307 540C307 540.552 307.448 541 308 541V539ZM308.01 541C308.562 541 309.01 540.552 309.01 540C309.01 539.448 308.562 539 308.01 539V541ZM293 533H295V531H293V533ZM295 533V535H297V533H295ZM295 535H293V537H295V535ZM293 535V533H291V535H293ZM293 535H291C291 536.105 291.895 537 293 537V535ZM295 535V537C296.105 537 297 536.105 297 535H295ZM295 533H297C297 531.895 296.105 531 295 531V533ZM293 531C291.895 531 291 531.895 291 533H293V531ZM305 533H307V531H305V533ZM307 533V535H309V533H307ZM307 535H305V537H307V535ZM305 535V533H303V535H305ZM305 535H303C303 536.105 303.895 537 305 537V535ZM307 535V537C308.105 537 309 536.105 309 535H307ZM307 533H309C309 531.895 308.105 531 307 531V533ZM305 531C303.895 531 303 531.895 303 533H305V531ZM293 545H295V543H293V545ZM295 545V547H297V545H295ZM295 547H293V549H295V547ZM293 547V545H291V547H293ZM293 547H291C291 548.105 291.895 549 293 549V547ZM295 547V549C296.105 549 297 548.105 297 547H295ZM295 545H297C297 543.895 296.105 543 295 543V545ZM293 543C291.895 543 291 543.895 291 545H293V543ZM299 532V533H301V532H299ZM306 545H308V543H306V545ZM300 545H302V543H300V545ZM299 544V548H301V544H299ZM299 537V540H301V537H299ZM304 549H308V547H304V549ZM292 541H296V539H292V541ZM300 541H300.01V539H300V541ZM308 541H308.01V539H308V541ZM300 541H304.01V539H300V541Z" fill="#252F3F"/>
<rect x="288" y="576" width="24" height="24" fill="white"/>
<path d="M307 587H293M307 587C308.105 587 309 587.895 309 589V595C309 596.105 308.105 597 307 597H293C291.895 597 291 596.105 291 595V589C291 587.895 291.895 587 293 587M307 587V585C307 583.895 306.105 583 305 583M293 587V585C293 583.895 293.895 583 295 583M295 583V581C295 579.895 295.895 579 297 579H303C304.105 579 305 579.895 305 581V583M295 583H305" stroke="#252F3F" stroke-width="2" stroke-linecap="round" stroke-linejoin="round"/>
<rect x="288" y="624" width="24" height="24" fill="white"/>
<path d="M295 640L291 636M291 636L295 632M291 636L309 636" stroke="#252F3F" stroke-width="2" stroke-linecap="round" stroke-linejoin="round"/>
<rect x="336" width="24" height="24" fill="white"/>
<path d="M341 13L345 17L355 7" stroke="#252F3F" stroke-width="2" stroke-linecap="round" stroke-linejoin="round"/>
<rect x="336" y="48" width="24" height="24" fill="white"/>
<path d="M356.268 51.7322L356.975 51.0251L356.975 51.0251L356.268 51.7322ZM342.5 69.0355V70.0355C342.765 70.0355 343.02 69.9301 343.207 69.7426L342.5 69.0355ZM339 69.0355H338C338 69.5878 338.448 70.0355 339 70.0355V69.0355ZM339 65.4644L338.293 64.7573C338.105 64.9448 338 65.1992 338 65.4644H339ZM353.439 52.4393C354.025 51.8536 354.975 51.8536 355.561 52.4393L356.975 51.0251C355.608 49.6583 353.392 49.6583 352.025 51.0251L353.439 52.4393ZM355.561 52.4393C356.146 53.0251 356.146 53.9749 355.561 54.5607L356.975 55.9749C358.342 54.608 358.342 52.392 356.975 51.0251L355.561 52.4393ZM355.561 54.5607L341.793 68.3284L343.207 69.7426L356.975 55.9749L355.561 54.5607ZM342.5 68.0355H339V70.0355H342.5V68.0355ZM352.025 51.0251L338.293 64.7573L339.707 66.1715L353.439 52.4393L352.025 51.0251ZM338 65.4644V69.0355H340V65.4644H338ZM350.525 53.9393L354.061 57.4749L355.475 56.0607L351.939 52.5251L350.525 53.9393Z" fill="#252F3F"/>
<rect x="336" y="96" width="24" height="24" fill="white"/>
<path d="M345.228 99.6838L344.279 100L344.279 100L345.228 99.6838ZM346.726 104.177L345.777 104.493L345.777 104.493L346.726 104.177ZM346.224 105.388L346.671 106.282L346.671 106.282L346.224 105.388ZM343.967 106.516L343.52 105.622C343.04 105.862 342.835 106.438 343.055 106.928L343.967 106.516ZM349.484 112.033L349.072 112.945C349.562 113.165 350.138 112.96 350.378 112.48L349.484 112.033ZM350.612 109.776L349.718 109.329L349.718 109.329L350.612 109.776ZM351.823 109.274L351.507 110.223L351.507 110.223L351.823 109.274ZM356.316 110.772L356.632 109.823L356.632 109.823L356.316 110.772ZM341 98C339.343 98 338 99.3431 338 101H340C340 100.448 340.448 100 341 100V98ZM344.279 98H341V100H344.279V98ZM346.177 99.3675C345.904 98.5509 345.14 98 344.279 98V100L344.279 100L346.177 99.3675ZM347.674 103.861L346.177 99.3675L344.279 100L345.777 104.493L347.674 103.861ZM346.671 106.282C347.562 105.837 347.989 104.805 347.674 103.861L345.777 104.493L345.777 104.493L346.671 106.282ZM344.414 107.411L346.671 106.282L345.777 104.493L343.52 105.622L344.414 107.411ZM349.895 111.121C347.672 110.119 345.881 108.328 344.879 106.105L343.055 106.928C344.258 109.595 346.405 111.742 349.072 112.945L349.895 111.121ZM349.718 109.329L348.589 111.586L350.378 112.48L351.507 110.223L349.718 109.329ZM352.139 108.326C351.195 108.011 350.163 108.438 349.718 109.329L351.507 110.223L351.507 110.223L352.139 108.326ZM356.632 109.823L352.139 108.326L351.507 110.223L356 111.721L356.632 109.823ZM358 111.721C358 110.86 357.449 110.096 356.632 109.823L356 111.721L356 111.721H358ZM358 115V111.721H356V115H358ZM355 118C356.657 118 358 116.657 358 115H356C356 115.552 355.552 116 355 116V118ZM354 118H355V116H354V118ZM338 102C338 110.837 345.163 118 354 118V116C346.268 116 340 109.732 340 102H338ZM338 101V102H340V101H338Z" fill="#252F3F"/>
<rect x="336" y="144" width="24" height="24" fill="white"/>
<path d="M342 162L354 150M342 150L354 162" stroke="#252F3F" stroke-width="2" stroke-linecap="round" stroke-linejoin="round"/>
<rect x="336" y="192" width="24" height="24" fill="white"/>
<path d="M345 205H351M348 202L348 208M353 213H343C341.895 213 341 212.105 341 211V197C341 195.895 341.895 195 343 195H348.586C348.851 195 349.105 195.105 349.293 195.293L354.707 200.707C354.895 200.895 355 201.149 355 201.414V211C355 212.105 354.105 213 353 213Z" stroke="#252F3F" stroke-width="2" stroke-linecap="round" stroke-linejoin="round"/>
<rect x="336" y="240" width="24" height="24" fill="white"/>
<path fill-rule="evenodd" clip-rule="evenodd" d="M341.586 255H340C339.448 255 339 254.552 339 254V250C339 249.448 339.448 249 340 249H341.586L346.293 244.293C346.923 243.663 348 244.109 348 245V259C348 259.891 346.923 260.337 346.293 259.707L341.586 255Z" stroke="#252F3F" stroke-width="2" stroke-linecap="round" stroke-linejoin="round"/>
<path d="M353 254L355 252M355 252L357 250M355 252L353 250M355 252L357 254" stroke="#252F3F" stroke-width="2" stroke-linecap="round" stroke-linejoin="round"/>
<rect x="336" y="288" width="24" height="24" fill="white"/>
<path d="M352 300C352 297.791 350.209 296 348 296C345.791 296 344 297.791 344 300C344 302.209 345.791 304 348 304C350.209 304 352 302.209 352 300ZM352 300V301.5C352 302.881 353.119 304 354.5 304C355.881 304 357 302.881 357 301.5V300C357 295.029 352.971 291 348 291C343.029 291 339 295.029 339 300C339 304.971 343.029 309 348 309M352.5 307.794C351.08 308.614 349.53 309.003 348 309.001" stroke="#252F3F" stroke-width="2" stroke-linecap="round" stroke-linejoin="round"/>
<rect x="336" y="336" width="24" height="24" fill="white"/>
<path d="M345 347L348 344M348 344L351 347M348 344L348 352M348 339C352.971 339 357 343.029 357 348C357 352.971 352.971 357 348 357C343.029 357 339 352.971 339 348C339 343.029 343.029 339 348 339Z" stroke="#252F3F" stroke-width="2" stroke-linecap="round" stroke-linejoin="round"/>
<rect x="336" y="384" width="24" height="24" fill="white"/>
<path d="M357 405L351 399M353 394C353 397.866 349.866 401 346 401C342.134 401 339 397.866 339 394C339 390.134 342.134 387 346 387C349.866 387 353 390.134 353 394Z" stroke="#252F3F" stroke-width="2" stroke-linecap="round" stroke-linejoin="round"/>
<path d="M349 394H343" stroke="#252F3F" stroke-width="2" stroke-linecap="round" stroke-linejoin="round"/>
<rect width="24" height="24" transform="matrix(-1 0 0 1 360 432)" fill="white"/>
<path d="M350.828 446.828C349.266 448.391 346.734 448.391 345.172 446.828M345 442H345.01M351 442H351.01M357 444C357 448.971 352.971 453 348 453C343.029 453 339 448.971 339 444C339 439.029 343.029 435 348 435C352.971 435 357 439.029 357 444Z" stroke="#252F3F" stroke-width="2" stroke-linecap="round" stroke-linejoin="round"/>
<rect x="336" y="480" width="24" height="24" fill="white"/>
<path d="M341 495L348 488L355 495" stroke="#252F3F" stroke-width="2" stroke-linecap="round" stroke-linejoin="round"/>
<rect x="336" y="528" width="24" height="24" fill="white"/>
<path d="M345.707 541.293C345.317 540.902 344.683 540.902 344.293 541.293C343.902 541.683 343.902 542.317 344.293 542.707L345.707 541.293ZM347 544L346.293 544.707C346.683 545.098 347.317 545.098 347.707 544.707L347 544ZM351.707 540.707C352.098 540.317 352.098 539.683 351.707 539.293C351.317 538.902 350.683 538.902 350.293 539.293L351.707 540.707ZM354 535V547H356V535H354ZM353 548H343V550H353V548ZM342 547V535H340V547H342ZM343 534H345V532H343V534ZM351 534H353V532H351V534ZM343 548C342.448 548 342 547.552 342 547H340C340 548.657 341.343 550 343 550V548ZM354 547C354 547.552 353.552 548 353 548V550C354.657 550 356 548.657 356 547H354ZM356 535C356 533.343 354.657 532 353 532V534C353.552 534 354 534.448 354 535H356ZM342 535C342 534.448 342.448 534 343 534V532C341.343 532 340 533.343 340 535H342ZM344.293 542.707L346.293 544.707L347.707 543.293L345.707 541.293L344.293 542.707ZM347.707 544.707L351.707 540.707L350.293 539.293L346.293 543.293L347.707 544.707ZM347 532H349V530H347V532ZM349 534H347V536H349V534ZM347 534C346.448 534 346 533.552 346 533H344C344 534.657 345.343 536 347 536V534ZM350 533C350 533.552 349.552 534 349 534V536C350.657 536 352 534.657 352 533H350ZM349 532C349.552 532 350 532.448 350 533H352C352 531.343 350.657 530 349 530V532ZM347 530C345.343 530 344 531.343 344 533H346C346 532.448 346.448 532 347 532V530Z" fill="#252F3F"/>
<rect x="336" y="576" width="24" height="24" fill="white"/>
<path d="M348 582.253V595.253M348 582.253C346.832 581.477 345.246 581 343.5 581C341.754 581 340.168 581.477 339 582.253V595.253C340.168 594.477 341.754 594 343.5 594C345.246 594 346.832 594.477 348 595.253M348 582.253C349.168 581.477 350.754 581 352.5 581C354.246 581 355.832 581.477 357 582.253V595.253C355.832 594.477 354.246 594 352.5 594C350.754 594 349.168 594.477 348 595.253" stroke="#252F3F" stroke-width="2" stroke-linecap="round" stroke-linejoin="round"/>
<rect x="336" y="624" width="24" height="24" fill="white"/>
<path d="M340 629C340 628.448 340.448 628 341 628H355C355.552 628 356 628.448 356 629V631C356 631.552 355.552 632 355 632H341C340.448 632 340 631.552 340 631V629Z" stroke="#252F3F" stroke-width="2" stroke-linecap="round" stroke-linejoin="round"/>
<path d="M340 637C340 636.448 340.448 636 341 636H347C347.552 636 348 636.448 348 637V643C348 643.552 347.552 644 347 644H341C340.448 644 340 643.552 340 643V637Z" stroke="#252F3F" stroke-width="2" stroke-linecap="round" stroke-linejoin="round"/>
<path d="M352 637C352 636.448 352.448 636 353 636H355C355.552 636 356 636.448 356 637V643C356 643.552 355.552 644 355 644H353C352.448 644 352 643.552 352 643V637Z" stroke="#252F3F" stroke-width="2" stroke-linecap="round" stroke-linejoin="round"/>
<rect x="384" width="24" height="24" fill="white"/>
<path d="M387 5H399M393 3V5M394.048 14.5C392.521 12.9178 391.281 11.0565 390.412 9M396.5 18H403.5M395 21L400 11L405 21M396.751 5C395.783 10.7702 392.07 15.6095 387 18.129" stroke="#252F3F" stroke-width="2" stroke-linecap="round" stroke-linejoin="round"/>
<rect x="384" y="48" width="24" height="24" fill="white"/>
<path d="M399 60C399 61.6569 397.657 63 396 63C394.343 63 393 61.6569 393 60C393 58.3431 394.343 57 396 57C397.657 57 399 58.3431 399 60Z" stroke="#252F3F" stroke-width="2" stroke-linecap="round" stroke-linejoin="round"/>
<path d="M386.458 60C387.733 55.9429 391.523 53 396 53C400.478 53 404.268 55.9429 405.543 60C404.268 64.0571 400.478 67 396 67C391.523 67 387.733 64.0571 386.458 60Z" stroke="#252F3F" stroke-width="2" stroke-linecap="round" stroke-linejoin="round"/>
<rect x="384" y="96" width="24" height="24" fill="white"/>
<path d="M400 99H405M405 99V104M405 99L399 105M389 99C387.895 99 387 99.8954 387 101V102C387 110.284 393.716 117 402 117H403C404.105 117 405 116.105 405 115V111.721C405 111.29 404.725 110.908 404.316 110.772L399.823 109.274C399.351 109.117 398.835 109.331 398.612 109.776L397.484 112.033C395.039 110.931 393.069 108.961 391.967 106.516L394.224 105.388C394.669 105.165 394.883 104.649 394.726 104.177L393.228 99.6838C393.092 99.2754 392.71 99 392.279 99H389Z" stroke="#252F3F" stroke-width="2" stroke-linecap="round" stroke-linejoin="round"/>
<rect x="384" y="144" width="24" height="24" fill="white"/>
<path d="M396 148V164M404 156L388 156" stroke="#252F3F" stroke-width="2" stroke-linecap="round" stroke-linejoin="round"/>
<rect x="384" y="192" width="24" height="24" fill="white"/>
<path d="M393 205H399M401 213H391C389.895 213 389 212.105 389 211V197C389 195.895 389.895 195 391 195H396.586C396.851 195 397.105 195.105 397.293 195.293L402.707 200.707C402.895 200.895 403 201.149 403 201.414V211C403 212.105 402.105 213 401 213Z" stroke="#252F3F" stroke-width="2" stroke-linecap="round" stroke-linejoin="round"/>
<rect x="384" y="240" width="24" height="24" fill="white"/>
<path d="M396 246V244M396 246C394.895 246 394 246.895 394 248C394 249.105 394.895 250 396 250M396 246C397.105 246 398 246.895 398 248C398 249.105 397.105 250 396 250M390 258C391.105 258 392 257.105 392 256C392 254.895 391.105 254 390 254M390 258C388.895 258 388 257.105 388 256C388 254.895 388.895 254 390 254M390 258V260M390 254V244M396 250V260M402 258C403.105 258 404 257.105 404 256C404 254.895 403.105 254 402 254M402 258C400.895 258 400 257.105 400 256C400 254.895 400.895 254 402 254M402 258V260M402 254V244" stroke="#252F3F" stroke-width="2" stroke-linecap="round" stroke-linejoin="round"/>
<rect x="384" y="288" width="24" height="24" fill="white"/>
<path d="M403 295L402.133 307.142C402.058 308.189 401.187 309 400.138 309H391.862C390.813 309 389.942 308.189 389.867 307.142L389 295M394 299V305M398 299V305M399 295V292C399 291.448 398.552 291 398 291H394C393.448 291 393 291.448 393 292V295M388 295H404" stroke="#252F3F" stroke-width="2" stroke-linecap="round" stroke-linejoin="round"/>
<rect x="384" y="336" width="24" height="24" fill="white"/>
<path d="M387 340H400M387 344H396M387 348H393M397 348L401 344M401 344L405 348M401 344V356" stroke="#252F3F" stroke-width="2" stroke-linecap="round" stroke-linejoin="round"/>
<rect x="384" y="384" width="24" height="24" fill="white"/>
<path d="M405 405L399 399M401 394C401 397.866 397.866 401 394 401C390.134 401 387 397.866 387 394C387 390.134 390.134 387 394 387C397.866 387 401 390.134 401 394Z" stroke="#252F3F" stroke-width="2" stroke-linecap="round" stroke-linejoin="round"/>
<rect width="24" height="24" transform="matrix(-1 0 0 1 408 432)" fill="white"/>
<path d="M393.172 448.172C394.734 446.61 397.266 446.61 398.828 448.172M393 442H393.01M399 442H399.01M405 444C405 448.971 400.971 453 396 453C391.029 453 387 448.971 387 444C387 439.029 391.029 435 396 435C400.971 435 405 439.029 405 444Z" stroke="#252F3F" stroke-width="2" stroke-linecap="round" stroke-linejoin="round"/>
<rect x="384" y="480" width="24" height="24" fill="white"/>
<path d="M399 499L392 492L399 485" stroke="#252F3F" stroke-width="2" stroke-linecap="round" stroke-linejoin="round"/>
<rect x="384" y="528" width="24" height="24" fill="white"/>
<path d="M396 539C395.448 539 395 539.448 395 540C395 540.552 395.448 541 396 541V539ZM399 541C399.552 541 400 540.552 400 540C400 539.448 399.552 539 399 539V541ZM396 543C395.448 543 395 543.448 395 544C395 544.552 395.448 545 396 545V543ZM399 545C399.552 545 400 544.552 400 544C400 543.448 399.552 543 399 543V545ZM393 539C392.448 539 392 539.448 392 540C392 540.552 392.448 541 393 541V539ZM393.01 541C393.562 541 394.01 540.552 394.01 540C394.01 539.448 393.562 539 393.01 539V541ZM393 543C392.448 543 392 543.448 392 544C392 544.552 392.448 545 393 545V543ZM393.01 545C393.562 545 394.01 544.552 394.01 544C394.01 543.448 393.562 543 393.01 543V545ZM402 535V547H404V535H402ZM401 548H391V550H401V548ZM390 547V535H388V547H390ZM391 534H393V532H391V534ZM399 534H401V532H399V534ZM391 548C390.448 548 390 547.552 390 547H388C388 548.657 389.343 550 391 550V548ZM402 547C402 547.552 401.552 548 401 548V550C402.657 550 404 548.657 404 547H402ZM404 535C404 533.343 402.657 532 401 532V534C401.552 534 402 534.448 402 535H404ZM390 535C390 534.448 390.448 534 391 534V532C389.343 532 388 533.343 388 535H390ZM396 541H399V539H396V541ZM396 545H399V543H396V545ZM395 532H397V530H395V532ZM397 534H395V536H397V534ZM395 534C394.448 534 394 533.552 394 533H392C392 534.657 393.343 536 395 536V534ZM398 533C398 533.552 397.552 534 397 534V536C398.657 536 400 534.657 400 533H398ZM397 532C397.552 532 398 532.448 398 533H400C400 531.343 398.657 530 397 530V532ZM395 530C393.343 530 392 531.343 392 533H394C394 532.448 394.448 532 395 532V530ZM393 541H393.01V539H393V541ZM393 545H393.01V543H393V545Z" fill="#252F3F"/>
<rect x="384" y="576" width="24" height="24" fill="white"/>
<path d="M394 596L398 580M402 584L406 588L402 592M390 592L386 588L390 584" stroke="#252F3F" stroke-width="2" stroke-linecap="round" stroke-linejoin="round"/>
<rect x="384.5" y="624.5" width="23" height="23" fill="white"/>
<path d="M387 634H397C401.418 634 405 637.582 405 642V644M387 634L393 640M387 634L393 628" stroke="#252F3F" stroke-width="2" stroke-linecap="round" stroke-linejoin="round"/>
<rect x="384.5" y="624.5" width="23" height="23" stroke="white"/>
<rect x="432" width="24" height="24" fill="white"/>
<path d="M449 9V7C449 5.89543 448.105 5 447 5H437C435.895 5 435 5.89543 435 7V13C435 14.1046 435.895 15 437 15H439M441 19H451C452.105 19 453 18.1046 453 17V11C453 9.89543 452.105 9 451 9H441C439.895 9 439 9.89543 439 11V17C439 18.1046 439.895 19 441 19ZM448 14C448 15.1046 447.105 16 446 16C444.895 16 444 15.1046 444 14C444 12.8954 444.895 12 446 12C447.105 12 448 12.8954 448 14Z" stroke="#252F3F" stroke-width="2" stroke-linecap="round" stroke-linejoin="round"/>
<rect x="432" y="48" width="24" height="24" fill="white"/>
<path d="M437 53C437 51.8954 437.895 51 439 51H449C450.105 51 451 51.8954 451 53V69L444 65.5L437 69V53Z" stroke="#252F3F" stroke-width="2" stroke-linecap="round" stroke-linejoin="round"/>
<rect x="432" y="96" width="24" height="24" fill="white"/>
<path d="M453 99L447 105M447 105V100M447 105H452M437 99C435.895 99 435 99.8954 435 101V102C435 110.284 441.716 117 450 117H451C452.105 117 453 116.105 453 115V111.721C453 111.29 452.725 110.908 452.316 110.772L447.823 109.274C447.351 109.117 446.835 109.331 446.612 109.776L445.484 112.033C443.039 110.931 441.069 108.961 439.967 106.516L442.224 105.388C442.669 105.165 442.883 104.649 442.726 104.177L441.228 99.6838C441.092 99.2754 440.71 99 440.279 99H437Z" stroke="#252F3F" stroke-width="2" stroke-linecap="round" stroke-linejoin="round"/>
<rect x="432" y="144" width="24" height="24" fill="white"/>
<path d="M436 148V153H436.582M451.938 155C451.446 151.054 448.08 148 444 148C440.643 148 437.768 150.068 436.582 153M436.582 153H441M452 164V159H451.418M451.418 159C450.232 161.932 447.357 164 444 164C439.92 164 436.554 160.946 436.062 157M451.418 159H447" stroke="#252F3F" stroke-width="2" stroke-linecap="round" stroke-linejoin="round"/>
<rect x="432" y="192" width="24" height="24" fill="white"/>
<path d="M440 199V195M448 199V195M439 203H449M437 213H451C452.105 213 453 212.105 453 211V199C453 197.895 452.105 197 451 197H437C435.895 197 435 197.895 435 199V211C435 212.105 435.895 213 437 213Z" stroke="#252F3F" stroke-width="2" stroke-linecap="round" stroke-linejoin="round"/>
<rect x="432" y="240" width="24" height="24" fill="white"/>
<path d="M445.828 250.172C444.266 248.609 441.734 248.609 440.172 250.172L436.172 254.172C434.609 255.734 434.609 258.266 436.172 259.828C437.734 261.391 440.266 261.391 441.828 259.828L442.93 258.727M442.172 253.828C443.734 255.391 446.266 255.391 447.828 253.828L451.828 249.828C453.391 248.266 453.391 245.734 451.828 244.172C450.266 242.609 447.734 242.609 446.172 244.172L445.072 245.271" stroke="#252F3F" stroke-width="2" stroke-linecap="round" stroke-linejoin="round"/>
<rect x="432" y="288" width="24" height="24" fill="white"/>
<path d="M445 304H444V300H443M444 296H444.01M453 300C453 304.971 448.971 309 444 309C439.029 309 435 304.971 435 300C435 295.029 439.029 291 444 291C448.971 291 453 295.029 453 300Z" stroke="#252F3F" stroke-width="2" stroke-linecap="round" stroke-linejoin="round"/>
<rect x="432" y="336" width="24" height="24" fill="white"/>
<path d="M435 340H448M435 344H444M435 348H444M449 344V356M449 356L445 352M449 356L453 352" stroke="#252F3F" stroke-width="2" stroke-linecap="round" stroke-linejoin="round"/>
<rect x="432" y="384" width="24" height="24" fill="white"/>
<path d="M450 393V396M450 396V399M450 396H453M450 396H447M445 391C445 393.209 443.209 395 441 395C438.791 395 437 393.209 437 391C437 388.791 438.791 387 441 387C443.209 387 445 388.791 445 391ZM435 404C435 400.686 437.686 398 441 398C444.314 398 447 400.686 447 404V405H435V404Z" stroke="#252F3F" stroke-width="2" stroke-linecap="round" stroke-linejoin="round"/>
<rect x="432" y="432" width="24" height="24" fill="white"/>
<path d="M449 449H451C452.105 449 453 448.105 453 447V443C453 441.895 452.105 441 451 441H437C435.895 441 435 441.895 435 443V447C435 448.105 435.895 449 437 449H439M441 453H447C448.105 453 449 452.105 449 451V447C449 445.895 448.105 445 447 445H441C439.895 445 439 445.895 439 447V451C439 452.105 439.895 453 441 453ZM449 441V437C449 435.895 448.105 435 447 435H441C439.895 435 439 435.895 439 437V441H449Z" stroke="#252F3F" stroke-width="2" stroke-linecap="round" stroke-linejoin="round"/>
<rect x="432" y="480" width="24" height="24" fill="white"/>
<path d="M440 489L444 485L448 489M448 495L444 499L440 495" stroke="#252F3F" stroke-width="2" stroke-linecap="round" stroke-linejoin="round"/>
<rect x="432" y="528" width="24" height="24" fill="white"/>
<path d="M450 535V547H452V535H450ZM449 548H439V550H449V548ZM438 547V535H436V547H438ZM439 534H441V532H439V534ZM447 534H449V532H447V534ZM439 548C438.448 548 438 547.552 438 547H436C436 548.657 437.343 550 439 550V548ZM450 547C450 547.552 449.552 548 449 548V550C450.657 550 452 548.657 452 547H450ZM452 535C452 533.343 450.657 532 449 532V534C449.552 534 450 534.448 450 535H452ZM438 535C438 534.448 438.448 534 439 534V532C437.343 532 436 533.343 436 535H438ZM443 532H445V530H443V532ZM445 534H443V536H445V534ZM443 534C442.448 534 442 533.552 442 533H440C440 534.657 441.343 536 443 536V534ZM446 533C446 533.552 445.552 534 445 534V536C446.657 536 448 534.657 448 533H446ZM445 532C445.552 532 446 532.448 446 533H448C448 531.343 446.657 530 445 530V532ZM443 530C441.343 530 440 531.343 440 533H442C442 532.448 442.448 532 443 532V530Z" fill="#252F3F"/>
<rect x="432" y="576" width="24" height="24" fill="white"/>
<path d="M445 586V579L436 590H443L443 597L452 586L445 586Z" stroke="#252F3F" stroke-width="2" stroke-linecap="round" stroke-linejoin="round"/>
<rect x="432" y="624" width="24" height="24" fill="white"/>
<path d="M441.663 641H446.336M444 627V628M450.364 629.636L449.657 630.343M453 636H452M436 636H435M438.343 630.343L437.636 629.636M440.464 639.536C438.512 637.583 438.512 634.417 440.464 632.464C442.417 630.512 445.583 630.512 447.535 632.464C449.488 634.417 449.488 637.583 447.535 639.536L446.988 640.083C446.355 640.716 446 641.574 446 642.469V643C446 644.105 445.105 645 444 645C442.895 645 442 644.105 442 643V642.469C442 641.574 441.644 640.716 441.012 640.083L440.464 639.536Z" stroke="#252F3F" stroke-width="2" stroke-linecap="round" stroke-linejoin="round"/>
</svg>
