<svg width="453" height="644" viewBox="0 0 453 644" fill="none" xmlns="http://www.w3.org/2000/svg">
<rect width="453" height="644" fill="white"/>
<rect x="1" width="20" height="20" fill="white"/>
<path d="M3.00333 5.88355L10.9999 9.88186L18.9967 5.8835C18.9363 4.83315 18.0655 4 17 4H5C3.93452 4 3.06363 4.83318 3.00333 5.88355Z" fill="#374151"/>
<path d="M19 8.1179L10.9999 12.1179L3 8.11796V14C3 15.1046 3.89543 16 5 16H17C18.1046 16 19 15.1046 19 14V8.1179Z" fill="#374151"/>
<rect x="1" y="48" width="20" height="20" fill="white"/>
<path fill-rule="evenodd" clip-rule="evenodd" d="M6.05025 52.0503C8.78392 49.3166 13.2161 49.3166 15.9497 52.0503C18.6834 54.7839 18.6834 59.2161 15.9497 61.9497L11 66.8995L6.05025 61.9497C3.31658 59.2161 3.31658 54.7839 6.05025 52.0503ZM11 59C12.1046 59 13 58.1046 13 57C13 55.8954 12.1046 55 11 55C9.89543 55 9 55.8954 9 57C9 58.1046 9.89543 59 11 59Z" fill="#374151"/>
<rect x="1" y="96" width="20" height="20" fill="white"/>
<path fill-rule="evenodd" clip-rule="evenodd" d="M5 98C3.89543 98 3 98.8954 3 100V111C3 112.657 4.34315 114 6 114C7.65685 114 9 112.657 9 111V100C9 98.8954 8.10457 98 7 98H5ZM6 112C6.55228 112 7 111.552 7 111C7 110.448 6.55228 110 6 110C5.44772 110 5 110.448 5 111C5 111.552 5.44772 112 6 112ZM11 110.243L15.8995 105.343C16.6805 104.562 16.6805 103.296 15.8995 102.515L14.4853 101.1C13.7042 100.319 12.4379 100.319 11.6568 101.1L11 101.757V110.243ZM17 114H10.071L16.071 108H17C18.1046 108 19 108.895 19 110V112C19 113.105 18.1046 114 17 114Z" fill="#374151"/>
<rect x="1" y="144" width="20" height="20" fill="white"/>
<path fill-rule="evenodd" clip-rule="evenodd" d="M4 149C4 148.448 4.44772 148 5 148H17C17.5523 148 18 148.448 18 149C18 149.552 17.5523 150 17 150H5C4.44772 150 4 149.552 4 149Z" fill="#374151"/>
<path fill-rule="evenodd" clip-rule="evenodd" d="M4 154C4 153.448 4.44772 153 5 153H17C17.5523 153 18 153.448 18 154C18 154.552 17.5523 155 17 155H5C4.44772 155 4 154.552 4 154Z" fill="#374151"/>
<path fill-rule="evenodd" clip-rule="evenodd" d="M4 159C4 158.448 4.44772 158 5 158H17C17.5523 158 18 158.448 18 159C18 159.552 17.5523 160 17 160H5C4.44772 160 4 159.552 4 159Z" fill="#374151"/>
<rect x="1" y="192" width="20" height="20" fill="white"/>
<path fill-rule="evenodd" clip-rule="evenodd" d="M19 202C19 206.418 15.4183 210 11 210C6.58172 210 3 206.418 3 202C3 197.582 6.58172 194 11 194C15.4183 194 19 197.582 19 202ZM11 199C10.6311 199 10.3076 199.199 10.1332 199.501C9.85664 199.979 9.24491 200.142 8.76685 199.866C8.28879 199.589 8.12543 198.977 8.40197 198.499C8.91918 197.605 9.88833 197 11 197C12.6569 197 14 198.343 14 200C14 201.306 13.1652 202.417 12 202.829V203C12 203.552 11.5523 204 11 204C10.4477 204 10 203.552 10 203V202C10 201.448 10.4477 201 11 201C11.5523 201 12 200.552 12 200C12 199.448 11.5523 199 11 199ZM11 207C11.5523 207 12 206.552 12 206C12 205.448 11.5523 205 11 205C10.4477 205 10 205.448 10 206C10 206.552 10.4477 207 11 207Z" fill="#374151"/>
<rect x="1" y="240" width="20" height="20" fill="white"/>
<path fill-rule="evenodd" clip-rule="evenodd" d="M5 245C3.89543 245 3 245.895 3 247V255C3 256.105 3.89543 257 5 257H17C18.1046 257 19 256.105 19 255V247C19 245.895 18.1046 245 17 245H15.4142C15.149 245 14.8946 244.895 14.7071 244.707L13.5858 243.586C13.2107 243.211 12.702 243 12.1716 243H9.82843C9.29799 243 8.78929 243.211 8.41421 243.586L7.29289 244.707C7.10536 244.895 6.851 245 6.58579 245H5ZM11 254C12.6569 254 14 252.657 14 251C14 249.343 12.6569 248 11 248C9.34315 248 8 249.343 8 251C8 252.657 9.34315 254 11 254Z" fill="#374151"/>
<rect x="1" y="288" width="20" height="20" fill="white"/>
<path fill-rule="evenodd" clip-rule="evenodd" d="M3.94 294.412C3.35524 294.778 3 295.419 3 296.108V304C3 305.104 3.89543 306 5 306H17C18.1046 306 19 305.104 19 304V296.108C19 295.419 18.6448 294.778 18.06 294.412L12.06 290.662C11.4115 290.257 10.5885 290.257 9.94 290.662L3.94 294.412ZM6.5547 296.835C6.09517 296.528 5.4743 296.652 5.16795 297.112C4.8616 297.571 4.98577 298.192 5.4453 298.499L10.4453 301.832C10.7812 302.056 11.2188 302.056 11.5547 301.832L16.5547 298.499C17.0142 298.192 17.1384 297.571 16.8321 297.112C16.5257 296.652 15.9048 296.528 15.4453 296.835L11 299.798L6.5547 296.835Z" fill="#374151"/>
<rect x="1" y="336" width="20" height="20" fill="white"/>
<path fill-rule="evenodd" clip-rule="evenodd" d="M4.29289 345.707C3.90237 345.317 3.90237 344.683 4.29289 344.293L10.2929 338.293C10.6834 337.902 11.3166 337.902 11.7071 338.293L17.7071 344.293C18.0976 344.683 18.0976 345.317 17.7071 345.707C17.3166 346.098 16.6834 346.098 16.2929 345.707L12 341.414L12 353C12 353.552 11.5523 354 11 354C10.4477 354 10 353.552 10 353L10 341.414L5.70711 345.707C5.31658 346.098 4.68342 346.098 4.29289 345.707Z" fill="#374151"/>
<rect x="1" y="384" width="20" height="20" fill="white"/>
<path fill-rule="evenodd" clip-rule="evenodd" d="M11 402C15.4183 402 19 398.418 19 394C19 389.582 15.4183 386 11 386C6.58172 386 3 389.582 3 394C3 398.418 6.58172 402 11 402ZM9.70711 391.293C9.31658 390.902 8.68342 390.902 8.29289 391.293C7.90237 391.683 7.90237 392.317 8.29289 392.707L9.58579 394L8.29289 395.293C7.90237 395.683 7.90237 396.317 8.29289 396.707C8.68342 397.098 9.31658 397.098 9.70711 396.707L11 395.414L12.2929 396.707C12.6834 397.098 13.3166 397.098 13.7071 396.707C14.0976 396.317 14.0976 395.683 13.7071 395.293L12.4142 394L13.7071 392.707C14.0976 392.317 14.0976 391.683 13.7071 391.293C13.3166 390.902 12.6834 390.902 12.2929 391.293L11 392.586L9.70711 391.293Z" fill="#374151"/>
<rect x="1" y="432" width="20" height="20" fill="white"/>
<path d="M7 442C7 443.105 6.10457 444 5 444C3.89543 444 3 443.105 3 442C3 440.895 3.89543 440 5 440C6.10457 440 7 440.895 7 442Z" fill="#374151"/>
<path d="M13 442C13 443.105 12.1046 444 11 444C9.89543 444 9 443.105 9 442C9 440.895 9.89543 440 11 440C12.1046 440 13 440.895 13 442Z" fill="#374151"/>
<path d="M17 444C18.1046 444 19 443.105 19 442C19 440.895 18.1046 440 17 440C15.8954 440 15 440.895 15 442C15 443.105 15.8954 444 17 444Z" fill="#374151"/>
<rect x="1" y="480" width="20" height="20" fill="white"/>
<path d="M9.43338 487.418C9.58818 487.315 9.77939 487.222 10 487.151L10 488.849C9.77939 488.778 9.58818 488.685 9.43338 488.582C9.06927 488.339 9 488.114 9 488C9 487.886 9.06927 487.661 9.43338 487.418Z" fill="#374151"/>
<path d="M12 492.849L12 491.151C12.2206 491.222 12.4118 491.315 12.5666 491.418C12.9308 491.661 13 491.886 13 492C13 492.114 12.9308 492.339 12.5666 492.582C12.4118 492.685 12.2206 492.778 12 492.849Z" fill="#374151"/>
<path fill-rule="evenodd" clip-rule="evenodd" d="M11 498C15.4183 498 19 494.418 19 490C19 485.582 15.4183 482 11 482C6.58172 482 3 485.582 3 490C3 494.418 6.58172 498 11 498ZM12 485C12 484.448 11.5523 484 11 484C10.4477 484 10 484.448 10 485V485.092C9.3784 485.209 8.80348 485.434 8.32398 485.754C7.6023 486.235 7 487.009 7 488C7 488.991 7.6023 489.765 8.32398 490.246C8.80348 490.566 9.37841 490.791 10 490.908L10 492.849C9.60902 492.722 9.31917 492.532 9.15667 492.345C8.79471 491.927 8.16313 491.883 7.74599 492.245C7.32885 492.607 7.28411 493.238 7.64607 493.655C8.20855 494.304 9.05956 494.731 10 494.908L10 495C9.99999 495.552 10.4477 496 11 496C11.5523 496 12 495.552 12 495L12 494.908C12.6216 494.791 13.1965 494.566 13.676 494.246C14.3977 493.765 15 492.991 15 492C15 491.009 14.3977 490.235 13.676 489.754C13.1965 489.434 12.6216 489.209 12 489.092L12 487.151C12.391 487.278 12.6808 487.468 12.8434 487.655C13.2053 488.073 13.8369 488.117 14.254 487.755C14.6712 487.393 14.7159 486.762 14.354 486.345C13.7915 485.696 12.9405 485.269 12 485.092V485Z" fill="#374151"/>
<rect x="1" y="528" width="20" height="20" fill="white"/>
<path fill-rule="evenodd" clip-rule="evenodd" d="M19 538C19 541.866 15.4183 545 11 545C9.50836 545 8.11208 544.643 6.91677 544.021L3 545L4.3383 541.877C3.4928 540.767 3 539.434 3 538C3 534.134 6.58172 531 11 531C15.4183 531 19 534.134 19 538ZM8 537H6V539H8V537ZM16 537H14V539H16V537ZM10 537H12V539H10V537Z" fill="#374151"/>
<rect x="1" y="576" width="20" height="20" fill="white"/>
<path d="M12 579C11.4477 579 11 579.448 11 580C11 580.552 11.4477 581 12 581H14.5858L8.29289 587.293C7.90237 587.683 7.90237 588.317 8.29289 588.707C8.68342 589.098 9.31658 589.098 9.70711 588.707L16 582.414V585C16 585.552 16.4477 586 17 586C17.5523 586 18 585.552 18 585V580C18 579.448 17.5523 579 17 579H12Z" fill="#374151"/>
<path d="M6 581C4.89543 581 4 581.895 4 583V591C4 592.105 4.89543 593 6 593H14C15.1046 593 16 592.105 16 591V588C16 587.448 15.5523 587 15 587C14.4477 587 14 587.448 14 588V591H6V583L9 583C9.55228 583 10 582.552 10 582C10 581.448 9.55228 581 9 581H6Z" fill="#374151"/>
<rect x="1" y="624" width="20" height="20" fill="white"/>
<path d="M3 630C3 628.895 3.89543 628 5 628H10L12 630H17C18.1046 630 19 630.895 19 632V638C19 639.105 18.1046 640 17 640H5C3.89543 640 3 639.105 3 638V630Z" fill="#374151"/>
<rect x="49" width="20" height="20" fill="white"/>
<path d="M59 2C55.6863 2 53 4.68629 53 8V11.5858L52.2929 12.2929C52.0069 12.5789 51.9214 13.009 52.0761 13.3827C52.2309 13.7564 52.5956 14 53 14H65C65.4045 14 65.7691 13.7564 65.9239 13.3827C66.0787 13.009 65.9931 12.5789 65.7071 12.2929L65 11.5858V8C65 4.68629 62.3137 2 59 2Z" fill="#374151"/>
<path d="M59 18C57.3431 18 56 16.6569 56 15H62C62 16.6569 60.6569 18 59 18Z" fill="#374151"/>
<rect x="49" y="48" width="20" height="20" fill="white"/>
<path fill-rule="evenodd" clip-rule="evenodd" d="M59 57C60.6569 57 62 55.6569 62 54C62 52.3431 60.6569 51 59 51C57.3431 51 56 52.3431 56 54C56 55.6569 57.3431 57 59 57ZM52 66C52 62.134 55.134 59 59 59C62.866 59 66 62.134 66 66H52Z" fill="#374151"/>
<rect x="49" y="96" width="20" height="20" fill="white"/>
<rect x="53" y="100" width="12" height="12" rx="1" stroke="#374151" stroke-width="2"/>
<path d="M53 108H56L57 110H61L62 108H65V112H53V108Z" fill="#374151"/>
<rect x="49" y="144" width="20" height="20" fill="white"/>
<path fill-rule="evenodd" clip-rule="evenodd" d="M52 149C52 148.448 52.4477 148 53 148H65C65.5523 148 66 148.448 66 149C66 149.552 65.5523 150 65 150H53C52.4477 150 52 149.552 52 149Z" fill="#374151"/>
<path fill-rule="evenodd" clip-rule="evenodd" d="M52 154C52 153.448 52.4477 153 53 153H59C59.5523 153 60 153.448 60 154C60 154.552 59.5523 155 59 155H53C52.4477 155 52 154.552 52 154Z" fill="#374151"/>
<path fill-rule="evenodd" clip-rule="evenodd" d="M52 159C52 158.448 52.4477 158 53 158H65C65.5523 158 66 158.448 66 159C66 159.552 65.5523 160 65 160H53C52.4477 160 52 159.552 52 159Z" fill="#374151"/>
<rect x="49" y="192" width="20" height="20" fill="white"/>
<path fill-rule="evenodd" clip-rule="evenodd" d="M57.2571 195.099C58.0217 193.74 59.9788 193.74 60.7434 195.099L66.3237 205.019C67.0736 206.353 66.1102 208 64.5805 208H53.4199C51.8903 208 50.9268 206.353 51.6768 205.019L57.2571 195.099ZM60.0001 205C60.0001 205.552 59.5524 206 59.0001 206C58.4478 206 58.0001 205.552 58.0001 205C58.0001 204.448 58.4478 204 59.0001 204C59.5524 204 60.0001 204.448 60.0001 205ZM59.0001 197C58.4478 197 58.0001 197.448 58.0001 198V201C58.0001 201.552 58.4478 202 59.0001 202C59.5524 202 60.0001 201.552 60.0001 201V198C60.0001 197.448 59.5524 197 59.0001 197Z" fill="#374151"/>
<rect x="49" y="240" width="20" height="20" fill="white"/>
<path fill-rule="evenodd" clip-rule="evenodd" d="M53.083 249H55.0286C55.1178 247.454 55.4123 246.029 55.8664 244.882C54.4175 245.771 53.3751 247.258 53.083 249ZM59 242C54.5817 242 51 245.582 51 250C51 254.418 54.5817 258 59 258C63.4183 258 67 254.418 67 250C67 245.582 63.4183 242 59 242ZM59 244C58.924 244 58.7679 244.032 58.5347 244.262C58.2972 244.496 58.0375 244.885 57.7978 245.444C57.4091 246.351 57.1249 247.586 57.0324 249H60.9676C60.8751 247.586 60.5909 246.351 60.2022 245.444C59.9625 244.885 59.7028 244.496 59.4653 244.262C59.2321 244.032 59.076 244 59 244ZM62.9714 249C62.8822 247.454 62.5877 246.029 62.1336 244.882C63.5825 245.771 64.6249 247.258 64.917 249H62.9714ZM60.9676 251H57.0324C57.1249 252.414 57.4091 253.649 57.7978 254.556C58.0375 255.115 58.2972 255.504 58.5347 255.738C58.7679 255.968 58.924 256 59 256C59.076 256 59.2321 255.968 59.4653 255.738C59.7028 255.504 59.9625 255.115 60.2022 254.556C60.5909 253.649 60.8751 252.414 60.9676 251ZM62.1336 255.118C62.5877 253.971 62.8822 252.546 62.9714 251H64.917C64.6249 252.742 63.5825 254.229 62.1336 255.118ZM55.8664 255.118C55.4123 253.971 55.1178 252.546 55.0286 251H53.083C53.3751 252.742 54.4175 254.229 55.8664 255.118Z" fill="#374151"/>
<rect x="49" y="288" width="20" height="20" fill="white"/>
<path d="M58 290C56.8954 290 56 290.895 56 292V300C56 301.105 56.8954 302 58 302H64C65.1046 302 66 301.105 66 300V294.414C66 293.884 65.7893 293.375 65.4142 293L63 290.586C62.6249 290.211 62.1162 290 61.5858 290H58Z" fill="#374151"/>
<path d="M52 296C52 294.895 52.8954 294 54 294V304H62C62 305.105 61.1046 306 60 306H54C52.8954 306 52 305.105 52 304V296Z" fill="#374151"/>
<rect x="49" y="336" width="20" height="20" fill="white"/>
<path fill-rule="evenodd" clip-rule="evenodd" d="M59.2929 339.293C59.6834 338.902 60.3166 338.902 60.7071 339.293L66.7071 345.293C67.0976 345.683 67.0976 346.317 66.7071 346.707L60.7071 352.707C60.3166 353.098 59.6834 353.098 59.2929 352.707C58.9024 352.317 58.9024 351.683 59.2929 351.293L63.5858 347L52 347C51.4477 347 51 346.552 51 346C51 345.448 51.4477 345 52 345H63.5858L59.2929 340.707C58.9024 340.317 58.9024 339.683 59.2929 339.293Z" fill="#374151"/>
<rect x="49" y="384" width="20" height="20" fill="white"/>
<path fill-rule="evenodd" clip-rule="evenodd" d="M59 402C63.4183 402 67 398.418 67 394C67 389.582 63.4183 386 59 386C54.5817 386 51 389.582 51 394C51 398.418 54.5817 402 59 402ZM62.7071 392.707C63.0976 392.317 63.0976 391.683 62.7071 391.293C62.3166 390.902 61.6834 390.902 61.2929 391.293L58 394.586L56.7071 393.293C56.3166 392.902 55.6834 392.902 55.2929 393.293C54.9024 393.683 54.9024 394.317 55.2929 394.707L57.2929 396.707C57.6834 397.098 58.3166 397.098 58.7071 396.707L62.7071 392.707Z" fill="#374151"/>
<rect x="49" y="432" width="20" height="20" fill="white"/>
<path d="M59 438C57.8954 438 57 437.105 57 436C57 434.895 57.8954 434 59 434C60.1046 434 61 434.895 61 436C61 437.105 60.1046 438 59 438Z" fill="#374151"/>
<path d="M59 444C57.8954 444 57 443.105 57 442C57 440.895 57.8954 440 59 440C60.1046 440 61 440.895 61 442C61 443.105 60.1046 444 59 444Z" fill="#374151"/>
<path d="M59 450C57.8954 450 57 449.105 57 448C57 446.895 57.8954 446 59 446C60.1046 446 61 446.895 61 448C61 449.105 60.1046 450 59 450Z" fill="#374151"/>
<rect x="49" y="480" width="20" height="20" fill="white"/>
<path fill-rule="evenodd" clip-rule="evenodd" d="M59 498C63.4183 498 67 494.418 67 490C67 485.582 63.4183 482 59 482C54.5817 482 51 485.582 51 490C51 494.418 54.5817 498 59 498ZM56.8575 485.485C56.5734 485.012 55.9591 484.858 55.4855 485.142C55.012 485.427 54.8584 486.041 55.1425 486.514L56.6338 489H56C55.4477 489 55 489.448 55 490C55 490.552 55.4477 491 56 491H57.8338L58 491.277V492H56C55.4477 492 55 492.448 55 493C55 493.552 55.4477 494 56 494H58V495C58 495.552 58.4477 496 59 496C59.5523 496 60 495.552 60 495V494H62C62.5523 494 63 493.552 63 493C63 492.448 62.5523 492 62 492H60V491.277L60.1662 491H62C62.5523 491 63 490.552 63 490C63 489.448 62.5523 489 62 489H61.3662L62.8575 486.514C63.1417 486.041 62.9881 485.427 62.5145 485.142C62.0409 484.858 61.4267 485.012 61.1425 485.485L59.0338 489H58.9662L56.8575 485.485Z" fill="#374151"/>
<rect x="49" y="528" width="20" height="20" fill="white"/>
<path fill-rule="evenodd" clip-rule="evenodd" d="M54 530C52.8954 530 52 530.895 52 532V546L55.5 544L59 546L62.5 544L66 546V532C66 530.895 65.1046 530 64 530H54ZM58.7071 533.707C59.0976 533.317 59.0976 532.683 58.7071 532.293C58.3166 531.902 57.6834 531.902 57.2929 532.293L54.2929 535.293C53.9024 535.683 53.9024 536.317 54.2929 536.707L57.2929 539.707C57.6834 540.098 58.3166 540.098 58.7071 539.707C59.0976 539.317 59.0976 538.683 58.7071 538.293L57.4142 537H59C60.6569 537 62 538.343 62 540V541C62 541.552 62.4477 542 63 542C63.5523 542 64 541.552 64 541V540C64 537.239 61.7614 535 59 535H57.4142L58.7071 533.707Z" fill="#374151"/>
<rect x="49" y="576" width="20" height="20" fill="white"/>
<path fill-rule="evenodd" clip-rule="evenodd" d="M59 578C59.5523 578 60 578.448 60 579V580C60 580.552 59.5523 581 59 581C58.4477 581 58 580.552 58 580V579C58 578.448 58.4477 578 59 578ZM63 586C63 588.209 61.2091 590 59 590C56.7909 590 55 588.209 55 586C55 583.791 56.7909 582 59 582C61.2091 582 63 583.791 63 586ZM62.5356 590.95L63.2427 591.657C63.6332 592.047 64.2664 592.047 64.6569 591.657C65.0474 591.266 65.0474 590.633 64.6569 590.243L63.9498 589.535C63.5593 589.145 62.9261 589.145 62.5356 589.535C62.1451 589.926 62.1451 590.559 62.5356 590.95ZM64.6568 580.343C65.0473 580.734 65.0473 581.367 64.6568 581.757L63.9497 582.464C63.5592 582.855 62.926 582.855 62.5355 582.464C62.145 582.074 62.145 581.441 62.5355 581.05L63.2426 580.343C63.6331 579.953 64.2663 579.953 64.6568 580.343ZM66 587C66.5523 587 67 586.552 67 586C67 585.448 66.5523 585 66 585H65C64.4477 585 64 585.448 64 586C64 586.552 64.4477 587 65 587H66ZM59 591C59.5523 591 60 591.448 60 592V593C60 593.552 59.5523 594 59 594C58.4477 594 58 593.552 58 593V592C58 591.448 58.4477 591 59 591ZM54.0503 582.464C54.4408 582.855 55.074 582.855 55.4645 582.464C55.855 582.074 55.855 581.441 55.4645 581.05L54.7574 580.343C54.3669 579.953 53.7337 579.953 53.3432 580.343C52.9527 580.734 52.9527 581.367 53.3432 581.757L54.0503 582.464ZM55.4644 590.95L54.7573 591.657C54.3668 592.047 53.7336 592.047 53.3431 591.657C52.9526 591.266 52.9526 590.633 53.3431 590.243L54.0502 589.535C54.4407 589.145 55.0739 589.145 55.4644 589.535C55.855 589.926 55.855 590.559 55.4644 590.95ZM53 587C53.5523 587 54 586.552 54 586C54 585.448 53.5523 585 53 585H52C51.4477 585 51 585.448 51 586C51 586.552 51.4477 587 52 587H53Z" fill="#374151"/>
<rect x="49" y="624" width="20" height="20" fill="white"/>
<path fill-rule="evenodd" clip-rule="evenodd" d="M54 626C54.5523 626 55 626.448 55 627V628H56C56.5523 628 57 628.448 57 629C57 629.552 56.5523 630 56 630H55V631C55 631.552 54.5523 632 54 632C53.4477 632 53 631.552 53 631V630H52C51.4477 630 51 629.552 51 629C51 628.448 51.4477 628 52 628H53V627C53 626.448 53.4477 626 54 626ZM54 636C54.5523 636 55 636.448 55 637V638H56C56.5523 638 57 638.448 57 639C57 639.552 56.5523 640 56 640H55V641C55 641.552 54.5523 642 54 642C53.4477 642 53 641.552 53 641V640H52C51.4477 640 51 639.552 51 639C51 638.448 51.4477 638 52 638H53V637C53 636.448 53.4477 636 54 636Z" fill="#374151"/>
<path fill-rule="evenodd" clip-rule="evenodd" d="M60.9999 626C61.4537 626 61.8505 626.305 61.9667 626.744L63.1459 631.199L66.4997 633.134C66.8092 633.312 66.9999 633.643 66.9999 634C66.9999 634.357 66.8092 634.688 66.4997 634.866L63.1459 636.801L61.9667 641.256C61.8505 641.695 61.4537 642 60.9999 642C60.5462 642 60.1493 641.695 60.0332 641.256L58.854 636.801L55.5003 634.866C55.1907 634.688 55 634.357 55 634C55 633.643 55.1907 633.312 55.5003 633.134L58.854 631.199L60.0332 626.744C60.1493 626.305 60.5462 626 60.9999 626Z" fill="#374151"/>
<rect x="97" width="20" height="20" fill="white"/>
<path d="M107.707 2.29289C107.317 1.90237 106.683 1.90237 106.293 2.29289L99.2929 9.29289C98.9024 9.68342 98.9024 10.3166 99.2929 10.7071C99.6834 11.0976 100.317 11.0976 100.707 10.7071L101 10.4142V17C101 17.5523 101.448 18 102 18H104C104.552 18 105 17.5523 105 17V15C105 14.4477 105.448 14 106 14H108C108.552 14 109 14.4477 109 15V17C109 17.5523 109.448 18 110 18H112C112.552 18 113 17.5523 113 17V10.4142L113.293 10.7071C113.683 11.0976 114.317 11.0976 114.707 10.7071C115.098 10.3166 115.098 9.68342 114.707 9.29289L107.707 2.29289Z" fill="#374151"/>
<rect x="97" y="48" width="20" height="20" fill="white"/>
<path d="M106 54C106 55.6569 104.657 57 103 57C101.343 57 100 55.6569 100 54C100 52.3431 101.343 51 103 51C104.657 51 106 52.3431 106 54Z" fill="#374151"/>
<path d="M114 54C114 55.6569 112.657 57 111 57C109.343 57 108 55.6569 108 54C108 52.3431 109.343 51 111 51C112.657 51 114 52.3431 114 54Z" fill="#374151"/>
<path d="M109.929 65C109.976 64.6734 110 64.3395 110 64C110 62.3648 109.439 60.8606 108.5 59.6691C109.235 59.2435 110.089 59 111 59C113.761 59 116 61.2386 116 64V65H109.929Z" fill="#374151"/>
<path d="M103 59C105.761 59 108 61.2386 108 64V65H98V64C98 61.2386 100.239 59 103 59Z" fill="#374151"/>
<rect x="97" y="96" width="20" height="20" fill="white"/>
<path d="M103 100H102C101.448 100 101 100.448 101 101V111C101 111.552 101.448 112 102 112H112C112.552 112 113 111.552 113 111V101C113 100.448 112.552 100 112 100H111" stroke="#374151" stroke-width="2" stroke-linecap="round"/>
<path d="M101 108H104L105 110H109L110 108H113V112H101V108Z" fill="#374151"/>
<path d="M104.293 103.293C104.683 102.902 105.317 102.902 105.707 103.293L106 103.586L106 99C106 98.4477 106.448 98 107 98C107.552 98 108 98.4477 108 99L108 103.586L108.293 103.293C108.683 102.902 109.317 102.902 109.707 103.293C110.098 103.683 110.098 104.317 109.707 104.707L107.707 106.707C107.52 106.895 107.265 107 107 107C106.735 107 106.48 106.895 106.293 106.707L104.293 104.707C103.902 104.317 103.902 103.683 104.293 103.293Z" fill="#374151"/>
<rect x="97" y="144" width="20" height="20" fill="white"/>
<path fill-rule="evenodd" clip-rule="evenodd" d="M100 149C100 148.448 100.448 148 101 148H113C113.552 148 114 148.448 114 149C114 149.552 113.552 150 113 150H101C100.448 150 100 149.552 100 149Z" fill="#374151"/>
<path fill-rule="evenodd" clip-rule="evenodd" d="M100 154C100 153.448 100.448 153 101 153H113C113.552 153 114 153.448 114 154C114 154.552 113.552 155 113 155H101C100.448 155 100 154.552 100 154Z" fill="#374151"/>
<path fill-rule="evenodd" clip-rule="evenodd" d="M100 159C100 158.448 100.448 158 101 158H107C107.552 158 108 158.448 108 159C108 159.552 107.552 160 107 160H101C100.448 160 100 159.552 100 159Z" fill="#374151"/>
<rect x="97" y="192" width="20" height="20" fill="white"/>
<path fill-rule="evenodd" clip-rule="evenodd" d="M99 202C99 204.209 100.791 206 103 206H106V209C106 209.552 106.448 210 107 210C107.552 210 108 209.552 108 209V206H111C113.209 206 115 204.209 115 202C115 199.791 113.209 198 111 198C111 195.791 109.209 194 107 194C104.791 194 103 195.791 103 198C100.791 198 99 199.791 99 202ZM108 206H106L106 201.414L104.707 202.707C104.317 203.098 103.683 203.098 103.293 202.707C102.902 202.317 102.902 201.683 103.293 201.293L106.293 198.293C106.683 197.902 107.317 197.902 107.707 198.293L110.707 201.293C111.098 201.683 111.098 202.317 110.707 202.707C110.317 203.098 109.683 203.098 109.293 202.707L108 201.414V206Z" fill="#374151"/>
<rect x="97" y="240" width="20" height="20" fill="white"/>
<path d="M104 249C104 247.895 104.895 247 106 247H112C113.105 247 114 247.895 114 249V255C114 256.105 113.105 257 112 257H106C104.895 257 104 256.105 104 255V249Z" fill="#374151"/>
<path d="M102 243C100.895 243 100 243.895 100 245V251C100 252.105 100.895 253 102 253L102 245H110C110 243.895 109.105 243 108 243H102Z" fill="#374151"/>
<rect x="97" y="288" width="20" height="20" fill="white"/>
<path d="M101 292C99.8954 292 99 292.895 99 294V295H115V294C115 292.895 114.105 292 113 292H101Z" fill="#374151"/>
<path fill-rule="evenodd" clip-rule="evenodd" d="M115 297H99V302C99 303.105 99.8954 304 101 304H113C114.105 304 115 303.105 115 302V297ZM101 301C101 300.448 101.448 300 102 300H103C103.552 300 104 300.448 104 301C104 301.552 103.552 302 103 302H102C101.448 302 101 301.552 101 301ZM106 300C105.448 300 105 300.448 105 301C105 301.552 105.448 302 106 302H107C107.552 302 108 301.552 108 301C108 300.448 107.552 300 107 300H106Z" fill="#374151"/>
<rect x="97" y="336" width="20" height="20" fill="white"/>
<path fill-rule="evenodd" clip-rule="evenodd" d="M113.707 346.293C114.098 346.683 114.098 347.317 113.707 347.707L107.707 353.707C107.317 354.098 106.683 354.098 106.293 353.707L100.293 347.707C99.9024 347.317 99.9024 346.683 100.293 346.293C100.683 345.902 101.317 345.902 101.707 346.293L106 350.586L106 339C106 338.448 106.448 338 107 338C107.552 338 108 338.448 108 339L108 350.586L112.293 346.293C112.683 345.902 113.317 345.902 113.707 346.293Z" fill="#374151"/>
<rect x="97" y="384" width="20" height="20" fill="white"/>
<path fill-rule="evenodd" clip-rule="evenodd" d="M115 394C115 398.418 111.418 402 107 402C102.582 402 99 398.418 99 394C99 389.582 102.582 386 107 386C111.418 386 115 389.582 115 394ZM108 398C108 398.552 107.552 399 107 399C106.448 399 106 398.552 106 398C106 397.448 106.448 397 107 397C107.552 397 108 397.448 108 398ZM107 389C106.448 389 106 389.448 106 390V394C106 394.552 106.448 395 107 395C107.552 395 108 394.552 108 394V390C108 389.448 107.552 389 107 389Z" fill="#374151"/>
<rect x="97" y="432" width="20" height="20" fill="white"/>
<path fill-rule="evenodd" clip-rule="evenodd" d="M100 449C100 448.448 100.448 448 101 448H113C113.552 448 114 448.448 114 449C114 449.552 113.552 450 113 450H101C100.448 450 100 449.552 100 449ZM103.293 438.707C102.902 438.317 102.902 437.683 103.293 437.293L106.293 434.293C106.48 434.105 106.735 434 107 434C107.265 434 107.52 434.105 107.707 434.293L110.707 437.293C111.098 437.683 111.098 438.317 110.707 438.707C110.317 439.098 109.683 439.098 109.293 438.707L108 437.414L108 445C108 445.552 107.552 446 107 446C106.448 446 106 445.552 106 445L106 437.414L104.707 438.707C104.317 439.098 103.683 439.098 103.293 438.707Z" fill="#374151"/>
<rect x="97" y="480" width="20" height="20" fill="white"/>
<path fill-rule="evenodd" clip-rule="evenodd" d="M107 498C111.418 498 115 494.418 115 490C115 485.582 111.418 482 107 482C102.582 482 99 485.582 99 490C99 494.418 102.582 498 107 498ZM105.736 486.979C106.208 486.193 106.696 486 107 486C107.304 486 107.792 486.193 108.264 486.979C108.548 487.453 109.162 487.606 109.636 487.322C110.109 487.038 110.263 486.424 109.979 485.95C109.279 484.784 108.232 484 107 484C105.768 484 104.721 484.784 104.021 485.95C103.736 486.425 103.514 486.949 103.351 487.5H103C102.448 487.5 102 487.948 102 488.5C102 489.052 102.448 489.5 103 489.5H103.013C103.004 489.667 103 489.834 103 490C103 490.166 103.004 490.333 103.013 490.5H103C102.448 490.5 102 490.948 102 491.5C102 492.052 102.448 492.5 103 492.5H103.351C103.514 493.051 103.736 493.575 104.021 494.05C104.721 495.216 105.768 496 107 496C108.232 496 109.279 495.216 109.979 494.05C110.263 493.576 110.109 492.962 109.636 492.678C109.162 492.394 108.548 492.547 108.264 493.021C107.792 493.807 107.304 494 107 494C106.696 494 106.208 493.807 105.736 493.021C105.639 492.86 105.551 492.685 105.472 492.5H107C107.552 492.5 108 492.052 108 491.5C108 490.948 107.552 490.5 107 490.5H105.017C105.006 490.335 105 490.168 105 490C105 489.832 105.006 489.665 105.017 489.5H107C107.552 489.5 108 489.052 108 488.5C108 487.948 107.552 487.5 107 487.5H105.472C105.551 487.315 105.639 487.14 105.736 486.979Z" fill="#374151"/>
<rect x="97" y="528" width="20" height="20" fill="white"/>
<path d="M99 534C99 532.895 99.8954 532 101 532H113C114.105 532 115 532.895 115 534V536C113.895 536 113 536.895 113 538C113 539.105 113.895 540 115 540V542C115 543.105 114.105 544 113 544H101C99.8954 544 99 543.105 99 542V540C100.105 540 101 539.105 101 538C101 536.895 100.105 536 99 536V534Z" fill="#374151"/>
<rect x="97" y="576" width="20" height="20" fill="white"/>
<path d="M114.293 589.293C113.289 589.747 112.174 590 111 590C106.582 590 103 586.418 103 582C103 580.826 103.253 579.711 103.707 578.707C100.931 579.962 99 582.755 99 586C99 590.418 102.582 594 107 594C110.244 594 113.038 592.069 114.293 589.293Z" fill="#374151"/>
<rect x="97" y="624" width="20" height="20" fill="white"/>
<path d="M108 630C108 631.657 106.657 633 105 633C103.343 633 102 631.657 102 630C102 628.343 103.343 627 105 627C106.657 627 108 628.343 108 630Z" fill="#374151"/>
<path d="M111 641C111 637.686 108.314 635 105 635C101.686 635 99 637.686 99 641H111Z" fill="#374151"/>
<path d="M110 632C109.448 632 109 632.448 109 633C109 633.552 109.448 634 110 634H114C114.552 634 115 633.552 115 633C115 632.448 114.552 632 114 632H110Z" fill="#374151"/>
<rect x="145" width="20" height="20" fill="white"/>
<path fill-rule="evenodd" clip-rule="evenodd" d="M151 6V5C151 3.34315 152.343 2 154 2H156C157.657 2 159 3.34315 159 5V6H161C162.105 6 163 6.89543 163 8V11.5708C160.51 12.4947 157.815 12.9999 155 12.9999C152.185 12.9999 149.49 12.4947 147 11.5707V8C147 6.89543 147.895 6 149 6H151ZM153 5C153 4.44772 153.448 4 154 4H156C156.552 4 157 4.44772 157 5V6H153V5ZM154 10C154 9.44772 154.448 9 155 9H155.01C155.562 9 156.01 9.44772 156.01 10C156.01 10.5523 155.562 11 155.01 11H155C154.448 11 154 10.5523 154 10Z" fill="#374151"/>
<path d="M147 13.6923V16C147 17.1046 147.895 18 149 18H161C162.105 18 163 17.1046 163 16V13.6923C160.487 14.5404 157.796 14.9999 155 14.9999C152.204 14.9999 149.513 14.5404 147 13.6923Z" fill="#374151"/>
<rect x="145" y="48" width="20" height="20" fill="white"/>
<path d="M158 54C158 55.6569 156.657 57 155 57C153.343 57 152 55.6569 152 54C152 52.3431 153.343 51 155 51C156.657 51 158 52.3431 158 54Z" fill="#374151"/>
<path d="M163 56C163 57.1046 162.105 58 161 58C159.895 58 159 57.1046 159 56C159 54.8954 159.895 54 161 54C162.105 54 163 54.8954 163 56Z" fill="#374151"/>
<path d="M159 63C159 60.7909 157.209 59 155 59C152.791 59 151 60.7909 151 63V66H159V63Z" fill="#374151"/>
<path d="M151 56C151 57.1046 150.105 58 149 58C147.895 58 147 57.1046 147 56C147 54.8954 147.895 54 149 54C150.105 54 151 54.8954 151 56Z" fill="#374151"/>
<path d="M161 66V63C161 61.9459 160.728 60.9552 160.251 60.0943C160.49 60.0327 160.741 60 161 60C162.657 60 164 61.3431 164 63V66H161Z" fill="#374151"/>
<path d="M149.749 60.0943C149.272 60.9552 149 61.9459 149 63V66H146V63C146 61.3431 147.343 60 149 60C149.259 60 149.51 60.0327 149.749 60.0943Z" fill="#374151"/>
<rect x="145" y="96" width="20" height="20" fill="white"/>
<path d="M149 99C147.895 99 147 99.8954 147 101C147 102.105 147.895 103 149 103H161C162.105 103 163 102.105 163 101C163 99.8954 162.105 99 161 99H149Z" fill="#374151"/>
<path fill-rule="evenodd" clip-rule="evenodd" d="M148 104H162V111C162 112.105 161.105 113 160 113H150C148.895 113 148 112.105 148 111V104ZM153 107C153 106.448 153.448 106 154 106H156C156.552 106 157 106.448 157 107C157 107.552 156.552 108 156 108H154C153.448 108 153 107.552 153 107Z" fill="#374151"/>
<rect x="145" y="144" width="20" height="20" fill="white"/>
<path fill-rule="evenodd" clip-rule="evenodd" d="M148 149C148 148.448 148.448 148 149 148H161C161.552 148 162 148.448 162 149C162 149.552 161.552 150 161 150H149C148.448 150 148 149.552 148 149Z" fill="#374151"/>
<path fill-rule="evenodd" clip-rule="evenodd" d="M148 154C148 153.448 148.448 153 149 153H161C161.552 153 162 153.448 162 154C162 154.552 161.552 155 161 155H149C148.448 155 148 154.552 148 154Z" fill="#374151"/>
<path fill-rule="evenodd" clip-rule="evenodd" d="M154 159C154 158.448 154.448 158 155 158H161C161.552 158 162 158.448 162 159C162 159.552 161.552 160 161 160H155C154.448 160 154 159.552 154 159Z" fill="#374151"/>
<rect x="145" y="192" width="20" height="20" fill="white"/>
<path d="M151 205C148.791 205 147 203.209 147 201C147 198.791 148.791 197 151 197C151 194.791 152.791 193 155 193C157.209 193 159 194.791 159 197C161.209 197 163 198.791 163 201C163 203.209 161.209 205 159 205H156V200C156 199.448 155.552 199 155 199C154.448 199 154 199.448 154 200V205H151Z" fill="#374151"/>
<path d="M154 205H156V207.586L157.293 206.293C157.683 205.902 158.317 205.902 158.707 206.293C159.098 206.683 159.098 207.317 158.707 207.707L155.707 210.707C155.317 211.098 154.683 211.098 154.293 210.707L151.293 207.707C150.902 207.317 150.902 206.683 151.293 206.293C151.683 205.902 152.317 205.902 152.707 206.293L154 207.586V205Z" fill="#374151"/>
<rect x="145" y="240" width="20" height="20" fill="white"/>
<path d="M160 248C161.657 248 163 246.657 163 245C163 243.343 161.657 242 160 242C158.343 242 157 243.343 157 245C157 245.125 157.008 245.249 157.023 245.371L152.083 247.841C151.543 247.32 150.809 247 150 247C148.343 247 147 248.343 147 250C147 251.657 148.343 253 150 253C150.809 253 151.543 252.68 152.083 252.159L157.023 254.629C157.008 254.751 157 254.874 157 255C157 256.657 158.343 258 160 258C161.657 258 163 256.657 163 255C163 253.343 161.657 252 160 252C159.191 252 158.457 252.32 157.917 252.841L152.977 250.371C152.992 250.249 153 250.125 153 250C153 249.874 152.992 249.751 152.977 249.629L157.917 247.159C158.457 247.68 159.191 248 160 248Z" fill="#374151"/>
<rect x="145" y="288" width="20" height="20" fill="white"/>
<path fill-rule="evenodd" clip-rule="evenodd" d="M150 297V295C150 292.239 152.239 290 155 290C157.761 290 160 292.239 160 295V297C161.105 297 162 297.895 162 299V304C162 305.105 161.105 306 160 306H150C148.895 306 148 305.105 148 304V299C148 297.895 148.895 297 150 297ZM158 295V297H152V295C152 293.343 153.343 292 155 292C156.657 292 158 293.343 158 295Z" fill="#374151"/>
<rect x="145" y="336" width="20" height="20" fill="white"/>
<path fill-rule="evenodd" clip-rule="evenodd" d="M154.707 352.707C154.317 353.098 153.683 353.098 153.293 352.707L147.293 346.707C146.902 346.317 146.902 345.683 147.293 345.293L153.293 339.293C153.683 338.902 154.317 338.902 154.707 339.293C155.098 339.683 155.098 340.317 154.707 340.707L150.414 345H162C162.552 345 163 345.448 163 346C163 346.552 162.552 347 162 347L150.414 347L154.707 351.293C155.098 351.683 155.098 352.317 154.707 352.707Z" fill="#374151"/>
<rect x="145" y="384" width="20" height="20" fill="white"/>
<path fill-rule="evenodd" clip-rule="evenodd" d="M155 402C159.418 402 163 398.418 163 394C163 389.582 159.418 386 155 386C150.582 386 147 389.582 147 394C147 398.418 150.582 402 155 402ZM156 391C156 390.448 155.552 390 155 390C154.448 390 154 390.448 154 391V393H152C151.448 393 151 393.448 151 394C151 394.552 151.448 395 152 395H154V397C154 397.552 154.448 398 155 398C155.552 398 156 397.552 156 397V395H158C158.552 395 159 394.552 159 394C159 393.448 158.552 393 158 393H156V391Z" fill="#374151"/>
<rect x="145" y="432" width="20" height="20" fill="white"/>
<path fill-rule="evenodd" clip-rule="evenodd" d="M148 449C148 448.448 148.448 448 149 448H161C161.552 448 162 448.448 162 449C162 449.552 161.552 450 161 450H149C148.448 450 148 449.552 148 449ZM151.293 441.293C151.683 440.902 152.317 440.902 152.707 441.293L154 442.586L154 435C154 434.448 154.448 434 155 434C155.552 434 156 434.448 156 435L156 442.586L157.293 441.293C157.683 440.902 158.317 440.902 158.707 441.293C159.098 441.683 159.098 442.317 158.707 442.707L155.707 445.707C155.52 445.895 155.265 446 155 446C154.735 446 154.48 445.895 154.293 445.707L151.293 442.707C150.902 442.317 150.902 441.683 151.293 441.293Z" fill="#374151"/>
<rect x="145" y="480" width="20" height="20" fill="white"/>
<path fill-rule="evenodd" clip-rule="evenodd" d="M155 498C159.418 498 163 494.418 163 490C163 485.582 159.418 482 155 482C150.582 482 147 485.582 147 490C147 494.418 150.582 498 155 498ZM156 484C154.343 484 153 485.343 153 487V489H152C151.448 489 151 489.448 151 490C151 490.552 151.448 491 152 491H153V492C153 492.552 152.552 493 152 493C151.448 493 151 493.448 151 494C151 494.552 151.448 495 152 495H158C158.552 495 159 494.552 159 494C159 493.448 158.552 493 158 493H154.829C154.94 492.687 155 492.351 155 492V491H156C156.552 491 157 490.552 157 490C157 489.448 156.552 489 156 489H155V487C155 486.448 155.448 486 156 486C156.552 486 157 486.448 157 487C157 487.552 157.448 488 158 488C158.552 488 159 487.552 159 487C159 485.343 157.657 484 156 484Z" fill="#374151"/>
<rect x="145" y="528" width="20" height="20" fill="white"/>
<path d="M155 530C152.239 530 150 532.239 150 535V537C148.895 537 148 537.895 148 539V544C148 545.105 148.895 546 150 546H160C161.105 546 162 545.105 162 544V539C162 537.895 161.105 537 160 537H152V535C152 533.343 153.343 532 155 532C156.397 532 157.572 532.955 157.906 534.249C158.043 534.784 158.588 535.106 159.123 534.968C159.658 534.831 159.98 534.286 159.842 533.751C159.287 531.594 157.331 530 155 530Z" fill="#374151"/>
<rect x="145" y="576" width="20" height="20" fill="white"/>
<path d="M153 578C152.448 578 152 578.448 152 579C152 579.552 152.448 580 153 580H155C155.552 580 156 579.552 156 579C156 578.448 155.552 578 155 578H153Z" fill="#374151"/>
<path d="M148 581C148 579.895 148.895 579 150 579C150 580.657 151.343 582 153 582H155C156.657 582 158 580.657 158 579C159.105 579 160 579.895 160 581V587H155.414L156.707 585.707C157.098 585.317 157.098 584.683 156.707 584.293C156.317 583.902 155.683 583.902 155.293 584.293L152.293 587.293C151.902 587.683 151.902 588.317 152.293 588.707L155.293 591.707C155.683 592.098 156.317 592.098 156.707 591.707C157.098 591.317 157.098 590.683 156.707 590.293L155.414 589H160V592C160 593.105 159.105 594 158 594H150C148.895 594 148 593.105 148 592V581Z" fill="#374151"/>
<path d="M160 587H162C162.552 587 163 587.448 163 588C163 588.552 162.552 589 162 589H160V587Z" fill="#374151"/>
<rect x="145" y="624" width="20" height="20" fill="white"/>
<path fill-rule="evenodd" clip-rule="evenodd" d="M150.293 631.707C149.902 631.317 149.902 630.683 150.293 630.293L154.293 626.293C154.683 625.902 155.317 625.902 155.707 626.293L159.707 630.293C160.098 630.683 160.098 631.317 159.707 631.707C159.317 632.098 158.683 632.098 158.293 631.707L156 629.414L156 641C156 641.552 155.552 642 155 642C154.448 642 154 641.552 154 641L154 629.414L151.707 631.707C151.317 632.098 150.683 632.098 150.293 631.707Z" fill="#374151"/>
<rect x="193" width="20" height="20" fill="white"/>
<path fill-rule="evenodd" clip-rule="evenodd" d="M195.166 4.99878C198.174 4.95797 200.915 3.81021 203 1.94434C205.085 3.81021 207.826 4.95797 210.834 4.99878C210.943 5.64956 211 6.31809 211 6.99991C211 12.2248 207.661 16.6697 203 18.317C198.339 16.6697 195 12.2248 195 6.99991C195 6.31809 195.057 5.64956 195.166 4.99878ZM206.707 8.70698C207.098 8.31646 207.098 7.6833 206.707 7.29277C206.317 6.90225 205.683 6.90225 205.293 7.29277L202 10.5857L200.707 9.29277C200.317 8.90225 199.683 8.90225 199.293 9.29277C198.902 9.6833 198.902 10.3165 199.293 10.707L201.293 12.707C201.683 13.0975 202.317 13.0975 202.707 12.707L206.707 8.70698Z" fill="#374151"/>
<rect x="193" y="48" width="20" height="20" fill="white"/>
<path fill-rule="evenodd" clip-rule="evenodd" d="M197 52C197 50.8954 197.895 50 199 50H207C208.105 50 209 50.8954 209 52V64C209.552 64 210 64.4477 210 65C210 65.5523 209.552 66 209 66H206C205.448 66 205 65.5523 205 65V63C205 62.4477 204.552 62 204 62H202C201.448 62 201 62.4477 201 63V65C201 65.5523 200.552 66 200 66H197C196.448 66 196 65.5523 196 65C196 64.4477 196.448 64 197 64V52ZM200 53H202V55H200V53ZM202 57H200V59H202V57ZM204 53H206V55H204V53ZM206 57H204V59H206V57Z" fill="#374151"/>
<rect x="193" y="96" width="20" height="20" fill="white"/>
<path fill-rule="evenodd" clip-rule="evenodd" d="M203 114C207.418 114 211 110.418 211 106C211 101.582 207.418 98 203 98C198.582 98 195 101.582 195 106C195 110.418 198.582 114 203 114ZM204 102C204 101.448 203.552 101 203 101C202.448 101 202 101.448 202 102V106C202 106.265 202.105 106.52 202.293 106.707L205.121 109.536C205.512 109.926 206.145 109.926 206.536 109.536C206.926 109.145 206.926 108.512 206.536 108.121L204 105.586V102Z" fill="#374151"/>
<rect x="193" y="144" width="20" height="20" fill="white"/>
<path fill-rule="evenodd" clip-rule="evenodd" d="M196 151C196 150.448 196.448 150 197 150H209C209.552 150 210 150.448 210 151C210 151.552 209.552 152 209 152H197C196.448 152 196 151.552 196 151Z" fill="#374151"/>
<path fill-rule="evenodd" clip-rule="evenodd" d="M196 157C196 156.448 196.448 156 197 156H209C209.552 156 210 156.448 210 157C210 157.552 209.552 158 209 158H197C196.448 158 196 157.552 196 157Z" fill="#374151"/>
<rect x="193" y="192" width="20" height="20" fill="white"/>
<path d="M195 202C195 197.582 198.582 194 203 194V202H211C211 206.418 207.418 210 203 210C198.582 210 195 206.418 195 202Z" fill="#374151"/>
<path d="M205 194.252C207.811 194.976 210.024 197.189 210.748 200H205V194.252Z" fill="#374151"/>
<rect x="193" y="240" width="20" height="20" fill="white"/>
<path fill-rule="evenodd" clip-rule="evenodd" d="M196.172 245.172C197.734 243.609 200.266 243.609 201.828 245.172L203 246.343L204.172 245.172C205.734 243.609 208.266 243.609 209.828 245.172C211.391 246.734 211.391 249.266 209.828 250.828L203 257.657L196.172 250.828C194.609 249.266 194.609 246.734 196.172 245.172Z" fill="#374151"/>
<rect x="193" y="288" width="20" height="20" fill="white"/>
<path fill-rule="evenodd" clip-rule="evenodd" d="M205 295C204.448 295 204 294.552 204 294C204 293.448 204.448 293 205 293H210C210.552 293 211 293.448 211 294V299C211 299.552 210.552 300 210 300C209.448 300 209 299.552 209 299V296.414L204.707 300.707C204.317 301.098 203.683 301.098 203.293 300.707L201 298.414L196.707 302.707C196.317 303.098 195.683 303.098 195.293 302.707C194.902 302.317 194.902 301.683 195.293 301.293L200.293 296.293C200.683 295.902 201.317 295.902 201.707 296.293L204 298.586L207.586 295H205Z" fill="#374151"/>
<rect x="193" y="336" width="20" height="20" fill="white"/>
<path fill-rule="evenodd" clip-rule="evenodd" d="M203 354C207.418 354 211 350.418 211 346C211 341.582 207.418 338 203 338C198.582 338 195 341.582 195 346C195 350.418 198.582 354 203 354ZM206.707 345.293L203.707 342.293C203.317 341.902 202.683 341.902 202.293 342.293C201.902 342.683 201.902 343.317 202.293 343.707L203.586 345L200 345C199.448 345 199 345.448 199 346C199 346.552 199.448 347 200 347H203.586L202.293 348.293C201.902 348.683 201.902 349.317 202.293 349.707C202.683 350.098 203.317 350.098 203.707 349.707L206.707 346.707C207.098 346.317 207.098 345.683 206.707 345.293Z" fill="#374151"/>
<rect x="193" y="384" width="20" height="20" fill="white"/>
<path fill-rule="evenodd" clip-rule="evenodd" d="M203 402C207.418 402 211 398.418 211 394C211 389.582 207.418 386 203 386C198.582 386 195 389.582 195 394C195 398.418 198.582 402 203 402ZM200 393C199.448 393 199 393.448 199 394C199 394.552 199.448 395 200 395H206C206.552 395 207 394.552 207 394C207 393.448 206.552 393 206 393H200Z" fill="#374151"/>
<rect x="193" y="432" width="20" height="20" fill="white"/>
<path fill-rule="evenodd" clip-rule="evenodd" d="M196 436C196 435.448 196.448 435 197 435H209C209.552 435 210 435.448 210 436C210 436.552 209.552 437 209 437H197C196.448 437 196 436.552 196 436ZM196 440C196 439.448 196.448 439 197 439H209C209.552 439 210 439.448 210 440C210 440.552 209.552 441 209 441H197C196.448 441 196 440.552 196 440ZM196 444C196 443.448 196.448 443 197 443H209C209.552 443 210 443.448 210 444C210 444.552 209.552 445 209 445H197C196.448 445 196 444.552 196 444ZM196 448C196 447.448 196.448 447 197 447H209C209.552 447 210 447.448 210 448C210 448.552 209.552 449 209 449H197C196.448 449 196 448.552 196 448Z" fill="#374151"/>
<rect x="193" y="480" width="20" height="20" fill="white"/>
<path fill-rule="evenodd" clip-rule="evenodd" d="M203 498C207.418 498 211 494.418 211 490C211 485.582 207.418 482 203 482C198.582 482 195 485.582 195 490C195 494.418 198.582 498 203 498ZM200 485C199.448 485 199 485.448 199 486C199 486.552 199.448 487 200 487H201C201.74 487 202.387 487.402 202.732 488H200C199.448 488 199 488.448 199 489C199 489.552 199.448 490 200 490H202.732C202.387 490.598 201.74 491 201 491H200C199.596 491 199.231 491.244 199.076 491.617C198.921 491.991 199.007 492.421 199.293 492.707L202.293 495.707C202.683 496.098 203.317 496.098 203.707 495.707C204.098 495.317 204.098 494.683 203.707 494.293L202.224 492.809C203.522 492.393 204.532 491.33 204.874 490H206C206.552 490 207 489.552 207 489C207 488.448 206.552 488 206 488H204.874C204.783 487.645 204.644 487.31 204.465 487H206C206.552 487 207 486.552 207 486C207 485.448 206.552 485 206 485H200Z" fill="#374151"/>
<rect x="193" y="528" width="20" height="20" fill="white"/>
<path fill-rule="evenodd" clip-rule="evenodd" d="M203 546C207.418 546 211 542.418 211 538C211 533.582 207.418 530 203 530C198.582 530 195 533.582 195 538C195 542.418 198.582 546 203 546ZM200 537H198V539H200V537ZM208 537H206V539H208V537ZM202 537H204V539H202V537Z" fill="#374151"/>
<rect x="193" y="576" width="20" height="20" fill="white"/>
<path fill-rule="evenodd" clip-rule="evenodd" d="M211 589V581C211 579.895 210.105 579 209 579H197C195.895 579 195 579.895 195 581V589C195 590.105 195.895 591 197 591H200L203 594L206 591H209C210.105 591 211 590.105 211 589ZM198 583C198 582.448 198.448 582 199 582H207C207.552 582 208 582.448 208 583C208 583.552 207.552 584 207 584H199C198.448 584 198 583.552 198 583ZM199 586C198.448 586 198 586.448 198 587C198 587.552 198.448 588 199 588H202C202.552 588 203 587.552 203 587C203 586.448 202.552 586 202 586H199Z" fill="#374151"/>
<rect x="193" y="624" width="20" height="20" fill="white"/>
<path fill-rule="evenodd" clip-rule="evenodd" d="M205.293 629.293C205.683 628.902 206.317 628.902 206.707 629.293L210.707 633.293C211.098 633.683 211.098 634.317 210.707 634.707L206.707 638.707C206.317 639.098 205.683 639.098 205.293 638.707C204.902 638.317 204.902 637.683 205.293 637.293L207.586 635H196C195.448 635 195 634.552 195 634C195 633.448 195.448 633 196 633H207.586L205.293 630.707C204.902 630.317 204.902 629.683 205.293 629.293Z" fill="#374151"/>
<rect x="241" width="20" height="20" fill="white"/>
<path fill-rule="evenodd" clip-rule="evenodd" d="M251 1.94434C248.915 3.81021 246.174 4.95797 243.166 4.99878C243.057 5.64956 243 6.31809 243 6.99991C243 12.2248 246.339 16.6697 251 18.317C255.661 16.6697 259 12.2248 259 6.99991C259 6.31809 258.943 5.64956 258.834 4.99878C255.826 4.95797 253.085 3.81021 251 1.94434ZM252 13.9999C252 14.5522 251.552 14.9999 251 14.9999C250.448 14.9999 250 14.5522 250 13.9999C250 13.4476 250.448 12.9999 251 12.9999C251.552 12.9999 252 13.4476 252 13.9999ZM252 6.99988C252 6.44759 251.552 5.99988 251 5.99988C250.448 5.99988 250 6.44759 250 6.99988V9.99988C250 10.5522 250.448 10.9999 251 10.9999C251.552 10.9999 252 10.5522 252 9.99988V6.99988Z" fill="#374151"/>
<rect x="241" y="48" width="20" height="20" fill="white"/>
<path fill-rule="evenodd" clip-rule="evenodd" d="M251 50C251.552 50 252 50.4477 252 51V52.323L255.954 53.9047L257.553 53.1056C258.047 52.8586 258.647 53.0588 258.894 53.5528C259.141 54.0468 258.941 54.6474 258.447 54.8944L257.214 55.511L258.952 60.9307C259.073 61.3065 258.961 61.718 258.667 61.9812C257.96 62.614 257.024 63 256 63C254.976 63 254.04 62.614 253.333 61.9812C253.039 61.718 252.927 61.3065 253.048 60.9307L254.763 55.5823L252 54.477V64H254C254.552 64 255 64.4477 255 65C255 65.5523 254.552 66 254 66H248C247.448 66 247 65.5523 247 65C247 64.4477 247.448 64 248 64H250V54.477L247.237 55.5823L248.952 60.9307C249.073 61.3065 248.961 61.718 248.667 61.9812C247.96 62.614 247.024 63 246 63C244.976 63 244.04 62.614 243.333 61.9812C243.039 61.718 242.927 61.3065 243.048 60.9307L244.786 55.511L243.553 54.8944C243.059 54.6474 242.859 54.0468 243.106 53.5528C243.353 53.0588 243.953 52.8586 244.447 53.1056L246.046 53.9047L250 52.323V51C250 50.4477 250.448 50 251 50ZM246 58.2745L245.182 60.8258C245.431 60.9378 245.708 61 246 61C246.292 61 246.569 60.9378 246.818 60.8258L246 58.2745ZM256 58.2745L255.182 60.8258C255.431 60.9378 255.708 61 256 61C256.292 61 256.569 60.9378 256.818 60.8258L256 58.2745Z" fill="#374151"/>
<rect x="241" y="96" width="20" height="20" fill="white"/>
<path fill-rule="evenodd" clip-rule="evenodd" d="M245 99C243.895 99 243 99.8954 243 101V111C243 112.105 243.895 113 245 113H257C258.105 113 259 112.105 259 111V101C259 99.8954 258.105 99 257 99H245ZM257 111H245L249 103L252 109L254 105L257 111Z" fill="#374151"/>
<rect x="241" y="144" width="20" height="20" fill="white"/>
<path d="M246 156C246 156.552 246.448 157 247 157C247.552 157 248 156.552 248 156L248 150.414L249.293 151.707C249.683 152.098 250.317 152.098 250.707 151.707C251.098 151.317 251.098 150.683 250.707 150.293L247.707 147.293C247.52 147.105 247.265 147 247 147C246.735 147 246.48 147.105 246.293 147.293L243.293 150.293C242.902 150.683 242.902 151.317 243.293 151.707C243.683 152.098 244.317 152.098 244.707 151.707L246 150.414L246 156Z" fill="#374151"/>
<path d="M256 152C256 151.448 255.552 151 255 151C254.448 151 254 151.448 254 152L254 157.586L252.707 156.293C252.317 155.902 251.683 155.902 251.293 156.293C250.902 156.683 250.902 157.317 251.293 157.707L254.293 160.707C254.48 160.895 254.735 161 255 161C255.265 161 255.52 160.895 255.707 160.707L258.707 157.707C259.098 157.317 259.098 156.683 258.707 156.293C258.317 155.902 257.683 155.902 257.293 156.293L256 157.586L256 152Z" fill="#374151"/>
<rect x="241" y="192" width="20" height="20" fill="white"/>
<path fill-rule="evenodd" clip-rule="evenodd" d="M245 196C245 194.895 245.895 194 247 194H251.586C252.116 194 252.625 194.211 253 194.586L256.414 198C256.789 198.375 257 198.884 257 199.414V208C257 209.105 256.105 210 255 210H247C245.895 210 245 209.105 245 208V196Z" fill="#374151"/>
<rect x="241" y="240" width="20" height="20" fill="white"/>
<path fill-rule="evenodd" clip-rule="evenodd" d="M251 258C255.418 258 259 254.418 259 250C259 245.582 255.418 242 251 242C246.582 242 243 245.582 243 250C243 254.418 246.582 258 251 258ZM245.332 248.027C245.705 246.954 246.376 246.019 247.244 245.321C247.512 245.73 247.974 246 248.5 246C249.328 246 250 246.671 250 247.5V248C250 249.104 250.895 250 252 250C253.105 250 254 249.104 254 248C254 247.06 254.649 246.271 255.523 246.057C256.443 247.112 257 248.491 257 250C257 250.341 256.972 250.675 256.917 251H256C254.895 251 254 251.896 254 253V255.197C253.117 255.708 252.093 256 251 256V254C251 252.895 250.104 252 249 252C247.895 252 247 251.105 247 250C247 249.008 246.278 248.185 245.332 248.027Z" fill="#374151"/>
<rect x="241" y="288" width="20" height="20" fill="white"/>
<path fill-rule="evenodd" clip-rule="evenodd" d="M253 301C252.448 301 252 301.448 252 302C252 302.552 252.448 303 253 303H258C258.552 303 259 302.552 259 302V297C259 296.448 258.552 296 258 296C257.448 296 257 296.448 257 297V299.586L252.707 295.293C252.317 294.902 251.683 294.902 251.293 295.293L249 297.586L244.707 293.293C244.317 292.902 243.683 292.902 243.293 293.293C242.902 293.683 242.902 294.317 243.293 294.707L248.293 299.707C248.683 300.098 249.317 300.098 249.707 299.707L252 297.414L255.586 301H253Z" fill="#374151"/>
<rect x="241" y="336" width="20" height="20" fill="white"/>
<path fill-rule="evenodd" clip-rule="evenodd" d="M251 354C255.418 354 259 350.418 259 346C259 341.582 255.418 338 251 338C246.582 338 243 341.582 243 346C243 350.418 246.582 354 251 354ZM252 343C252 342.448 251.552 342 251 342C250.448 342 250 342.448 250 343L250 346.586L248.707 345.293C248.317 344.902 247.683 344.902 247.293 345.293C246.902 345.683 246.902 346.317 247.293 346.707L250.293 349.707C250.683 350.098 251.317 350.098 251.707 349.707L254.707 346.707C255.098 346.317 255.098 345.683 254.707 345.293C254.317 344.902 253.683 344.902 253.293 345.293L252 346.586V343Z" fill="#374151"/>
<rect x="241" y="384" width="20" height="20" fill="white"/>
<path fill-rule="evenodd" clip-rule="evenodd" d="M259 394C259 398.418 255.418 402 251 402C246.582 402 243 398.418 243 394C243 389.582 246.582 386 251 386C255.418 386 259 389.582 259 394ZM253 391C253 392.105 252.105 393 251 393C249.895 393 249 392.105 249 391C249 389.895 249.895 389 251 389C252.105 389 253 389.895 253 391ZM251 395C248.982 395 247.244 396.195 246.454 397.916C247.554 399.192 249.183 400 251 400C252.817 400 254.446 399.192 255.546 397.916C254.756 396.195 253.018 395 251 395Z" fill="#374151"/>
<rect x="241" y="432" width="20" height="20" fill="white"/>
<path d="M243 436C243 435.448 243.448 435 244 435H246C246.552 435 247 435.448 247 436V448C247 448.552 246.552 449 246 449H244C243.448 449 243 448.552 243 448V436Z" fill="#374151"/>
<path d="M249 436C249 435.448 249.448 435 250 435H252C252.552 435 253 435.448 253 436V448C253 448.552 252.552 449 252 449H250C249.448 449 249 448.552 249 448V436Z" fill="#374151"/>
<path d="M256 435C255.448 435 255 435.448 255 436V448C255 448.552 255.448 449 256 449H258C258.552 449 259 448.552 259 448V436C259 435.448 258.552 435 258 435H256Z" fill="#374151"/>
<rect x="241" y="480" width="20" height="20" fill="white"/>
<path fill-rule="evenodd" clip-rule="evenodd" d="M246.293 487.293C246.683 486.902 247.317 486.902 247.707 487.293L251 490.586L254.293 487.293C254.683 486.902 255.317 486.902 255.707 487.293C256.098 487.683 256.098 488.317 255.707 488.707L251.707 492.707C251.317 493.098 250.683 493.098 250.293 492.707L246.293 488.707C245.902 488.317 245.902 487.683 246.293 487.293Z" fill="#374151"/>
<rect x="241" y="528" width="20" height="20" fill="white"/>
<path fill-rule="evenodd" clip-rule="evenodd" d="M250.243 531.03C250.778 531.164 251.104 531.707 250.97 532.243L250.531 534H253.469L254.03 531.757C254.164 531.222 254.707 530.896 255.243 531.03C255.778 531.164 256.104 531.707 255.97 532.243L255.531 534H258C258.552 534 259 534.448 259 535C259 535.552 258.552 536 258 536H255.031L254.031 540H256C256.552 540 257 540.448 257 541C257 541.552 256.552 542 256 542H253.531L252.97 544.243C252.836 544.778 252.293 545.104 251.757 544.97C251.222 544.836 250.896 544.293 251.03 543.757L251.469 542H248.531L247.97 544.243C247.836 544.778 247.293 545.104 246.757 544.97C246.222 544.836 245.896 544.293 246.03 543.757L246.469 542H244C243.448 542 243 541.552 243 541C243 540.448 243.448 540 244 540H246.969L247.969 536H246C245.448 536 245 535.552 245 535C245 534.448 245.448 534 246 534H248.469L249.03 531.757C249.164 531.222 249.707 530.896 250.243 531.03ZM250.031 536L249.031 540H251.969L252.969 536H250.031Z" fill="#374151"/>
<rect x="241" y="576" width="20" height="20" fill="white"/>
<path fill-rule="evenodd" clip-rule="evenodd" d="M244 582C244 580.343 245.343 579 247 579H257C257.379 579 257.725 579.214 257.894 579.553C258.064 579.892 258.027 580.297 257.8 580.6L255.25 584L257.8 587.4C258.027 587.703 258.064 588.108 257.894 588.447C257.725 588.786 257.379 589 257 589H247C246.448 589 246 589.448 246 590V593C246 593.552 245.552 594 245 594C244.448 594 244 593.552 244 593V582Z" fill="#374151"/>
<rect x="241" y="624" width="20" height="20" fill="white"/>
<path fill-rule="evenodd" clip-rule="evenodd" d="M255.707 636.293C256.098 636.683 256.098 637.317 255.707 637.707L251.707 641.707C251.317 642.098 250.683 642.098 250.293 641.707L246.293 637.707C245.902 637.317 245.902 636.683 246.293 636.293C246.683 635.902 247.317 635.902 247.707 636.293L250 638.586L250 627C250 626.448 250.448 626 251 626C251.552 626 252 626.448 252 627L252 638.586L254.293 636.293C254.683 635.902 255.317 635.902 255.707 636.293Z" fill="#374151"/>
<rect x="289" width="20" height="20" fill="white"/>
<path fill-rule="evenodd" clip-rule="evenodd" d="M300.489 3.17094C300.11 1.60969 297.89 1.60969 297.511 3.17094C297.266 4.17949 296.11 4.65811 295.224 4.11809C293.852 3.28212 292.282 4.85218 293.118 6.22416C293.658 7.11045 293.179 8.26594 292.171 8.51078C290.61 8.8898 290.61 11.1102 292.171 11.4892C293.179 11.7341 293.658 12.8896 293.118 13.7758C292.282 15.1478 293.852 16.7179 295.224 15.8819C296.11 15.3419 297.266 15.8205 297.511 16.8291C297.89 18.3903 300.11 18.3903 300.489 16.8291C300.734 15.8205 301.89 15.3419 302.776 15.8819C304.148 16.7179 305.718 15.1478 304.882 13.7758C304.342 12.8896 304.821 11.7341 305.829 11.4892C307.39 11.1102 307.39 8.8898 305.829 8.51078C304.821 8.26594 304.342 7.11045 304.882 6.22416C305.718 4.85218 304.148 3.28212 302.776 4.11809C301.89 4.65811 300.734 4.17949 300.489 3.17094ZM299 13C300.657 13 302 11.6569 302 10C302 8.34315 300.657 7 299 7C297.343 7 296 8.34315 296 10C296 11.6569 297.343 13 299 13Z" fill="#374151"/>
<rect x="289" y="48" width="20" height="20" fill="white"/>
<path d="M306.414 50.5858C305.633 49.8047 304.367 49.8047 303.586 50.5858L296 58.1716V61H298.828L306.414 53.4142C307.195 52.6332 307.195 51.3668 306.414 50.5858Z" fill="#374151"/>
<path fill-rule="evenodd" clip-rule="evenodd" d="M291 54C291 52.8954 291.895 52 293 52H297C297.552 52 298 52.4477 298 53C298 53.5523 297.552 54 297 54H293V64H303V60C303 59.4477 303.448 59 304 59C304.552 59 305 59.4477 305 60V64C305 65.1046 304.105 66 303 66H293C291.895 66 291 65.1046 291 64V54Z" fill="#374151"/>
<rect x="289" y="96" width="20" height="20" fill="white"/>
<path fill-rule="evenodd" clip-rule="evenodd" d="M306.707 105.293C307.098 105.683 307.098 106.317 306.707 106.707L299.707 113.707C299.317 114.098 298.683 114.098 298.293 113.707L291.293 106.707C291.098 106.512 291 106.256 291 106V101C291 99.3431 292.343 98 294 98H299C299.256 98.0001 299.512 98.0977 299.707 98.2929L306.707 105.293ZM294 102C294.552 102 295 101.552 295 101C295 100.448 294.552 100 294 100C293.448 100 293 100.448 293 101C293 101.552 293.448 102 294 102Z" fill="#374151"/>
<rect x="289" y="144" width="20" height="20" fill="white"/>
<path d="M297 149C296.448 149 296 149.448 296 150C296 150.552 296.448 151 297 151L302.586 151L301.293 152.293C300.902 152.683 300.902 153.317 301.293 153.707C301.683 154.098 302.317 154.098 302.707 153.707L305.707 150.707C305.895 150.52 306 150.265 306 150C306 149.735 305.895 149.48 305.707 149.293L302.707 146.293C302.317 145.902 301.683 145.902 301.293 146.293C300.902 146.683 300.902 147.317 301.293 147.707L302.586 149L297 149Z" fill="#374151"/>
<path d="M301 159C301.552 159 302 158.552 302 158C302 157.448 301.552 157 301 157L295.414 157L296.707 155.707C297.098 155.317 297.098 154.683 296.707 154.293C296.317 153.902 295.683 153.902 295.293 154.293L292.293 157.293C292.105 157.48 292 157.735 292 158C292 158.265 292.105 158.52 292.293 158.707L295.293 161.707C295.683 162.098 296.317 162.098 296.707 161.707C297.098 161.317 297.098 160.683 296.707 160.293L295.414 159L301 159Z" fill="#374151"/>
<rect x="289" y="192" width="20" height="20" fill="white"/>
<path fill-rule="evenodd" clip-rule="evenodd" d="M295 194C293.895 194 293 194.895 293 196V208C293 209.105 293.895 210 295 210H303C304.105 210 305 209.105 305 208V199.414C305 198.884 304.789 198.375 304.414 198L301 194.586C300.625 194.211 300.116 194 299.586 194H295ZM300 200C300 199.448 299.552 199 299 199C298.448 199 298 199.448 298 200V203.586L296.707 202.293C296.317 201.902 295.683 201.902 295.293 202.293C294.902 202.683 294.902 203.317 295.293 203.707L298.293 206.707C298.683 207.098 299.317 207.098 299.707 206.707L302.707 203.707C303.098 203.317 303.098 202.683 302.707 202.293C302.317 201.902 301.683 201.902 301.293 202.293L300 203.586V200Z" fill="#374151"/>
<rect x="289" y="240" width="20" height="20" fill="white"/>
<path fill-rule="evenodd" clip-rule="evenodd" d="M298.383 243.076C298.756 243.231 299 243.596 299 244V256C299 256.404 298.756 256.769 298.383 256.924C298.009 257.079 297.579 256.993 297.293 256.707L293.586 253H291C290.448 253 290 252.552 290 252V248C290 247.448 290.448 247 291 247H293.586L297.293 243.293C297.579 243.007 298.009 242.921 298.383 243.076Z" fill="#374151"/>
<path fill-rule="evenodd" clip-rule="evenodd" d="M303.657 242.929C304.047 242.538 304.681 242.538 305.071 242.929C306.88 244.737 308 247.239 308 250C308 252.761 306.88 255.262 305.071 257.071C304.681 257.462 304.047 257.462 303.657 257.071C303.266 256.68 303.266 256.047 303.657 255.657C305.106 254.208 306 252.209 306 250C306 247.791 305.106 245.792 303.657 244.343C303.266 243.953 303.266 243.319 303.657 242.929ZM300.828 245.757C301.219 245.367 301.852 245.367 302.243 245.757C302.769 246.283 303.198 246.907 303.5 247.6C303.822 248.336 304 249.148 304 250C304 251.657 303.327 253.158 302.243 254.243C301.852 254.633 301.219 254.633 300.828 254.243C300.438 253.852 300.438 253.219 300.828 252.828C301.553 252.103 302 251.105 302 250C302 249.429 301.881 248.889 301.668 248.4C301.466 247.94 301.18 247.523 300.828 247.172C300.438 246.781 300.438 246.148 300.828 245.757Z" fill="#374151"/>
<rect x="289" y="288" width="20" height="20" fill="white"/>
<path fill-rule="evenodd" clip-rule="evenodd" d="M292 291C292 290.448 292.448 290 293 290H305C305.552 290 306 290.448 306 291V294C306 294.265 305.895 294.52 305.707 294.707L301 299.414V303C301 303.265 300.895 303.52 300.707 303.707L298.707 305.707C298.421 305.993 297.991 306.079 297.617 305.924C297.244 305.769 297 305.404 297 305V299.414L292.293 294.707C292.105 294.52 292 294.265 292 294V291Z" fill="#374151"/>
<rect x="289" y="336" width="20" height="20" fill="white"/>
<path fill-rule="evenodd" clip-rule="evenodd" d="M299 354C303.418 354 307 350.418 307 346C307 341.582 303.418 338 299 338C294.582 338 291 341.582 291 346C291 350.418 294.582 354 299 354ZM299.707 343.707C300.098 343.317 300.098 342.683 299.707 342.293C299.317 341.902 298.683 341.902 298.293 342.293L295.293 345.293C294.902 345.683 294.902 346.317 295.293 346.707L298.293 349.707C298.683 350.098 299.317 350.098 299.707 349.707C300.098 349.317 300.098 348.683 299.707 348.293L298.414 347H302C302.552 347 303 346.552 303 346C303 345.448 302.552 345 302 345L298.414 345L299.707 343.707Z" fill="#374151"/>
<rect x="289" y="384" width="20" height="20" fill="white"/>
<path d="M294 392C294 391.448 294.448 391 295 391H296V390C296 389.448 296.448 389 297 389C297.552 389 298 389.448 298 390V391H299C299.552 391 300 391.448 300 392C300 392.552 299.552 393 299 393H298V394C298 394.552 297.552 395 297 395C296.448 395 296 394.552 296 394V393H295C294.448 393 294 392.552 294 392Z" fill="#374151"/>
<path fill-rule="evenodd" clip-rule="evenodd" d="M291 392C291 388.686 293.686 386 297 386C300.314 386 303 388.686 303 392C303 393.296 302.589 394.496 301.891 395.477L306.707 400.293C307.098 400.683 307.098 401.317 306.707 401.707C306.317 402.098 305.683 402.098 305.293 401.707L300.477 396.891C299.496 397.589 298.296 398 297 398C293.686 398 291 395.314 291 392ZM297 388C294.791 388 293 389.791 293 392C293 394.209 294.791 396 297 396C299.209 396 301 394.209 301 392C301 389.791 299.209 388 297 388Z" fill="#374151"/>
<rect x="289" y="432" width="20" height="20" fill="white"/>
<path fill-rule="evenodd" clip-rule="evenodd" d="M297 436C295.343 436 294 437.343 294 439V443C294 445.761 296.239 448 299 448C301.761 448 304 445.761 304 443V439C304 438.448 304.448 438 305 438C305.552 438 306 438.448 306 439V443C306 446.866 302.866 450 299 450C295.134 450 292 446.866 292 443V439C292 436.239 294.239 434 297 434C299.761 434 302 436.239 302 439V443C302 444.657 300.657 446 299 446C297.343 446 296 444.657 296 443V439C296 438.448 296.448 438 297 438C297.552 438 298 438.448 298 439V443C298 443.552 298.448 444 299 444C299.552 444 300 443.552 300 443V439C300 437.343 298.657 436 297 436Z" fill="#374151"/>
<rect x="289" y="480" width="20" height="20" fill="white"/>
<path fill-rule="evenodd" clip-rule="evenodd" d="M296.293 494.707C295.902 494.317 295.902 493.683 296.293 493.293L299.586 490L296.293 486.707C295.902 486.317 295.902 485.683 296.293 485.293C296.683 484.902 297.317 484.902 297.707 485.293L301.707 489.293C302.098 489.683 302.098 490.317 301.707 490.707L297.707 494.707C297.317 495.098 296.683 495.098 296.293 494.707Z" fill="#374151"/>
<rect x="289" y="528" width="20" height="20" fill="white"/>
<path fill-rule="evenodd" clip-rule="evenodd" d="M292 532C292 531.448 292.448 531 293 531H296C296.552 531 297 531.448 297 532V535C297 535.552 296.552 536 296 536H293C292.448 536 292 535.552 292 535V532ZM294 534V533H295V534H294Z" fill="#374151"/>
<path fill-rule="evenodd" clip-rule="evenodd" d="M292 541C292 540.448 292.448 540 293 540H296C296.552 540 297 540.448 297 541V544C297 544.552 296.552 545 296 545H293C292.448 545 292 544.552 292 544V541ZM294 543V542H295V543H294Z" fill="#374151"/>
<path fill-rule="evenodd" clip-rule="evenodd" d="M302 531C301.448 531 301 531.448 301 532V535C301 535.552 301.448 536 302 536H305C305.552 536 306 535.552 306 535V532C306 531.448 305.552 531 305 531H302ZM303 533V534H304V533H303Z" fill="#374151"/>
<path d="M300 532C300 531.448 299.552 531 299 531C298.448 531 298 531.448 298 532V533C298 533.552 298.448 534 299 534C299.552 534 300 533.552 300 533V532Z" fill="#374151"/>
<path d="M299 535C299.552 535 300 535.448 300 536V537H302C302.552 537 303 537.448 303 538C303 538.552 302.552 539 302 539H299C298.448 539 298 538.552 298 538V536C298 535.448 298.448 535 299 535Z" fill="#374151"/>
<path d="M305 537C304.448 537 304 537.448 304 538C304 538.552 304.448 539 305 539C305.552 539 306 538.552 306 538C306 537.448 305.552 537 305 537Z" fill="#374151"/>
<path d="M298 541C298 540.448 298.448 540 299 540H300C300.552 540 301 540.448 301 541C301 541.552 300.552 542 300 542V544C300 544.552 299.552 545 299 545C298.448 545 298 544.552 298 544V541Z" fill="#374151"/>
<path d="M296 539C296.552 539 297 538.552 297 538C297 537.448 296.552 537 296 537H293C292.448 537 292 537.448 292 538C292 538.552 292.448 539 293 539H296Z" fill="#374151"/>
<path d="M306 541C306 541.552 305.552 542 305 542H303C302.448 542 302 541.552 302 541C302 540.448 302.448 540 303 540H305C305.552 540 306 540.448 306 541Z" fill="#374151"/>
<path d="M305 545C305.552 545 306 544.552 306 544C306 543.448 305.552 543 305 543H302C301.448 543 301 543.448 301 544C301 544.552 301.448 545 302 545H305Z" fill="#374151"/>
<rect x="289" y="576" width="20" height="20" fill="white"/>
<path d="M296 579C295.448 579 295 579.448 295 580C295 580.552 295.448 581 296 581H302C302.552 581 303 580.552 303 580C303 579.448 302.552 579 302 579H296Z" fill="#374151"/>
<path d="M293 583C293 582.448 293.448 582 294 582H304C304.552 582 305 582.448 305 583C305 583.552 304.552 584 304 584H294C293.448 584 293 583.552 293 583Z" fill="#374151"/>
<path d="M291 587C291 585.895 291.895 585 293 585H305C306.105 585 307 585.895 307 587V591C307 592.105 306.105 593 305 593H293C291.895 593 291 592.105 291 591V587Z" fill="#374151"/>
<rect x="289" y="624" width="20" height="20" fill="white"/>
<path fill-rule="evenodd" clip-rule="evenodd" d="M296.707 638.707C296.317 639.098 295.683 639.098 295.293 638.707L291.293 634.707C290.902 634.317 290.902 633.683 291.293 633.293L295.293 629.293C295.683 628.902 296.317 628.902 296.707 629.293C297.098 629.683 297.098 630.317 296.707 630.707L294.414 633L306 633C306.552 633 307 633.448 307 634C307 634.552 306.552 635 306 635L294.414 635L296.707 637.293C297.098 637.683 297.098 638.317 296.707 638.707Z" fill="#374151"/>
<rect x="337" width="20" height="20" fill="white"/>
<path fill-rule="evenodd" clip-rule="evenodd" d="M353.707 5.29289C354.098 5.68342 354.098 6.31658 353.707 6.70711L345.707 14.7071C345.317 15.0976 344.683 15.0976 344.293 14.7071L340.293 10.7071C339.902 10.3166 339.902 9.68342 340.293 9.29289C340.683 8.90237 341.317 8.90237 341.707 9.29289L345 12.5858L352.293 5.29289C352.683 4.90237 353.317 4.90237 353.707 5.29289Z" fill="#374151"/>
<rect x="337" y="48" width="20" height="20" fill="white"/>
<path d="M350.586 51.5858C351.367 50.8047 352.633 50.8047 353.414 51.5858C354.195 52.3668 354.195 53.6332 353.414 54.4142L352.621 55.2071L349.793 52.3787L350.586 51.5858Z" fill="#374151"/>
<path d="M348.379 53.7929L340 62.1716V65H342.828L351.207 56.6213L348.379 53.7929Z" fill="#374151"/>
<rect x="337" y="96" width="20" height="20" fill="white"/>
<path d="M339 99C339 98.4477 339.448 98 340 98H342.153C342.642 98 343.059 98.3534 343.139 98.8356L343.879 103.271C343.951 103.705 343.732 104.134 343.339 104.33L341.791 105.104C342.908 107.878 345.122 110.092 347.896 111.209L348.67 109.661C348.866 109.268 349.295 109.049 349.729 109.121L354.164 109.861C354.647 109.941 355 110.358 355 110.847V113C355 113.552 354.552 114 354 114H352C344.82 114 339 108.18 339 101V99Z" fill="#374151"/>
<rect x="337" y="144" width="20" height="20" fill="white"/>
<path fill-rule="evenodd" clip-rule="evenodd" d="M341.293 148.293C341.683 147.902 342.317 147.902 342.707 148.293L347 152.586L351.293 148.293C351.683 147.902 352.317 147.902 352.707 148.293C353.098 148.683 353.098 149.317 352.707 149.707L348.414 154L352.707 158.293C353.098 158.683 353.098 159.317 352.707 159.707C352.317 160.098 351.683 160.098 351.293 159.707L347 155.414L342.707 159.707C342.317 160.098 341.683 160.098 341.293 159.707C340.902 159.317 340.902 158.683 341.293 158.293L345.586 154L341.293 149.707C340.902 149.317 340.902 148.683 341.293 148.293Z" fill="#374151"/>
<rect x="337" y="192" width="20" height="20" fill="white"/>
<path fill-rule="evenodd" clip-rule="evenodd" d="M343 194C341.895 194 341 194.895 341 196V208C341 209.105 341.895 210 343 210H351C352.105 210 353 209.105 353 208V199.414C353 198.884 352.789 198.375 352.414 198L349 194.586C348.625 194.211 348.116 194 347.586 194H343ZM348 200C348 199.448 347.552 199 347 199C346.448 199 346 199.448 346 200V202H344C343.448 202 343 202.448 343 203C343 203.552 343.448 204 344 204H346V206C346 206.552 346.448 207 347 207C347.552 207 348 206.552 348 206L348 204H350C350.552 204 351 203.552 351 203C351 202.448 350.552 202 350 202H348V200Z" fill="#374151"/>
<rect x="337" y="240" width="20" height="20" fill="white"/>
<path fill-rule="evenodd" clip-rule="evenodd" d="M346.383 243.076C346.756 243.231 347 243.596 347 244V256C347 256.404 346.756 256.769 346.383 256.924C346.009 257.079 345.579 256.993 345.293 256.707L341.586 253H339C338.448 253 338 252.552 338 252V248C338 247.448 338.448 247 339 247H341.586L345.293 243.293C345.579 243.007 346.009 242.921 346.383 243.076Z" fill="#374151"/>
<path fill-rule="evenodd" clip-rule="evenodd" d="M349.293 247.293C349.683 246.902 350.317 246.902 350.707 247.293L352 248.586L353.293 247.293C353.683 246.902 354.317 246.902 354.707 247.293C355.098 247.683 355.098 248.317 354.707 248.707L353.414 250L354.707 251.293C355.098 251.683 355.098 252.317 354.707 252.707C354.317 253.098 353.683 253.098 353.293 252.707L352 251.414L350.707 252.707C350.317 253.098 349.683 253.098 349.293 252.707C348.902 252.317 348.902 251.683 349.293 251.293L350.586 250L349.293 248.707C348.902 248.317 348.902 247.683 349.293 247.293Z" fill="#374151"/>
<rect x="337" y="288" width="20" height="20" fill="white"/>
<path fill-rule="evenodd" clip-rule="evenodd" d="M351.243 293.757C348.899 291.414 345.101 291.414 342.757 293.757C340.414 296.101 340.414 299.899 342.757 302.243C344.794 304.279 347.933 304.546 350.257 303.041C350.72 302.741 351.34 302.873 351.64 303.336C351.94 303.8 351.808 304.419 351.344 304.719C348.244 306.727 344.061 306.374 341.343 303.657C338.219 300.533 338.219 295.467 341.343 292.343C344.467 289.219 349.533 289.219 352.657 292.343C354.219 293.905 355 295.954 355 298C355 299.657 353.657 301 352 301C351.325 301 350.701 300.777 350.2 300.4C349.47 301.372 348.309 302 347 302C344.791 302 343 300.209 343 298C343 295.791 344.791 294 347 294C349.209 294 351 295.791 351 298C351 298.552 351.448 299 352 299C352.552 299 353 298.552 353 298C353 296.463 352.414 294.929 351.243 293.757ZM349 298C349 296.895 348.105 296 347 296C345.895 296 345 296.895 345 298C345 299.105 345.895 300 347 300C348.105 300 349 299.105 349 298Z" fill="#374151"/>
<rect x="337" y="336" width="20" height="20" fill="white"/>
<path fill-rule="evenodd" clip-rule="evenodd" d="M347 354C351.418 354 355 350.418 355 346C355 341.582 351.418 338 347 338C342.582 338 339 341.582 339 346C339 350.418 342.582 354 347 354ZM350.707 345.293L347.707 342.293C347.317 341.902 346.683 341.902 346.293 342.293L343.293 345.293C342.902 345.683 342.902 346.317 343.293 346.707C343.683 347.098 344.317 347.098 344.707 346.707L346 345.414L346 349C346 349.552 346.448 350 347 350C347.552 350 348 349.552 348 349V345.414L349.293 346.707C349.683 347.098 350.317 347.098 350.707 346.707C351.098 346.317 351.098 345.683 350.707 345.293Z" fill="#374151"/>
<rect x="337" y="384" width="20" height="20" fill="white"/>
<path fill-rule="evenodd" clip-rule="evenodd" d="M345 388C342.791 388 341 389.791 341 392C341 394.209 342.791 396 345 396C347.209 396 349 394.209 349 392C349 389.791 347.209 388 345 388ZM339 392C339 388.686 341.686 386 345 386C348.314 386 351 388.686 351 392C351 393.296 350.589 394.496 349.891 395.477L354.707 400.293C355.098 400.683 355.098 401.317 354.707 401.707C354.317 402.098 353.683 402.098 353.293 401.707L348.477 396.891C347.496 397.589 346.296 398 345 398C341.686 398 339 395.314 339 392Z" fill="#374151"/>
<path fill-rule="evenodd" clip-rule="evenodd" d="M342 392C342 391.448 342.448 391 343 391H347C347.552 391 348 391.448 348 392C348 392.552 347.552 393 347 393H343C342.448 393 342 392.552 342 392Z" fill="#374151"/>
<rect x="337" y="432" width="20" height="20" fill="white"/>
<path fill-rule="evenodd" clip-rule="evenodd" d="M347 450C351.418 450 355 446.418 355 442C355 437.582 351.418 434 347 434C342.582 434 339 437.582 339 442C339 446.418 342.582 450 347 450ZM344 441C344.552 441 345 440.552 345 440C345 439.448 344.552 439 344 439C343.448 439 343 439.448 343 440C343 440.552 343.448 441 344 441ZM351 440C351 440.552 350.552 441 350 441C349.448 441 349 440.552 349 440C349 439.448 349.448 439 350 439C350.552 439 351 439.448 351 440ZM350.536 445.535C350.926 445.145 350.926 444.512 350.536 444.121C350.145 443.731 349.512 443.731 349.121 444.121C347.95 445.293 346.05 445.293 344.879 444.121C344.488 443.731 343.855 443.731 343.464 444.121C343.074 444.512 343.074 445.145 343.464 445.535C345.417 447.488 348.583 447.488 350.536 445.535Z" fill="#374151"/>
<rect x="337" y="480" width="20" height="20" fill="white"/>
<path fill-rule="evenodd" clip-rule="evenodd" d="M351.707 492.707C351.317 493.098 350.683 493.098 350.293 492.707L347 489.414L343.707 492.707C343.317 493.098 342.683 493.098 342.293 492.707C341.902 492.317 341.902 491.683 342.293 491.293L346.293 487.293C346.683 486.902 347.317 486.902 347.707 487.293L351.707 491.293C352.098 491.683 352.098 492.317 351.707 492.707Z" fill="#374151"/>
<rect x="337" y="528" width="20" height="20" fill="white"/>
<path d="M346 530C345.448 530 345 530.448 345 531C345 531.552 345.448 532 346 532H348C348.552 532 349 531.552 349 531C349 530.448 348.552 530 348 530H346Z" fill="#374151"/>
<path fill-rule="evenodd" clip-rule="evenodd" d="M341 533C341 531.895 341.895 531 343 531C343 532.657 344.343 534 346 534H348C349.657 534 351 532.657 351 531C352.105 531 353 531.895 353 533V544C353 545.105 352.105 546 351 546H343C341.895 546 341 545.105 341 544V533ZM350.707 538.707C351.098 538.317 351.098 537.683 350.707 537.293C350.317 536.902 349.683 536.902 349.293 537.293L346 540.586L344.707 539.293C344.317 538.902 343.683 538.902 343.293 539.293C342.902 539.683 342.902 540.317 343.293 540.707L345.293 542.707C345.683 543.098 346.317 543.098 346.707 542.707L350.707 538.707Z" fill="#374151"/>
<rect x="337" y="576" width="20" height="20" fill="white"/>
<path d="M346 580.804C344.943 580.289 343.755 580 342.5 580C341.245 580 340.057 580.289 339 580.804V590.804C340.057 590.289 341.245 590 342.5 590C344.169 590 345.718 590.511 347 591.385C348.282 590.511 349.831 590 351.5 590C352.755 590 353.943 590.289 355 590.804V580.804C353.943 580.289 352.755 580 351.5 580C350.245 580 349.057 580.289 348 580.804V588C348 588.552 347.552 589 347 589C346.448 589 346 588.552 346 588V580.804Z" fill="#374151"/>
<rect x="337" y="624" width="20" height="20" fill="white"/>
<path d="M340 628C340 627.448 340.448 627 341 627H353C353.552 627 354 627.448 354 628V630C354 630.552 353.552 631 353 631H341C340.448 631 340 630.552 340 630V628Z" fill="#374151"/>
<path d="M340 634C340 633.448 340.448 633 341 633H347C347.552 633 348 633.448 348 634V640C348 640.552 347.552 641 347 641H341C340.448 641 340 640.552 340 640V634Z" fill="#374151"/>
<path d="M351 633C350.448 633 350 633.448 350 634V640C350 640.552 350.448 641 351 641H353C353.552 641 354 640.552 354 640V634C354 633.448 353.552 633 353 633H351Z" fill="#374151"/>
<rect x="385" width="20" height="20" fill="white"/>
<path fill-rule="evenodd" clip-rule="evenodd" d="M392 2C392.552 2 393 2.44772 393 3V4H393.732C393.744 3.99979 393.756 3.99979 393.768 4H396C396.552 4 397 4.44772 397 5C397 5.55228 396.552 6 396 6H394.578C394.216 7.68748 393.631 9.29154 392.854 10.7796C393.145 11.1338 393.45 11.476 393.768 11.8055C394.151 12.2028 394.14 12.8359 393.743 13.2195C393.345 13.603 392.712 13.5919 392.329 13.1945C392.14 12.9986 391.955 12.7987 391.774 12.5948C390.889 13.9101 389.844 15.1084 388.667 16.1618C388.255 16.5301 387.623 16.4951 387.255 16.0836C386.887 15.672 386.922 15.0398 387.333 14.6715C388.546 13.5858 389.602 12.3288 390.463 10.9389C389.907 10.1499 389.409 9.31652 388.976 8.44503C388.73 7.95045 388.931 7.35027 389.426 7.10449C389.921 6.8587 390.521 7.06039 390.767 7.55497C391 8.02502 391.255 8.48278 391.53 8.92699C391.947 7.99272 392.282 7.01402 392.527 6H388C387.448 6 387 5.55228 387 5C387 4.44772 387.448 4 388 4H391V3C391 2.44772 391.448 2 392 2ZM398 8C398.379 8 398.725 8.214 398.894 8.55279L401.885 14.5348C401.892 14.5471 401.898 14.5596 401.904 14.5722L402.894 16.5528C403.141 17.0468 402.941 17.6474 402.447 17.8944C401.953 18.1414 401.353 17.9412 401.106 17.4472L400.382 16H395.618L394.894 17.4472C394.647 17.9412 394.047 18.1414 393.553 17.8944C393.059 17.6474 392.859 17.0468 393.106 16.5528L394.096 14.5722C394.102 14.5596 394.108 14.5471 394.115 14.5348L397.106 8.55279C397.275 8.214 397.621 8 398 8ZM396.618 14H399.382L398 11.2361L396.618 14Z" fill="#374151"/>
<rect x="385" y="48" width="20" height="20" fill="white"/>
<path d="M395 60C396.105 60 397 59.1046 397 58C397 56.8954 396.105 56 395 56C393.895 56 393 56.8954 393 58C393 59.1046 393.895 60 395 60Z" fill="#374151"/>
<path fill-rule="evenodd" clip-rule="evenodd" d="M385.458 58C386.732 53.9429 390.522 51 395 51C399.478 51 403.268 53.9429 404.542 58C403.268 62.0571 399.478 65 395 65C390.522 65 386.732 62.0571 385.458 58ZM399 58C399 60.2091 397.209 62 395 62C392.791 62 391 60.2091 391 58C391 55.7909 392.791 54 395 54C397.209 54 399 55.7909 399 58Z" fill="#374151"/>
<rect x="385" y="96" width="20" height="20" fill="white"/>
<path d="M402.924 98.6172C402.876 98.5001 402.804 98.3904 402.709 98.295C402.708 98.2936 402.706 98.2922 402.705 98.2908C402.524 98.1111 402.275 98 402 98H398C397.448 98 397 98.4477 397 99C397 99.5523 397.448 100 398 100H399.586L396.293 103.293C395.902 103.683 395.902 104.317 396.293 104.707C396.683 105.098 397.317 105.098 397.707 104.707L401 101.414V103C401 103.552 401.448 104 402 104C402.552 104 403 103.552 403 103V99C403 98.8644 402.973 98.7351 402.924 98.6172Z" fill="#374151"/>
<path d="M387 99C387 98.4477 387.448 98 388 98H390.153C390.642 98 391.059 98.3534 391.139 98.8356L391.879 103.271C391.951 103.705 391.732 104.134 391.339 104.33L389.791 105.104C390.908 107.878 393.122 110.092 395.896 111.209L396.67 109.661C396.866 109.268 397.295 109.049 397.729 109.121L402.164 109.861C402.647 109.941 403 110.358 403 110.847V113C403 113.552 402.552 114 402 114H400C392.82 114 387 108.18 387 101V99Z" fill="#374151"/>
<rect x="385" y="144" width="20" height="20" fill="white"/>
<path fill-rule="evenodd" clip-rule="evenodd" d="M395 147C395.552 147 396 147.448 396 148V153H401C401.552 153 402 153.448 402 154C402 154.552 401.552 155 401 155H396V160C396 160.552 395.552 161 395 161C394.448 161 394 160.552 394 160V155H389C388.448 155 388 154.552 388 154C388 153.448 388.448 153 389 153L394 153V148C394 147.448 394.448 147 395 147Z" fill="#374151"/>
<rect x="385" y="192" width="20" height="20" fill="white"/>
<path fill-rule="evenodd" clip-rule="evenodd" d="M391 194C389.895 194 389 194.895 389 196V208C389 209.105 389.895 210 391 210H399C400.105 210 401 209.105 401 208V199.414C401 198.884 400.789 198.375 400.414 198L397 194.586C396.625 194.211 396.116 194 395.586 194H391ZM392 202C391.448 202 391 202.448 391 203C391 203.552 391.448 204 392 204H398C398.552 204 399 203.552 399 203C399 202.448 398.552 202 398 202H392Z" fill="#374151"/>
<rect x="385" y="240" width="20" height="20" fill="white"/>
<path d="M390 244C390 243.448 389.552 243 389 243C388.448 243 388 243.448 388 244V251.268C387.402 251.613 387 252.26 387 253C387 253.74 387.402 254.387 388 254.732V256C388 256.552 388.448 257 389 257C389.552 257 390 256.552 390 256V254.732C390.598 254.387 391 253.74 391 253C391 252.26 390.598 251.613 390 251.268V244Z" fill="#374151"/>
<path d="M396 244C396 243.448 395.552 243 395 243C394.448 243 394 243.448 394 244V245.268C393.402 245.613 393 246.26 393 247C393 247.74 393.402 248.387 394 248.732V256C394 256.552 394.448 257 395 257C395.552 257 396 256.552 396 256V248.732C396.598 248.387 397 247.74 397 247C397 246.26 396.598 245.613 396 245.268V244Z" fill="#374151"/>
<path d="M401 243C401.552 243 402 243.448 402 244V251.268C402.598 251.613 403 252.26 403 253C403 253.74 402.598 254.387 402 254.732V256C402 256.552 401.552 257 401 257C400.448 257 400 256.552 400 256V254.732C399.402 254.387 399 253.74 399 253C399 252.26 399.402 251.613 400 251.268V244C400 243.448 400.448 243 401 243Z" fill="#374151"/>
<rect x="385" y="288" width="20" height="20" fill="white"/>
<path fill-rule="evenodd" clip-rule="evenodd" d="M394 290C393.621 290 393.275 290.214 393.106 290.553L392.382 292H389C388.448 292 388 292.448 388 293C388 293.552 388.448 294 389 294L389 304C389 305.105 389.895 306 391 306H399C400.105 306 401 305.105 401 304V294C401.552 294 402 293.552 402 293C402 292.448 401.552 292 401 292H397.618L396.894 290.553C396.725 290.214 396.379 290 396 290H394ZM392 296C392 295.448 392.448 295 393 295C393.552 295 394 295.448 394 296V302C394 302.552 393.552 303 393 303C392.448 303 392 302.552 392 302V296ZM397 295C396.448 295 396 295.448 396 296V302C396 302.552 396.448 303 397 303C397.552 303 398 302.552 398 302V296C398 295.448 397.552 295 397 295Z" fill="#374151"/>
<rect x="385" y="336" width="20" height="20" fill="white"/>
<path d="M388 339C387.448 339 387 339.448 387 340C387 340.552 387.448 341 388 341H399C399.552 341 400 340.552 400 340C400 339.448 399.552 339 399 339H388Z" fill="#374151"/>
<path d="M388 343C387.448 343 387 343.448 387 344C387 344.552 387.448 345 388 345H393C393.552 345 394 344.552 394 344C394 343.448 393.552 343 393 343H388Z" fill="#374151"/>
<path d="M388 347C387.448 347 387 347.448 387 348C387 348.552 387.448 349 388 349H392C392.552 349 393 348.552 393 348C393 347.448 392.552 347 392 347H388Z" fill="#374151"/>
<path d="M398 352C398 352.552 398.448 353 399 353C399.552 353 400 352.552 400 352L400 346.414L401.293 347.707C401.683 348.098 402.317 348.098 402.707 347.707C403.098 347.317 403.098 346.683 402.707 346.293L399.707 343.293C399.52 343.105 399.265 343 399 343C398.735 343 398.48 343.105 398.293 343.293L395.293 346.293C394.902 346.683 394.902 347.317 395.293 347.707C395.683 348.098 396.317 348.098 396.707 347.707L398 346.414L398 352Z" fill="#374151"/>
<rect x="385" y="384" width="20" height="20" fill="white"/>
<path fill-rule="evenodd" clip-rule="evenodd" d="M393 388C390.791 388 389 389.791 389 392C389 394.209 390.791 396 393 396C395.209 396 397 394.209 397 392C397 389.791 395.209 388 393 388ZM387 392C387 388.686 389.686 386 393 386C396.314 386 399 388.686 399 392C399 393.296 398.589 394.496 397.891 395.477L402.707 400.293C403.098 400.683 403.098 401.317 402.707 401.707C402.317 402.098 401.683 402.098 401.293 401.707L396.477 396.891C395.496 397.589 394.296 398 393 398C389.686 398 387 395.314 387 392Z" fill="#374151"/>
<rect x="385" y="432" width="20" height="20" fill="white"/>
<path fill-rule="evenodd" clip-rule="evenodd" d="M395 450C399.418 450 403 446.418 403 442C403 437.582 399.418 434 395 434C390.582 434 387 437.582 387 442C387 446.418 390.582 450 395 450ZM392 441C392.552 441 393 440.552 393 440C393 439.448 392.552 439 392 439C391.448 439 391 439.448 391 440C391 440.552 391.448 441 392 441ZM399 440C399 440.552 398.552 441 398 441C397.448 441 397 440.552 397 440C397 439.448 397.448 439 398 439C398.552 439 399 439.448 399 440ZM391.464 445.878C391.855 446.269 392.488 446.269 392.879 445.878C394.05 444.707 395.95 444.707 397.121 445.878C397.512 446.269 398.145 446.269 398.536 445.878C398.926 445.488 398.926 444.855 398.536 444.464C396.583 442.512 393.417 442.512 391.464 444.464C391.074 444.855 391.074 445.488 391.464 445.878Z" fill="#374151"/>
<rect x="385" y="480" width="20" height="20" fill="white"/>
<path fill-rule="evenodd" clip-rule="evenodd" d="M397.707 485.293C398.098 485.683 398.098 486.317 397.707 486.707L394.414 490L397.707 493.293C398.098 493.683 398.098 494.317 397.707 494.707C397.317 495.098 396.683 495.098 396.293 494.707L392.293 490.707C391.902 490.317 391.902 489.683 392.293 489.293L396.293 485.293C396.683 484.902 397.317 484.902 397.707 485.293Z" fill="#374151"/>
<rect x="385" y="528" width="20" height="20" fill="white"/>
<path d="M394 530C393.448 530 393 530.448 393 531C393 531.552 393.448 532 394 532H396C396.552 532 397 531.552 397 531C397 530.448 396.552 530 396 530H394Z" fill="#374151"/>
<path fill-rule="evenodd" clip-rule="evenodd" d="M389 533C389 531.895 389.895 531 391 531C391 532.657 392.343 534 394 534H396C397.657 534 399 532.657 399 531C400.105 531 401 531.895 401 533V544C401 545.105 400.105 546 399 546H391C389.895 546 389 545.105 389 544V533ZM392 537C391.448 537 391 537.448 391 538C391 538.552 391.448 539 392 539H392.01C392.562 539 393.01 538.552 393.01 538C393.01 537.448 392.562 537 392.01 537H392ZM395 537C394.448 537 394 537.448 394 538C394 538.552 394.448 539 395 539H398C398.552 539 399 538.552 399 538C399 537.448 398.552 537 398 537H395ZM392 541C391.448 541 391 541.448 391 542C391 542.552 391.448 543 392 543H392.01C392.562 543 393.01 542.552 393.01 542C393.01 541.448 392.562 541 392.01 541H392ZM395 541C394.448 541 394 541.448 394 542C394 542.552 394.448 543 395 543H398C398.552 543 399 542.552 399 542C399 541.448 398.552 541 398 541H395Z" fill="#374151"/>
<rect x="385" y="576" width="20" height="20" fill="white"/>
<path fill-rule="evenodd" clip-rule="evenodd" d="M397.316 579.051C397.84 579.226 398.123 579.792 397.949 580.316L393.949 592.316C393.774 592.84 393.208 593.123 392.684 592.949C392.16 592.774 391.877 592.208 392.051 591.684L396.051 579.684C396.226 579.16 396.792 578.877 397.316 579.051ZM390.707 582.293C391.098 582.683 391.098 583.317 390.707 583.707L388.414 586L390.707 588.293C391.098 588.683 391.098 589.317 390.707 589.707C390.317 590.098 389.683 590.098 389.293 589.707L386.293 586.707C385.902 586.317 385.902 585.683 386.293 585.293L389.293 582.293C389.683 581.902 390.317 581.902 390.707 582.293ZM399.293 582.293C399.683 581.902 400.317 581.902 400.707 582.293L403.707 585.293C404.098 585.683 404.098 586.317 403.707 586.707L400.707 589.707C400.317 590.098 399.683 590.098 399.293 589.707C398.902 589.317 398.902 588.683 399.293 588.293L401.586 586L399.293 583.707C398.902 583.317 398.902 582.683 399.293 582.293Z" fill="#374151"/>
<rect x="385" y="624" width="20" height="20" fill="white"/>
<path fill-rule="evenodd" clip-rule="evenodd" d="M392.707 627.293C393.098 627.683 393.098 628.317 392.707 628.707L390.414 631H396C399.866 631 403 634.134 403 638V640C403 640.552 402.552 641 402 641C401.448 641 401 640.552 401 640V638C401 635.239 398.761 633 396 633H390.414L392.707 635.293C393.098 635.683 393.098 636.317 392.707 636.707C392.317 637.098 391.683 637.098 391.293 636.707L387.293 632.707C386.902 632.317 386.902 631.683 387.293 631.293L391.293 627.293C391.683 626.902 392.317 626.902 392.707 627.293Z" fill="#374151"/>
<rect x="433" width="20" height="20" fill="white"/>
<path fill-rule="evenodd" clip-rule="evenodd" d="M437 4C435.895 4 435 4.89543 435 6V10C435 11.1046 435.895 12 437 12L437 6H447C447 4.89543 446.105 4 445 4H437ZM439 10C439 8.89543 439.895 8 441 8H449C450.105 8 451 8.89543 451 10V14C451 15.1046 450.105 16 449 16H441C439.895 16 439 15.1046 439 14V10ZM445 14C446.105 14 447 13.1046 447 12C447 10.8954 446.105 10 445 10C443.895 10 443 10.8954 443 12C443 13.1046 443.895 14 445 14Z" fill="#374151"/>
<rect x="433" y="48" width="20" height="20" fill="white"/>
<path d="M438 52C438 50.8954 438.895 50 440 50H446C447.105 50 448 50.8954 448 52V66L443 63.5L438 66V52Z" fill="#374151"/>
<rect x="433" y="96" width="20" height="20" fill="white"/>
<path d="M447.414 103L450.707 99.7071C451.098 99.3166 451.098 98.6834 450.707 98.2929C450.317 97.9024 449.683 97.9024 449.293 98.2929L446 101.586V100C446 99.4477 445.552 99 445 99C444.448 99 444 99.4477 444 100V103.999C444 104 444 104.002 444 104.003C444 104.137 444.027 104.266 444.076 104.383C444.124 104.498 444.194 104.606 444.286 104.701C444.291 104.705 444.295 104.709 444.299 104.714C444.394 104.806 444.502 104.876 444.617 104.924C444.735 104.973 444.864 105 445 105H449C449.552 105 450 104.552 450 104C450 103.448 449.552 103 449 103H447.414Z" fill="#374151"/>
<path d="M435 99C435 98.4477 435.448 98 436 98H438.153C438.642 98 439.059 98.3534 439.139 98.8356L439.879 103.271C439.951 103.705 439.732 104.134 439.339 104.33L437.791 105.104C438.908 107.878 441.122 110.092 443.896 111.209L444.67 109.661C444.866 109.268 445.295 109.049 445.729 109.121L450.164 109.861C450.647 109.941 451 110.358 451 110.847V113C451 113.552 450.552 114 450 114H448C440.82 114 435 108.18 435 101V99Z" fill="#374151"/>
<rect x="433" y="144" width="20" height="20" fill="white"/>
<path fill-rule="evenodd" clip-rule="evenodd" d="M437 146C437.552 146 438 146.448 438 147V149.101C439.27 147.805 441.041 147 443 147C446.049 147 448.641 148.949 449.601 151.667C449.785 152.187 449.513 152.759 448.992 152.943C448.471 153.127 447.9 152.854 447.716 152.333C447.029 150.39 445.175 149 443 149C441.365 149 439.912 149.785 438.999 151H442C442.552 151 443 151.448 443 152C443 152.552 442.552 153 442 153H437C436.448 153 436 152.552 436 152V147C436 146.448 436.448 146 437 146ZM437.008 155.057C437.529 154.873 438.1 155.146 438.284 155.667C438.971 157.61 440.825 159 443 159C444.635 159 446.088 158.215 447.001 157L444 157C443.448 157 443 156.552 443 156C443 155.448 443.448 155 444 155H449C449.265 155 449.52 155.105 449.707 155.293C449.895 155.48 450 155.735 450 156V161C450 161.552 449.552 162 449 162C448.448 162 448 161.552 448 161V158.899C446.73 160.195 444.959 161 443 161C439.951 161 437.359 159.051 436.399 156.333C436.215 155.813 436.487 155.241 437.008 155.057Z" fill="#374151"/>
<rect x="433" y="192" width="20" height="20" fill="white"/>
<path fill-rule="evenodd" clip-rule="evenodd" d="M439 194C438.448 194 438 194.448 438 195V196H437C435.895 196 435 196.895 435 198V208C435 209.105 435.895 210 437 210H449C450.105 210 451 209.105 451 208V198C451 196.895 450.105 196 449 196H448V195C448 194.448 447.552 194 447 194C446.448 194 446 194.448 446 195V196H440V195C440 194.448 439.552 194 439 194ZM439 199C438.448 199 438 199.448 438 200C438 200.552 438.448 201 439 201H447C447.552 201 448 200.552 448 200C448 199.448 447.552 199 447 199H439Z" fill="#374151"/>
<rect x="433" y="240" width="20" height="20" fill="white"/>
<path fill-rule="evenodd" clip-rule="evenodd" d="M445.586 244.586C446.367 243.805 447.633 243.805 448.414 244.586C449.195 245.367 449.195 246.633 448.414 247.414L445.414 250.414C444.633 251.195 443.367 251.195 442.586 250.414C442.195 250.024 441.562 250.024 441.172 250.414C440.781 250.805 440.781 251.438 441.172 251.828C442.734 253.391 445.266 253.391 446.828 251.828L449.828 248.828C451.391 247.266 451.391 244.734 449.828 243.172C448.266 241.609 445.734 241.609 444.172 243.172L442.672 244.672C442.281 245.062 442.281 245.695 442.672 246.086C443.062 246.476 443.695 246.476 444.086 246.086L445.586 244.586ZM440.586 249.586C441.367 248.805 442.633 248.805 443.414 249.586C443.805 249.976 444.438 249.976 444.828 249.586C445.219 249.195 445.219 248.562 444.828 248.172C443.266 246.609 440.734 246.609 439.172 248.172L436.172 251.172C434.609 252.734 434.609 255.266 436.172 256.828C437.734 258.391 440.266 258.391 441.828 256.828L443.328 255.328C443.719 254.938 443.719 254.305 443.328 253.914C442.938 253.524 442.305 253.524 441.914 253.914L440.414 255.414C439.633 256.195 438.367 256.195 437.586 255.414C436.805 254.633 436.805 253.367 437.586 252.586L440.586 249.586Z" fill="#374151"/>
<rect x="433" y="288" width="20" height="20" fill="white"/>
<path fill-rule="evenodd" clip-rule="evenodd" d="M451 298C451 302.418 447.418 306 443 306C438.582 306 435 302.418 435 298C435 293.582 438.582 290 443 290C447.418 290 451 293.582 451 298ZM444 294C444 294.552 443.552 295 443 295C442.448 295 442 294.552 442 294C442 293.448 442.448 293 443 293C443.552 293 444 293.448 444 294ZM442 297C441.448 297 441 297.448 441 298C441 298.552 441.448 299 442 299V302C442 302.552 442.448 303 443 303H444C444.552 303 445 302.552 445 302C445 301.448 444.552 301 444 301V298C444 297.448 443.552 297 443 297H442Z" fill="#374151"/>
<rect x="433" y="336" width="20" height="20" fill="white"/>
<path d="M436 339C435.448 339 435 339.448 435 340C435 340.552 435.448 341 436 341H447C447.552 341 448 340.552 448 340C448 339.448 447.552 339 447 339H436Z" fill="#374151"/>
<path d="M436 343C435.448 343 435 343.448 435 344C435 344.552 435.448 345 436 345H443C443.552 345 444 344.552 444 344C444 343.448 443.552 343 443 343H436Z" fill="#374151"/>
<path d="M436 347C435.448 347 435 347.448 435 348C435 348.552 435.448 349 436 349H440C440.552 349 441 348.552 441 348C441 347.448 440.552 347 440 347H436Z" fill="#374151"/>
<path d="M448 344C448 343.448 447.552 343 447 343C446.448 343 446 343.448 446 344L446 349.586L444.707 348.293C444.317 347.902 443.683 347.902 443.293 348.293C442.902 348.683 442.902 349.317 443.293 349.707L446.293 352.707C446.48 352.895 446.735 353 447 353C447.265 353 447.52 352.895 447.707 352.707L450.707 349.707C451.098 349.317 451.098 348.683 450.707 348.293C450.317 347.902 449.683 347.902 449.293 348.293L448 349.586L448 344Z" fill="#374151"/>
<rect x="433" y="384" width="20" height="20" fill="white"/>
<path d="M441 393C442.657 393 444 391.657 444 390C444 388.343 442.657 387 441 387C439.343 387 438 388.343 438 390C438 391.657 439.343 393 441 393Z" fill="#374151"/>
<path d="M441 395C444.314 395 447 397.686 447 401H435C435 397.686 437.686 395 441 395Z" fill="#374151"/>
<path d="M449 391C449 390.448 448.552 390 448 390C447.448 390 447 390.448 447 391V392H446C445.448 392 445 392.448 445 393C445 393.552 445.448 394 446 394H447V395C447 395.552 447.448 396 448 396C448.552 396 449 395.552 449 395V394H450C450.552 394 451 393.552 451 393C451 392.448 450.552 392 450 392H449V391Z" fill="#374151"/>
<rect x="433" y="432" width="20" height="20" fill="white"/>
<path fill-rule="evenodd" clip-rule="evenodd" d="M438 436V439H437C435.895 439 435 439.895 435 441V444C435 445.105 435.895 446 437 446H438V448C438 449.105 438.895 450 440 450H446C447.105 450 448 449.105 448 448V446H449C450.105 446 451 445.105 451 444V441C451 439.895 450.105 439 449 439H448V436C448 434.895 447.105 434 446 434H440C438.895 434 438 434.895 438 436ZM446 436H440V439H446V436ZM446 444H440V448H446V444Z" fill="#374151"/>
<rect x="433" y="480" width="20" height="20" fill="white"/>
<path fill-rule="evenodd" clip-rule="evenodd" d="M443 483C443.265 483 443.52 483.105 443.707 483.293L446.707 486.293C447.098 486.683 447.098 487.317 446.707 487.707C446.317 488.098 445.683 488.098 445.293 487.707L443 485.414L440.707 487.707C440.317 488.098 439.683 488.098 439.293 487.707C438.902 487.317 438.902 486.683 439.293 486.293L442.293 483.293C442.48 483.105 442.735 483 443 483ZM439.293 492.293C439.683 491.902 440.317 491.902 440.707 492.293L443 494.586L445.293 492.293C445.683 491.902 446.317 491.902 446.707 492.293C447.098 492.683 447.098 493.317 446.707 493.707L443.707 496.707C443.317 497.098 442.683 497.098 442.293 496.707L439.293 493.707C438.902 493.317 438.902 492.683 439.293 492.293Z" fill="#374151"/>
<rect x="433" y="528" width="20" height="20" fill="white"/>
<path d="M441 531C441 530.448 441.448 530 442 530H444C444.552 530 445 530.448 445 531C445 531.552 444.552 532 444 532H442C441.448 532 441 531.552 441 531Z" fill="#374151"/>
<path d="M439 531C437.895 531 437 531.895 437 533V544C437 545.105 437.895 546 439 546H447C448.105 546 449 545.105 449 544V533C449 531.895 448.105 531 447 531C447 532.657 445.657 534 444 534H442C440.343 534 439 532.657 439 531Z" fill="#374151"/>
<rect x="433" y="576" width="20" height="20" fill="white"/>
<path fill-rule="evenodd" clip-rule="evenodd" d="M444.301 577.046C444.717 577.178 445 577.564 445 578V583L449 583C449.373 583 449.715 583.208 449.887 583.538C450.059 583.869 450.033 584.268 449.819 584.574L442.819 594.574C442.569 594.931 442.116 595.085 441.699 594.954C441.283 594.823 441 594.437 441 594L441 589H437C436.627 589 436.285 588.793 436.113 588.462C435.941 588.131 435.967 587.732 436.181 587.427L443.181 577.427C443.431 577.069 443.884 576.915 444.301 577.046Z" fill="#374151"/>
<rect x="433" y="624" width="20" height="20" fill="white"/>
<path d="M444 627C444 626.448 443.552 626 443 626C442.448 626 442 626.448 442 627V628C442 628.552 442.448 629 443 629C443.552 629 444 628.552 444 628V627Z" fill="#374151"/>
<path d="M448.657 629.757C449.047 629.367 449.047 628.734 448.657 628.343C448.266 627.953 447.633 627.953 447.243 628.343L446.535 629.05C446.145 629.441 446.145 630.074 446.535 630.464C446.926 630.855 447.559 630.855 447.95 630.464L448.657 629.757Z" fill="#374151"/>
<path d="M451 634C451 634.552 450.552 635 450 635H449C448.448 635 448 634.552 448 634C448 633.448 448.448 633 449 633H450C450.552 633 451 633.448 451 634Z" fill="#374151"/>
<path d="M438.05 630.464C438.441 630.855 439.074 630.855 439.464 630.464C439.855 630.074 439.855 629.441 439.464 629.05L438.757 628.343C438.367 627.953 437.734 627.953 437.343 628.343C436.953 628.734 436.953 629.367 437.343 629.757L438.05 630.464Z" fill="#374151"/>
<path d="M438 634C438 634.552 437.552 635 437 635H436C435.448 635 435 634.552 435 634C435 633.448 435.448 633 436 633H437C437.552 633 438 633.448 438 634Z" fill="#374151"/>
<path d="M441 640V639H445V640C445 641.105 444.105 642 443 642C441.895 642 441 641.105 441 640Z" fill="#374151"/>
<path d="M445.001 638C445.015 637.66 445.208 637.354 445.477 637.141C446.405 636.409 447 635.274 447 634C447 631.791 445.209 630 443 630C440.791 630 439 631.791 439 634C439 635.274 439.595 636.409 440.523 637.141C440.792 637.354 440.985 637.66 440.999 638H445.001Z" fill="#374151"/>
</svg>
