<svg width="20" height="20" viewBox="0 0 20 20" fill="none" xmlns="http://www.w3.org/2000/svg">
<path fill-rule="evenodd" clip-rule="evenodd" d="M10 5C10.4142 5 10.75 5.33579 10.75 5.75V12.3879L12.7094 10.2302C12.9965 9.93159 13.4713 9.92228 13.7698 10.2094C14.0684 10.4965 14.0777 10.9713 13.7906 11.2698L10.5406 14.7698C10.3992 14.9169 10.204 15 10 15C9.79599 15 9.60078 14.9169 9.45938 14.7698L6.20938 11.2698C5.92228 10.9713 5.93159 10.4965 6.23017 10.2094C6.52875 9.92228 7.00353 9.93159 7.29063 10.2302L9.25 12.3879V5.75C9.25 5.33579 9.58579 5 10 5Z" fill="#0F172A"/>
</svg>
