<svg width="20" height="20" viewBox="0 0 20 20" fill="none" xmlns="http://www.w3.org/2000/svg">
<path fill-rule="evenodd" clip-rule="evenodd" d="M18 10C18 10.4142 17.6642 10.75 17.25 10.75L4.6599 10.75L6.76034 12.7004C7.06387 12.9823 7.08145 13.4568 6.79959 13.7603C6.51774 14.0639 6.04319 14.0815 5.73966 13.7996L2.23966 10.5496C2.08684 10.4077 2 10.2086 2 10C2 9.79145 2.08684 9.59232 2.23966 9.45041L5.73966 6.20041C6.0432 5.91856 6.51774 5.93613 6.79959 6.23966C7.08145 6.5432 7.06387 7.01775 6.76034 7.2996L4.6599 9.25L17.25 9.25C17.6642 9.25 18 9.58579 18 10Z" fill="#0F172A"/>
</svg>
