<svg width="20" height="20" viewBox="0 0 20 20" fill="none" xmlns="http://www.w3.org/2000/svg">
<path d="M4.28033 3.21967C3.98744 2.92678 3.51256 2.92678 3.21967 3.21967C2.92678 3.51256 2.92678 3.98744 3.21967 4.28033L14.4393 15.5H6.75C6.33579 15.5 6 15.8358 6 16.25C6 16.6642 6.33579 17 6.75 17H16.25C16.3517 17 16.4487 16.9798 16.5371 16.9431C16.6235 16.9073 16.7047 16.8547 16.7754 16.7852C16.7787 16.782 16.782 16.7787 16.7852 16.7754C16.8547 16.7047 16.9073 16.6235 16.9431 16.5371C16.9798 16.4487 17 16.3517 17 16.25V6.75C17 6.33579 16.6642 6 16.25 6C15.8358 6 15.5 6.33579 15.5 6.75V14.4393L4.28033 3.21967Z" fill="#0F172A"/>
</svg>
