<svg width="20" height="20" viewBox="0 0 20 20" fill="none" xmlns="http://www.w3.org/2000/svg">
<path fill-rule="evenodd" clip-rule="evenodd" d="M18 10C18 10.4142 17.6642 10.75 17.25 10.75L4.61208 10.75L9.76983 15.7094C10.0684 15.9965 10.0777 16.4713 9.79062 16.7698C9.50353 17.0684 9.02875 17.0777 8.73017 16.7906L2.23017 10.5406C2.08311 10.3992 2 10.204 2 10C2 9.79599 2.08311 9.60078 2.23017 9.45938L8.73017 3.20938C9.02875 2.92228 9.50353 2.93159 9.79062 3.23017C10.0777 3.52875 10.0684 4.00353 9.76983 4.29063L4.61208 9.25L17.25 9.25C17.6642 9.25 18 9.58579 18 10Z" fill="#0F172A"/>
</svg>
