<svg width="20" height="20" viewBox="0 0 20 20" fill="none" xmlns="http://www.w3.org/2000/svg">
<path fill-rule="evenodd" clip-rule="evenodd" d="M10 2C10.4142 2 10.75 2.33579 10.75 2.75L10.75 15.3879L15.7094 10.2302C15.9965 9.93159 16.4713 9.92228 16.7698 10.2094C17.0684 10.4965 17.0777 10.9713 16.7906 11.2698L10.5406 17.7698C10.3992 17.9169 10.204 18 10 18C9.79599 18 9.60078 17.9169 9.45938 17.7698L3.20938 11.2698C2.92228 10.9713 2.93159 10.4965 3.23017 10.2094C3.52875 9.92228 4.00353 9.93159 4.29063 10.2302L9.25 15.3879L9.25 2.75C9.25 2.33579 9.58579 2 10 2Z" fill="#0F172A"/>
</svg>
