<svg width="20" height="20" viewBox="0 0 20 20" fill="none" xmlns="http://www.w3.org/2000/svg">
<path fill-rule="evenodd" clip-rule="evenodd" d="M10 18C9.58579 18 9.25 17.6642 9.25 17.25L9.25 4.61208L4.29062 9.76983C4.00353 10.0684 3.52875 10.0777 3.23017 9.79063C2.93159 9.50353 2.92228 9.02875 3.20937 8.73017L9.45937 2.23017C9.60078 2.08311 9.79598 2 10 2C10.204 2 10.3992 2.08311 10.5406 2.23017L16.7906 8.73017C17.0777 9.02875 17.0684 9.50353 16.7698 9.79062C16.4713 10.0777 15.9965 10.0684 15.7094 9.76983L10.75 4.61208L10.75 17.25C10.75 17.6642 10.4142 18 10 18Z" fill="#0F172A"/>
</svg>
