<svg width="20" height="20" viewBox="0 0 20 20" fill="none" xmlns="http://www.w3.org/2000/svg">
<path fill-rule="evenodd" clip-rule="evenodd" d="M10 18C14.4183 18 18 14.4183 18 10C18 5.58172 14.4183 2 10 2C5.58172 2 2 5.58172 2 10C2 14.4183 5.58172 18 10 18ZM10.75 6.75C10.75 6.33579 10.4142 6 10 6C9.58579 6 9.25 6.33579 9.25 6.75V11.3401L7.29959 9.23966C7.01774 8.93613 6.54319 8.91855 6.23966 9.20041C5.93613 9.48226 5.91855 9.95681 6.20041 10.2603L9.45041 13.7603C9.59231 13.9132 9.79145 14 10 14C10.2086 14 10.4077 13.9132 10.5496 13.7603L13.7996 10.2603C14.0814 9.95681 14.0639 9.48226 13.7603 9.20041C13.4568 8.91855 12.9823 8.93613 12.7004 9.23966L10.75 11.3401V6.75Z" fill="#0F172A"/>
</svg>
