<svg width="20" height="20" viewBox="0 0 20 20" fill="none" xmlns="http://www.w3.org/2000/svg">
<path fill-rule="evenodd" clip-rule="evenodd" d="M10 17C9.58579 17 9.25 16.6642 9.25 16.25L9.25 5.61208L5.29062 9.76983C5.00353 10.0684 4.52875 10.0777 4.23017 9.79063C3.93159 9.50353 3.92228 9.02875 4.20937 8.73017L9.45937 3.23017C9.60078 3.08311 9.79598 3 10 3C10.204 3 10.3992 3.08311 10.5406 3.23017L15.7906 8.73017C16.0777 9.02875 16.0684 9.50353 15.7698 9.79062C15.4713 10.0777 14.9965 10.0684 14.7094 9.76983L10.75 5.61208L10.75 16.25C10.75 16.6642 10.4142 17 10 17Z" fill="#0F172A"/>
</svg>
