<svg width="20" height="20" viewBox="0 0 20 20" fill="none" xmlns="http://www.w3.org/2000/svg">
<path fill-rule="evenodd" clip-rule="evenodd" d="M15.3124 11.4236C14.5262 14.3576 11.5104 16.0988 8.57632 15.3127C7.6073 15.053 6.77026 14.5514 6.11054 13.8904L5.799 13.5789L8.23223 13.5785C8.64644 13.5784 8.98217 13.2425 8.98209 12.8283C8.98202 12.4141 8.64617 12.0784 8.23196 12.0785L3.98853 12.0792C3.78961 12.0792 3.59886 12.1583 3.45823 12.299C3.3176 12.4397 3.23862 12.6305 3.23866 12.8294L3.23955 17.0712C3.23964 17.4854 3.5755 17.8211 3.98971 17.821C4.40393 17.821 4.73964 17.4851 4.73955 17.0709L4.73904 14.6403L5.0489 14.9501V14.9501C5.88993 15.7926 6.95761 16.4318 8.18809 16.7615C11.9224 17.7621 15.7607 15.5461 16.7613 11.8118C16.8685 11.4117 16.6311 11.0005 16.231 10.8932C15.8309 10.786 15.4196 11.0235 15.3124 11.4236ZM16.5413 7.70119C16.682 7.56051 16.761 7.36971 16.761 7.17078L16.7603 2.92883C16.7602 2.51462 16.4244 2.17889 16.0101 2.17896C15.5959 2.17902 15.2602 2.51487 15.2603 2.92908L15.2607 5.35995L14.9509 5.05013C14.1099 4.20771 13.0419 3.56827 11.8116 3.23859C8.0773 2.238 4.23894 4.45407 3.23835 8.18834C3.13114 8.58844 3.36858 8.99969 3.76867 9.1069C4.16877 9.2141 4.58003 8.97666 4.68723 8.57657C5.47341 5.6425 8.48927 3.9013 11.4233 4.68748C12.3924 4.94714 13.2295 5.44881 13.8892 6.10979L14.2003 6.4209L11.7683 6.4209C11.3541 6.4209 11.0183 6.75669 11.0183 7.1709C11.0183 7.58512 11.3541 7.9209 11.7683 7.9209H16.011C16.2099 7.9209 16.4007 7.84187 16.5413 7.70119Z" fill="#0F172A"/>
</svg>
