<svg width="20" height="20" viewBox="0 0 20 20" fill="none" xmlns="http://www.w3.org/2000/svg">
<path fill-rule="evenodd" clip-rule="evenodd" d="M5.5 2C4.67157 2 4 2.67157 4 3.5V9.5V16.5C4 17.3284 4.67157 18 5.5 18H11C13.7614 18 16 15.7614 16 13C16 11.4359 15.2818 10.0395 14.1572 9.12264C14.6876 8.38423 15 7.4786 15 6.5C15 4.01472 12.9853 2 10.5 2H5.5ZM10.5 8C11.3284 8 12 7.32843 12 6.5C12 5.67157 11.3284 5 10.5 5H7V8H10.5ZM7 11V15H11C12.1046 15 13 14.1046 13 13C13 11.8954 12.1046 11 11 11H10.5H7Z" fill="black"/>
</svg>
