<svg width="20" height="20" viewBox="0 0 20 20" fill="none" xmlns="http://www.w3.org/2000/svg">
<path fill-rule="evenodd" clip-rule="evenodd" d="M4 3.22222C4 2.54721 4.54721 2 5.22222 2H10.5C12.9853 2 15 4.01472 15 6.5C15 7.58574 14.6155 8.58166 13.9752 9.35904C15.1996 10.2182 16 11.6406 16 13.25C16 15.8734 13.8734 18 11.25 18H5.33333C4.59695 18 4 17.403 4 16.6667V3.22222ZM6.5 8.5V4.5H10.5C11.6046 4.5 12.5 5.39543 12.5 6.5C12.5 7.60457 11.6046 8.5 10.5 8.5H6.5ZM6.5 11V15.5H11.25C12.4926 15.5 13.5 14.4926 13.5 13.25C13.5 12.0074 12.4926 11 11.25 11H6.5Z" fill="black"/>
</svg>
