<svg width="20" height="20" viewBox="0 0 20 20" fill="none" xmlns="http://www.w3.org/2000/svg">
<path d="M3 18.25V6.18198L15.5768 18.7588L10 16.0819L4.07455 18.9261C3.84215 19.0377 3.56875 19.0221 3.35057 18.8848C3.13239 18.7475 3 18.5078 3 18.25Z" fill="#0F172A"/>
<path d="M17 3.51661V13.818L4.56818 1.3862C4.68444 1.35141 4.80528 1.32585 4.93005 1.31046C6.5916 1.10551 8.28365 1 10 1C11.7163 1 13.4084 1.10551 15.07 1.31046C16.1942 1.44913 17 2.41374 17 3.51661Z" fill="#0F172A"/>
<path d="M3.28033 2.21967C2.98744 1.92678 2.51256 1.92678 2.21967 2.21967C1.92678 2.51256 1.92678 2.98744 2.21967 3.28033L16.7197 17.7803C17.0126 18.0732 17.4874 18.0732 17.7803 17.7803C18.0732 17.4874 18.0732 17.0126 17.7803 16.7197L3.28033 2.21967Z" fill="#0F172A"/>
</svg>
