<svg width="20" height="20" viewBox="0 0 20 20" fill="none" xmlns="http://www.w3.org/2000/svg">
<path fill-rule="evenodd" clip-rule="evenodd" d="M10 18C14.4183 18 18 14.4183 18 10C18 5.58172 14.4183 2 10 2C5.58172 2 2 5.58172 2 10C2 14.4183 5.58172 18 10 18ZM13.8566 8.19113C14.1002 7.85614 14.0261 7.38708 13.6911 7.14345C13.3561 6.89982 12.8871 6.97388 12.6434 7.30887L9.15969 12.099L7.28033 10.2197C6.98744 9.92678 6.51256 9.92678 6.21967 10.2197C5.92678 10.5126 5.92678 10.9874 6.21967 11.2803L8.71967 13.7803C8.87477 13.9354 9.08999 14.0149 9.30867 13.9977C9.52734 13.9805 9.72754 13.8685 9.85655 13.6911L13.8566 8.19113Z" fill="#0F172A"/>
</svg>
