<svg width="20" height="20" viewBox="0 0 20 20" fill="none" xmlns="http://www.w3.org/2000/svg">
<path fill-rule="evenodd" clip-rule="evenodd" d="M15.2803 9.46967C15.5732 9.76256 15.5732 10.2374 15.2803 10.5303L11.0303 14.7803C10.7374 15.0732 10.2626 15.0732 9.96967 14.7803C9.67678 14.4874 9.67678 14.0126 9.96967 13.7197L13.6893 10L9.96967 6.28033C9.67678 5.98744 9.67678 5.51256 9.96967 5.21967C10.2626 4.92678 10.7374 4.92678 11.0303 5.21967L15.2803 9.46967ZM6.03033 5.21967L10.2803 9.46967C10.5732 9.76256 10.5732 10.2374 10.2803 10.5303L6.03033 14.7803C5.73744 15.0732 5.26256 15.0732 4.96967 14.7803C4.67678 14.4874 4.67678 14.0126 4.96967 13.7197L8.68934 10L4.96967 6.28033C4.67678 5.98744 4.67678 5.51256 4.96967 5.21967C5.26256 4.92678 5.73744 4.92678 6.03033 5.21967Z" fill="#0F172A"/>
</svg>
