<svg width="20" height="20" viewBox="0 0 20 20" fill="none" xmlns="http://www.w3.org/2000/svg">
<path fill-rule="evenodd" clip-rule="evenodd" d="M4.71967 9.46967C4.42678 9.76256 4.42678 10.2374 4.71967 10.5303L8.96967 14.7803C9.26256 15.0732 9.73744 15.0732 10.0303 14.7803C10.3232 14.4874 10.3232 14.0126 10.0303 13.7197L6.31066 10L10.0303 6.28033C10.3232 5.98744 10.3232 5.51256 10.0303 5.21967C9.73744 4.92678 9.26256 4.92678 8.96967 5.21967L4.71967 9.46967ZM13.9697 5.21967L9.71967 9.46967C9.42678 9.76256 9.42678 10.2374 9.71967 10.5303L13.9697 14.7803C14.2626 15.0732 14.7374 15.0732 15.0303 14.7803C15.3232 14.4874 15.3232 14.0126 15.0303 13.7197L11.3107 10L15.0303 6.28033C15.3232 5.98744 15.3232 5.51256 15.0303 5.21967C14.7374 4.92678 14.2626 4.92678 13.9697 5.21967Z" fill="#0F172A"/>
</svg>
