<svg width="20" height="20" viewBox="0 0 20 20" fill="none" xmlns="http://www.w3.org/2000/svg">
<path fill-rule="evenodd" clip-rule="evenodd" d="M15.9875 3.0124C17.1185 3.1311 17.9999 4.08761 17.9999 5.25V11.75C17.9999 12.9926 16.9925 14 15.7499 14H13.4999V7C13.4999 5.61929 12.3806 4.5 10.9999 4.5H8.12793C8.4115 3.69769 9.13721 3.10424 10.0123 3.0124C10.131 1.88145 11.0875 1 12.2499 1H13.7499C14.9123 1 15.8688 1.88145 15.9875 3.0124ZM11.4999 3.25C11.4999 2.83579 11.8357 2.5 12.2499 2.5H13.7499C14.1641 2.5 14.4999 2.83579 14.4999 3.25V3.5H11.4999V3.25Z" fill="#0F172A"/>
<path fill-rule="evenodd" clip-rule="evenodd" d="M2 7C2 6.44771 2.44772 6 3 6H11C11.5523 6 12 6.44772 12 7V17C12 17.5523 11.5523 18 11 18H3C2.44772 18 2 17.5523 2 17V7ZM4 10.25C4 9.83579 4.33579 9.5 4.75 9.5H9.25C9.66421 9.5 10 9.83579 10 10.25C10 10.6642 9.66421 11 9.25 11H4.75C4.33579 11 4 10.6642 4 10.25ZM4 13.75C4 13.3358 4.33579 13 4.75 13H9.25C9.66421 13 10 13.3358 10 13.75C10 14.1642 9.66421 14.5 9.25 14.5H4.75C4.33579 14.5 4 14.1642 4 13.75Z" fill="#0F172A"/>
</svg>
