<svg width="20" height="20" viewBox="0 0 20 20" fill="none" xmlns="http://www.w3.org/2000/svg">
<path d="M11.25 4C11.25 4.69036 10.6904 5.25 10 5.25C9.30964 5.25 8.75 4.69036 8.75 4C8.75 3.30964 9.30964 2.75 10 2.75C10.6904 2.75 11.25 3.30964 11.25 4Z" fill="black"/>
<path d="M3 10C3 9.58579 3.33579 9.25 3.75 9.25H16.25C16.6642 9.25 17 9.58579 17 10C17 10.4142 16.6642 10.75 16.25 10.75H3.75C3.33579 10.75 3 10.4142 3 10Z" fill="black"/>
<path d="M10 17.25C10.6904 17.25 11.25 16.6904 11.25 16C11.25 15.3096 10.6904 14.75 10 14.75C9.30964 14.75 8.75 15.3096 8.75 16C8.75 16.6904 9.30964 17.25 10 17.25Z" fill="black"/>
</svg>
