<svg width="20" height="20" viewBox="0 0 20 20" fill="none" xmlns="http://www.w3.org/2000/svg">
<path d="M7 3.5C7 2.67157 7.67157 2 8.5 2H12.3787C12.7765 2 13.158 2.15804 13.4393 2.43934L16.5607 5.56066C16.842 5.84197 17 6.2235 17 6.62132V12.5C17 13.3284 16.3284 14 15.5 14H14.5V10.6213C14.5 9.82567 14.1839 9.06261 13.6213 8.5L10.5 5.37868C9.93739 4.81607 9.17433 4.5 8.37868 4.5H7V3.5Z" fill="#0F172A"/>
<path d="M4.5 6C3.67157 6 3 6.67157 3 7.5V16.5C3 17.3284 3.67157 18 4.5 18H11.5C12.3284 18 13 17.3284 13 16.5V10.6213C13 10.2235 12.842 9.84197 12.5607 9.56066L9.43934 6.43934C9.15804 6.15804 8.7765 6 8.37868 6H4.5Z" fill="#0F172A"/>
</svg>
