<svg width="20" height="20" viewBox="0 0 20 20" fill="none" xmlns="http://www.w3.org/2000/svg">
<path fill-rule="evenodd" clip-rule="evenodd" d="M4.5 2C3.67157 2 3 2.67157 3 3.5V16.5C3 17.3284 3.67157 18 4.5 18H15.5C16.3284 18 17 17.3284 17 16.5V7.62132C17 7.2235 16.842 6.84197 16.5607 6.56066L12.4393 2.43934C12.158 2.15804 11.7765 2 11.3787 2H4.5ZM12.25 11.75C12.6642 11.75 13 11.4142 13 11C13 10.5858 12.6642 10.25 12.25 10.25H7.75C7.33579 10.25 7 10.5858 7 11C7 11.4142 7.33579 11.75 7.75 11.75H12.25Z" fill="#0F172A"/>
</svg>
