<svg width="20" height="20" viewBox="0 0 20 20" fill="none" xmlns="http://www.w3.org/2000/svg">
<path d="M10 12.5C11.3807 12.5 12.5 11.3807 12.5 10C12.5 8.61929 11.3807 7.5 10 7.5C8.61929 7.5 7.5 8.61929 7.5 10C7.5 11.3807 8.61929 12.5 10 12.5Z" fill="#0F172A"/>
<path fill-rule="evenodd" clip-rule="evenodd" d="M0.664255 10.5904C0.517392 10.2087 0.517518 9.78563 0.66461 9.40408C2.10878 5.65788 5.7433 3 9.99859 3C14.256 3 17.892 5.66051 19.3347 9.40962C19.4816 9.79127 19.4814 10.2144 19.3344 10.5959C17.8902 14.3421 14.2557 17 10.0004 17C5.74298 17 2.10698 14.3395 0.664255 10.5904ZM14.0004 10C14.0004 12.2091 12.2095 14 10.0004 14C7.79123 14 6.00037 12.2091 6.00037 10C6.00037 7.79086 7.79123 6 10.0004 6C12.2095 6 14.0004 7.79086 14.0004 10Z" fill="#0F172A"/>
</svg>
