<svg width="20" height="20" viewBox="0 0 20 20" fill="none" xmlns="http://www.w3.org/2000/svg">
<path fill-rule="evenodd" clip-rule="evenodd" d="M10 2.5C8.69049 2.5 7.47353 2.88645 6.45419 3.55132C6.10725 3.77761 5.64256 3.6798 5.41627 3.33287C5.18998 2.98593 5.28778 2.52123 5.63472 2.29494C6.89038 1.47594 8.39075 1 10 1C14.4183 1 18 4.58172 18 9C18 11.573 17.5678 14.0467 16.7714 16.3514C16.6361 16.7429 16.2091 16.9506 15.8176 16.8153C15.4261 16.6801 15.2184 16.253 15.3537 15.8615C16.0963 13.7123 16.5 11.4041 16.5 9C16.5 5.41015 13.5899 2.5 10 2.5ZM4.33287 4.41627C4.6798 4.64256 4.77761 5.10725 4.55132 5.45419C3.88645 6.47353 3.5 7.69049 3.5 9C3.5 10.6078 3.02491 12.107 2.20723 13.362C1.98111 13.709 1.51646 13.807 1.16942 13.5809C0.822365 13.3548 0.72433 12.8902 0.950448 12.5431C1.61423 11.5243 2 10.3084 2 9C2 7.39075 2.47594 5.89038 3.29495 4.63472C3.52124 4.28778 3.98593 4.18998 4.33287 4.41627ZM10 6.12C8.34315 6.12 7 7.46314 7 9.12C7 9.13378 6.99963 9.14748 6.9989 9.16108C6.96103 11.9169 5.95297 14.4401 4.30165 16.4018C4.0349 16.7187 3.56177 16.7593 3.24488 16.4926C2.92799 16.2258 2.88735 15.7527 3.15409 15.4358C4.61843 13.6962 5.5 11.452 5.5 9C5.5 8.97218 5.50152 8.94471 5.50447 8.91767C5.61028 6.52628 7.58252 4.62 10 4.62C12.4174 4.62 14.3896 6.52613 14.4955 8.91754C14.4985 8.94516 14.5001 8.97323 14.5 9.00166L14.4998 9.0815L14.5 9.11633C14.5 9.12755 14.4999 9.13872 14.4994 9.14983C14.4987 9.24922 14.4971 9.34844 14.4948 9.44749C14.4853 9.86159 14.1418 10.1895 13.7277 10.1799C13.3136 10.1704 12.9857 9.8269 12.9952 9.4128C12.9978 9.30372 12.9993 9.19439 12.9998 9.08481C12.981 7.44426 11.6451 6.12 10 6.12ZM10 8.25C10.4142 8.25 10.75 8.58579 10.75 9C10.75 12.5103 9.56304 15.7455 7.56902 18.3232C7.31558 18.6509 6.84452 18.711 6.5169 18.4576C6.18927 18.2041 6.12913 17.7331 6.38257 17.4054C8.1805 15.0812 9.25 12.1666 9.25 9C9.25 8.58579 9.58579 8.25 10 8.25ZM13.5288 11.9478C13.9346 12.0309 14.1962 12.4273 14.113 12.8331C13.6842 14.9261 12.9112 16.8937 11.8562 18.6738C11.645 19.0302 11.185 19.1478 10.8286 18.9366C10.4723 18.7254 10.3546 18.2654 10.5658 17.9091C11.5374 16.2697 12.2488 14.4585 12.6436 12.532C12.7267 12.1262 13.1231 11.8646 13.5288 11.9478Z" fill="#0F172A"/>
</svg>
