<svg width="20" height="20" viewBox="0 0 20 20" fill="none" xmlns="http://www.w3.org/2000/svg">
<path fill-rule="evenodd" clip-rule="evenodd" d="M3.75 3.00464C2.7835 3.00464 2 3.78814 2 4.75464V15.2546C2 16.2211 2.7835 17.0046 3.75 17.0046H16.25C17.2165 17.0046 18 16.2211 18 15.2546V6.75464C18 5.78814 17.2165 5.00464 16.25 5.00464H11.4142C11.3479 5.00464 11.2843 4.9783 11.2374 4.93142L9.82322 3.5172C9.49503 3.18901 9.04992 3.00464 8.58579 3.00464H3.75ZM10.75 13.2546C10.75 13.6689 10.4142 14.0046 10 14.0046C9.58579 14.0046 9.25001 13.6689 9.25001 13.2546V10.7091L8.30748 11.7564C8.03038 12.0642 7.55617 12.0892 7.24828 11.8121C6.9404 11.535 6.91544 11.0608 7.19254 10.7529L9.44254 8.25291C9.58477 8.09488 9.78739 8.00464 10 8.00464C10.2126 8.00464 10.4152 8.09488 10.5575 8.25291L12.8075 10.7529C13.0846 11.0608 13.0596 11.535 12.7517 11.8121C12.4438 12.0892 11.9696 12.0642 11.6925 11.7564L10.75 10.7091V13.2546Z" fill="#0F172A"/>
</svg>
