<svg width="20" height="20" viewBox="0 0 20 20" fill="none" xmlns="http://www.w3.org/2000/svg">
<path fill-rule="evenodd" clip-rule="evenodd" d="M14.0002 6.00464C14.314 5.58681 14.5 5.06744 14.5 4.50464C14.5 3.12393 13.3807 2.00464 12 2.00464C11.1822 2.00464 10.4561 2.39731 10 3.0044C9.54389 2.39731 8.8178 2.00464 8 2.00464C6.61929 2.00464 5.5 3.12393 5.5 4.50464C5.5 5.06744 5.68597 5.58681 5.99982 6.00464H3.25C2.55964 6.00464 2 6.56428 2 7.25464V7.75464C2 8.44499 2.55964 9.00464 3.25 9.00464H9.25V6.00464H10.75V9.00464H16.75C17.4404 9.00464 18 8.44499 18 7.75464V7.25464C18 6.56428 17.4404 6.00464 16.75 6.00464H14.0002ZM13 4.50464C13 5.05692 12.5523 5.50464 12 5.50464H11L11 4.50464C11 3.95235 11.4477 3.50464 12 3.50464C12.5523 3.50464 13 3.95235 13 4.50464ZM7 4.50464C7 5.05692 7.44772 5.50464 8 5.50464H9V4.50464C9 3.95235 8.55228 3.50464 8 3.50464C7.44772 3.50464 7 3.95235 7 4.50464Z" fill="#0F172A"/>
<path d="M9.25 10.5046H3V15.2546C3 16.7734 4.23122 18.0046 5.75 18.0046H9.25V10.5046Z" fill="#0F172A"/>
<path d="M10.75 18.0046V10.5046H17V15.2546C17 16.7734 15.7688 18.0046 14.25 18.0046H10.75Z" fill="#0F172A"/>
</svg>
