<svg width="20" height="20" viewBox="0 0 20 20" fill="none" xmlns="http://www.w3.org/2000/svg">
<path d="M9.69299 17.9343L9.69024 17.933L9.68396 17.9302L9.66261 17.9204C9.64452 17.9121 9.61881 17.9001 9.58599 17.8846C9.52037 17.8535 9.42625 17.8079 9.3077 17.7481C9.07071 17.6285 8.73543 17.4517 8.33457 17.2192C7.5345 16.755 6.46455 16.0638 5.39091 15.1565C3.26634 13.3611 1 10.6082 1 7C1 4.23858 3.23858 2 6 2C7.6364 2 9.08815 2.78589 10 3.9998C10.9118 2.78589 12.3636 2 14 2C16.7614 2 19 4.23858 19 7C19 10.6082 16.7337 13.3611 14.6091 15.1565C13.5355 16.0638 12.4655 16.755 11.6654 17.2192C11.2646 17.4517 10.9293 17.6285 10.6923 17.7481C10.5737 17.8079 10.4796 17.8535 10.414 17.8846C10.3812 17.9001 10.3555 17.9121 10.3374 17.9204L10.316 17.9302L10.3098 17.933L10.3077 17.934C10.11 18.02 9.89 18.02 9.69299 17.9343Z" fill="#0F172A"/>
</svg>
