<svg width="20" height="20" viewBox="0 0 20 20" fill="none" xmlns="http://www.w3.org/2000/svg">
<path fill-rule="evenodd" clip-rule="evenodd" d="M18 10C18 14.4183 14.4183 18 10 18C5.58172 18 2 14.4183 2 10C2 5.58172 5.58172 2 10 2C14.4183 2 18 5.58172 18 10ZM11 6C11 6.55228 10.5523 7 10 7C9.44771 7 9 6.55228 9 6C9 5.44772 9.44771 5 10 5C10.5523 5 11 5.44772 11 6ZM9 9C8.58579 9 8.25 9.33579 8.25 9.75C8.25 10.1642 8.58579 10.5 9 10.5H9.25338C9.41332 10.5 9.53213 10.6481 9.49743 10.8042L9.03829 12.8704C8.79542 13.9633 9.62706 15 10.7466 15H11C11.4142 15 11.75 14.6642 11.75 14.25C11.75 13.8358 11.4142 13.5 11 13.5H10.7466C10.5867 13.5 10.4679 13.3519 10.5026 13.1958L10.9617 11.1296C11.2046 10.0367 10.3729 9 9.25338 9H9Z" fill="#0F172A"/>
</svg>
