<svg width="20" height="20" viewBox="0 0 20 20" fill="none" xmlns="http://www.w3.org/2000/svg">
<path fill-rule="evenodd" clip-rule="evenodd" d="M8.0498 2.75C8.0498 2.33579 8.38559 2 8.7998 2H16.2498C16.664 2 16.9998 2.33579 16.9998 2.75C16.9998 3.16421 16.664 3.5 16.2498 3.5H13.1181L8.47524 16.5H11.26C11.6742 16.5 12.01 16.8358 12.01 17.25C12.01 17.6642 11.6742 18 11.26 18H3.75C3.33579 18 3 17.6642 3 17.25C3 16.8358 3.33579 16.5 3.75 16.5H6.88245L11.5253 3.5H8.7998C8.38559 3.5 8.0498 3.16421 8.0498 2.75Z" fill="black"/>
</svg>
