<svg width="20" height="20" viewBox="0 0 20 20" fill="none" xmlns="http://www.w3.org/2000/svg">
<path fill-rule="evenodd" clip-rule="evenodd" d="M9 3.5C5.96243 3.5 3.5 5.96243 3.5 9C3.5 12.0376 5.96243 14.5 9 14.5C10.519 14.5 11.893 13.8852 12.8891 12.8891C13.8852 11.893 14.5 10.519 14.5 9C14.5 5.96243 12.0376 3.5 9 3.5ZM2 9C2 5.13401 5.13401 2 9 2C12.866 2 16 5.13401 16 9C16 10.6625 15.4197 12.1906 14.4517 13.3911L17.7803 16.7197C18.0732 17.0126 18.0732 17.4874 17.7803 17.7803C17.4874 18.0732 17.0126 18.0732 16.7197 17.7803L13.3911 14.4517C12.1906 15.4197 10.6625 16 9 16C5.13401 16 2 12.866 2 9Z" fill="#0F172A"/>
</svg>
