<svg width="20" height="20" viewBox="0 0 20 20" fill="none" xmlns="http://www.w3.org/2000/svg">
<path d="M6.875 3.75C6.875 2.9212 7.20424 2.12634 7.79029 1.54029C8.37634 0.95424 9.1712 0.625 10 0.625C10.8288 0.625 11.6237 0.95424 12.2097 1.54029C12.7958 2.12634 13.125 2.9212 13.125 3.75V10.625C13.125 11.4538 12.7958 12.2487 12.2097 12.8347C11.6237 13.4208 10.8288 13.75 10 13.75C9.1712 13.75 8.37634 13.4208 7.79029 12.8347C7.20424 12.2487 6.875 11.4538 6.875 10.625V3.75Z" fill="black"/>
<path d="M5 8.75C5.16576 8.75 5.32473 8.81585 5.44194 8.93306C5.55915 9.05027 5.625 9.20924 5.625 9.375V10.625C5.625 11.7853 6.08594 12.8981 6.90641 13.7186C7.72688 14.5391 8.83968 15 10 15C11.1603 15 12.2731 14.5391 13.0936 13.7186C13.9141 12.8981 14.375 11.7853 14.375 10.625V9.375C14.375 9.20924 14.4408 9.05027 14.5581 8.93306C14.6753 8.81585 14.8342 8.75 15 8.75C15.1658 8.75 15.3247 8.81585 15.4419 8.93306C15.5592 9.05027 15.625 9.20924 15.625 9.375V10.625C15.625 12.0087 15.115 13.3438 14.1926 14.3752C13.2702 15.4066 12.0001 16.0619 10.625 16.2158V18.125H13.125C13.2908 18.125 13.4497 18.1908 13.5669 18.3081C13.6842 18.4253 13.75 18.5842 13.75 18.75C13.75 18.9158 13.6842 19.0747 13.5669 19.1919C13.4497 19.3092 13.2908 19.375 13.125 19.375H6.875C6.70924 19.375 6.55027 19.3092 6.43306 19.1919C6.31585 19.0747 6.25 18.9158 6.25 18.75C6.25 18.5842 6.31585 18.4253 6.43306 18.3081C6.55027 18.1908 6.70924 18.125 6.875 18.125H9.375V16.2158C7.9999 16.0619 6.72976 15.4066 5.80736 14.3752C4.88497 13.3438 4.37502 12.0087 4.375 10.625V9.375C4.375 9.20924 4.44085 9.05027 4.55806 8.93306C4.67527 8.81585 4.83424 8.75 5 8.75Z" fill="black"/>
<path d="M15.8333 15.8333L14.6592 14.6592L4.5075 4.5075L3.33333 3.33333" stroke="black" stroke-width="1.5" stroke-linecap="round" stroke-linejoin="round"/>
</svg>
