<svg width="20" height="20" viewBox="0 0 20 20" fill="none" xmlns="http://www.w3.org/2000/svg">
<path fill-rule="evenodd" clip-rule="evenodd" d="M7.45519 2.00395C7.68518 2.18765 7.78646 2.4889 7.71414 2.77423C7.57443 3.32547 7.5 3.90348 7.5 4.49996C7.5 8.36595 10.634 11.5 14.5 11.5C15.6435 11.5 16.721 11.2263 17.6724 10.7417C17.9347 10.608 18.2509 10.6402 18.4809 10.8239C18.7109 11.0076 18.8122 11.3089 18.7399 11.5942C17.8069 15.2755 14.4725 18 10.5 18C5.80558 18 2 14.1944 2 9.49996C2 6.19139 3.89048 3.32567 6.64671 1.92168C6.909 1.78807 7.22519 1.82025 7.45519 2.00395Z" fill="#0F172A"/>
</svg>
