<svg width="20" height="20" viewBox="0 0 20 20" fill="none" xmlns="http://www.w3.org/2000/svg">
<path fill-rule="evenodd" clip-rule="evenodd" d="M10.3389 2.23663C10.1429 2.07387 9.85709 2.07387 9.66109 2.23663C7.72231 3.84649 5.2685 4.85754 2.58337 4.98607C2.34202 4.99762 2.13593 5.17195 2.10424 5.4115C2.03548 5.93131 2 6.46162 2 7.00022C2 12.1628 5.26004 16.5639 9.83378 18.2573C9.94102 18.297 10.0593 18.297 10.1665 18.2573C14.7401 16.5638 18 12.1628 18 7.00035C18 6.4617 17.9645 5.93135 17.8957 5.41149C17.8641 5.17195 17.658 4.99762 17.4166 4.98607C14.7315 4.85754 12.2777 3.84649 10.3389 2.23663ZM10 6C10.4142 6 10.75 6.33579 10.75 6.75V10.25C10.75 10.6642 10.4142 11 10 11C9.58579 11 9.25 10.6642 9.25 10.25L9.25 6.75C9.25 6.33579 9.58579 6 10 6ZM10 15C10.5523 15 11 14.5523 11 14C11 13.4477 10.5523 13 10 13C9.44772 13 9 13.4477 9 14C9 14.5523 9.44772 15 10 15Z" fill="#0F172A"/>
</svg>
