<svg width="20" height="20" viewBox="0 0 20 20" fill="none" xmlns="http://www.w3.org/2000/svg">
<path fill-rule="evenodd" clip-rule="evenodd" d="M9.66109 2.23681C9.85709 2.07406 10.1429 2.07406 10.3389 2.23681C12.2777 3.84667 14.7315 4.85772 17.4166 4.98625C17.658 4.99781 17.8641 5.17213 17.8957 5.41168C17.9645 5.93153 18 6.46188 18 7.00053C18 12.163 14.7401 16.564 10.1665 18.2574C10.0593 18.2971 9.94102 18.2971 9.83378 18.2574C5.26004 16.5641 2 12.163 2 7.00041C2 6.46181 2.03548 5.9315 2.10424 5.41168C2.13593 5.17213 2.34202 4.99781 2.58337 4.98625C5.2685 4.85772 7.72231 3.84667 9.66109 2.23681ZM13.7659 8.00879C14.0654 7.7226 14.0761 7.24785 13.79 6.9484C13.5038 6.64895 13.029 6.6382 12.7296 6.92438C11.2302 8.35733 9.90877 9.97511 8.8018 11.7413L7.28033 10.2198C6.98744 9.92695 6.51256 9.92695 6.21967 10.2198C5.92678 10.5127 5.92678 10.9876 6.21967 11.2805L8.42031 13.4811C8.58544 13.6463 8.81807 13.7251 9.04957 13.6943C9.28106 13.6635 9.48499 13.5266 9.6012 13.324C10.7303 11.3559 12.1362 9.56635 13.7659 8.00879Z" fill="#0F172A"/>
</svg>
