<svg width="20" height="20" viewBox="0 0 20 20" fill="none" xmlns="http://www.w3.org/2000/svg">
<path d="M16.364 3.63617C16.0711 3.34328 15.5962 3.34328 15.3033 3.63617C15.0104 3.92907 15.0104 4.40394 15.3033 4.69683C18.2322 7.62577 18.2322 12.3745 15.3033 15.3034C15.0104 15.5963 15.0104 16.0712 15.3033 16.3641C15.5962 16.657 16.0711 16.657 16.364 16.3641C19.8787 12.8494 19.8787 7.15089 16.364 3.63617Z" fill="#0F172A"/>
<path d="M4.6967 4.69683C4.98959 4.40394 4.98959 3.92907 4.6967 3.63617C4.40381 3.34328 3.92893 3.34328 3.63604 3.63617C0.12132 7.15089 0.12132 12.8494 3.63604 16.3641C3.92893 16.657 4.40381 16.657 4.6967 16.3641C4.98959 16.0712 4.98959 15.5963 4.6967 15.3034C1.76777 12.3745 1.76777 7.62577 4.6967 4.69683Z" fill="#0F172A"/>
<path d="M12.4749 6.46461C12.7678 6.17171 13.2426 6.17171 13.5355 6.46461C15.4882 8.41723 15.4882 11.5831 13.5355 13.5357C13.2426 13.8286 12.7678 13.8286 12.4749 13.5357C12.182 13.2428 12.182 12.7679 12.4749 12.475C13.8417 11.1082 13.8417 8.8921 12.4749 7.52527C12.182 7.23237 12.182 6.7575 12.4749 6.46461Z" fill="#0F172A"/>
<path d="M7.52513 6.46461C7.81802 6.7575 7.81802 7.23237 7.52513 7.52527C6.15829 8.8921 6.15829 11.1082 7.52513 12.475C7.81802 12.7679 7.81802 13.2428 7.52513 13.5357C7.23223 13.8286 6.75736 13.8286 6.46447 13.5357C4.51184 11.5831 4.51184 8.41723 6.46447 6.46461C6.75736 6.17171 7.23223 6.17171 7.52513 6.46461Z" fill="#0F172A"/>
<path d="M11 10.0001C11 10.5524 10.5523 11.0001 10 11.0001C9.44772 11.0001 9 10.5524 9 10.0001C9 9.44783 9.44772 9.00012 10 9.00012C10.5523 9.00012 11 9.44783 11 10.0001Z" fill="#0F172A"/>
</svg>
