<svg width="20" height="20" viewBox="0 0 20 20" fill="none" xmlns="http://www.w3.org/2000/svg">
<path d="M4.25 4C4.44891 4 4.63968 4.07902 4.78033 4.21967C4.92098 4.36032 5 4.55109 5 4.75V15.25C5 15.664 4.664 16 4.25 16H3.75C3.55109 16 3.36032 15.921 3.21967 15.7803C3.07902 15.6397 3 15.4489 3 15.25V4.75C3 4.55109 3.07902 4.36032 3.21967 4.21967C3.36032 4.07902 3.55109 4 3.75 4H4.25ZM14.712 4.819C14.9392 4.67872 15.1998 4.60164 15.4667 4.59571C15.7337 4.58979 15.9974 4.65524 16.2306 4.7853C16.4638 4.91536 16.6581 5.10532 16.7933 5.33556C16.9286 5.5658 16.9999 5.82797 17 6.095V13.905C17.0001 14.1721 16.9289 14.4344 16.7937 14.6648C16.6585 14.8952 16.4643 15.0853 16.231 15.2155C15.9978 15.3456 15.734 15.4112 15.467 15.4053C15.1999 15.3994 14.9393 15.3223 14.712 15.182L8.389 11.276C8.17149 11.1416 7.99195 10.9538 7.86744 10.7305C7.74292 10.5071 7.67756 10.2557 7.67756 10C7.67756 9.74431 7.74292 9.49286 7.86744 9.26953C7.99195 9.04621 8.17149 8.85842 8.389 8.724L14.712 4.819Z" fill="#0F172A"/>
</svg>
