<svg width="20" height="20" viewBox="0 0 20 20" fill="none" xmlns="http://www.w3.org/2000/svg">
<path d="M15.75 4C15.5511 4 15.3603 4.07902 15.2197 4.21967C15.079 4.36032 15 4.55109 15 4.75V15.25C15 15.664 15.336 16 15.75 16H16.25C16.4489 16 16.6397 15.921 16.7803 15.7803C16.921 15.6397 17 15.4489 17 15.25V4.75C17 4.55109 16.921 4.36032 16.7803 4.21967C16.6397 4.07902 16.4489 4 16.25 4H15.75ZM5.288 4.819C5.06079 4.67872 4.80024 4.60164 4.53328 4.59571C4.26632 4.58979 4.00261 4.65524 3.7694 4.7853C3.53618 4.91536 3.34192 5.10532 3.20666 5.33556C3.0714 5.5658 3.00006 5.82797 3 6.095V13.905C2.99988 14.1721 3.0711 14.4344 3.20628 14.6648C3.34147 14.8952 3.53572 15.0853 3.76896 15.2155C4.00221 15.3456 4.26598 15.4112 4.53303 15.4053C4.80008 15.3994 5.06071 15.3223 5.288 15.182L11.611 11.276C11.8285 11.1416 12.008 10.9538 12.1326 10.7305C12.2571 10.5071 12.3224 10.2557 12.3224 10C12.3224 9.74431 12.2571 9.49286 12.1326 9.26953C12.008 9.04621 11.8285 8.85842 11.611 8.724L5.288 4.819Z" fill="#0F172A"/>
</svg>
