<svg width="20" height="20" viewBox="0 0 20 20" fill="none" xmlns="http://www.w3.org/2000/svg">
<path fill-rule="evenodd" clip-rule="evenodd" d="M4.5 2C3.11929 2 2 3.11929 2 4.5V8.37868C2 9.04172 2.26339 9.67761 2.73223 10.1464L10.2322 17.6464C11.2085 18.6228 12.7915 18.6228 13.7678 17.6464L17.6464 13.7678C18.6228 12.7915 18.6228 11.2085 17.6464 10.2322L10.1464 2.73223C9.67761 2.26339 9.04172 2 8.37868 2H4.5ZM5 6C5.55228 6 6 5.55228 6 5C6 4.44772 5.55228 4 5 4C4.44772 4 4 4.44772 4 5C4 5.55228 4.44772 6 5 6Z" fill="#0F172A"/>
</svg>
