<svg width="20" height="20" viewBox="0 0 20 20" fill="none" xmlns="http://www.w3.org/2000/svg">
<path fill-rule="evenodd" clip-rule="evenodd" d="M4.5 2C3.11929 2 2 3.11929 2 4.5V7.37868C2 8.04172 2.26339 8.67761 2.73223 9.14645L10.2322 16.6464C11.2085 17.6228 12.7915 17.6228 13.7678 16.6464L16.6464 13.7678C17.6228 12.7915 17.6228 11.2085 16.6464 10.2322L9.14645 2.73223C8.67761 2.26339 8.04172 2 7.37868 2H4.5ZM5 6C5.55228 6 6 5.55228 6 5C6 4.44772 5.55228 4 5 4C4.44772 4 4 4.44772 4 5C4 5.55228 4.44772 6 5 6Z" fill="#0F172A"/>
</svg>
