<svg width="20" height="20" viewBox="0 0 20 20" fill="none" xmlns="http://www.w3.org/2000/svg">
<path fill-rule="evenodd" clip-rule="evenodd" d="M4.75 2C5.16421 2 5.5 2.33579 5.5 2.75V9C5.5 11.4853 7.51472 13.5 10 13.5C12.4853 13.5 14.5 11.4853 14.5 9V2.75C14.5 2.33579 14.8358 2 15.25 2C15.6642 2 16 2.33579 16 2.75V9C16 12.3137 13.3137 15 10 15C6.68629 15 4 12.3137 4 9V2.75C4 2.33579 4.33579 2 4.75 2ZM2 17.25C2 16.8358 2.33579 16.5 2.75 16.5H17.25C17.6642 16.5 18 16.8358 18 17.25C18 17.6642 17.6642 18 17.25 18H2.75C2.33579 18 2 17.6642 2 17.25Z" fill="black"/>
</svg>
