<svg width="20" height="20" viewBox="0 0 20 20" fill="none" xmlns="http://www.w3.org/2000/svg">
<path fill-rule="evenodd" clip-rule="evenodd" d="M4.75 2C5.16421 2 5.5 2.33579 5.5 2.75V10C5.5 12.4853 7.51472 14.5 10 14.5C12.4853 14.5 14.5 12.4853 14.5 10V2.75C14.5 2.33579 14.8358 2 15.25 2C15.6642 2 16 2.33579 16 2.75V10C16 13.3137 13.3137 16 10 16C6.68629 16 4 13.3137 4 10V2.75C4 2.33579 4.33579 2 4.75 2Z" fill="black"/>
<path fill-rule="evenodd" clip-rule="evenodd" d="M2.25 18.25C2.25 17.8358 2.58579 17.5 3 17.5H17C17.4142 17.5 17.75 17.8358 17.75 18.25C17.75 18.6642 17.4142 19 17 19H3C2.58579 19 2.25 18.6642 2.25 18.25Z" fill="black"/>
</svg>
