<svg width="20" height="20" viewBox="0 0 20 20" fill="none" xmlns="http://www.w3.org/2000/svg">
<path fill-rule="evenodd" clip-rule="evenodd" d="M5 2C5.55228 2 6 2.44772 6 3V8C6 10.2091 7.79086 12 10 12C12.2091 12 14 10.2091 14 8V3C14 2.44772 14.4477 2 15 2C15.5523 2 16 2.44772 16 3V8C16 11.3137 13.3137 14 10 14C6.68629 14 4 11.3137 4 8V3C4 2.44772 4.44772 2 5 2Z" fill="black"/>
<path fill-rule="evenodd" clip-rule="evenodd" d="M2 17C2 16.4477 2.44772 16 3 16H17C17.5523 16 18 16.4477 18 17C18 17.5523 17.5523 18 17 18H3C2.44772 18 2 17.5523 2 17Z" fill="black"/>
</svg>
