<svg width="20" height="20" viewBox="0 0 20 20" fill="none" xmlns="http://www.w3.org/2000/svg">
<path d="M10 8C11.6569 8 13 6.65685 13 5C13 3.34315 11.6569 2 10 2C8.34315 2 7 3.34315 7 5C7 6.65685 8.34315 8 10 8Z" fill="#0F172A"/>
<path d="M3.46517 14.4935C3.27029 15.0016 3.44435 15.571 3.8742 15.9046C5.56656 17.218 7.69202 18 10.0001 18C12.3106 18 14.438 17.2164 16.1312 15.9006C16.5608 15.5667 16.7345 14.9971 16.5393 14.4892C15.5301 11.8635 12.9842 10 10.0031 10C7.02032 10 4.47329 11.8656 3.46517 14.4935Z" fill="#0F172A"/>
</svg>
