<svg width="20" height="20" viewBox="0 0 20 20" fill="none" xmlns="http://www.w3.org/2000/svg">
<path fill-rule="evenodd" clip-rule="evenodd" d="M10 18C14.4183 18 18 14.4183 18 10C18 5.58172 14.4183 2 10 2C5.58172 2 2 5.58172 2 10C2 14.4183 5.58172 18 10 18ZM8.28033 7.21967C7.98744 6.92678 7.51256 6.92678 7.21967 7.21967C6.92678 7.51256 6.92678 7.98744 7.21967 8.28033L8.93934 10L7.21967 11.7197C6.92678 12.0126 6.92678 12.4874 7.21967 12.7803C7.51256 13.0732 7.98744 13.0732 8.28033 12.7803L10 11.0607L11.7197 12.7803C12.0126 13.0732 12.4874 13.0732 12.7803 12.7803C13.0732 12.4874 13.0732 12.0126 12.7803 11.7197L11.0607 10L12.7803 8.28033C13.0732 7.98744 13.0732 7.51256 12.7803 7.21967C12.4874 6.92678 12.0126 6.92678 11.7197 7.21967L10 8.93934L8.28033 7.21967Z" fill="#0F172A"/>
</svg>
