<svg width="20" height="20" viewBox="0 0 20 20" fill="none" xmlns="http://www.w3.org/2000/svg">
<path fill-rule="evenodd" clip-rule="evenodd" d="M4.28033 3.21967C3.98744 2.92678 3.51256 2.92678 3.21967 3.21967C2.92678 3.51256 2.92678 3.98744 3.21967 4.28033L8.93934 10L3.21967 15.7197C2.92678 16.0126 2.92678 16.4874 3.21967 16.7803C3.51256 17.0732 3.98744 17.0732 4.28033 16.7803L10 11.0607L15.7197 16.7803C16.0126 17.0732 16.4874 17.0732 16.7803 16.7803C17.0732 16.4874 17.0732 16.0126 16.7803 15.7197L11.0607 10L16.7803 4.28033C17.0732 3.98744 17.0732 3.51256 16.7803 3.21967C16.4874 2.92678 16.0126 2.92678 15.7197 3.21967L10 8.93934L4.28033 3.21967Z" fill="#0F172A"/>
</svg>
