<svg xmlns="http://www.w3.org/2000/svg" viewBox="0 0 16 16" fill="currentColor" aria-hidden="true" data-slot="icon">
  <path d="M7.25 13.25V7.5h1.5v5.75a.75.75 0 0 1-1.5 0ZM8.75 2.75V5h.75a.75.75 0 0 1 0 1.5h-3a.75.75 0 0 1 0-1.5h.75V2.75a.75.75 0 0 1 1.5 0ZM2.25 9.5a.75.75 0 0 0 0 1.5h3a.75.75 0 0 0 0-1.5H4.5V2.75a.75.75 0 0 0-1.5 0V9.5h-.75ZM10 10.25a.75.75 0 0 1 .75-.75h.75V2.75a.75.75 0 0 1 1.5 0V9.5h.75a.75.75 0 0 1 0 1.5h-3a.75.75 0 0 1-.75-.75ZM3 12v1.25a.75.75 0 0 0 1.5 0V12H3ZM11.5 13.25V12H13v1.25a.75.75 0 0 1-1.5 0Z"/>
</svg>
