<svg xmlns="http://www.w3.org/2000/svg" viewBox="0 0 16 16" fill="currentColor" aria-hidden="true">
  <path stroke="#0F172A" stroke-linecap="round" stroke-linejoin="round" stroke-width="1.5" d="M3.75 7.75a40.975 40.975 0 0 0 .147 3.72c.08.931.83 1.66 1.763 1.713a40.879 40.879 0 0 0 4.68 0 1.874 1.874 0 0 0 1.763-1.714l.018-.222M3.75 7.75l-2.001 2m2-2 2.002 2M3.879 4.748l.018-.217c.08-.932.83-1.66 1.763-1.714a40.879 40.879 0 0 1 4.68 0 1.874 1.874 0 0 1 1.763 1.714 40.788 40.788 0 0 1 .146 3.719m0 0-1.999-2m2 2 2-2"/>
</svg>
