<svg xmlns="http://www.w3.org/2000/svg" viewBox="0 0 16 16" fill="currentColor" aria-hidden="true" data-slot="icon">
  <path fill-rule="evenodd" d="M2.22 2.22a.75.75 0 0 1 1.06 0L5.5 4.44V2.75a.75.75 0 0 1 1.5 0v3.5a.75.75 0 0 1-.75.75h-3.5a.75.75 0 0 1 0-1.5h1.69L2.22 3.28a.75.75 0 0 1 0-1.06Zm10.5 0a.75.75 0 1 1 1.06 1.06L11.56 5.5h1.69a.75.75 0 0 1 0 1.5h-3.5A.75.75 0 0 1 9 6.25v-3.5a.75.75 0 0 1 1.5 0v1.69l2.22-2.22ZM2.75 9h3.5a.75.75 0 0 1 .75.75v3.5a.75.75 0 0 1-1.5 0v-1.69l-2.22 2.22a.75.75 0 0 1-1.06-1.06l2.22-2.22H2.75a.75.75 0 0 1 0-1.5ZM9 9.75A.75.75 0 0 1 9.75 9h3.5a.75.75 0 0 1 0 1.5h-1.69l2.22 2.22a.75.75 0 1 1-1.06 1.06l-2.22-2.22v1.69a.75.75 0 0 1-1.5 0v-3.5Z" clip-rule="evenodd"/>
</svg>
