<svg xmlns="http://www.w3.org/2000/svg" viewBox="0 0 16 16" fill="currentColor" aria-hidden="true">
  <path fill-rule="evenodd" d="M4.268 14A2 2 0 0 0 6 15h6a2 2 0 0 0 2-2v-3a2 2 0 0 0-1-1.732V11a3 3 0 0 1-3 3H4.268Z" clip-rule="evenodd"/>
  <path fill-rule="evenodd" d="M6.25 6H4a2 2 0 0 0-2 2v3a2 2 0 0 0 2 2h6a2 2 0 0 0 2-2V8a2 2 0 0 0-2-2H7.75v2.94l1.22-1.22a.75.75 0 1 1 1.06 1.06l-2.5 2.5a.75.75 0 0 1-1.06 0l-2.5-2.5a.75.75 0 0 1 1.06-1.06l1.22 1.22V6Z" clip-rule="evenodd"/>
  <path fill-rule="evenodd" d="M7.75 1.75a.75.75 0 0 0-1.5 0V6h1.5V1.75Z" clip-rule="evenodd"/>
</svg>
