<svg xmlns="http://www.w3.org/2000/svg" viewBox="0 0 16 16" fill="currentColor" aria-hidden="true" data-slot="icon">
  <path fill-rule="evenodd" d="M2 2.75A.75.75 0 0 1 2.75 2h9.5a.75.75 0 0 1 0 1.5h-9.5A.75.75 0 0 1 2 2.75ZM2 6.25a.75.75 0 0 1 .75-.75h5.5a.75.75 0 0 1 0 1.5h-5.5A.75.75 0 0 1 2 6.25Zm0 3.5A.75.75 0 0 1 2.75 9h3.5a.75.75 0 0 1 0 1.5h-3.5A.75.75 0 0 1 2 9.75ZM14.78 11.47a.75.75 0 0 1 0 1.06l-2.25 2.25a.75.75 0 0 1-1.06 0l-2.25-2.25a.75.75 0 1 1 1.06-1.06l.97.97V6.75a.75.75 0 0 1 1.5 0v5.69l.97-.97a.75.75 0 0 1 1.06 0Z" clip-rule="evenodd"/>
</svg>
