<svg xmlns="http://www.w3.org/2000/svg" viewBox="0 0 16 16" fill="currentColor" aria-hidden="true" data-slot="icon">
  <path d="M4 7.75A.75.75 0 0 1 4.75 7h5.5a.75.75 0 0 1 .75.75v.5a.75.75 0 0 1-.75.75h-5.5A.75.75 0 0 1 4 8.25v-.5Z"/>
  <path fill-rule="evenodd" d="M3.25 4A2.25 2.25 0 0 0 1 6.25v3.5A2.25 2.25 0 0 0 3.25 12h8.5A2.25 2.25 0 0 0 14 9.75v-.085a1.5 1.5 0 0 0 1-1.415v-.5a1.5 1.5 0 0 0-1-1.415V6.25A2.25 2.25 0 0 0 11.75 4h-8.5ZM2.5 6.25a.75.75 0 0 1 .75-.75h8.5a.75.75 0 0 1 .75.75v3.5a.75.75 0 0 1-.75.75h-8.5a.75.75 0 0 1-.75-.75v-3.5Z" clip-rule="evenodd"/>
</svg>
