<svg xmlns="http://www.w3.org/2000/svg" viewBox="0 0 16 16" fill="currentColor" aria-hidden="true" data-slot="icon">
  <path fill-rule="evenodd" d="M11 3.5v2.257c0 .597.237 1.17.659 1.591l2.733 2.733c.39.39.608.918.608 1.469a2.04 2.04 0 0 1-1.702 2.024C11.573 13.854 9.803 14 8 14s-3.573-.146-5.298-.426A2.04 2.04 0 0 1 1 11.55c0-.551.219-1.08.608-1.47l2.733-2.732A2.25 2.25 0 0 0 5 5.758V3.5h-.25a.75.75 0 0 1 0-1.5h6.5a.75.75 0 0 1 0 1.5H11ZM6.5 5.757V3.5h3v2.257a3.75 3.75 0 0 0 1.098 2.652l.158.158a3.36 3.36 0 0 0-.075.034c-.424.2-.916.194-1.335-.016l-1.19-.595a4.943 4.943 0 0 0-2.07-.52A3.75 3.75 0 0 0 6.5 5.757Z" clip-rule="evenodd"/>
</svg>
