<svg xmlns="http://www.w3.org/2000/svg" viewBox="0 0 16 16" fill="currentColor" aria-hidden="true" data-slot="icon">
  <path d="M11.983 1.364a.75.75 0 0 0-1.281.78c.096.158.184.321.264.489a5.48 5.48 0 0 1-.713.386A2.993 2.993 0 0 0 8 2c-.898 0-1.703.394-2.253 1.02a5.485 5.485 0 0 1-.713-.387c.08-.168.168-.33.264-.489a.75.75 0 1 0-1.28-.78c-.245.401-.45.83-.61 1.278a.75.75 0 0 0 .239.84 7 7 0 0 0 1.422.876A3.01 3.01 0 0 0 5 5c0 .126.072.24.183.3.386.205.796.37 1.227.487-.126.165-.227.35-.297.549A10.418 10.418 0 0 1 3.51 5.5a10.686 10.686 0 0 1-.008-.733.75.75 0 0 0-1.5-.033 12.222 12.222 0 0 0 .041 1.31.75.75 0 0 0 .4.6A11.922 11.922 0 0 0 6.199 7.87c.04.084.088.166.14.243l-.214.031-.027.005c-1.299.207-2.529.622-3.654 1.211a.75.75 0 0 0-.4.6 12.148 12.148 0 0 0 .197 3.443.75.75 0 0 0 1.47-.299 10.551 10.551 0 0 1-.2-2.6c.352-.167.714-.314 1.085-.441-.063.3-.096.614-.096.936 0 2.21 1.567 4 3.5 4s3.5-1.79 3.5-4c0-.322-.034-.636-.097-.937.372.128.734.275 1.085.442a10.703 10.703 0 0 1-.199 2.6.75.75 0 1 0 1.47.3 12.049 12.049 0 0 0 .197-3.443.75.75 0 0 0-.4-.6 11.921 11.921 0 0 0-3.671-1.215l-.011-.002a11.95 11.95 0 0 0-.213-.03c.052-.078.1-.16.14-.244 1.336-.202 2.6-.623 3.755-1.227a.75.75 0 0 0 .4-.6 12.178 12.178 0 0 0 .041-1.31.75.75 0 0 0-1.5.033 11.061 11.061 0 0 1-.008.733c-.815.386-1.688.67-2.602.836-.07-.2-.17-.384-.297-.55.43-.117.842-.282 1.228-.488A.34.34 0 0 0 11 5c0-.22-.024-.435-.069-.642a7 7 0 0 0 1.422-.876.75.75 0 0 0 .24-.84 6.97 6.97 0 0 0-.61-1.278Z"/>
</svg>
