<svg xmlns="http://www.w3.org/2000/svg" viewBox="0 0 16 16" fill="currentColor" aria-hidden="true" data-slot="icon">
  <path fill-rule="evenodd" d="M3.75 2a.75.75 0 0 0 0 1.5H4v9h-.25a.75.75 0 0 0 0 1.5H6a.5.5 0 0 0 .5-.5v-3A.5.5 0 0 1 7 10h2a.5.5 0 0 1 .5.5v3a.5.5 0 0 0 .5.5h2.25a.75.75 0 0 0 0-1.5H12v-9h.25a.75.75 0 0 0 0-1.5h-8.5ZM6.5 4a.5.5 0 0 0-.5.5V5a.5.5 0 0 0 .5.5H7a.5.5 0 0 0 .5-.5v-.5A.5.5 0 0 0 7 4h-.5ZM6 7a.5.5 0 0 1 .5-.5H7a.5.5 0 0 1 .5.5v.5A.5.5 0 0 1 7 8h-.5a.5.5 0 0 1-.5-.5V7Zm3-3a.5.5 0 0 0-.5.5V5a.5.5 0 0 0 .5.5h.5A.5.5 0 0 0 10 5v-.5a.5.5 0 0 0-.5-.5H9Zm-.5 3a.5.5 0 0 1 .5-.5h.5a.5.5 0 0 1 .5.5v.5a.5.5 0 0 1-.5.5H9a.5.5 0 0 1-.5-.5V7Z" clip-rule="evenodd"/>
</svg>
