<svg xmlns="http://www.w3.org/2000/svg" viewBox="0 0 16 16" fill="currentColor" aria-hidden="true" data-slot="icon">
  <path fill-rule="evenodd" d="M1.75 2a.75.75 0 0 0 0 1.5H2v9h-.25a.75.75 0 0 0 0 1.5h1.5a.75.75 0 0 0 .75-.75v-1.5a.75.75 0 0 1 .75-.75h1.5a.75.75 0 0 1 .75.75v1.5c0 .414.336.75.75.75h.5a.75.75 0 0 0 .75-.75V3.5h.25a.75.75 0 0 0 0-1.5h-7.5ZM3.5 5.5A.5.5 0 0 1 4 5h.5a.5.5 0 0 1 .5.5V6a.5.5 0 0 1-.5.5H4a.5.5 0 0 1-.5-.5v-.5Zm.5 2a.5.5 0 0 0-.5.5v.5A.5.5 0 0 0 4 9h.5a.5.5 0 0 0 .5-.5V8a.5.5 0 0 0-.5-.5H4Zm2-2a.5.5 0 0 1 .5-.5H7a.5.5 0 0 1 .5.5V6a.5.5 0 0 1-.5.5h-.5A.5.5 0 0 1 6 6v-.5Zm.5 2A.5.5 0 0 0 6 8v.5a.5.5 0 0 0 .5.5H7a.5.5 0 0 0 .5-.5V8a.5.5 0 0 0-.5-.5h-.5ZM11.5 6a1 1 0 0 0-1 1v6a1 1 0 0 0 1 1h2.75a.75.75 0 0 0 0-1.5H14v-5h.25a.75.75 0 0 0 0-1.5H11.5Zm.5 1.5h.5a.5.5 0 0 1 .5.5v.5a.5.5 0 0 1-.5.5H12a.5.5 0 0 1-.5-.5V8a.5.5 0 0 1 .5-.5Zm0 2.5a.5.5 0 0 0-.5.5v.5a.5.5 0 0 0 .5.5h.5a.5.5 0 0 0 .5-.5v-.5a.5.5 0 0 0-.5-.5H12Z" clip-rule="evenodd"/>
</svg>
