<svg xmlns="http://www.w3.org/2000/svg" viewBox="0 0 16 16" fill="currentColor" aria-hidden="true" data-slot="icon">
  <path d="m4.75 1-.884.884a1.25 1.25 0 1 0 1.768 0L4.75 1ZM11.25 1l-.884.884a1.25 1.25 0 1 0 1.768 0L11.25 1ZM8.884 1.884 8 1l-.884.884a1.25 1.25 0 1 0 1.768 0ZM4 7a2 2 0 0 0-2 2v1.034c.347 0 .694-.056 1.028-.167l.47-.157a4.75 4.75 0 0 1 3.004 0l.47.157a3.25 3.25 0 0 0 2.056 0l.47-.157a4.75 4.75 0 0 1 3.004 0l.47.157c.334.111.681.167 1.028.167V9a2 2 0 0 0-2-2V5.75a.75.75 0 0 0-1.5 0V7H8.75V5.75a.75.75 0 0 0-1.5 0V7H5.5V5.75a.75.75 0 0 0-1.5 0V7ZM14 11.534a4.749 4.749 0 0 1-1.502-.244l-.47-.157a3.25 3.25 0 0 0-2.056 0l-.47.157a4.75 4.75 0 0 1-3.004 0l-.47-.157a3.25 3.25 0 0 0-2.056 0l-.47.157A4.748 4.748 0 0 1 2 11.534V13a1 1 0 0 0 1 1h10a1 1 0 0 0 1-1v-1.466Z"/>
</svg>
