<svg xmlns="http://www.w3.org/2000/svg" viewBox="0 0 16 16" fill="currentColor" aria-hidden="true" data-slot="icon">
  <path fill-rule="evenodd" d="M11.986 3H12a2 2 0 0 1 2 2v6a2 2 0 0 1-1.5 1.937v-2.523a2.5 2.5 0 0 0-.732-1.768L8.354 5.232A2.5 2.5 0 0 0 6.586 4.5H4.063A2 2 0 0 1 6 3h.014A2.25 2.25 0 0 1 8.25 1h1.5a2.25 2.25 0 0 1 2.236 2ZM10.5 4v-.75a.75.75 0 0 0-.75-.75h-1.5a.75.75 0 0 0-.75.75V4h3Z" clip-rule="evenodd"/>
  <path d="M3 6a1 1 0 0 0-1 1v7a1 1 0 0 0 1 1h7a1 1 0 0 0 1-1v-3.586a1 1 0 0 0-.293-.707L7.293 6.293A1 1 0 0 0 6.586 6H3Z"/>
</svg>
