<svg xmlns="http://www.w3.org/2000/svg" viewBox="0 0 16 16" fill="currentColor" aria-hidden="true">
  <path d="M2 7a1 1 0 0 1 1-1h3.586a1 1 0 0 1 .707.293l3.414 3.414a1 1 0 0 1 .293.707V14a1 1 0 0 1-1 1H3a1 1 0 0 1-1-1V7Z"/>
  <path fill-rule="evenodd" d="M12 3h-.014A2.25 2.25 0 0 0 9.75 1h-1.5a2.25 2.25 0 0 0-2.236 2H6a2 2 0 0 0-1.937 1.5h2.523a2.5 2.5 0 0 1 1.768.732l3.414 3.414a2.5 2.5 0 0 1 .732 1.768v2.523A2 2 0 0 0 14 11V5a2 2 0 0 0-2-2Zm-1.5.25V4h-3v-.75a.75.75 0 0 1 .75-.75h1.5a.75.75 0 0 1 .75.75Z" clip-rule="evenodd"/>
</svg>
