<svg xmlns="http://www.w3.org/2000/svg" viewBox="0 0 16 16" fill="currentColor" aria-hidden="true" data-slot="icon">
  <path fill-rule="evenodd" d="M4.78 4.97a.75.75 0 0 1 0 1.06L2.81 8l1.97 1.97a.75.75 0 1 1-1.06 1.06l-2.5-2.5a.75.75 0 0 1 0-1.06l2.5-2.5a.75.75 0 0 1 1.06 0ZM11.22 4.97a.75.75 0 0 0 0 1.06L13.19 8l-1.97 1.97a.75.75 0 1 0 1.06 1.06l2.5-2.5a.75.75 0 0 0 0-1.06l-2.5-2.5a.75.75 0 0 0-1.06 0ZM8.856 2.008a.75.75 0 0 1 .636.848l-1.5 10.5a.75.75 0 0 1-1.484-.212l1.5-10.5a.75.75 0 0 1 .848-.636Z" clip-rule="evenodd"/>
</svg>
