<svg xmlns="http://www.w3.org/2000/svg" viewBox="0 0 16 16" fill="currentColor" aria-hidden="true" data-slot="icon">
  <path fill-rule="evenodd" d="M6.955 1.45A.5.5 0 0 1 7.452 1h1.096a.5.5 0 0 1 .497.45l.17 1.699c.484.12.94.312 1.356.562l1.321-1.081a.5.5 0 0 1 .67.033l.774.775a.5.5 0 0 1 .034.67l-1.08 1.32c.25.417.44.873.561 1.357l1.699.17a.5.5 0 0 1 .45.497v1.096a.5.5 0 0 1-.45.497l-1.699.17c-.12.484-.312.94-.562 1.356l1.082 1.322a.5.5 0 0 1-.034.67l-.774.774a.5.5 0 0 1-.67.033l-1.322-1.08c-.416.25-.872.44-1.356.561l-.17 1.699a.5.5 0 0 1-.497.45H7.452a.5.5 0 0 1-.497-.45l-.17-1.699a4.973 4.973 0 0 1-1.356-.562L4.108 13.37a.5.5 0 0 1-.67-.033l-.774-.775a.5.5 0 0 1-.034-.67l1.08-1.32a4.971 4.971 0 0 1-.561-1.357l-1.699-.17A.5.5 0 0 1 1 8.548V7.452a.5.5 0 0 1 .45-.497l1.699-.17c.12-.484.312-.94.562-1.356L2.629 4.107a.5.5 0 0 1 .034-.67l.774-.774a.5.5 0 0 1 .67-.033L5.43 3.71a4.97 4.97 0 0 1 1.356-.561l.17-1.699ZM6 8c0 .538.212 1.026.558 1.385l.057.057a2 2 0 0 0 2.828-2.828l-.058-.056A2 2 0 0 0 6 8Z" clip-rule="evenodd"/>
</svg>
