<svg xmlns="http://www.w3.org/2000/svg" viewBox="0 0 16 16" fill="currentColor" aria-hidden="true" data-slot="icon">
  <path fill-rule="evenodd" d="M4.5 1.938a.75.75 0 0 1 1.025.274l.652 1.131c.351-.138.71-.233 1.073-.288V1.75a.75.75 0 0 1 1.5 0v1.306a5.03 5.03 0 0 1 1.072.288l.654-1.132a.75.75 0 1 1 1.298.75l-.652 1.13c.286.23.55.492.785.786l1.13-.653a.75.75 0 1 1 .75 1.3l-1.13.652c.137.351.233.71.288 1.073h1.305a.75.75 0 0 1 0 1.5h-1.306a5.032 5.032 0 0 1-.288 1.072l1.132.654a.75.75 0 0 1-.75 1.298l-1.13-.652c-.23.286-.492.55-.786.785l.652 1.13a.75.75 0 0 1-1.298.75l-.653-1.13c-.351.137-.71.233-1.073.288v1.305a.75.75 0 0 1-1.5 0v-1.306a5.032 5.032 0 0 1-1.072-.288l-.653 1.132a.75.75 0 0 1-1.3-.75l.653-1.13a4.966 4.966 0 0 1-.785-.786l-1.13.652a.75.75 0 0 1-.75-1.298l1.13-.653a4.965 4.965 0 0 1-.288-1.073H1.75a.75.75 0 0 1 0-1.5h1.306a5.03 5.03 0 0 1 .288-1.072l-1.132-.653a.75.75 0 0 1 .75-1.3l1.13.653c.23-.286.492-.55.786-.785l-.653-1.13A.75.75 0 0 1 4.5 1.937Zm1.14 3.476a3.501 3.501 0 0 0 0 5.172L7.135 8 5.641 5.414ZM8.434 8.75 6.94 11.336a3.491 3.491 0 0 0 2.81-.305 3.49 3.49 0 0 0 1.669-2.281H8.433Zm2.987-1.5H8.433L6.94 4.664a3.501 3.501 0 0 1 4.48 2.586Z" clip-rule="evenodd"/>
</svg>
