<svg xmlns="http://www.w3.org/2000/svg" viewBox="0 0 16 16" fill="currentColor" aria-hidden="true" data-slot="icon">
  <path fill-rule="evenodd" d="M2.5 3.5A1.5 1.5 0 0 1 4 2h4.879a1.5 1.5 0 0 1 1.06.44l3.122 3.12a1.5 1.5 0 0 1 .439 1.061V12.5A1.5 1.5 0 0 1 12 14H4a1.5 1.5 0 0 1-1.5-1.5v-9Zm3.663 1.801a.75.75 0 1 0-1.2.9L6.313 8H5a.75.75 0 0 0 0 1.5h2.25v1H5A.75.75 0 0 0 5 12h2.25v.25a.75.75 0 0 0 1.5 0V12H11a.75.75 0 0 0 0-1.5H8.75v-1H11A.75.75 0 0 0 11 8H9.687l1.35-1.799a.75.75 0 0 0-1.2-.9L8 7.75 6.163 5.3Z" clip-rule="evenodd"/>
</svg>
