<svg xmlns="http://www.w3.org/2000/svg" viewBox="0 0 16 16" fill="currentColor" aria-hidden="true" data-slot="icon">
  <path d="M6.621 6.584c.208-.026.418-.046.629-.06v1.034l-.598-.138a.227.227 0 0 1-.116-.065.094.094 0 0 1-.028-.06 5.345 5.345 0 0 1 .002-.616.082.082 0 0 1 .025-.055.144.144 0 0 1 .086-.04ZM8.75 10.475V9.443l.594.137a.227.227 0 0 1 .116.065.094.094 0 0 1 .028.06 5.355 5.355 0 0 1-.002.616.082.082 0 0 1-.025.055.144.144 0 0 1-.086.04c-.207.026-.415.045-.625.06Z"/>
  <path fill-rule="evenodd" d="M2.5 3.5A1.5 1.5 0 0 1 4 2h4.879a1.5 1.5 0 0 1 1.06.44l3.122 3.12a1.5 1.5 0 0 1 .439 1.061V12.5A1.5 1.5 0 0 1 12 14H4a1.5 1.5 0 0 1-1.5-1.5v-9Zm6.25 1.25a.75.75 0 0 0-1.5 0v.272c-.273.016-.543.04-.81.073-.748.09-1.38.689-1.428 1.494a6.836 6.836 0 0 0-.002.789c.044.785.635 1.348 1.305 1.503l.935.216v1.379a11.27 11.27 0 0 1-1.36-.173.75.75 0 1 0-.28 1.474c.536.102 1.084.17 1.64.202v.271a.75.75 0 0 0 1.5 0v-.272c.271-.016.54-.04.807-.073.747-.09 1.378-.689 1.427-1.494a6.843 6.843 0 0 0 .002-.789c-.044-.785-.635-1.348-1.305-1.503l-.931-.215v-1.38c.46.03.913.089 1.356.173a.75.75 0 0 0 .28-1.474 12.767 12.767 0 0 0-1.636-.201V4.75Z" clip-rule="evenodd"/>
</svg>
