<svg xmlns="http://www.w3.org/2000/svg" viewBox="0 0 16 16" fill="currentColor" aria-hidden="true" data-slot="icon">
  <path fill-rule="evenodd" d="M1 3.5A1.5 1.5 0 0 1 2.5 2h11A1.5 1.5 0 0 1 15 3.5v9a1.5 1.5 0 0 1-1.5 1.5h-11A1.5 1.5 0 0 1 1 12.5v-9Zm1.5.25a.25.25 0 0 1 .25-.25h1.5a.25.25 0 0 1 .25.25v1a.25.25 0 0 1-.25.25h-1.5a.25.25 0 0 1-.25-.25v-1Zm3.75-.25a.25.25 0 0 0-.25.25v3.5c0 .138.112.25.25.25h3.5a.25.25 0 0 0 .25-.25v-3.5a.25.25 0 0 0-.25-.25h-3.5ZM6 8.75a.25.25 0 0 1 .25-.25h3.5a.25.25 0 0 1 .25.25v3.5a.25.25 0 0 1-.25.25h-3.5a.25.25 0 0 1-.25-.25v-3.5Zm5.75-5.25a.25.25 0 0 0-.25.25v1c0 .138.112.25.25.25h1.5a.25.25 0 0 0 .25-.25v-1a.25.25 0 0 0-.25-.25h-1.5ZM2.5 11.25a.25.25 0 0 1 .25-.25h1.5a.25.25 0 0 1 .25.25v1a.25.25 0 0 1-.25.25h-1.5a.25.25 0 0 1-.25-.25v-1Zm9.25-.25a.25.25 0 0 0-.25.25v1c0 .138.112.25.25.25h1.5a.25.25 0 0 0 .25-.25v-1a.25.25 0 0 0-.25-.25h-1.5ZM2.5 8.75a.25.25 0 0 1 .25-.25h1.5a.25.25 0 0 1 .25.25v1a.25.25 0 0 1-.25.25h-1.5a.25.25 0 0 1-.25-.25v-1Zm9.25-.25a.25.25 0 0 0-.25.25v1c0 .138.112.25.25.25h1.5a.25.25 0 0 0 .25-.25v-1a.25.25 0 0 0-.25-.25h-1.5ZM2.5 6.25A.25.25 0 0 1 2.75 6h1.5a.25.25 0 0 1 .25.25v1a.25.25 0 0 1-.25.25h-1.5a.25.25 0 0 1-.25-.25v-1ZM11.75 6a.25.25 0 0 0-.25.25v1c0 .138.112.25.25.25h1.5a.25.25 0 0 0 .25-.25v-1a.25.25 0 0 0-.25-.25h-1.5Z" clip-rule="evenodd"/>
</svg>
