<svg xmlns="http://www.w3.org/2000/svg" viewBox="0 0 16 16" fill="currentColor" aria-hidden="true" data-slot="icon">
  <path fill-rule="evenodd" d="M8 3c-.988 0-1.908.286-2.682.78a.75.75 0 0 1-.806-1.266A6.5 6.5 0 0 1 14.5 8c0 1.665-.333 3.254-.936 4.704a.75.75 0 0 1-1.385-.577C12.708 10.857 13 9.464 13 8a5 5 0 0 0-5-5ZM3.55 4.282a.75.75 0 0 1 .23 1.036A4.973 4.973 0 0 0 3 8a.75.75 0 0 1-1.5 0c0-1.282.372-2.48 1.014-3.488a.75.75 0 0 1 1.036-.23ZM8 5.875A2.125 2.125 0 0 0 5.875 8a3.625 3.625 0 0 1-3.625 3.625H2.213a.75.75 0 1 1 .008-1.5h.03A2.125 2.125 0 0 0 4.376 8a3.625 3.625 0 1 1 7.25 0c0 .078-.001.156-.003.233a.75.75 0 1 1-1.5-.036c.002-.066.003-.131.003-.197A2.125 2.125 0 0 0 8 5.875ZM7.995 7.25a.75.75 0 0 1 .75.75 6.502 6.502 0 0 1-4.343 6.133.75.75 0 1 1-.498-1.415A5.002 5.002 0 0 0 7.245 8a.75.75 0 0 1 .75-.75Zm2.651 2.87a.75.75 0 0 1 .463.955 9.39 9.39 0 0 1-3.008 4.25.75.75 0 0 1-.936-1.171 7.892 7.892 0 0 0 2.527-3.57.75.75 0 0 1 .954-.463Z" clip-rule="evenodd"/>
</svg>
