<svg xmlns="http://www.w3.org/2000/svg" viewBox="0 0 16 16" fill="currentColor" aria-hidden="true" data-slot="icon">
  <path fill-rule="evenodd" d="M8.074.945A4.993 4.993 0 0 0 6 5v.032c.004.6.114 1.176.311 1.709.16.428-.204.91-.61.7a5.023 5.023 0 0 1-1.868-1.677c-.202-.304-.648-.363-.848-.058a6 6 0 1 0 8.017-1.901l-.004-.007a4.98 4.98 0 0 1-2.18-2.574c-.116-.31-.477-.472-.744-.28Zm.78 6.178a3.001 3.001 0 1 1-3.473 4.341c-.205-.365.215-.694.62-.59a4.008 4.008 0 0 0 1.873.03c.288-.065.413-.386.321-.666A3.997 3.997 0 0 1 8 8.999c0-.585.126-1.14.351-1.641a.42.42 0 0 1 .503-.235Z" clip-rule="evenodd"/>
</svg>
