<svg xmlns="http://www.w3.org/2000/svg" viewBox="0 0 16 16" fill="currentColor" aria-hidden="true" data-slot="icon">
  <path fill-rule="evenodd" d="M3.75 3.505c0 .562.186 1.082.5 1.5H2a1 1 0 1 0 0 2h5.25v-2h1.5v2H14a1 1 0 1 0 0-2h-2.25A2.5 2.5 0 0 0 8 1.719a2.5 2.5 0 0 0-4.25 1.786Zm3.499 0v-.038a1 1 0 1 0-.999 1.038h1l-.001-1Zm2.5-1a1 1 0 0 0-1 .962l.001.038v1h.999a1 1 0 0 0 0-2Z" clip-rule="evenodd"/>
  <path d="M7.25 8.505H2v3.5a2 2 0 0 0 2 2h3.25v-5.5ZM8.75 14.005v-5.5H14v3.5a2 2 0 0 1-2 2H8.75Z"/>
</svg>
