<svg xmlns="http://www.w3.org/2000/svg" viewBox="0 0 16 16" fill="currentColor" aria-hidden="true" data-slot="icon">
  <path fill-rule="evenodd" d="M8 1a7 7 0 1 0 0 14A7 7 0 0 0 8 1ZM4.5 3.757a5.5 5.5 0 1 0 6.857-.114l-.65.65a.707.707 0 0 0-.207.5c0 .39-.317.707-.707.707H8.427a.496.496 0 0 0-.413.771l.25.376a.481.481 0 0 0 .616.163.962.962 0 0 1 1.11.18l.573.573a1 1 0 0 1 .242 1.023l-1.012 3.035a1 1 0 0 1-1.191.654l-.345-.086a1 1 0 0 1-.757-.97v-.305a1 1 0 0 0-.293-.707L6.1 9.1a.849.849 0 0 1 0-1.2c.22-.22.22-.58 0-.8l-.721-.721A3 3 0 0 1 4.5 4.257v-.5Z" clip-rule="evenodd"/>
</svg>
