<svg xmlns="http://www.w3.org/2000/svg" viewBox="0 0 16 16" fill="currentColor" aria-hidden="true" data-slot="icon">
  <path d="M2.09 15a1 1 0 0 0 1-1V8a1 1 0 1 0-2 0v6a1 1 0 0 0 1 1ZM5.765 13H4.09V8c.663 0 1.218-.466 1.556-1.037a4.02 4.02 0 0 1 1.358-1.377c.478-.292.907-.706.989-1.26V4.32a9.03 9.03 0 0 0 0-2.642c-.028-.194.048-.394.224-.479A2 2 0 0 1 11.09 3c0 .812-.08 1.605-.235 2.371a.521.521 0 0 0 .502.629h1.733c1.104 0 2.01.898 1.901 1.997a19.831 19.831 0 0 1-1.081 4.788c-.27.747-.998 1.215-1.793 1.215H9.414c-.215 0-.428-.035-.632-.103l-2.384-.794A2.002 2.002 0 0 0 5.765 13Z"/>
</svg>
