<svg xmlns="http://www.w3.org/2000/svg" viewBox="0 0 16 16" fill="currentColor" aria-hidden="true" data-slot="icon">
  <path d="M13.407 2.59a.75.75 0 0 0-1.464.326c.365 1.636.557 3.337.557 5.084 0 1.747-.192 3.448-.557 5.084a.75.75 0 0 0 1.464.327c.264-1.185.444-2.402.531-3.644a2 2 0 0 0 0-3.534 24.736 24.736 0 0 0-.531-3.643ZM4.348 11H4a3 3 0 0 1 0-6h2c1.647 0 3.217-.332 4.646-.933C10.878 5.341 11 6.655 11 8c0 1.345-.122 2.659-.354 3.933a11.946 11.946 0 0 0-4.23-.925c.203.718.478 1.407.816 2.057.12.23.057.515-.155.663l-.828.58a.484.484 0 0 1-.707-.16A12.91 12.91 0 0 1 4.348 11Z"/>
</svg>
