<svg xmlns="http://www.w3.org/2000/svg" viewBox="0 0 16 16" fill="currentColor" aria-hidden="true" data-slot="icon">
  <path d="M2.995 1a.625.625 0 1 0 0 1.25h.38v2.125a.625.625 0 1 0 1.25 0v-2.75A.625.625 0 0 0 4 1H2.995ZM3.208 7.385a2.37 2.37 0 0 1 1.027-.124L2.573 8.923a.625.625 0 0 0 .439 1.067l1.987.011a.625.625 0 0 0 .006-1.25l-.49-.003.777-.776c.215-.215.335-.506.335-.809 0-.465-.297-.957-.842-1.078a3.636 3.636 0 0 0-1.993.121.625.625 0 1 0 .416 1.179ZM2.625 11a.625.625 0 1 0 0 1.25H4.25a.125.125 0 0 1 0 .25H3.5a.625.625 0 1 0 0 1.25h.75a.125.125 0 0 1 0 .25H2.625a.625.625 0 1 0 0 1.25H4.25a1.375 1.375 0 0 0 1.153-2.125A1.375 1.375 0 0 0 4.25 11H2.625ZM7.25 2a.75.75 0 0 0 0 1.5h6a.75.75 0 0 0 0-1.5h-6ZM7.25 7.25a.75.75 0 0 0 0 1.5h6a.75.75 0 0 0 0-1.5h-6ZM6.5 13.25a.75.75 0 0 1 .75-.75h6a.75.75 0 0 1 0 1.5h-6a.75.75 0 0 1-.75-.75Z"/>
</svg>
