<svg xmlns="http://www.w3.org/2000/svg" viewBox="0 0 16 16" fill="currentColor" aria-hidden="true" data-slot="icon">
  <path d="m3.855 7.286 1.067-.534a1 1 0 0 0 .542-1.046l-.44-2.858A1 1 0 0 0 4.036 2H3a1 1 0 0 0-1 1v2c0 .709.082 1.4.238 2.062a9.012 9.012 0 0 0 6.7 6.7A9.024 9.024 0 0 0 11 14h2a1 1 0 0 0 1-1v-1.036a1 1 0 0 0-.848-.988l-2.858-.44a1 1 0 0 0-1.046.542l-.534 1.067a7.52 7.52 0 0 1-4.86-4.859Z"/>
  <path d="M13.78 2.22a.75.75 0 0 1 0 1.06L12.56 4.5l1.22 1.22a.75.75 0 0 1-1.06 1.06L11.5 5.56l-1.22 1.22a.75.75 0 1 1-1.06-1.06l1.22-1.22-1.22-1.22a.75.75 0 0 1 1.06-1.06l1.22 1.22 1.22-1.22a.75.75 0 0 1 1.06 0Z"/>
</svg>
