<svg xmlns="http://www.w3.org/2000/svg" viewBox="0 0 16 16" fill="currentColor" aria-hidden="true" data-slot="icon">
  <path fill-rule="evenodd" d="M1.75 2a.75.75 0 0 0 0 1.5H2V9a2 2 0 0 0 2 2h.043l-1.004 3.013a.75.75 0 0 0 1.423.474L4.624 14h6.752l.163.487a.75.75 0 1 0 1.422-.474L11.957 11H12a2 2 0 0 0 2-2V3.5h.25a.75.75 0 0 0 0-1.5H1.75Zm8.626 9 .5 1.5H5.124l.5-1.5h4.752ZM5.25 7a.75.75 0 0 0-.75.75v.5a.75.75 0 0 0 1.5 0v-.5A.75.75 0 0 0 5.25 7ZM10 4.75a.75.75 0 0 1 1.5 0v3.5a.75.75 0 0 1-1.5 0v-3.5ZM8 5.5a.75.75 0 0 0-.75.75v2a.75.75 0 0 0 1.5 0v-2A.75.75 0 0 0 8 5.5Z" clip-rule="evenodd"/>
</svg>
