<svg xmlns="http://www.w3.org/2000/svg" viewBox="0 0 16 16" fill="currentColor" aria-hidden="true" data-slot="icon">
  <path fill-rule="evenodd" d="M1.75 2a.75.75 0 0 0 0 1.5H2V9a2 2 0 0 0 2 2h.043l-1.005 3.013a.75.75 0 0 0 1.423.474L4.624 14h6.752l.163.487a.75.75 0 0 0 1.423-.474L11.957 11H12a2 2 0 0 0 2-2V3.5h.25a.75.75 0 0 0 0-1.5H1.75Zm8.626 9 .5 1.5H5.124l.5-1.5h4.752Zm1.317-5.833a.75.75 0 0 0-.892-1.206 8.789 8.789 0 0 0-2.465 2.814L7.28 5.72a.75.75 0 0 0-1.06 0l-2 2a.75.75 0 0 0 1.06 1.06l1.47-1.47L8.028 8.59a.75.75 0 0 0 1.228-.255 7.275 7.275 0 0 1 2.437-3.167Z" clip-rule="evenodd"/>
</svg>
