<svg xmlns="http://www.w3.org/2000/svg" viewBox="0 0 16 16" fill="currentColor" aria-hidden="true" data-slot="icon">
  <path fill-rule="evenodd" d="M5.25 2A2.25 2.25 0 0 0 3 4.25v9a.75.75 0 0 0 1.183.613l1.692-1.195 1.692 1.195a.75.75 0 0 0 .866 0l1.692-1.195 1.693 1.195A.75.75 0 0 0 13 13.25v-9A2.25 2.25 0 0 0 10.75 2h-5.5Zm5.53 4.28a.75.75 0 1 0-1.06-1.06l-4.5 4.5a.75.75 0 1 0 1.06 1.06l4.5-4.5ZM7 6.25a.75.75 0 1 1-1.5 0 .75.75 0 0 1 1.5 0Zm2.75 4.25a.75.75 0 1 0 0-1.5.75.75 0 0 0 0 1.5Z" clip-rule="evenodd"/>
</svg>
