<svg xmlns="http://www.w3.org/2000/svg" viewBox="0 0 16 16" fill="currentColor" aria-hidden="true" data-slot="icon">
  <path fill-rule="evenodd" d="M5.25 2A2.25 2.25 0 0 0 3 4.25v9a.75.75 0 0 0 1.183.613l1.692-1.195 1.692 1.195a.75.75 0 0 0 .866 0l1.692-1.195 1.693 1.195A.75.75 0 0 0 13 13.25v-9A2.25 2.25 0 0 0 10.75 2h-5.5Zm3.03 3.28a.75.75 0 0 0-1.06-1.06L4.97 6.47a.75.75 0 0 0 0 1.06l2.25 2.25a.75.75 0 0 0 1.06-1.06l-.97-.97h1.315c.76 0 1.375.616 1.375 1.375a.75.75 0 0 0 1.5 0A2.875 2.875 0 0 0 8.625 6.25H7.311l.97-.97Z" clip-rule="evenodd"/>
</svg>
