<svg xmlns="http://www.w3.org/2000/svg" viewBox="0 0 16 16" fill="currentColor" aria-hidden="true" data-slot="icon">
  <path fill-rule="evenodd" d="M6.333 4.478A4 4 0 0 0 1 8.25c0 .414.336.75.75.75h3.322c.572.71 1.219 1.356 1.928 1.928v3.322c0 .414.336.75.75.75a4 4 0 0 0 3.772-5.333A10.721 10.721 0 0 0 15 1.75a.75.75 0 0 0-.75-.75c-3.133 0-5.953 1.34-7.917 3.478ZM12 5.5a1.5 1.5 0 1 1-3 0 1.5 1.5 0 0 1 3 0Z" clip-rule="evenodd"/>
  <path d="M3.902 10.682a.75.75 0 1 0-1.313-.725 4.764 4.764 0 0 0-.469 3.36.75.75 0 0 0 .564.563 4.76 4.76 0 0 0 3.359-.47.75.75 0 1 0-.725-1.312 3.231 3.231 0 0 1-1.81.393 3.232 3.232 0 0 1 .394-1.81Z"/>
</svg>
