<svg xmlns="http://www.w3.org/2000/svg" viewBox="0 0 16 16" fill="currentColor" aria-hidden="true" data-slot="icon">
  <path d="M5.354 2a2 2 0 0 0-1.857 1.257l-.338.845C3.43 4.035 3.71 4 4 4h8c.29 0 .571.035.84.102l-.337-.845A2 2 0 0 0 10.646 2H5.354Z"/>
  <path fill-rule="evenodd" d="M2 13a2 2 0 0 1 2-2h8a2 2 0 1 1 0 4H4a2 2 0 0 1-2-2Zm10.75 0a.75.75 0 1 1-1.5 0 .75.75 0 0 1 1.5 0ZM9 13.75a.75.75 0 1 0 0-1.5.75.75 0 0 0 0 1.5ZM4 5.5a2 2 0 1 0 0 4h8a2 2 0 1 0 0-4H4Zm8 2.75a.75.75 0 1 0 0-1.5.75.75 0 0 0 0 1.5ZM9.75 7.5a.75.75 0 1 1-1.5 0 .75.75 0 0 1 1.5 0Z" clip-rule="evenodd"/>
</svg>
