<svg xmlns="http://www.w3.org/2000/svg" viewBox="0 0 16 16" fill="currentColor" aria-hidden="true" data-slot="icon">
  <path fill-rule="evenodd" d="M8.5 1.709a.75.75 0 0 0-1 0 8.963 8.963 0 0 1-4.84 2.217.75.75 0 0 0-.654.72 10.499 10.499 0 0 0 5.647 9.672.75.75 0 0 0 .694-.001 10.499 10.499 0 0 0 5.647-9.672.75.75 0 0 0-.654-.719A8.963 8.963 0 0 1 8.5 1.71Zm2.34 5.504a.75.75 0 0 0-1.18-.926L7.394 9.17l-1.156-.99a.75.75 0 1 0-.976 1.138l1.75 1.5a.75.75 0 0 0 1.078-.106l2.75-3.5Z" clip-rule="evenodd"/>
</svg>
