<svg xmlns="http://www.w3.org/2000/svg" viewBox="0 0 16 16" fill="currentColor" aria-hidden="true">
  <circle cx="4" cy="14" r="1"/>
  <circle cx="12" cy="14" r="1"/>
  <path fill-rule="evenodd" d="M1 1.752a.75.75 0 0 1 .75-.75h2.425a.75.75 0 0 1 .729.573l.348 1.436c2.734.061 5.407.372 7.996.91a.75.75 0 0 1 .578.906l-.846 3.595a.75.75 0 0 1-.73.578h-6.5a2.25 2.25 0 0 0-2.122 1.5h9.622a.75.75 0 0 1 0 1.5H2.75a.75.75 0 0 1-.75-.75 3.752 3.752 0 0 1 2.824-3.635l-1.24-5.113H1.75a.75.75 0 0 1-.75-.75Z" clip-rule="evenodd"/>
</svg>
