<svg xmlns="http://www.w3.org/2000/svg" viewBox="0 0 16 16" fill="currentColor" aria-hidden="true" data-slot="icon">
  <path d="M2 3.5A1.5 1.5 0 0 1 3.5 2h2A1.5 1.5 0 0 1 7 3.5v2A1.5 1.5 0 0 1 5.5 7h-2A1.5 1.5 0 0 1 2 5.5v-2ZM2 10.5A1.5 1.5 0 0 1 3.5 9h2A1.5 1.5 0 0 1 7 10.5v2A1.5 1.5 0 0 1 5.5 14h-2A1.5 1.5 0 0 1 2 12.5v-2ZM10.5 2A1.5 1.5 0 0 0 9 3.5v2A1.5 1.5 0 0 0 10.5 7h2A1.5 1.5 0 0 0 14 5.5v-2A1.5 1.5 0 0 0 12.5 2h-2ZM11.5 9a.75.75 0 0 1 .75.75v1h1a.75.75 0 0 1 0 1.5h-1v1a.75.75 0 0 1-1.5 0v-1h-1a.75.75 0 0 1 0-1.5h1v-1A.75.75 0 0 1 11.5 9Z"/>
</svg>
