<svg xmlns="http://www.w3.org/2000/svg" viewBox="0 0 16 16" fill="currentColor" aria-hidden="true" data-slot="icon">
  <path fill-rule="evenodd" d="M9.165 3.654c-.95-.255-1.921-.273-2.693-.042-.769.231-1.087.624-1.173.947-.087.323-.008.822.543 1.407.389.412.927.77 1.55 1.034H13a.75.75 0 0 1 0 1.5H3A.75.75 0 0 1 3 7h1.756l-.006-.006c-.787-.835-1.161-1.849-.9-2.823.26-.975 1.092-1.666 2.191-1.995 1.097-.33 2.36-.28 3.512.029.75.2 1.478.518 2.11.939a.75.75 0 0 1-.833 1.248 5.682 5.682 0 0 0-1.665-.738Zm2.074 6.365a.75.75 0 0 1 .91.543 2.44 2.44 0 0 1-.35 2.024c-.405.585-1.052 1.003-1.84 1.24-1.098.329-2.36.279-3.512-.03-1.152-.308-2.27-.897-3.056-1.73a.75.75 0 0 1 1.092-1.029c.552.586 1.403 1.056 2.352 1.31.95.255 1.92.273 2.692.042.55-.165.873-.417 1.038-.656a.942.942 0 0 0 .13-.803.75.75 0 0 1 .544-.91Z" clip-rule="evenodd"/>
</svg>
