<svg xmlns="http://www.w3.org/2000/svg" viewBox="0 0 16 16" fill="currentColor" aria-hidden="true">
  <rect width="12.5" height="8.5" x="1.75" y="3.75" stroke="#000" stroke-width="1.5" rx="1.25"/>
  <path stroke="#000" stroke-width="1.5" d="M1.75 7.5c0-.69.56-1.25 1.25-1.25h3.75C7.44 6.25 8 6.81 8 7.5V8c0 .69-.56 1.25-1.25 1.25H3c-.69 0-1.25-.56-1.25-1.25v-.5ZM1.75 10.5c0-.69.56-1.25 1.25-1.25h3.75c.69 0 1.25.56 1.25 1.25v.5c0 .69-.56 1.25-1.25 1.25H3c-.69 0-1.25-.56-1.25-1.25v-.5ZM8 7.5c0-.69.56-1.25 1.25-1.25H13c.69 0 1.25.56 1.25 1.25V8c0 .69-.56 1.25-1.25 1.25H9.25C8.56 9.25 8 8.69 8 8v-.5ZM8 10.5c0-.69.56-1.25 1.25-1.25H13c.69 0 1.25.56 1.25 1.25v.5c0 .69-.56 1.25-1.25 1.25H9.25C8.56 12.25 8 11.69 8 11v-.5Z"/>
  <path d="M2 4h12v2H2z"/>
</svg>
