<svg xmlns="http://www.w3.org/2000/svg" viewBox="0 0 16 16" fill="currentColor" aria-hidden="true">
  <path fill-rule="evenodd" d="M12.919 4.722A.98.98 0 0 0 11.968 4H10a1 1 0 0 0-1 1v6.268A2 2 0 0 1 12 13h1a.977.977 0 0 0 .985-1 31.99 31.99 0 0 0-1.066-7.278Z" clip-rule="evenodd"/>
  <circle cx="10" cy="13" r="1"/>
  <path fill-rule="evenodd" d="M8 9H2v3a1 1 0 0 0 1 1 2 2 0 1 1 4 0 1 1 0 0 0 1-1V9Z" clip-rule="evenodd"/>
  <circle cx="5" cy="13" r="1"/>
  <path d="M2 3.05c0-.516.393-.95.908-.983a32.481 32.481 0 0 1 4.184 0A.978.978 0 0 1 8 3.05V8H2V3.05Z"/>
</svg>
