<svg xmlns="http://www.w3.org/2000/svg" viewBox="0 0 16 16" fill="currentColor" aria-hidden="true" data-slot="icon">
  <path fill-rule="evenodd" d="M11.5 8a3.5 3.5 0 0 0 3.362-4.476c-.094-.325-.497-.39-.736-.15L12.099 5.4a.48.48 0 0 1-.653.033 8.554 8.554 0 0 1-.879-.879.48.48 0 0 1 .033-.653l2.027-2.028c.24-.239.175-.642-.15-.736a3.502 3.502 0 0 0-4.476 3.427c.018.99-.133 2.093-.914 2.7l-5.31 4.13a2.015 2.015 0 1 0 2.828 2.827l4.13-5.309c.607-.78 1.71-.932 2.7-.914L11.5 8ZM3 13.75a.75.75 0 1 0 0-1.5.75.75 0 0 0 0 1.5Z" clip-rule="evenodd"/>
</svg>
