<svg width="20" height="20" viewBox="0 0 20 20" fill="none" xmlns="http://www.w3.org/2000/svg">
<path d="M11.9834 1.90718C12.0546 1.57461 11.8932 1.23571 11.59 1.08152C11.2868 0.927338 10.9179 0.996463 10.6911 1.24994L2.19108 10.7499C1.99385 10.9704 1.9446 11.2861 2.06533 11.5562C2.18607 11.8262 2.45423 12 2.75001 12H9.32227L8.01666 18.0929C7.9454 18.4255 8.10685 18.7644 8.41002 18.9185C8.71318 19.0727 9.08215 19.0036 9.30894 18.7501L17.8089 9.25013C18.0062 9.0297 18.0554 8.71393 17.9347 8.4439C17.814 8.17388 17.5458 8.00003 17.25 8.00003H10.6778L11.9834 1.90718Z" fill="#0F172A"/>
</svg>
