<svg width="20" height="20" viewBox="0 0 20 20" fill="none" xmlns="http://www.w3.org/2000/svg">
<path fill-rule="evenodd" clip-rule="evenodd" d="M10 18C14.4183 18 18 14.4183 18 10C18 5.58172 14.4183 2 10 2C5.58172 2 2 5.58172 2 10C2 14.4183 5.58172 18 10 18ZM13.7659 8.00863C14.0654 7.72245 14.0761 7.24769 13.79 6.94824C13.5038 6.64879 13.029 6.63804 12.7296 6.92423C11.2302 8.35718 9.90877 9.97496 8.8018 11.7412L7.28033 10.2197C6.98744 9.9268 6.51256 9.9268 6.21967 10.2197C5.92678 10.5126 5.92678 10.9875 6.21967 11.2804L8.42031 13.481C8.58544 13.6461 8.81807 13.7249 9.04957 13.6941C9.28106 13.6633 9.48499 13.5264 9.6012 13.3239C10.7303 11.3557 12.1362 9.5662 13.7659 8.00863Z" fill="#0F172A"/>
</svg>
