<svg width="20" height="20" viewBox="0 0 20 20" fill="none" xmlns="http://www.w3.org/2000/svg">
<path fill-rule="evenodd" clip-rule="evenodd" d="M2 3.5C2 2.67157 2.67157 2 3.5 2H12.5C13.3284 2 14 2.67157 14 3.5V15.25C14 16.7688 15.2312 18 16.75 18H4.75C3.23122 18 2 16.7688 2 15.25V3.5ZM5.75 10.5C5.33579 10.5 5 10.8358 5 11.25C5 11.6642 5.33579 12 5.75 12H10.25C10.6642 12 11 11.6642 11 11.25C11 10.8358 10.6642 10.5 10.25 10.5H5.75ZM5.75 13.5C5.33579 13.5 5 13.8358 5 14.25C5 14.6642 5.33579 15 5.75 15H10.25C10.6642 15 11 14.6642 11 14.25C11 13.8358 10.6642 13.5 10.25 13.5H5.75ZM5 5.75C5 5.33579 5.33579 5 5.75 5H10.25C10.6642 5 11 5.33579 11 5.75V8.25C11 8.66421 10.6642 9 10.25 9H5.75C5.33579 9 5 8.66421 5 8.25V5.75Z" fill="#0F172A"/>
<path d="M16.5 6.5H15.5V15.25C15.5 15.9404 16.0596 16.5 16.75 16.5C17.4404 16.5 18 15.9404 18 15.25V8C18 7.17157 17.3284 6.5 16.5 6.5Z" fill="#0F172A"/>
</svg>
