<svg xmlns="http://www.w3.org/2000/svg" fill="none" viewBox="0 0 24 24" stroke-width="2" stroke="currentColor" aria-hidden="true">
  <path stroke-linecap="round" stroke-linejoin="round" d="M9.52 4.678H4.655c-.515 0-1.018.21-1.38.573a1.967 1.967 0 00-.573 1.38v10.714c0 .515.21 1.018.573 1.38.362.363.865.573 1.38.573h10.713c.515 0 1.018-.21 1.38-.573.363-.362.574-.865.574-1.38v-4.877"/>
  <path stroke-linecap="round" stroke-linejoin="round" d="M15.374 3.596c.176-.187.398-.339.632-.432.234-.106.491-.152.748-.164.258 0 .515.047.76.14.246.094.457.246.644.421.187.188.327.398.42.644.095.234.153.49.141.76 0 .257-.058.515-.163.748a1.962 1.962 0 01-.433.632L9.76 14.719H7v-2.76l8.374-8.363z"/>
</svg>
