<svg xmlns="http://www.w3.org/2000/svg" fill="none" viewBox="0 0 24 24" stroke-width="1.5" stroke="currentColor" aria-hidden="true">
  <path stroke-linecap="round" stroke-linejoin="round" d="M3.75 4.875c0-.621.504-1.125 1.125-1.125h4.5c.621 0 1.125.504 1.125 1.125v4.5c0 .621-.504 1.125-1.125 1.125h-4.5A1.125 1.125 0 013.75 9.375v-4.5zM3.75 14.625c0-.621.504-1.125 1.125-1.125h4.5c.621 0 1.125.504 1.125 1.125v4.5c0 .621-.504 1.125-1.125 1.125h-4.5a1.125 1.125 0 01-1.125-1.125v-4.5zM13.5 4.875c0-.621.504-1.125 1.125-1.125h4.5c.621 0 1.125.504 1.125 1.125v4.5c0 .621-.504 1.125-1.125 1.125h-4.5A1.125 1.125 0 0113.5 9.375v-4.5z"/>
  <path stroke-linecap="round" stroke-linejoin="round" d="M6.75 6.75h.75v.75h-.75v-.75zM6.75 16.5h.75v.75h-.75v-.75zM16.5 6.75h.75v.75h-.75v-.75zM13.5 13.5h.75v.75h-.75v-.75zM13.5 19.5h.75v.75h-.75v-.75zM19.5 13.5h.75v.75h-.75v-.75zM19.5 19.5h.75v.75h-.75v-.75zM16.5 16.5h.75v.75h-.75v-.75z"/>
</svg>
