<svg xmlns="http://www.w3.org/2000/svg" fill="none" viewBox="0 0 24 24" stroke-width="2" stroke="currentColor" aria-hidden="true">
  <path fill="#FC6D26" fill-rule="evenodd" d="M17.144 12.163c-.195-.787-1.342-.787-1.537 0a.703.703 0 01-.159.315.682.682 0 01-.305.206.896.896 0 01-.366.06c-.134 0-.232-.048-.354-.109-.708-.412-1.513.364-1.086 1.066.28.436.037 1.03-.488 1.151a.769.769 0 000 1.502.83.83 0 01.33.158.71.71 0 01.207.29c.049.11.06.23.06.352 0 .12-.048.23-.11.339-.426.702.38 1.477 1.087 1.066a.81.81 0 01.354-.11c.122 0 .256 0 .366.061.11.049.207.121.305.206a.854.854 0 01.159.315c.195.787 1.342.787 1.537 0a.703.703 0 01.159-.315.682.682 0 01.305-.206.896.896 0 01.366-.06c.134 0 .232.048.354.109.708.411 1.513-.364 1.086-1.066a.796.796 0 01-.11-.34c0-.12 0-.242.061-.35a.978.978 0 01.208-.291.83.83 0 01.33-.158.769.769 0 000-1.502.83.83 0 01-.33-.158.71.71 0 01-.208-.29.854.854 0 01-.06-.351c0-.122.048-.23.109-.34.427-.702-.378-1.477-1.086-1.066a.81.81 0 01-.354.11c-.122 0-.256 0-.366-.061a1.232 1.232 0 01-.305-.206.855.855 0 01-.159-.315v-.012zm-.768 4.954c.414 0 .805-.157 1.085-.436a1.49 1.49 0 00.452-1.066 1.49 1.49 0 00-.451-1.066 1.58 1.58 0 00-1.087-.436c-.402 0-.805.158-1.086.436a1.49 1.49 0 00-.451 1.066c0 .388.159.787.451 1.066a1.58 1.58 0 001.086.436z" clip-rule="evenodd"/>
  <path stroke-linecap="round" stroke-linejoin="round" d="M10.823 13.144a6.903 6.903 0 00-2.001-.303 6.63 6.63 0 00-4.65 1.89c-1.232 1.211-1.928 2.834-1.928 4.542h9.299m1.025-12.852c0 .981-.403 1.914-1.098 2.592a3.781 3.781 0 01-2.66 1.079c-1.001 0-1.953-.388-2.66-1.079A3.667 3.667 0 015.05 6.421c0-.969.403-1.914 1.098-2.592a3.781 3.781 0 012.66-1.078c1.001 0 1.953.388 2.66 1.078a3.667 3.667 0 011.1 2.592v0z"/>
</svg>
