<svg xmlns="http://www.w3.org/2000/svg" fill="none" viewBox="0 0 24 19" stroke="currentColor">
  <path stroke-width=".2" d="M2.983.604l1.68-.015-.839.838H2.66c-.158.15-.17.326-.17.466 0 .155.06.317.17.372h4.157L7.5 2.25h13.193a2 2 0 012 2v3.958h-4.456a1.89 1.89 0 00-1.89 1.89c0 1.082.876 1.959 1.958 1.959h4.388V16a2 2 0 01-2 2H3a2 2 0 01-2-2V2.604a2 2 0 011.983-2z"/>
  <path stroke-width=".2" d="M21.987 11.73h-3.63a1.606 1.606 0 010-3.211h3.63a1.606 1.606 0 110 3.212z"/>
  <circle cx="18.24" cy="10.117" r=".683" fill="#000"/>
</svg>
