<svg xmlns="http://www.w3.org/2000/svg" fill="none" viewBox="0 0 16 16" stroke-width="1.0" stroke="currentColor" aria-hidden="true" data-slot="icon">
  <path stroke-linecap="round" stroke-linejoin="round" d="M11.444 13.7c-.555 0-2.5-1.2-1.666-4.8.943-4.076-1.667-5.7-3.334-5.7 0 0-.833-1.2-1.666-1.2v1.5L2 7.1c.112.51.213.83.556 1.2.343.37.627.562 1.11.6.78.062 1.667-1.2 1.667-1.2.263 0 .632-.079.978-.3m-2.089 6.3c-.278-.7-.555-2.4.556-3.6C5.959 8.824 6.31 8.3 6.31 7.4m0 0c.508-.325.967-.958.967-2.1m-1.39-3c1.945-.9 7.779.6 4.168 10.2m-2.987-1.2c-.833.6-.833 2.1 0 2.7m4.375-9.3h-.555m.833 1.2h-.555M12 7.1h-.556M12 8.3h-.833m.555 1.2h-.555m.277 1.2h-.555m0-7.2h-.556m-.277-1.2H8.389m1.389 6h-.834M9.5 9.5H8.389M5.61 5.3c0 .3 0 .3-.278.3-.277 0-.277 0-.277-.3s0-.3.277-.3c.278 0 .278 0 .278.3Z"/>
</svg>
