<svg xmlns="http://www.w3.org/2000/svg" fill="none" viewBox="0 0 16 16" stroke-width="1.0" stroke="currentColor" aria-hidden="true" data-slot="icon">
  <path stroke-linecap="round" stroke-linejoin="round" d="M7.607 7.4c.473.7 1.705 2.1 2.841 2.1 1.137 0 2.486-1.3 2.842-1.8V5.6s-1.231 1.8-2.131 1.8c-.457 0-.998-.744-1.421-1.2m0 0c-.411-.444-.71-.9-.71-.9m.71.9c.237-.494.284-.9 1.42-.9 1.066 0 1.777-.6 1.777-1.2 0-.722-1.066-.3-1.066-.9 0-.358-1.066-.6-1.066-.6-.377-.146-.779-.52-1.065-.6v.9c-.947.1-3.586.558-5.144 2.4C2.818 7.4 1.71 8.5 2.066 10c.284 1.2 1.75 1.3 1.75 1.3L3.344 14h3.91a1.642 1.642 0 0 0-.12-.41M14 2v12M7.435 9.8c.144 1.44-1.31 2.3-1.844 2.7.611 0 1.377.71 1.543 1.09m.301-3.79c.487.54.741 2.033.643 2.7.712 0 1.637.727 1.663 1.09H7.134m.301-3.79c.442-.804.643-1.8.643-1.8"/>
</svg>
