<svg xmlns="http://www.w3.org/2000/svg" fill="none" viewBox="0 0 16 16" stroke-width="1.0" stroke="currentColor" aria-hidden="true" data-slot="icon">
  <path stroke-linecap="round" stroke-linejoin="round" d="M5.6 6.8h4.8M2 11.6h12M2 6.8h12M14 5v9H2V5m10.2 1.8V5.6M3.8 6.8V5.6m0 2.4v.6m3-.6v.6m0 1.2v.6M8 8v.6M9.2 8v.6M8 9.8v.6m1.2-.6v.6m-5.4-.5v.5M12.2 8v.6m0 1.3v.5M5.6 14h4.8V4.4S10.4 2 8 2 5.6 4.4 5.6 4.4V14Zm1.2 0v-1.2h2.4V14H6.8Z"/>
  <mask id="a" fill="#fff">
    <path d="M9.5 4.5a1.5 1.5 0 1 1-3 0 1.5 1.5 0 0 1 3 0Z"/>
  </mask>
  <path fill="#000" d="M8.3 4a.3.3 0 1 0-.6 0h.6Zm-.3.5h-.3a.3.3 0 0 0 .088.212L8 4.5Zm.038.462a.3.3 0 1 0 .424-.424l-.424.424ZM8 4h-.3v.5h.6V4H8Zm0 .5-.212.212.25.25.212-.212.212-.212-.25-.25L8 4.5Zm1.5 0h-.6a.9.9 0 0 1-.9.9v1.2a2.1 2.1 0 0 0 2.1-2.1h-.6ZM8 6v-.6a.9.9 0 0 1-.9-.9H5.9c0 1.16.94 2.1 2.1 2.1V6ZM6.5 4.5h.6a.9.9 0 0 1 .9-.9V2.4a2.1 2.1 0 0 0-2.1 2.1h.6ZM8 3v.6a.9.9 0 0 1 .9.9h1.2A2.1 2.1 0 0 0 8 2.4V3Z" mask="url(#a)"/>
</svg>
