<svg xmlns="http://www.w3.org/2000/svg" fill="none" viewBox="0 0 16 16" stroke-width="1.0" stroke="currentColor" aria-hidden="true" data-slot="icon">
  <path d="M3.89 8.286C4.44 9.726 6.029 13 8 13c1.973 0 3.562-3.274 4.11-4.714M4.712 6.714C4.849 5.143 5.534 2 6.356 2c.822 0 .822.786 1.644.786S8.822 2 9.644 2c.657 0 1.37 3.143 1.643 4.714C10.74 6.976 9.316 7.5 8 7.5s-2.74-.524-3.287-.786ZM8 5.536c-2.455 0-5.342-2.357-6.575-1.179C.192 5.536 1.425 9.071 8 9.071s7.808-3.535 6.575-4.714C13.342 3.18 10.455 5.536 8 5.536Z"/>
</svg>
