<svg xmlns="http://www.w3.org/2000/svg" fill="none" viewBox="0 0 16 16" stroke-width="1.0" stroke="currentColor" aria-hidden="true" data-slot="icon">
  <path stroke-linecap="round" stroke-linejoin="round" d="M7.326 6.737H8.5l1.528-1.58m0 0 .305 3.79m-.305-3.79 2.444.632.917-2.21m-3.056 5.368-1.527 1.58L10.028 14m.305-5.053 1.223 2.527L14 12.42M6.972 2l.306 2.21-2.221.948m0 0L3 7.368l.306 1.895m1.751-4.105.387 3.474m0 0-.305 2.842L3.306 14m2.138-5.368 1.834 2.21L6.972 14M5.75 3.263c0 .872-.378 1.263-1.222 1.263s-1.222-.39-1.222-1.263C3.306 2.391 3.684 2 4.528 2s1.222.391 1.222 1.263Zm5.5 0c0 .872-.379 1.263-1.222 1.263-.844 0-1.222-.39-1.222-1.263 0-.872.378-1.263 1.222-1.263.843 0 1.222.391 1.222 1.263Z"/>
</svg>
