<svg xmlns="http://www.w3.org/2000/svg" fill="none" viewBox="0 0 16 16" stroke-width="1.0" stroke="currentColor" aria-hidden="true" data-slot="icon">
  <g clip-path="url(#a)">
    <path fill="#000" d="M4.118 6.676c.123-.503-.226-1.002-.78-1.115-.554-.112-1.103.205-1.226.709-.124.504.225 1.003.78 1.115.553.112 1.102-.205 1.226-.709ZM12.072 13.887c.169-.428-.076-.9-.547-1.053-.472-.153-.99.07-1.159.498-.169.428.076.9.548 1.053.47.153.99-.07 1.158-.498ZM2.812 14.177c0-.455-.406-.824-.906-.824S1 13.722 1 14.177c0 .454.406.823.906.823s.906-.369.906-.823ZM6.436 14.177c0-.455-.405-.824-.906-.824-.5 0-.906.369-.906.824 0 .454.406.823.906.823s.906-.369.906-.823ZM11.14 6.839c-.13-.44-.627-.7-1.11-.583-.484.118-.77.57-.641 1.009.13.44.626.7 1.11.582.483-.118.77-.57.64-1.008ZM14.64 5.986c-.13-.44-.626-.7-1.11-.582-.483.117-.77.569-.64 1.008.13.44.626.7 1.11.583.483-.118.77-.57.64-1.01Z"/>
    <path stroke-linecap="round" stroke-linejoin="round" d="M4.118 6.676c.123-.503-.226-1.002-.78-1.115-.554-.112-1.103.205-1.226.709-.124.504.225 1.003.78 1.115.553.112 1.102-.205 1.226-.709Zm0 0 1.341-5.47 1.56 2.23m5.053 10.451c.169-.428-.076-.9-.547-1.053-.472-.153-.99.07-1.159.498-.169.428.076.9.548 1.053.47.153.99-.07 1.158-.498Zm0 0 1.833-4.652L15 11.341M2.812 14.177c0-.455-.406-.824-.906-.824S1 13.722 1 14.177c0 .454.406.823.906.823s.906-.369.906-.823Zm0 0 .906-4.942h3.624l-.906 4.942m0 0c0-.455-.405-.824-.906-.824-.5 0-.906.369-.906.824 0 .454.406.823.906.823s.906-.369.906-.823Zm4.703-7.338c-.13-.44-.626-.7-1.11-.583-.483.118-.77.57-.64 1.009.13.44.626.7 1.11.582.483-.118.77-.57.64-1.008Zm0 0-.531-4.986 3.5-.853.532 4.986m0 0c-.13-.44-.626-.7-1.11-.582-.483.117-.77.569-.64 1.008.13.44.626.7 1.11.583.483-.118.77-.57.64-1.01Z"/>
  </g>
  <defs>
    <clipPath id="a">
      <path fill="#fff" d="M0 0h16v16H0z"/>
    </clipPath>
  </defs>
</svg>
