<svg xmlns="http://www.w3.org/2000/svg" fill="none" viewBox="0 0 16 16" stroke-width="1.0" stroke="currentColor" aria-hidden="true" data-slot="icon">
  <path stroke-linecap="round" stroke-linejoin="round" d="M8.193 6.421c.413-.105 1.238 0 1.238 1.263h1.239v-3.79c0-.315-.31-.63-.62-.63s-.619.315-.619.63v.948c0 .632-1.238.632-1.238 0m2.275 2.842c.274.21.821.884.821 1.895m-.821-1.895H7.573m2.895 0h2.37c0 .948 0 1.895-1.549 1.895m0 0c.826.631 2.18 2.198 1.548 2.842-.282.288-.564.575-1.548-.092M7.573 7.684c0 1.263.62 1.58 1.549 1.58m-1.549-1.58H4.787V14h2.701c.854 0 .66-1.211.879-2.097m0 0c.076-.31.204-.581.445-.745.743-.505 1.656.556 2.168.947.11.085.213.16.31.224m-2.923-.426c.215.594.792 1.15 1.374 1.15.581 0 1.274-.272 1.548-.724M6.645 7.684c0-.316.123-1.579-.62-1.579H3.24C2.619 6.105 2 5.79 2 5.158V2.632C2 2.316 2.31 2 2.62 2c.309 0 .619.316.619.632V4.21c0 .315.31.631.619.631.31 0 .62-.316.62-.631V2.947c0-.315.309-.631.618-.631.31 0 .62.316.62.631v1.264c0 .315.31.631.619.631.31 0 .62-.316.62-.631v-.632c0-.316.309-.632.618-.632.31 0 .62.316.62.632v4.105H6.645Z"/>
</svg>
