<svg xmlns="http://www.w3.org/2000/svg" fill="none" viewBox="0 0 16 16" stroke-width="1.0" stroke="currentColor" aria-hidden="true" data-slot="icon">
  <path stroke-linecap="round" stroke-linejoin="round" d="M14 12.4v1.8H2v-1.8h12Zm0 0c-.5-.7-2.22-2.1-5.1-2.1-3 0-5 1.4-5.7 2.1m10.8 0v-2.1l-10.5-6M5 12.4v1.8m3-1.8v1.8m3-1.8v1.8M3.5 4.3c-.6.3-.6 2.1 0 2.4l6 3.6m-6-6c-.2-.6-.36-1.8.6-1.8l4.5 2.7c0 .2.12.66.6.9s2.8 1.7 3.9 2.4l.6 1.5M3.2 6.7c-.2.3-.42 1.02.3 1.5S6 9.91 6.8 10.465M3.5 8.5v3.6"/>
</svg>
