<svg xmlns="http://www.w3.org/2000/svg" fill="none" viewBox="0 0 16 16" stroke-width="1.0" stroke="currentColor" aria-hidden="true" data-slot="icon">
  <path stroke-linecap="round" stroke-linejoin="round" d="M9.32 8.64v.388m1.512 0v.388m1.513-.388v.388m1.513-.388v.388m-3.782 1.55v-.387m1.513.388v-.388M3.647 4.374c-.756.776-.756 1.94 0 3.103m6.43-1.164c.503 0 1.663.155 2.268.776M1.756 8.506A4.153 4.153 0 0 1 1 7.865c1.513-1.164.473-2.327.756-3.103.908-2.482 3.152-1.81 4.16-1.163 1.513-.776 3.782 1.163 6.051 1.551 2.269.388 3.782 1.939 2.647 3.49-3.403.776-6.429-.775-7.563-.775-.543 0-.912.266-1.357.543m-3.938.098c.44.28 1.048.522 1.891.522.987 0 1.561-.317 2.047-.62m-3.938.098c0 1.208.454 3.624 2.27 3.624 1.512 0 2.268-.388 4.537.388 3.404 1.163 4.538 0 4.538-1.163-.378.258-1.512.62-3.025 0-2.44-1.002-4.227-2.79-4.382-2.947M5.16 4.762c.378 0 2.269.776 2.269 1.164 0 .387-1.89 1.163-2.27 1.163-.377 0-.377-2.327 0-2.327Z"/>
</svg>
