<svg xmlns="http://www.w3.org/2000/svg" fill="none" viewBox="0 0 16 16" stroke-width="1.0" stroke="currentColor" aria-hidden="true" data-slot="icon">
  <path stroke-linecap="round" stroke-linejoin="round" d="M3.8 14H15M3.8 14H1.7m2.1 0V6.132H1.7V14M1 14h.7m2.1-6.5h8.4m-8.4 5.132h8.4M1.7 4.763v-1.71h3.5C5.433 2.368 6.32 1 8 1c1.68 0 2.567 1.368 2.8 2.053h3.5v1.71m-9.8 7.869V9.895c0-.456.28-1.369 1.4-1.369 1.12 0 1.4.913 1.4 1.369v2.737m1.4 0V9.895c0-.456.28-1.369 1.4-1.369 1.12 0 1.4.913 1.4 1.369v2.737M14.3 14V6.132h-2.1V14h2.1Zm-2.8-7.868V4.763H15v1.369h-3.5Zm-10.5 0V4.763h3.5v1.369H1ZM8 2.71c1.05 0 1.75.684 1.75 1.71 0 1.026-.7 1.71-1.75 1.71s-1.75-.684-1.75-1.71c0-1.026.7-1.71 1.75-1.71Z"/>
</svg>
