<svg xmlns="http://www.w3.org/2000/svg" fill="none" viewBox="0 0 17 16" stroke-width="1.0" stroke="currentColor" aria-hidden="true" data-slot="icon">
  <path stroke-linecap="round" stroke-linejoin="round" d="M13.489 12c-1.313 0-1.688-1-3-1-1.313 0-1.875 1-3 1-1.313 0-1.688-1-3-1-1.313 0-1.875 1-3 1m12 2c-1.313 0-1.688-1-3-1-1.313 0-1.875 1-3 1-1.313 0-1.688-1-3-1-1.313 0-1.875 1-3 1M8.489 10.333s-.09-.94.333-2c.8-2 3.334-.666 5-5.666-2 1.333-3.666-.334-6.333 2-2.333-2-4-.667-6-2.667.111 1.333 1 4 4.333 5.667.843.421.334 1.666 0 2.333"/>
</svg>
