<svg xmlns="http://www.w3.org/2000/svg" fill="none" viewBox="0 0 16 16" stroke-width="1.0" stroke="currentColor" aria-hidden="true" data-slot="icon">
  <path stroke-linecap="round" stroke-linejoin="round" d="M14.333 2h-2.626c-.453 0-.887.18-1.207.5M10 5.396V3.707c0-.453.18-.887.5-1.207M10 5.396a1.333 1.333 0 0 0-.404-.063H6.737c-.138 0-.274.022-.404.063m3.667 0c.118.038.232.092.336.161l.07.047c.371.247.594.664.594 1.11V9.4M10.5 2.5H5.833M2 2h2.626c.453 0 .887.18 1.207.5m.5 2.896V3.707c0-.453-.18-.887-.5-1.207m.5 2.896a1.333 1.333 0 0 0-.336.161l-.07.047c-.37.247-.594.664-.594 1.11V9.4m0 0a1.434 1.434 0 0 0-1 1.367V14m1-4.6c.14-.044.286-.067.435-.067h4.798c.148 0 .294.023.434.068m0 0a1.433 1.433 0 0 1 1 1.367V14m-7.667 0H1.667m2.666 0H12m0 0h2.333M7.667 5.333V4M7 5.333V7m0 1.333v1m2.333 0V7M6 9.333v2.334M6 13v1m4.333-2.667V14M8.667 9.333v2"/>
</svg>
