<svg xmlns="http://www.w3.org/2000/svg" fill="none" viewBox="0 0 16 16" stroke-width="1.0" stroke="currentColor" aria-hidden="true" data-slot="icon">
  <path stroke-linecap="round" stroke-linejoin="round" d="M11.333 12.667V14H4.667v-1.333m6.666 0H14V5.333C14 3.333 12 2 11.333 2m0 10.667V12m0-10H10c-.111.444-.667 1.333-2 1.333S6.111 2.444 6 2H4.667m6.666 0c-.11.889-.933 2.667-3.333 2.667-2.4 0-3.222-1.778-3.333-2.667m0 0c-.283 0-.804.24-1.311.667C2.665 3.249 2 4.18 2 5.333v7.334h2.667m0 0 2-2 2 2 2-2 .666.666m-6.666 1.334v-2M12 6l-.667 1v4.333M4 6l.667 1v3.667m6.666.666V12m0 0-.666.667-2-2-2 2-2-2"/>
  <path fill="#000" d="M4.667 4a.5.5 0 1 1-1 0 .5.5 0 0 1 1 0ZM5.833 5.167a.5.5 0 1 1-1 0 .5.5 0 0 1 1 0Z"/>
  <circle cx="7.167" cy="5.833" r=".5" fill="#000"/>
  <path fill="#000" d="M9.5 5.833a.5.5 0 1 1-1 0 .5.5 0 0 1 1 0ZM11.167 5.167a.5.5 0 1 1-1 0 .5.5 0 0 1 1 0ZM12.333 4a.5.5 0 1 1-1 0 .5.5 0 0 1 1 0Z"/>
</svg>
