<svg xmlns="http://www.w3.org/2000/svg" fill="none" viewBox="0 0 16 16" stroke-width="1.0" stroke="currentColor" aria-hidden="true" data-slot="icon">
  <path stroke-linecap="round" stroke-linejoin="round" d="M4.667 13h-3V9.333h12.666V13h-3.666m-5 1.667c.444-.111 1-.6 1-1.667 0-1.067.666-1.556 1-1.667m0 3.334c.444-.111 1-.6 1-1.667 0-1.067.666-1.556 1-1.667M6.667 9.333h-4L3 3.667h3.333l.334 5.666Zm0 0h7V5l-3.334 1.667V5L6.667 6.667M5.333 3.667c0-.667.867-1.067 3-1.334 1.667-.208 2-1 2-1M3.667 3.667c0-.667.133-1.234 1-1.667.866-.433 1.666-.667 1.666-.667"/>
</svg>
