<svg xmlns="http://www.w3.org/2000/svg" fill="none" viewBox="0 0 16 16" stroke-width="1.5" stroke="currentColor" aria-hidden="true" data-slot="icon">
  <path stroke-linecap="round" stroke-linejoin="round" d="M8 3.333c-.935 0-1.806.276-2.537.75M8 3.332a4.66 4.66 0 0 1 1.548.263M8 3.333c0 1.398-.26 2.599-.647 3.615M4 2l1.463 2.082m7.204 10.251-1.84-2.619m-9.16-7.047L3.894 5.78M14.334 11 12.24 9.953M3.894 5.78c-.167.31-.3.639-.395.985m.395-.985A4.666 4.666 0 0 1 5 4.425m.463-.343c-.161.105-.316.22-.463.343m5.826 7.289A4.65 4.65 0 0 1 8 12.667a4.68 4.68 0 0 1-1.144-.142m3.97-.811c.218-.166.42-.35.606-.552m.808-1.209c-.206.445-.48.853-.808 1.209m.808-1.209a4.635 4.635 0 0 0 .38-1.286M4.424 11c.298.355.648.665 1.038.918M4.425 11a4.646 4.646 0 0 1-1.092-3c0-.428.058-.842.166-1.235M4.425 11A9.949 9.949 0 0 0 5.97 9.407m-.506 2.51c.422.274.891.482 1.393.608m-1.393-.607c1.362-1.093 4.085-4.287 4.085-8.322m0 0c.464.163.894.398 1.278.69m-3.97 8.24c.461-.481 1.093-1.036 1.718-1.792m2.252-6.448a4.66 4.66 0 0 1 1.793 4.38m-1.793-4.38c-.05 1.608-.344 2.894-.76 3.943M3.499 6.765a10.015 10.015 0 0 0 2.47 2.642m5.463 1.755a9.435 9.435 0 0 1-2.858-.428M5 4.425c.32.655 1.087 1.655 2.353 2.523m5.266 1.719a11.256 11.256 0 0 1-2.553-.438M7.353 6.948a9.538 9.538 0 0 1-1.384 2.459m4.097-1.178a9.127 9.127 0 0 1-1.492 2.505"/>
  <circle cx="4.167" cy="2.167" r=".833" fill="#000"/>
  <path fill="#000" d="M2.333 4.667a.833.833 0 1 1-1.666 0 .833.833 0 0 1 1.666 0Z"/>
</svg>
