<svg xmlns="http://www.w3.org/2000/svg" fill="none" viewBox="0 0 16 16" stroke-width="1.5" stroke="currentColor" aria-hidden="true" data-slot="icon">
  <path stroke-linecap="round" stroke-linejoin="round" d="M11.333 6.333C12.933 9.8 10.444 11.556 9 12H7.2m4.133-5.667c.445.111 1.734.067 3.334-1-.223-.666-1.134-2.066-3-2.333m-.334 3.333c.49-.49.671-1.093.69-1.666A3.669 3.669 0 0 0 11.668 3m-.334 3.333c-.628 0-1.553.89-2.216 2.667m-6.784 2.333C1.551 10.667 1.667 10 1.667 10c.666.333 1.212.244 1.805-.052m-1.139 1.385c.368.367.918.667 1.334.667H7.2m-4.868-.667H5c1.333 0 3.293.122 4-2 .038-.114.077-.225.117-.333m2.55-6c-1-1-3.334-.863-3.334 1 0 1.067.334 1.333-.333 2-1 .778-2.867 2.533-3.667 3.333a3.303 3.303 0 0 1-.86.615m0 0c1.587.128 4.672.119 5.644-.948m-1.916 3v1.88c.488.15 1.732.387 2.799.12"/>
  <path fill="#000" d="M11.167 4.167a.5.5 0 1 1-1 0 .5.5 0 0 1 1 0Z"/>
  <path stroke-linecap="round" stroke-linejoin="round" d="M10.667 4.333c-.223.111-1.467.334-2 .334"/>
</svg>
