<svg xmlns="http://www.w3.org/2000/svg" fill="none" viewBox="0 0 16 16" stroke-width="1.0" stroke="currentColor" aria-hidden="true" data-slot="icon">
  <circle cx="13.167" cy="13.011" r=".5" fill="#000"/>
  <circle cx=".5" cy=".5" r=".5" fill="#000" transform="matrix(-1 0 0 1 3.667 12.51)"/>
  <circle cx="11.833" cy="11.677" r=".5" fill="#000"/>
  <circle cx=".5" cy=".5" r=".5" fill="#000" transform="matrix(-1 0 0 1 5 11.177)"/>
  <path stroke-linecap="round" stroke-linejoin="round" d="M1.667 1.667S2.107 2 3 2c1.333 0 1.45-.294 2.333 0 .883.294 1.293 1.448 1.293 1.448m2.83.066c.667-.334 1.944-1.447 4.877-1.18m-8 5.333V4c0-.368.299-.667.667-.667h2c.368 0 .667.299.667.667v4.146c0 .434.411.769.833.668.53-.127 1.197-.319 1.833-.637.667-.333 1 .334 2 .334m-8 4.489V9.177c-.11.111-.666.334-2 .334m2 3.489c-1-.333-1.555.667-1.666 1m1.666-1c.334-.667 1.334-.667 1.667-.333.444-.334 1.333-.334 1.667.333m0-2.333V13m0 0c.666 0 1.4.2 1.666 1M8 5v1.333M8 8v2.667m-6.333.177C2.11 10.4 3 9.511 4.333 9.511m0 0c-1-1.334-1-1.844-2.666-1.511m12.666 6.448H1.667"/>
</svg>
