<svg xmlns="http://www.w3.org/2000/svg" fill="none" viewBox="0 0 16 16" stroke-width="1.0" stroke="currentColor" aria-hidden="true" data-slot="icon">
  <path stroke-linecap="round" stroke-linejoin="round" d="M14.333 14.333h-3.666l-1.035-1.552.31-.492c.243-.387.67-.622 1.127-.622h.859c.46 0 .887.236 1.13.626l1.275 2.04ZM3.74 11.224l-2.073 3.11h9l-2.073-3.11a2 2 0 0 0-1.664-.89H5.404a2 2 0 0 0-1.664.89Z"/>
  <path stroke-linecap="round" d="M1.667 3.333h5C7.403 3.333 8 3.856 8 4.5s-.597 1.167-1.333 1.167c-.737 0-1.334.522-1.334 1.166C5.333 7.478 5.93 8 6.667 8h7.666"/>
  <path stroke-linecap="round" stroke-linejoin="round" d="M5.333 3.333v-1m-1.666 1V1.667M2 3.333v-1M7.667 8V7m1.666 1V5.667M11 8V6.333M12.667 8V5m1.666 3V6.333M9.333 4V3M11 4.667v-1m3.333 1V3.333"/>
</svg>
