<svg xmlns="http://www.w3.org/2000/svg" fill="none" viewBox="0 0 16 16" stroke-width="1.0" stroke="currentColor" aria-hidden="true" data-slot="icon">
  <path fill="#000" d="M1.667 2.783a.55.55 0 0 0 0 1.1v-1.1ZM14.333 8v.55a.55.55 0 0 0 .55-.55h-.55ZM2.55 2.333a.55.55 0 0 0-1.1 0h1.1Zm1.667-.666a.55.55 0 1 0-1.1 0h1.1Zm1.666.666a.55.55 0 0 0-1.1 0h1.1Zm4 3.334a.55.55 0 0 0-1.1 0h1.1ZM8.783 4a.55.55 0 1 0 1.1 0h-1.1Zm1.1-1a.55.55 0 0 0-1.1 0h1.1Zm1.667 3.333a.55.55 0 1 0-1.1 0h1.1Zm-1.1-1.666a.55.55 0 1 0 1.1 0h-1.1Zm1.1-1a.55.55 0 1 0-1.1 0h1.1ZM13.217 5a.55.55 0 0 0-1.1 0h1.1Zm1.666 1.333a.55.55 0 1 0-1.1 0h1.1Zm-1.1-1.666a.55.55 0 0 0 1.1 0h-1.1Zm1.1-1.334a.55.55 0 1 0-1.1 0h1.1ZM8.217 7a.55.55 0 1 0-1.1 0h1.1Zm-6.55 7.333-.458-.305a.55.55 0 0 0 .458.855v-.55Zm2.073-3.109-.458-.305.458.305Zm10.593 3.11v.55a.55.55 0 0 0 .467-.842l-.467.291Zm-4.392-2.045.465.293-.465-.293Zm-.31.492-.457.305.458-.305Zm-1.037-1.557-.458.305.458-.305ZM7.45 4.5c0 .274-.28.617-.783.617v1.1c.969 0 1.883-.702 1.883-1.717h-1.1Zm-.783-.617c.504 0 .783.343.783.617h1.1c0-1.015-.914-1.717-1.883-1.717v1.1Zm-.784 2.95c0-.274.28-.616.784-.616v-1.1c-.97 0-1.884.702-1.884 1.716h1.1Zm.784.617c-.504 0-.784-.343-.784-.617h-1.1c0 1.015.915 1.717 1.884 1.717v-1.1Zm0-4.667H5.333v1.1h1.334v-1.1Zm-1.334 0H3.667v1.1h1.666v-1.1Zm-1.666 0H2v1.1h1.667v-1.1ZM2 2.783h-.333v1.1H2v-1.1ZM6.667 8.55h1v-1.1h-1v1.1Zm1 0h1.666v-1.1H7.667v1.1Zm1.666 0H11v-1.1H9.333v1.1Zm1.667 0h1.667v-1.1H11v1.1Zm1.667 0h1.666v-1.1h-1.666v1.1ZM2.55 3.333v-1h-1.1v1h1.1Zm1.667 0V1.667h-1.1v1.666h1.1Zm1.666 0v-1h-1.1v1h1.1Zm4 4.667V5.667h-1.1V8h1.1Zm0-4V3h-1.1v1h1.1Zm1.667 4V6.333h-1.1V8h1.1Zm0-3.333v-1h-1.1v1h1.1ZM13.217 8V5h-1.1v3h1.1Zm1.666 0V6.333h-1.1V8h1.1Zm0-3.333V3.333h-1.1v1.334h1.1ZM8.217 8V7h-1.1v1h1.1Zm-6.093 6.638 2.073-3.109-.915-.61-2.073 3.11.915.61Zm3.28-3.755H6.93v-1.1H5.404v1.1Zm-3.737 4h9v-1.1h-9v1.1Zm9 0h3.666v-1.1h-3.666v1.1Zm.402-2.666h.859v-1.1h-.859v1.1Zm1.523.368 1.275 2.04.933-.583-1.275-2.04-.933.583Zm-3.116-.589-.31.492.931.586.31-.492-.931-.586Zm-1.34-.467 1.038 1.557.915-.61-1.038-1.557-.915.61Zm1.038 1.557 1.035 1.552.915-.61-1.035-1.552-.915.61Zm1.895-1.97c-.647 0-1.248.333-1.593.88l.93.586a.783.783 0 0 1 .663-.365v-1.1Zm-4.14-.233c.485 0 .938.243 1.207.646l.915-.61A2.55 2.55 0 0 0 6.93 9.783v1.1Zm4.999 1.334c.27 0 .52.139.664.368l.933-.583a1.883 1.883 0 0 0-1.597-.885v1.1Zm-7.73-.688a1.45 1.45 0 0 1 1.206-.646v-1.1a2.55 2.55 0 0 0-2.122 1.136l.915.61Z"/>
</svg>
