<svg xmlns="http://www.w3.org/2000/svg" fill="none" viewBox="0 0 16 16" stroke-width="1.0" stroke="currentColor" aria-hidden="true" data-slot="icon">
  <path stroke-linecap="round" stroke-linejoin="round" d="M1.667 14.333C2.11 14.348 3.2 14.14 4 13.19c.93-1.106 1.572-.318 3-.606m7.333 1.75c-1.666-.666-.666-.666-2-1.333-1.015-.508-.87-.532-1.333-.736m0 0a13.523 13.523 0 0 0-.667-.264c-.831-.312-1.144-.234-1.666-.011m2.333.275c.444-.2 1.333-.797 1.333-1.597.556-.334 1.334-1.334 0-2.667.1-.445.137-1.09-.041-1.667M9.667 1.667c1.066.8.444 1.666 0 2 .533.266.666 1 .666 1.333 1.183 0 1.738.615 1.959 1.333m0 0c.68-.11 1.975-.666 1.708-2 .347-.555.767-1.866-.333-2.666M7 12.583a3.76 3.76 0 0 0 .333-.084c.627-.188 1.019-.375 1.334-.51M7 12.583a1.9 1.9 0 0 1-.333-2.25 1.313 1.313 0 0 1-.69-1c-.437.223-1.444.44-1.977-.626M4.816 8c-.383.556-1.416 1.4-2.483.333-1.066-1.066-.444-2.222 0-2.666A2.374 2.374 0 0 1 2 5.46m-.333-1.794C1.459 4.29 1.579 5.153 2 5.46m0 0c.333-.154 1-.594 1-1.128 1 0 1.493-1 1.333-1.666m-.666 3.666c.666.334 2.333.334 2.666-1C7 5.461 8.185 4 7.333 3m.15 4.707c.304-.12.82-.207 1.333-.055M10 8.707c-.302-.617-.742-.925-1.184-1.055m0 0c.123-.315.531-.945 1.184-.945m2.333-2.374c.223-.428.4-1.455-.666-2.142m-3 9.798c-.314-.44-.643-1.456 0-1.989"/>
  <path fill="#000" d="M3.333 10.333a.5.5 0 1 1-1 0 .5.5 0 0 1 1 0ZM5.333 11a.5.5 0 1 1-1 0 .5.5 0 0 1 1 0ZM15 10.5a.5.5 0 1 1-1 0 .5.5 0 0 1 1 0ZM14.333 7.333a.5.5 0 1 1-1 0 .5.5 0 0 1 1 0Z"/>
</svg>
