<svg xmlns="http://www.w3.org/2000/svg" fill="none" viewBox="0 0 16 16" stroke-width="1.5" stroke="currentColor" aria-hidden="true" data-slot="icon">
  <path stroke-linecap="round" stroke-linejoin="round" d="M12.51 13c.28-.691.02-1.36-.51-1.667C6.933 8.4 5.667 6.333 4 4c-.433-.607-1.156-.821-1.844-.43M12.511 13a1.857 1.857 0 0 1-.178.333c-.533.8-1.457.537-2 .334C8.556 13 4.6 10.8 1.667 6 1.435 5.62 1 4.333 2 3.667c.053-.036.105-.068.156-.097M12.511 13c.496.111 1.475.043 1.822-1 .505-1.514-.305-1.99-.333-2a3.197 3.197 0 0 1-.088-.034M2.156 3.57c-.163-.301-.29-1.037.51-1.57.8-.533 1.934-.5 2.334 0l.269.333m0 0c.355-.3 1.096-.635 1.731 0 1 1 3.667 4.334 6.333 5.667.386.2 1.041.873.579 1.966M5.269 2.333c4.047 4.973 7.374 7.13 8.643 7.633"/>
  <path stroke-dasharray=".3 2" stroke-linecap="round" stroke-linejoin="round" d="M12.82 10.894c-.096-.199-.158-.597-.597-.896-.704-.479-1.026-.053-1.494-.479-.545-.496-.516-.874-1.062-1.37-.546-.498-1.158-.295-1.626-.72-.546-.497-.323-1.055-.869-1.552-.545-.497-1.061-.433-1.415-.957-.404-.597-.157-.996-.703-1.493-.244-.222-.535-.316-.823-.39"/>
</svg>
