<svg xmlns="http://www.w3.org/2000/svg" fill="none" viewBox="0 0 16 16" stroke-width="1.0" stroke="currentColor" aria-hidden="true" data-slot="icon">
  <path fill="#000" d="M1.667 14.333h-.55c0 .304.246.55.55.55v-.55Zm0-1.333-.151-.529a.55.55 0 0 0-.4.529h.55Zm5-7-.515-.193A.55.55 0 0 0 6.117 6h.55Zm7.666 8.333v.55a.55.55 0 0 0 .55-.55h-.55Zm0-1.333h.55a.55.55 0 0 0-.398-.529l-.152.529Zm-5-7h.55a.55.55 0 0 0-.035-.193L9.333 6ZM8.55 1.333a.55.55 0 0 0-1.1 0h1.1ZM7 1.783a.55.55 0 0 0 0 1.1v-1.1Zm2 1.1a.55.55 0 1 0 0-1.1v1.1Zm2 8.04.415-.36-.415.36Zm-8.783 3.41V13h-1.1v1.333h1.1Zm12.666 0V13h-1.1v1.333h1.1ZM6.667 6l.515.193v-.001a.674.674 0 0 1 .01-.027 23.412 23.412 0 0 1 .148-.38c.097-.246.23-.573.372-.898.144-.328.292-.642.418-.867.065-.116.114-.188.144-.225.016-.02.012-.012-.01.006-.014.01-.108.082-.264.082v-1.1a.667.667 0 0 0-.403.143 1.058 1.058 0 0 0-.177.175 2.77 2.77 0 0 0-.248.38c-.155.274-.32.627-.468.965a29.27 29.27 0 0 0-.55 1.352l-.001.007a.247.247 0 0 1-.001.002L6.667 6ZM8 3.883c-.156 0-.25-.072-.263-.082-.023-.018-.027-.026-.01-.006.03.037.078.11.143.225.127.225.274.539.418.867a28.147 28.147 0 0 1 .52 1.278l.008.021.002.006v.001L9.333 6l.515-.193v-.002l-.003-.007a24.606 24.606 0 0 0-.162-.417c-.1-.254-.238-.593-.387-.935a11.435 11.435 0 0 0-.468-.966 2.77 2.77 0 0 0-.248-.379 1.058 1.058 0 0 0-.177-.175A.667.667 0 0 0 8 2.783v1.1Zm.55-.55v-1h-1.1v1h1.1Zm0-1v-1h-1.1v1h1.1ZM7 2.883h1v-1.1H7v1.1Zm1 0h1v-1.1H8v1.1ZM6.117 6v8.333h1.1V6h-1.1Zm.55 8.883h2.666v-1.1H6.667v1.1ZM8.783 6v8.333h1.1V6h-1.1Zm-7.116 8.883h1.666v-1.1H1.667v1.1Zm.15-1.354a7.126 7.126 0 0 0 1.808-.812l-.583-.933a6.027 6.027 0 0 1-1.526.687l.302 1.058Zm2.066.804v-2.082h-1.1v2.082h1.1Zm-.55.55H5v-1.1H3.333v1.1Zm1.667 0h1.667v-1.1H5v1.1Zm-1.375-2.166a7.605 7.605 0 0 0 1.797-1.564l-.844-.706a6.504 6.504 0 0 1-1.536 1.337l.583.933Zm1.797-1.564C6.483 9.885 7.217 8.161 7.217 6h-1.1c0 1.897-.64 3.373-1.539 4.447l.844.706Zm.128 3.18V10.8h-1.1v3.533h1.1Zm7.117.55h1.666v-1.1h-1.666v1.1Zm1.818-2.412a6.784 6.784 0 0 1-1.542-.653l-.553.95c.59.344 1.202.592 1.792.76l.303-1.057Zm-1.268 1.862v-2.04h-1.1v2.04h1.1Zm-3.884.55H11v-1.1H9.333v1.1Zm1.667 0h1.667v-1.1H11v1.1Zm1.943-3.065a6.033 6.033 0 0 1-1.528-1.255l-.83.721a7.135 7.135 0 0 0 1.805 1.484l.553-.95Zm-1.528-1.255C10.527 9.541 9.883 8.075 9.883 6h-1.1c0 2.321.728 4.05 1.802 5.284l.83-.722Zm.135 3.77v-3.41h-1.1v3.41h1.1Z"/>
</svg>
