<svg xmlns="http://www.w3.org/2000/svg" fill="none" viewBox="0 0 16 16" stroke-width="1.0" stroke="currentColor" aria-hidden="true" data-slot="icon">
  <g clip-path="url(#a)">
    <path stroke-linecap="round" stroke-linejoin="round" d="M13.895 8H15m-1.105 0A5.895 5.895 0 0 1 8 13.895M13.895 8A5.895 5.895 0 0 0 8 2.105m0 11.79V15m0-1.105A5.895 5.895 0 0 1 2.105 8M8 2.105V1m0 1.105A5.895 5.895 0 0 0 2.105 8m0 0H1m12.105 2.947 1.276.737m-9.33 1.421-.735 1.276m6.631-11.487.737-1.275m-8.79 3.434-1.275-.737m9.328 8.789.737 1.276m-8.79-3.434-1.275.737m11.486-6.633 1.276-.735m-9.33-1.421-.735-1.276M5.9 8h.7m0 0h.9m-.9 0V6.95M6.6 8l.525 1.05M7.5 8h.828M7.5 8l-.675-1.05M7.5 8V7l.828 1m0 0H9m-.672 0L8.7 6.95M9 8h.4M9 8l-.3-1.05M9 8l.3-1.05M9.4 8h.7m-.7 0-.525 1.05M9.4 8V6.95M6.6 6.6c0-.233.14-.7.7-.7m-.7.7v.35m0-.35.225.35M8.7 5.9c.7 0 .7.7.7.7m0 0v.35m0-.35-.1.35m-2.7 0h-.7m.7 0h.225M7.3 9.4v.35m0-.35-.175-.35m.175.35v-.35m-.175 0H5.9m1.225 0H7.3m1.4 0v.35m0-.35H7.3m1.4 0h.175M8.7 9.4v.35m0-.35.175-.35m0 0H10.1m-.7-2.1h-.1m.1 0h.7m-3.275 0H8.7m0 1.75H7.3v.35m1.4-2.1h.6M11.684 8a3.684 3.684 0 1 1-7.368 0 3.684 3.684 0 0 1 7.368 0Z"/>
  </g>
  <defs>
    <clipPath id="a">
      <path fill="#fff" d="M0 0h16v16H0z"/>
    </clipPath>
  </defs>
</svg>
