<svg xmlns="http://www.w3.org/2000/svg" fill="none" viewBox="0 0 16 16" stroke-width="1.0" stroke="currentColor" aria-hidden="true" data-slot="icon">
  <path fill="#000" d="M7.3 10.71a.5.5 0 0 0 0-1v1Zm1.4-1a.5.5 0 0 0 0 1v-1Zm6.3.5h.5-.5Zm-8.54 3.421v-.5a.5.5 0 0 0-.5.5h.5Zm3.08 0h.5a.5.5 0 0 0-.5-.5v.5Zm0 1.369v.5a.5.5 0 0 0 .5-.5h-.5Zm-3.08 0h-.5a.5.5 0 0 0 .5.5V15Zm1.27-3.079a.5.5 0 0 0-1 0h1Zm-.5 1.71h-.5a.5.5 0 0 0 .5.5v-.5Zm1.47 0v.5a.5.5 0 0 0 .5-.5h-.5Zm.5-1.71a.5.5 0 0 0-1 0h1Zm-1.97-1.71h-.5a.5.5 0 0 0 .5.5v-.5Zm1.54 0v.5a.5.5 0 0 0 .5-.5h-.5ZM7.23 2.683h-.5.5ZM1.07 7.658a.5.5 0 1 0 0 1v-1Zm6.66-3.605a.5.5 0 0 0-1 0h1Zm1.54 0a.5.5 0 0 0-1 0h1Zm5.66 4.605a.5.5 0 1 0 0-1v1Zm-4.12-2.21a.5.5 0 0 0-1 0h1Zm-1 3.762a.5.5 0 1 0 1 0h-1ZM6.19 6.447a.5.5 0 1 0-1 0h1Zm-1 3.763a.5.5 0 1 0 1 0h-1Zm7.16-2.736a.5.5 0 0 0-1 0h1Zm-1 2.737a.5.5 0 1 0 1 0h-1Zm-6.7-2.737a.5.5 0 1 0-1 0h1Zm-1 2.737a.5.5 0 0 0 1 0h-1Zm10.24-2.053a.5.5 0 0 0-1 0h1Zm-1 2.053a.5.5 0 1 0 1 0h-1ZM1.5 8.157a.5.5 0 0 0-1 0h1Zm14 0a.5.5 0 0 0-1 0h1Zm-12.39 0a.5.5 0 0 0-1 0h1Zm-1 2.053a.5.5 0 1 0 1 0h-1ZM7.73 2a.5.5 0 0 0-1 0h1Zm1.54 0a.5.5 0 0 0-1 0h1ZM7.23 3.895a.5.5 0 0 0 0 1v-1Zm1.54.5h.5v-.5h-.5v.5Zm0 2.052v.5h.5v-.5h-.5Zm-1.54 0v-.5h-.5v.5h.5Zm0 1.71h-.5v.5h.5v-.5Zm1.54 0h.5v-.5h-.5v.5ZM15 11.922v.5a.5.5 0 0 0 .5-.5H15Zm-14 0H.5a.5.5 0 0 0 .5.5v-.5Zm0-1.21h6.3v-1H1v1Zm7.7 0H15v-1H8.7v1Zm-2.24 3.42h3.08v-1H6.46v1Zm2.58-.5V15h1v-1.368h-1Zm.5.869H6.46v1h3.08v-1Zm-2.58.5v-1.368h-1V15h1Zm-.23-3.079v1.71h1v-1.71h-1Zm.5 2.21H8.7v-1H7.23v1Zm1.97-.5v-1.71h-1v1.71h1Zm-1.97-2.92h1.54v-1H7.23v1Zm2.04-.5V2.683h-1v7.526h1Zm-.5-8.027H7.23v1h1.54v-1Zm-2.04.5v7.526h1V2.684h-1ZM1.07 8.658c1.679 0 3.321-.74 4.532-1.638.61-.45 1.128-.954 1.499-1.449.358-.477.629-1.013.629-1.518h-1c0 .178-.114.498-.43.918-.302.404-.747.841-1.293 1.246-1.098.813-2.536 1.44-3.937 1.44v1Zm7.2-4.605c0 .505.271 1.041.63 1.518.37.495.888.998 1.498 1.45 1.211.896 2.853 1.637 4.532 1.637v-1c-1.401 0-2.839-.628-3.937-1.441-.546-.405-.99-.842-1.294-1.246-.315-.42-.429-.74-.429-.918h-1Zm1.54 2.394v3.763h1V6.447h-1Zm-4.62 0v3.763h1V6.447h-1Zm6.16 1.027v2.737h1V7.474h-1Zm-7.7 0v2.737h1V7.474h-1Zm9.24.684v2.053h1V8.157h-1Zm-12.39 0v2.053h1V8.157h-1Zm14 0v2.053h1V8.157h-1Zm-12.39 0v2.053h1V8.157h-1Zm5.62-5.474V2h-1v.684h1ZM8.27 2v.684h1V2h-1ZM7.23 4.895h1.54v-1H7.23v1Zm1.04-.5v2.052h1V4.395h-1Zm.5 1.552H7.23v1h1.54v-1Zm-2.04.5v1.71h1v-1.71h-1Zm.5 2.21h1.54v-1H7.23v1Zm1.04-.5v2.053h1V8.159h-1ZM15 11.422H1v1h14v-1Zm-13.5.5v-1.71h-1v1.71h1Zm-.5-1.21h14v-1H1v1Zm13.5-.5v1.71h1v-1.71h-1Z"/>
</svg>
