<svg xmlns="http://www.w3.org/2000/svg" fill="none" viewBox="0 0 16 16" stroke-width="1.0" stroke="currentColor" aria-hidden="true" data-slot="icon">
  <g clip-path="url(#a)">
    <path fill="#000" d="M4.489 5.729h-.5.5ZM8.499 1a.5.5 0 0 0-1 0h1Zm5.645 13.98v.5a.5.5 0 0 0 .5-.5h-.5Zm-12.288 0h-.5a.5.5 0 0 0 .5.5v-.5ZM4.5 12.05l-.452-.215a.5.5 0 0 0 .452.715v-.5Zm7 0v.5a.5.5 0 0 0 .452-.715l-.452.215Zm-8.2-1.694a.5.5 0 0 0 1 0h-1Zm3.133-2.276a.5.5 0 0 0 0-1v1Zm2.967-1a.5.5 0 0 0 0 1v-1Zm2.133 3.276a.5.5 0 0 0 1 0h-1ZM7.1 8.042a.5.5 0 0 0-1 0h1Zm-1 1.85a.5.5 0 1 0 1 0h-1Zm3.8-1.85a.5.5 0 0 0-1 0h1Zm-1 1.85a.5.5 0 1 0 1 0h-1Zm1-3.805v-.5h-1v.5h1Zm-1 1.165v.5h1v-.5h-1ZM7.1 6.05v-.5h-1v.5h1Zm-1 1.165v.5h1v-.5h-1Zm.85 6.31v-.5a.5.5 0 0 0-.5.5h.5Zm0 1.476h-.5a.5.5 0 0 0 .505.5L6.95 15Zm2.1-.02.005.5a.5.5 0 0 0 .495-.5h-.5Zm0-1.456h.5a.5.5 0 0 0-.5-.5v.5ZM1 9.82a.5.5 0 1 0 0 1v-1Zm14 1a.5.5 0 0 0 0-1v1ZM1 14.5a.5.5 0 0 0 0 1v-1Zm14 1a.5.5 0 1 0 0-1v1ZM5 12.128a.5.5 0 0 0-1 0h1ZM4.5 15H4a.5.5 0 0 0 .5.5V15Zm7 0v.5a.5.5 0 0 0 .5-.5h-.5Zm.5-2.872a.5.5 0 0 0-1 0h1Zm.01-6.4a4.305 4.305 0 0 0-1.165-2.96l-.725.688c.567.598.89 1.416.89 2.273h1Zm-1.165-2.96A3.922 3.922 0 0 0 8 1.528v1c.79 0 1.553.33 2.12.928l.725-.688ZM8 1.528c-1.073 0-2.096.45-2.845 1.24l.725.688A2.922 2.922 0 0 1 8 2.528v-1Zm-2.845 1.24a4.305 4.305 0 0 0-1.166 2.96h1c0-.856.323-1.674.891-2.272l-.725-.688Zm-1.166 2.96V7.58h1V5.73h-1Zm.5 2.351h7.022v-1H4.489v1Zm7.522-.5V5.73h-1v1.85h1Zm-.5-2.35H4.489v1h7.022v-1ZM8.5 2.028V1h-1v1.028h1Zm-6.644 8.827h12.288v-1H1.856v1Zm11.788-.5v4.625h1v-4.625h-1Zm.5 4.125H1.856v1h12.288v-1Zm-11.788.5v-4.625h-1v4.625h1ZM4.5 12.55h7v-1h-7v1Zm7.452-.715c-.383-.806-1.67-1.98-3.952-1.98v1c1.93 0 2.846.982 3.048 1.409l.904-.429ZM8 9.854c-2.282 0-3.57 1.174-3.952 1.98l.904.429c.202-.427 1.117-1.408 3.048-1.408v-1Zm-5.644.5c0-.854.203-1.402.521-1.737.313-.33.818-.538 1.612-.538v-1c-.962 0-1.773.255-2.338.85-.56.59-.795 1.43-.795 2.426h1Zm1.944 0c0-.854.203-1.402.52-1.737.314-.33.82-.538 1.613-.538v-1c-.962 0-1.773.255-2.338.85-.56.59-.795 1.43-.795 2.426h1Zm7.21-2.275c.794 0 1.3.208 1.613.538.318.335.521.883.521 1.738h1c0-.996-.236-1.836-.796-2.426-.564-.595-1.376-.85-2.337-.85v1Zm-2.11 0c.794 0 1.299.208 1.612.538.318.335.521.883.521 1.738h1c0-.996-.236-1.836-.795-2.426-.565-.595-1.376-.85-2.338-.85v1Zm-3.3-.037v1.85h1v-1.85h-1Zm2.8 0v1.85h1v-1.85h-1Zm0-1.955v1.165h1V6.087h-1ZM6.1 6.05v1.165h1V6.049h-1Zm.35 7.475V15h1v-1.476h-1Zm.505 1.976 2.1-.02-.01-1-2.1.02.01 1Zm2.595-.52v-1.456h-1v1.457h1ZM1 10.82h14v-1H1v1Zm0 4.68h14v-1H1v1Zm3-3.372V15h1v-2.872H4Zm.5 3.372h7v-1h-7v1ZM12 15v-2.872h-1V15h1Zm-2.95-1.976h-2.1v1h2.1v-1Z"/>
  </g>
  <defs>
    <clipPath id="a">
      <path fill="#fff" d="M0 0h16v16H0z"/>
    </clipPath>
  </defs>
</svg>
