<svg xmlns="http://www.w3.org/2000/svg" fill="none" viewBox="0 0 16 16" stroke-width="1.0" stroke="currentColor" aria-hidden="true" data-slot="icon">
  <path stroke-linecap="square" stroke-linejoin="round" d="M4 10.01c0-1.718.836-2.567 2.508-2.567h2.825c1.672 0 2.508.849 2.508 2.567"/>
  <path stroke-linecap="round" stroke-linejoin="round" d="M7 14.333v-1.37h2v1.352"/>
  <path stroke-linecap="round" stroke-linejoin="round" d="M4.667 14.333v-2.74C4.945 11.02 5.994 10.02 8 10.02c2.006 0 3.055 1 3.333 1.573v2.74M8 1.333V2"/>
  <path stroke-linecap="square" stroke-linejoin="round" d="M6.667 6v4M9.333 6v4"/>
  <path stroke-linecap="round" stroke-linejoin="round" d="M4.667 7.333v-2a3.333 3.333 0 1 1 6.666 0v2M14 14.333V10a2.667 2.667 0 0 0-2.667-2.667H4.667A2.667 2.667 0 0 0 2 10v4.333M4.667 5.667h6.666M1.333 14.333h13.334M1.333 10.01h13.334"/>
</svg>
