<svg xmlns="http://www.w3.org/2000/svg" fill="none" viewBox="0 0 16 16" stroke-width="1.0" stroke="currentColor" aria-hidden="true" data-slot="icon">
  <path stroke-linecap="round" stroke-linejoin="round" d="M9.467 14.667v-1.334H6.533v1.334h2.934ZM7.267 11.667v1.666m1.4 0v-1.666M1.333 10h13.333v1.669H1.333zM7.267 10V2m1.466 8V2M10.2 6.333V10M5.8 6.333V10m5.867-2.667V10M4.333 7.333V10m8.8-2v2M2.867 8v2M8.733 2.667H7.267m0 1.666h1.466m0 2H7.267m0 1.667h1.466M1.333 10V8c2.934 0 5.934-2.667 5.934-4m7.4 6V8c-2.934 0-5.934-2.667-5.934-4"/>
</svg>
