<svg xmlns="http://www.w3.org/2000/svg" fill="none" viewBox="0 0 16 16" stroke-width="1.0" stroke="currentColor" aria-hidden="true" data-slot="icon">
  <path stroke-linecap="round" d="M2 14.361h13M9.944 3.528h1.084m-1.084 0V1m0 2.528-1.444.36m1.444-.36v1.444l-.722 1.445m-3.25-2.89h1.084m0 0V1m0 2.528 1.444.36m-1.444-.36v1.444l.722 1.445m-1.445 5.055L5.611 14m.722-2.528H8.5m-2.167 0 2.167.722m-2.167-.722 1.445-5.055m2.889 5.055L11.389 14m-.722-2.528H8.5m2.167 0-2.167.722m2.167-.722L9.222 6.417M8.5 11.472V6.417m0 5.055v.722m0 0v2.167m-.722-7.944H8.5m.722 0H8.5m0-2.528v2.528m0-2.528V2.444m-1.444 6.5h2.888L8.5 9.667l-1.444-.723Z"/>
</svg>
