<svg xmlns="http://www.w3.org/2000/svg" fill="none" viewBox="0 0 16 16" stroke-width="1.0" stroke="currentColor" aria-hidden="true" data-slot="icon">
  <path stroke-linecap="round" stroke-linejoin="round" d="M3.713 5.479C2.553 5.363.93 5.618.93 7.566c0 2.435 4.87 1.392 4.87 3.48 0 1.12-.903 1.94-1.74 2.46m-.347-8.027S5.453 2 7.887 2c2.436 0 4.175 3.479 4.175 3.479m-8.35 0s-3.13 3.13 4.175 3.13c7.306 0 4.175-3.13 4.175-3.13m0 0c1.16-.116 2.783.139 2.783 2.087 0 2.435-4.87 1.392-4.87 3.48 0 .903 1 1.848 1.74 2.434M13.885 15s-2.5-2.563-5.999-2.563c-3.5 0-6 2.563-6 2.563"/>
</svg>
