<svg xmlns="http://www.w3.org/2000/svg" viewBox="0 0 24 24" fill="currentColor" aria-hidden="true">
  <path fill-rule="evenodd" d="M6.32 1.827a49.255 49.255 0 0111.36 0c1.497.174 2.57 1.46 2.57 2.93V19.5a3 3 0 01-3 3H6.75a3 3 0 01-3-3V4.757c0-1.47 1.073-2.756 2.57-2.93zM7.5 11.25a.75.75 0 01.75-.75h.008a.75.75 0 01.75.75v.008a.75.75 0 01-.75.75H8.25a.75.75 0 01-.75-.75v-.008zm.75 1.5a.75.75 0 00-.75.75v.008c0 .414.336.75.75.75h.008a.75.75 0 00.75-.75V13.5a.75.75 0 00-.75-.75H8.25zm-.75 3a.75.75 0 01.75-.75h.008a.75.75 0 01.75.75v.008a.75.75 0 01-.75.75H8.25a.75.75 0 01-.75-.75v-.008zm.75 1.5a.75.75 0 00-.75.75v.008c0 .414.336.75.75.75h.008a.75.75 0 00.75-.75V18a.75.75 0 00-.75-.75H8.25zm1.748-6a.75.75 0 01.75-.75h.007a.75.75 0 01.75.75v.008a.75.75 0 01-.75.75h-.007a.75.75 0 01-.75-.75v-.008zm.75 1.5a.75.75 0 00-.75.75v.008c0 .414.335.75.75.75h.007a.75.75 0 00.75-.75V13.5a.75.75 0 00-.75-.75h-.007zm-.75 3a.75.75 0 01.75-.75h.007a.75.75 0 01.75.75v.008a.75.75 0 01-.75.75h-.007a.75.75 0 01-.75-.75v-.008zm.75 1.5a.75.75 0 00-.75.75v.008c0 .414.335.75.75.75h.007a.75.75 0 00.75-.75V18a.75.75 0 00-.75-.75h-.007zm1.754-6a.75.75 0 01.75-.75h.008a.75.75 0 01.75.75v.008a.75.75 0 01-.75.75h-.008a.75.75 0 01-.75-.75v-.008zm.75 1.5a.75.75 0 00-.75.75v.008c0 .414.336.75.75.75h.008a.75.75 0 00.75-.75V13.5a.75.75 0 00-.75-.75h-.008zm-.75 3a.75.75 0 01.75-.75h.008a.75.75 0 01.75.75v.008a.75.75 0 01-.75.75h-.008a.75.75 0 01-.75-.75v-.008zm.75 1.5a.75.75 0 00-.75.75v.008c0 .414.336.75.75.75h.008a.75.75 0 00.75-.75V18a.75.75 0 00-.75-.75h-.008zm1.748-6a.75.75 0 01.75-.75h.008a.75.75 0 01.75.75v.008a.75.75 0 01-.75.75h-.008a.75.75 0 01-.75-.75v-.008zm.75 1.5a.75.75 0 00-.75.75v.008c0 .414.336.75.75.75h.008a.75.75 0 00.75-.75V13.5a.75.75 0 00-.75-.75h-.008zm-8.25-6A.75.75 0 018.25 6h7.5a.75.75 0 01.75.75v.75a.75.75 0 01-.75.75h-7.5a.75.75 0 01-.75-.75v-.75zm9 9a.75.75 0 00-1.5 0V18a.75.75 0 001.5 0v-2.25z" clip-rule="evenodd"/>
</svg>
