<svg xmlns="http://www.w3.org/2000/svg" viewBox="0 0 24 24" fill="currentColor" aria-hidden="true">
  <path fill-rule="evenodd" d="M12 2.25c-5.385 0-9.75 4.365-9.75 9.75s4.365 9.75 9.75 9.75 9.75-4.365 9.75-9.75S17.385 2.25 12 2.25zM9.624 7.084a.75.75 0 00-1.248.832l2.223 3.334H9a.75.75 0 000 1.5h2.25v1.5H9a.75.75 0 000 1.5h2.25v1.5a.75.75 0 001.5 0v-1.5H15a.75.75 0 000-1.5h-2.25v-1.5H15a.75.75 0 000-1.5h-1.599l2.223-3.334a.75.75 0 10-1.248-.832L12 10.648 9.624 7.084z" clip-rule="evenodd"/>
</svg>
