<svg xmlns="http://www.w3.org/2000/svg" viewBox="0 0 24 24" fill="currentColor" aria-hidden="true">
  <path fill-rule="evenodd" d="M3 4.875C3 3.839 3.84 3 4.875 3h4.5c1.036 0 1.875.84 1.875 1.875v4.5c0 1.036-.84 1.875-1.875 1.875h-4.5A1.875 1.875 0 013 9.375v-4.5zM4.875 4.5a.375.375 0 00-.375.375v4.5c0 .207.168.375.375.375h4.5a.375.375 0 00.375-.375v-4.5a.375.375 0 00-.375-.375h-4.5zm7.875.375c0-1.036.84-1.875 1.875-1.875h4.5C20.16 3 21 3.84 21 4.875v4.5c0 1.036-.84 1.875-1.875 1.875h-4.5a1.875 1.875 0 01-1.875-1.875v-4.5zm1.875-.375a.375.375 0 00-.375.375v4.5c0 .207.168.375.375.375h4.5a.375.375 0 00.375-.375v-4.5a.375.375 0 00-.375-.375h-4.5zM6 6.75A.75.75 0 016.75 6h.75a.75.75 0 01.75.75v.75a.75.75 0 01-.75.75h-.75A.75.75 0 016 7.5v-.75zm9.75 0A.75.75 0 0116.5 6h.75a.75.75 0 01.75.75v.75a.75.75 0 01-.75.75h-.75a.75.75 0 01-.75-.75v-.75zM3 14.625c0-1.036.84-1.875 1.875-1.875h4.5c1.036 0 1.875.84 1.875 1.875v4.5c0 1.035-.84 1.875-1.875 1.875h-4.5A1.875 1.875 0 013 19.125v-4.5zm1.875-.375a.375.375 0 00-.375.375v4.5c0 .207.168.375.375.375h4.5a.375.375 0 00.375-.375v-4.5a.375.375 0 00-.375-.375h-4.5zm7.875-.75a.75.75 0 01.75-.75h.75a.75.75 0 01.75.75v.75a.75.75 0 01-.75.75h-.75a.75.75 0 01-.75-.75v-.75zm6 0a.75.75 0 01.75-.75h.75a.75.75 0 01.75.75v.75a.75.75 0 01-.75.75h-.75a.75.75 0 01-.75-.75v-.75zM6 16.5a.75.75 0 01.75-.75h.75a.75.75 0 01.75.75v.75a.75.75 0 01-.75.75h-.75a.75.75 0 01-.75-.75v-.75zm9.75 0a.75.75 0 01.75-.75h.75a.75.75 0 01.75.75v.75a.75.75 0 01-.75.75h-.75a.75.75 0 01-.75-.75v-.75zm-3 3a.75.75 0 01.75-.75h.75a.75.75 0 01.75.75v.75a.75.75 0 01-.75.75h-.75a.75.75 0 01-.75-.75v-.75zm6 0a.75.75 0 01.75-.75h.75a.75.75 0 01.75.75v.75a.75.75 0 01-.75.75h-.75a.75.75 0 01-.75-.75v-.75z" clip-rule="evenodd"/>
</svg>
