<svg xmlns="http://www.w3.org/2000/svg" viewBox="0 0 24 24" fill="currentColor" aria-hidden="true">
  <path fill-rule="evenodd" d="M1.5 5.625c0-1.036.84-1.875 1.875-1.875h17.25c1.035 0 1.875.84 1.875 1.875v12.75c0 1.035-.84 1.875-1.875 1.875H3.375A1.875 1.875 0 011.5 18.375V5.625zM21 9.375A.375.375 0 0020.625 9h-7.5a.375.375 0 00-.375.375v1.5c0 .207.168.375.375.375h7.5a.375.375 0 00.375-.375v-1.5zm0 3.75a.375.375 0 00-.375-.375h-7.5a.375.375 0 00-.375.375v1.5c0 .207.168.375.375.375h7.5a.375.375 0 00.375-.375v-1.5zm0 3.75a.375.375 0 00-.375-.375h-7.5a.375.375 0 00-.375.375v1.5c0 .207.168.375.375.375h7.5a.375.375 0 00.375-.375v-1.5zM10.875 18.75a.375.375 0 00.375-.375v-1.5a.375.375 0 00-.375-.375h-7.5a.375.375 0 00-.375.375v1.5c0 .207.168.375.375.375h7.5zM3.375 15h7.5a.375.375 0 00.375-.375v-1.5a.375.375 0 00-.375-.375h-7.5a.375.375 0 00-.375.375v1.5c0 .207.168.375.375.375zm0-3.75h7.5a.375.375 0 00.375-.375v-1.5A.375.375 0 0010.875 9h-7.5A.375.375 0 003 9.375v1.5c0 .207.168.375.375.375z" clip-rule="evenodd"/>
</svg>
