<svg xmlns="http://www.w3.org/2000/svg" viewBox="0 0 24 24" fill="currentColor" aria-hidden="true">
  <path fill-rule="evenodd" d="M1.5 6.375c0-1.036.84-1.875 1.875-1.875h17.25c1.035 0 1.875.84 1.875 1.875v3.026a.75.75 0 01-.375.65 2.249 2.249 0 000 3.898.75.75 0 01.375.65v3.026c0 1.035-.84 1.875-1.875 1.875H3.375A1.875 1.875 0 011.5 17.625v-3.026a.75.75 0 01.374-.65 2.249 2.249 0 000-3.898.75.75 0 01-.374-.65V6.375zm15-1.125a.75.75 0 01.75.75v.75a.75.75 0 01-1.5 0V6a.75.75 0 01.75-.75zm.75 4.5a.75.75 0 00-1.5 0v.75a.75.75 0 001.5 0v-.75zm-.75 3a.75.75 0 01.75.75v.75a.75.75 0 01-1.5 0v-.75a.75.75 0 01.75-.75zm.75 4.5a.75.75 0 00-1.5 0V18a.75.75 0 001.5 0v-.75zM6 12a.75.75 0 01.75-.75H12a.75.75 0 010 1.5H6.75A.75.75 0 016 12zm.75 2.25a.75.75 0 000 1.5h3a.75.75 0 000-1.5h-3z" clip-rule="evenodd"/>
</svg>
