<svg xmlns="http://www.w3.org/2000/svg" viewBox="0 0 24 24" fill="currentColor" aria-hidden="true">
  <path fill-rule="evenodd" d="M3.22 3.22a.75.75 0 011.06 0l3.97 3.97V4.5a.75.75 0 011.5 0V9a.75.75 0 01-.75.75H4.5a.75.75 0 010-1.5h2.69L3.22 4.28a.75.75 0 010-1.06zm17.56 0a.75.75 0 010 1.06l-3.97 3.97h2.69a.75.75 0 010 1.5H15a.75.75 0 01-.75-.75V4.5a.75.75 0 011.5 0v2.69l3.97-3.97a.75.75 0 011.06 0zM3.75 15a.75.75 0 01.75-.75H9a.75.75 0 01.75.75v4.5a.75.75 0 01-1.5 0v-2.69l-3.97 3.97a.75.75 0 01-1.06-1.06l3.97-3.97H4.5a.75.75 0 01-.75-.75zm10.5 0a.75.75 0 01.75-.75h4.5a.75.75 0 010 1.5h-2.69l3.97 3.97a.75.75 0 11-1.06 1.06l-3.97-3.97v2.69a.75.75 0 01-1.5 0V15z" clip-rule="evenodd"/>
</svg>
