<svg xmlns="http://www.w3.org/2000/svg" viewBox="0 0 24 24" fill="currentColor" aria-hidden="true">
  <path fill-rule="evenodd" d="M12 5.25c-1.213 0-2.415.046-3.605.135a3.256 3.256 0 00-3.01 3.01c-.044.583-.077 1.17-.1 1.759L6.97 8.47a.75.75 0 011.06 1.06l-3 3a.75.75 0 01-1.06 0l-3-3a.75.75 0 011.06-1.06l1.752 1.751c.023-.65.06-1.296.108-1.939A4.756 4.756 0 018.282 3.89a49.423 49.423 0 017.436 0 4.756 4.756 0 014.392 4.392c.017.224.032.447.046.672a.75.75 0 01-1.497.092 48.187 48.187 0 00-.044-.651 3.256 3.256 0 00-3.01-3.01A47.926 47.926 0 0012 5.25zm6.97 6.22a.75.75 0 011.06 0l3 3a.75.75 0 11-1.06 1.06l-1.752-1.751a49.25 49.25 0 01-.108 1.939 4.756 4.756 0 01-4.392 4.392 49.412 49.412 0 01-7.436 0 4.756 4.756 0 01-4.392-4.392 49.112 49.112 0 01-.046-.672.75.75 0 111.497-.092c.013.217.028.434.044.651a3.256 3.256 0 003.01 3.01 47.951 47.951 0 007.21 0 3.256 3.256 0 003.01-3.01c.044-.583.077-1.17.1-1.759L17.03 15.53a.75.75 0 11-1.06-1.06l3-3z" clip-rule="evenodd"/>
</svg>
