<svg xmlns="http://www.w3.org/2000/svg" viewBox="0 0 24 24" fill="currentColor" aria-hidden="true">
  <path fill-rule="evenodd" d="M15 3.75a.75.75 0 01.75-.75h4.5a.75.75 0 01.75.75v4.5a.75.75 0 01-1.5 0V5.56l-3.97 3.97a.75.75 0 11-1.06-1.06l3.97-3.97h-2.69a.75.75 0 01-.75-.75zm-12 0A.75.75 0 013.75 3h4.5a.75.75 0 010 1.5H5.56l3.97 3.97a.75.75 0 01-1.06 1.06L4.5 5.56v2.69a.75.75 0 01-1.5 0v-4.5zm11.47 11.78a.75.75 0 111.06-1.06l3.97 3.97v-2.69a.75.75 0 011.5 0v4.5a.75.75 0 01-.75.75h-4.5a.75.75 0 010-1.5h2.69l-3.97-3.97zm-4.94-1.06a.75.75 0 010 1.06L5.56 19.5h2.69a.75.75 0 010 1.5h-4.5a.75.75 0 01-.75-.75v-4.5a.75.75 0 011.5 0v2.69l3.97-3.97a.75.75 0 011.06 0z" clip-rule="evenodd"/>
</svg>
