<svg xmlns="http://www.w3.org/2000/svg" viewBox="0 0 24 24" fill="currentColor" aria-hidden="true">
  <path fill-rule="evenodd" d="M9.75 6.75h-3a3 3 0 00-3 3v7.5a3 3 0 003 3h7.5a3 3 0 003-3v-7.5a3 3 0 00-3-3h-3V1.5a.75.75 0 00-1.5 0v5.25zm0 0h1.5v5.69l1.72-1.72a.75.75 0 111.06 1.06l-3 3a.75.75 0 01-1.06 0l-3-3a.75.75 0 111.06-1.06l1.72 1.72V6.75z" clip-rule="evenodd"/>
  <path d="M7.151 21.75a2.999 2.999 0 002.599 1.5h7.5a3 3 0 003-3v-7.5c0-1.11-.603-2.08-1.5-2.599v7.099a4.5 4.5 0 01-4.5 4.5H7.151z"/>
</svg>
