<svg xmlns="http://www.w3.org/2000/svg" viewBox="0 0 24 24" fill="currentColor" aria-hidden="true">
  <path fill-rule="evenodd" d="M2.25 4.5A.75.75 0 013 3.75h14.25a.75.75 0 010 1.5H3a.75.75 0 01-.75-.75zm0 4.5A.75.75 0 013 8.25h9.75a.75.75 0 010 1.5H3A.75.75 0 012.25 9zm15-.75A.75.75 0 0118 9v10.19l2.47-2.47a.75.75 0 111.06 1.06l-3.75 3.75a.75.75 0 01-1.06 0l-3.75-3.75a.75.75 0 111.06-1.06l2.47 2.47V9a.75.75 0 01.75-.75zm-15 5.25a.75.75 0 01.75-.75h9.75a.75.75 0 010 1.5H3a.75.75 0 01-.75-.75z" clip-rule="evenodd"/>
</svg>
