<svg xmlns="http://www.w3.org/2000/svg" viewBox="0 0 24 24" fill="currentColor" aria-hidden="true">
  <path fill-rule="evenodd" d="M2.25 4.5A.75.75 0 013 3.75h14.25a.75.75 0 010 1.5H3a.75.75 0 01-.75-.75zm14.47 3.97a.75.75 0 011.06 0l3.75 3.75a.75.75 0 11-1.06 1.06L18 10.81V21a.75.75 0 01-1.5 0V10.81l-2.47 2.47a.75.75 0 11-1.06-1.06l3.75-3.75zM2.25 9A.75.75 0 013 8.25h9.75a.75.75 0 010 1.5H3A.75.75 0 012.25 9zm0 4.5a.75.75 0 01.75-.75h5.25a.75.75 0 010 1.5H3a.75.75 0 01-.75-.75z" clip-rule="evenodd"/>
</svg>
