<svg xmlns="http://www.w3.org/2000/svg" viewBox="0 0 24 24" fill="currentColor" aria-hidden="true" data-slot="icon">
  <path fill-rule="evenodd" d="M2.25 4.5A.75.75 0 0 1 3 3.75h14.25a.75.75 0 0 1 0 1.5H3a.75.75 0 0 1-.75-.75Zm14.47 3.97a.75.75 0 0 1 1.06 0l3.75 3.75a.75.75 0 1 1-1.06 1.06L18 10.81V21a.75.75 0 0 1-1.5 0V10.81l-2.47 2.47a.75.75 0 1 1-1.06-1.06l3.75-3.75ZM2.25 9A.75.75 0 0 1 3 8.25h9.75a.75.75 0 0 1 0 1.5H3A.75.75 0 0 1 2.25 9Zm0 4.5a.75.75 0 0 1 .75-.75h5.25a.75.75 0 0 1 0 1.5H3a.75.75 0 0 1-.75-.75Z" clip-rule="evenodd"/>
</svg>
