<svg xmlns="http://www.w3.org/2000/svg" viewBox="0 0 24 24" fill="currentColor" aria-hidden="true" data-slot="icon">
  <path fill-rule="evenodd" d="M12 2.25A6.75 6.75 0 0 0 5.25 9v.75a8.217 8.217 0 0 1-2.119 5.52.75.75 0 0 0 .298 1.206c1.544.57 3.16.99 4.831 1.243a3.75 3.75 0 1 0 7.48 0 24.583 24.583 0 0 0 4.83-1.244.75.75 0 0 0 .298-1.205 8.217 8.217 0 0 1-2.118-5.52V9A6.75 6.75 0 0 0 12 2.25ZM9.75 18c0-.034 0-.067.002-.1a25.05 25.05 0 0 0 4.496 0l.002.1a2.25 2.25 0 1 1-4.5 0Zm.75-10.5a.75.75 0 0 0 0 1.5h1.599l-2.223 3.334A.75.75 0 0 0 10.5 13.5h3a.75.75 0 0 0 0-1.5h-1.599l2.223-3.334A.75.75 0 0 0 13.5 7.5h-3Z" clip-rule="evenodd"/>
</svg>
