<svg xmlns="http://www.w3.org/2000/svg" viewBox="0 0 24 24" fill="currentColor" aria-hidden="true" data-slot="icon">
  <path fill-rule="evenodd" d="M6.32 1.827a49.255 49.255 0 0 1 11.36 0c1.497.174 2.57 1.46 2.57 2.93V19.5a3 3 0 0 1-3 3H6.75a3 3 0 0 1-3-3V4.757c0-1.47 1.073-2.756 2.57-2.93ZM7.5 11.25a.75.75 0 0 1 .75-.75h.008a.75.75 0 0 1 .75.75v.008a.75.75 0 0 1-.75.75H8.25a.75.75 0 0 1-.75-.75v-.008Zm.75 1.5a.75.75 0 0 0-.75.75v.008c0 .414.336.75.75.75h.008a.75.75 0 0 0 .75-.75V13.5a.75.75 0 0 0-.75-.75H8.25Zm-.75 3a.75.75 0 0 1 .75-.75h.008a.75.75 0 0 1 .75.75v.008a.75.75 0 0 1-.75.75H8.25a.75.75 0 0 1-.75-.75v-.008Zm.75 1.5a.75.75 0 0 0-.75.75v.008c0 .414.336.75.75.75h.008a.75.75 0 0 0 .75-.75V18a.75.75 0 0 0-.75-.75H8.25Zm1.748-6a.75.75 0 0 1 .75-.75h.007a.75.75 0 0 1 .75.75v.008a.75.75 0 0 1-.75.75h-.007a.75.75 0 0 1-.75-.75v-.008Zm.75 1.5a.75.75 0 0 0-.75.75v.008c0 .414.335.75.75.75h.007a.75.75 0 0 0 .75-.75V13.5a.75.75 0 0 0-.75-.75h-.007Zm-.75 3a.75.75 0 0 1 .75-.75h.007a.75.75 0 0 1 .75.75v.008a.75.75 0 0 1-.75.75h-.007a.75.75 0 0 1-.75-.75v-.008Zm.75 1.5a.75.75 0 0 0-.75.75v.008c0 .414.335.75.75.75h.007a.75.75 0 0 0 .75-.75V18a.75.75 0 0 0-.75-.75h-.007Zm1.754-6a.75.75 0 0 1 .75-.75h.008a.75.75 0 0 1 .75.75v.008a.75.75 0 0 1-.75.75h-.008a.75.75 0 0 1-.75-.75v-.008Zm.75 1.5a.75.75 0 0 0-.75.75v.008c0 .414.336.75.75.75h.008a.75.75 0 0 0 .75-.75V13.5a.75.75 0 0 0-.75-.75h-.008Zm-.75 3a.75.75 0 0 1 .75-.75h.008a.75.75 0 0 1 .75.75v.008a.75.75 0 0 1-.75.75h-.008a.75.75 0 0 1-.75-.75v-.008Zm.75 1.5a.75.75 0 0 0-.75.75v.008c0 .414.336.75.75.75h.008a.75.75 0 0 0 .75-.75V18a.75.75 0 0 0-.75-.75h-.008Zm1.748-6a.75.75 0 0 1 .75-.75h.008a.75.75 0 0 1 .75.75v.008a.75.75 0 0 1-.75.75h-.008a.75.75 0 0 1-.75-.75v-.008Zm.75 1.5a.75.75 0 0 0-.75.75v.008c0 .414.336.75.75.75h.008a.75.75 0 0 0 .75-.75V13.5a.75.75 0 0 0-.75-.75h-.008Zm-8.25-6A.75.75 0 0 1 8.25 6h7.5a.75.75 0 0 1 .75.75v.75a.75.75 0 0 1-.75.75h-7.5a.75.75 0 0 1-.75-.75v-.75Zm9 9a.75.75 0 0 0-1.5 0V18a.75.75 0 0 0 1.5 0v-2.25Z" clip-rule="evenodd"/>
</svg>
