<svg xmlns="http://www.w3.org/2000/svg" viewBox="0 0 24 24" fill="currentColor" aria-hidden="true" data-slot="icon">
  <path fill-rule="evenodd" d="M3 6a3 3 0 0 1 3-3h12a3 3 0 0 1 3 3v12a3 3 0 0 1-3 3H6a3 3 0 0 1-3-3V6Zm4.5 7.5a.75.75 0 0 1 .75.75v2.25a.75.75 0 0 1-1.5 0v-2.25a.75.75 0 0 1 .75-.75Zm3.75-1.5a.75.75 0 0 0-1.5 0v4.5a.75.75 0 0 0 1.5 0V12Zm2.25-3a.75.75 0 0 1 .75.75v6.75a.75.75 0 0 1-1.5 0V9.75A.75.75 0 0 1 13.5 9Zm3.75-1.5a.75.75 0 0 0-1.5 0v9a.75.75 0 0 0 1.5 0v-9Z" clip-rule="evenodd"/>
</svg>
