<svg xmlns="http://www.w3.org/2000/svg" viewBox="0 0 24 24" fill="currentColor" aria-hidden="true">
  <path fill-rule="evenodd" d="M4.875 7.5C3.839 7.5 3 8.34 3 9.375v11.25c0 1.035.84 1.875 1.875 1.875h9.75c1.036 0 1.875-.84 1.875-1.875V9.375c0-1.036-.84-1.875-1.875-1.875h-9.75zm8.016 5.33a.75.75 0 10-1.032-1.089 12.778 12.778 0 00-2.877 4.055l-.952-.951a.75.75 0 00-1.06 1.06l1.76 1.761a.75.75 0 001.24-.289 11.258 11.258 0 012.92-4.547z" clip-rule="evenodd"/>
  <path fill-rule="evenodd" d="M11.248 6H7.502c.052-1.46 1.16-2.706 2.662-2.831.224-.019.448-.036.673-.051A3 3 0 0113.5 1.5H15a3 3 0 012.663 1.618c.225.015.45.032.673.05C19.876 3.298 21 4.604 21 6.109v9.642a3 3 0 01-3 3V9.375A3.375 3.375 0 0014.63 6H11.248zM12 4.5A1.5 1.5 0 0113.5 3H15a1.5 1.5 0 011.5 1.5H12z" clip-rule="evenodd"/>
</svg>
