<svg xmlns="http://www.w3.org/2000/svg" viewBox="0 0 24 24" fill="currentColor" aria-hidden="true" data-slot="icon">
  <path fill-rule="evenodd" d="M12 2.25c-5.385 0-9.75 4.365-9.75 9.75s4.365 9.75 9.75 9.75 9.75-4.365 9.75-9.75S17.385 2.25 12 2.25Zm-1.902 7.098a3.75 3.75 0 0 1 3.903-.884.75.75 0 1 0 .498-1.415A5.25 5.25 0 0 0 8.005 9.75H7.5a.75.75 0 0 0 0 1.5h.054a5.281 5.281 0 0 0 0 1.5H7.5a.75.75 0 0 0 0 1.5h.505a5.25 5.25 0 0 0 6.494 2.701.75.75 0 1 0-.498-1.415 3.75 3.75 0 0 1-4.252-1.286h3.001a.75.75 0 0 0 0-1.5H9.075a3.77 3.77 0 0 1 0-1.5h3.675a.75.75 0 0 0 0-1.5h-3c.105-.14.221-.274.348-.402Z" clip-rule="evenodd"/>
</svg>
