<svg xmlns="http://www.w3.org/2000/svg" viewBox="0 0 24 24" fill="currentColor" aria-hidden="true" data-slot="icon">
  <path fill-rule="evenodd" d="M3.75 3.375c0-1.036.84-1.875 1.875-1.875H9a3.75 3.75 0 0 1 3.75 3.75v1.875c0 1.036.84 1.875 1.875 1.875H16.5a3.75 3.75 0 0 1 3.75 3.75v7.875c0 1.035-.84 1.875-1.875 1.875H5.625a1.875 1.875 0 0 1-1.875-1.875V3.375Zm7.464 9.442c.459-.573 1.019-.817 1.536-.817.517 0 1.077.244 1.536.817a.75.75 0 1 0 1.171-.937c-.713-.892-1.689-1.38-2.707-1.38-1.018 0-1.994.488-2.707 1.38a4.61 4.61 0 0 0-.705 1.245H8.25a.75.75 0 0 0 0 1.5h.763c-.017.25-.017.5 0 .75H8.25a.75.75 0 0 0 0 1.5h1.088c.17.449.406.87.705 1.245.713.892 1.689 1.38 2.707 1.38 1.018 0 1.994-.488 2.707-1.38a.75.75 0 0 0-1.171-.937c-.459.573-1.019.817-1.536.817-.517 0-1.077-.244-1.536-.817-.078-.098-.15-.2-.215-.308h1.751a.75.75 0 0 0 0-1.5h-2.232a3.965 3.965 0 0 1 0-.75h2.232a.75.75 0 0 0 0-1.5H11c.065-.107.136-.21.214-.308Z" clip-rule="evenodd"/>
  <path d="M14.25 5.25a5.23 5.23 0 0 0-1.279-3.434 9.768 9.768 0 0 1 6.963 6.963A5.23 5.23 0 0 0 16.5 7.5h-1.875a.375.375 0 0 1-.375-.375V5.25Z"/>
</svg>
