<svg xmlns="http://www.w3.org/2000/svg" viewBox="0 0 24 24" fill="currentColor" aria-hidden="true" data-slot="icon">
  <path fill-rule="evenodd" d="M3.75 3.375c0-1.036.84-1.875 1.875-1.875H9a3.75 3.75 0 0 1 3.75 3.75v1.875c0 1.036.84 1.875 1.875 1.875H16.5a3.75 3.75 0 0 1 3.75 3.75v7.875c0 1.035-.84 1.875-1.875 1.875H5.625a1.875 1.875 0 0 1-1.875-1.875V3.375Zm10.5 1.875a5.23 5.23 0 0 0-1.279-3.434 9.768 9.768 0 0 1 6.963 6.963A5.23 5.23 0 0 0 16.5 7.5h-1.875a.375.375 0 0 1-.375-.375V5.25Zm-4.5 5.25a.75.75 0 0 0 0 1.5h.375c.769 0 1.43.463 1.719 1.125H9.75a.75.75 0 0 0 0 1.5h2.094a1.875 1.875 0 0 1-1.719 1.125H9.75a.75.75 0 0 0-.53 1.28l2.25 2.25a.75.75 0 0 0 1.06-1.06l-1.193-1.194a3.382 3.382 0 0 0 2.08-2.401h.833a.75.75 0 0 0 0-1.5h-.834A3.357 3.357 0 0 0 12.932 12h1.318a.75.75 0 0 0 0-1.5H10.5c-.04 0-.08.003-.12.01a3.425 3.425 0 0 0-.255-.01H9.75Z" clip-rule="evenodd"/>
</svg>
