<svg xmlns="http://www.w3.org/2000/svg" viewBox="0 0 24 24" fill="currentColor" aria-hidden="true" data-slot="icon">
  <path fill-rule="evenodd" d="M3.75 3.375c0-1.036.84-1.875 1.875-1.875H9a3.75 3.75 0 0 1 3.75 3.75v1.875c0 1.036.84 1.875 1.875 1.875H16.5a3.75 3.75 0 0 1 3.75 3.75v7.875c0 1.035-.84 1.875-1.875 1.875H5.625a1.875 1.875 0 0 1-1.875-1.875V3.375Zm10.5 1.875a5.23 5.23 0 0 0-1.279-3.434 9.768 9.768 0 0 1 6.963 6.963A5.23 5.23 0 0 0 16.5 7.5h-1.875a.375.375 0 0 1-.375-.375V5.25Zm-3.674 9.583a2.249 2.249 0 0 1 3.765-2.174.75.75 0 0 0 1.06-1.06A3.75 3.75 0 0 0 9.076 15H8.25a.75.75 0 0 0 0 1.5h1.156a3.75 3.75 0 0 1-.206 1.559l-.156.439a.75.75 0 0 0 1.042.923l.439-.22a2.113 2.113 0 0 1 1.613-.115 3.613 3.613 0 0 0 2.758-.196l.44-.22a.75.75 0 1 0-.671-1.341l-.44.22a2.113 2.113 0 0 1-1.613.114 3.612 3.612 0 0 0-1.745-.134c.048-.341.062-.686.042-1.029H12a.75.75 0 0 0 0-1.5h-1.379l-.045-.167Z" clip-rule="evenodd"/>
</svg>
