<svg xmlns="http://www.w3.org/2000/svg" viewBox="0 0 24 24" fill="currentColor" aria-hidden="true" data-slot="icon">
  <path d="M19.5 22.5a3 3 0 0 0 3-3v-8.174l-6.879 4.022 3.485 1.876a.75.75 0 1 1-.712 1.321l-5.683-3.06a1.5 1.5 0 0 0-1.422 0l-5.683 3.06a.75.75 0 0 1-.712-1.32l3.485-1.877L1.5 11.326V19.5a3 3 0 0 0 3 3h15Z"/>
  <path d="M1.5 9.589v-.745a3 3 0 0 1 1.578-2.642l7.5-4.038a3 3 0 0 1 2.844 0l7.5 4.038A3 3 0 0 1 22.5 8.844v.745l-8.426 4.926-.652-.351a3 3 0 0 0-2.844 0l-.652.351L1.5 9.589Z"/>
</svg>
