<svg xmlns="http://www.w3.org/2000/svg" viewBox="0 0 24 24" fill="currentColor" aria-hidden="true" data-slot="icon">
  <path fill-rule="evenodd" d="M16.098 2.598a3.75 3.75 0 1 1 3.622 6.275l-1.72.46V12a.75.75 0 0 1-.22.53l-.75.75a.75.75 0 0 1-1.06 0l-.97-.97-7.94 7.94a2.56 2.56 0 0 1-1.81.75 1.06 1.06 0 0 0-.75.31l-.97.97a.75.75 0 0 1-1.06 0l-.75-.75a.75.75 0 0 1 0-1.06l.97-.97a1.06 1.06 0 0 0 .31-.75c0-.68.27-1.33.75-1.81L11.69 9l-.97-.97a.75.75 0 0 1 0-1.06l.75-.75A.75.75 0 0 1 12 6h2.666l.461-1.72c.165-.617.49-1.2.971-1.682Zm-3.348 7.463L4.81 18a1.06 1.06 0 0 0-.31.75c0 .318-.06.63-.172.922a2.56 2.56 0 0 1 .922-.172c.281 0 .551-.112.75-.31l7.94-7.94-1.19-1.19Z" clip-rule="evenodd"/>
</svg>
