<svg xmlns="http://www.w3.org/2000/svg" viewBox="0 0 24 24" fill="currentColor" aria-hidden="true" data-slot="icon">
  <path fill-rule="evenodd" d="M12 2.25c-5.385 0-9.75 4.365-9.75 9.75s4.365 9.75 9.75 9.75 9.75-4.365 9.75-9.75S17.385 2.25 12 2.25Zm-2.625 6c-.54 0-.828.419-.936.634a1.96 1.96 0 0 0-.189.866c0 .298.059.605.189.866.108.215.395.634.936.634.54 0 .828-.419.936-.634.13-.26.189-.568.189-.866 0-.298-.059-.605-.189-.866-.108-.215-.395-.634-.936-.634Zm4.314.634c.108-.215.395-.634.936-.634.54 0 .828.419.936.634.13.26.189.568.189.866 0 .298-.059.605-.189.866-.108.215-.395.634-.936.634-.54 0-.828-.419-.936-.634a1.96 1.96 0 0 1-.189-.866c0-.298.059-.605.189-.866Zm-4.34 7.964a.75.75 0 0 1-1.061-1.06 5.236 5.236 0 0 1 3.73-1.538 5.236 5.236 0 0 1 3.695 1.538.75.75 0 1 1-1.061 1.06 3.736 3.736 0 0 0-2.639-1.098 3.736 3.736 0 0 0-2.664 1.098Z" clip-rule="evenodd"/>
</svg>
