<svg xmlns="http://www.w3.org/2000/svg" viewBox="0 0 24 24" fill="currentColor" aria-hidden="true" data-slot="icon">
  <path fill-rule="evenodd" d="M4.5 3.75a3 3 0 0 0-3 3v10.5a3 3 0 0 0 3 3h15a3 3 0 0 0 3-3V6.75a3 3 0 0 0-3-3h-15Zm9 4.5a.75.75 0 0 0-1.5 0v7.5a.75.75 0 0 0 1.5 0v-7.5Zm1.5 0a.75.75 0 0 1 .75-.75h3a.75.75 0 0 1 0 1.5H16.5v2.25H18a.75.75 0 0 1 0 1.5h-1.5v3a.75.75 0 0 1-1.5 0v-7.5ZM6.636 9.78c.404-.575.867-.78 1.25-.78s.846.205 1.25.78a.75.75 0 0 0 1.228-.863C9.738 8.027 8.853 7.5 7.886 7.5c-.966 0-1.852.527-2.478 1.417-.62.882-.908 2-.908 3.083 0 1.083.288 2.201.909 3.083.625.89 1.51 1.417 2.477 1.417.967 0 1.852-.527 2.478-1.417a.75.75 0 0 0 .136-.431V12a.75.75 0 0 0-.75-.75h-1.5a.75.75 0 0 0 0 1.5H9v1.648c-.37.44-.774.602-1.114.602-.383 0-.846-.205-1.25-.78C6.226 13.638 6 12.837 6 12c0-.837.226-1.638.636-2.22Z" clip-rule="evenodd"/>
</svg>
