<svg xmlns="http://www.w3.org/2000/svg" viewBox="0 0 24 24" fill="currentColor" aria-hidden="true" data-slot="icon">
  <path d="M9 3.255a1.875 1.875 0 1 0 0 3.75h1.875v4.5H3A1.875 1.875 0 0 1 1.125 9.63v-.75c0-1.036.84-1.875 1.875-1.875h3.193a3.375 3.375 0 0 1 5.432-3.997 3.375 3.375 0 0 1 5.432 3.997H21c1.035 0 1.875.84 1.875 1.875v.75c0 1.035-.84 1.875-1.875 1.875h-8.625v-4.5h1.875a1.875 1.875 0 1 0-1.875-1.875v1.875h-1.5V5.13c0-1.036-.84-1.875-1.875-1.875ZM10.875 13.005h-8.25v6.75a2.25 2.25 0 0 0 2.25 2.25h6v-9ZM12.375 13.005v9h6.75a2.25 2.25 0 0 0 2.25-2.25v-6.75h-9Z"/>
</svg>
