<svg xmlns="http://www.w3.org/2000/svg" viewBox="0 0 24 24" fill="currentColor" aria-hidden="true" data-slot="icon">
  <path fill-rule="evenodd" d="M12 2.25c-5.385 0-9.75 4.365-9.75 9.75s4.365 9.75 9.75 9.75 9.75-4.365 9.75-9.75S17.385 2.25 12 2.25ZM8.547 4.505a8.25 8.25 0 1 0 11.672 8.214l-.46-.46a2.252 2.252 0 0 1-.422-.586l-1.08-2.16a.414.414 0 0 0-.663-.107.827.827 0 0 1-.812.21l-1.273-.363a.89.89 0 0 0-.738 1.595l.587.39c.59.395.674 1.23.172 1.732l-.2.2c-.211.212-.33.498-.33.796v.41c0 .409-.11.809-.32 1.158l-1.315 2.191a2.11 2.11 0 0 1-1.81 1.025 1.055 1.055 0 0 1-1.055-1.055v-1.172c0-.92-.56-1.747-1.414-2.089l-.654-.261a2.25 2.25 0 0 1-1.384-2.46l.007-.042a2.25 2.25 0 0 1 .29-.787l.09-.15a2.25 2.25 0 0 1 2.37-1.048l1.178.236a1.125 1.125 0 0 0 1.302-.795l.208-.73a1.125 1.125 0 0 0-.578-1.315l-.665-.332-.091.091a2.25 2.25 0 0 1-1.591.659h-.18c-.249 0-.487.1-.662.274a.931.931 0 0 1-1.458-1.137l1.279-2.132Z" clip-rule="evenodd"/>
</svg>
