<svg xmlns="http://www.w3.org/2000/svg" viewBox="0 0 24 24" fill="currentColor" aria-hidden="true">
  <path d="M15.73 4.5h1.035A7.465 7.465 0 0118 8.625a7.465 7.465 0 01-1.235 4.125h-.148c-.806 0-1.534.446-2.031 1.08a9.04 9.04 0 01-2.861 2.4c-.723.384-1.35.956-1.653 1.715a4.499 4.499 0 00-.322 1.672v.633A.75.75 0 019 21a2.25 2.25 0 01-2.25-2.25c0-1.152.26-2.243.723-3.218.266-.558-.107-1.282-.725-1.282H3.622c-1.026 0-1.945-.694-2.054-1.715A12.137 12.137 0 011.5 11.25c0-2.848.992-5.464 2.649-7.521C4.537 3.247 5.136 3 5.754 3H9.77a4.5 4.5 0 011.423.23l3.114 1.04a4.5 4.5 0 001.423.23zM21.669 13.023c.536-1.362.831-2.845.831-4.398 0-1.22-.182-2.398-.52-3.507-.26-.85-1.084-1.368-1.973-1.368H19.1c-.445 0-.72.498-.523.898.591 1.2.924 2.55.924 3.977a8.958 8.958 0 01-1.302 4.666c-.245.403.028.959.5.959h1.053c.832 0 1.612-.453 1.918-1.227z"/>
</svg>
