<svg xmlns="http://www.w3.org/2000/svg" viewBox="0 0 24 24" fill="currentColor" aria-hidden="true" data-slot="icon">
  <path fill-rule="evenodd" d="M1.5 9.832v1.793c0 1.036.84 1.875 1.875 1.875h17.25c1.035 0 1.875-.84 1.875-1.875V9.832a3 3 0 0 0-.722-1.952l-3.285-3.832A3 3 0 0 0 16.215 3h-8.43a3 3 0 0 0-2.278 1.048L2.222 7.88A3 3 0 0 0 1.5 9.832ZM7.785 4.5a1.5 1.5 0 0 0-1.139.524L3.881 8.25h3.165a3 3 0 0 1 2.496 1.336l.164.246a1.5 1.5 0 0 0 1.248.668h2.092a1.5 1.5 0 0 0 1.248-.668l.164-.246a3 3 0 0 1 2.496-1.336h3.165l-2.765-3.226a1.5 1.5 0 0 0-1.139-.524h-8.43Z" clip-rule="evenodd"/>
  <path d="M2.813 15c-.725 0-1.313.588-1.313 1.313V18a3 3 0 0 0 3 3h15a3 3 0 0 0 3-3v-1.688c0-.724-.588-1.312-1.313-1.312h-4.233a3 3 0 0 0-2.496 1.336l-.164.246a1.5 1.5 0 0 1-1.248.668h-2.092a1.5 1.5 0 0 1-1.248-.668l-.164-.246A3 3 0 0 0 7.046 15H2.812Z"/>
</svg>
