<svg xmlns="http://www.w3.org/2000/svg" viewBox="0 0 24 24" fill="currentColor" aria-hidden="true" data-slot="icon">
  <path fill-rule="evenodd" d="M2.625 6.75a1.125 1.125 0 1 1 2.25 0 1.125 1.125 0 0 1-2.25 0Zm4.875 0A.75.75 0 0 1 8.25 6h12a.75.75 0 0 1 0 1.5h-12a.75.75 0 0 1-.75-.75ZM2.625 12a1.125 1.125 0 1 1 2.25 0 1.125 1.125 0 0 1-2.25 0ZM7.5 12a.75.75 0 0 1 .75-.75h12a.75.75 0 0 1 0 1.5h-12A.75.75 0 0 1 7.5 12Zm-4.875 5.25a1.125 1.125 0 1 1 2.25 0 1.125 1.125 0 0 1-2.25 0Zm4.875 0a.75.75 0 0 1 .75-.75h12a.75.75 0 0 1 0 1.5h-12a.75.75 0 0 1-.75-.75Z" clip-rule="evenodd"/>
</svg>
