<svg xmlns="http://www.w3.org/2000/svg" viewBox="0 0 25 24" fill="currentColor" aria-hidden="true">
  <path d="M10.104 8.6c.6-.4 1.4-.6 2.1-.6.3 0 .7.1 1 .1v-7c0-.6-.5-1.1-1.1-1.1-.6 0-1.1.2-1.5.6l-1.5 1.6c-1.1 1.1-1.3 2.7-.5 4l1.5 2.4zM5.404 12.2l2.9-.1V12c0-1.1.4-2.1 1.1-2.8l-6.1-3.5c-.5-.3-1.2-.1-1.5.4-.3.5-.4 1.1-.2 1.6l.6 2.1c.3 1.5 1.7 2.5 3.2 2.4zM16.104 10.9l6.1-3.5c.5-.3.7-1 .4-1.5-.3-.5-.8-.9-1.3-1l-2.1-.6c-1.5-.4-3 .3-3.7 1.6l-1.3 2.5c.9.6 1.6 1.5 1.9 2.5zM8.404 13.1l-6.1 3.5c-.5.3-.7 1-.4 1.5.3.5.8.9 1.3 1l2.1.6c1.5.4 3-.3 3.7-1.6l1.3-2.5c-.9-.6-1.6-1.5-1.9-2.5zM22.904 16.3l-.6-2.1c-.4-1.5-1.7-2.5-3.3-2.4l-2.9.1v.1c0 1.1-.4 2.1-1.1 2.8l6.1 3.5c.5.3 1.2.1 1.5-.4.4-.5.4-1.1.3-1.6zM14.304 15.4c-.6.4-1.3.6-2.1.6-.3 0-.7-.1-1-.1v7c0 .6.5 1.1 1.1 1.1.6 0 1.1-.2 1.5-.6l1.5-1.5c1.1-1.1 1.3-2.7.5-4l-1.5-2.5zM12.204 14a2 2 0 100-4 2 2 0 000 4z"/>
</svg>
