<svg xmlns="http://www.w3.org/2000/svg" viewBox="0 0 24 24" fill="currentColor" aria-hidden="true" data-slot="icon">
  <path fill-rule="evenodd" d="M7.491 5.992a.75.75 0 0 1 .75-.75h12a.75.75 0 1 1 0 1.5h-12a.75.75 0 0 1-.75-.75ZM7.49 11.995a.75.75 0 0 1 .75-.75h12a.75.75 0 0 1 0 1.5h-12a.75.75 0 0 1-.75-.75ZM7.491 17.994a.75.75 0 0 1 .75-.75h12a.75.75 0 1 1 0 1.5h-12a.75.75 0 0 1-.75-.75ZM2.24 3.745a.75.75 0 0 1 .75-.75h1.125a.75.75 0 0 1 .75.75v3h.375a.75.75 0 0 1 0 1.5H2.99a.75.75 0 0 1 0-1.5h.375v-2.25H2.99a.75.75 0 0 1-.75-.75ZM2.79 10.602a.75.75 0 0 1 0-1.06 1.875 1.875 0 1 1 2.652 2.651l-.55.55h.35a.75.75 0 0 1 0 1.5h-2.16a.75.75 0 0 1-.53-1.281l1.83-1.83a.375.375 0 0 0-.53-.53.75.75 0 0 1-1.062 0ZM2.24 15.745a.75.75 0 0 1 .75-.75h1.125a1.875 1.875 0 0 1 1.501 2.999 1.875 1.875 0 0 1-1.501 3H2.99a.75.75 0 0 1 0-1.501h1.125a.375.375 0 0 0 .036-.748H3.74a.75.75 0 0 1-.75-.75v-.002a.75.75 0 0 1 .75-.75h.411a.375.375 0 0 0-.036-.748H2.99a.75.75 0 0 1-.75-.75Z" clip-rule="evenodd"/>
</svg>
