<svg xmlns="http://www.w3.org/2000/svg" viewBox="0 0 24 24" fill="currentColor" aria-hidden="true" data-slot="icon">
  <path fill-rule="evenodd" d="M19.5 9.75a.75.75 0 0 1-.75.75h-4.5a.75.75 0 0 1-.75-.75v-4.5a.75.75 0 0 1 1.5 0v2.69l4.72-4.72a.75.75 0 1 1 1.06 1.06L16.06 9h2.69a.75.75 0 0 1 .75.75Z" clip-rule="evenodd"/>
  <path fill-rule="evenodd" d="M1.5 4.5a3 3 0 0 1 3-3h1.372c.86 0 1.61.586 1.819 1.42l1.105 4.423a1.875 1.875 0 0 1-.694 1.955l-1.293.97c-.135.101-.164.249-.126.352a11.285 11.285 0 0 0 6.697 6.697c.103.038.25.009.352-.126l.97-1.293a1.875 1.875 0 0 1 1.955-.694l4.423 1.105c.834.209 1.42.959 1.42 1.82V19.5a3 3 0 0 1-3 3h-2.25C8.552 22.5 1.5 15.448 1.5 6.75V4.5Z" clip-rule="evenodd"/>
</svg>
