<svg xmlns="http://www.w3.org/2000/svg" viewBox="0 0 24 24" fill="currentColor" aria-hidden="true">
  <path fill-rule="evenodd" d="M20.432 4.103a.75.75 0 00-.364-1.455L4.128 6.632l-.2.033C2.498 6.904 1.5 8.158 1.5 9.575v9.175a3 3 0 003 3h15a3 3 0 003-3V9.574c0-1.416-.997-2.67-2.429-2.909a49.016 49.016 0 00-7.255-.658l7.616-1.904zm-9.585 8.56a.75.75 0 010 1.06l-.005.006a.75.75 0 01-1.06 0l-.006-.005a.75.75 0 010-1.061l.005-.005a.75.75 0 011.06 0l.006.005zM9.781 15.85a.75.75 0 001.061 0l.005-.005a.75.75 0 000-1.061l-.005-.005a.75.75 0 00-1.06 0l-.006.005a.75.75 0 000 1.06l.005.006zm-1.055-1.066a.75.75 0 010 1.06l-.005.006a.75.75 0 01-1.061 0l-.005-.005a.75.75 0 010-1.06l.005-.006a.75.75 0 011.06 0l.006.005zM7.66 13.73a.75.75 0 001.061 0l.005-.006a.75.75 0 000-1.06l-.005-.005a.75.75 0 00-1.06 0l-.006.005a.75.75 0 000 1.06l.005.006zM9.255 9.75a.75.75 0 01.75.75v.008a.75.75 0 01-.75.75h-.008a.75.75 0 01-.75-.75V10.5a.75.75 0 01.75-.75h.008zm3.624 3.28a.75.75 0 00.275-1.025L13.15 12a.75.75 0 00-1.025-.275l-.006.004a.75.75 0 00-.275 1.024l.004.007a.75.75 0 001.024.274l.007-.003zm-1.38 5.126a.75.75 0 01-1.024-.274l-.004-.007a.75.75 0 01.275-1.024l.006-.004a.75.75 0 011.025.274l.004.007a.75.75 0 01-.275 1.024l-.006.004zm.282-6.776a.75.75 0 00-.274-1.025l-.007-.003a.75.75 0 00-1.024.274l-.004.007a.75.75 0 00.274 1.024l.007.004a.75.75 0 001.024-.274l.004-.007zm1.369 5.129a.75.75 0 01-1.025.274l-.006-.003a.75.75 0 01-.275-1.025l.004-.006a.75.75 0 011.025-.275l.006.004a.75.75 0 01.275 1.024l-.004.007zm-.145-1.502a.75.75 0 00.75-.75v-.007a.75.75 0 00-.75-.75h-.008a.75.75 0 00-.75.75v.008c0 .414.336.75.75.75h.008zm-3.75 2.243a.75.75 0 01.75.75v.008a.75.75 0 01-.75.75h-.008a.75.75 0 01-.75-.75V18a.75.75 0 01.75-.75h.008zm-2.871-.47a.75.75 0 00.274-1.025l-.003-.006a.75.75 0 00-1.025-.275l-.006.004a.75.75 0 00-.275 1.025l.004.006a.75.75 0 001.024.274l.007-.003zm1.366-5.12a.75.75 0 01-1.025-.274l-.004-.006a.75.75 0 01.275-1.025l.006-.003a.75.75 0 011.025.274l.004.007a.75.75 0 01-.275 1.024l-.006.004zm.281 6.215a.75.75 0 00-.275-1.024l-.006-.004a.75.75 0 00-1.025.274l-.003.007a.75.75 0 00.274 1.024l.007.004a.75.75 0 001.024-.274l.004-.007zM6.655 12.76a.75.75 0 01-1.025.274l-.006-.003a.75.75 0 01-.275-1.025L5.353 12a.75.75 0 011.025-.275l.006.004a.75.75 0 01.275 1.024l-.004.007zm-1.15 2.248a.75.75 0 00.75-.75v-.007a.75.75 0 00-.75-.75h-.008a.75.75 0 00-.75.75v.008c0 .414.336.75.75.75h.008zM17.25 10.5a1.5 1.5 0 110 3 1.5 1.5 0 010-3zm1.5 6a1.5 1.5 0 10-3 0 1.5 1.5 0 003 0z" clip-rule="evenodd"/>
</svg>
