<svg xmlns="http://www.w3.org/2000/svg" viewBox="0 0 24 24" fill="currentColor" aria-hidden="true">
  <path fill-rule="evenodd" d="M12 1.5c-1.921 0-3.816.111-5.68.327-1.497.174-2.57 1.46-2.57 2.93V21.75a.75.75 0 001.029.696l3.471-1.388 3.472 1.388a.75.75 0 00.556 0l3.472-1.388 3.471 1.388a.75.75 0 001.029-.696V4.757c0-1.47-1.073-2.756-2.57-2.93A49.255 49.255 0 0012 1.5zm-.97 6.53a.75.75 0 10-1.06-1.06L7.72 9.22a.75.75 0 000 1.06l2.25 2.25a.75.75 0 101.06-1.06l-.97-.97h3.065a1.875 1.875 0 010 3.75H12a.75.75 0 000 1.5h1.125a3.375 3.375 0 100-6.75h-3.064l.97-.97z" clip-rule="evenodd"/>
</svg>
