<svg xmlns="http://www.w3.org/2000/svg" viewBox="0 0 24 24" fill="currentColor" aria-hidden="true" data-slot="icon">
  <path fill-rule="evenodd" d="M8.128 9.155a3.751 3.751 0 1 1 .713-1.321l1.136.656a.75.75 0 0 1 .222 1.104l-.006.007a.75.75 0 0 1-1.032.157 1.421 1.421 0 0 0-.113-.072l-.92-.531Zm-4.827-3.53a2.25 2.25 0 0 1 3.994 2.063.756.756 0 0 0-.122.23 2.25 2.25 0 0 1-3.872-2.293ZM13.348 8.272a5.073 5.073 0 0 0-3.428 3.57 5.08 5.08 0 0 0-.165 1.202 1.415 1.415 0 0 1-.707 1.201l-.96.554a3.751 3.751 0 1 0 .734 1.309l13.729-7.926a.75.75 0 0 0-.181-1.374l-.803-.215a5.25 5.25 0 0 0-2.894.05l-5.325 1.629Zm-9.223 7.03a2.25 2.25 0 1 0 2.25 3.897 2.25 2.25 0 0 0-2.25-3.897ZM12 12.75a.75.75 0 1 0 0-1.5.75.75 0 0 0 0 1.5Z" clip-rule="evenodd"/>
  <path d="M16.372 12.615a.75.75 0 0 1 .75 0l5.43 3.135a.75.75 0 0 1-.182 1.374l-.802.215a5.25 5.25 0 0 1-2.894-.051l-5.147-1.574a.75.75 0 0 1-.156-1.367l3-1.732Z"/>
</svg>
