<svg xmlns="http://www.w3.org/2000/svg" viewBox="0 0 24 24" fill="currentColor" aria-hidden="true">
  <path d="M19.5 6h-15v9h15V6z"/>
  <path fill-rule="evenodd" d="M3.375 3C2.339 3 1.5 3.84 1.5 4.875v11.25C1.5 17.16 2.34 18 3.375 18H9.75v1.5H6A.75.75 0 006 21h12a.75.75 0 000-1.5h-3.75V18h6.375c1.035 0 1.875-.84 1.875-1.875V4.875C22.5 3.839 21.66 3 20.625 3H3.375zm0 13.5h17.25a.375.375 0 00.375-.375V4.875a.375.375 0 00-.375-.375H3.375A.375.375 0 003 4.875v11.25c0 .207.168.375.375.375z" clip-rule="evenodd"/>
</svg>
