<svg xmlns="http://www.w3.org/2000/svg" viewBox="0 0 24 24" fill="currentColor" aria-hidden="true" data-slot="icon">
  <path d="M6 3a3 3 0 0 0-3 3v1.5a.75.75 0 0 0 1.5 0V6A1.5 1.5 0 0 1 6 4.5h1.5a.75.75 0 0 0 0-1.5H6ZM16.5 3a.75.75 0 0 0 0 1.5H18A1.5 1.5 0 0 1 19.5 6v1.5a.75.75 0 0 0 1.5 0V6a3 3 0 0 0-3-3h-1.5ZM12 8.25a3.75 3.75 0 1 0 0 7.5 3.75 3.75 0 0 0 0-7.5ZM4.5 16.5a.75.75 0 0 0-1.5 0V18a3 3 0 0 0 3 3h1.5a.75.75 0 0 0 0-1.5H6A1.5 1.5 0 0 1 4.5 18v-1.5ZM21 16.5a.75.75 0 0 0-1.5 0V18a1.5 1.5 0 0 1-1.5 1.5h-1.5a.75.75 0 0 0 0 1.5H18a3 3 0 0 0 3-3v-1.5Z"/>
</svg>
