<svg xmlns="http://www.w3.org/2000/svg" viewBox="0 0 24 24" fill="currentColor" aria-hidden="true">
  <path d="M6 3a3 3 0 00-3 3v1.5a.75.75 0 001.5 0V6A1.5 1.5 0 016 4.5h1.5a.75.75 0 000-1.5H6zM16.5 3a.75.75 0 000 1.5H18A1.5 1.5 0 0119.5 6v1.5a.75.75 0 001.5 0V6a3 3 0 00-3-3h-1.5zM12 8.25a3.75 3.75 0 100 7.5 3.75 3.75 0 000-7.5zM4.5 16.5a.75.75 0 00-1.5 0V18a3 3 0 003 3h1.5a.75.75 0 000-1.5H6A1.5 1.5 0 014.5 18v-1.5zM21 16.5a.75.75 0 00-1.5 0V18a1.5 1.5 0 01-1.5 1.5h-1.5a.75.75 0 000 1.5H18a3 3 0 003-3v-1.5z"/>
</svg>
