<svg xmlns="http://www.w3.org/2000/svg" viewBox="0 0 24 24" fill="currentColor" aria-hidden="true" data-slot="icon">
  <path fill-rule="evenodd" d="M2.25 6a3 3 0 0 1 3-3h13.5a3 3 0 0 1 3 3v12a3 3 0 0 1-3 3H5.25a3 3 0 0 1-3-3V6Zm18 3H3.75v9a1.5 1.5 0 0 0 1.5 1.5h13.5a1.5 1.5 0 0 0 1.5-1.5V9Zm-15-3.75A.75.75 0 0 0 4.5 6v.008c0 .414.336.75.75.75h.008a.75.75 0 0 0 .75-.75V6a.75.75 0 0 0-.75-.75H5.25Zm1.5.75a.75.75 0 0 1 .75-.75h.008a.75.75 0 0 1 .75.75v.008a.75.75 0 0 1-.75.75H7.5a.75.75 0 0 1-.75-.75V6Zm3-.75A.75.75 0 0 0 9 6v.008c0 .414.336.75.75.75h.008a.75.75 0 0 0 .75-.75V6a.75.75 0 0 0-.75-.75H9.75Z" clip-rule="evenodd"/>
</svg>
