<svg width="20" height="20" viewBox="0 0 20 20" fill="none" xmlns="http://www.w3.org/2000/svg">
<path d="M2 18H18M9.2 10.5L10.8 18H12L14 12.1667L13.8 10.5M9.2 10.5L13.2 8M9.2 10.5L6.8 10.0833M13.2 8L13.8 10.5M13.2 8H10L6.8 10.0833M13.8 10.5L18 8.41667L14 18M16.8 18L18 14.6667H15.6M6.8 10.0833L7.2 15.0833L8.4 15.5M8.4 15.5L9.2 18M8.4 15.5H4.4L4.8 12.1667H6.8M2.8 18L2 12.5833L6 18M13.6 11.3333H12.4M13.6 13H12.4M12.8 14.6667H12" stroke="black" stroke-width="1.25" stroke-linecap="round" stroke-linejoin="round"/>
</svg>
