<svg width="20" height="20" viewBox="0 0 20 20" fill="none" xmlns="http://www.w3.org/2000/svg">
<path d="M9.50732 9.20001C10.1055 10.1333 11.6608 12 13.0964 12C14.5321 12 16.2369 10.2667 16.6855 9.6V6.8C16.6855 6.8 15.1304 9.20001 13.9937 9.20001C13.4173 9.20001 12.7334 8.20834 12.1991 7.6M12.1991 7.6C11.6798 7.00858 11.3019 6.4 11.3019 6.4M12.1991 7.6C12.4982 6.9418 12.5581 6.4 13.9937 6.4C15.3396 6.4 16.2369 5.6 16.2369 4.8C16.2369 3.83731 14.891 4.4 14.891 3.6C14.891 3.12243 13.5451 2.8 13.5451 2.8C13.0682 2.60589 12.5608 2.10748 12.1991 2V3.2C11.0028 3.33333 7.66943 3.94344 5.70138 6.4C3.4582 9.2 2.22562 11 2.67426 13C3.03317 14.6 4.71817 14.4 4.71817 14.4L4.12368 18H9.06275C9.04188 17.8488 8.99345 17.6547 8.91024 17.4543M17.5828 2V18M9.29049 12.4C9.47268 14.32 7.63545 15.4667 6.96135 16C7.73284 16 8.69993 16.9476 8.91024 17.4543M9.29049 12.4C9.90537 13.1209 10.2266 15.1101 10.1018 16C11.0018 16 12.1698 16.9695 12.2029 17.4543H8.91024M9.29049 12.4C9.84813 11.3274 10.1018 10 10.1018 10" stroke="black" stroke-width="1.25" stroke-linecap="round" stroke-linejoin="round"/>
</svg>
