<svg width="20" height="20" viewBox="0 0 20 20" fill="none" xmlns="http://www.w3.org/2000/svg">
<path d="M15.2222 17.6C14.4444 17.6 11.7222 16 12.8889 11.2C14.2099 5.76496 10.5556 3.6 8.22222 3.6C8.22222 3.6 7.05556 2 5.88889 2V4L2 8.8C2.15653 9.47979 2.29752 9.90602 2.77778 10.4C3.25803 10.894 3.65596 11.149 4.33333 11.2C5.42557 11.2822 6.66667 9.6 6.66667 9.6C7.03418 9.6 7.55055 9.49501 8.03491 9.2M5.11111 17.6C4.72222 16.6667 4.33333 14.4 5.88889 12.8C7.54271 11.0989 8.03491 10.4 8.03491 9.2M8.03491 9.2C8.74644 8.76662 9.38889 7.92315 9.38889 6.4M7.44444 2.4C10.1667 1.2 18.3333 3.2 13.2778 16M9.09722 14.4C7.93056 15.2 7.93055 17.2 9.09721 18M3.55556 9.2L3.94444 8.8M15.2222 5.6H14.4444M15.6111 7.2H14.8333M16 8.8H15.2222M16 10.4H14.8333M15.6111 12H14.8333M15.2222 13.6H14.4444M14.4444 4H13.6667M13.2778 2.4H10.9444M12.8889 10.4H11.7222M12.5 12H10.9444M7.05556 6.4C7.05556 6.8 7.05556 6.8 6.66667 6.8C6.27778 6.8 6.27778 6.8 6.27778 6.4C6.27778 6 6.27778 6 6.66667 6C7.05556 6 7.05556 6 7.05556 6.4Z" stroke="black" stroke-width="1.25" stroke-linecap="round" stroke-linejoin="round"/>
</svg>
