<svg width="20" height="20" viewBox="0 0 20 20" fill="none" xmlns="http://www.w3.org/2000/svg">
<path d="M5.3036 10.4286C5.92979 12.131 7.74573 16 10 16C12.2543 16 14.0702 12.131 14.6964 10.4286M6.24287 8.57142C6.39941 6.71428 7.18215 3 8.12143 3C9.06071 3 9.06071 3.92857 9.99999 3.92857C10.9393 3.92857 10.9393 3 11.8786 3C12.63 3 13.444 6.71428 13.7571 8.57142C13.1309 8.88095 11.5028 9.49999 9.99999 9.49999C8.49714 9.49999 6.86905 8.88095 6.24287 8.57142ZM10 7.17862C7.19445 7.17862 3.89469 4.39289 2.48576 5.78576C1.07682 7.17863 2.48577 11.3572 10 11.3572C17.5143 11.3572 18.9232 7.1786 17.5142 5.78579C16.1053 4.39299 12.8056 7.17863 10 7.17862Z" stroke="black" stroke-width="1.25"/>
</svg>
