<svg width="20" height="20" viewBox="0 0 20 20" fill="none" xmlns="http://www.w3.org/2000/svg">
<path d="M6.8 8.4H13.2M2 14.8L18 14.8M2 8.4L18 8.4M18 6V18L2 18L2 6M15.6 8.4V6.8M4.40001 8.4V6.8M3.6 10V10.8M3.6 12.4V13.2M5.2 10V10.8M5.2 12.4V13.2M8.4 10V10.8M8.4 12.4V13.2M10 10V10.8M11.6 10V10.8M10 12.4V13.2M11.6 12.4V13.2M14.8 10V10.8M14.8 12.4V13.2M16.4 10V10.8M16.4 12.4V13.2M6.8 18H13.2V5.2C13.2 5.2 13.2 2 10 2C6.8 2 6.8 5.2 6.8 5.2V18ZM8.4 18V16.4H11.6V18H8.4Z" stroke="black" stroke-width="1.25" stroke-linecap="round" stroke-linejoin="round"/>
<mask id="path-2-inside-1_6028_92" fill="white">
<path d="M12 5C12 6.10457 11.1046 7 10 7C8.89543 7 8 6.10457 8 5C8 3.89543 8.89543 3 10 3C11.1046 3 12 3.89543 12 5Z"/>
</mask>
<path d="M10.375 4.33333C10.375 4.12623 10.2071 3.95833 10 3.95833C9.79289 3.95833 9.625 4.12623 9.625 4.33333H10.375ZM10 5H9.625C9.625 5.09946 9.66451 5.19484 9.73484 5.26517L10 5ZM10.0682 5.5985C10.2146 5.74495 10.4521 5.74495 10.5985 5.5985C10.7449 5.45205 10.7449 5.21461 10.5985 5.06817L10.0682 5.5985ZM10 4.33333H9.625V5H10H10.375V4.33333H10ZM10 5L9.73484 5.26517L10.0682 5.5985L10.3333 5.33333L10.5985 5.06817L10.2652 4.73484L10 5ZM12 5H11.25C11.25 5.69036 10.6904 6.25 10 6.25V7V7.75C11.5188 7.75 12.75 6.51878 12.75 5H12ZM10 7V6.25C9.30964 6.25 8.75 5.69036 8.75 5H8H7.25C7.25 6.51878 8.48122 7.75 10 7.75V7ZM8 5H8.75C8.75 4.30964 9.30964 3.75 10 3.75V3V2.25C8.48122 2.25 7.25 3.48122 7.25 5H8ZM10 3V3.75C10.6904 3.75 11.25 4.30964 11.25 5H12H12.75C12.75 3.48122 11.5188 2.25 10 2.25V3Z" fill="black" mask="url(#path-2-inside-1_6028_92)"/>
</svg>
