<svg width="20" height="20" viewBox="0 0 20 20" fill="none" xmlns="http://www.w3.org/2000/svg">
<path d="M8.89874 8.31579H10.5L12.5833 6.21053M12.5833 6.21053L13 11.2632M12.5833 6.21053L15.9167 7.05263L17.1667 4.10526M13 11.2632L10.9167 13.3684L12.5833 18M13 11.2632L14.6667 14.6316L18 15.8947M8.41667 2L8.83333 4.94737L5.80502 6.21053M5.80502 6.21053L3 9.15789L3.41667 11.6842M5.80502 6.21053L6.33333 10.8421M6.33333 10.8421L5.91667 14.6316L3.41667 18M6.33333 10.8421L8.83333 13.7895L8.41667 18M6.75 3.68421C6.75 4.84692 6.23393 5.36842 5.08333 5.36842C3.93274 5.36842 3.41667 4.84692 3.41667 3.68421C3.41667 2.52151 3.93274 2 5.08333 2C6.23393 2 6.75 2.52151 6.75 3.68421ZM14.25 3.68421C14.25 4.84692 13.7339 5.36842 12.5833 5.36842C11.4327 5.36842 10.9167 4.84692 10.9167 3.68421C10.9167 2.52151 11.4327 2 12.5833 2C13.7339 2 14.25 2.52151 14.25 3.68421Z" stroke="black" stroke-width="1.25" stroke-linecap="round" stroke-linejoin="round"/>
</svg>
