<svg width="20" height="20" viewBox="0 0 20 20" fill="none" xmlns="http://www.w3.org/2000/svg">
<path d="M17.2 15.1429L13.6 9.14286L10 15.1429L6.4 9.14286L2.8 15.1429M2 4.85714C2 4.38376 2.35817 4 2.8 4H17.2C17.6418 4 18 4.38376 18 4.85714V15.1429C18 15.6162 17.6418 16 17.2 16H2.8C2.35817 16 2 15.6162 2 15.1429V4.85714ZM10 6.14286C8.8 6.14286 8.4 7 8.4 7.85714C8.4 8.71429 8.8 9.57143 10 9.57143C11.2 9.57143 11.6 8.71429 11.6 7.85714C11.6 7 11.2 6.14286 10 6.14286Z" stroke="black" stroke-width="1.25" stroke-linecap="round" stroke-linejoin="round"/>
</svg>
