<svg width="20" height="20" viewBox="0 0 20 20" fill="none" xmlns="http://www.w3.org/2000/svg">
<path d="M5.56326 8.89283C5.7044 8.28136 5.30552 7.67517 4.67235 7.53887C4.03917 7.40257 3.41147 7.78778 3.27033 8.39925C3.1292 9.01072 3.52807 9.61691 4.16125 9.75321C4.79442 9.88951 5.42212 9.5043 5.56326 8.89283Z" fill="black"/>
<path d="M14.6537 17.6487C14.8466 17.1287 14.5664 16.5563 14.028 16.37C13.4896 16.1838 12.8968 16.4544 12.704 16.9743C12.5112 17.4943 12.7913 18.0667 13.3297 18.2529C13.8681 18.4391 14.4609 18.1686 14.6537 17.6487Z" fill="black"/>
<path d="M4.07098 18C4.07098 17.4477 3.60737 17 3.03549 17C2.4636 17 2 17.4477 2 18C2 18.5523 2.4636 19 3.03549 19C3.60737 19 4.07098 18.5523 4.07098 18Z" fill="black"/>
<path d="M8.21293 18C8.21293 17.4477 7.74933 17 7.17744 17C6.60556 17 6.14195 17.4477 6.14195 18C6.14195 18.5523 6.60556 19 7.17744 19C7.74933 19 8.21293 18.5523 8.21293 18Z" fill="black"/>
<path d="M13.5878 9.08967C13.4398 8.55621 12.872 8.23962 12.3196 8.38257C11.7672 8.52551 11.4394 9.07384 11.5874 9.60731C11.7354 10.1408 12.3032 10.4574 12.8556 10.3144C13.408 10.1715 13.7358 9.62314 13.5878 9.08967Z" fill="black"/>
<path d="M17.5886 8.05437C17.4406 7.52091 16.8728 7.20435 16.3204 7.34729C15.768 7.49023 15.4402 8.03857 15.5882 8.57203C15.7362 9.1055 16.304 9.42208 16.8564 9.27914C17.4088 9.1362 17.7366 8.58784 17.5886 8.05437Z" fill="black"/>
<path d="M5.56326 8.89283C5.7044 8.28136 5.30552 7.67517 4.67235 7.53887C4.03917 7.40257 3.41147 7.78778 3.27033 8.39925C3.1292 9.01072 3.52807 9.61691 4.16125 9.75321C4.79442 9.88951 5.42212 9.5043 5.56326 8.89283ZM5.56326 8.89283L7.09656 2.24985L8.87839 4.95777M14.6537 17.6487C14.8466 17.1287 14.5664 16.5563 14.028 16.37C13.4896 16.1838 12.8968 16.4544 12.704 16.9743C12.5112 17.4943 12.7913 18.0667 13.3297 18.2529C13.8681 18.4391 14.4609 18.1686 14.6537 17.6487ZM14.6537 17.6487L16.7486 12L18 14.5572M4.07098 18C4.07098 17.4477 3.60737 17 3.03549 17C2.4636 17 2 17.4477 2 18C2 18.5523 2.4636 19 3.03549 19C3.60737 19 4.07098 18.5523 4.07098 18ZM4.07098 18L5.10647 12H9.24842L8.21293 18M8.21293 18C8.21293 17.4477 7.74933 17 7.17744 17C6.60556 17 6.14195 17.4477 6.14195 18C6.14195 18.5523 6.60556 19 7.17744 19C7.74933 19 8.21293 18.5523 8.21293 18ZM13.5878 9.08967C13.4398 8.55621 12.872 8.23962 12.3196 8.38257C11.7672 8.52551 11.4394 9.07385 11.5874 9.60731C11.7354 10.1408 12.3032 10.4574 12.8556 10.3144C13.408 10.1715 13.7358 9.62314 13.5878 9.08967ZM13.5878 9.08967L12.98 3.03528L16.9808 2L17.5886 8.05437M17.5886 8.05437C17.4406 7.52091 16.8728 7.20435 16.3204 7.34729C15.768 7.49023 15.4402 8.03857 15.5882 8.57203C15.7362 9.1055 16.304 9.42208 16.8564 9.27914C17.4088 9.1362 17.7366 8.58784 17.5886 8.05437Z" stroke="black" stroke-width="1.25" stroke-linecap="round" stroke-linejoin="round"/>
</svg>
