<svg width="20" height="20" viewBox="0 0 20 20" fill="none" xmlns="http://www.w3.org/2000/svg">
<path d="M10.4447 7.89474C11.0076 7.75439 12.1336 7.89474 12.1336 9.57895H13.8225V4.52632C13.8225 4.10526 13.4003 3.68421 12.978 3.68421C12.5558 3.68421 12.1336 4.10526 12.1336 4.52632V5.78947C12.1336 6.63158 10.4447 6.63158 10.4447 5.78947M13.547 9.57895C13.9203 9.85965 14.667 10.7579 14.667 12.1053M13.547 9.57895H9.60019M13.547 9.57895H16.7781C16.7781 10.8421 16.7781 12.1053 14.667 12.1053M14.667 12.1053C15.7929 12.9474 17.6393 15.036 16.7781 15.8947C16.3935 16.2783 16.0089 16.6618 14.667 15.7724M9.60019 9.57895C9.60019 11.2632 10.4447 11.6842 11.7113 11.6842M9.60019 9.57895H5.80009V18H9.48365C10.6477 18 10.3835 16.3846 10.6817 15.204M10.6817 15.204C10.7864 14.7899 10.9602 14.4292 11.2891 14.2105C12.3025 13.5368 13.547 14.9518 14.2447 15.4737C14.3952 15.5862 14.5357 15.6854 14.667 15.7724M10.6817 15.204C10.976 15.9956 11.7629 16.7368 12.5558 16.7368C13.3488 16.7368 14.2936 16.3746 14.667 15.7724M8.33349 9.57895C8.33349 9.15789 8.50238 7.47368 7.48902 7.47368H3.68893C2.84447 7.47368 2 7.05263 2 6.21053V2.84211C2 2.42105 2.42223 2 2.84447 2C3.2667 2 3.68893 2.42105 3.68893 2.84211V4.94737C3.68893 5.36842 4.11116 5.78947 4.5334 5.78947C4.95563 5.78947 5.37786 5.36842 5.37786 4.94737V3.26316C5.37786 2.84211 5.80009 2.42105 6.22233 2.42105C6.64456 2.42105 7.06679 2.84211 7.06679 3.26316V4.94737C7.06679 5.36842 7.48902 5.78947 7.91126 5.78947C8.33349 5.78947 8.75572 5.36842 8.75572 4.94737V4.10526C8.75572 3.68421 9.17795 3.26316 9.60019 3.26316C10.0224 3.26316 10.4447 3.68421 10.4447 4.10526V9.57895H8.33349Z" stroke="black" stroke-width="1.25" stroke-linecap="round" stroke-linejoin="round"/>
</svg>
