<svg width="20" height="20" viewBox="0 0 20 20" fill="none" xmlns="http://www.w3.org/2000/svg">
<path d="M18 15.7V18.1H2V15.7H18ZM18 15.7C17.3333 14.7667 15.04 12.9 11.2 12.9C7.2 12.9 4.53333 14.7667 3.6 15.7M18 15.7L18 12.9L4 4.9M4 15.7V18.1M6 15.7V18.1M8 15.7V18.1M10 15.7V18.1M12 15.7V18.1M14 15.7V18.1M16 15.7V18.1M4 4.9C3.2 5.3 3.2 7.7 4 8.1L12 12.9M4 4.9C3.73334 4.1 3.51999 2.5 4.79999 2.5L10.8 6.1C10.8 6.36667 10.96 6.98 11.6 7.3C12.24 7.62 15.3333 9.56666 16.8 10.5L17.6 12.5M3.59999 8.1C3.33333 8.5 3.03999 9.46 3.99999 10.1C4.95999 10.74 7.33333 12.3797 8.4 13.1195M4 10.5V15.3" stroke="black" stroke-width="1.25" stroke-linecap="round" stroke-linejoin="round"/>
</svg>
