<svg width="20" height="20" viewBox="0 0 20 20" fill="none" xmlns="http://www.w3.org/2000/svg">
<path d="M11.5083 10.7682V11.2335M13.2371 11.2335V11.6989M14.9659 11.2335V11.6989M16.6947 11.2335V11.6989M12.3727 13.5603V13.095M14.1015 13.5603V13.095M5.02538 5.64929C4.16098 6.58 4.16098 7.97606 5.02538 9.37212M12.3727 7.97606C12.949 7.97606 14.2744 8.1622 14.9659 8.90677M2.86439 10.6072C2.46681 10.3401 2.19114 10.0433 2 9.83748C3.72879 8.44142 2.54024 7.04536 2.86439 6.11465C3.90167 3.13639 6.46603 3.943 7.61856 4.71858C9.34734 3.78788 11.9405 6.11465 14.5337 6.58C17.1269 7.04535 18.8557 8.90677 17.5591 10.7682C13.6693 11.6989 10.2117 9.83748 8.91515 9.83748C8.29499 9.83748 7.87258 10.1568 7.36418 10.4901M2.86439 10.6072C3.36581 10.944 4.06114 11.2335 5.02538 11.2335C6.15277 11.2335 6.80963 10.8536 7.36418 10.4901M2.86439 10.6072C2.86439 12.0569 3.38303 14.9564 5.45757 14.9564C7.18636 14.9564 8.05075 14.491 10.6439 15.4217C14.5337 16.8178 15.8303 15.4217 15.8303 14.0257C15.3981 14.3359 14.1015 14.7702 12.3727 14.0257C9.58301 12.8242 7.54199 10.6773 7.36418 10.4901M6.75416 6.11465C7.18636 6.11465 9.34734 7.04535 9.34734 7.51071C9.34734 7.97606 7.18636 8.90677 6.75416 8.90677C6.32197 8.90677 6.32197 6.11465 6.75416 6.11465Z" stroke="black" stroke-width="1.25" stroke-linecap="round" stroke-linejoin="round"/>
</svg>
