<svg width="20" height="20" viewBox="0 0 20 20" fill="none" xmlns="http://www.w3.org/2000/svg">
<path d="M5.2 17H18M5.2 17H2.8M5.2 17V7.92105H2.8V17M2 17H2.8M5.2 9.5H14.8M5.2 15.4211H14.8M2.8 6.34211V4.36842H6.8C7.06667 3.57895 8.08 2 10 2C11.92 2 12.9333 3.57895 13.2 4.36842H17.2V6.34211M6 15.4211V12.2632C6 11.7368 6.32 10.6842 7.6 10.6842C8.88 10.6842 9.2 11.7368 9.2 12.2632V15.4211M10.8 15.4211V12.2632C10.8 11.7368 11.12 10.6842 12.4 10.6842C13.68 10.6842 14 11.7368 14 12.2632V15.4211M17.2 17V7.92105H14.8V17H17.2ZM14 7.92105V6.34211H18V7.92105H14ZM2 7.92105V6.34211H6V7.92105H2ZM10 3.97368C11.2 3.97368 12 4.76316 12 5.94737C12 7.13158 11.2 7.92105 10 7.92105C8.8 7.92105 8 7.13158 8 5.94737C8 4.76316 8.8 3.97368 10 3.97368Z" stroke="black" stroke-width="1.25" stroke-linecap="round" stroke-linejoin="round"/>
</svg>
