<svg width="20" height="20" viewBox="0 0 20 20" fill="none" xmlns="http://www.w3.org/2000/svg">
<path d="M10 4.16667C8.83084 4.16667 7.74197 4.51065 6.82913 5.10294M10 4.16667C10.6784 4.16667 11.3297 4.28246 11.9353 4.49536M10 4.16667C10 5.91352 9.67577 7.41482 9.19109 8.68452M5.00004 2.5L6.82913 5.10294M15.8334 17.9167L13.5326 14.6425M2.08337 5.83333L4.86754 7.22542M17.9167 13.75L15.2995 12.4414M4.86754 7.22542C4.65843 7.61143 4.49159 8.02368 4.37324 8.45597M4.86754 7.22542C4.93825 7.09489 5.0138 6.96736 5.09394 6.84308C5.16863 6.72724 5.24732 6.61421 5.3298 6.5042C5.5985 6.1458 5.90748 5.81935 6.25004 5.53157M6.82913 5.10294C6.62714 5.23401 6.43376 5.37723 6.25004 5.53157M13.5326 14.6425C13.2127 14.8862 12.8669 15.0977 12.5 15.272C11.7423 15.6319 10.8947 15.8333 10 15.8333C9.50657 15.8333 9.02741 15.7721 8.56975 15.6567M13.5326 14.6425C13.8049 14.4349 14.0585 14.2039 14.2902 13.9525M15.2995 12.4414C15.0426 12.998 14.7006 13.5073 14.2902 13.9525M15.2995 12.4414C15.3877 12.2502 15.4659 12.0535 15.5333 11.8518C15.6429 11.5243 15.7242 11.1838 15.7743 10.8333M5.53161 13.75C5.90418 14.1935 6.34154 14.5807 6.82913 14.8971M5.53161 13.75C4.79126 12.8687 4.3068 11.7653 4.19268 10.5541C4.17549 10.3717 4.16671 10.1869 4.16671 10C4.16671 9.46549 4.2386 8.94776 4.37324 8.45597M5.53161 13.75C6.02061 13.3477 6.74127 12.6905 7.46174 11.7587M6.82913 14.8971C7.3567 15.2394 7.94307 15.4987 8.56975 15.6567M6.82913 14.8971C8.53119 13.5315 11.9353 9.53933 11.9353 4.49536M11.9353 4.49536C12.5151 4.6992 13.053 4.99206 13.5326 5.35753M8.56975 15.6567C9.14682 15.0558 9.93685 14.3622 10.7173 13.4173M13.5326 5.35753C14.9309 6.42318 15.8334 8.1062 15.8334 10C15.8334 10.2829 15.8132 10.5612 15.7743 10.8333M13.5326 5.35753C13.4691 7.36761 13.1029 8.97508 12.5821 10.2857M4.37324 8.45597C4.91845 9.3096 5.92131 10.6274 7.46174 11.7587M14.2902 13.9525C12.9587 13.9525 11.7707 13.7501 10.7173 13.4173M6.25004 5.53157C6.64903 6.34989 7.60928 7.60048 9.19109 8.68452M15.7743 10.8333C14.5971 10.7647 13.5345 10.5684 12.5821 10.2857M9.19109 8.68452C8.98307 9.22946 8.7455 9.73174 8.49133 10.1925C8.16625 10.7817 7.81402 11.303 7.46174 11.7587M12.5821 10.2857C12.3625 10.8386 12.1153 11.3386 11.8518 11.7937C11.4945 12.4108 11.1071 12.9454 10.7173 13.4173" stroke="black" stroke-width="1.25" stroke-linecap="round" stroke-linejoin="round"/>
<circle cx="5.20829" cy="2.70835" r="1.04167" fill="black"/>
<path d="M2.91671 5.83335C2.91671 6.40865 2.45034 6.87502 1.87504 6.87502C1.29974 6.87502 0.833374 6.40865 0.833374 5.83335C0.833374 5.25806 1.29974 4.79169 1.87504 4.79169C2.45034 4.79169 2.91671 5.25806 2.91671 5.83335Z" fill="black"/>
</svg>
