<svg width="20" height="20" viewBox="0 0 20 20" fill="none" xmlns="http://www.w3.org/2000/svg">
<path d="M15.6386 16.25C15.9876 15.3863 15.6626 14.5502 15 14.1666C8.66667 10.5 7.08333 7.91664 5.00004 4.99999C4.4585 4.24182 3.55498 3.97366 2.69563 4.46244M15.6386 16.25C15.5825 16.3888 15.509 16.5283 15.4167 16.6667C14.7501 17.6667 13.5954 17.3379 12.9167 17.0833C10.6945 16.25 5.75004 13.5 2.08337 7.49999C1.79339 7.02557 1.25006 5.41663 2.50001 4.5833C2.56591 4.53937 2.63114 4.49912 2.69563 4.46244M15.6386 16.25C16.2591 16.3889 17.482 16.3038 17.9167 15C18.5473 13.1081 17.5353 12.5129 17.5 12.5C17.4648 12.4872 17.428 12.4732 17.3897 12.458M2.69563 4.46244C2.49153 4.08607 2.33333 3.16666 3.33333 2.5C4.33333 1.83333 5.75015 1.87517 6.25004 2.50002C6.36252 2.64063 6.47458 2.7795 6.58621 2.91666M6.58621 2.91666C7.02971 2.54029 7.95618 2.12281 8.75004 2.91666C10 4.16667 13.3334 8.33334 16.6667 10C17.1487 10.2498 17.9681 11.091 17.3897 12.458M6.58621 2.91666C11.6451 9.13277 15.8041 11.8281 17.3897 12.458" stroke="black" stroke-width="1.25" stroke-linecap="round" stroke-linejoin="round"/>
<path d="M16.0251 13.6179C15.9048 13.3687 15.8272 12.8712 15.2783 12.4978C14.3983 11.8992 13.9963 12.4315 13.4116 11.8992C12.7295 11.2782 12.7658 10.8063 12.0836 10.1853C11.4015 9.56431 10.636 9.8179 10.0513 9.28561C9.36916 8.66462 9.64741 7.96746 8.96527 7.34647C8.28313 6.72547 7.63855 6.80564 7.19572 6.15059C6.69093 5.40389 6.9997 4.90477 6.31757 4.28377C6.0125 4.00605 5.64919 3.88878 5.28845 3.79639" stroke="black" stroke-width="1.25" stroke-linecap="round" stroke-linejoin="round" stroke-dasharray="0.3 2"/>
</svg>
