<svg width="20" height="20" viewBox="0 0 20 20" fill="none" xmlns="http://www.w3.org/2000/svg">
<path d="M12.9167 5.83334H11.25M12.9167 5.83334C13.3769 5.83334 13.75 6.20644 13.75 6.66668V17.5M12.9167 5.83334C15 4.16668 16.25 3.75001 17.9167 3.33334M11.25 5.83334H8.74999M11.25 5.83334V12.5M8.74999 5.83334H7.08333M8.74999 5.83334V9.16668M7.08333 5.83334C6.62309 5.83334 6.24999 6.20644 6.24999 6.66668V17.5M7.08333 5.83334C4.99999 4.16668 3.74999 3.75001 2.08333 3.33334M6.24999 17.5H2.08333M6.24999 17.5H8.74999M13.75 17.5H17.9167M13.75 17.5H11.25M8.74999 11.6667V17.5M8.74999 17.5H11.25M11.25 17.5V15" stroke="black" stroke-width="1.25" stroke-linecap="round"/>
</svg>
