<svg width="20" height="20" viewBox="0 0 20 20" fill="none" xmlns="http://www.w3.org/2000/svg">
<path d="M14.1667 7.91667C16.1667 12.25 13.0555 14.4445 11.25 15C10.6618 15 9.85542 15 9.0009 15M14.1667 7.91667C14.7222 8.05556 16.3333 8.00001 18.3333 6.66667M14.1667 7.91667C14.7796 7.30374 15.0051 6.54993 15.0294 5.83334M14.1667 7.91667C13.381 7.91667 12.2249 9.02779 11.3969 11.25M2.91661 14.1667C1.93835 13.3334 2.08332 12.5 2.08332 12.5C2.91661 12.9167 3.59933 12.8055 4.34037 12.4348M2.91661 14.1667C3.37614 14.6247 4.06347 15 4.58332 15C5.25755 15 7.23237 15 9.0009 15M2.91661 14.1667L6.24999 14.1667C7.91666 14.1667 10.3661 14.3183 11.25 11.6667C11.2976 11.5237 11.3467 11.3848 11.3969 11.25M18.3333 6.66667C18.0555 5.83334 16.9167 4.08334 14.5833 3.75001M18.3333 6.66667C17.6611 6.39777 17.0598 6.21022 16.5549 6.08214C15.8081 5.89267 15.2721 5.83334 15.0294 5.83334M14.5833 3.75001C14.8084 4.20026 15.0579 4.99109 15.0294 5.83334M14.5833 3.75001C13.3333 2.50002 10.4166 2.67184 10.4166 5.00002C10.4166 6.33336 10.8333 6.66667 9.99999 7.50001C8.74999 8.47223 6.41666 10.6667 5.41666 11.6667C5.08359 11.9997 4.71045 12.2496 4.34037 12.4348M4.34037 12.4348C6.32485 12.5954 10.1811 12.5834 11.3969 11.25M9.0009 15V17.349C9.61171 17.5382 11.1667 17.8334 12.5 17.5" stroke="black" stroke-width="1.25" stroke-linecap="round" stroke-linejoin="round"/>
<path d="M13.9583 5.20831C13.9583 5.55349 13.6785 5.83331 13.3333 5.83331C12.9881 5.83331 12.7083 5.55349 12.7083 5.20831C12.7083 4.86314 12.9881 4.58331 13.3333 4.58331C13.6785 4.58331 13.9583 4.86314 13.9583 5.20831Z" fill="black"/>
<path d="M13.3333 5.41669C13.0555 5.55558 11.5 5.83335 10.8333 5.83335" stroke="black" stroke-width="1.25" stroke-linecap="round" stroke-linejoin="round"/>
</svg>
