<svg width="20" height="20" viewBox="0 0 20 20" fill="none" xmlns="http://www.w3.org/2000/svg">
<path d="M17.9167 17.9166H13.3333L12.0395 15.9759L12.4264 15.3617C12.7315 14.8772 13.264 14.5833 13.8366 14.5833H14.9096C15.4842 14.5833 16.0183 14.8793 16.3229 15.3666L17.9167 17.9166Z" stroke="black" stroke-width="1.25" stroke-linecap="round" stroke-linejoin="round"/>
<path d="M4.6745 14.0299L2.08333 17.9167H13.3333L10.7422 14.0299C10.2785 13.3344 9.49792 12.9167 8.66204 12.9167H6.75462C5.91874 12.9167 5.13816 13.3344 4.6745 14.0299Z" stroke="black" stroke-width="1.25" stroke-linecap="round" stroke-linejoin="round"/>
<path d="M2.08333 4.16669H8.33333C9.2538 4.16669 9.99999 4.81961 9.99999 5.62502C9.99999 6.43044 9.2538 7.08335 8.33333 7.08335C7.41285 7.08335 6.66666 7.73627 6.66666 8.54169C6.66666 9.3471 7.41285 10 8.33333 10H17.9167" stroke="black" stroke-width="1.25" stroke-linecap="round"/>
<path d="M6.66667 4.16665V2.91665M4.58333 4.16665V2.08331M2.5 4.16665V2.91665M9.58333 9.99998V8.74998M11.6667 9.99998V7.08331M13.75 9.99998V7.91665M15.8333 9.99998V6.24998M17.9167 9.99998V7.91665M11.6667 4.99998V3.74998M13.75 5.83331V4.58331M17.9167 5.83331V4.16665" stroke="black" stroke-width="1.25" stroke-linecap="round" stroke-linejoin="round"/>
</svg>
