<svg width="20" height="20" viewBox="0 0 20 20" fill="none" xmlns="http://www.w3.org/2000/svg">
<path d="M11.25 5.41664L2.08331 13.3333L11.25 9.99999C12.5 9.58327 14.1666 7.08331 11.25 5.41664ZM11.25 5.41664C12.0833 4.58333 13.3333 3.33333 15.4166 4.58333C15.9722 4.86111 17.0833 4.99999 18.3333 6.25C17.7778 6.24999 16.25 6.24994 15.4166 6.66661C15 9.99994 12.7778 11.7001 11.6666 12.1336M8.33331 12.5L4.58331 16.25H2.08331L6.24998 12.1878L8.33331 12.5ZM8.33331 12.5C8.77305 12.555 9.18938 12.5735 9.58331 12.5598M11.6666 12.1336C11.6666 12.8113 11.9166 14.3333 12.9166 15M11.6666 12.1336C11.0545 12.3796 10.3628 12.5327 9.58331 12.5598M9.58331 12.5598C9.86109 13.0954 10.5833 14.3333 11.25 15M9.58331 15H14.1666" stroke="black" stroke-width="1.25" stroke-linecap="round" stroke-linejoin="round"/>
</svg>
