<svg width="20" height="20" viewBox="0 0 20 20" fill="none" xmlns="http://www.w3.org/2000/svg">
<path d="M17.9167 2.5H14.6339C14.0679 2.5 13.5252 2.72482 13.125 3.125M12.5 6.7449V4.63388C12.5 4.06794 12.7248 3.52518 13.125 3.125M12.5 6.7449C12.3377 6.69333 12.1675 6.66667 11.9954 6.66667H8.42129C8.24913 6.66667 8.07898 6.69333 7.91666 6.7449M12.5 6.7449C12.6479 6.79189 12.7893 6.85956 12.9199 6.94658L13.0078 7.00522C13.4715 7.31433 13.75 7.83472 13.75 8.39197V11.7508M13.125 3.125H7.29166M2.49999 2.5H5.78278C6.34872 2.5 6.89148 2.72482 7.29166 3.125M7.91666 6.7449V4.63388C7.91666 4.06794 7.69184 3.52518 7.29166 3.125M7.91666 6.7449C7.76874 6.79189 7.62732 6.85956 7.49679 6.94658L7.40883 7.00522C6.94516 7.31433 6.66666 7.83472 6.66666 8.39197V11.7508M6.66666 11.7508C6.50755 11.8014 6.35542 11.8742 6.21501 11.9678C5.71624 12.3003 5.41666 12.8601 5.41666 13.4595V17.5M6.66666 11.7508C6.84127 11.6953 7.02429 11.6667 7.20948 11.6667H13.2072C13.3924 11.6667 13.5754 11.6953 13.75 11.7508M13.75 11.7508C13.9091 11.8014 14.0612 11.8742 14.2017 11.9678C14.7004 12.3003 15 12.8601 15 13.4595V17.5M5.41666 17.5H2.08333M5.41666 17.5H15M15 17.5H17.9167M9.58333 6.66667V5M8.74999 6.66667V8.75M8.74999 10.4167V11.6667M11.6667 11.6667V8.75M7.49999 11.6667V14.5833M7.49999 16.25V17.5M12.9167 14.1667V17.5M10.8333 11.6667V14.1667" stroke="black" stroke-width="1.25" stroke-linecap="round" stroke-linejoin="round"/>
</svg>
