<svg width="20" height="20" viewBox="0 0 20 20" fill="none" xmlns="http://www.w3.org/2000/svg">
<path d="M9.99996 11.6666V17.9166M9.99996 11.6666L5.83329 7.08331L1.66663 11.6666V17.9166H9.99996M9.99996 11.6666L14.1666 7.08331L18.3333 11.6666V17.9166H9.99996M6.96966 8.33331H13.0303" stroke="black" stroke-width="1.25" stroke-linecap="round" stroke-linejoin="round"/>
<path d="M5.62504 11.0417V10.625H6.04171V11.0417H5.62504ZM13.9584 11.0417V10.625H14.375V11.0417H13.9584ZM3.95837 14.7917V13.9583H4.37504V14.7917H3.95837ZM7.29171 14.7917V13.9583H7.70837V14.7917H7.29171ZM12.2917 17.2917V13.9583H12.7084V17.2917H12.2917ZM15.625 14.7917V13.9583H16.0417V14.7917H15.625Z" stroke="black" stroke-width="1.25" stroke-linejoin="round"/>
</svg>
