<svg width="20" height="20" viewBox="0 0 20 20" fill="none" xmlns="http://www.w3.org/2000/svg">
<circle cx="16.4583" cy="16.2633" r="0.625" fill="black"/>
<circle cx="0.625" cy="0.625" r="0.625" transform="matrix(-1 0 0 1 4.58333 15.6383)" fill="black"/>
<circle cx="14.7917" cy="14.5967" r="0.625" fill="black"/>
<circle cx="0.625" cy="0.625" r="0.625" transform="matrix(-1 0 0 1 6.25 13.9717)" fill="black"/>
<path d="M2.08333 2.08331C2.08333 2.08331 2.63288 2.49997 3.74999 2.49998C5.41666 2.5 5.56289 2.13205 6.66666 2.5C7.77043 2.86796 8.28202 4.31035 8.28202 4.31035M11.8199 4.39201C12.6533 3.97534 14.25 2.58332 17.9167 2.91665M7.91666 9.58331V4.99998C7.91666 4.53974 8.28976 4.16665 8.74999 4.16665H11.25C11.7102 4.16665 12.0833 4.53974 12.0833 4.99998V10.1827C12.0833 10.7248 12.5975 11.1431 13.1248 11.0171C13.7869 10.8589 14.6215 10.6192 15.4167 10.2216C16.25 9.80495 16.6667 10.6383 17.9167 10.6383M7.91666 16.25V11.4716C7.77777 11.6105 7.08333 11.8883 5.41666 11.8883M7.91666 16.25C6.66666 15.8333 5.97222 17.0833 5.83333 17.5M7.91666 16.25C8.33333 15.4166 9.58333 15.4166 9.99999 15.8333C10.5556 15.4166 11.6667 15.4166 12.0833 16.25M12.0833 13.3333V16.25M12.0833 16.25C12.9167 16.25 13.8333 16.5 14.1667 17.5M9.99999 6.24998V7.91665M9.99999 9.99998V13.3333M2.08333 13.555C2.63888 12.9994 3.74999 11.8883 5.41666 11.8883M5.41666 11.8883C4.16666 10.2216 4.16666 9.58331 2.08333 9.99998M17.9167 18.0596H2.08333" stroke="black" stroke-width="1.25" stroke-linecap="round" stroke-linejoin="round"/>
</svg>
