<svg width="20" height="20" viewBox="0 0 20 20" fill="none" xmlns="http://www.w3.org/2000/svg">
<path d="M14.1667 15.8333V17.5H5.83333V15.8333M14.1667 15.8333H17.5V14.1667V6.66667C17.5 4.16667 15 2.5 14.1667 2.5M14.1667 15.8333V15M14.1667 2.5C13.5799 2.5 13.5252 2.5 12.5 2.5C12.3611 3.05556 11.6667 4.16667 10 4.16667C8.33333 4.16667 7.63889 3.05556 7.5 2.5C6.21248 2.5 6.68298 2.5 5.83333 2.5M14.1667 2.5C14.0278 3.61111 13 5.83333 10 5.83333C7 5.83333 5.97222 3.61111 5.83333 2.5M5.83333 2.5C5.48045 2.5 4.82869 2.79887 4.19446 3.33333C3.33098 4.06099 2.5 5.22533 2.5 6.66667C2.5 8.27818 2.5 11.621 2.5 14.1667C2.5 14.7804 2.5 15.3477 2.5 15.8333H5.83333M5.83333 15.8333L8.33333 13.3333L10.8333 15.8333L13.3333 13.3333L14.1667 14.1667M5.83333 15.8333V13.3333M15 7.5L14.1667 8.75V14.1667M5 7.5L5.83333 8.75V13.3333M14.1667 14.1667V15M14.1667 15L13.3333 15.8333L10.8333 13.3333L8.33333 15.8333L5.83333 13.3333" stroke="black" stroke-width="1.25" stroke-linecap="round" stroke-linejoin="round"/>
<path d="M5.83337 5C5.83337 5.34518 5.55355 5.625 5.20837 5.625C4.8632 5.625 4.58337 5.34518 4.58337 5C4.58337 4.65482 4.8632 4.375 5.20837 4.375C5.55355 4.375 5.83337 4.65482 5.83337 5Z" fill="black"/>
<path d="M7.29163 6.45831C7.29163 6.80349 7.0118 7.08331 6.66663 7.08331C6.32145 7.08331 6.04163 6.80349 6.04163 6.45831C6.04163 6.11314 6.32145 5.83331 6.66663 5.83331C7.0118 5.83331 7.29163 6.11314 7.29163 6.45831Z" fill="black"/>
<circle cx="8.95837" cy="7.29169" r="0.625" fill="black"/>
<path d="M11.875 7.29169C11.875 7.63686 11.5952 7.91669 11.25 7.91669C10.9048 7.91669 10.625 7.63686 10.625 7.29169C10.625 6.94651 10.9048 6.66669 11.25 6.66669C11.5952 6.66669 11.875 6.94651 11.875 7.29169Z" fill="black"/>
<path d="M13.9584 6.45831C13.9584 6.80349 13.6786 7.08331 13.3334 7.08331C12.9882 7.08331 12.7084 6.80349 12.7084 6.45831C12.7084 6.11314 12.9882 5.83331 13.3334 5.83331C13.6786 5.83331 13.9584 6.11314 13.9584 6.45831Z" fill="black"/>
<path d="M15.4166 5C15.4166 5.34518 15.1368 5.625 14.7916 5.625C14.4464 5.625 14.1666 5.34518 14.1666 5C14.1666 4.65482 14.4464 4.375 14.7916 4.375C15.1368 4.375 15.4166 4.65482 15.4166 5Z" fill="black"/>
</svg>
