<svg width="20" height="20" viewBox="0 0 20 20" fill="none" xmlns="http://www.w3.org/2000/svg">
<path d="M2.08334 17.9166C2.63889 17.9352 4 17.6751 5 16.4861C6.16316 15.1032 6.96554 16.0883 8.75 15.7288M17.9167 17.9166C15.8333 17.0833 17.0833 17.0833 15.4167 16.25C14.1472 15.6153 14.3281 15.5844 13.75 15.3299M13.75 15.3299C13.5691 15.2503 13.3139 15.1488 12.9167 15C11.8772 14.6106 11.486 14.7069 10.8333 14.986M13.75 15.3299C14.3056 15.0811 15.4167 14.3333 15.4167 13.3333C16.1111 12.9166 17.0833 11.6666 15.4167 9.99998C15.5404 9.4431 15.587 8.63813 15.3648 7.91665M12.0833 2.08331C13.4167 3.08331 12.6389 4.16665 12.0833 4.58331C12.75 4.91665 12.9167 5.83331 12.9167 6.24998C14.3953 6.24998 15.0882 7.01865 15.3648 7.91665M15.3648 7.91665C16.2154 7.77776 17.8333 7.08331 17.5 5.41665C17.934 4.7222 18.4582 3.08331 17.0833 2.08331M8.75 15.7288C8.88323 15.702 9.02193 15.6676 9.16667 15.6243C9.95062 15.3894 10.4396 15.1544 10.8333 14.986M8.75 15.7288C8.33334 15.347 7.66667 14.25 8.33334 12.9166C8 12.75 7.55667 12.3333 7.47134 11.6666C6.92534 11.9444 5.66666 12.2169 4.99999 10.8835M6.01956 9.99998C5.54082 10.6944 4.25 11.75 2.91667 10.4166C1.58334 9.08331 2.36111 7.63887 2.91667 7.08331C2.79419 7.02207 2.64875 6.93518 2.50001 6.82621M2.08333 4.58331C1.82348 5.36285 1.97409 6.44089 2.50001 6.82621M2.50001 6.82621C2.91668 6.63413 3.75001 6.08331 3.75001 5.41665C5 5.41665 5.61627 4.16665 5.41666 3.33331M4.58335 7.91665C5.41667 8.33331 7.5 8.33331 7.91666 6.66665C8.75 6.82621 10.2311 4.99998 9.16668 3.74998M9.35327 9.63353C9.73416 9.48428 10.3786 9.37513 11.0199 9.56456M12.5 10.8835C12.1224 10.1123 11.5723 9.7277 11.0199 9.56456M11.0199 9.56456C11.1733 9.17088 11.684 8.38353 12.5 8.38353M15.4167 5.41665C15.6945 4.88175 15.9167 3.59743 14.5833 2.7393M10.8333 14.986C10.4413 14.4351 10.0295 13.1666 10.8333 12.5" stroke="black" stroke-width="1.25" stroke-linecap="round" stroke-linejoin="round"/>
<path d="M4.16667 12.9167C4.16667 13.2619 3.88685 13.5417 3.54167 13.5417C3.19649 13.5417 2.91667 13.2619 2.91667 12.9167C2.91667 12.5715 3.19649 12.2917 3.54167 12.2917C3.88685 12.2917 4.16667 12.5715 4.16667 12.9167Z" fill="black"/>
<path d="M6.66667 13.75C6.66667 14.0952 6.38685 14.375 6.04167 14.375C5.69649 14.375 5.41667 14.0952 5.41667 13.75C5.41667 13.4048 5.69649 13.125 6.04167 13.125C6.38685 13.125 6.66667 13.4048 6.66667 13.75Z" fill="black"/>
<path d="M18.75 13.125C18.75 13.4702 18.4702 13.75 18.125 13.75C17.7798 13.75 17.5 13.4702 17.5 13.125C17.5 12.7798 17.7798 12.5 18.125 12.5C18.4702 12.5 18.75 12.7798 18.75 13.125Z" fill="black"/>
<path d="M17.9167 9.16669C17.9167 9.51186 17.6368 9.79169 17.2917 9.79169C16.9465 9.79169 16.6667 9.51186 16.6667 9.16669C16.6667 8.82151 16.9465 8.54169 17.2917 8.54169C17.6368 8.54169 17.9167 8.82151 17.9167 9.16669Z" fill="black"/>
</svg>
