<svg width="20" height="20" viewBox="0 0 20 20" fill="none" xmlns="http://www.w3.org/2000/svg">
<path d="M5.83337 16.25H2.08337L2.08337 11.6667H17.9167V16.25H13.3334M7.08337 18.3334C7.63893 18.1945 8.33337 17.5834 8.33337 16.25C8.33337 14.9167 9.16671 14.3056 9.58337 14.1667M9.58337 18.3334C10.1389 18.1945 10.8334 17.5834 10.8334 16.25C10.8334 14.9167 11.6667 14.3056 12.0834 14.1667" stroke="black" stroke-width="1.25" stroke-linecap="round" stroke-linejoin="round"/>
<path d="M8.33337 11.6666H3.33337L3.75004 4.58331H7.91671L8.33337 11.6666ZM8.33337 11.6666H17.0834V6.24998L12.9167 8.33331V6.24998L8.33337 8.33331" stroke="black" stroke-width="1.25" stroke-linecap="round" stroke-linejoin="round"/>
<path d="M6.66667 4.58335C6.66659 3.75002 7.75 3.25002 10.4167 2.91669C12.5 2.65627 12.9167 1.66669 12.9167 1.66669M4.58325 4.58335C4.58325 3.75002 4.74998 3.04163 5.83324 2.50002C6.91651 1.95841 7.91662 1.66669 7.91662 1.66669" stroke="black" stroke-width="1.25" stroke-linecap="round" stroke-linejoin="round"/>
</svg>
