<svg width="20" height="20" viewBox="0 0 20 20" fill="none" xmlns="http://www.w3.org/2000/svg">
<path d="M2.08331 17.9167H1.45831C1.45831 18.2618 1.73814 18.5417 2.08331 18.5417V17.9167ZM2.08331 16.25L1.91161 15.649C1.6433 15.7257 1.45831 15.9709 1.45831 16.25H2.08331ZM8.33331 7.49999L7.74811 7.28054C7.72179 7.35071 7.70831 7.42505 7.70831 7.49999H8.33331ZM17.9166 17.9167V18.5417C18.2618 18.5417 18.5416 18.2618 18.5416 17.9167H17.9166ZM17.9166 16.25H18.5416C18.5416 15.9709 18.3567 15.7257 18.0883 15.649L17.9166 16.25ZM11.6666 7.49999H12.2916C12.2916 7.42505 12.2782 7.35071 12.2519 7.28054L11.6666 7.49999ZM10.625 1.66666C10.625 1.32148 10.3452 1.04166 9.99998 1.04166C9.6548 1.04166 9.37498 1.32148 9.37498 1.66666H10.625ZM8.74998 2.29166C8.4048 2.29166 8.12498 2.57148 8.12498 2.91666C8.12498 3.26183 8.4048 3.54166 8.74998 3.54166V2.29166ZM11.25 3.54166C11.5952 3.54166 11.875 3.26183 11.875 2.91666C11.875 2.57148 11.5952 2.29166 11.25 2.29166V3.54166ZM4.16665 15.3131L3.83536 14.7832L4.16665 15.3131ZM13.75 13.6543L14.2216 13.2442L13.75 13.6543ZM2.70831 17.9167V16.25H1.45831V17.9167H2.70831ZM18.5416 17.9167V16.25H17.2916V17.9167H18.5416ZM8.33331 7.49999C8.91852 7.71944 8.91851 7.71946 8.91851 7.71947C8.91851 7.71945 8.91852 7.71945 8.91853 7.71942C8.91855 7.71936 8.91859 7.71925 8.91865 7.71909C8.91877 7.71877 8.91897 7.71825 8.91924 7.71754C8.91977 7.7161 8.92061 7.71389 8.92173 7.71091C8.92397 7.70496 8.92737 7.69597 8.93185 7.68414C8.94082 7.66048 8.95415 7.62548 8.97131 7.58077C9.00565 7.49133 9.05532 7.36315 9.11626 7.20919C9.23839 6.90065 9.4047 6.49136 9.58299 6.08384C9.76295 5.67251 9.94832 5.27869 10.1085 4.9939C10.1902 4.84865 10.2529 4.75432 10.2938 4.70401C10.315 4.67797 10.3143 4.6838 10.2914 4.70124C10.2794 4.71039 10.1745 4.79166 9.99998 4.79166V3.54166C9.7734 3.54166 9.60992 3.64896 9.53382 3.70695C9.44685 3.77321 9.37657 3.85066 9.32366 3.91577C9.21643 4.04774 9.11312 4.21383 9.01905 4.38108C8.82768 4.72129 8.62243 5.1608 8.4378 5.58281C8.25151 6.00862 8.07928 6.43266 7.95401 6.74913C7.89125 6.90767 7.84001 7.03991 7.80436 7.13275C7.78653 7.17918 7.77259 7.2158 7.76305 7.24097C7.75828 7.25355 7.75461 7.26328 7.75209 7.26994C7.75084 7.27327 7.74987 7.27584 7.74921 7.27761C7.74887 7.2785 7.74861 7.27919 7.74843 7.27968C7.74834 7.27992 7.74827 7.28012 7.74821 7.28026C7.74818 7.28033 7.74816 7.2804 7.74815 7.28044C7.74812 7.28049 7.74811 7.28054 8.33331 7.49999ZM9.99998 4.79166C9.82548 4.79166 9.7206 4.71039 9.70858 4.70124C9.6857 4.6838 9.685 4.67797 9.70615 4.70401C9.74703 4.75432 9.80974 4.84865 9.89144 4.9939C10.0516 5.27869 10.237 5.67251 10.417 6.08384C10.5953 6.49136 10.7616 6.90065 10.8837 7.20919C10.9446 7.36315 10.9943 7.49133 11.0286 7.58077C11.0458 7.62548 11.0591 7.66048 11.0681 7.68414C11.0726 7.69597 11.076 7.70496 11.0782 7.71091C11.0794 7.71389 11.0802 7.7161 11.0807 7.71754C11.081 7.71825 11.0812 7.71877 11.0813 7.71909C11.0814 7.71925 11.0814 7.71936 11.0814 7.71942C11.0814 7.71945 11.0814 7.71945 11.0814 7.71947C11.0814 7.71946 11.0814 7.71944 11.6666 7.49999C12.2519 7.28054 12.2518 7.28049 12.2518 7.28044C12.2518 7.2804 12.2518 7.28033 12.2517 7.28026C12.2517 7.28012 12.2516 7.27992 12.2515 7.27968C12.2513 7.27919 12.2511 7.2785 12.2508 7.27761C12.2501 7.27584 12.2491 7.27327 12.2479 7.26994C12.2454 7.26328 12.2417 7.25355 12.2369 7.24097C12.2274 7.2158 12.2134 7.17918 12.1956 7.13275C12.16 7.03991 12.1087 6.90767 12.046 6.74913C11.9207 6.43266 11.7485 6.00862 11.5622 5.58281C11.3775 5.1608 11.1723 4.72129 10.9809 4.38108C10.8868 4.21383 10.7835 4.04774 10.6763 3.91577C10.6234 3.85066 10.5531 3.77321 10.4661 3.70695C10.39 3.64896 10.2266 3.54166 9.99998 3.54166V4.79166ZM10.625 4.16666V2.91666H9.37498V4.16666H10.625ZM10.625 2.91666V1.66666H9.37498V2.91666H10.625ZM8.74998 3.54166H9.99998V2.29166H8.74998V3.54166ZM9.99998 3.54166H11.25V2.29166H9.99998V3.54166ZM7.70831 7.49999V17.9167H8.95831V7.49999H7.70831ZM8.33331 18.5417H11.6666V17.2917H8.33331V18.5417ZM11.0416 7.49999V17.9167H12.2916V7.49999H11.0416ZM2.08331 18.5417H4.16665V17.2917H2.08331V18.5417ZM2.25501 16.8509C3.00047 16.638 3.76486 16.3014 4.49793 15.8431L3.83536 14.7832C3.19875 15.1811 2.54148 15.4691 1.91161 15.649L2.25501 16.8509ZM4.79165 17.9167V15.3131H3.54165V17.9167H4.79165ZM4.16665 18.5417H6.24998V17.2917H4.16665V18.5417ZM6.24998 18.5417H8.33331V17.2917H6.24998V18.5417ZM4.49793 15.8431C5.29743 15.3434 6.06376 14.6963 6.7292 13.9015L5.77076 13.0991C5.19395 13.788 4.52895 14.3496 3.83536 14.7832L4.49793 15.8431ZM6.7292 13.9015C8.04701 12.3275 8.95831 10.1861 8.95831 7.49999H7.70831C7.70831 9.88606 6.90451 11.7449 5.77076 13.0991L6.7292 13.9015ZM6.87498 17.9167V13.5003H5.62498V17.9167H6.87498ZM15.8333 18.5417H17.9166V17.2917H15.8333V18.5417ZM18.0883 15.649C17.4463 15.4656 16.7839 15.196 16.1474 14.8259L15.5192 15.9066C16.2524 16.3328 17.0116 16.6414 17.7449 16.8509L18.0883 15.649ZM16.4583 17.9167V15.3662H15.2083V17.9167H16.4583ZM11.6666 18.5417H13.75V17.2917H11.6666V18.5417ZM13.75 18.5417H15.8333V17.2917H13.75V18.5417ZM16.1474 14.8259C15.454 14.4228 14.7933 13.9017 14.2216 13.2442L13.2783 14.0643C13.9489 14.8356 14.7195 15.4417 15.5192 15.9066L16.1474 14.8259ZM14.2216 13.2442C13.1014 11.9558 12.2916 10.1072 12.2916 7.49999H11.0416C11.0416 10.3876 11.947 12.5331 13.2783 14.0643L14.2216 13.2442ZM14.375 17.9167V13.6543H13.125V17.9167H14.375Z" fill="black"/>
</svg>
