<svg width="20" height="20" viewBox="0 0 20 20" fill="none" xmlns="http://www.w3.org/2000/svg">
<path d="M2.08333 3.54165C1.73815 3.54165 1.45833 3.82147 1.45833 4.16665C1.45833 4.51182 1.73815 4.79165 2.08333 4.79165V3.54165ZM17.9167 9.99998V10.625C18.2618 10.625 18.5417 10.3452 18.5417 9.99998H17.9167ZM3.12499 2.91665C3.12499 2.57147 2.84517 2.29165 2.49999 2.29165C2.15482 2.29165 1.87499 2.57147 1.87499 2.91665H3.12499ZM5.20833 2.08331C5.20833 1.73814 4.92851 1.45831 4.58333 1.45831C4.23815 1.45831 3.95833 1.73814 3.95833 2.08331H5.20833ZM7.29166 2.91665C7.29166 2.57147 7.01184 2.29165 6.66666 2.29165C6.32148 2.29165 6.04166 2.57147 6.04166 2.91665H7.29166ZM12.2917 7.08331C12.2917 6.73813 12.0118 6.45831 11.6667 6.45831C11.3215 6.45831 11.0417 6.73813 11.0417 7.08331H12.2917ZM11.0417 4.99998C11.0417 5.34516 11.3215 5.62498 11.6667 5.62498C12.0118 5.62498 12.2917 5.34516 12.2917 4.99998H11.0417ZM12.2917 3.74998C12.2917 3.4048 12.0118 3.12498 11.6667 3.12498C11.3215 3.12498 11.0417 3.4048 11.0417 3.74998H12.2917ZM14.375 7.91665C14.375 7.57147 14.0952 7.29165 13.75 7.29165C13.4048 7.29165 13.125 7.57147 13.125 7.91665H14.375ZM13.125 5.83331C13.125 6.17849 13.4048 6.45831 13.75 6.45831C14.0952 6.45831 14.375 6.17849 14.375 5.83331H13.125ZM14.375 4.58331C14.375 4.23813 14.0952 3.95831 13.75 3.95831C13.4048 3.95831 13.125 4.23813 13.125 4.58331H14.375ZM16.4583 6.24998C16.4583 5.9048 16.1785 5.62498 15.8333 5.62498C15.4882 5.62498 15.2083 5.9048 15.2083 6.24998H16.4583ZM18.5417 7.91665C18.5417 7.57147 18.2618 7.29165 17.9167 7.29165C17.5715 7.29165 17.2917 7.57147 17.2917 7.91665H18.5417ZM17.2917 5.83331C17.2917 6.17849 17.5715 6.45831 17.9167 6.45831C18.2618 6.45831 18.5417 6.17849 18.5417 5.83331H17.2917ZM18.5417 4.16665C18.5417 3.82147 18.2618 3.54165 17.9167 3.54165C17.5715 3.54165 17.2917 3.82147 17.2917 4.16665H18.5417ZM10.2083 8.74998C10.2083 8.4048 9.92851 8.12498 9.58333 8.12498C9.23815 8.12498 8.95833 8.4048 8.95833 8.74998H10.2083ZM2.08333 17.9166L1.5633 17.57C1.43544 17.7617 1.42352 18.0083 1.53228 18.2116C1.64105 18.4148 1.85283 18.5416 2.08333 18.5416V17.9166ZM4.6745 14.0299L4.15447 13.6832L4.6745 14.0299ZM17.9167 17.9166V18.5416C18.1439 18.5416 18.3532 18.4183 18.4633 18.2196C18.5735 18.0209 18.5671 17.7781 18.4467 17.5854L17.9167 17.9166ZM12.4264 15.3617L12.9552 15.6948H12.9552L12.4264 15.3617ZM12.0395 15.9759L11.5195 16.3226L12.0395 15.9759ZM10.7422 14.0299L10.2221 14.3766L10.7422 14.0299ZM9.375 5.62498C9.375 6.00943 8.98963 6.45831 8.33333 6.45831V7.70831C9.51798 7.70831 10.625 6.85136 10.625 5.62498H9.375ZM8.33333 4.79165C8.98963 4.79165 9.375 5.24053 9.375 5.62498H10.625C10.625 4.3986 9.51798 3.54165 8.33333 3.54165V4.79165ZM7.29166 8.54165C7.29166 8.15719 7.67703 7.70831 8.33333 7.70831V6.45831C7.14868 6.45831 6.04166 7.31527 6.04166 8.54165H7.29166ZM8.33333 9.37498C7.67703 9.37498 7.29166 8.9261 7.29166 8.54165H6.04166C6.04166 9.76802 7.14868 10.625 8.33333 10.625V9.37498ZM8.33333 3.54165H6.66666V4.79165H8.33333V3.54165ZM6.66666 3.54165H4.58333V4.79165H6.66666V3.54165ZM4.58333 3.54165H2.49999V4.79165H4.58333V3.54165ZM2.49999 3.54165H2.08333V4.79165H2.49999V3.54165ZM8.33333 10.625H9.58333V9.37498H8.33333V10.625ZM9.58333 10.625H11.6667V9.37498H9.58333V10.625ZM11.6667 10.625H13.75V9.37498H11.6667V10.625ZM13.75 10.625H15.8333V9.37498H13.75V10.625ZM15.8333 10.625H17.9167V9.37498H15.8333V10.625ZM3.12499 4.16665V2.91665H1.87499V4.16665H3.12499ZM5.20833 4.16665V2.08331H3.95833V4.16665H5.20833ZM7.29166 4.16665V2.91665H6.04166V4.16665H7.29166ZM12.2917 9.99998V7.08331H11.0417V9.99998H12.2917ZM12.2917 4.99998V3.74998H11.0417V4.99998H12.2917ZM14.375 9.99998V7.91665H13.125V9.99998H14.375ZM14.375 5.83331V4.58331H13.125V5.83331H14.375ZM16.4583 9.99998V6.24998H15.2083V9.99998H16.4583ZM18.5417 9.99998V7.91665H17.2917V9.99998H18.5417ZM18.5417 5.83331V4.16665H17.2917V5.83331H18.5417ZM10.2083 9.99998V8.74998H8.95833V9.99998H10.2083ZM2.60336 18.2633L5.19453 14.3766L4.15447 13.6832L1.5633 17.57L2.60336 18.2633ZM6.75462 13.5416H8.66204V12.2916H6.75462V13.5416ZM2.08333 18.5416H13.3333V17.2916H2.08333V18.5416ZM13.3333 18.5416H17.9167V17.2916H13.3333V18.5416ZM13.8366 15.2083H14.9096V13.9583H13.8366V15.2083ZM15.7929 15.6979L17.3867 18.2479L18.4467 17.5854L16.8529 15.0354L15.7929 15.6979ZM11.8975 15.0286L11.5107 15.6428L12.5684 16.309L12.9552 15.6948L11.8975 15.0286ZM10.2221 14.3766L11.5195 16.3226L12.5596 15.6292L11.2622 13.6832L10.2221 14.3766ZM11.5195 16.3226L12.8133 18.2633L13.8534 17.57L12.5596 15.6292L11.5195 16.3226ZM13.8366 13.9583C13.0493 13.9583 12.3171 14.3625 11.8975 15.0286L12.9552 15.6948C13.1459 15.392 13.4788 15.2083 13.8366 15.2083V13.9583ZM8.66204 13.5416C9.28895 13.5416 9.87439 13.855 10.2221 14.3766L11.2622 13.6832C10.6826 12.8138 9.70689 12.2916 8.66204 12.2916V13.5416ZM14.9096 15.2083C15.2687 15.2083 15.6026 15.3933 15.7929 15.6979L16.8529 15.0354C16.4341 14.3654 15.6997 13.9583 14.9096 13.9583V15.2083ZM5.19453 14.3766C5.54228 13.855 6.12771 13.5416 6.75462 13.5416V12.2916C5.70977 12.2916 4.73405 12.8138 4.15447 13.6832L5.19453 14.3766Z" fill="black"/>
</svg>
