<svg width="20" height="20" viewBox="0 0 20 20" fill="none" xmlns="http://www.w3.org/2000/svg">
<path d="M1.66672 18.5697C2.6563 18.5697 3.1511 17.5697 4.30561 17.5697C5.46012 17.5697 5.78998 18.5697 6.9445 18.5697C7.93408 18.5697 8.42887 17.5697 9.58339 17.5697C10.7379 17.5697 11.0678 18.5697 12.2223 18.5697C13.2119 18.5697 13.7067 17.5697 14.8612 17.5697C16.0157 17.5697 16.3455 18.5697 17.5001 18.5697M1.66669 15.9138C2.65627 15.9138 3.15106 14.9138 4.30558 14.9138C5.46009 14.9138 5.78995 15.9138 6.94446 15.9138C7.93405 15.9138 8.42884 14.9138 9.58335 14.9138C10.7379 14.9138 11.0677 15.9138 12.2222 15.9138C13.2118 15.9138 13.7066 14.9138 14.8611 14.9138C16.0156 14.9138 16.3455 15.9138 17.5 15.9138M10.4167 15.1157V12.6293M10.4167 12.6293V9.91375M10.4167 12.6293H14.9167M13.4167 7.41377C13.4167 6.5409 12.7451 5.83331 11.9167 5.83331C11.0883 5.83331 10.4167 6.5409 10.4167 7.41377V9.91375M14.9167 14.9137V12.6293M14.9167 12.6293V9.91375M17.9167 7.41377C17.9167 6.5409 17.2451 5.83331 16.4167 5.83331C15.5883 5.83331 14.9167 6.5409 14.9167 7.41377V9.91375M14.9167 9.91375H10.4167" stroke="black" stroke-width="1.25" stroke-linecap="round" stroke-linejoin="round"/>
<circle cx="5.00002" cy="9.16665" r="0.833333" fill="black"/>
<path d="M4.99998 10.8333C5.92045 10.8333 6.66665 10.0871 6.66665 9.16667C6.66665 8.74398 6.5093 8.35805 6.24998 8.06424V3.75C6.24998 3.05964 5.69034 2.5 4.99998 2.5C4.30962 2.5 3.74998 3.05964 3.74998 3.75V8.06424C3.45788 8.36446 3.33331 8.71471 3.33331 9.16667C3.33331 10.0871 4.07951 10.8333 4.99998 10.8333Z" stroke="black" stroke-width="1.25" stroke-linejoin="round"/>
</svg>
