<svg width="20" height="20" viewBox="0 0 20 20" fill="none" xmlns="http://www.w3.org/2000/svg">
<path d="M17.5 15C15.8594 15 15.3906 13.75 13.75 13.75C12.1094 13.75 11.4062 15 10 15C8.35937 15 7.89062 13.75 6.25 13.75C4.60937 13.75 3.90625 15 2.5 15M17.5 17.5C15.8594 17.5 15.3906 16.25 13.75 16.25C12.1094 16.25 11.4062 17.5 10 17.5C8.35937 17.5 7.89062 16.25 6.25 16.25C4.60937 16.25 3.90625 17.5 2.5 17.5" stroke="black" stroke-width="1.25" stroke-linecap="round" stroke-linejoin="round"/>
<path d="M12.5 3.74996C12.5 3.74996 10.4167 7.89043 10.8333 10.8071C11.2372 10.7622 11.8236 10.755 12.5 10.8333M12.5 3.74996C12.5 3.74996 13.3333 7.49998 12.5 10.8333M12.5 3.74996C12.9167 2.91666 12.0833 1.87852 10 2.47377C7.08338 3.30713 4.58337 7.47377 3.33337 12.8904M12.5 10.8333C13.9173 10.9973 15.7295 11.9532 17.0834 13.3071M9.58334 4.97377C9.16663 4.55709 6.6667 7.47375 7.08334 9.5571C7.6001 12.1412 10.4167 4.97377 9.58334 4.97377Z" stroke="black" stroke-width="1.25" stroke-linecap="round" stroke-linejoin="round"/>
</svg>
