<svg width="20" height="20" viewBox="0 0 20 20" fill="none" xmlns="http://www.w3.org/2000/svg">
<path d="M17.5 15C15.8594 15 15.3906 13.75 13.75 13.75C12.1094 13.75 11.4062 15 10 15C8.35937 15 7.89062 13.75 6.25 13.75C4.60937 13.75 3.90625 15 2.5 15M17.5 17.5C15.8594 17.5 15.3906 16.25 13.75 16.25C12.1094 16.25 11.4062 17.5 10 17.5C8.35937 17.5 7.89062 16.25 6.25 16.25C4.60937 16.25 3.90625 17.5 2.5 17.5" stroke="black" stroke-width="1.25" stroke-linecap="round" stroke-linejoin="round"/>
<path d="M11.25 12.9166C11.25 12.9166 11.1367 11.7415 11.6667 10.4166C12.6667 7.91664 15.8333 9.5833 17.9167 3.3333C15.4167 4.99997 13.3333 2.91661 10 5.8333C7.08333 3.3333 5 4.99997 2.5 2.49997C2.63889 4.16664 3.75 7.49997 7.91667 9.5833C8.97058 10.1103 8.33333 11.6666 7.91667 12.5" stroke="black" stroke-width="1.25" stroke-linecap="round" stroke-linejoin="round"/>
</svg>
