<svg width="20" height="20" viewBox="0 0 20 20" fill="none" xmlns="http://www.w3.org/2000/svg">
<path d="M2 17.2C2.88889 18.2667 3.77778 18.2667 4.66667 17.2C5.55556 18.2667 6.44444 18.2667 7.33333 17.2C8.22222 18.2667 9.11111 18.2667 10 17.2C10.8889 18.2667 11.7778 18.2667 12.6667 17.2C13.5556 18.2667 14.4444 18.2667 15.3333 17.2C16.2222 18.2667 17.1111 18.2667 18 17.2M2.8 12.4V9.2H12.4V12.4M15.6 13.2V6.8M15.6 6.8H12.4M15.6 6.8L16.4 5.2H11.6L12.4 6.8M12.4 6.8V13.2M12.4 5.2V3.6H15.6V5.2M14 3.6V2M4 9.2V7.2M4 7.2H10.8M4 7.2L7.6 5.2M10.8 7.2V9.2M10.8 7.2L7.6 5.2M7.6 5.2V4.4M14 8.4V9.2M14 10.8V11.6M10.4 10.8H10.8M8.4 10.8H8.8M6.4 10.8H6.8M4.4 10.8H4.8M2 14.8H18L17.2 13.2H7.6C6 11.9345 3.6 11.9344 2 13.2V14.8Z" stroke="black" stroke-width="1.25" stroke-linecap="round" stroke-linejoin="round"/>
</svg>
