<svg width="20" height="20" viewBox="0 0 20 20" fill="none" xmlns="http://www.w3.org/2000/svg">
<path d="M2.5 15.1282H3.73077L6.19231 15.9487M6.19231 15.9487H14.3974M6.19231 15.9487L5.37179 18H15.2179L14.3974 15.9487M14.3974 15.9487L16.859 15.1282H18.0897M4.14103 15.1282V4.46154H16.4487V15.1282M2.91026 3.23077C4.27778 2.68376 7.01282 2 10.2949 2C13.5769 2 16.312 2.68376 17.6795 3.23077M6.19231 4.46154V2.82051M14.3974 4.46154V2.82051M6.60256 14.3077L7.83333 13.8974L5.78205 12.2564C5.78205 12.2564 7.01282 11.8462 10.2949 11.8462C13.5769 11.8462 14.8077 12.2564 14.8077 12.2564L12.7564 13.8974L13.9872 14.3077M10.2949 13.4872V13.8974M10.2949 13.4872L9.47436 13.8974M10.2949 13.4872L11.1154 13.8974M10.2949 13.8974V14.3077M10.2949 13.8974H9.47436M10.2949 13.8974H11.1154M10.2949 14.3077L9.47436 13.8974M10.2949 14.3077L11.1154 13.8974M4.55128 10.2051H16.4487M7.83333 6.10256V10.2051H12.7564V6.10256M4.55128 6.10256H16.0385" stroke="black" stroke-width="1.25" stroke-linecap="round" stroke-linejoin="round"/>
</svg>
