<svg width="20" height="20" viewBox="0 0 20 20" fill="none" xmlns="http://www.w3.org/2000/svg">
<path d="M15.5999 6.32432V8.05405M9.99994 3.72973V2M4.39994 6.32432V8.05405M7.19994 6.32432V8.05405M12.7999 6.32432V8.05405M13.9999 3.72973C14.5333 3.72973 15.5999 3.38378 15.5999 2M4.40002 2C4.40002 2.57658 4.72002 3.72973 6.00002 3.72973M3.59998 17.5676V9.78379M7.59998 17.5676V9.78379M12.4 9.78379V12.3784M12.4 12.3784V17.5676M12.4 12.3784H10.8M12.4 12.3784H16.4M16.4 9.78379V12.3784M16.4 12.3784V17.5676M16.4 12.3784H18M2 12.3784H9.2M2 18H18M2.79993 6.32433L5.01531 3.72974H14.9845L17.1999 6.32433H2.79993ZM2 9.7838L3.6 8.05407H8.4V9.7838H2ZM18 9.7838L16.4 8.05407L11.6 8.05407V9.7838L18 9.7838Z" stroke="black" stroke-width="1.25" stroke-linecap="round" stroke-linejoin="round"/>
</svg>
