<svg width="20" height="20" viewBox="0 0 20 20" fill="none" xmlns="http://www.w3.org/2000/svg">
<g clip-path="url(#clip0_4057_51)">
<path d="M17.3684 10H18.75M17.3684 10C17.3684 14.0695 14.0695 17.3684 10 17.3684M17.3684 10C17.3684 5.93053 14.0695 2.63158 10 2.63158M10 17.3684V18.75M10 17.3684C5.93053 17.3684 2.63158 14.0695 2.63158 10M10 2.63158V1.25M10 2.63158C5.93053 2.63158 2.63158 5.93053 2.63158 10M2.63158 10H1.25M16.3812 13.6842L17.9765 14.6053M6.31335 16.3812L5.39471 17.9766M13.6842 3.61736L14.6052 2.02346M3.61735 6.31578L2.02343 5.39474M13.6842 16.3812L14.6053 17.9766M3.61735 13.6842L2.02347 14.6053M16.3812 6.3133L17.9766 5.39474M6.31335 3.61875L5.39476 2.02346M7.37497 10L8.24997 10M8.24997 10L9.37494 10M8.24997 10V8.68751M8.24997 10L8.90622 11.3125M9.37494 10L10.4097 10M9.37494 10L8.53122 8.68751M9.37494 10V8.75L10.4097 10M10.4097 10L11.2499 10M10.4097 10L10.875 8.68751M11.2499 10L11.75 10M11.2499 10L10.875 8.68751M11.2499 10L11.625 8.68751M11.75 10H12.625M11.75 10L11.0937 11.3125M11.75 10V8.68751M8.24997 8.25001C8.24997 7.95834 8.42497 7.37501 9.12497 7.37501M8.24997 8.25001V8.68751M8.24997 8.25001L8.53122 8.68751M10.875 7.37501C11.75 7.37501 11.75 8.25001 11.75 8.25001M11.75 8.25001V8.68751M11.75 8.25001L11.625 8.68751M8.24997 8.68751H7.37497M8.24997 8.68751H8.53122M9.12497 11.75V12.1875M9.12497 11.75L8.90622 11.3125M9.12497 11.75V11.3125M8.90622 11.3125H7.37497M8.90622 11.3125H9.12497M10.875 11.3125V11.75M10.875 11.3125H9.12497M10.875 11.3125H11.0937M10.875 11.75V12.1875M10.875 11.75L11.0937 11.3125M11.0937 11.3125H12.625M11.75 8.68751H11.625M11.75 8.68751H12.625M8.53122 8.68751H10.875M10.875 10.875H9.12497V11.3125M10.875 8.68751H11.625M14.6053 10C14.6053 12.5434 12.5434 14.6053 10 14.6053C7.45658 14.6053 5.39474 12.5434 5.39474 10C5.39474 7.45658 7.45658 5.39474 10 5.39474C12.5434 5.39474 14.6053 7.45658 14.6053 10Z" stroke="black" stroke-width="1.25" stroke-linecap="round" stroke-linejoin="round"/>
</g>
<defs>
<clipPath id="clip0_4057_51">
<rect width="20" height="20" fill="white"/>
</clipPath>
</defs>
</svg>
