<svg width="20" height="20" viewBox="0 0 20 20" fill="none" xmlns="http://www.w3.org/2000/svg">
<path d="M18 10.5C18.2761 10.5 18.5 10.2761 18.5 10C18.5 9.72386 18.2761 9.5 18 9.5V10.5ZM9.5 18C9.5 18.2761 9.72386 18.5 10 18.5C10.2761 18.5 10.5 18.2761 10.5 18H9.5ZM10.5 2C10.5 1.72386 10.2761 1.5 10 1.5C9.72386 1.5 9.5 1.72386 9.5 2H10.5ZM2 9.5C1.72386 9.5 1.5 9.72386 1.5 10C1.5 10.2761 1.72386 10.5 2 10.5V9.5ZM16.0843 12.9354C15.8451 12.7973 15.5393 12.8793 15.4012 13.1184C15.2632 13.3576 15.3451 13.6634 15.5843 13.8014L16.0843 12.9354ZM17.0428 14.6435C17.282 14.7816 17.5878 14.6997 17.7258 14.4605C17.8639 14.2214 17.782 13.9156 17.5428 13.7775L17.0428 14.6435ZM7.06264 16.0838C7.20044 15.8445 7.11816 15.5388 6.87886 15.401C6.63955 15.2632 6.33385 15.3455 6.19605 15.5848L7.06264 16.0838ZM5.35616 17.0433C5.21836 17.2826 5.30064 17.5883 5.53995 17.7261C5.77925 17.8639 6.08495 17.7817 6.22275 17.5424L5.35616 17.0433ZM12.9355 3.91428C12.7974 4.15338 12.8792 4.4592 13.1183 4.59736C13.3574 4.73552 13.6632 4.65369 13.8014 4.4146L12.9355 3.91428ZM14.6434 2.95732C14.7816 2.71822 14.6998 2.4124 14.4607 2.27424C14.2216 2.13608 13.9157 2.21791 13.7776 2.457L14.6434 2.95732ZM3.91427 7.06449C4.15336 7.20265 4.45919 7.12083 4.59735 6.88174C4.73551 6.64264 4.65369 6.33682 4.41459 6.19865L3.91427 7.06449ZM2.9573 5.35656C2.7182 5.2184 2.41238 5.30022 2.27421 5.53932C2.13605 5.77841 2.21788 6.08424 2.45697 6.2224L2.9573 5.35656ZM13.8015 15.5843C13.6634 15.3451 13.3576 15.2632 13.1184 15.4013C12.8793 15.5393 12.7974 15.8451 12.9354 16.0843L13.8015 15.5843ZM13.7775 17.5428C13.9156 17.782 14.2214 17.8639 14.4605 17.7259C14.6997 17.5878 14.7816 17.282 14.6436 17.0428L13.7775 17.5428ZM4.4146 13.8013C4.65369 13.6632 4.73551 13.3573 4.59735 13.1183C4.45918 12.8792 4.15335 12.7973 3.91426 12.9355L4.4146 13.8013ZM2.45701 13.7776C2.21791 13.9158 2.1361 14.2216 2.27426 14.4607C2.41242 14.6998 2.71825 14.7816 2.95734 14.6434L2.45701 13.7776ZM15.5848 6.19599C15.3455 6.33378 15.2632 6.63948 15.4009 6.87879C15.5387 7.1181 15.8444 7.2004 16.0837 7.06261L15.5848 6.19599ZM17.5424 6.22279C17.7817 6.085 17.864 5.7793 17.7262 5.53999C17.5884 5.30068 17.2827 5.21838 17.0434 5.35617L17.5424 6.22279ZM6.19605 4.41522C6.33384 4.65452 6.63954 4.73681 6.87885 4.59902C7.11815 4.46123 7.20044 4.15552 7.06265 3.91622L6.19605 4.41522ZM6.2228 2.45766C6.085 2.21835 5.7793 2.13606 5.53999 2.27386C5.30069 2.41165 5.2184 2.71735 5.35619 2.95666L6.2228 2.45766ZM7.6 9.5C7.32386 9.5 7.1 9.72386 7.1 10C7.1 10.2761 7.32386 10.5 7.6 10.5V9.5ZM12.4 10.5C12.6761 10.5 12.9 10.2761 12.9 10C12.9 9.72386 12.6761 9.5 12.4 9.5V10.5ZM9.2 8.1C9.47614 8.1 9.7 7.87614 9.7 7.6C9.7 7.32386 9.47614 7.1 9.2 7.1V8.1ZM10.8 7.1C10.5239 7.1 10.3 7.32386 10.3 7.6C10.3 7.87614 10.5239 8.1 10.8 8.1V7.1ZM11.6 8.4L12.1 8.4L12.1 8.4L11.6 8.4ZM8.7 12C8.7 12.2761 8.92386 12.5 9.2 12.5C9.47614 12.5 9.7 12.2761 9.7 12H8.7ZM10.3 12C10.3 12.2761 10.5239 12.5 10.8 12.5C11.0761 12.5 11.3 12.2761 11.3 12H10.3ZM10.8 11.3C11.0761 11.3 11.3 11.0761 11.3 10.8C11.3 10.5239 11.0761 10.3 10.8 10.3V11.3ZM9.2 10.8V10.3H8.7V10.8H9.2ZM7.6 8.3C7.32386 8.3 7.1 8.52386 7.1 8.8C7.1 9.07614 7.32386 9.3 7.6 9.3V8.3ZM12.4 9.3C12.6761 9.3 12.9 9.07614 12.9 8.8C12.9 8.52386 12.6761 8.3 12.4 8.3V9.3ZM7.6 10.7C7.32386 10.7 7.1 10.9239 7.1 11.2C7.1 11.4761 7.32386 11.7 7.6 11.7V10.7ZM12.4 11.7C12.6761 11.7 12.9 11.4761 12.9 11.2C12.9 10.9239 12.6761 10.7 12.4 10.7V11.7ZM16.7368 10.5H18V9.5H16.7368V10.5ZM9.5 16.7368V18H10.5V16.7368H9.5ZM10.5 3.26316V2H9.5V3.26316H10.5ZM3.26316 9.5H2V10.5H3.26316V9.5ZM16.2368 10C16.2368 13.4445 13.4445 16.2368 10 16.2368V17.2368C13.9968 17.2368 17.2368 13.9968 17.2368 10H16.2368ZM10 16.2368C6.55549 16.2368 3.76316 13.4445 3.76316 10H2.76316C2.76316 13.9968 6.0032 17.2368 10 17.2368V16.2368ZM3.76316 10C3.76316 6.55549 6.55549 3.76316 10 3.76316V2.76316C6.0032 2.76316 2.76316 6.0032 2.76316 10H3.76316ZM10 3.76316C13.4445 3.76316 16.2368 6.55549 16.2368 10H17.2368C17.2368 6.0032 13.9968 2.76316 10 2.76316V3.76316ZM13.7105 10C13.7105 12.0493 12.0493 13.7105 10 13.7105V14.7105C12.6016 14.7105 14.7105 12.6016 14.7105 10H13.7105ZM10 13.7105C7.95073 13.7105 6.28947 12.0493 6.28947 10H5.28947C5.28947 12.6016 7.39845 14.7105 10 14.7105V13.7105ZM6.28947 10C6.28947 7.95073 7.95073 6.28947 10 6.28947V5.28947C7.39845 5.28947 5.28947 7.39845 5.28947 10H6.28947ZM10 6.28947C12.0493 6.28947 13.7105 7.95073 13.7105 10H14.7105C14.7105 7.39845 12.6016 5.28947 10 5.28947V6.28947ZM15.5843 13.8014L17.0428 14.6435L17.5428 13.7775L16.0843 12.9354L15.5843 13.8014ZM6.19605 15.5848L5.35616 17.0433L6.22275 17.5424L7.06264 16.0838L6.19605 15.5848ZM13.8014 4.4146L14.6434 2.95732L13.7776 2.457L12.9355 3.91428L13.8014 4.4146ZM4.41459 6.19865L2.9573 5.35656L2.45697 6.2224L3.91427 7.06449L4.41459 6.19865ZM12.9354 16.0843L13.7775 17.5428L14.6436 17.0428L13.8015 15.5843L12.9354 16.0843ZM3.91426 12.9355L2.45701 13.7776L2.95734 14.6434L4.4146 13.8013L3.91426 12.9355ZM16.0837 7.06261L17.5424 6.22279L17.0434 5.35617L15.5848 6.19599L16.0837 7.06261ZM7.06265 3.91622L6.2228 2.45766L5.35619 2.95666L6.19605 4.41522L7.06265 3.91622ZM7.6 10.5H8.4V9.5H7.6V10.5ZM8.4 10.5H10V9.5H8.4V10.5ZM10 10.5H11.6V9.5H10V10.5ZM11.6 10.5H12.4V9.5H11.6V10.5ZM8.9 8.4C8.9 8.34668 8.92011 8.25557 8.96577 8.19215C8.98497 8.16548 9.0068 8.14601 9.03423 8.13186C9.06127 8.11791 9.11138 8.1 9.2 8.1V7.1C8.71704 7.1 8.36693 7.31243 8.15423 7.60785C7.95989 7.87777 7.9 8.18666 7.9 8.4H8.9ZM10.8 8.1C10.9125 8.1 10.9636 8.12669 10.9852 8.14103C11.0098 8.15745 11.0324 8.18292 11.0528 8.22361C11.0741 8.26625 11.0873 8.31495 11.0943 8.3572C11.0976 8.37714 11.0991 8.39267 11.0997 8.40125C11.1 8.40546 11.1001 8.40771 11.1001 8.40767C11.1001 8.40765 11.1001 8.40703 11.1 8.40577C11.1 8.40514 11.1 8.40435 11.1 8.40339C11.1 8.40291 11.1 8.40239 11.1 8.40182C11.1 8.40154 11.1 8.40125 11.1 8.40094C11.1 8.40079 11.1 8.40056 11.1 8.40048C11.1 8.40024 11.1 8.4 11.6 8.4C12.1 8.4 12.1 8.39975 12.1 8.3995C12.1 8.39941 12.1 8.39916 12.1 8.39898C12.1 8.39863 12.1 8.39826 12.1 8.39789C12.1 8.39713 12.1 8.39632 12.1 8.39545C12.1 8.39372 12.0999 8.39179 12.0999 8.38964C12.0998 8.38536 12.0997 8.38024 12.0995 8.37436C12.0991 8.3626 12.0984 8.34767 12.0972 8.33C12.0947 8.29483 12.0899 8.24786 12.0807 8.1928C12.0627 8.08505 12.0259 7.93375 11.9472 7.77639C11.8676 7.61708 11.7402 7.44255 11.5399 7.30897C11.3364 7.17331 11.0875 7.1 10.8 7.1V8.1ZM7.9 8.4V8.8H8.9V8.4H7.9ZM7.9 8.8V10H8.9V8.8H7.9ZM8.7 11.6V12H9.7V11.6H8.7ZM7.95279 10.2236L8.55279 11.4236L9.44721 10.9764L8.84721 9.77639L7.95279 10.2236ZM8.55279 11.4236L8.75279 11.8236L9.64721 11.3764L9.44721 10.9764L8.55279 11.4236ZM10.3 11.2V11.6H11.3V11.2H10.3ZM10.3 11.6V12H11.3V11.6H10.3ZM11.2472 11.8236L11.4472 11.4236L10.5528 10.9764L10.3528 11.3764L11.2472 11.8236ZM11.4472 11.4236L12.0472 10.2236L11.1528 9.77639L10.5528 10.9764L11.4472 11.4236ZM12.1 10V8.8H11.1V10H12.1ZM12.1 8.8V8.4H11.1V8.8H12.1ZM8.04645 8.75355L8.44645 9.15355L9.15355 8.44645L8.75355 8.04645L8.04645 8.75355ZM8.44645 9.15355L9.64645 10.3536L10.3536 9.64645L9.15355 8.44645L8.44645 9.15355ZM10.3536 10.3536L11.5536 9.15355L10.8464 8.44645L9.64645 9.64645L10.3536 10.3536ZM11.5536 9.15355L11.9536 8.75355L11.2464 8.04645L10.8464 8.44645L11.5536 9.15355ZM10.8 10.3H9.2V11.3H10.8V10.3ZM7.6 9.3H8.4V8.3H7.6V9.3ZM8.4 9.3H8.8V8.3H8.4V9.3ZM8.8 9.3H11.2V8.3H8.8V9.3ZM11.2 9.3H11.6V8.3H11.2V9.3ZM11.6 9.3H12.4V8.3H11.6V9.3ZM7.6 11.7H9V10.7H7.6V11.7ZM9 11.7H9.2V10.7H9V11.7ZM9.2 11.7H10.8V10.7H9.2V11.7ZM10.8 11.7H11V10.7H10.8V11.7ZM11 11.7H12.4V10.7H11V11.7ZM8.7 10.8V11.2H9.7V10.8H8.7ZM8.7 11.2V11.6H9.7V11.2H8.7Z" fill="black"/>
</svg>
