<svg width="20" height="20" viewBox="0 0 20 20" fill="none" xmlns="http://www.w3.org/2000/svg">
<path d="M11.8333 18.3334V16.6667H8.16663V18.3334H11.8333Z" stroke="black" stroke-width="1.25" stroke-linecap="round" stroke-linejoin="round"/>
<path d="M9.08337 14.5833V16.6666M10.8334 16.6666V14.5833" stroke="black" stroke-width="1.25" stroke-linecap="round" stroke-linejoin="round"/>
<rect x="1.66669" y="12.5" width="16.6667" height="2.08664" stroke="black" stroke-width="1.25" stroke-linecap="round" stroke-linejoin="round"/>
<path d="M9.08331 12.5V2.5M10.9166 12.5V2.5M12.75 7.91667V12.5M7.24998 7.91667V12.5M14.5833 9.16667V12.5M5.41665 9.16667L5.41665 12.5M16.4166 10V12.5M3.58331 10L3.58331 12.5" stroke="black" stroke-width="1.25" stroke-linecap="round" stroke-linejoin="round"/>
<path d="M10.9167 3.33331H9.08337M9.08337 5.41665H10.9167M10.9167 7.91665H9.08337M9.08337 9.99998H10.9167" stroke="black" stroke-width="1.25" stroke-linecap="round" stroke-linejoin="round"/>
<path d="M1.66669 12.5L1.66671 10C5.33337 10 9.08335 6.66667 9.08335 5M18.3333 12.5V10C14.6667 10 10.9167 6.66667 10.9167 5" stroke="black" stroke-width="1.25" stroke-linecap="round" stroke-linejoin="round"/>
</svg>
