<svg width="20" height="20" viewBox="0 0 20 20" fill="none" xmlns="http://www.w3.org/2000/svg">
<path d="M5 12.5124C5 10.3646 6.04489 9.3031 8.13468 9.3031H11.6667C13.7564 9.3031 14.8013 10.3646 14.8013 12.5124" stroke="black" stroke-width="1.25" stroke-linecap="square" stroke-linejoin="round"/>
<path d="M8.75 17.9166V16.2037H11.25V17.8941" stroke="black" stroke-width="1.25" stroke-linecap="round" stroke-linejoin="round"/>
<path d="M5.83331 17.9167V14.4909C6.18161 13.775 7.49222 12.5247 9.99996 12.5247C12.5077 12.5247 13.8183 13.775 14.1666 14.4909V17.9167" stroke="black" stroke-width="1.25" stroke-linecap="round" stroke-linejoin="round"/>
<path d="M10 1.66669V2.50002" stroke="black" stroke-width="1.25" stroke-linecap="round" stroke-linejoin="round"/>
<path d="M8.33331 7.5V12.5" stroke="black" stroke-width="1.25" stroke-linecap="square" stroke-linejoin="round"/>
<path d="M11.6667 7.5V12.5" stroke="black" stroke-width="1.25" stroke-linecap="square" stroke-linejoin="round"/>
<path d="M5.83331 9.16667V6.66667C5.83331 4.36548 7.69879 2.5 9.99998 2.5C12.3012 2.5 14.1666 4.36548 14.1666 6.66667V9.16667" stroke="black" stroke-width="1.25" stroke-linecap="round" stroke-linejoin="round"/>
<path d="M17.5 17.9167V12.5C17.5 10.6591 16.0076 9.16669 14.1667 9.16669H5.83333C3.99238 9.16669 2.5 10.6591 2.5 12.5V17.9167" stroke="black" stroke-width="1.25" stroke-linecap="round" stroke-linejoin="round"/>
<path d="M5.83331 7.08331H14.1666" stroke="black" stroke-width="1.25" stroke-linecap="round" stroke-linejoin="round"/>
<path d="M1.66669 17.9167H18.3334" stroke="black" stroke-width="1.25" stroke-linecap="round" stroke-linejoin="round"/>
<path d="M1.66669 12.5123H18.3334" stroke="black" stroke-width="1.25" stroke-linecap="round" stroke-linejoin="round"/>
</svg>
