<svg width="20" height="20" viewBox="0 0 20 20" fill="none" xmlns="http://www.w3.org/2000/svg">
<path d="M9.2 13.0987C9.54518 13.0987 9.825 12.8188 9.825 12.4737C9.825 12.1285 9.54518 11.8487 9.2 11.8487V13.0987ZM10.8 11.8487C10.4549 11.8487 10.175 12.1285 10.175 12.4737C10.175 12.8188 10.4549 13.0987 10.8 13.0987V11.8487ZM18 12.4737L18.625 12.4737V12.4736L18 12.4737ZM8.23999 16.421V15.796C7.89481 15.796 7.61499 16.0759 7.61499 16.421H8.23999ZM11.76 16.421H12.385C12.385 16.0759 12.1052 15.796 11.76 15.796V16.421ZM11.76 18V18.625C12.1052 18.625 12.385 18.3452 12.385 18H11.76ZM8.23999 18H7.61499C7.61499 18.3452 7.89481 18.625 8.23999 18.625V18ZM9.745 14.4473C9.745 14.1022 9.46517 13.8223 9.12 13.8223C8.77482 13.8223 8.495 14.1022 8.495 14.4473H9.745ZM9.12 16.421H8.495C8.495 16.7662 8.77482 17.046 9.12 17.046V16.421ZM10.8 16.421V17.046C11.1452 17.046 11.425 16.7662 11.425 16.421H10.8ZM11.425 14.4473C11.425 14.1022 11.1452 13.8223 10.8 13.8223C10.4548 13.8223 10.175 14.1022 10.175 14.4473H11.425ZM9.12 12.4737H8.495C8.495 12.8189 8.77482 13.0987 9.12 13.0987V12.4737ZM10.88 12.4737V13.0987C11.2252 13.0987 11.505 12.8189 11.505 12.4737H10.88ZM9.12 3.78946L8.495 3.78944V3.78946H9.12ZM2.07996 9.48029C1.73478 9.48029 1.45496 9.76011 1.45496 10.1053C1.45496 10.4505 1.73478 10.7303 2.07996 10.7303V9.48029ZM9.74496 5.36845C9.74496 5.02327 9.46513 4.74345 9.11996 4.74345C8.77478 4.74345 8.49496 5.02327 8.49496 5.36845H9.74496ZM11.505 5.36845C11.505 5.02327 11.2252 4.74345 10.88 4.74345C10.5348 4.74345 10.255 5.02327 10.255 5.36845H11.505ZM17.92 10.7303C18.2652 10.7303 18.545 10.4505 18.545 10.1053C18.545 9.76011 18.2652 9.48029 17.92 9.48029V10.7303ZM13.265 8.13159C13.265 7.78641 12.9852 7.50659 12.64 7.50659C12.2948 7.50659 12.015 7.78641 12.015 8.13159H13.265ZM12.015 12.4737C12.015 12.8189 12.2948 13.0987 12.64 13.0987C12.9852 13.0987 13.265 12.8189 13.265 12.4737H12.015ZM7.98499 8.13159C7.98499 7.78641 7.70516 7.50659 7.35999 7.50659C7.01481 7.50659 6.73499 7.78641 6.73499 8.13159H7.98499ZM6.73499 12.4737C6.73499 12.8189 7.01481 13.0987 7.35999 13.0987C7.70516 13.0987 7.98499 12.8189 7.98499 12.4737H6.73499ZM15.025 9.31581C15.025 8.97064 14.7452 8.69081 14.4 8.69081C14.0548 8.69081 13.775 8.97064 13.775 9.31581H15.025ZM13.775 12.4737C13.775 12.8189 14.0548 13.0987 14.4 13.0987C14.7452 13.0987 15.025 12.8189 15.025 12.4737H13.775ZM6.22498 9.31581C6.22498 8.97064 5.94515 8.69081 5.59998 8.69081C5.2548 8.69081 4.97498 8.97064 4.97498 9.31581H6.22498ZM4.97498 12.4737C4.97498 12.8189 5.2548 13.0987 5.59998 13.0987C5.94515 13.0987 6.22498 12.8189 6.22498 12.4737H4.97498ZM16.7849 10.1053C16.7849 9.7601 16.5051 9.48028 16.1599 9.48028C15.8147 9.48028 15.5349 9.7601 15.5349 10.1053H16.7849ZM15.5349 12.4737C15.5349 12.8189 15.8147 13.0987 16.1599 13.0987C16.5051 13.0987 16.7849 12.8189 16.7849 12.4737H15.5349ZM2.625 10.1053C2.625 9.7601 2.34518 9.48028 2 9.48028C1.65482 9.48028 1.375 9.7601 1.375 10.1053H2.625ZM18.625 10.1053C18.625 9.76008 18.3452 9.48027 18 9.48028C17.6548 9.48028 17.375 9.76011 17.375 10.1053L18.625 10.1053ZM4.46509 10.1053C4.46509 9.7601 4.18527 9.48028 3.84009 9.48028C3.49491 9.48028 3.21509 9.7601 3.21509 10.1053H4.46509ZM3.21509 12.4737C3.21509 12.8189 3.49491 13.0987 3.84009 13.0987C4.18527 13.0987 4.46509 12.8189 4.46509 12.4737H3.21509ZM9.74502 3.00002C9.74503 2.65484 9.46522 2.37501 9.12004 2.375C8.77486 2.37499 8.49503 2.6548 8.49502 2.99998L9.74502 3.00002ZM11.505 3.00002C11.505 2.65484 11.2252 2.37501 10.88 2.375C10.5349 2.37499 10.255 2.6548 10.255 2.99998L11.505 3.00002ZM9.12 5.13815C8.77482 5.13815 8.495 5.41797 8.495 5.76315C8.495 6.10832 8.77482 6.38815 9.12 6.38815V5.13815ZM10.88 5.76315H11.505V5.13815H10.88V5.76315ZM10.88 8.13157V8.75657H11.505V8.13157H10.88ZM9.12 8.13157V7.50657H8.495V8.13157H9.12ZM9.12 10.1053H8.495V10.7303H9.12V10.1053ZM10.88 10.1053H11.505V9.48025H10.88V10.1053ZM18 14.4473V15.0723C18.3452 15.0723 18.625 14.7925 18.625 14.4474L18 14.4473ZM2 14.4473H1.375C1.375 14.7925 1.65482 15.0723 2 15.0723V14.4473ZM2 13.0987H9.2V11.8487H2V13.0987ZM10.8 13.0987H18V11.8487H10.8V13.0987ZM8.23999 17.046H11.76V15.796H8.23999V17.046ZM11.135 16.421V18H12.385V16.421H11.135ZM11.76 17.375H8.23999V18.625H11.76V17.375ZM8.86499 18V16.421H7.61499V18H8.86499ZM8.495 14.4473V16.421H9.745V14.4473H8.495ZM9.12 17.046H10.8V15.796H9.12V17.046ZM11.425 16.421V14.4473H10.175V16.421H11.425ZM9.12 13.0987H10.88V11.8487H9.12V13.0987ZM11.505 12.4737V3.78946H10.255V12.4737H11.505ZM10.88 3.16446H9.12V4.41446H10.88V3.16446ZM8.495 3.78946V12.4737H9.745V3.78946H8.495ZM2.07996 10.7303C4.01529 10.7303 5.90377 9.86903 7.29419 8.82955C7.99365 8.30663 8.58942 7.72235 9.01661 7.14748C9.42813 6.5937 9.74496 5.96573 9.74496 5.36845H8.49496C8.49496 5.56063 8.37178 5.91951 8.0133 6.40191C7.6705 6.86322 7.16627 7.36447 6.54572 7.8284C5.29614 8.76259 3.66462 9.48029 2.07996 9.48029V10.7303ZM10.255 5.36845C10.255 5.96573 10.5718 6.5937 10.9834 7.14748C11.4105 7.72235 12.0063 8.30663 12.7058 8.82955C14.0962 9.86903 15.9847 10.7303 17.92 10.7303V9.48029C16.3353 9.48029 14.7038 8.76259 13.4542 7.8284C12.8337 7.36447 12.3295 6.86322 11.9867 6.40191C11.6282 5.91951 11.505 5.56063 11.505 5.36845H10.255ZM12.015 8.13159V12.4737H13.265V8.13159H12.015ZM6.73499 8.13159V12.4737H7.98499V8.13159H6.73499ZM13.775 9.31581V12.4737H15.025V9.31581H13.775ZM4.97498 9.31581L4.97498 12.4737H6.22498V9.31581H4.97498ZM15.5349 10.1053V12.4737H16.7849V10.1053H15.5349ZM1.375 10.1053V12.4737H2.625V10.1053H1.375ZM17.375 10.1053L17.375 12.4737L18.625 12.4736L18.625 10.1053L17.375 10.1053ZM3.21509 10.1053L3.21509 12.4737H4.46509L4.46509 10.1053H3.21509ZM9.745 3.78948L9.74502 3.00002L8.49502 2.99998L8.495 3.78944L9.745 3.78948ZM10.255 2.99998L10.255 3.78944L11.505 3.78948L11.505 3.00002L10.255 2.99998ZM9.12 6.38815H10.88V5.13815H9.12V6.38815ZM10.255 5.76315V8.13157H11.505V5.76315H10.255ZM10.88 7.50657H9.12V8.75657H10.88V7.50657ZM8.495 8.13157V10.1053H9.745V8.13157H8.495ZM9.12 10.7303H10.88V9.48025H9.12V10.7303ZM10.255 10.1053V12.4737H11.505V10.1053H10.255ZM18 13.8223H2V15.0723H18V13.8223ZM2.625 14.4473V12.4737H1.375V14.4473H2.625ZM2 13.0987H18V11.8487H2V13.0987ZM17.375 12.4736L17.375 14.4473L18.625 14.4474L18.625 12.4737L17.375 12.4736Z" fill="black"/>
</svg>
