<svg width="20" height="20" viewBox="0 0 20 20" fill="none" xmlns="http://www.w3.org/2000/svg">
<path d="M5.98765 7.21916H5.36265H5.98765ZM10.625 1.95002C10.6251 1.60484 10.3452 1.32502 10.0001 1.32501C9.65488 1.32501 9.37505 1.60483 9.37505 1.95L10.625 1.95002ZM17.0217 17.5283V18.1533C17.3669 18.1533 17.6467 17.8735 17.6467 17.5283H17.0217ZM2.97837 17.5283H2.35337C2.35337 17.8735 2.63319 18.1533 2.97837 18.1533V17.5283ZM6.00005 14.2613L5.43803 13.9878C5.3438 14.1815 5.35595 14.4101 5.47018 14.5927C5.58442 14.7753 5.78464 14.8863 6.00005 14.8863V14.2613ZM14 14.2613V14.8863C14.2155 14.8863 14.4157 14.7753 14.5299 14.5927C14.6442 14.4101 14.6563 14.1815 14.5621 13.9878L14 14.2613ZM4.57505 12.3737C4.57505 12.7189 4.85487 12.9987 5.20005 12.9987C5.54523 12.9987 5.82505 12.7189 5.82505 12.3737H4.57505ZM8.20934 9.90597C8.55452 9.90597 8.83434 9.62615 8.83434 9.28097C8.83434 8.93579 8.55452 8.65597 8.20934 8.65597V9.90597ZM11.6 8.65597C11.2549 8.65597 10.975 8.93579 10.975 9.28097C10.975 9.62615 11.2549 9.90597 11.6 9.90597V8.65597ZM13.9843 12.3737C13.9843 12.7189 14.2641 12.9987 14.6093 12.9987C14.9545 12.9987 15.2343 12.7189 15.2343 12.3737H13.9843ZM9.02505 9.79645C9.02505 9.45127 8.74523 9.17145 8.40005 9.17145C8.05487 9.17145 7.77505 9.45127 7.77505 9.79645H9.02505ZM7.77505 11.8583C7.77505 12.2035 8.05487 12.4833 8.40005 12.4833C8.74523 12.4833 9.02505 12.2035 9.02505 11.8583H7.77505ZM12.225 9.79645C12.225 9.45127 11.9452 9.17145 11.6 9.17145C11.2549 9.17145 10.975 9.45127 10.975 9.79645H12.225ZM10.975 11.8583C10.975 12.2035 11.2549 12.4833 11.6 12.4833C11.9452 12.4833 12.225 12.2035 12.225 11.8583H10.975ZM12.225 7.61887V6.99387H10.975V7.61887H12.225ZM10.975 8.91707V9.54207H12.225V8.91707H10.975ZM9.025 7.57556V6.95056H7.775V7.57556H9.025ZM7.775 8.87376V9.49876H9.025V8.87376H7.775ZM8.8 15.9056V15.2806C8.45482 15.2806 8.175 15.5605 8.175 15.9056H8.8ZM8.8 17.55H8.175C8.175 17.7168 8.24162 17.8766 8.36006 17.994C8.47849 18.1113 8.63891 18.1765 8.80564 18.175L8.8 17.55ZM11.2 17.5284L11.2056 18.1533C11.5486 18.1503 11.825 17.8714 11.825 17.5284H11.2ZM11.2 15.9056H11.825C11.825 15.5605 11.5452 15.2806 11.2 15.2806V15.9056ZM2 11.7106C1.65482 11.7106 1.375 11.9904 1.375 12.3356C1.375 12.6808 1.65482 12.9606 2 12.9606V11.7106ZM18 12.9606C18.3452 12.9606 18.625 12.6808 18.625 12.3356C18.625 11.9904 18.3452 11.7106 18 11.7106V12.9606ZM2 16.925C1.65482 16.925 1.375 17.2048 1.375 17.55C1.375 17.8952 1.65482 18.175 2 18.175V16.925ZM18 18.175C18.3452 18.175 18.625 17.8952 18.625 17.55C18.625 17.2048 18.3452 16.925 18 16.925V18.175ZM6.625 14.35C6.625 14.0049 6.34518 13.725 6 13.725C5.65482 13.725 5.375 14.0049 5.375 14.35H6.625ZM6 17.55H5.375C5.375 17.8952 5.65482 18.175 6 18.175V17.55ZM14 17.55V18.175C14.3452 18.175 14.625 17.8952 14.625 17.55H14ZM14.625 14.35C14.625 14.0049 14.3452 13.725 14 13.725C13.6548 13.725 13.375 14.0049 13.375 14.35H14.625ZM14.6374 7.21916C14.6374 5.96516 14.1529 4.7592 13.2852 3.86742L12.3893 4.73913C13.0265 5.39403 13.3874 6.28581 13.3874 7.21916H14.6374ZM13.2852 3.86742C12.4169 2.97505 11.2355 2.47047 10 2.47047V3.72047C10.8928 3.72047 11.7526 4.08481 12.3893 4.73913L13.2852 3.86742ZM10 2.47047C8.76452 2.47047 7.58318 2.97505 6.7149 3.86741L7.61079 4.73913C8.24745 4.08481 9.10725 3.72047 10 3.72047V2.47047ZM6.7149 3.86741C5.84719 4.7592 5.36265 5.96516 5.36265 7.21916H6.61265C6.61265 6.28581 6.97357 5.39402 7.61079 4.73913L6.7149 3.86741ZM5.36265 7.21916V9.28104H6.61265V7.21916H5.36265ZM5.98765 9.90604H14.0124V8.65604H5.98765V9.90604ZM14.6374 9.28104V7.21916H13.3874V9.28104H14.6374ZM14.0124 6.59416L5.98765 6.59416V7.84416L14.0124 7.84416V6.59416ZM10.625 3.09548L10.625 1.95002L9.37505 1.95L9.37503 3.09546L10.625 3.09548ZM2.97837 12.9987H17.0217V11.7487H2.97837V12.9987ZM16.3967 12.3737V17.5283H17.6467V12.3737H16.3967ZM17.0217 16.9033H2.97837V18.1533H17.0217V16.9033ZM3.60337 17.5283V12.3737H2.35337V17.5283H3.60337ZM6.00005 14.8863H14V13.6363H6.00005V14.8863ZM14.5621 13.9878C14.1113 13.0613 12.6185 11.7487 10 11.7487V12.9987C12.1965 12.9987 13.2201 14.0867 13.438 14.5347L14.5621 13.9878ZM10 11.7487C7.38158 11.7487 5.88881 13.0613 5.43803 13.9878L6.56207 14.5347C6.78002 14.0867 7.80362 12.9987 10 12.9987V11.7487ZM3.60337 12.3737C3.60337 11.4349 3.83186 10.8464 4.17863 10.4901C4.52231 10.1369 5.08529 9.90604 5.98765 9.90604V8.65604C4.88381 8.65604 3.94215 8.94066 3.28275 9.61834C2.62642 10.2929 2.35337 11.2507 2.35337 12.3737H3.60337ZM5.82505 12.3737C5.82505 11.4349 6.05354 10.8464 6.40032 10.49C6.74401 10.1368 7.30699 9.90597 8.20934 9.90597V8.65597C7.1055 8.65597 6.16383 8.94061 5.50443 9.6183C4.84811 10.2928 4.57505 11.2507 4.57505 12.3737H5.82505ZM14.0124 9.90604C14.9148 9.90604 15.4778 10.1369 15.8215 10.4901C16.1682 10.8464 16.3967 11.4349 16.3967 12.3737H17.6467C17.6467 11.2507 17.3737 10.2928 16.7173 9.61834C16.0579 8.94066 15.1163 8.65604 14.0124 8.65604V9.90604ZM11.6 9.90597C12.5024 9.90597 13.0654 10.1368 13.4091 10.49C13.7558 10.8464 13.9843 11.4349 13.9843 12.3737H15.2343C15.2343 11.2507 14.9613 10.2928 14.3049 9.6183C13.6455 8.94061 12.7039 8.65597 11.6 8.65597V9.90597ZM7.77505 9.79645V11.8583H9.02505V9.79645H7.77505ZM10.975 9.79645V11.8583H12.225V9.79645H10.975ZM10.975 7.61887V8.91707H12.225V7.61887H10.975ZM7.775 7.57556V8.87376H9.025V7.57556H7.775ZM8.175 15.9056V17.55H9.425V15.9056H8.175ZM8.80564 18.175L11.2056 18.1533L11.1944 16.9034L8.79436 16.925L8.80564 18.175ZM11.825 17.5284V15.9056H10.575V17.5284H11.825ZM2 12.9606H18V11.7106H2V12.9606ZM2 18.175H18V16.925H2V18.175ZM5.375 14.35V17.55H6.625V14.35H5.375ZM6 18.175H14V16.925H6V18.175ZM14.625 17.55V14.35H13.375V17.55H14.625ZM11.2 15.2806H8.8V16.5306H11.2V15.2806Z" fill="black"/>
</svg>
