<svg width="20" height="20" viewBox="0 0 20 20" fill="none" xmlns="http://www.w3.org/2000/svg">
<rect width="20" height="20" fill="white"/>
<path d="M10.5862 2C10.5862 2 2.80809 2.6007 2.80809 6.2007C2.80809 9.86081 10.0081 8.4 10.0081 12.6007C10.0081 15.9656 2 16 2 16M18 3.2C18 3.2 10.4 2.79999 10.4 6.39999C10.4 10.0601 18 10 18 14C18 17.3649 10 18 10 18M14 8.4V5.2H18V8.4M16 6.8V8M2 14V10.8H6V14M4 12.4V13.6" stroke="black" stroke-width="1.25" stroke-linecap="round" stroke-linejoin="round"/>
</svg>
