<svg width="20" height="20" viewBox="0 0 20 20" fill="none" xmlns="http://www.w3.org/2000/svg">
<path d="M2 7.03072L6 3L10 7.03072M2 7.03072L10 7.03072M2 7.03072V18H10V7.03072M2 11H5.2M5.2 11H10M5.2 11V18M2 16.5H5V15M5 15H3.5M5 15L10 15M3.5 15H2M3.5 15V12.5M3.5 8.5V9.5M10 6.03072L14 2L18 6.03072M10 6.03072L18 6.03072M10 6.03072V17H18V6.03072M10 10H13.2M13.2 10H18M13.2 10V17M10 15.5H13V14M13 14H11.5M13 14L18 14M11.5 14H10M11.5 14V11.5M11.5 7.5V8.5M4.5 5H7.5V7H4.5V5ZM6.83333 12.5H8.5V13.396H6.83333V12.5ZM5.5 8.5V9.5H8.5V8.5H5.5ZM12.5 4H15.5V6H12.5V4ZM14.8333 11.5H16.5V12.396H14.8333V11.5ZM13.5 7.5V8.5H16.5V7.5H13.5Z" stroke="black" stroke-linecap="round" stroke-linejoin="round"/>
</svg>
