<svg width="20" height="20" viewBox="0 0 20 20" fill="none" xmlns="http://www.w3.org/2000/svg">
<path d="M2 18H18M2.8 17.6V10M2.8 10L6.8 8.8M2.8 10V8L6.8 6.8H13.2L17.2 8V10M6.8 8.8H13.2M6.8 8.8V18H13.2L13.2 8.8M6.8 8.8L6.8 4.4M17.2 17.6V10M17.2 10L13.2 8.8M13.2 8.8V4.4M2.8 8.4V5.9L6.8 4.4M6.8 4.4H13.2M13.2 4.4L17.2 5.9V8.4M4.4 5.2C4.8 4.13333 6.48 2 10 2C13.52 2 15.2 4.13333 15.6 5.2M15.2 11.6V18M4.8 11.6V18M2.8 6V5.2M17.2 6V5.2M8.4 14.8H6.8M11.6 14.8H13.2M17.2 12.4H18M2.8 12.4H2M8.4 11.6C8.4 11.0667 8.72 10 10 10C11.28 10 11.6 11.0667 11.6 11.6V18H8.4V11.6Z" stroke="black" stroke-width="1.25" stroke-linecap="round" stroke-linejoin="round"/>
</svg>
