<svg width="20" height="20" viewBox="0 0 20 20" fill="none" xmlns="http://www.w3.org/2000/svg">
<path d="M13 14V18H10C10.125 17.3333 10 16 11.5 16V14M9.6 17C6 17 3.2 15.5108 3.2 10.2308C2.8 10.2308 2 9.432 2 7.32C2 7.32 3.33333 6.94205 4 8.11538C4.13333 7.82205 4.72 7.32 6 7.32C6.4 8.64 5.2 10.2308 4.8 10.2308C4.8 10.9246 5.2 12.7692 8.4 12.7692C11.6 12.7692 11.2 6 14 6C16 6 16.4 7.17334 16.4 7.76H18C18 10.4 16.16 10.4 15.2 10.4C16.4 13.04 15.76 17 13.2 17M13 17H18C18 16.3333 17.5455 15 15.7273 15M14.5 7.5V8" stroke="black" stroke-width="1.25" stroke-linecap="round" stroke-linejoin="round"/>
</svg>
