<svg width="20" height="20" viewBox="0 0 20 20" fill="none" xmlns="http://www.w3.org/2000/svg">
<path d="M2.21625 18H17.7838M11.7298 5.02703H13.0271M11.7298 5.02703V2M11.7298 5.02703L10.0001 5.45946M11.7298 5.02703V6.75676L10.8649 8.48649M6.97303 5.02703H8.27033M8.27033 5.02703V2M8.27033 5.02703L10.0001 5.45946M8.27033 5.02703V6.75676L9.13519 8.48649M7.40546 14.5405L6.5406 17.5676M7.40546 14.5405H10.0001M7.40546 14.5405L10.0001 15.4054M7.40546 14.5405L9.13519 8.48649M12.5947 14.5405L13.4595 17.5676M12.5947 14.5405H10.0001M12.5947 14.5405L10.0001 15.4054M12.5947 14.5405L10.8649 8.48649M10.0001 14.5405V8.48649M10.0001 14.5405V15.4054M10.0001 15.4054V18M9.13519 8.48649H10.0001M10.8649 8.48649H10.0001M10.0001 5.45946V8.48649M10.0001 5.45946V3.72973M8.27028 11.5135H11.7297L10 12.3783L8.27028 11.5135Z" stroke="black" stroke-width="1.25" stroke-linecap="round"/>
</svg>
