<svg width="20" height="20" viewBox="0 0 20 20" fill="none" xmlns="http://www.w3.org/2000/svg">
<path d="M5.21127 7.01408C3.87324 6.88027 2 7.17463 2 9.42252C2 12.2324 7.61972 11.0282 7.61972 13.4366C7.61972 14.7302 6.57753 15.6764 5.61268 16.2752M5.21127 7.01408C5.21127 7.01408 7.21838 3 10.0282 3C12.8381 3 14.8451 7.01408 14.8451 7.01408M5.21127 7.01408C5.21127 7.01408 1.59866 10.6268 10.0282 10.6268C18.4578 10.6268 14.8451 7.01408 14.8451 7.01408M14.8451 7.01408C16.1831 6.88027 18.0563 7.17463 18.0563 9.42252C18.0563 12.2324 12.4366 11.0282 12.4366 13.4366C12.4366 14.4793 13.5904 15.5699 14.4437 16.2465M16.9503 18C16.9503 18 14.0661 15.0422 10.0281 15.0422C5.99013 15.0422 3.10583 18 3.10583 18" stroke="black" stroke-width="1.25" stroke-linecap="round" stroke-linejoin="round"/>
</svg>
