<svg xmlns="http://www.w3.org/2000/svg" fill="none" viewBox="0 0 20 20" stroke-width="1.25" stroke="currentColor" aria-hidden="true" data-slot="icon">
  <path stroke-linecap="round" stroke-linejoin="round" d="M9.507 9.2c.598.933 2.154 2.8 3.59 2.8 1.435 0 3.14-1.733 3.589-2.4V6.8s-1.556 2.4-2.692 2.4c-.577 0-1.26-.992-1.795-1.6m0 0c-.52-.591-.897-1.2-.897-1.2m.897 1.2c.3-.658.36-1.2 1.795-1.2 1.346 0 2.243-.8 2.243-1.6 0-.963-1.346-.4-1.346-1.2 0-.478-1.346-.8-1.346-.8-.477-.194-.984-.693-1.346-.8v1.2c-1.196.133-4.53.743-6.498 3.2C3.458 9.2 2.226 11 2.674 13c.36 1.6 2.044 1.4 2.044 1.4L4.124 18h4.939a2.28 2.28 0 0 0-.153-.546M17.583 2v16M9.29 12.4c.183 1.92-1.655 3.067-2.329 3.6.772 0 1.739.948 1.95 1.454m.38-5.054c.614.72.936 2.71.81 3.6.9 0 2.069.97 2.102 1.454H8.91m.38-5.054c.558-1.073.812-2.4.812-2.4"/>
</svg>
