<svg xmlns="http://www.w3.org/2000/svg" fill="none" viewBox="0 0 20 20" stroke-width="1.25" stroke="currentColor" aria-hidden="true" data-slot="icon">
  <path stroke-linecap="round" stroke-linejoin="round" d="M15.222 17.6c-.778 0-3.5-1.6-2.333-6.4 1.32-5.435-2.333-7.6-4.667-7.6 0 0-1.166-1.6-2.333-1.6v2L2 8.8c.157.68.298 1.106.778 1.6.48.494.878.749 1.555.8 1.093.082 2.334-1.6 2.334-1.6.367 0 .884-.105 1.368-.4M5.11 17.6c-.389-.933-.778-3.2.778-4.8 1.654-1.701 2.146-2.4 2.146-3.6m0 0c.711-.433 1.354-1.277 1.354-2.8m-1.945-4c2.723-1.2 10.89.8 5.834 13.6m-4.18-1.6c-1.167.8-1.167 2.8 0 3.6M3.555 9.2l.388-.4m11.278-3.2h-.778m1.167 1.6h-.778M16 8.8h-.778M16 10.4h-1.167m.778 1.6h-.778m.39 1.6h-.779m0-9.6h-.777m-.39-1.6h-2.333m1.945 8h-1.167M12.5 12h-1.556M7.056 6.4c0 .4 0 .4-.39.4-.388 0-.388 0-.388-.4s0-.4.389-.4.389 0 .389.4Z"/>
</svg>
