<svg xmlns="http://www.w3.org/2000/svg" fill="none" viewBox="0 0 20 20" stroke-width="1.25" stroke="currentColor" aria-hidden="true" data-slot="icon">
  <path stroke-linecap="round" stroke-linejoin="round" d="M6.8 8.4h6.4M2 14.8h16M2 8.4h16M18 6v12H2V6m13.6 2.4V6.8M4.4 8.4V6.8M3.6 10v.8m0 1.6v.8M5.2 10v.8m0 1.6v.8M8.4 10v.8m0 1.6v.8M10 10v.8m1.6-.8v.8M10 12.4v.8m1.6-.8v.8m3.2-3.2v.8m0 1.6v.8m1.6-3.2v.8m0 1.6v.8M6.8 18h6.4V5.2S13.2 2 10 2 6.8 5.2 6.8 5.2V18Zm1.6 0v-1.6h3.2V18H8.4Z"/>
  <mask id="a" fill="#fff">
    <path d="M12 5a2 2 0 1 1-4 0 2 2 0 0 1 4 0Z"/>
  </mask>
  <path fill="#000" d="M10.375 4.333a.375.375 0 0 0-.75 0h.75ZM10 5h-.375c0 .1.04.195.11.265L10 5Zm.068.598a.375.375 0 1 0 .53-.53l-.53.53ZM10 4.333h-.375V5h.75v-.667H10ZM10 5l-.265.265.333.333.265-.265.265-.265-.333-.333L10 5Zm2 0h-.75c0 .69-.56 1.25-1.25 1.25v1.5A2.75 2.75 0 0 0 12.75 5H12Zm-2 2v-.75c-.69 0-1.25-.56-1.25-1.25h-1.5A2.75 2.75 0 0 0 10 7.75V7ZM8 5h.75c0-.69.56-1.25 1.25-1.25v-1.5A2.75 2.75 0 0 0 7.25 5H8Zm2-2v.75c.69 0 1.25.56 1.25 1.25h1.5A2.75 2.75 0 0 0 10 2.25V3Z" mask="url(#a)"/>
</svg>
