<svg xmlns="http://www.w3.org/2000/svg" fill="none" viewBox="0 0 20 20" stroke-width="1.25" stroke="currentColor" aria-hidden="true" data-slot="icon">
  <path d="M5.304 10.429C5.93 12.13 7.746 16 10 16c2.254 0 4.07-3.869 4.696-5.571M6.243 8.57C6.399 6.714 7.183 3 8.12 3c.94 0 .94.929 1.879.929.94 0 .94-.929 1.879-.929.751 0 1.565 3.714 1.878 5.571-.626.31-2.254.929-3.757.929-1.503 0-3.131-.619-3.757-.929ZM10 7.18c-2.806 0-6.105-2.786-7.514-1.393-1.41 1.393 0 5.571 7.514 5.571s8.923-4.178 7.514-5.571C16.105 4.393 12.806 7.179 10 7.179Z"/>
</svg>
