<svg xmlns="http://www.w3.org/2000/svg" fill="none" viewBox="0 0 20 20" stroke-width="1.25" stroke="currentColor" aria-hidden="true" data-slot="icon">
  <path stroke-linecap="round" stroke-linejoin="round" d="M8.899 8.316H10.5l2.083-2.105m0 0L13 11.263m-.417-5.052 3.334.842 1.25-2.948M13 11.263l-2.083 2.105L12.583 18M13 11.263l1.667 3.369L18 15.895M8.417 2l.416 2.947-3.028 1.264m0 0L3 9.158l.417 2.526m2.388-5.473.528 4.631m0 0-.416 3.79L3.417 18m2.916-7.158 2.5 2.947L8.417 18M6.75 3.684c0 1.163-.516 1.684-1.667 1.684-1.15 0-1.666-.521-1.666-1.684C3.417 2.522 3.933 2 5.083 2s1.667.522 1.667 1.684Zm7.5 0c0 1.163-.516 1.684-1.667 1.684-1.15 0-1.666-.521-1.666-1.684 0-1.162.516-1.684 1.666-1.684s1.667.522 1.667 1.684Z"/>
</svg>
