<svg xmlns="http://www.w3.org/2000/svg" fill="none" viewBox="0 0 20 20" stroke-width="1.25" stroke="currentColor" aria-hidden="true" data-slot="icon">
  <path stroke-linecap="round" stroke-linejoin="round" d="M10.445 7.895c.563-.14 1.689 0 1.689 1.684h1.688V4.526c0-.42-.422-.842-.844-.842s-.844.421-.844.842V5.79c0 .843-1.69.843-1.69 0m3.103 3.79c.373.28 1.12 1.179 1.12 2.526m-1.12-2.526H9.6m3.947 0h3.231c0 1.263 0 2.526-2.111 2.526m0 0c1.126.842 2.972 2.931 2.111 3.79-.384.383-.77.767-2.111-.123M9.6 9.58c0 1.684.845 2.105 2.111 2.105M9.601 9.58H5.8V18h3.683c1.164 0 .9-1.615 1.198-2.796m0 0c.104-.414.278-.775.607-.994 1.014-.673 2.258.742 2.956 1.264.15.112.29.211.422.298m-3.985-.568c.294.792 1.08 1.533 1.874 1.533.793 0 1.738-.362 2.111-.965M8.333 9.58c0-.421.17-2.105-.844-2.105h-3.8C2.844 7.474 2 7.053 2 6.21V2.842c0-.42.422-.842.844-.842.423 0 .845.421.845.842v2.105c0 .421.422.842.844.842.423 0 .845-.42.845-.842V3.263c0-.42.422-.842.844-.842.423 0 .845.421.845.842v1.684c0 .421.422.842.844.842s.845-.42.845-.842v-.842c0-.42.422-.842.844-.842s.845.421.845.842V9.58H8.333Z"/>
</svg>
