<svg xmlns="http://www.w3.org/2000/svg" fill="none" viewBox="0 0 20 20" stroke-width="1.25" stroke="currentColor" aria-hidden="true" data-slot="icon">
  <path fill="#000" d="M5.563 8.893c.141-.612-.257-1.218-.89-1.354-.634-.136-1.262.249-1.403.86-.14.612.258 1.218.891 1.354.633.137 1.261-.249 1.402-.86ZM14.654 17.649a.991.991 0 0 0-.626-1.279c-.538-.186-1.131.084-1.324.604a.991.991 0 0 0 .626 1.279c.538.186 1.13-.084 1.324-.604ZM4.071 18c0-.552-.464-1-1.036-1C2.464 17 2 17.448 2 18s.464 1 1.035 1c.572 0 1.036-.448 1.036-1ZM8.213 18c0-.552-.464-1-1.036-1-.571 0-1.035.448-1.035 1s.464 1 1.035 1c.572 0 1.036-.448 1.036-1ZM13.588 9.09c-.148-.534-.716-.85-1.268-.707-.553.143-.88.69-.733 1.224.148.534.716.85 1.269.707.552-.143.88-.69.732-1.224ZM17.589 8.054c-.148-.533-.716-.85-1.269-.707-.552.143-.88.692-.732 1.225.148.534.716.85 1.268.707.553-.143.88-.691.733-1.225Z"/>
  <path stroke-linecap="round" stroke-linejoin="round" d="M5.563 8.893c.141-.612-.257-1.218-.89-1.354-.634-.136-1.262.249-1.403.86-.14.612.258 1.218.891 1.354.633.137 1.261-.249 1.402-.86Zm0 0L7.097 2.25l1.781 2.708m5.776 12.69a.991.991 0 0 0-.626-1.278c-.538-.186-1.131.084-1.324.604a.991.991 0 0 0 .626 1.279c.538.186 1.13-.084 1.324-.604Zm0 0L16.749 12 18 14.557M4.071 18c0-.552-.464-1-1.036-1C2.464 17 2 17.448 2 18s.464 1 1.035 1c.572 0 1.036-.448 1.036-1Zm0 0 1.035-6h4.142l-1.035 6m0 0c0-.552-.464-1-1.036-1-.571 0-1.035.448-1.035 1s.464 1 1.035 1c.572 0 1.036-.448 1.036-1Zm5.375-8.91c-.148-.534-.716-.85-1.268-.707-.553.143-.88.69-.733 1.224.148.534.716.85 1.269.707.552-.143.88-.69.732-1.224Zm0 0-.608-6.055 4-1.035.609 6.054m0 0c-.148-.533-.716-.85-1.269-.707-.552.143-.88.692-.732 1.225.148.534.716.85 1.268.707.553-.143.88-.691.733-1.225Z"/>
</svg>
