<svg xmlns="http://www.w3.org/2000/svg" fill="none" viewBox="0 0 20 20" stroke-width="1.25" stroke="currentColor" aria-hidden="true" data-slot="icon">
  <path stroke-linecap="round" stroke-linejoin="round" d="M18 15.7v2.4H2v-2.4h16Zm0 0c-.667-.933-2.96-2.8-6.8-2.8-4 0-6.667 1.867-7.6 2.8m14.4 0v-2.8l-14-8m0 10.8v2.4m2-2.4v2.4m2-2.4v2.4m2-2.4v2.4m2-2.4v2.4m2-2.4v2.4m2-2.4v2.4M4 4.9c-.8.4-.8 2.8 0 3.2l8 4.8m-8-8c-.267-.8-.48-2.4.8-2.4l6 3.6c0 .267.16.88.8 1.2.64.32 3.733 2.267 5.2 3.2l.8 2m-14-4.4c-.267.4-.56 1.36.4 2 .96.64 3.333 2.28 4.4 3.02M4 10.5v4.8"/>
</svg>
