<svg xmlns="http://www.w3.org/2000/svg" fill="none" viewBox="0 0 20 20" stroke-width="1.25" stroke="currentColor" aria-hidden="true" data-slot="icon">
  <path stroke-linecap="round" stroke-linejoin="round" d="M11.508 10.768v.465m1.73 0v.466m1.728-.466v.466m1.729-.466v.466m-4.322 1.861v-.465m1.729.465v-.465M5.024 5.649c-.864.931-.864 2.327 0 3.723m7.348-1.396c.576 0 1.901.186 2.593.93M2.864 10.608A4.819 4.819 0 0 1 2 9.837c1.729-1.396.54-2.792.864-3.722C3.902 3.136 6.466 3.943 7.62 4.719c1.728-.931 4.322 1.396 6.915 1.861 2.593.465 4.322 2.327 3.025 4.188-3.89.93-7.347-.93-8.644-.93-.62 0-1.042.319-1.55.652m-4.5.117c.5.337 1.196.627 2.16.627 1.128 0 1.785-.38 2.34-.744m-4.5.117c0 1.45.518 4.35 2.593 4.35 1.728 0 2.593-.466 5.186.465 3.89 1.396 5.186 0 5.186-1.396-.432.31-1.729.744-3.457 0-2.79-1.202-4.831-3.349-5.009-3.536m-.61-4.375c.432 0 2.593.93 2.593 1.396 0 .465-2.16 1.396-2.593 1.396-.432 0-.432-2.792 0-2.792Z"/>
</svg>
