<svg xmlns="http://www.w3.org/2000/svg" fill="none" viewBox="0 0 20 20" stroke-width="1.25" stroke="currentColor" aria-hidden="true" data-slot="icon">
  <path stroke-linecap="round" stroke-linejoin="round" d="M5.2 17H18M5.2 17H2.8m2.4 0V7.921H2.8V17M2 17h.8m2.4-7.5h9.6m-9.6 5.921h9.6m-12-9.079V4.368h4C7.067 3.578 8.08 2 10 2c1.92 0 2.933 1.579 3.2 2.368h4v1.974M6 15.422v-3.159c0-.526.32-1.579 1.6-1.579s1.6 1.053 1.6 1.58v3.157m1.6 0v-3.158c0-.526.32-1.579 1.6-1.579s1.6 1.053 1.6 1.58v3.157M17.2 17V7.921h-2.4V17h2.4ZM14 7.921V6.342h4v1.58h-4Zm-12 0V6.342h4v1.58H2Zm8-3.947c1.2 0 2 .79 2 1.973 0 1.185-.8 1.974-2 1.974s-2-.79-2-1.974.8-1.973 2-1.973Z"/>
</svg>
