<svg xmlns="http://www.w3.org/2000/svg" fill="none" viewBox="0 0 20 20" stroke-width="1.5" stroke="currentColor" aria-hidden="true" data-slot="icon">
  <path stroke-linecap="round" stroke-linejoin="round" d="M5.833 16.25h-3.75v-4.583h15.834v4.583h-4.584m-6.25 2.083c.556-.138 1.25-.75 1.25-2.083 0-1.333.834-1.944 1.25-2.083m0 4.166c.556-.138 1.25-.75 1.25-2.083 0-1.333.834-1.944 1.25-2.083M8.333 11.667h-5l.417-7.084h4.167l.416 7.084Zm0 0h8.75V6.25l-4.166 2.083V6.25L8.333 8.333M6.667 4.583c0-.833 1.083-1.333 3.75-1.666 2.083-.26 2.5-1.25 2.5-1.25M4.583 4.583c0-.833.167-1.541 1.25-2.083 1.084-.542 2.084-.833 2.084-.833"/>
</svg>
