<svg xmlns="http://www.w3.org/2000/svg" fill="none" viewBox="0 0 20 20" stroke-width="1.5" stroke="currentColor" aria-hidden="true" data-slot="icon">
  <circle cx="16.458" cy="16.263" r=".625" fill="#000"/>
  <circle cx=".625" cy=".625" r=".625" fill="#000" transform="matrix(-1 0 0 1 4.583 15.638)"/>
  <circle cx="14.792" cy="14.597" r=".625" fill="#000"/>
  <circle cx=".625" cy=".625" r=".625" fill="#000" transform="matrix(-1 0 0 1 6.25 13.972)"/>
  <path stroke-linecap="round" stroke-linejoin="round" d="M2.083 2.083s.55.417 1.667.417c1.667 0 1.813-.368 2.917 0 1.103.368 1.615 1.81 1.615 1.81m3.538.082c.833-.417 2.43-1.809 6.097-1.475m-10 6.666V5c0-.46.373-.833.833-.833h2.5c.46 0 .833.373.833.833v5.183c0 .542.514.96 1.042.834.662-.158 1.496-.398 2.292-.795.833-.417 1.25.416 2.5.416m-10 5.612v-4.778c-.14.139-.834.416-2.5.416m2.5 4.362c-1.25-.417-1.945.833-2.084 1.25m2.084-1.25c.416-.833 1.666-.833 2.083-.417.556-.416 1.667-.416 2.083.417m0-2.917v2.917m0 0c.834 0 1.75.25 2.084 1.25M10 6.25v1.667M10 10v3.333m-7.917.222c.556-.556 1.667-1.667 3.334-1.667m0 0C4.167 10.222 4.167 9.583 2.083 10m15.834 8.06H2.083"/>
</svg>
