<svg xmlns="http://www.w3.org/2000/svg" fill="none" viewBox="0 0 20 20" stroke-width="1.5" stroke="currentColor" aria-hidden="true" data-slot="icon">
  <path stroke-linecap="round" stroke-linejoin="round" d="M15.639 16.25c.349-.864.024-1.7-.639-2.083C8.667 10.5 7.083 7.917 5 5c-.542-.758-1.445-1.026-2.304-.538M15.639 16.25c-.056.139-.13.278-.222.417-.667 1-1.822.67-2.5.416C10.694 16.25 5.75 13.5 2.083 7.5c-.29-.474-.833-2.083.417-2.917.066-.044.131-.084.196-.12M15.639 16.25c.62.139 1.843.054 2.278-1.25.63-1.892-.382-2.487-.417-2.5a4.072 4.072 0 0 1-.11-.042M2.696 4.462c-.204-.376-.363-1.295.637-1.962s2.417-.625 2.917 0l.336.417m0 0c.444-.377 1.37-.794 2.164 0C10 4.167 13.333 8.333 16.667 10c.482.25 1.301 1.091.723 2.458M6.586 2.917c5.06 6.216 9.218 8.911 10.804 9.541"/>
  <path stroke-dasharray=".3 2" stroke-linecap="round" stroke-linejoin="round" d="M16.025 13.618c-.12-.25-.198-.747-.747-1.12-.88-.599-1.282-.066-1.866-.599-.683-.62-.646-1.093-1.328-1.714-.682-.62-1.448-.367-2.033-.9-.682-.62-.404-1.318-1.086-1.939-.682-.62-1.326-.54-1.77-1.195-.504-.747-.195-1.246-.877-1.867-.305-.278-.669-.395-1.03-.488"/>
</svg>
