<svg xmlns="http://www.w3.org/2000/svg" fill="none" viewBox="0 0 20 20" stroke-width="1.5" stroke="currentColor" aria-hidden="true" data-slot="icon">
  <path stroke-linecap="round" stroke-linejoin="round" d="m11.25 5.417-9.167 7.916L11.25 10c1.25-.417 2.917-2.917 0-4.583Zm0 0c.833-.834 2.083-2.084 4.167-.834.555.278 1.666.417 2.916 1.667-.555 0-2.083 0-2.916.417C15 10 12.777 11.7 11.667 12.134m-3.334.366-3.75 3.75h-2.5l4.167-4.062 2.083.312Zm0 0c.44.055.856.073 1.25.06m2.084-.426c0 .677.25 2.2 1.25 2.866m-1.25-2.866c-.612.246-1.304.399-2.084.426m0 0c.278.535 1 1.773 1.667 2.44m-1.667 0h4.584"/>
</svg>
