<svg xmlns="http://www.w3.org/2000/svg" fill="none" viewBox="0 0 20 20" stroke-width="1.25" stroke="currentColor" aria-hidden="true" data-slot="icon">
  <path stroke-linecap="round" stroke-linejoin="round" d="M2.083 17.917C2.64 17.935 4 17.675 5 16.487c1.163-1.384 1.966-.399 3.75-.758m9.167 2.188c-2.084-.834-.834-.834-2.5-1.667-1.27-.635-1.089-.666-1.667-.92m0 0c-.18-.08-.436-.181-.833-.33-1.04-.39-1.431-.293-2.084-.014m2.917.344c.556-.249 1.667-.997 1.667-1.997.694-.416 1.666-1.666 0-3.333.123-.557.17-1.362-.052-2.083m-3.282-5.834c1.334 1 .556 2.084 0 2.5.667.334.834 1.25.834 1.667 1.478 0 2.171.769 2.448 1.667m0 0c.85-.14 2.468-.834 2.135-2.5.434-.695.958-2.334-.417-3.334M8.75 15.73c.133-.027.272-.061.417-.105.784-.235 1.273-.47 1.666-.638m-2.083.743c-.417-.382-1.083-1.479-.417-2.812a1.641 1.641 0 0 1-.862-1.25c-.546.277-1.804.55-2.471-.784M6.02 10c-.48.694-1.77 1.75-3.103.417-1.334-1.334-.556-2.778 0-3.334a2.967 2.967 0 0 1-.417-.257m-.417-2.243c-.26.78-.109 1.858.417 2.243m0 0c.417-.192 1.25-.743 1.25-1.41 1.25 0 1.866-1.25 1.667-2.083m-.834 4.584c.834.416 2.917.416 3.334-1.25.833.16 2.314-1.667 1.25-2.917m.186 5.884a2.69 2.69 0 0 1 1.667-.07m1.48 1.32c-.378-.772-.928-1.156-1.48-1.32m0 0c.153-.393.664-1.18 1.48-1.18m2.917-2.967c.277-.535.5-1.82-.834-2.678m-3.75 12.247c-.392-.55-.803-1.82 0-2.486"/>
  <path fill="#000" d="M4.167 12.917a.625.625 0 1 1-1.25 0 .625.625 0 0 1 1.25 0ZM6.667 13.75a.625.625 0 1 1-1.25 0 .625.625 0 0 1 1.25 0ZM18.75 13.125a.625.625 0 1 1-1.25 0 .625.625 0 0 1 1.25 0ZM17.917 9.167a.625.625 0 1 1-1.25 0 .625.625 0 0 1 1.25 0Z"/>
</svg>
