<svg xmlns="http://www.w3.org/2000/svg" fill="none" viewBox="0 0 20 20" stroke-width="1.25" stroke="currentColor" aria-hidden="true" data-slot="icon">
  <path stroke-linecap="round" stroke-linejoin="round" d="M17.5 15c-1.64 0-2.11-1.25-3.75-1.25-1.64 0-2.344 1.25-3.75 1.25-1.64 0-2.11-1.25-3.75-1.25C4.61 13.75 3.906 15 2.5 15m15 2.5c-1.64 0-2.11-1.25-3.75-1.25-1.64 0-2.344 1.25-3.75 1.25-1.64 0-2.11-1.25-3.75-1.25-1.64 0-2.344 1.25-3.75 1.25M11.25 12.917s-.113-1.175.417-2.5c1-2.5 4.166-.834 6.25-7.084-2.5 1.667-4.584-.416-7.917 2.5C7.083 3.333 5 5 2.5 2.5c.139 1.667 1.25 5 5.417 7.083 1.054.527.416 2.084 0 2.917"/>
</svg>
