<svg xmlns="http://www.w3.org/2000/svg" fill="none" viewBox="0 0 20 20" stroke-width="1.5" stroke="currentColor" aria-hidden="true" data-slot="icon">
  <path stroke-linecap="round" stroke-linejoin="round" d="M17.917 2.5h-3.283c-.566 0-1.109.225-1.509.625m-.625 3.62V4.634c0-.566.225-1.109.625-1.509m-.625 3.62a1.667 1.667 0 0 0-.505-.078H8.421c-.172 0-.342.026-.504.078m4.583 0c.148.047.29.115.42.202l.088.058c.464.31.742.83.742 1.387v3.359m-.625-8.626H7.292M2.5 2.5h3.283c.566 0 1.108.225 1.509.625m.625 3.62V4.634c0-.566-.225-1.109-.625-1.509m.625 3.62c-.148.047-.29.115-.42.202l-.088.058c-.464.31-.742.83-.742 1.387v3.359m0 0a1.795 1.795 0 0 0-1.25 1.709v4.04m1.25-5.75c.174-.055.357-.083.542-.083h5.998c.185 0 .368.028.543.084m0 0A1.797 1.797 0 0 1 15 13.46v4.04m-9.583 0H2.083m3.334 0H15m0 0h2.917M9.583 6.667V5M8.75 6.667V8.75m0 1.667v1.25m2.917 0V8.75M7.5 11.667v2.916m0 1.667v1.25m5.417-3.333V17.5m-2.084-5.833v2.5"/>
</svg>
