<svg xmlns="http://www.w3.org/2000/svg" fill="none" viewBox="0 0 20 20" stroke-width="1.25" stroke="currentColor" aria-hidden="true" data-slot="icon">
  <path stroke-linecap="round" stroke-linejoin="round" d="M10 4.167c-1.17 0-2.258.344-3.17.936M10 4.167c.678 0 1.33.115 1.935.328M10 4.167c0 1.747-.324 3.248-.809 4.518M5 2.5l1.83 2.603m9.003 12.814-2.3-3.275M2.083 5.834l2.785 1.392m13.049 6.525-2.618-1.309M4.869 7.225c-.21.386-.376.799-.495 1.231m.495-1.23A5.827 5.827 0 0 1 6.25 5.531m.58-.43a5.856 5.856 0 0 0-.58.43m7.283 9.11A5.811 5.811 0 0 1 10 15.832c-.493.001-.973-.06-1.43-.175m4.963-1.014c.272-.208.526-.44.757-.69m1.01-1.512a5.843 5.843 0 0 1-1.01 1.511m1.01-1.51a5.783 5.783 0 0 0 .474-1.609M5.532 13.75c.372.444.81.83 1.297 1.147M5.532 13.75A5.808 5.808 0 0 1 4.167 10c0-.535.072-1.052.206-1.544m1.159 5.294c.489-.402 1.21-1.06 1.93-1.991m-.633 3.138a5.803 5.803 0 0 0 1.74.76m-1.74-.76c1.702-1.366 5.106-5.358 5.106-10.402m0 0a5.82 5.82 0 0 1 1.598.863M8.57 15.657c.577-.601 1.367-1.295 2.147-2.24m2.816-8.06a5.824 5.824 0 0 1 2.241 5.476m-2.241-5.475c-.064 2.01-.43 3.617-.95 4.928m-8.21-1.83a12.52 12.52 0 0 0 3.089 3.303m6.828 2.194c-1.331 0-2.52-.203-3.573-.536M6.25 5.532c.399.818 1.36 2.068 2.941 3.153m6.583 2.148a14.062 14.062 0 0 1-3.192-.547m-3.39-1.601a11.925 11.925 0 0 1-.7 1.508 12.19 12.19 0 0 1-1.03 1.566m5.12-1.473c-.22.553-.467 1.053-.73 1.508a11.913 11.913 0 0 1-1.135 1.623"/>
  <circle cx="5.208" cy="2.708" r="1.042" fill="#000"/>
  <path fill="#000" d="M2.917 5.833a1.042 1.042 0 1 1-2.084 0 1.042 1.042 0 0 1 2.084 0Z"/>
</svg>
