<svg xmlns="http://www.w3.org/2000/svg" fill="none" viewBox="0 0 20 20" stroke-width="1.5" stroke="currentColor" aria-hidden="true" data-slot="icon">
  <path stroke-linecap="round" stroke-linejoin="round" d="M17.5 15c-1.64 0-2.11-1.25-3.75-1.25-1.64 0-2.344 1.25-3.75 1.25-1.64 0-2.11-1.25-3.75-1.25C4.61 13.75 3.906 15 2.5 15m15 2.5c-1.64 0-2.11-1.25-3.75-1.25-1.64 0-2.344 1.25-3.75 1.25-1.64 0-2.11-1.25-3.75-1.25-1.64 0-2.344 1.25-3.75 1.25M12.5 3.75s-2.083 4.14-1.667 7.057c.404-.045.99-.052 1.667.026m0-7.083s.833 3.75 0 7.083m0-7.083c.417-.833-.417-1.871-2.5-1.276-2.917.833-5.417 5-6.667 10.416m9.167-2.057c1.417.164 3.23 1.12 4.583 2.474m-7.5-8.333c-.416-.417-2.916 2.5-2.5 4.583.517 2.584 3.334-4.583 2.5-4.583Z"/>
</svg>
