<svg xmlns="http://www.w3.org/2000/svg" fill="none" viewBox="0 0 20 20" stroke-width="1.5" stroke="currentColor" aria-hidden="true" data-slot="icon">
  <path fill="#000" d="M2.083 17.917h-.625c0 .345.28.625.625.625v-.625Zm0-1.667-.171-.601a.625.625 0 0 0-.454.601h.625Zm6.25-8.75-.585-.22a.625.625 0 0 0-.04.22h.625Zm9.584 10.417v.625c.345 0 .625-.28.625-.625h-.625Zm0-1.667h.625a.625.625 0 0 0-.454-.601l-.171.601Zm-6.25-8.75h.625a.625.625 0 0 0-.04-.22l-.585.22Zm-1.042-5.833a.625.625 0 1 0-1.25 0h1.25Zm-1.875.625a.625.625 0 1 0 0 1.25v-1.25Zm2.5 1.25a.625.625 0 1 0 0-1.25v1.25ZM4.167 15.313l-.332-.53.332.53Zm9.583-1.659.472-.41-.472.41ZM2.708 17.917V16.25h-1.25v1.667h1.25Zm15.834 0V16.25h-1.25v1.667h1.25ZM8.333 7.5l.586.22v-.002l.003-.007a16.553 16.553 0 0 1 .05-.13 39.082 39.082 0 0 1 .611-1.497c.18-.411.365-.805.525-1.09.082-.145.145-.24.186-.29.021-.026.02-.02-.003-.003-.012.01-.117.09-.291.09v-1.25a.771.771 0 0 0-.466.166 1.26 1.26 0 0 0-.21.209c-.108.132-.21.298-.305.465-.191.34-.397.78-.581 1.202a36.53 36.53 0 0 0-.675 1.658l-.01.029-.004.008v.002l.584.22ZM10 4.792c-.175 0-.28-.082-.291-.09-.023-.018-.024-.024-.003.002.041.05.104.145.185.29.16.285.346.679.526 1.09a35.181 35.181 0 0 1 .612 1.497l.04.103a3.479 3.479 0 0 1 .012.035l.586-.219.585-.22-.001-.002a1.26 1.26 0 0 0-1.785-3.57.771.771 0 0 0-.466-.166v1.25Zm.625-.625v-1.25h-1.25v1.25h1.25Zm0-1.25v-1.25h-1.25v1.25h1.25Zm-1.875.625H10v-1.25H8.75v1.25Zm1.25 0h1.25v-1.25H10v1.25ZM7.708 7.5v10.417h1.25V7.5h-1.25Zm.625 11.042h3.334v-1.25H8.333v1.25ZM11.042 7.5v10.417h1.25V7.5h-1.25ZM2.083 18.542h2.084v-1.25H2.083v1.25Zm.172-1.691a8.84 8.84 0 0 0 2.243-1.008l-.663-1.06a7.596 7.596 0 0 1-1.923.866l.343 1.202Zm2.537 1.066v-2.604h-1.25v2.604h1.25Zm-.625.625H6.25v-1.25H4.167v1.25Zm2.083 0h2.083v-1.25H6.25v1.25Zm-1.752-2.699c.8-.5 1.566-1.147 2.231-1.941l-.958-.803a8.195 8.195 0 0 1-1.936 1.684l.663 1.06Zm2.231-1.941c1.318-1.574 2.23-3.716 2.23-6.402h-1.25c0 2.386-.804 4.245-1.938 5.6l.958.802Zm.146 4.015V13.5h-1.25v4.417h1.25Zm8.958.625h2.084v-1.25h-2.084v1.25Zm2.255-2.893a8.54 8.54 0 0 1-1.94-.823l-.629 1.08a9.796 9.796 0 0 0 2.226.945l.343-1.202Zm-1.63 2.268v-2.55h-1.25v2.55h1.25Zm-4.791.625h2.083v-1.25h-2.083v1.25Zm2.083 0h2.083v-1.25H13.75v1.25Zm2.397-3.716a7.608 7.608 0 0 1-1.925-1.582l-.944.82a8.858 8.858 0 0 0 2.241 1.843l.628-1.081Zm-1.925-1.582c-1.12-1.288-1.93-3.137-1.93-5.744h-1.25c0 2.888.905 5.033 2.236 6.564l.944-.82Zm.153 4.673v-4.263h-1.25v4.263h1.25Z"/>
</svg>
