<svg xmlns="http://www.w3.org/2000/svg" fill="none" viewBox="0 0 20 20" stroke-width="1.25" stroke="currentColor" aria-hidden="true" data-slot="icon">
  <path stroke-linecap="round" stroke-linejoin="round" d="M17.917 17.917h-4.584l-1.293-1.941.386-.614a1.666 1.666 0 0 1 1.41-.779h1.074c.574 0 1.108.296 1.413.784l1.594 2.55Z"/>
  <path stroke-linecap="round" stroke-linejoin="round" d="m4.675 14.03-2.592 3.887h11.25l-2.59-3.887a2.5 2.5 0 0 0-2.081-1.113H6.755a2.5 2.5 0 0 0-2.08 1.113Z"/>
  <path stroke-linecap="round" d="M2.083 4.167h6.25c.92 0 1.667.653 1.667 1.458 0 .805-.746 1.458-1.667 1.458-.92 0-1.666.653-1.666 1.459 0 .805.746 1.458 1.666 1.458h9.584"/>
  <path stroke-linecap="round" stroke-linejoin="round" d="M6.667 4.167v-1.25m-2.084 1.25V2.083M2.5 4.167v-1.25M9.583 10V8.75M11.667 10V7.083M13.75 10V7.917M15.833 10V6.25M17.917 10V7.917M11.667 5V3.75m2.083 2.083v-1.25m4.167 1.25V4.167"/>
</svg>
