<svg xmlns="http://www.w3.org/2000/svg" fill="none" viewBox="0 0 20 20" stroke-width="1.5" stroke="currentColor" aria-hidden="true" data-slot="icon">
  <path fill="#000" d="M2.083 3.542a.625.625 0 1 0 0 1.25v-1.25ZM17.917 10v.625c.345 0 .625-.28.625-.625h-.625ZM3.125 2.917a.625.625 0 1 0-1.25 0h1.25Zm2.083-.834a.625.625 0 0 0-1.25 0h1.25Zm2.084.834a.625.625 0 1 0-1.25 0h1.25Zm5 4.166a.625.625 0 0 0-1.25 0h1.25ZM11.042 5a.625.625 0 1 0 1.25 0h-1.25Zm1.25-1.25a.625.625 0 0 0-1.25 0h1.25Zm2.083 4.167a.625.625 0 1 0-1.25 0h1.25Zm-1.25-2.084a.625.625 0 1 0 1.25 0h-1.25Zm1.25-1.25a.625.625 0 1 0-1.25 0h1.25Zm2.083 1.667a.625.625 0 1 0-1.25 0h1.25Zm2.084 1.667a.625.625 0 0 0-1.25 0h1.25Zm-1.25-2.084a.625.625 0 1 0 1.25 0h-1.25Zm1.25-1.666a.625.625 0 0 0-1.25 0h1.25ZM10.208 8.75a.625.625 0 1 0-1.25 0h1.25Zm-8.125 9.167-.52-.347a.625.625 0 0 0 .52.972v-.625Zm2.591-3.887-.52-.347.52.347Zm13.243 3.887v.625a.625.625 0 0 0 .53-.957l-.53.332Zm-5.49-2.555.528.333-.529-.333Zm-.387.614-.52.347.52-.347Zm-1.298-1.946-.52.347.52-.347ZM9.375 5.625c0 .384-.385.833-1.042.833v1.25c1.185 0 2.292-.857 2.292-2.083h-1.25Zm-1.042-.833c.657 0 1.042.449 1.042.833h1.25c0-1.226-1.107-2.083-2.292-2.083v1.25Zm-1.041 3.75c0-.385.385-.834 1.041-.834v-1.25c-1.184 0-2.291.857-2.291 2.084h1.25Zm1.041.833c-.656 0-1.041-.449-1.041-.833h-1.25c0 1.226 1.107 2.083 2.291 2.083v-1.25Zm0-5.833H6.667v1.25h1.666v-1.25Zm-1.666 0H4.583v1.25h2.084v-1.25Zm-2.084 0H2.5v1.25h2.083v-1.25Zm-2.083 0h-.417v1.25H2.5v-1.25Zm5.833 7.083h1.25v-1.25h-1.25v1.25Zm1.25 0h2.084v-1.25H9.583v1.25Zm2.084 0h2.083v-1.25h-2.083v1.25Zm2.083 0h2.083v-1.25H13.75v1.25Zm2.083 0h2.084v-1.25h-2.084v1.25ZM3.125 4.167v-1.25h-1.25v1.25h1.25Zm2.083 0V2.083h-1.25v2.084h1.25Zm2.084 0v-1.25h-1.25v1.25h1.25Zm5 5.833V7.083h-1.25V10h1.25Zm0-5V3.75h-1.25V5h1.25Zm2.083 5V7.917h-1.25V10h1.25Zm0-4.167v-1.25h-1.25v1.25h1.25ZM16.458 10V6.25h-1.25V10h1.25Zm2.084 0V7.917h-1.25V10h1.25Zm0-4.167V4.167h-1.25v1.666h1.25ZM10.208 10V8.75h-1.25V10h1.25Zm-7.605 8.263 2.592-3.886-1.04-.694-2.592 3.887 1.04.693Zm4.152-4.721h1.907v-1.25H6.755v1.25Zm-4.672 5h11.25v-1.25H2.083v1.25Zm11.25 0h4.584v-1.25h-4.584v1.25Zm.504-3.334h1.073v-1.25h-1.073v1.25Zm1.956.49 1.594 2.55 1.06-.663-1.594-2.55-1.06.663Zm-3.895-.67-.387.615 1.057.666.387-.614-1.057-.666Zm-1.676-.651 1.298 1.946 1.04-.694-1.298-1.946-1.04.694Zm1.298 1.946 1.293 1.94 1.04-.693-1.293-1.94-1.04.693Zm2.317-2.365c-.788 0-1.52.405-1.94 1.07l1.058.667c.19-.303.524-.487.882-.487v-1.25Zm-5.175-.416c.627 0 1.212.313 1.56.835l1.04-.694a3.125 3.125 0 0 0-2.6-1.391v1.25Zm6.248 1.666c.359 0 .693.185.883.49l1.06-.663a2.292 2.292 0 0 0-1.943-1.077v1.25Zm-9.715-.831a1.875 1.875 0 0 1 1.56-.835v-1.25c-1.045 0-2.021.522-2.6 1.391l1.04.694Z"/>
</svg>
