<svg xmlns="http://www.w3.org/2000/svg" fill="none" viewBox="0 0 20 20" stroke-width="1.25" stroke="currentColor" aria-hidden="true" data-slot="icon">
  <path stroke-linecap="round" stroke-linejoin="round" d="M14.167 7.917c2 4.333-1.111 6.527-2.917 7.083H9m5.167-7.083c.555.139 2.166.083 4.166-1.25m-4.166 1.25c.613-.613.838-1.367.862-2.084m-.862 2.084c-.786 0-1.942 1.11-2.77 3.333m-8.48 2.917c-.979-.834-.834-1.667-.834-1.667.834.417 1.516.306 2.257-.065m-1.423 1.732c.46.458 1.146.833 1.666.833h4.418m-6.084-.833H6.25c1.667 0 4.116.151 5-2.5.048-.143.097-.282.147-.417m6.936-4.583c-.277-.834-1.416-2.584-3.75-2.917m3.75 2.917a14.247 14.247 0 0 0-1.778-.585c-.747-.19-1.283-.249-1.526-.249m-.446-2.083c.225.45.475 1.241.446 2.083m-.446-2.083C13.333 2.5 10.417 2.672 10.417 5c0 1.333.416 1.667-.417 2.5-1.25.972-3.583 3.167-4.583 4.167a4.132 4.132 0 0 1-1.077.768m0 0c1.985.16 5.841.148 7.057-1.185M9 15v2.349c.61.19 2.166.484 3.499.151"/>
  <path fill="#000" d="M13.958 5.208a.625.625 0 1 1-1.25 0 .625.625 0 0 1 1.25 0Z"/>
  <path stroke-linecap="round" stroke-linejoin="round" d="M13.333 5.417c-.277.139-1.833.416-2.5.416"/>
</svg>
