<svg xmlns="http://www.w3.org/2000/svg" fill="none" viewBox="0 0 20 20" stroke-width="1.25" stroke="currentColor" aria-hidden="true" data-slot="icon">
  <path stroke-linecap="round" stroke-linejoin="round" d="M2 17.2c.889 1.067 1.778 1.067 2.667 0 .889 1.067 1.777 1.067 2.666 0 .89 1.067 1.778 1.067 2.667 0 .889 1.067 1.778 1.067 2.667 0 .889 1.067 1.777 1.067 2.666 0 .89 1.067 1.778 1.067 2.667 0M2.8 12.4V9.2h9.6v3.2m3.2.8V6.8m0 0h-3.2m3.2 0 .8-1.6h-4.8l.8 1.6m0 0v6.4m0-8V3.6h3.2v1.6M14 3.6V2M4 9.2v-2m0 0h6.8M4 7.2l3.6-2m3.2 2v2m0-2-3.2-2m0 0v-.8m6.4 4v.8m0 1.6v.8m-3.6-.8h.4m-2.4 0h.4m-2.4 0h.4m-2.4 0h.4m-2.8 4h16l-.8-1.6H7.6c-1.6-1.265-4-1.266-5.6 0v1.6Z"/>
</svg>
