<svg xmlns="http://www.w3.org/2000/svg" fill="none" viewBox="0 0 20 20" stroke-width="1.25" stroke="currentColor" aria-hidden="true" data-slot="icon">
  <path stroke-linecap="round" stroke-linejoin="round" d="M15.6 6.324v1.73M10 3.73V2M4.4 6.324v1.73m2.8-1.73v1.73m5.6-1.73v1.73M14 3.73c.533 0 1.6-.346 1.6-1.73M4.4 2c0 .577.32 1.73 1.6 1.73M3.6 17.568V9.784m4 7.784V9.784m4.8 0v2.594m0 0v5.19m0-5.19h-1.6m1.6 0h4m0-2.594v2.594m0 0v5.19m0-5.19H18m-16 0h7.2M2 18h16M2.8 6.324 5.015 3.73h9.97L17.2 6.324H2.8ZM2 9.784l1.6-1.73h4.8v1.73H2Zm16 0-1.6-1.73h-4.8v1.73H18Z"/>
</svg>
