<svg xmlns="http://www.w3.org/2000/svg" fill="none" viewBox="0 0 20 20" stroke-width="1.25" stroke="currentColor" aria-hidden="true" data-slot="icon">
  <path stroke-linecap="round" stroke-linejoin="round" d="M2.5 15.128h1.23l2.462.82m0 0h8.205m-8.205 0L5.372 18h9.846l-.82-2.051m0 0 2.461-.82h1.23m-13.948 0V4.461h12.308v10.666M2.91 3.231C4.278 2.684 7.013 2 10.295 2s6.017.684 7.385 1.23M6.192 4.463V2.82m8.205 1.64v-1.64M6.603 14.308l1.23-.41-2.051-1.642s1.23-.41 4.513-.41c3.282 0 4.513.41 4.513.41l-2.052 1.641 1.231.41m-3.692-.82v.41m0-.41-.82.41m.82-.41.82.41m-.82 0v.41m0-.41h-.82m.82 0h.82m-.82.41-.82-.41m.82.41.82-.41m-6.564-3.692H16.45M7.833 6.103v4.102h4.923V6.103m-8.205 0h11.487"/>
</svg>
