<svg xmlns="http://www.w3.org/2000/svg" fill="none" viewBox="0 0 20 20" stroke-width="1.25" stroke="currentColor" aria-hidden="true" data-slot="icon">
  <g clip-path="url(#a)">
    <path stroke-linecap="round" stroke-linejoin="round" d="M17.368 10h1.382m-1.382 0A7.368 7.368 0 0 1 10 17.368M17.368 10A7.368 7.368 0 0 0 10 2.632m0 14.736v1.382m0-1.382A7.368 7.368 0 0 1 2.632 10M10 2.632V1.25m0 1.382A7.368 7.368 0 0 0 2.632 10m0 0H1.25m15.131 3.684 1.596.921M6.313 16.381l-.918 1.596m8.29-14.36.92-1.594M3.617 6.316l-1.594-.921M13.684 16.38l.921 1.596M3.617 13.684l-1.594.921m14.358-8.292 1.596-.918M6.313 3.619l-.918-1.596M7.375 10h.875m0 0h1.125M8.25 10V8.688m0 1.312.656 1.313M9.375 10h1.035m-1.035 0L8.53 8.688M9.375 10V8.75L10.41 10m0 0h.84m-.84 0 .465-1.312M11.25 10h.5m-.5 0-.375-1.312M11.25 10l.375-1.312M11.75 10h.875m-.875 0-.656 1.313M11.75 10V8.688m-3.5-.438c0-.292.175-.875.875-.875m-.875.875v.438m0-.438.281.438m2.344-1.313c.875 0 .875.875.875.875m0 0v.438m0-.438-.125.438m-3.375 0h-.875m.875 0h.281m.594 3.062v.438m0-.438-.219-.438m.219.438v-.438m-.219 0H7.375m1.531 0h.219m1.75 0v.438m0-.438h-1.75m1.75 0h.219m-.219.438v.438m0-.438.219-.438m0 0h1.531m-.875-2.624h-.125m.125 0h.875m-4.094 0h2.344m0 2.187h-1.75v.438m1.75-2.625h.75M14.605 10a4.605 4.605 0 1 1-9.21 0 4.605 4.605 0 0 1 9.21 0Z"/>
  </g>
  <defs>
    <clipPath id="a">
      <path fill="#fff" d="M0 0h20v20H0z"/>
    </clipPath>
  </defs>
</svg>
