<svg xmlns="http://www.w3.org/2000/svg" fill="none" viewBox="0 0 20 20" stroke-width="1.25" stroke="currentColor" aria-hidden="true" data-slot="icon">
  <path fill="#000" d="M18 10.5a.5.5 0 0 0 0-1v1ZM9.5 18a.5.5 0 0 0 1 0h-1Zm1-16a.5.5 0 0 0-1 0h1ZM2 9.5a.5.5 0 0 0 0 1v-1Zm14.084 3.435a.5.5 0 0 0-.5.866l.5-.866Zm.959 1.708a.5.5 0 1 0 .5-.866l-.5.867Zm-9.98 1.44a.5.5 0 1 0-.867-.498l.867.499Zm-1.707.96a.5.5 0 0 0 .867.5l-.867-.5Zm7.58-13.129a.5.5 0 0 0 .865.5l-.866-.5Zm1.707-.957a.5.5 0 1 0-.865-.5l.865.5ZM3.914 7.064a.5.5 0 1 0 .5-.865l-.5.865Zm-.957-1.707a.5.5 0 0 0-.5.865l.5-.865Zm10.845 10.227a.5.5 0 0 0-.867.5l.867-.5Zm-.024 1.959a.5.5 0 1 0 .866-.5l-.867.5ZM4.415 13.8a.5.5 0 1 0-.5-.866l.5.866Zm-1.958-.023a.5.5 0 0 0 .5.865l-.5-.865Zm13.128-7.582a.5.5 0 0 0 .499.867l-.5-.867Zm1.957.027a.5.5 0 0 0-.499-.867l.5.867ZM6.196 4.415a.5.5 0 0 0 .867-.499l-.867.5Zm.027-1.957a.5.5 0 0 0-.867.499l.867-.5ZM7.6 9.5a.5.5 0 0 0 0 1v-1Zm4.8 1a.5.5 0 0 0 0-1v1ZM9.2 8.1a.5.5 0 0 0 0-1v1Zm1.6-1a.5.5 0 0 0 0 1v-1Zm.8 1.3h.5-.5ZM8.7 12a.5.5 0 0 0 1 0h-1Zm1.6 0a.5.5 0 0 0 1 0h-1Zm.5-.7a.5.5 0 0 0 0-1v1Zm-1.6-.5v-.5h-.5v.5h.5ZM7.6 8.3a.5.5 0 0 0 0 1v-1Zm4.8 1a.5.5 0 0 0 0-1v1Zm-4.8 1.4a.5.5 0 0 0 0 1v-1Zm4.8 1a.5.5 0 0 0 0-1v1Zm4.337-1.2H18v-1h-1.263v1ZM9.5 16.737V18h1v-1.263h-1Zm1-13.474V2h-1v1.263h1ZM3.263 9.5H2v1h1.263v-1Zm12.974.5A6.237 6.237 0 0 1 10 16.237v1A7.237 7.237 0 0 0 17.237 10h-1ZM10 16.237A6.237 6.237 0 0 1 3.763 10h-1A7.237 7.237 0 0 0 10 17.237v-1ZM3.763 10A6.237 6.237 0 0 1 10 3.763v-1A7.237 7.237 0 0 0 2.763 10h1ZM10 3.763A6.237 6.237 0 0 1 16.237 10h1A7.237 7.237 0 0 0 10 2.763v1ZM13.71 10A3.71 3.71 0 0 1 10 13.71v1A4.71 4.71 0 0 0 14.71 10h-1ZM10 13.71A3.71 3.71 0 0 1 6.29 10h-1A4.71 4.71 0 0 0 10 14.71v-1ZM6.29 10A3.71 3.71 0 0 1 10 6.29v-1A4.71 4.71 0 0 0 5.29 10h1ZM10 6.29A3.71 3.71 0 0 1 13.71 10h1A4.71 4.71 0 0 0 10 5.29v1Zm5.584 7.511 1.459.842.5-.866-1.459-.842-.5.866Zm-9.388 1.784-.84 1.458.867.5.84-1.46-.867-.498Zm7.605-11.17.842-1.458-.865-.5-.843 1.457.866.5ZM4.415 6.199l-1.458-.842-.5.865 1.457.842.5-.865Zm8.52 9.885.842 1.459.867-.5-.842-1.459-.867.5Zm-9.02-3.149-1.458.843.5.865 1.458-.842-.5-.866Zm12.169-5.872 1.458-.84-.499-.867-1.458.84.499.867ZM7.063 3.916l-.84-1.458-.867.499.84 1.458.867-.499ZM7.6 10.5h.8v-1h-.8v1Zm.8 0H10v-1H8.4v1Zm1.6 0h1.6v-1H10v1Zm1.6 0h.8v-1h-.8v1ZM8.9 8.4c0-.053.02-.144.066-.208a.19.19 0 0 1 .068-.06A.356.356 0 0 1 9.2 8.1v-1c-.483 0-.833.212-1.046.508-.194.27-.254.579-.254.792h1Zm1.9-.3c.112 0 .164.027.185.041a.205.205 0 0 1 .068.083.484.484 0 0 1 .047.177v.007V8.4l.5-.001h.5V8.373a1.321 1.321 0 0 0-.02-.181 1.483 1.483 0 0 0-.133-.417 1.202 1.202 0 0 0-.407-.467 1.311 1.311 0 0 0-.74-.209v1Zm-2.9.3v.4h1v-.4h-1Zm0 .4V10h1V8.8h-1Zm.8 2.8v.4h1v-.4h-1Zm-.747-1.376.6 1.2.894-.448-.6-1.2-.894.448Zm.6 1.2.2.4.894-.448-.2-.4-.894.448ZM10.3 11.2v.4h1v-.4h-1Zm0 .4v.4h1v-.4h-1Zm.947.224.2-.4-.894-.448-.2.4.894.448Zm.2-.4.6-1.2-.894-.448-.6 1.2.894.448ZM12.1 10V8.8h-1V10h1Zm0-1.2v-.4h-1v.4h1Zm-4.054-.046.4.4.708-.708-.4-.4-.708.708Zm.4.4 1.2 1.2.708-.708-1.2-1.2-.708.708Zm1.908 1.2 1.2-1.2-.708-.708-1.2 1.2.708.708Zm1.2-1.2.4-.4-.708-.708-.4.4.708.708ZM10.8 10.3H9.2v1h1.6v-1Zm-3.2-1h.8v-1h-.8v1Zm.8 0h.4v-1h-.4v1Zm.4 0h2.4v-1H8.8v1Zm2.4 0h.4v-1h-.4v1Zm.4 0h.8v-1h-.8v1Zm-4 2.4H9v-1H7.6v1Zm1.4 0h.2v-1H9v1Zm.2 0h1.6v-1H9.2v1Zm1.6 0h.2v-1h-.2v1Zm.2 0h1.4v-1H11v1Zm-2.3-.9v.4h1v-.4h-1Zm0 .4v.4h1v-.4h-1Z"/>
</svg>
