<svg xmlns="http://www.w3.org/2000/svg" fill="none" viewBox="0 0 20 20" stroke-width="1.25" stroke="currentColor" aria-hidden="true" data-slot="icon">
  <path fill="#000" d="M5.988 7.22h-.625.625Zm4.637-5.27a.625.625 0 1 0-1.25 0h1.25Zm6.397 15.578v.625c.345 0 .625-.28.625-.625h-.625Zm-14.044 0h-.625c0 .346.28.625.625.625v-.625ZM6 14.261l-.562-.273a.625.625 0 0 0 .562.898v-.625Zm8 0v.625a.625.625 0 0 0 .562-.898L14 14.26Zm-9.425-1.887a.625.625 0 1 0 1.25 0h-1.25ZM8.21 9.906a.625.625 0 1 0 0-1.25v1.25Zm3.391-1.25a.625.625 0 0 0 0 1.25v-1.25Zm2.384 3.718a.625.625 0 1 0 1.25 0h-1.25ZM9.025 9.796a.625.625 0 1 0-1.25 0h1.25Zm-1.25 2.062a.625.625 0 1 0 1.25 0h-1.25Zm4.45-2.062a.625.625 0 1 0-1.25 0h1.25Zm-1.25 2.062a.625.625 0 0 0 1.25 0h-1.25Zm1.25-4.24v-.624h-1.25v.625h1.25Zm-1.25 1.3v.624h1.25v-.625h-1.25Zm-1.95-1.342V6.95h-1.25v.625h1.25Zm-1.25 1.298v.625h1.25v-.625h-1.25ZM8.8 15.906v-.625a.625.625 0 0 0-.625.625H8.8Zm0 1.644h-.625a.625.625 0 0 0 .63.625L8.8 17.55Zm2.4-.022.006.625a.625.625 0 0 0 .619-.625H11.2Zm0-1.622h.625a.625.625 0 0 0-.625-.625v.625ZM2 11.71a.625.625 0 1 0 0 1.25v-1.25Zm16 1.25a.625.625 0 1 0 0-1.25v1.25ZM2 16.925a.625.625 0 1 0 0 1.25v-1.25Zm16 1.25a.625.625 0 1 0 0-1.25v1.25ZM6.625 14.35a.625.625 0 0 0-1.25 0h1.25ZM6 17.55h-.625c0 .345.28.625.625.625v-.625Zm8 0v.625c.345 0 .625-.28.625-.625H14Zm.625-3.2a.625.625 0 0 0-1.25 0h1.25Zm.012-7.13c0-1.255-.484-2.46-1.352-3.353l-.896.872c.638.655.998 1.547.998 2.48h1.25Zm-1.352-3.353A4.583 4.583 0 0 0 10 2.47v1.25c.893 0 1.753.365 2.39 1.02l.895-.873ZM10 2.47a4.583 4.583 0 0 0-3.285 1.397l.896.872A3.333 3.333 0 0 1 10 3.72V2.47ZM6.715 3.867A4.807 4.807 0 0 0 5.363 7.22h1.25c0-.933.36-1.825.998-2.48l-.896-.872ZM5.363 7.22v2.062h1.25V7.219h-1.25Zm.625 2.687h8.024v-1.25H5.988v1.25Zm8.65-.625V7.219h-1.25v2.062h1.25Zm-.626-2.687H5.988v1.25h8.024v-1.25Zm-3.387-3.499V1.95h-1.25v1.145h1.25ZM2.978 13h14.044v-1.25H2.978v1.25Zm13.419-.625v5.154h1.25v-5.154h-1.25Zm.625 4.53H2.978v1.25h14.044v-1.25Zm-13.419.624v-5.154h-1.25v5.154h1.25ZM6 14.886h8v-1.25H6v1.25Zm8.562-.898c-.45-.927-1.944-2.24-4.562-2.24v1.25c2.197 0 3.22 1.089 3.438 1.537l1.124-.547ZM10 11.748c-2.618 0-4.111 1.313-4.562 2.24l1.124.547c.218-.448 1.242-1.536 3.438-1.536v-1.25Zm-6.397.626c0-.94.229-1.528.576-1.884.343-.353.906-.584 1.809-.584v-1.25c-1.104 0-2.046.285-2.705.962-.657.675-.93 1.633-.93 2.756h1.25Zm2.222 0c0-.94.229-1.528.575-1.884.344-.353.907-.584 1.81-.584v-1.25c-1.105 0-2.046.285-2.706.962-.656.675-.929 1.633-.929 2.756h1.25Zm8.187-2.468c.903 0 1.466.23 1.81.584.346.356.575.945.575 1.884h1.25c0-1.123-.273-2.081-.93-2.756-.66-.677-1.6-.962-2.705-.962v1.25Zm-2.412 0c.902 0 1.465.23 1.81.584.346.356.574.945.574 1.884h1.25c0-1.123-.273-2.081-.93-2.756-.659-.677-1.6-.962-2.704-.962v1.25Zm-3.825-.11v2.062h1.25V9.796h-1.25Zm3.2 0v2.062h1.25V9.796h-1.25Zm0-2.177v1.298h1.25V7.62h-1.25Zm-3.2-.043v1.298h1.25V7.576h-1.25Zm.4 8.33v1.644h1.25v-1.644h-1.25Zm.63 2.269 2.4-.022-.01-1.25-2.4.022.01 1.25Zm3.02-.647v-1.622h-1.25v1.622h1.25ZM2 12.961h16v-1.25H2v1.25Zm0 5.214h16v-1.25H2v1.25Zm3.375-3.825v3.2h1.25v-3.2h-1.25ZM6 18.175h8v-1.25H6v1.25Zm8.625-.625v-3.2h-1.25v3.2h1.25ZM11.2 15.28H8.8v1.25h2.4v-1.25Z"/>
</svg>
