<svg xmlns="http://www.w3.org/2000/svg" fill="none" viewBox="0 0 20 20" stroke-width="1.25" stroke="currentColor" aria-hidden="true" data-slot="icon">
  <path stroke-linecap="round" stroke-linejoin="round" d="M11.833 18.333v-1.666H8.167v1.666h3.666ZM9.083 14.583v2.084m1.75 0v-2.084M1.667 12.5h16.667v2.087H1.667zM9.083 12.5v-10m1.834 10v-10m1.833 5.417V12.5m-5.5-4.583V12.5m7.333-3.333V12.5M5.417 9.167V12.5m11-2.5v2.5M3.583 10v2.5M10.917 3.333H9.083m0 2.084h1.834m0 2.5H9.083m0 2.083h1.834"/>
  <path stroke-linecap="round" stroke-linejoin="round" d="M1.667 12.5V10c3.666 0 7.416-3.333 7.416-5m9.25 7.5V10c-3.666 0-7.416-3.333-7.416-5"/>
</svg>
