<svg xmlns="http://www.w3.org/2000/svg" fill="none" viewBox="0 0 20 20" stroke-width="1.25" stroke="currentColor" aria-hidden="true" data-slot="icon">
  <path stroke-linecap="square" stroke-linejoin="round" d="M5 12.512c0-2.147 1.045-3.209 3.135-3.209h3.532c2.09 0 3.134 1.062 3.134 3.21"/>
  <path stroke-linecap="round" stroke-linejoin="round" d="M8.75 17.917v-1.713h2.5v1.69"/>
  <path stroke-linecap="round" stroke-linejoin="round" d="M5.833 17.917V14.49c.349-.716 1.66-1.966 4.167-1.966 2.508 0 3.818 1.25 4.167 1.966v3.426M10 1.667V2.5"/>
  <path stroke-linecap="square" stroke-linejoin="round" d="M8.333 7.5v5M11.667 7.5v5"/>
  <path stroke-linecap="round" stroke-linejoin="round" d="M5.833 9.167v-2.5a4.167 4.167 0 1 1 8.334 0v2.5M17.5 17.917V12.5a3.333 3.333 0 0 0-3.333-3.333H5.833A3.333 3.333 0 0 0 2.5 12.5v5.417M5.833 7.083h8.334M1.667 17.917h16.666M1.667 12.512h16.666"/>
</svg>
