<svg xmlns="http://www.w3.org/2000/svg" fill="none" viewBox="0 0 20 20" stroke-width="1.25" stroke="currentColor" aria-hidden="true" data-slot="icon">
  <path fill="#000" d="M9.2 13.099a.625.625 0 0 0 0-1.25v1.25Zm1.6-1.25a.625.625 0 0 0 0 1.25v-1.25Zm7.2.625h.625H18ZM8.24 16.42v-.625a.625.625 0 0 0-.625.625h.625Zm3.52 0h.625a.625.625 0 0 0-.625-.625v.625Zm0 1.579v.625c.345 0 .625-.28.625-.625h-.625Zm-3.52 0h-.625c0 .345.28.625.625.625V18Zm1.505-3.553a.625.625 0 0 0-1.25 0h1.25Zm-.625 1.974h-.625c0 .345.28.625.625.625v-.625Zm1.68 0v.625c.345 0 .625-.28.625-.625H10.8Zm.625-1.974a.625.625 0 0 0-1.25 0h1.25ZM9.12 12.474h-.625c0 .345.28.625.625.625v-.625Zm1.76 0v.625c.345 0 .625-.28.625-.625h-.625ZM9.12 3.789h-.625.625ZM2.08 9.48a.625.625 0 1 0 0 1.25V9.48Zm7.665-4.112a.625.625 0 0 0-1.25 0h1.25Zm1.76 0a.625.625 0 1 0-1.25 0h1.25Zm6.415 5.362a.625.625 0 1 0 0-1.25v1.25Zm-4.655-2.598a.625.625 0 1 0-1.25 0h1.25Zm-1.25 4.342a.625.625 0 1 0 1.25 0h-1.25Zm-4.03-4.342a.625.625 0 0 0-1.25 0h1.25Zm-1.25 4.342a.625.625 0 1 0 1.25 0h-1.25Zm8.29-3.158a.625.625 0 1 0-1.25 0h1.25Zm-1.25 3.158a.625.625 0 1 0 1.25 0h-1.25Zm-7.55-3.158a.625.625 0 0 0-1.25 0h1.25Zm-1.25 3.158a.625.625 0 1 0 1.25 0h-1.25Zm11.81-2.369a.625.625 0 1 0-1.25 0h1.25Zm-1.25 2.369a.625.625 0 1 0 1.25 0h-1.25Zm-12.91-2.369a.625.625 0 1 0-1.25 0h1.25Zm16 0a.625.625 0 1 0-1.25 0h1.25Zm-14.16 0a.625.625 0 1 0-1.25 0h1.25Zm-1.25 2.369a.625.625 0 1 0 1.25 0h-1.25ZM9.745 3a.625.625 0 1 0-1.25 0h1.25Zm1.76 0a.625.625 0 0 0-1.25 0h1.25ZM9.12 5.138a.625.625 0 1 0 0 1.25v-1.25Zm1.76.625h.625v-.625h-.625v.625Zm0 2.369v.625h.625v-.625h-.625Zm-1.76 0v-.625h-.625v.625h.625Zm0 1.973h-.625v.625h.625v-.625Zm1.76 0h.625V9.48h-.625v.625ZM18 14.447v.625c.345 0 .625-.28.625-.625H18Zm-16 0h-.625c0 .346.28.625.625.625v-.625ZM2 13.1h7.2v-1.25H2v1.25Zm8.8 0H18v-1.25h-7.2v1.25Zm-2.56 3.947h3.52v-1.25H8.24v1.25Zm2.895-.625V18h1.25v-1.579h-1.25Zm.625.954H8.24v1.25h3.52v-1.25ZM8.865 18v-1.579h-1.25V18h1.25Zm-.37-3.553v1.974h1.25v-1.974h-1.25Zm.625 2.599h1.68v-1.25H9.12v1.25Zm2.305-.625v-1.974h-1.25v1.974h1.25ZM9.12 13.099h1.76v-1.25H9.12v1.25Zm2.385-.625V3.789h-1.25v8.685h1.25Zm-.625-9.31H9.12v1.25h1.76v-1.25Zm-2.385.625v8.685h1.25V3.789h-1.25ZM2.08 10.73c1.935 0 3.824-.861 5.214-1.9.7-.523 1.295-1.108 1.723-1.683.411-.553.728-1.181.728-1.779h-1.25c0 .193-.123.552-.482 1.034-.343.461-.847.962-1.467 1.426-1.25.935-2.881 1.652-4.466 1.652v1.25Zm8.175-5.362c0 .598.317 1.226.728 1.78.428.574 1.023 1.159 1.723 1.682 1.39 1.039 3.279 1.9 5.214 1.9V9.48c-1.585 0-3.216-.717-4.466-1.652-.62-.464-1.125-.965-1.467-1.426-.359-.482-.482-.841-.482-1.034h-1.25Zm1.76 2.764v4.342h1.25V8.132h-1.25Zm-5.28 0v4.342h1.25V8.132h-1.25Zm7.04 1.184v3.158h1.25V9.316h-1.25Zm-8.8 0v3.158h1.25V9.316h-1.25Zm10.56.79v2.368h1.25v-2.369h-1.25Zm-14.16 0v2.368h1.25v-2.369h-1.25Zm16 0v2.368h1.25v-2.369h-1.25Zm-14.16 0v2.368h1.25v-2.369h-1.25Zm6.53-6.317V3h-1.25v.79h1.25Zm.51-.789v.79h1.25V3h-1.25ZM9.12 6.388h1.76v-1.25H9.12v1.25Zm1.135-.625v2.369h1.25V5.763h-1.25Zm.625 1.744H9.12v1.25h1.76v-1.25Zm-2.385.625v1.973h1.25V8.132h-1.25Zm.625 2.598h1.76V9.48H9.12v1.25Zm1.135-.625v2.369h1.25v-2.369h-1.25ZM18 13.822H2v1.25h16v-1.25Zm-15.375.625v-1.973h-1.25v1.973h1.25ZM2 13.1h16v-1.25H2v1.25Zm15.375-.625v1.973h1.25v-1.973h-1.25Z"/>
</svg>
