<svg xmlns="http://www.w3.org/2000/svg" fill="none" viewBox="0 0 20 20" stroke-width="1.25" stroke="currentColor" aria-hidden="true" data-slot="icon">
  <path stroke-linecap="round" stroke-linejoin="round" d="M2 7.03 6 3l4 4.03m-8 0h8m-8 0V18h8V7.03M2 11h3.2m0 0H10m-4.8 0v7M2 16.5h3V15m0 0H3.5M5 15h5m-6.5 0H2m1.5 0v-2.5m0-4v1M10 6.03 14 2l4 4.03m-8 0h8m-8 0V17h8V6.03M10 10h3.2m0 0H18m-4.8 0v7M10 15.5h3V14m0 0h-1.5m1.5 0h5m-6.5 0H10m1.5 0v-2.5m0-4v1M4.5 5h3v2h-3V5Zm2.333 7.5H8.5v.896H6.833V12.5ZM5.5 8.5v1h3v-1h-3Zm7-4.5h3v2h-3V4Zm2.333 7.5H16.5v.896h-1.667V11.5Zm-1.333-4v1h3v-1h-3Z"/>
</svg>
