<svg xmlns="http://www.w3.org/2000/svg" fill="none" viewBox="0 0 20 20" stroke-width="1.25" stroke="currentColor" aria-hidden="true" data-slot="icon">
  <path stroke-linecap="round" stroke-linejoin="round" d="M2 18h16m-15.2-.4V10m0 0 4-1.2m-4 1.2V8l4-1.2h6.4l4 1.2v2M6.8 8.8h6.4m-6.4 0V18h6.4V8.8m-6.4 0V4.4m10.4 13.2V10m0 0-4-1.2m0 0V4.4m-10.4 4V5.9l4-1.5m0 0h6.4m0 0 4 1.5v2.5M4.4 5.2C4.8 4.133 6.48 2 10 2c3.52 0 5.2 2.133 5.6 3.2m-.4 6.4V18M4.8 11.6V18m-2-12v-.8m14.4.8v-.8m-8.8 9.6H6.8m4.8 0h1.6m4-2.4h.8m-15.2 0H2m6.4-.8c0-.533.32-1.6 1.6-1.6s1.6 1.067 1.6 1.6V18H8.4v-6.4Z"/>
</svg>
