<svg xmlns="http://www.w3.org/2000/svg" fill="none" viewBox="0 0 20 20" stroke-width="1.25" stroke="currentColor" aria-hidden="true" data-slot="icon">
  <path stroke-linecap="round" d="M2.216 18h15.568M11.73 5.027h1.297m-1.297 0V2m0 3.027L10 5.459m1.73-.432v1.73l-.865 1.73m-3.892-3.46H8.27m0 0V2m0 3.027 1.73.432m-1.73-.432v1.73l.865 1.73m-1.73 6.053-.864 3.028m.864-3.028H10m-2.595 0 2.595.865m-2.595-.864 1.73-6.055m3.46 6.054.864 3.028m-.864-3.028H10m2.595 0L10 15.405m2.595-.864-1.73-6.055M10 14.54V8.486m0 6.054v.865m0 0V18m-.865-9.514H10m.865 0H10m0-3.027v3.027m0-3.027V3.73m-1.73 7.785h3.46l-1.73.864-1.73-.864Z"/>
</svg>
