<svg xmlns="http://www.w3.org/2000/svg" fill="none" viewBox="0 0 20 20" stroke-width="1.25" stroke="currentColor" aria-hidden="true" data-slot="icon">
  <path stroke-linecap="round" stroke-linejoin="round" d="M13 14v4h-3c.125-.667 0-2 1.5-2v-2m-1.9 3c-3.6 0-6.4-1.49-6.4-6.77-.4 0-1.2-.798-1.2-2.91 0 0 1.333-.378 2 .795.133-.293.72-.795 2-.795.4 1.32-.8 2.91-1.2 2.91 0 .695.4 2.54 3.6 2.54S11.2 6 14 6c2 0 2.4 1.173 2.4 1.76H18c0 2.64-1.84 2.64-2.8 2.64 1.2 2.64.56 6.6-2 6.6m-.2 0h5c0-.667-.454-2-2.273-2M14.5 7.5V8"/>
</svg>
