<svg xmlns="http://www.w3.org/2000/svg" fill="none" viewBox="0 0 20 20" stroke-width="1.25" stroke="currentColor" aria-hidden="true" data-slot="icon">
  <path stroke-linecap="round" stroke-linejoin="round" d="M5.211 7.014C3.873 6.88 2 7.174 2 9.423c0 2.81 5.62 1.605 5.62 4.014 0 1.293-1.042 2.24-2.007 2.838m-.402-9.26S7.218 3 10.028 3s4.817 4.014 4.817 4.014m-9.634 0s-3.612 3.613 4.817 3.613c8.43 0 4.817-3.613 4.817-3.613m0 0c1.338-.134 3.211.16 3.211 2.409 0 2.81-5.62 1.605-5.62 4.014 0 1.042 1.154 2.133 2.008 2.81M16.95 18s-2.884-2.958-6.922-2.958S3.106 18 3.106 18"/>
</svg>
