<svg width="24" height="24" viewBox="0 0 24 24" fill="none" xmlns="http://www.w3.org/2000/svg">
<path fill-rule="evenodd" clip-rule="evenodd" d="M4.7552 10.0589C5.82726 6.0579 9.93979 3.68353 13.9408 4.75559C15.2618 5.10955 16.4036 5.79374 17.3034 6.69528L19.2065 8.59835H16.0228C15.6086 8.59835 15.2728 8.93414 15.2728 9.34835C15.2728 9.76256 15.6086 10.0984 16.0228 10.0984H21.0154C21.2143 10.0984 21.4051 10.0193 21.5457 9.87864C21.6864 9.73797 21.7654 9.54717 21.7654 9.34824V4.35575C21.7654 3.94153 21.4296 3.60575 21.0154 3.60575C20.6012 3.60575 20.2654 3.94153 20.2654 4.35575L20.2654 7.53591L18.3651 5.63561V5.63561C17.2839 4.55253 15.9114 3.73071 14.329 3.3067C9.52782 2.02023 4.59278 4.86947 3.30631 9.67067C3.1991 10.0708 3.43654 10.482 3.83664 10.5892C4.23674 10.6964 4.64799 10.459 4.7552 10.0589ZM20.1626 13.4108C19.7625 13.3036 19.3513 13.5411 19.2441 13.9412C18.172 17.9422 14.0595 20.3165 10.0585 19.2445C8.73752 18.8905 7.59573 18.2063 6.69588 17.3048L4.79398 15.4017H7.9768C8.39101 15.4017 8.7268 15.0659 8.7268 14.6517C8.7268 14.2375 8.39101 13.9017 7.9768 13.9017L2.98416 13.9017C2.56994 13.9017 2.23416 14.2375 2.23416 14.6517V19.6443C2.23416 20.0585 2.56994 20.3943 2.98416 20.3943C3.39837 20.3943 3.73416 20.0585 3.73416 19.6443V16.4632L5.63423 18.3645C6.71542 19.4477 8.08774 20.2693 9.67027 20.6934C14.4715 21.9798 19.4065 19.1306 20.693 14.3294C20.8002 13.9293 20.5627 13.5181 20.1626 13.4108Z" fill="#0F172A"/>
</svg>
