<svg width="24" height="24" viewBox="0 0 24 24" fill="none" xmlns="http://www.w3.org/2000/svg">
<path d="M12 7.5C10.7574 7.5 9.75 8.50736 9.75 9.75C9.75 10.9926 10.7574 12 12 12C13.2426 12 14.25 10.9926 14.25 9.75C14.25 8.50736 13.2426 7.5 12 7.5Z" fill="#0F172A"/>
<path fill-rule="evenodd" clip-rule="evenodd" d="M1.5 4.875C1.5 3.83947 2.33947 3 3.375 3H20.625C21.6605 3 22.5 3.83947 22.5 4.875V14.625C22.5 15.6605 21.6605 16.5 20.625 16.5H3.375C2.33947 16.5 1.5 15.6605 1.5 14.625V4.875ZM8.25 9.75C8.25 7.67893 9.92893 6 12 6C14.0711 6 15.75 7.67893 15.75 9.75C15.75 11.8211 14.0711 13.5 12 13.5C9.92893 13.5 8.25 11.8211 8.25 9.75ZM18.75 9C18.3358 9 18 9.33579 18 9.75V9.7575C18 10.1717 18.3358 10.5075 18.75 10.5075H18.7575C19.1717 10.5075 19.5075 10.1717 19.5075 9.7575V9.75C19.5075 9.33579 19.1717 9 18.7575 9H18.75ZM4.5 9.75C4.5 9.33579 4.83579 9 5.25 9H5.2575C5.67171 9 6.0075 9.33579 6.0075 9.75V9.7575C6.0075 10.1717 5.67171 10.5075 5.2575 10.5075H5.25C4.83579 10.5075 4.5 10.1717 4.5 9.7575V9.75Z" fill="#0F172A"/>
<path d="M2.25 18C1.83579 18 1.5 18.3358 1.5 18.75C1.5 19.1642 1.83579 19.5 2.25 19.5C7.65005 19.5 12.8802 20.2222 17.8498 21.5749C19.0404 21.899 20.25 21.0168 20.25 19.7551V18.75C20.25 18.3358 19.9142 18 19.5 18H2.25Z" fill="#0F172A"/>
</svg>
