<svg width="24" height="24" viewBox="0 0 24 24" fill="none" xmlns="http://www.w3.org/2000/svg">
<path fill-rule="evenodd" clip-rule="evenodd" d="M5.25 3.75C5.25 3.33579 5.58579 3 6 3H13.125C15.8174 3 18 5.18261 18 7.875C18 9.27207 17.4123 10.5319 16.4707 11.4207C17.8473 12.3671 18.75 13.9532 18.75 15.75C18.75 18.6495 16.3995 21 13.5 21H6C5.58579 21 5.25 20.6642 5.25 20.25V3.75ZM12.375 10.5C13.8247 10.5 15 9.32475 15 7.875C15 6.42525 13.8247 5.25 12.375 5.25H8.25V10.5H12.375ZM8.25 18.75H12.75C14.4069 18.75 15.75 17.4069 15.75 15.75C15.75 14.0931 14.4069 12.75 12.75 12.75H8.25V18.75Z" fill="black"/>
</svg>
