<svg width="24" height="24" viewBox="0 0 24 24" fill="none" xmlns="http://www.w3.org/2000/svg">
<path d="M11.25 4.53286C9.73455 3.56279 7.93246 3 6 3C4.86178 3 3.76756 3.19535 2.75007 3.55499C2.45037 3.66091 2.25 3.94425 2.25 4.26212V18.5121C2.25 18.7556 2.36818 18.9839 2.56696 19.1245C2.76574 19.265 3.02039 19.3004 3.24993 19.2192C4.10911 18.9156 5.03441 18.75 6 18.75C7.99501 18.75 9.82325 19.4573 11.25 20.6357V4.53286Z" fill="#0F172A"/>
<path d="M12.75 20.6357C14.1768 19.4573 16.005 18.75 18 18.75C18.9656 18.75 19.8909 18.9156 20.7501 19.2192C20.9796 19.3004 21.2343 19.265 21.433 19.1245C21.6318 18.9839 21.75 18.7556 21.75 18.5121V4.26212C21.75 3.94425 21.5496 3.66091 21.2499 3.55499C20.2324 3.19535 19.1382 3 18 3C16.0675 3 14.2655 3.56279 12.75 4.53286V20.6357Z" fill="#0F172A"/>
</svg>
