<svg width="24" height="24" viewBox="0 0 24 24" fill="none" xmlns="http://www.w3.org/2000/svg">
<path d="M18.375 2.25C17.3395 2.25 16.5 3.08947 16.5 4.125V19.875C16.5 20.9105 17.3395 21.75 18.375 21.75H19.125C20.1605 21.75 21 20.9105 21 19.875V4.125C21 3.08947 20.1605 2.25 19.125 2.25H18.375Z" fill="#0F172A"/>
<path d="M9.75 8.625C9.75 7.58947 10.5895 6.75 11.625 6.75H12.375C13.4105 6.75 14.25 7.58947 14.25 8.625V19.875C14.25 20.9105 13.4105 21.75 12.375 21.75H11.625C10.5895 21.75 9.75 20.9105 9.75 19.875V8.625Z" fill="#0F172A"/>
<path d="M3 13.125C3 12.0895 3.83947 11.25 4.875 11.25H5.625C6.66053 11.25 7.5 12.0895 7.5 13.125V19.875C7.5 20.9105 6.66053 21.75 5.625 21.75H4.875C3.83947 21.75 3 20.9105 3 19.875V13.125Z" fill="#0F172A"/>
</svg>
