<svg width="24" height="24" viewBox="0 0 24 24" fill="none" xmlns="http://www.w3.org/2000/svg">
<path fill-rule="evenodd" clip-rule="evenodd" d="M12 2.25C6.61522 2.25 2.25 6.61522 2.25 12C2.25 17.3848 6.61522 21.75 12 21.75C17.3848 21.75 21.75 17.3848 21.75 12C21.75 6.61522 17.3848 2.25 12 2.25ZM15.0588 10.3123C15.3694 10.0382 15.3989 9.56425 15.1248 9.2537C14.8507 8.94315 14.3768 8.9136 14.0662 9.1877C12.7083 10.3862 11.6072 11.8701 10.857 13.5463L9.53033 12.2197C9.23744 11.9268 8.76256 11.9268 8.46967 12.2197C8.17678 12.5126 8.17678 12.9874 8.46967 13.2803L10.6054 15.4161C10.7887 15.5993 11.0535 15.675 11.3059 15.6162C11.5583 15.5574 11.7624 15.3725 11.8459 15.1271C12.4835 13.2513 13.6034 11.5969 15.0588 10.3123Z" fill="#0F172A"/>
</svg>
