<svg width="24" height="24" viewBox="0 0 24 24" fill="none" xmlns="http://www.w3.org/2000/svg">
<path fill-rule="evenodd" clip-rule="evenodd" d="M4.5 9.75C4.5 6.43629 7.18629 3.75 10.5 3.75C13.028 3.75 15.1893 5.31282 16.0733 7.52408C16.2135 7.50816 16.3559 7.5 16.5 7.5C18.5711 7.5 20.25 9.17893 20.25 11.25C20.25 11.4459 20.2349 11.6386 20.2058 11.827C21.5744 12.5981 22.5 14.0653 22.5 15.75C22.5 18.2353 20.4853 20.25 18 20.25H6.75C3.85051 20.25 1.5 17.8995 1.5 15C1.5 12.8968 2.73627 11.084 4.52024 10.2459C4.50683 10.0822 4.5 9.91686 4.5 9.75Z" fill="#0F172A"/>
</svg>
