<svg width="25" height="24" viewBox="0 0 25 24" fill="none" xmlns="http://www.w3.org/2000/svg">
<path fill-rule="evenodd" clip-rule="evenodd" d="M21.5 10H11.5C10.9477 10 10.5 10.4477 10.5 11V21C10.5 21.5523 10.9477 22 11.5 22H21.5C22.0523 22 22.5 21.5523 22.5 21V11C22.5 10.4477 22.0523 10 21.5 10ZM11.5 8C9.84315 8 8.5 9.34315 8.5 11V21C8.5 22.6569 9.84315 24 11.5 24H21.5C23.1569 24 24.5 22.6569 24.5 21V11C24.5 9.34315 23.1569 8 21.5 8H11.5Z" fill="#262E40"/>
<mask id="mask0_436_61487" style="mask-type:alpha" maskUnits="userSpaceOnUse" x="0" y="0" width="17" height="16">
<path fill-rule="evenodd" clip-rule="evenodd" d="M13.5 2H3.5C2.94772 2 2.5 2.44772 2.5 3V13C2.5 13.5523 2.94772 14 3.5 14H13.5C14.0523 14 14.5 13.5523 14.5 13V3C14.5 2.44772 14.0523 2 13.5 2ZM3.5 0C1.84315 0 0.5 1.34315 0.5 3V13C0.5 14.6569 1.84315 16 3.5 16H13.5C15.1569 16 16.5 14.6569 16.5 13V3C16.5 1.34315 15.1569 0 13.5 0H3.5Z" fill="black"/>
</mask>
<g mask="url(#mask0_436_61487)">
<path d="M17.5 0H0.5V17H7.5V7H17.5V0Z" fill="#262E40"/>
</g>
</svg>
