<svg width="24" height="24" viewBox="0 0 24 24" fill="none" xmlns="http://www.w3.org/2000/svg">
<path d="M19.5 21C21.1569 21 22.5 19.6569 22.5 18V13.5C22.5 11.8431 21.1569 10.5 19.5 10.5H4.5C2.84315 10.5 1.5 11.8431 1.5 13.5V18C1.5 19.6569 2.84315 21 4.5 21H19.5Z" fill="#0F172A"/>
<path d="M1.5 10.1458V6C1.5 4.34315 2.84315 3 4.5 3H9.87868C10.4754 3 11.0477 3.23705 11.4697 3.65901L13.591 5.78033C13.7316 5.92098 13.9224 6 14.1213 6H19.5C21.1569 6 22.5 7.34315 22.5 9V10.1458C21.7039 9.43328 20.6525 9 19.5 9H4.5C3.34747 9 2.29613 9.43328 1.5 10.1458Z" fill="#0F172A"/>
</svg>
