<svg width="24" height="24" viewBox="0 0 24 24" fill="none" xmlns="http://www.w3.org/2000/svg">
<path fill-rule="evenodd" clip-rule="evenodd" d="M22.5 18.0046C22.5 19.6615 21.1569 21.0046 19.5 21.0046H4.5C2.84315 21.0046 1.5 19.6615 1.5 18.0046V6.00464C1.5 4.34778 2.84315 3.00464 4.5 3.00464H9.87868C10.4754 3.00464 11.0477 3.24169 11.4697 3.66365L13.591 5.78497C13.7316 5.92562 13.9224 6.00464 14.1213 6.00464H19.5C21.1569 6.00464 22.5 7.34778 22.5 9.00464V18.0046ZM11.25 12.3153L11.25 16.5046C11.25 16.9189 11.5858 17.2546 12 17.2546C12.4142 17.2546 12.75 16.9189 12.75 16.5046L12.75 12.3153L14.4697 14.035C14.7626 14.3279 15.2374 14.3279 15.5303 14.035C15.8232 13.7421 15.8232 13.2672 15.5303 12.9743L12.5303 9.97431C12.3897 9.83366 12.1989 9.75464 12 9.75464C11.8011 9.75464 11.6103 9.83366 11.4697 9.97431L8.46967 12.9743C8.17678 13.2672 8.17678 13.7421 8.46967 14.035C8.76256 14.3279 9.23744 14.3279 9.53033 14.035L11.25 12.3153Z" fill="#0F172A"/>
</svg>
