<svg width="24" height="24" viewBox="0 0 24 24" fill="none" xmlns="http://www.w3.org/2000/svg">
<path d="M9 3.25464C7.96447 3.25464 7.125 4.0941 7.125 5.12964C7.125 6.16517 7.96447 7.00464 9 7.00464H10.875V11.5046H3C1.96447 11.5046 1.125 10.6652 1.125 9.62964V8.87964C1.125 7.8441 1.96447 7.00464 3 7.00464H6.19333C5.83435 6.46835 5.625 5.82344 5.625 5.12964C5.625 3.26568 7.13604 1.75464 9 1.75464C10.0602 1.75464 11.0063 2.24351 11.625 3.00814C12.2437 2.24351 13.1898 1.75464 14.25 1.75464C16.114 1.75464 17.625 3.26568 17.625 5.12964C17.625 5.82344 17.4156 6.46835 17.0567 7.00464H21C22.0355 7.00464 22.875 7.8441 22.875 8.87964V9.62964C22.875 10.6652 22.0355 11.5046 21 11.5046H12.375V7.00464H14.25C15.2855 7.00464 16.125 6.16517 16.125 5.12964C16.125 4.0941 15.2855 3.25464 14.25 3.25464C13.2145 3.25464 12.375 4.0941 12.375 5.12964V7.00464H10.875V5.12964C10.875 4.0941 10.0355 3.25464 9 3.25464Z" fill="#0F172A"/>
<path d="M10.875 13.0046H2.625V19.7546C2.625 20.9973 3.63236 22.0046 4.875 22.0046H10.875V13.0046Z" fill="#0F172A"/>
<path d="M12.375 13.0046V22.0046H19.125C20.3676 22.0046 21.375 20.9973 21.375 19.7546V13.0046H12.375Z" fill="#0F172A"/>
</svg>
