<svg width="24" height="24" viewBox="0 0 24 24" fill="none" xmlns="http://www.w3.org/2000/svg">
<path d="M11.4697 3.84099C11.7626 3.5481 12.2374 3.5481 12.5303 3.84099L21.2197 12.5303C21.5126 12.8232 21.9874 12.8232 22.2803 12.5303C22.5732 12.2374 22.5732 11.7626 22.2803 11.4697L13.591 2.78033C12.7123 1.90165 11.2877 1.90165 10.409 2.78033L1.71967 11.4697C1.42678 11.7626 1.42678 12.2374 1.71967 12.5303C2.01256 12.8232 2.48744 12.8232 2.78033 12.5303L11.4697 3.84099Z" fill="#0F172A"/>
<path d="M12 5.43198L20.159 13.591C20.1887 13.6207 20.2191 13.6494 20.25 13.6771V19.875C20.25 20.9105 19.4105 21.75 18.375 21.75H15C14.5858 21.75 14.25 21.4142 14.25 21V16.5C14.25 16.0858 13.9142 15.75 13.5 15.75H10.5C10.0858 15.75 9.75 16.0858 9.75 16.5V21C9.75 21.4142 9.41421 21.75 9 21.75H5.625C4.58947 21.75 3.75 20.9105 3.75 19.875V13.6771C3.78093 13.6494 3.81127 13.6207 3.84099 13.591L12 5.43198Z" fill="#0F172A"/>
</svg>
