<svg width="24" height="24" viewBox="0 0 24 24" fill="none" xmlns="http://www.w3.org/2000/svg">
<path fill-rule="evenodd" clip-rule="evenodd" d="M10.5 3.75C10.5 3.33579 10.8358 3 11.25 3H18.75C19.1642 3 19.5 3.33579 19.5 3.75C19.5 4.16421 19.1642 4.5 18.75 4.5H15.475L10.1178 19.5H12.75C13.1642 19.5 13.5 19.8358 13.5 20.25C13.5 20.6642 13.1642 21 12.75 21H5.25C4.83579 21 4.5 20.6642 4.5 20.25C4.5 19.8358 4.83579 19.5 5.25 19.5H8.52503L13.8822 4.5H11.25C10.8358 4.5 10.5 4.16421 10.5 3.75Z" fill="black"/>
</svg>
