<svg width="25" height="24" viewBox="0 0 25 24" fill="none" xmlns="http://www.w3.org/2000/svg">
<path d="M23.2 13.5L19.1 14.6L14.5 12L19.1 9.4L23.2 10.5L23.6 9.1L20.8 8.4L23.4 6.9L22.4 5.1L19.8 6.6L20.6 3.9L19.2 3.5L18.1 7.6L13.5 10.3V5L16.5 2L15.5 1L13.5 3V0H11.5V3L9.5 1L8.5 2L11.5 5V10.3L7 7.6L5.9 3.5L4.5 3.9L5.2 6.6L2.6 5.1L1.6 6.9L4.2 8.4L1.5 9.1L1.9 10.5L6 9.4L10.5 12L6 14.6L1.9 13.5L1.5 14.9L4.2 15.6L1.6 17.1L2.6 18.9L5.2 17.4L4.5 20.1L5.9 20.5L7 16.4L11.5 13.7V19L8.5 22L9.5 23L11.5 21V24H13.5V21L15.5 23L16.5 22L13.5 19V13.7L18.1 16.4L19.2 20.5L20.6 20.1L19.8 17.4L22.4 18.9L23.4 17.1L20.8 15.6L23.6 14.9L23.2 13.5Z" fill="#262E40"/>
</svg>
