<svg width="24" height="24" viewBox="0 0 24 24" fill="none" xmlns="http://www.w3.org/2000/svg">
<path fill-rule="evenodd" clip-rule="evenodd" d="M11.5397 22.351C11.57 22.3685 11.5937 22.3821 11.6105 22.3915L11.6384 22.4071C11.8613 22.5294 12.1378 22.5285 12.3608 22.4075L12.3895 22.3915C12.4063 22.3821 12.43 22.3685 12.4603 22.351C12.5207 22.316 12.607 22.265 12.7155 22.1982C12.9325 22.0646 13.2388 21.8676 13.6046 21.6091C14.3351 21.0931 15.3097 20.3274 16.2865 19.3273C18.2307 17.3368 20.25 14.3462 20.25 10.5C20.25 5.94365 16.5563 2.25 12 2.25C7.44365 2.25 3.75 5.94365 3.75 10.5C3.75 14.3462 5.76932 17.3368 7.71346 19.3273C8.69025 20.3274 9.66491 21.0931 10.3954 21.6091C10.7612 21.8676 11.0675 22.0646 11.2845 22.1982C11.393 22.265 11.4793 22.316 11.5397 22.351ZM12 13.5C13.6569 13.5 15 12.1569 15 10.5C15 8.84315 13.6569 7.5 12 7.5C10.3431 7.5 9 8.84315 9 10.5C9 12.1569 10.3431 13.5 12 13.5Z" fill="#0F172A"/>
</svg>
