<svg width="24" height="24" viewBox="0 0 24 24" fill="none" xmlns="http://www.w3.org/2000/svg">
<path fill-rule="evenodd" clip-rule="evenodd" d="M9.52839 1.71786C9.74339 1.93286 9.80731 2.2564 9.69021 2.53701C9.2458 3.60204 9 4.77143 9 6.00013C9 10.9707 13.0294 15.0001 18 15.0001C19.2287 15.0001 20.3981 14.7543 21.4631 14.3099C21.7437 14.1928 22.0673 14.2567 22.2823 14.4717C22.4973 14.6867 22.5612 15.0103 22.4441 15.2909C20.8618 19.0828 17.1183 21.7501 12.75 21.7501C6.95101 21.7501 2.25 17.0491 2.25 11.2501C2.25 6.88184 4.91735 3.13829 8.70924 1.55603C8.98985 1.43894 9.31338 1.50286 9.52839 1.71786Z" fill="#0F172A"/>
</svg>
