<svg width="24" height="24" viewBox="0 0 24 24" fill="none" xmlns="http://www.w3.org/2000/svg">
<path fill-rule="evenodd" clip-rule="evenodd" d="M8.12833 9.15468C6.98188 10.5304 4.97858 10.9237 3.37489 9.99776C1.5813 8.96223 0.966765 6.66877 2.0023 4.87517C3.03783 3.08157 5.3313 2.46704 7.12489 3.50257C8.66319 4.39071 9.33419 6.20415 8.84075 7.83395L9.97714 8.49004C10.1638 8.59778 10.295 8.78059 10.3374 8.99185C10.3799 9.20312 10.3294 9.42243 10.1989 9.59388L10.1933 9.60123C9.94809 9.92327 9.49126 9.99312 9.16144 9.75848C9.12519 9.73269 9.08749 9.70846 9.04842 9.68589L8.12833 9.15468ZM3.30134 5.62517C3.92266 4.54901 5.29874 4.18029 6.37489 4.80161C7.3896 5.38745 7.77536 6.64433 7.29525 7.68809C7.27427 7.71507 7.25489 7.7438 7.23732 7.77423C7.21056 7.8206 7.1893 7.86863 7.17336 7.91758C6.54071 8.96093 5.18679 9.31181 4.12489 8.69873C3.04874 8.0774 2.68002 6.70133 3.30134 5.62517Z" fill="#0F172A"/>
<path fill-rule="evenodd" clip-rule="evenodd" d="M13.3484 8.2717C12.3744 8.56957 11.5401 9.14243 10.9215 9.88962C10.4538 10.4545 10.109 11.1196 9.91984 11.842C9.81853 12.2289 9.76198 12.6318 9.75505 13.0439C9.74669 13.5408 9.47822 13.9969 9.04782 14.2454L8.08883 14.799C6.93631 13.4611 4.96032 13.0872 3.37489 14.0026C1.5813 15.0381 0.966765 17.3316 2.0023 19.1252C3.03783 20.9188 5.3313 21.5333 7.12489 20.4978C8.68172 19.5989 9.35023 17.7523 8.8224 16.1076L22.5507 8.18154C22.8134 8.02987 22.9588 7.73488 22.9193 7.43412C22.8797 7.13337 22.6628 6.88609 22.3698 6.80758L21.5674 6.59256C20.6169 6.3379 19.6141 6.35545 18.6731 6.64322L13.3484 8.2717ZM4.12489 15.3016C3.04874 15.9229 2.68002 17.299 3.30134 18.3752C3.92266 19.4513 5.29874 19.82 6.37489 19.1987C7.45105 18.5774 7.81977 17.2013 7.19845 16.1252C6.57713 15.049 5.20105 14.6803 4.12489 15.3016ZM12 12.75C12.4142 12.75 12.75 12.4142 12.75 12C12.75 11.5858 12.4142 11.25 12 11.25C11.5858 11.25 11.25 11.5858 11.25 12C11.25 12.4142 11.5858 12.75 12 12.75Z" fill="#0F172A"/>
<path d="M16.3718 12.615C16.6038 12.481 16.8897 12.481 17.1218 12.615L22.5513 15.7497C22.814 15.9014 22.9594 16.1964 22.9198 16.4971C22.8803 16.7979 22.6634 17.0452 22.3704 17.1237L21.5679 17.3387C20.6175 17.5934 19.6147 17.5758 18.6737 17.288L13.5271 15.714C13.2415 15.6267 13.035 15.3783 13.0012 15.0817C12.9674 14.785 13.1128 14.4966 13.3714 14.3473L16.3718 12.615Z" fill="#0F172A"/>
</svg>
