<svg width="24" height="24" viewBox="0 0 24 24" fill="none" xmlns="http://www.w3.org/2000/svg">
<path d="M20 6.5C20 5 18.6 4.75 17.75 5.25L8.209 10.774C7.5 11.25 7.5 12.25 8.209 12.728L17.75 18.75C18.6 19.25 20 19 20 17.5L20 6.5Z" fill="#0F172A"/>
<path d="M5.78033 5.21967C5.63968 5.07902 5.44891 5 5.25 5H4.75C4.55109 5 4.36032 5.07902 4.21967 5.21967C4.07902 5.36032 4 5.55109 4 5.75V18.25C4 18.4489 4.07902 18.6397 4.21967 18.7803C4.36032 18.921 4.55109 19 4.75 19H5.25C5.664 19 6 18.664 6 18.25V5.75C6 5.55109 5.92098 5.36032 5.78033 5.21967Z" fill="#0F172A"/>
</svg>
