<svg width="24" height="24" viewBox="0 0 24 24" fill="none" xmlns="http://www.w3.org/2000/svg">
<path d="M4 6.5C4 5 5.4 4.75 6.25 5.25L15.791 10.774C16.5 11.25 16.5 12.25 15.791 12.728L6.25 18.75C5.4 19.25 4 19 4 17.5L4 6.5Z" fill="#0F172A"/>
<path d="M18.2197 5.21967C18.3603 5.07902 18.5511 5 18.75 5H19.25C19.4489 5 19.6397 5.07902 19.7803 5.21967C19.921 5.36032 20 5.55109 20 5.75V18.25C20 18.4489 19.921 18.6397 19.7803 18.7803C19.6397 18.921 19.4489 19 19.25 19H18.75C18.336 19 18 18.664 18 18.25V5.75C18 5.55109 18.079 5.36032 18.2197 5.21967Z" fill="#0F172A"/>
</svg>
