<svg width="24" height="24" viewBox="0 0 24 24" fill="none" xmlns="http://www.w3.org/2000/svg">
<path fill-rule="evenodd" clip-rule="evenodd" d="M6 3C6.41421 3 6.75 3.33579 6.75 3.75V11.25C6.75 14.1495 9.10051 16.5 12 16.5C14.8995 16.5 17.25 14.1495 17.25 11.25V3.75C17.25 3.33579 17.5858 3 18 3C18.4142 3 18.75 3.33579 18.75 3.75V11.25C18.75 14.9779 15.7279 18 12 18C8.27208 18 5.25 14.9779 5.25 11.25V3.75C5.25 3.33579 5.58579 3 6 3Z" fill="black"/>
<path fill-rule="evenodd" clip-rule="evenodd" d="M3 20.25C3 19.8358 3.33579 19.5 3.75 19.5H20.25C20.6642 19.5 21 19.8358 21 20.25C21 20.6642 20.6642 21 20.25 21H3.75C3.33579 21 3 20.6642 3 20.25Z" fill="black"/>
</svg>
