<svg width="24" height="24" viewBox="0 0 24 24" fill="none" xmlns="http://www.w3.org/2000/svg">
<path d="M0.96967 3.96967C1.26256 3.67678 1.73744 3.67678 2.03033 3.96967L17.0303 18.9697C17.3232 19.2626 17.3232 19.7374 17.0303 20.0303C16.7374 20.3232 16.2626 20.3232 15.9697 20.0303L0.96967 5.03033C0.676777 4.73744 0.676777 4.26256 0.96967 3.96967Z" fill="black"/>
<path d="M17.25 16.0606L19.9393 18.75C20.8843 19.6949 22.5 19.0257 22.5 17.6893V6.31063C22.5 4.97427 20.8843 4.30501 19.9393 5.24996L17.25 7.93931V16.0606Z" fill="black"/>
<path d="M15.75 7.5V15.568L4.68198 4.5H12.75C14.4069 4.5 15.75 5.84315 15.75 7.5Z" fill="black"/>
<path d="M1.5 16.5V7.68198L13.2727 19.4546C13.1029 19.4845 12.9283 19.5 12.75 19.5H4.5C2.84315 19.5 1.5 18.1569 1.5 16.5Z" fill="black"/>
</svg>
