<svg width="25" height="24" viewBox="0 0 25 24" fill="none" xmlns="http://www.w3.org/2000/svg">
<path d="M5.5 2C4.39 2 3.5 2.89 3.5 4V16C3.5 17.11 4.39 18 5.5 18H6.5V20H3.5V22H6.5C7.61 22 8.5 21.11 8.5 20V18H10.5V20C10.5 21.11 11.39 22 12.5 22H14.5L15.25 20H12.5V18H13.5C14.61 18 15.5 17.11 15.5 16V4C15.5 2.89 14.61 2 13.5 2H5.5ZM9.5 4.97C10.61 4.97 11.5 5.87 11.5 6.97C11.5 8.07 10.61 8.97 9.5 8.97C8.4 8.97 7.5 8.07 7.5 6.97C7.5 5.87 8.4 4.97 9.5 4.97ZM7.5 14.5H11.5V16H7.5V14.5Z" fill="#262E40"/>
<path d="M20 22.1666C19.2707 22.1666 18.5712 21.8769 18.0555 21.3611C17.5397 20.8454 17.25 20.1459 17.25 19.4166C17.25 17.5833 20 14.4895 20 14.4895C20 14.4895 22.75 17.5833 22.75 19.4166C22.75 20.1459 22.4603 20.8454 21.9445 21.3611C21.4288 21.8769 20.7293 22.1666 20 22.1666Z" fill="#262E40"/>
</svg>
