<svg width="25" height="24" viewBox="0 0 25 24" fill="none" xmlns="http://www.w3.org/2000/svg">
<path d="M10.5 2L8.10005 5.4C8.90005 5.2 9.70005 5 10.5 5C11.3 5 12.1 5.2 12.9 5.4M19.5 5C18.39 5 17.5 5.89 17.5 7V13.76C16.86 14.33 16.5 15.15 16.5 16C16.5 17.66 17.84 19 19.5 19C21.16 19 22.5 17.66 22.5 16C22.5 15.15 22.14 14.33 21.5 13.77V7C21.5 5.89 20.61 5 19.5 5ZM19.5 6C20.05 6 20.5 6.45 20.5 7V8H18.5V7C18.5 6.45 18.95 6 19.5 6ZM6.00005 6.7L1.80005 7L3.60005 10.8C3.70005 10 4.00005 9.2 4.40005 8.5C4.90005 7.8 5.40005 7.2 6.00005 6.7ZM10.5 7C7.70005 7 5.50005 9.2 5.50005 12C5.50005 14.8 7.70005 17 10.5 17C13.3 17 15.5 14.8 15.5 12C15.5 9.2 13.3 7 10.5 7ZM3.70005 13.2L1.90005 17L6.00005 17.4C5.50005 16.9 4.90005 16.2 4.50005 15.5C4.00005 14.8 3.80005 14 3.70005 13.2ZM8.10005 18.6L10.5 22L12.9 18.6C12.1 18.8 11.3 19 10.5 19C9.60005 19 8.80005 18.8 8.10005 18.6Z" fill="#262E40"/>
</svg>
