<svg width="24" height="24" viewBox="0 0 24 24" fill="none" xmlns="http://www.w3.org/2000/svg">
<path d="M16.5 12C16.5 14.4853 14.4853 16.5 12 16.5C9.51472 16.5 7.5 14.4853 7.5 12C7.5 9.51472 9.51472 7.5 12 7.5C14.4853 7.5 16.5 9.51472 16.5 12ZM16.5 12C16.5 13.6569 17.5074 15 18.75 15C19.9926 15 21 13.6569 21 12C21 9.69671 20.1213 7.3934 18.364 5.63604C14.8492 2.12132 9.15076 2.12132 5.63604 5.63604C2.12132 9.15076 2.12132 14.8492 5.63604 18.364C9.15076 21.8787 14.8492 21.8787 18.364 18.364M16.5 12V8.25" stroke="#0F172A" stroke-width="1.5" stroke-linecap="round"/>
</svg>
