<svg width="24" height="24" viewBox="0 0 24 24" fill="none" xmlns="http://www.w3.org/2000/svg">
<path d="M3 3.75C2.58579 3.75 2.25 4.08579 2.25 4.5C2.25 4.91421 2.58579 5.25 3 5.25V3.75ZM17.25 5.25C17.6642 5.25 18 4.91421 18 4.5C18 4.08579 17.6642 3.75 17.25 3.75V5.25ZM3 8.25C2.58579 8.25 2.25 8.58579 2.25 9C2.25 9.41421 2.58579 9.75 3 9.75V8.25ZM12.75 9.75C13.1642 9.75 13.5 9.41421 13.5 9C13.5 8.58579 13.1642 8.25 12.75 8.25V9.75ZM3 12.75C2.58579 12.75 2.25 13.0858 2.25 13.5C2.25 13.9142 2.58579 14.25 3 14.25V12.75ZM8.25 14.25C8.66421 14.25 9 13.9142 9 13.5C9 13.0858 8.66421 12.75 8.25 12.75V14.25ZM12.9697 12.2197C12.6768 12.5126 12.6768 12.9874 12.9697 13.2803C13.2626 13.5732 13.7374 13.5732 14.0303 13.2803L12.9697 12.2197ZM17.25 9L17.7803 8.46967C17.4874 8.17678 17.0126 8.17678 16.7197 8.46967L17.25 9ZM20.4697 13.2803C20.7626 13.5732 21.2374 13.5732 21.5303 13.2803C21.8232 12.9874 21.8232 12.5126 21.5303 12.2197L20.4697 13.2803ZM16.5 21C16.5 21.4142 16.8358 21.75 17.25 21.75C17.6642 21.75 18 21.4142 18 21L16.5 21ZM3 5.25H17.25V3.75H3V5.25ZM3 9.75H12.75V8.25H3V9.75ZM3 14.25H8.25V12.75H3V14.25ZM14.0303 13.2803L17.7803 9.53033L16.7197 8.46967L12.9697 12.2197L14.0303 13.2803ZM16.7197 9.53033L20.4697 13.2803L21.5303 12.2197L17.7803 8.46967L16.7197 9.53033ZM18 21L18 9L16.5 9L16.5 21L18 21Z" fill="#0F172A"/>
</svg>
