<svg width="24" height="24" viewBox="0 0 24 24" fill="none" xmlns="http://www.w3.org/2000/svg">
<path d="M3 3.75C2.58579 3.75 2.25 4.08579 2.25 4.5C2.25 4.91421 2.58579 5.25 3 5.25V3.75ZM17.25 5.25C17.6642 5.25 18 4.91421 18 4.5C18 4.08579 17.6642 3.75 17.25 3.75V5.25ZM3 8.25C2.58579 8.25 2.25 8.58579 2.25 9C2.25 9.41421 2.58579 9.75 3 9.75V8.25ZM12.75 9.75C13.1642 9.75 13.5 9.41421 13.5 9C13.5 8.58579 13.1642 8.25 12.75 8.25V9.75ZM3 12.75C2.58579 12.75 2.25 13.0858 2.25 13.5C2.25 13.9142 2.58579 14.25 3 14.25V12.75ZM12.75 14.25C13.1642 14.25 13.5 13.9142 13.5 13.5C13.5 13.0858 13.1642 12.75 12.75 12.75V14.25ZM21.5303 17.7803C21.8232 17.4874 21.8232 17.0126 21.5303 16.7197C21.2374 16.4268 20.7626 16.4268 20.4697 16.7197L21.5303 17.7803ZM17.25 21L16.7197 21.5303C17.0126 21.8232 17.4874 21.8232 17.7803 21.5303L17.25 21ZM14.0303 16.7197C13.7374 16.4268 13.2626 16.4268 12.9697 16.7197C12.6768 17.0126 12.6768 17.4874 12.9697 17.7803L14.0303 16.7197ZM18 9C18 8.58579 17.6642 8.25 17.25 8.25C16.8358 8.25 16.5 8.58579 16.5 9H18ZM3 5.25H17.25V3.75H3V5.25ZM3 9.75H12.75V8.25H3V9.75ZM3 14.25H12.75V12.75H3V14.25ZM20.4697 16.7197L16.7197 20.4697L17.7803 21.5303L21.5303 17.7803L20.4697 16.7197ZM17.7803 20.4697L14.0303 16.7197L12.9697 17.7803L16.7197 21.5303L17.7803 20.4697ZM16.5 9V21H18V9H16.5Z" fill="#0F172A"/>
</svg>
