<svg width="24" height="24" viewBox="0 0 24 24" fill="none" xmlns="http://www.w3.org/2000/svg">
<path d="M6 3.75H13.125C15.4032 3.75 17.25 5.59683 17.25 7.875C17.25 10.1532 15.4032 12 13.125 12H6V3.75Z" stroke="black" stroke-width="1.5" stroke-linecap="round" stroke-linejoin="round"/>
<path d="M7.5 4.5H12.375C14.239 4.5 15.75 6.01104 15.75 7.875C15.75 9.73896 14.239 11.25 12.375 11.25H7.5V4.5Z" stroke="black" stroke-width="1.5" stroke-linecap="round" stroke-linejoin="round"/>
<path d="M6 11.25H13.5C15.9853 11.25 18 13.2647 18 15.75C18 18.2353 15.9853 20.25 13.5 20.25H6V11.25Z" stroke="black" stroke-width="1.5" stroke-linecap="round" stroke-linejoin="round"/>
<path d="M7.5 12H12.75C14.8211 12 16.5 13.6789 16.5 15.75C16.5 17.8211 14.8211 19.5 12.75 19.5H7.5V12Z" stroke="black" stroke-width="1.5" stroke-linecap="round" stroke-linejoin="round"/>
</svg>
