<svg width="25" height="24" viewBox="0 0 25 24" fill="none" xmlns="http://www.w3.org/2000/svg">
<path d="M5.44 6.35C5.05 5.96 5.05 5.32 5.44 4.93C5.83 4.54 6.46 4.54 6.85 4.93L13.57 10.31L13.92 10.59C14.7 11.37 14.7 12.64 13.92 13.42C13.14 14.2 11.87 14.2 11.09 13.42L10.81 13.07L5.44 6.35ZM12.5 20C14.6217 20 16.6566 19.1571 18.1569 17.6569C19.6571 16.1566 20.5 14.1217 20.5 12C20.5 9.79 19.6 7.79 18.16 6.34L19.57 4.93C21.38 6.74 22.5 9.24 22.5 12C22.5 14.6522 21.4464 17.1957 19.5711 19.0711C17.6957 20.9464 15.1522 22 12.5 22C11.1868 22 9.88642 21.7413 8.67317 21.2388C7.45991 20.7362 6.35752 19.9997 5.42893 19.0711C3.55357 17.1957 2.5 14.6522 2.5 12H4.5C4.5 14.1217 5.34285 16.1566 6.84315 17.6569C8.34344 19.1571 10.3783 20 12.5 20ZM12.5 1C13.0304 1 13.5391 1.21071 13.9142 1.58579C14.2893 1.96086 14.5 2.46957 14.5 3C14.5 3.53043 14.2893 4.03914 13.9142 4.41421C13.5391 4.78929 13.0304 5 12.5 5C11.9696 5 11.4609 4.78929 11.0858 4.41421C10.7107 4.03914 10.5 3.53043 10.5 3C10.5 2.46957 10.7107 1.96086 11.0858 1.58579C11.4609 1.21071 11.9696 1 12.5 1Z" fill="#262E40"/>
</svg>
