<svg width="25" height="24" viewBox="0 0 25 24" fill="none" xmlns="http://www.w3.org/2000/svg">
<path d="M3.5 14L4 14.07L8.57 9.5C8.39 8.85 8.56 8.11 9.09 7.59C9.87 6.8 11.13 6.8 11.91 7.59C12.44 8.11 12.61 8.85 12.43 9.5L15 12.07L15.5 12C15.68 12 15.85 12 16 12.07L19.57 8.5C19.5 8.35 19.5 8.18 19.5 8C19.5 7.46957 19.7107 6.96086 20.0858 6.58579C20.4609 6.21071 20.9696 6 21.5 6C22.0304 6 22.5391 6.21071 22.9142 6.58579C23.2893 6.96086 23.5 7.46957 23.5 8C23.5 8.53043 23.2893 9.03914 22.9142 9.41421C22.5391 9.78929 22.0304 10 21.5 10C21.32 10 21.15 10 21 9.93L17.43 13.5C17.5 13.65 17.5 13.82 17.5 14C17.5 14.5304 17.2893 15.0391 16.9142 15.4142C16.5391 15.7893 16.0304 16 15.5 16C14.9696 16 14.4609 15.7893 14.0858 15.4142C13.7107 15.0391 13.5 14.5304 13.5 14L13.57 13.5L11 10.93C10.68 11 10.32 11 10 10.93L5.43 15.5L5.5 16C5.5 16.5304 5.28929 17.0391 4.91421 17.4142C4.53914 17.7893 4.03043 18 3.5 18C2.96957 18 2.46086 17.7893 2.08579 17.4142C1.71071 17.0391 1.5 16.5304 1.5 16C1.5 15.4696 1.71071 14.9609 2.08579 14.5858C2.46086 14.2107 2.96957 14 3.5 14Z" fill="#262E40"/>
</svg>
