<svg width="24" height="24" viewBox="0 0 24 24" fill="none" xmlns="http://www.w3.org/2000/svg">
<path d="M16.2803 15.5303C16.5732 15.2374 16.5732 14.7626 16.2803 14.4697C15.9874 14.1768 15.5126 14.1768 15.2197 14.4697L16.2803 15.5303ZM12 18.75L11.4697 19.2803C11.7626 19.5732 12.2374 19.5732 12.5303 19.2803L12 18.75ZM8.78033 14.4697C8.48744 14.1768 8.01256 14.1768 7.71967 14.4697C7.42678 14.7626 7.42678 15.2374 7.71967 15.5303L8.78033 14.4697ZM7.71967 8.46967C7.42678 8.76256 7.42678 9.23744 7.71967 9.53033C8.01256 9.82322 8.48744 9.82322 8.78033 9.53033L7.71967 8.46967ZM12 5.25L12.5303 4.71967C12.2374 4.42678 11.7626 4.42678 11.4697 4.71967L12 5.25ZM15.2197 9.53033C15.5126 9.82322 15.9874 9.82322 16.2803 9.53033C16.5732 9.23744 16.5732 8.76256 16.2803 8.46967L15.2197 9.53033ZM15.2197 14.4697L11.4697 18.2197L12.5303 19.2803L16.2803 15.5303L15.2197 14.4697ZM12.5303 18.2197L8.78033 14.4697L7.71967 15.5303L11.4697 19.2803L12.5303 18.2197ZM8.78033 9.53033L12.5303 5.78033L11.4697 4.71967L7.71967 8.46967L8.78033 9.53033ZM11.4697 5.78033L15.2197 9.53033L16.2803 8.46967L12.5303 4.71967L11.4697 5.78033Z" fill="#0F172A"/>
</svg>
