<svg width="24" height="24" viewBox="0 0 24 24" fill="none" xmlns="http://www.w3.org/2000/svg">
<path d="M9 12H12.75M9 15H12.75M9 18H12.75M15.75 18.75H18C19.2426 18.75 20.25 17.7426 20.25 16.5V6.10822C20.25 4.97324 19.405 4.01015 18.2739 3.91627C17.9006 3.88529 17.5261 3.85858 17.1505 3.83619M11.3495 3.83619C11.2848 4.04602 11.25 4.26894 11.25 4.5C11.25 4.91421 11.5858 5.25 12 5.25H16.5C16.9142 5.25 17.25 4.91421 17.25 4.5C17.25 4.26894 17.2152 4.04602 17.1505 3.83619M11.3495 3.83619C11.6328 2.91757 12.4884 2.25 13.5 2.25H15C16.0116 2.25 16.8672 2.91757 17.1505 3.83619M11.3495 3.83619C10.9739 3.85858 10.5994 3.88529 10.2261 3.91627C9.09499 4.01015 8.25 4.97324 8.25 6.10822V8.25M8.25 8.25H4.875C4.25368 8.25 3.75 8.75368 3.75 9.375V20.625C3.75 21.2463 4.25368 21.75 4.875 21.75H14.625C15.2463 21.75 15.75 21.2463 15.75 20.625V9.375C15.75 8.75368 15.2463 8.25 14.625 8.25H8.25ZM6.75 12H6.7575V12.0075H6.75V12ZM6.75 15H6.7575V15.0075H6.75V15ZM6.75 18H6.7575V18.0075H6.75V18Z" stroke="#0F172A" stroke-width="1.5" stroke-linecap="round" stroke-linejoin="round"/>
</svg>
