<svg width="25" height="24" viewBox="0 0 25 24" fill="none" xmlns="http://www.w3.org/2000/svg">
<g clip-path="url(#clip0_932_112605)">
<path d="M18.2681 3.30467C19.8707 3.84744 21.1292 5.10806 21.6357 6.69191H24.4892C23.8594 3.61467 21.4028 1.17965 18.2681 0.504639V3.30414V3.30467Z" fill="#262E40"/>
<path d="M11.3716 6.69187C11.9177 4.98477 13.3363 3.65273 15.1192 3.1909V0.432129C11.8037 0.985471 9.1728 3.49138 8.51807 6.69187H11.3716Z" fill="#262E40"/>
<path d="M21.652 9.76029C21.1563 11.369 19.8886 12.6518 18.2681 13.2004V15.9999C21.4212 15.3212 23.8871 12.8619 24.4995 9.75977H21.6514L21.652 9.76029Z" fill="#262E40"/>
<path d="M15.1193 13.3141C13.3185 12.8475 11.8891 11.4928 11.3554 9.76025H8.50732C9.14415 12.9861 11.7854 15.5164 15.1188 16.0729V13.3141H15.1193Z" fill="#262E40"/>
<path d="M3.36374 6.37454C4.04508 4.24422 6.0853 2.69794 8.49578 2.69794C8.86766 2.69794 9.23086 2.73497 9.58158 2.8048V0.070358C9.22652 0.0243343 8.86386 0 8.49578 0C4.54672 0 1.25457 2.73973 0.510254 6.37454H3.36374Z" fill="#262E40"/>
<path d="M11.2169 12.4524C10.4188 12.91 9.4888 13.1724 8.49584 13.1724C6.06527 13.1724 4.01202 11.6002 3.34751 9.44287H0.5C1.2226 13.1041 4.52778 15.8703 8.49584 15.8703C9.95678 15.8703 11.3276 15.4952 12.5133 14.8387L11.2169 12.4524Z" fill="#262E40"/>
<path d="M1.38212 18.311L4.49186 23.473C4.84311 24.056 5.70469 24.066 6.07007 23.491L11.1934 15.4242L9.58209 14.6904L5.04887 19.944L2.6764 17.3868C2.02546 16.6848 0.890254 17.4958 1.38212 18.312V18.311Z" fill="#262E40"/>
<path d="M21.0211 24.0001H20.2437V22.6776H21.0211C21.3615 22.6776 21.6384 22.4078 21.6384 22.0761V16.9812H22.9956V22.0761C22.9956 23.1367 22.1096 24.0001 21.0211 24.0001Z" fill="#262E40"/>
<path d="M18.3809 16.9812H17.0237V23.9641H18.3809V16.9812Z" fill="#262E40"/>
<path d="M11.7261 23.9641H10.3689V16.8225H12.895C14.0845 16.8225 15.052 17.7652 15.052 18.9243V19.2702C15.052 20.4293 14.0845 21.372 12.895 21.372H11.7261V23.9641ZM11.7261 20.0495H12.895C13.3358 20.0495 13.6947 19.6998 13.6947 19.2702V18.9243C13.6947 18.4947 13.3358 18.145 12.895 18.145H11.7261V20.0495Z" fill="#262E40"/>
<path d="M14.2235 23.9639L12.3201 21.0639L13.4672 20.3572L15.7979 23.9639H14.2235Z" fill="#262E40"/>
</g>
<defs>
<clipPath id="clip0_932_112605">
<rect width="24" height="24" fill="white" transform="translate(0.5)"/>
</clipPath>
</defs>
</svg>
