<svg width="25" height="24" viewBox="0 0 25 24" fill="none" xmlns="http://www.w3.org/2000/svg">
<path d="M19.5 18.31V20C19.5 20.5304 19.2893 21.0391 18.9142 21.4142C18.5391 21.7893 18.0304 22 17.5 22H7.5C6.96957 22 6.46086 21.7893 6.08579 21.4142C5.71071 21.0391 5.5 20.5304 5.5 20V16.3C5.04 16.12 4.45 16 3.5 16C3.23478 16 2.98043 15.8946 2.79289 15.7071C2.60536 15.5196 2.5 15.2652 2.5 15C2.5 14.7348 2.60536 14.4804 2.79289 14.2929C2.98043 14.1054 3.23478 14 3.5 14C4.32 14 4.97 14.08 5.5 14.21V12.3C5.04 12.12 4.45 12 3.5 12C3.23478 12 2.98043 11.8946 2.79289 11.7071C2.60536 11.5196 2.5 11.2652 2.5 11C2.5 10.7348 2.60536 10.4804 2.79289 10.2929C2.98043 10.1054 3.23478 10 3.5 10C4.32 10 4.97 10.08 5.5 10.21V8.3C5.04 8.12 4.45 8 3.5 8C3.23478 8 2.98043 7.89464 2.79289 7.70711C2.60536 7.51957 2.5 7.26522 2.5 7C2.5 6.73478 2.60536 6.48043 2.79289 6.29289C2.98043 6.10536 3.23478 6 3.5 6C4.32 6 4.97 6.08 5.5 6.21V4C5.5 3.46957 5.71071 2.96086 6.08579 2.58579C6.46086 2.21071 6.96957 2 7.5 2H17.5C18.0304 2 18.5391 2.21071 18.9142 2.58579C19.2893 2.96086 19.5 3.46957 19.5 4V6.16C21.28 6.47 22.04 7.13 22.21 7.29C22.6 7.68 22.6 8.32 22.21 8.71C21.82 9.1 21.3 9.09 20.79 8.71C20.79 8.71 19.75 8 17.5 8C16.24 8 15.41 8.41 14.45 8.9C13.41 9.41 12.24 10 10.5 10C10.14 10 9.81 10 9.5 9.96V7.95C9.8 8 10.13 8 10.5 8C11.76 8 12.59 7.59 13.55 7.11C14.59 6.59 15.77 6 17.5 6V4H7.5V20H17.5V18C19 18 19.47 18.29 19.5 18.31ZM17.5 10C15.77 10 14.59 10.59 13.55 11.11C12.59 11.59 11.76 12 10.5 12C10.13 12 9.8 12 9.5 11.95V13.96C9.81 14 10.14 14 10.5 14C12.24 14 13.41 13.41 14.45 12.9C15.41 12.42 16.24 12 17.5 12C19.75 12 20.79 12.71 20.79 12.71C21.3 13.1 21.82 13.1 22.21 12.71C22.6 12.32 22.6 11.69 22.21 11.29C22 11.08 20.75 10 17.5 10ZM17.5 14C15.77 14 14.59 14.59 13.55 15.11C12.59 15.59 11.76 16 10.5 16C10.13 16 9.8 16 9.5 15.95V17.96C9.81 18 10.14 18 10.5 18C12.24 18 13.41 17.41 14.45 16.9C15.41 16.42 16.24 16 17.5 16C19.75 16 20.79 16.71 20.79 16.71C21.3 17.1 21.82 17.1 22.21 16.71C22.6 16.32 22.6 15.69 22.21 15.29C22 15.08 20.75 14 17.5 14Z" fill="#262E40"/>
</svg>
