<svg width="25" height="24" viewBox="0 0 25 24" fill="none" xmlns="http://www.w3.org/2000/svg">
<path d="M16.64 8.79L16.62 8.8C16.85 9.07 17.05 9.39 17.2 9.72L17.29 9.91C18 11.6 17.5 13.55 16.19 14.77C15 15.86 13.34 16.15 11.8 15.95C10.34 15.77 9 14.85 8.23 13.58C8 13.19 7.8 12.75 7.7 12.3C7.57 11.93 7.53 11.57 7.5 11.2C7.41 9.6 8.05 7.9 9.26 6.9C8.71 8.11 8.84 9.62 9.65 10.67L9.76 10.8C9.9 10.92 10.07 10.96 10.23 10.89C10.38 10.83 10.5 10.68 10.5 10.5L10.43 10.28C9.55 7.96 10.29 5.25 12.16 3.72C12.67 3.3 13.3 2.92 13.96 2.75C13.28 4.11 13.5 5.89 14.59 6.96C15.05 7.43 15.6 7.74 16.08 8.18L16.64 8.79ZM14.36 13.43L14.35 13.42C14.8 13.03 15.05 12.36 15.03 11.76L15 11.44C14.8 10.44 13.93 10.11 13.37 9.38C13.2 9.16 13.05 8.88 12.94 8.6C12.72 9.1 12.7 9.57 12.79 10.11C12.89 10.68 13.12 11.17 13 11.76C12.84 12.41 12.33 13.06 11.44 13.27C11.94 13.76 12.75 14.15 13.56 13.87C13.82 13.8 14.15 13.61 14.36 13.43ZM11.5 18V19C11.5 19.55 11.95 20 12.5 20C13.05 20 13.5 19.55 13.5 19V18H15.5V19C15.5 19.55 15.95 20 16.5 20C17.05 20 17.5 19.55 17.5 19V18C18.61 18 20.5 18.9 20.5 20V22H4.5V20C4.5 18.9 6.4 18 7.5 18V19C7.5 19.55 7.95 20 8.5 20C9.05 20 9.5 19.55 9.5 19V18H11.5Z" fill="#262E40"/>
</svg>
