<svg width="24" height="24" viewBox="0 0 24 24" fill="none" xmlns="http://www.w3.org/2000/svg">
<path d="M12.75 8.25V15.75M18.75 8.25H15.75V12M15.75 12V15.75M15.75 12H18M9.75 9.34835C8.72056 7.88388 7.05152 7.88388 6.02208 9.34835C4.99264 10.8128 4.99264 13.1872 6.02208 14.6517C7.05152 16.1161 8.72056 16.1161 9.75 14.6517V12H8.25M4.5 19.5H19.5C20.7426 19.5 21.75 18.4926 21.75 17.25V6.75C21.75 5.50736 20.7426 4.5 19.5 4.5H4.5C3.25736 4.5 2.25 5.50736 2.25 6.75V17.25C2.25 18.4926 3.25736 19.5 4.5 19.5Z" stroke="#0F172A" stroke-width="1.5" stroke-linecap="round" stroke-linejoin="round"/>
</svg>
