<svg width="25" height="24" viewBox="0 0 25 24" fill="none" xmlns="http://www.w3.org/2000/svg">
<path d="M10.104 8.6C10.704 8.2 11.504 8 12.204 8C12.504 8 12.904 8.1 13.204 8.1V1.1C13.204 0.5 12.704 0 12.104 0C11.504 0 11.004 0.2 10.604 0.6L9.10403 2.2C8.00403 3.3 7.80403 4.9 8.60403 6.2L10.104 8.6Z" fill="#262E40"/>
<path d="M5.40405 12.2L8.30405 12.1V12C8.30405 10.9 8.70405 9.90004 9.40405 9.20004L3.30405 5.70004C2.80405 5.40004 2.10405 5.60004 1.80405 6.10004C1.50405 6.60004 1.40405 7.20004 1.60405 7.70004L2.20405 9.80004C2.50405 11.3 3.90405 12.3 5.40405 12.2Z" fill="#262E40"/>
<path d="M16.1041 10.9L22.2041 7.40004C22.7041 7.10004 22.9041 6.40004 22.6041 5.90004C22.3041 5.40004 21.8041 5.00004 21.3041 4.90004L19.2041 4.30004C17.7041 3.90004 16.2041 4.60004 15.5041 5.90004L14.2041 8.40004C15.1041 9.00004 15.8041 9.90004 16.1041 10.9Z" fill="#262E40"/>
<path d="M8.40414 13.1001L2.30414 16.6001C1.80414 16.9001 1.60414 17.6001 1.90414 18.1001C2.20414 18.6001 2.70414 19.0001 3.20414 19.1001L5.30414 19.7001C6.80414 20.1001 8.30414 19.4001 9.00414 18.1001L10.3041 15.6001C9.40414 15.0001 8.70414 14.1001 8.40414 13.1001Z" fill="#262E40"/>
<path d="M22.9042 16.3001L22.3041 14.2001C21.9041 12.7001 20.6042 11.7001 19.0042 11.8001L16.1042 11.9001V12.0001C16.1042 13.1001 15.7042 14.1001 15.0042 14.8001L21.1042 18.3001C21.6042 18.6001 22.3042 18.4001 22.6042 17.9001C23.0042 17.4001 23.0042 16.8001 22.9042 16.3001Z" fill="#262E40"/>
<path d="M14.3041 15.3999C13.7041 15.7999 13.0041 15.9999 12.2041 15.9999C11.9041 15.9999 11.5041 15.8999 11.2041 15.8999V22.8999C11.2041 23.4999 11.7041 23.9999 12.3041 23.9999C12.9041 23.9999 13.4041 23.7999 13.8041 23.3999L15.3041 21.8999C16.4041 20.7999 16.6041 19.1999 15.8041 17.8999L14.3041 15.3999Z" fill="#262E40"/>
<path d="M12.2041 14C13.3087 14 14.2041 13.1046 14.2041 12C14.2041 10.8954 13.3087 10 12.2041 10C11.0995 10 10.2041 10.8954 10.2041 12C10.2041 13.1046 11.0995 14 12.2041 14Z" fill="#262E40"/>
</svg>
