<svg width="25" height="24" viewBox="0 0 25 24" fill="none" xmlns="http://www.w3.org/2000/svg">
<path d="M13.1315 10.3707L13.1294 10.3686C10.718 7.96683 7.0406 7.60937 4.25011 9.30226V5C4.25011 4.30421 4.80432 3.75 5.50011 3.75H13.7501V4.5V10V10.75H14.5001H20.0001H20.7501V19C20.7501 19.6958 20.1959 20.25 19.5001 20.25H13.4836C15.9476 17.4004 15.8303 13.0802 13.1315 10.3707ZM15.0304 3.96967L14.8108 3.75H15.1894L20.7501 9.31066V9.68934L20.5304 9.46967L15.0304 3.96967ZM4.72215 18.4286L5.14519 18.0028L4.82248 17.4967C4.45965 16.9278 4.25011 16.2378 4.25011 15.5C4.25011 13.4142 5.91432 11.75 8.00011 11.75C10.0859 11.75 11.7501 13.4142 11.7501 15.5C11.7501 17.5858 10.0859 19.25 8.00011 19.25C7.27466 19.25 6.59149 19.0416 6.01678 18.6835L5.51528 18.371L5.09408 18.7854L2.50437 21.3336L2.16905 20.9983L4.72215 18.4286ZM4.75011 15.5C4.75011 17.2942 6.20589 18.75 8.00011 18.75C9.79432 18.75 11.2501 17.2942 11.2501 15.5C11.2501 13.7058 9.79432 12.25 8.00011 12.25C6.20589 12.25 4.75011 13.7058 4.75011 15.5Z" stroke="#262E40" stroke-width="1.5"/>
</svg>
