<svg width="25" height="24" viewBox="0 0 25 24" fill="none" xmlns="http://www.w3.org/2000/svg">
<path d="M16.5 12C16.5 11.4696 16.7107 10.9609 17.0858 10.5858C17.4609 10.2107 17.9696 10 18.5 10C19.0304 10 19.5391 10.2107 19.9142 10.5858C20.2893 10.9609 20.5 11.4696 20.5 12C20.5 12.5304 20.2893 13.0391 19.9142 13.4142C19.5391 13.7893 19.0304 14 18.5 14C17.9696 14 17.4609 13.7893 17.0858 13.4142C16.7107 13.0391 16.5 12.5304 16.5 12ZM10.5 12C10.5 11.4696 10.7107 10.9609 11.0858 10.5858C11.4609 10.2107 11.9696 10 12.5 10C13.0304 10 13.5391 10.2107 13.9142 10.5858C14.2893 10.9609 14.5 11.4696 14.5 12C14.5 12.5304 14.2893 13.0391 13.9142 13.4142C13.5391 13.7893 13.0304 14 12.5 14C11.9696 14 11.4609 13.7893 11.0858 13.4142C10.7107 13.0391 10.5 12.5304 10.5 12ZM4.5 12C4.5 11.4696 4.71071 10.9609 5.08579 10.5858C5.46086 10.2107 5.96957 10 6.5 10C7.03043 10 7.53914 10.2107 7.91421 10.5858C8.28929 10.9609 8.5 11.4696 8.5 12C8.5 12.5304 8.28929 13.0391 7.91421 13.4142C7.53914 13.7893 7.03043 14 6.5 14C5.96957 14 5.46086 13.7893 5.08579 13.4142C4.71071 13.0391 4.5 12.5304 4.5 12Z" fill="#262E40"/>
</svg>
