<svg width="24" height="24" viewBox="0 0 24 24" fill="none" xmlns="http://www.w3.org/2000/svg">
<path d="M4.5 3.75C4.08579 3.75 3.75 4.08579 3.75 4.5C3.75 4.91421 4.08579 5.25 4.5 5.25V3.75ZM18.75 19.5C18.75 19.9142 19.0858 20.25 19.5 20.25C19.9142 20.25 20.25 19.9142 20.25 19.5H18.75ZM12 19.5C12 19.9142 12.3358 20.25 12.75 20.25C13.1642 20.25 13.5 19.9142 13.5 19.5H12ZM4.5 10.5C4.08579 10.5 3.75 10.8358 3.75 11.25C3.75 11.6642 4.08579 12 4.5 12V10.5ZM5.25 18.75L5.25 18.75L3.75 18.75C3.75 19.5784 4.42157 20.25 5.25 20.25L5.25 18.75ZM5.25 18.75L5.25 18.75L5.25 17.25C4.42157 17.25 3.75 17.9216 3.75 18.75L5.25 18.75ZM5.25 18.75L5.25 18.75L6.75 18.75C6.75 17.9216 6.07843 17.25 5.25 17.25L5.25 18.75ZM5.25 18.75L5.25 18.75L5.25 20.25C6.07843 20.25 6.75 19.5784 6.75 18.75L5.25 18.75ZM5.25 5.25C12.7058 5.25 18.75 11.2942 18.75 18.75H20.25C20.25 10.4657 13.5343 3.75 5.25 3.75V5.25ZM4.5 5.25H5.25V3.75H4.5V5.25ZM20.25 19.5V18.75H18.75V19.5H20.25ZM5.25 12C8.97792 12 12 15.0221 12 18.75H13.5C13.5 14.1937 9.80635 10.5 5.25 10.5V12ZM13.5 19.5V18.75H12V19.5H13.5ZM4.5 12H5.25V10.5H4.5V12Z" fill="#0F172A"/>
</svg>
