<svg width="24" height="24" viewBox="0 0 24 24" fill="none" xmlns="http://www.w3.org/2000/svg">
<path d="M12 9V12.75M12 2.71426C9.8495 4.75089 6.94563 6.00001 3.75 6.00001C3.69922 6.00001 3.64852 5.9997 3.59789 5.99907C3.2099 7.17918 3 8.44011 3 9.75006C3 15.3416 6.82432 20.0399 12 21.372C17.1757 20.0399 21 15.3416 21 9.75006C21 8.44011 20.7901 7.17918 20.4021 5.99907C20.3515 5.9997 20.3008 6.00001 20.25 6.00001C17.0544 6.00001 14.1505 4.75089 12 2.71426ZM12 15.75H12.0075V15.7575H12V15.75Z" stroke="#0F172A" stroke-width="1.5" stroke-linecap="round" stroke-linejoin="round"/>
</svg>
