<svg width="24" height="24" viewBox="0 0 24 24" fill="none" xmlns="http://www.w3.org/2000/svg">
<path d="M12 9.00009V12.7501M12 2.71436C9.8495 4.75098 6.94563 6.00011 3.75 6.00011C3.69922 6.00011 3.64852 5.99979 3.59789 5.99916C3.2099 7.17927 3 8.4402 3 9.75015C3 15.3417 6.82432 20.04 12 21.3721C17.1757 20.04 21 15.3417 21 9.75015C21 8.4402 20.7901 7.17927 20.4021 5.99916C20.3515 5.99979 20.3008 6.00011 20.25 6.00011C17.0544 6.00011 14.1505 4.75098 12 2.71436ZM12 15.7501H12.0075V15.7576H12V15.7501Z" stroke="#0F172A" stroke-width="1.5" stroke-linecap="round" stroke-linejoin="round"/>
</svg>
