<svg width="24" height="24" viewBox="0 0 24 24" fill="none" xmlns="http://www.w3.org/2000/svg">
<path d="M5 5.5V18M19 16.811V6.69C19 5.826 18.067 5.284 17.317 5.713L9.209 10.774C9.0367 10.8724 8.8935 11.0146 8.7938 11.1861C8.6942 11.3577 8.6418 11.5526 8.6418 11.751C8.6418 11.9494 8.6942 12.1443 8.7938 12.3159C8.8935 12.4874 9.0367 12.6296 9.209 12.728L17.317 17.789C17.4882 17.8868 17.682 17.9379 17.8792 17.9371C18.0763 17.9364 18.2698 17.8839 18.4402 17.7848C18.6107 17.6858 18.7521 17.5437 18.8503 17.3728C18.9486 17.2019 19.0002 17.0081 19 16.811Z" stroke="#0F172A" stroke-width="1.5" stroke-linecap="round" stroke-linejoin="round"/>
</svg>
