<svg width="24" height="24" viewBox="0 0 24 24" fill="none" xmlns="http://www.w3.org/2000/svg">
<path d="M19 5.5V18M5 16.811V6.69C5 5.826 5.933 5.284 6.683 5.713L14.791 10.774C14.9633 10.8724 15.1065 11.0146 15.2062 11.1861C15.3058 11.3577 15.3582 11.5526 15.3582 11.751C15.3582 11.9494 15.3058 12.1443 15.2062 12.3159C15.1065 12.4874 14.9633 12.6296 14.791 12.728L6.683 17.789C6.51182 17.8868 6.31796 17.9379 6.12082 17.9371C5.92369 17.9364 5.73021 17.8839 5.55976 17.7848C5.38932 17.6858 5.24789 17.5437 5.14965 17.3728C5.05141 17.2019 4.9998 17.0081 5 16.811Z" stroke="#0F172A" stroke-width="1.5" stroke-linecap="round" stroke-linejoin="round"/>
</svg>
