<svg width="25" height="24" viewBox="0 0 25 24" fill="none" xmlns="http://www.w3.org/2000/svg">
<path d="M1.5 9H3.5V7H1.5V9ZM1.5 13H3.5V11H1.5V13ZM1.5 5H3.5V3C2.96957 3 2.46086 3.21071 2.08579 3.58579C1.71071 3.96086 1.5 4.46957 1.5 5ZM9.5 21H11.5V19H9.5V21ZM1.5 17H3.5V15H1.5V17ZM3.5 21V19H1.5C1.5 19.5304 1.71071 20.0391 2.08579 20.4142C2.46086 20.7893 2.96957 21 3.5 21ZM21.5 3H13.5V9H23.5V5C23.5 4.46957 23.2893 3.96086 22.9142 3.58579C22.5391 3.21071 22.0304 3 21.5 3ZM21.5 17H23.5V15H21.5V17ZM9.5 5H11.5V3H9.5V5ZM5.5 21H7.5V19H5.5V21ZM5.5 5H7.5V3H5.5V5ZM21.5 21C22.0304 21 22.5391 20.7893 22.9142 20.4142C23.2893 20.0391 23.5 19.5304 23.5 19H21.5V21ZM21.5 13H23.5V11H21.5V13ZM13.5 21H15.5V19H13.5V21ZM17.5 21H19.5V19H17.5V21Z" fill="#262E40"/>
</svg>
