<svg width="25" height="24" viewBox="0 0 25 24" fill="none" xmlns="http://www.w3.org/2000/svg">
<path d="M6 7C5.60218 7 5.22064 6.84196 4.93934 6.56066C4.65804 6.27936 4.5 5.89782 4.5 5.5C4.5 5.10218 4.65804 4.72064 4.93934 4.43934C5.22064 4.15804 5.60218 4 6 4C6.39782 4 6.77936 4.15804 7.06066 4.43934C7.34196 4.72064 7.5 5.10218 7.5 5.5C7.5 5.89782 7.34196 6.27936 7.06066 6.56066C6.77936 6.84196 6.39782 7 6 7ZM21.91 11.58L12.91 2.58C12.55 2.22 12.05 2 11.5 2H4.5C3.39 2 2.5 2.89 2.5 4V11C2.5 11.55 2.72 12.05 3.09 12.41L12.08 21.41C12.45 21.77 12.95 22 13.5 22C14.05 22 14.55 21.77 14.91 21.41L21.91 14.41C22.28 14.05 22.5 13.55 22.5 13C22.5 12.44 22.27 11.94 21.91 11.58Z" fill="#262E40"/>
</svg>
