<svg width="25" height="24" viewBox="0 0 25 24" fill="none" xmlns="http://www.w3.org/2000/svg">
<path d="M12.5001 15.5C11.5718 15.5 10.6816 15.1313 10.0252 14.4749C9.36883 13.8185 9.00008 12.9283 9.00008 12C9.00008 11.0717 9.36883 10.1815 10.0252 9.52513C10.6816 8.86875 11.5718 8.5 12.5001 8.5C13.4283 8.5 14.3186 8.86875 14.975 9.52513C15.6313 10.1815 16.0001 11.0717 16.0001 12C16.0001 12.9283 15.6313 13.8185 14.975 14.4749C14.3186 15.1313 13.4283 15.5 12.5001 15.5ZM19.9301 12.97C19.9701 12.65 20.0001 12.33 20.0001 12C20.0001 11.67 19.9701 11.34 19.9301 11L22.0401 9.37C22.2301 9.22 22.2801 8.95 22.1601 8.73L20.1601 5.27C20.0401 5.05 19.7701 4.96 19.5501 5.05L17.0601 6.05C16.5401 5.66 16.0001 5.32 15.3701 5.07L15.0001 2.42C14.9601 2.18 14.7501 2 14.5001 2H10.5001C10.2501 2 10.0401 2.18 10.0001 2.42L9.63008 5.07C9.00008 5.32 8.46008 5.66 7.94008 6.05L5.45008 5.05C5.23008 4.96 4.96008 5.05 4.84008 5.27L2.84008 8.73C2.71008 8.95 2.77008 9.22 2.96008 9.37L5.07008 11C5.03008 11.34 5.00008 11.67 5.00008 12C5.00008 12.33 5.03008 12.65 5.07008 12.97L2.96008 14.63C2.77008 14.78 2.71008 15.05 2.84008 15.27L4.84008 18.73C4.96008 18.95 5.23008 19.03 5.45008 18.95L7.94008 17.94C8.46008 18.34 9.00008 18.68 9.63008 18.93L10.0001 21.58C10.0401 21.82 10.2501 22 10.5001 22H14.5001C14.7501 22 14.9601 21.82 15.0001 21.58L15.3701 18.93C16.0001 18.67 16.5401 18.34 17.0601 17.94L19.5501 18.95C19.7701 19.03 20.0401 18.95 20.1601 18.73L22.1601 15.27C22.2801 15.05 22.2301 14.78 22.0401 14.63L19.9301 12.97Z" fill="#262E40"/>
</svg>
