<svg xmlns="http://www.w3.org/2000/svg" fill="none" viewBox="0 0 24 24" stroke-width="1.5" stroke="currentColor" aria-hidden="true">
  <path fill="#0F172A" d="M3 3.75a.75.75 0 000 1.5v-1.5zm14.25 1.5a.75.75 0 000-1.5v1.5zM3 8.25a.75.75 0 000 1.5v-1.5zm9.75 1.5a.75.75 0 000-1.5v1.5zm-9.75 3a.75.75 0 000 1.5v-1.5zm5.25 1.5a.75.75 0 000-1.5v1.5zm4.72-2.03a.75.75 0 101.06 1.06l-1.06-1.06zM17.25 9l.53-.53a.75.75 0 00-1.06 0l.53.53zm3.22 4.28a.75.75 0 101.06-1.06l-1.06 1.06zM16.5 21a.75.75 0 001.5 0h-1.5zM3 5.25h14.25v-1.5H3v1.5zm0 4.5h9.75v-1.5H3v1.5zm0 4.5h5.25v-1.5H3v1.5zm11.03-.97l3.75-3.75-1.06-1.06-3.75 3.75 1.06 1.06zm2.69-3.75l3.75 3.75 1.06-1.06-3.75-3.75-1.06 1.06zM18 21V9h-1.5v12H18z"/>
</svg>
