<svg xmlns="http://www.w3.org/2000/svg" fill="none" viewBox="0 0 24 24" stroke-width="1.5" stroke="currentColor" aria-hidden="true">
  <path fill="#0F172A" d="M3 3.75a.75.75 0 000 1.5v-1.5zm14.25 1.5a.75.75 0 000-1.5v1.5zM3 8.25a.75.75 0 000 1.5v-1.5zm9.75 1.5a.75.75 0 000-1.5v1.5zm-9.75 3a.75.75 0 000 1.5v-1.5zm9.75 1.5a.75.75 0 000-1.5v1.5zm8.78 3.53a.75.75 0 10-1.06-1.06l1.06 1.06zM17.25 21l-.53.53a.75.75 0 001.06 0l-.53-.53zm-3.22-4.28a.75.75 0 10-1.06 1.06l1.06-1.06zM18 9a.75.75 0 00-1.5 0H18zM3 5.25h14.25v-1.5H3v1.5zm0 4.5h9.75v-1.5H3v1.5zm0 4.5h9.75v-1.5H3v1.5zm17.47 2.47l-3.75 3.75 1.06 1.06 3.75-3.75-1.06-1.06zm-2.69 3.75l-3.75-3.75-1.06 1.06 3.75 3.75 1.06-1.06zM16.5 9v12H18V9h-1.5z"/>
</svg>
