<svg xmlns="http://www.w3.org/2000/svg" fill="none" viewBox="0 0 24 24" stroke-width="1.5" stroke="currentColor" aria-hidden="true">
  <path fill="#0F172A" d="M16.28 15.53a.75.75 0 10-1.06-1.06l1.06 1.06zM12 18.75l-.53.53a.75.75 0 001.06 0l-.53-.53zm-3.22-4.28a.75.75 0 00-1.06 1.06l1.06-1.06zm-1.06-6a.75.75 0 001.06 1.06L7.72 8.47zM12 5.25l.53-.53a.75.75 0 00-1.06 0l.53.53zm3.22 4.28a.75.75 0 101.06-1.06l-1.06 1.06zm0 4.94l-3.75 3.75 1.06 1.06 3.75-3.75-1.06-1.06zm-2.69 3.75l-3.75-3.75-1.06 1.06 3.75 3.75 1.06-1.06zM8.78 9.53l3.75-3.75-1.06-1.06-3.75 3.75 1.06 1.06zm2.69-3.75l3.75 3.75 1.06-1.06-3.75-3.75-1.06 1.06z"/>
</svg>
