<svg xmlns="http://www.w3.org/2000/svg" fill="none" viewBox="0 0 25 24" stroke-width="1.5" stroke="currentColor" aria-hidden="true">
  <g fill="#262E40" clip-path="url(#clip0_932_112605)">
    <path d="M18.268 3.305c1.603.542 2.861 1.803 3.368 3.387h2.853c-.63-3.077-3.086-5.512-6.22-6.187v2.8zM11.372 6.692c.546-1.707 1.964-3.04 3.747-3.501V.432c-3.315.553-5.946 3.06-6.6 6.26h2.853zM21.652 9.76c-.496 1.609-1.763 2.892-3.384 3.44V16c3.153-.679 5.62-3.138 6.232-6.24H21.65h.001zM15.12 13.314c-1.801-.466-3.23-1.821-3.765-3.554H8.507c.637 3.226 3.278 5.756 6.612 6.313v-2.759zM3.364 6.375c.681-2.13 2.721-3.677 5.132-3.677.372 0 .735.037 1.086.107V.07A8.446 8.446 0 008.496 0C4.546 0 1.255 2.74.51 6.375h2.854z"/>
    <path d="M11.217 12.452a5.456 5.456 0 01-2.721.72c-2.43 0-4.484-1.572-5.148-3.73H.5c.723 3.662 4.028 6.428 7.996 6.428 1.46 0 2.832-.375 4.017-1.031l-1.296-2.387z"/>
    <path d="M1.382 18.311l3.11 5.162a.934.934 0 001.578.018l5.123-8.067-1.61-.734-4.534 5.254-2.373-2.557c-.65-.702-1.786.109-1.294.925v-.001zM21.021 24h-.777v-1.322h.777a.61.61 0 00.617-.602v-5.095h1.358v5.095c0 1.06-.886 1.924-1.975 1.924zM18.38 16.981h-1.356v6.983h1.357v-6.983zM11.726 23.964H10.37v-7.141h2.526c1.19 0 2.157.942 2.157 2.101v.346c0 1.16-.967 2.102-2.157 2.102h-1.169v2.592zm0-3.915h1.169c.44 0 .8-.35.8-.779v-.346a.79.79 0 00-.8-.779h-1.169v1.904z"/>
    <path d="M14.223 23.964l-1.903-2.9 1.147-.707 2.33 3.607h-1.574z"/>
  </g>
  <defs>
    <clipPath id="clip0_932_112605">
      <path fill="#fff" d="M0 0h24v24H0z" transform="translate(.5)"/>
    </clipPath>
  </defs>
</svg>
