<svg xmlns="http://www.w3.org/2000/svg" fill="none" viewBox="0 0 25 24" stroke-width="1.5" stroke="currentColor" aria-hidden="true">
  <path fill="#262E40" d="M19.5 18.31V20a2 2 0 01-2 2h-10a2 2 0 01-2-2v-3.7c-.46-.18-1.05-.3-2-.3a1 1 0 010-2c.82 0 1.47.08 2 .21V12.3c-.46-.18-1.05-.3-2-.3a1 1 0 010-2c.82 0 1.47.08 2 .21V8.3c-.46-.18-1.05-.3-2-.3a1 1 0 010-2c.82 0 1.47.08 2 .21V4a2 2 0 012-2h10a2 2 0 012 2v2.16c1.78.31 2.54.97 2.71 1.13.39.39.39 1.03 0 1.42-.39.39-.91.38-1.42 0 0 0-1.04-.71-3.29-.71-1.26 0-2.09.41-3.05.9-1.04.51-2.21 1.1-3.95 1.1-.36 0-.69 0-1-.04V7.95c.3.05.63.05 1 .05 1.26 0 2.09-.41 3.05-.89C14.59 6.59 15.77 6 17.5 6V4h-10v16h10v-2c1.5 0 1.97.29 2 .31zm-2-8.31c-1.73 0-2.91.59-3.95 1.11-.96.48-1.79.89-3.05.89-.37 0-.7 0-1-.05v2.01c.31.04.64.04 1 .04 1.74 0 2.91-.59 3.95-1.1.96-.48 1.79-.9 3.05-.9 2.25 0 3.29.71 3.29.71.51.39 1.03.39 1.42 0 .39-.39.39-1.02 0-1.42C22 11.08 20.75 10 17.5 10zm0 4c-1.73 0-2.91.59-3.95 1.11-.96.48-1.79.89-3.05.89-.37 0-.7 0-1-.05v2.01c.31.04.64.04 1 .04 1.74 0 2.91-.59 3.95-1.1.96-.48 1.79-.9 3.05-.9 2.25 0 3.29.71 3.29.71.51.39 1.03.39 1.42 0 .39-.39.39-1.02 0-1.42C22 15.08 20.75 14 17.5 14z"/>
</svg>
