<svg xmlns="http://www.w3.org/2000/svg" fill="none" viewBox="0 0 24 24" stroke-width="1.5" stroke="currentColor" aria-hidden="true" data-slot="icon">
  <path stroke-linecap="round" stroke-linejoin="round" d="M20.625 11.505v8.25a1.5 1.5 0 0 1-1.5 1.5H4.875a1.5 1.5 0 0 1-1.5-1.5v-8.25m8.25-6.375A2.625 2.625 0 1 0 9 7.755h2.625m0-2.625v2.625m0-2.625a2.625 2.625 0 1 1 2.625 2.625h-2.625m0 0v13.5M3 11.505h18c.621 0 1.125-.504 1.125-1.125v-1.5c0-.622-.504-1.125-1.125-1.125H3c-.621 0-1.125.503-1.125 1.125v1.5c0 .621.504 1.125 1.125 1.125Z"/>
</svg>
