<svg xmlns="http://www.w3.org/2000/svg" fill="none" viewBox="0 0 25 24" stroke-width="1.5" stroke="currentColor" aria-hidden="true">
  <path fill="#262E40" d="M23.2 13.5l-4.1 1.1-4.6-2.6 4.6-2.6 4.1 1.1.4-1.4-2.8-.7 2.6-1.5-1-1.8-2.6 1.5.8-2.7-1.4-.4-1.1 4.1-4.6 2.7V5l3-3-1-1-2 2V0h-2v3l-2-2-1 1 3 3v5.3L7 7.6 5.9 3.5l-1.4.4.7 2.7-2.6-1.5-1 1.8 2.6 1.5-2.7.7.4 1.4L6 9.4l4.5 2.6L6 14.6l-4.1-1.1-.4 1.4 2.7.7-2.6 1.5 1 1.8 2.6-1.5-.7 2.7 1.4.4L7 16.4l4.5-2.7V19l-3 3 1 1 2-2v3h2v-3l2 2 1-1-3-3v-5.3l4.6 2.7 1.1 4.1 1.4-.4-.8-2.7 2.6 1.5 1-1.8-2.6-1.5 2.8-.7-.4-1.4z"/>
</svg>
