<svg xmlns="http://www.w3.org/2000/svg" fill="none" viewBox="0 0 25 24" stroke-width="1.5" stroke="currentColor" aria-hidden="true">
  <path d="M13.132 10.37l-.003-.001A7.256 7.256 0 004.25 9.302V5c0-.696.554-1.25 1.25-1.25h8.25v7h7V19c0 .696-.554 1.25-1.25 1.25h-6.016c2.464-2.85 2.346-7.17-.352-9.88zm1.898-6.4l-.22-.22h.38l5.56 5.56v.38l-.22-.22-5.5-5.5zM4.722 18.429l.423-.426-.323-.506A3.71 3.71 0 014.25 15.5 3.731 3.731 0 018 11.75a3.731 3.731 0 013.75 3.75A3.731 3.731 0 018 19.25a3.748 3.748 0 01-1.983-.567l-.502-.312-.42.414-2.59 2.549-.336-.336 2.553-2.57zM4.75 15.5a3.25 3.25 0 006.5 0 3.25 3.25 0 00-6.5 0z"/>
</svg>
