<svg xmlns="http://www.w3.org/2000/svg" fill="none" viewBox="0 0 24 24" stroke-width="1.5" stroke="currentColor" aria-hidden="true" data-slot="icon">
  <path stroke-linecap="round" stroke-linejoin="round" d="M15.75 3.75 18 6m0 0 2.25 2.25M18 6l2.25-2.25M18 6l-2.25 2.25m1.5 13.5c-8.284 0-15-6.716-15-15V4.5A2.25 2.25 0 0 1 4.5 2.25h1.372c.516 0 .966.351 1.091.852l1.106 4.423c.11.44-.054.902-.417 1.173l-1.293.97a1.062 1.062 0 0 0-.38 1.21 12.035 12.035 0 0 0 7.143 7.143c.441.162.928-.004 1.21-.38l.97-1.293a1.125 1.125 0 0 1 1.173-.417l4.423 1.106c.5.125.852.575.852 1.091V19.5a2.25 2.25 0 0 1-2.25 2.25h-2.25Z"/>
</svg>
