<svg xmlns="http://www.w3.org/2000/svg" fill="none" viewBox="0 0 24 24" stroke-width="1.5" stroke="currentColor" aria-hidden="true" data-slot="icon">
  <path stroke-linecap="round" stroke-linejoin="round" d="m3.75 7.5 16.5-4.125M12 6.75c-2.708 0-5.363.224-7.948.655C2.999 7.58 2.25 8.507 2.25 9.574v9.176A2.25 2.25 0 0 0 4.5 21h15a2.25 2.25 0 0 0 2.25-2.25V9.574c0-1.067-.75-1.994-1.802-2.169A48.329 48.329 0 0 0 12 6.75Zm-1.683 6.443-.005.005-.006-.005.006-.005.005.005Zm-.005 2.127-.005-.006.005-.005.005.005-.005.005Zm-2.116-.006-.005.006-.006-.006.005-.005.006.005Zm-.005-2.116-.006-.005.006-.005.005.005-.005.005ZM9.255 10.5v.008h-.008V10.5h.008Zm3.249 1.88-.007.004-.003-.007.006-.003.004.006Zm-1.38 5.126-.003-.006.006-.004.004.007-.006.003Zm.007-6.501-.003.006-.007-.003.004-.007.006.004Zm1.37 5.129-.007-.004.004-.006.006.003-.004.007Zm.504-1.877h-.008v-.007h.008v.007ZM9.255 18v.008h-.008V18h.008Zm-3.246-1.87-.007.004L6 16.127l.006-.003.004.006Zm1.366-5.119-.004-.006.006-.004.004.007-.006.003ZM7.38 17.5l-.003.006-.007-.003.004-.007.006.004Zm-1.376-5.116L6 12.38l.003-.007.007.004-.004.007Zm-.5 1.873h-.008v-.007h.008v.007ZM17.25 12.75a.75.75 0 1 1 0-1.5.75.75 0 0 1 0 1.5Zm0 4.5a.75.75 0 1 1 0-1.5.75.75 0 0 1 0 1.5Z"/>
</svg>
