<svg xmlns="http://www.w3.org/2000/svg" fill="none" viewBox="0 0 24 24" stroke-width="1.5" stroke="currentColor" aria-hidden="true">
  <path fill="#0F172A" d="M4.5 3.75a.75.75 0 000 1.5v-1.5zM18.75 19.5a.75.75 0 001.5 0h-1.5zm-6.75 0a.75.75 0 001.5 0H12zm-7.5-9a.75.75 0 000 1.5v-1.5zm.75 8.25h-1.5a1.5 1.5 0 001.5 1.5v-1.5zm0 0v-1.5a1.5 1.5 0 00-1.5 1.5h1.5zm0 0h1.5a1.5 1.5 0 00-1.5-1.5v1.5zm0 0v1.5a1.5 1.5 0 001.5-1.5h-1.5zm0-13.5c7.456 0 13.5 6.044 13.5 13.5h1.5c0-8.284-6.716-15-15-15v1.5zm-.75 0h.75v-1.5H4.5v1.5zM20.25 19.5v-.75h-1.5v.75h1.5zm-15-7.5A6.75 6.75 0 0112 18.75h1.5a8.25 8.25 0 00-8.25-8.25V12zm8.25 7.5v-.75H12v.75h1.5zm-9-7.5h.75v-1.5H4.5V12z"/>
</svg>
