<svg xmlns="http://www.w3.org/2000/svg" fill="none" viewBox="0 0 24 24" stroke-width="1.5" stroke="currentColor" aria-hidden="true" data-slot="icon">
  <path stroke-linecap="round" stroke-linejoin="round" d="M12 3v17.25m0 0c-1.472 0-2.882.265-4.185.75M12 20.25c1.472 0 2.882.265 4.185.75M18.75 4.97A48.416 48.416 0 0 0 12 4.5c-2.291 0-4.545.16-6.75.47m13.5 0c1.01.143 2.01.317 3 .52m-3-.52 2.62 10.726c.122.499-.106 1.028-.589 1.202a5.988 5.988 0 0 1-2.031.352 5.988 5.988 0 0 1-2.031-.352c-.483-.174-.711-.703-.59-1.202L18.75 4.971Zm-16.5.52c.99-.203 1.99-.377 3-.52m0 0 2.62 10.726c.122.499-.106 1.028-.589 1.202a5.989 5.989 0 0 1-2.031.352 5.989 5.989 0 0 1-2.031-.352c-.483-.174-.711-.703-.59-1.202L5.25 4.971Z"/>
</svg>
