<svg xmlns="http://www.w3.org/2000/svg" fill="none" viewBox="0 0 25 24" stroke-width="1.5" stroke="currentColor" aria-hidden="true">
  <path fill="#262E40" d="M5.5 2c-1.11 0-2 .89-2 2v12c0 1.11.89 2 2 2h1v2h-3v2h3c1.11 0 2-.89 2-2v-2h2v2c0 1.11.89 2 2 2h2l.75-2H12.5v-2h1c1.11 0 2-.89 2-2V4c0-1.11-.89-2-2-2h-8zm4 2.97a2 2 0 11.001 3.999A2 2 0 019.5 4.97zm-2 9.53h4V16h-4v-1.5zM20 22.167a2.75 2.75 0 01-2.75-2.75c0-1.834 2.75-4.928 2.75-4.928s2.75 3.094 2.75 4.928a2.75 2.75 0 01-2.75 2.75z"/>
</svg>
