<svg xmlns="http://www.w3.org/2000/svg" fill="none" viewBox="0 0 25 24" stroke-width="1.5" stroke="currentColor" aria-hidden="true">
  <path fill="#262E40" d="M10.5 2L8.1 5.4c.8-.2 1.6-.4 2.4-.4.8 0 1.6.2 2.4.4m6.6-.4c-1.11 0-2 .89-2 2v6.76c-.64.57-1 1.39-1 2.24 0 1.66 1.34 3 3 3s3-1.34 3-3c0-.85-.36-1.67-1-2.23V7c0-1.11-.89-2-2-2zm0 1c.55 0 1 .45 1 1v1h-2V7c0-.55.45-1 1-1zM6 6.7L1.8 7l1.8 3.8c.1-.8.4-1.6.8-2.3.5-.7 1-1.3 1.6-1.8zm4.5.3c-2.8 0-5 2.2-5 5s2.2 5 5 5 5-2.2 5-5-2.2-5-5-5zm-6.8 6.2L1.9 17l4.1.4c-.5-.5-1.1-1.2-1.5-1.9-.5-.7-.7-1.5-.8-2.3zm4.4 5.4l2.4 3.4 2.4-3.4c-.8.2-1.6.4-2.4.4-.9 0-1.7-.2-2.4-.4z"/>
</svg>
