<svg width="20" height="20" viewBox="0 0 20 20" fill="none" xmlns="http://www.w3.org/2000/svg">
<path d="M3.90478 14.1904C4.95675 14.1904 5.80955 15.0432 5.80955 16.0952C5.80955 17.1472 4.95675 18 3.90478 18C2.8528 18 2 17.1472 2 16.0952C2 15.0432 2.8528 14.1904 3.90478 14.1904Z" fill="#8D95A4"/>
<path d="M10.0004 18.0001C8.94772 18.0001 8.09558 17.148 8.09558 16.0953C8.09558 15.0427 8.94772 14.1906 10.0004 14.1906C11.053 14.1906 11.9051 15.0427 11.9051 16.0953C11.9051 17.148 11.053 18.0001 10.0004 18.0001Z" fill="#8D95A4"/>
<path d="M16.095 14.1906C17.1477 14.1906 17.9998 15.0427 17.9998 16.0953C17.9998 17.148 17.1477 18.0001 16.095 18.0001C15.0424 18.0001 14.1902 17.148 14.1902 16.0953C14.1902 15.0427 15.0424 14.1906 16.095 14.1906Z" fill="#8D95A4"/>
<path d="M3.90471 8.09536C4.95669 8.09536 5.80949 8.94815 5.80949 10.0001C5.80949 11.0521 4.95669 11.9049 3.90471 11.9049C2.85274 11.9049 1.99994 11.0521 1.99994 10.0001C1.99994 8.94815 2.85274 8.09536 3.90471 8.09536Z" fill="#8D95A4"/>
<path d="M10.0004 11.9049C8.94772 11.9049 8.09558 11.0528 8.09558 10.0001C8.09558 8.94749 8.94772 8.09536 10.0004 8.09536C11.053 8.09536 11.9051 8.94749 11.9051 10.0001C11.9051 11.0528 11.053 11.9049 10.0004 11.9049Z" fill="#8D95A4"/>
<path d="M16.095 11.9049C15.0424 11.9049 14.1902 11.0528 14.1902 10.0001C14.1902 8.94749 15.0424 8.09536 16.095 8.09536C17.1477 8.09536 17.9998 8.94749 17.9998 10.0001C17.9998 11.0528 17.1477 11.9049 16.095 11.9049Z" fill="#8D95A4"/>
<path d="M3.90471 2.00026C4.95669 2.00026 5.80949 2.85306 5.80949 3.90504C5.80949 4.95702 4.95669 5.80981 3.90471 5.80981C2.85274 5.80981 1.99994 4.95702 1.99994 3.90504C1.99994 2.85306 2.85274 2.00026 3.90471 2.00026Z" fill="#8D95A4"/>
<path d="M10.0004 5.80981C8.94772 5.80981 8.09558 4.95768 8.09558 3.90504C8.09558 2.8524 8.94772 2.00026 10.0004 2.00026C11.053 2.00026 11.9051 2.8524 11.9051 3.90504C11.9051 4.95768 11.053 5.80981 10.0004 5.80981Z" fill="#8D95A4"/>
<path d="M16.095 5.80981C15.0424 5.80981 14.1902 4.95768 14.1902 3.90504C14.1902 2.8524 15.0424 2.00026 16.095 2.00026C17.1477 2.00026 17.9998 2.8524 17.9998 3.90504C17.9998 4.95768 17.1477 5.80981 16.095 5.80981Z" fill="#8D95A4"/>
</svg>
