<svg width="20" height="20" viewBox="0 0 20 20" fill="currentColor">
<path fill-rule="evenodd" d="M0 1C0 0.447715 0.447715 0 1 0H5C5.55228 0 6 0.447715 6 1C6 1.55228 5.55228 2 5 2H3.41421L5.70711 4.29289C6.09763 4.68342 6.09763 5.31658 5.70711 5.70711C5.31658 6.09763 4.68342 6.09763 4.29289 5.70711L2 3.41421V5C2 5.55228 1.55228 6 1 6C0.447715 6 0 5.55228 0 5V1ZM9 2C8.44772 2 8 1.55228 8 1C8 0.447715 8.44772 0 9 0H13C13.5523 0 14 0.447715 14 1V5C14 5.55228 13.5523 6 13 6C12.4477 6 12 5.55228 12 5V3.41421L9.70711 5.70711C9.31658 6.09763 8.68342 6.09763 8.29289 5.70711C7.90237 5.31658 7.90237 4.68342 8.29289 4.29289L10.5858 2H9ZM0 9C0 8.44772 0.447715 8 1 8C1.55228 8 2 8.44772 2 9V10.5858L4.29289 8.29289C4.68342 7.90237 5.31658 7.90237 5.70711 8.29289C6.09763 8.68342 6.09763 9.31658 5.70711 9.70711L3.41421 12H5C5.55228 12 6 12.4477 6 13C6 13.5523 5.55228 14 5 14H1C0.447715 14 0 13.5523 0 13V9ZM13 8C13.5523 8 14 8.44772 14 9V13C14 13.5523 13.5523 14 13 14H9C8.44772 14 8 13.5523 8 13C8 12.4477 8.44772 12 9 12H10.5858L8.29289 9.70711C7.90237 9.31658 7.90237 8.68342 8.29289 8.29289C8.68342 7.90237 9.31658 7.90237 9.70711 8.29289L12 10.5858V9C12 8.44772 12.4477 8 13 8Z" clip-rule="evenodd" />
</svg>
