<svg width="20" height="20" viewBox="0 0 20 20" fill="none" xmlns="http://www.w3.org/2000/svg">
<path fill-rule="evenodd" clip-rule="evenodd" d="M4.29289 15.7071C3.90237 15.3166 3.90237 14.6834 4.29289 14.2929L9.29289 9.29289C9.68342 8.90237 10.3166 8.90237 10.7071 9.29289L15.7071 14.2929C16.0976 14.6834 16.0976 15.3166 15.7071 15.7071C15.3166 16.0976 14.6834 16.0976 14.2929 15.7071L10 11.4142L5.70711 15.7071C5.31658 16.0976 4.68342 16.0976 4.29289 15.7071ZM4.29289 9.70711C3.90237 9.31658 3.90237 8.68342 4.29289 8.29289L9.29289 3.29289C9.68342 2.90237 10.3166 2.90237 10.7071 3.29289L15.7071 8.29289C16.0976 8.68342 16.0976 9.31658 15.7071 9.70711C15.3166 10.0976 14.6834 10.0976 14.2929 9.70711L10 5.41421L5.70711 9.70711C5.31658 10.0976 4.68342 10.0976 4.29289 9.70711Z" fill="#374151"/>
</svg>
