<svg width="26" height="26" viewBox="0 0 26 26" fill="none" xmlns="http://www.w3.org/2000/svg">
<g clip-path="url(#clip0_1245_27713)">
<path d="M11.5 1C11.102 1 10.7194 1.15035 10.4401 1.42172C10.1569 1.69308 10 2.05612 10 2.4375C10 2.81888 10.1569 3.18559 10.4401 3.45328C10.7232 3.72465 11.102 3.875 11.5 3.875H14.5C14.898 3.875 15.2806 3.72465 15.5599 3.45328C15.8431 3.18192 16 2.81888 16 2.4375C16 2.05612 15.8431 1.68941 15.5599 1.42172C15.2768 1.15402 14.898 1 14.5 1H11.5V1Z" fill="#565989"/>
<path fill-rule="evenodd" clip-rule="evenodd" d="M4 5.3125C4 4.54974 4.3176 3.81999 4.8801 3.28093C5.4426 2.74187 6.20408 2.4375 7 2.4375C7 3.58163 7.47449 4.67809 8.31633 5.48852C9.16199 6.29895 10.3061 6.75 11.5 6.75H14.5C15.6939 6.75 16.838 6.29528 17.6837 5.48852C18.5293 4.67809 19 3.58163 19 2.4375C19.7959 2.4375 20.5574 2.74187 21.1199 3.28093C21.6824 3.81999 22 4.54974 22 5.3125V21.125C22 21.8878 21.6824 22.6175 21.1199 23.1566C20.5574 23.6956 19.7959 24 19 24H7C6.20408 24 5.4426 23.6956 4.8801 23.1566C4.3176 22.6175 4 21.8878 4 21.125V5.3125ZM18.5599 13.5158C18.8316 13.2444 18.9847 12.8814 18.9809 12.5037C18.9809 12.126 18.8202 11.7666 18.5408 11.4989C18.2615 11.2312 17.8865 11.0808 17.4923 11.0772C17.0982 11.0772 16.7194 11.2202 16.4362 11.4805L11.4962 16.2148L9.55612 14.3555C9.27296 14.0952 8.89413 13.9485 8.5 13.9522C8.10587 13.9522 7.73087 14.1062 7.45153 14.3739C7.17219 14.6416 7.01531 15.001 7.01148 15.3787C7.01148 15.7564 7.16071 16.1194 7.4324 16.3908L10.4324 19.2658C10.7156 19.5335 11.0944 19.6875 11.4923 19.6875C11.8903 19.6875 12.273 19.5371 12.5523 19.2658L18.5523 13.5158H18.5599Z" fill="#FC6D26"/>
</g>
<defs>
<clipPath id="clip0_1245_27713">
<rect width="18" height="23" fill="white" transform="translate(4 1)"/>
</clipPath>
</defs>
</svg>
