<svg width="20" height="20" viewBox="0 0 20 20" fill="none" xmlns="http://www.w3.org/2000/svg">
<path fill-rule="evenodd" clip-rule="evenodd" d="M2 10C2 12.2091 3.79086 14 6 14H9V17C9 17.5523 9.44772 18 10 18C10.5523 18 11 17.5523 11 17V14H14C16.2091 14 18 12.2091 18 10C18 7.79086 16.2091 6 14 6C14 3.79086 12.2091 2 10 2C7.79086 2 6 3.79086 6 6C3.79086 6 2 7.79086 2 10ZM11 14H9L9 9.41421L7.70711 10.7071C7.31658 11.0976 6.68342 11.0976 6.29289 10.7071C5.90237 10.3166 5.90237 9.68342 6.29289 9.29289L9.29289 6.29289C9.68342 5.90237 10.3166 5.90237 10.7071 6.29289L13.7071 9.29289C14.0976 9.68342 14.0976 10.3166 13.7071 10.7071C13.3166 11.0976 12.6834 11.0976 12.2929 10.7071L11 9.41421V14Z" fill="#4A5568"/>
</svg>
