<svg width="20" height="20" viewBox="0 0 20 20" fill="none" xmlns="http://www.w3.org/2000/svg">
<path d="M4 4C4 2.89543 4.89543 2 6 2H10.5858C11.1162 2 11.6249 2.21071 12 2.58579L15.4142 6C15.7893 6.37507 16 6.88378 16 7.41421V16C16 17.1046 15.1046 18 14 18H12.4722C13.4223 16.9385 14 15.5367 14 14C14 10.6863 11.3137 8 8 8C6.46329 8 5.06151 8.57771 4 9.52779V4Z" fill="#374151"/>
<path fill-rule="evenodd" clip-rule="evenodd" d="M8 10C5.79086 10 4 11.7909 4 14C4 14.7414 4.20229 15.4364 4.55397 16.0318L3.29289 17.2929C2.90237 17.6834 2.90237 18.3166 3.29289 18.7071C3.68342 19.0976 4.31658 19.0976 4.70711 18.7071L5.96818 17.446C6.56362 17.7977 7.25862 18 8 18C10.2091 18 12 16.2091 12 14C12 11.7909 10.2091 10 8 10ZM6 14C6 12.8954 6.89543 12 8 12C9.10457 12 10 12.8954 10 14C10 15.1046 9.10457 16 8 16C7.44744 16 6.94881 15.7772 6.58579 15.4142C6.22276 15.0512 6 14.5526 6 14Z" fill="#374151"/>
</svg>
