<svg width="20" height="20" viewBox="0 0 20 20" fill="none" xmlns="http://www.w3.org/2000/svg">
<path fill-rule="evenodd" clip-rule="evenodd" d="M6 2C4.89543 2 4 2.89543 4 4V16C4 17.1046 4.89543 18 6 18H14C15.1046 18 16 17.1046 16 16V7.41421C16 6.88378 15.7893 6.37507 15.4142 6L12 2.58579C11.6249 2.21071 11.1162 2 10.5858 2H6ZM11 8C11 7.44772 10.5523 7 10 7C9.44772 7 9 7.44772 9 8V10H7C6.44772 10 6 10.4477 6 11C6 11.5523 6.44772 12 7 12H9V14C9 14.5523 9.44771 15 10 15C10.5523 15 11 14.5523 11 14L11 12H13C13.5523 12 14 11.5523 14 11C14 10.4477 13.5523 10 13 10H11V8Z" fill="#4A5568"/>
</svg>
