<svg width="20" height="20" viewBox="0 0 20 20" fill="none" xmlns="http://www.w3.org/2000/svg">
<g clip-path="url(#clip0)">
<path d="M14.2426 15.2427C11.8994 17.5858 8.10041 17.5858 5.75727 15.2427C4.5857 14.0711 3.99991 12.5356 3.99991 11C3.99991 9.46449 4.58569 7.92896 5.75727 6.75738C5.75727 9 6 11 9 12C9 10 10 4 11.5 3C12.5 5 13.071 5.58581 14.2425 6.75738C15.4141 7.92896 15.9999 9.46449 15.9999 11C15.9999 12.5356 15.4141 14.0711 14.2426 15.2427Z" fill="#374151" stroke="#374151" stroke-width="2" stroke-linecap="round" stroke-linejoin="round"/>
<path d="M7.87868 15.1213C9.05025 16.2929 10.9497 16.2929 12.1213 15.1213C12.7071 14.5355 13 13.7678 13 13C13 12.2322 12.7071 11.4645 12.1213 10.8787C11.5355 10.2929 11.25 10 10.75 9C10 9.5 9.50005 12.5 9.50005 13.5C7.87868 13.5 7 13 7 13C7 13.7678 7.29289 14.5355 7.87868 15.1213Z" fill="white"/>
</g>
<defs>
<clipPath id="clip0">
<rect width="20" height="20" fill="white"/>
</clipPath>
</defs>
</svg>
