<svg width="26" height="18" viewBox="0 0 26 18" fill="none" xmlns="http://www.w3.org/2000/svg">
	<path
		d="M17.6597 0H14.17C13.845 0 13.5322 0.140574 13.2925 0.393607L9.29906 4.61083C9.295 4.61551 9.29094 4.62489 9.28687 4.62957C8.6125 5.36056 8.62469 6.52732 9.20156 7.25362C9.7175 7.90495 10.8022 8.07832 11.4806 7.38014C11.4847 7.37545 11.4928 7.37545 11.4969 7.37076L14.7428 3.94076C15.0069 3.6643 15.4212 3.68304 15.6609 3.98762C15.9047 4.29219 15.8844 4.76546 15.6203 5.04661L14.56 6.16651L20.475 11.7051C20.5928 11.8176 20.6984 11.9394 20.7959 12.0659V2.99891L18.5778 0.440465C18.3381 0.159317 18.005 0 17.6597 0ZM22.1 3.00828V13.4998C22.1 14.3292 22.6809 14.9992 23.4 14.9992H26V3.00828H22.1ZM0 14.9946H2.6C3.31906 14.9946 3.9 14.3245 3.9 13.4951V3.00828H0V14.9946ZM19.6584 12.8719L13.5931 7.1927L12.3744 8.4813C11.1678 9.75115 9.31937 9.62932 8.24281 8.27512C7.15 6.8975 7.23531 4.76546 8.42156 3.50966L11.7447 0H8.34031C7.995 0 7.66594 0.159317 7.42219 0.440465L5.2 2.99891V13.4904H5.94344L9.62 17.3281C10.7331 18.373 12.3703 18.1762 13.2762 16.8923L13.2844 16.8829L14.0116 17.6092C14.6575 18.2184 15.6122 18.1012 16.1362 17.3562L17.4119 15.5475L17.6312 15.7537C18.1878 16.2738 19.0084 16.1801 19.4594 15.5334L19.8453 14.9852C20.3003 14.3385 20.215 13.3967 19.6584 12.8719Z"
		fill="black"
	/>
</svg>
