<svg width="20" height="20" viewBox="0 0 20 20" fill="none" xmlns="http://www.w3.org/2000/svg">
<path fill-rule="evenodd" clip-rule="evenodd" d="M9 3C9 2.44772 9.44772 2 10 2C10.5523 2 11 2.44772 11 3V8V8.5C11 8.77614 11.2239 9 11.5 9C11.7761 9 12 8.77614 12 8.5V8V4C12 3.44772 12.4477 3 13 3C13.5523 3 14 3.44772 14 4V8V8.5C14 8.77614 14.2239 9 14.5 9C14.7761 9 15 8.77614 15 8.5V8V6C15 5.44772 15.4477 5 16 5C16.5523 5 17 5.44772 17 6V11C17 14.866 13.866 18 10 18C6.13401 18 3 14.866 3 11V9C3 8.44772 3.44772 8 4 8C4.55228 8 5 8.44772 5 9V11V11.5C5 11.7761 5.22386 12 5.5 12C5.77614 12 6 11.7761 6 11.5V11V10V8V4C6 3.44772 6.44772 3 7 3C7.55228 3 8 3.44772 8 4V8V8.5C8 8.77614 8.22386 9 8.5 9C8.77614 9 9 8.77614 9 8.5V8V3Z" fill="#374151"/>
</svg>
