<svg width="20" height="20" viewBox="0 0 20 20" fill="none" xmlns="http://www.w3.org/2000/svg">
<path d="M10.7071 2.29289C10.3166 1.90237 9.68342 1.90237 9.29289 2.29289L2.29289 9.29289C1.90237 9.68342 1.90237 10.3166 2.29289 10.7071C2.68342 11.0976 3.31658 11.0976 3.70711 10.7071L4 10.4142V17C4 17.5523 4.44772 18 5 18H7C7.55228 18 8 17.5523 8 17V15C8 14.4477 8.44772 14 9 14H11C11.5523 14 12 14.4477 12 15V17C12 17.5523 12.4477 18 13 18H15C15.5523 18 16 17.5523 16 17V10.4142L16.2929 10.7071C16.6834 11.0976 17.3166 11.0976 17.7071 10.7071C18.0976 10.3166 18.0976 9.68342 17.7071 9.29289L10.7071 2.29289Z" fill="#4A5568"/>
</svg>
