<svg width="26" height="26" viewBox="0 0 26 26" fill="none" xmlns="http://www.w3.org/2000/svg">
<g clip-path="url(#clip0_1245_27725)">
<path fill-rule="evenodd" clip-rule="evenodd" d="M13 2C12.6176 2 12.2537 2.15379 11.9853 2.43137C11.7169 2.7052 11.5625 3.08031 11.5625 3.46667V4.93333C11.5625 5.32344 11.7132 5.6948 11.9853 5.96863C12.2537 6.24246 12.6213 6.4 13 6.4C13.3787 6.4 13.7463 6.24621 14.0147 5.96863C14.2831 5.6948 14.4375 5.31969 14.4375 4.93333V3.46667C14.4375 3.07656 14.2868 2.7052 14.0147 2.43137C13.7463 2.15754 13.3787 2 13 2Z" fill="#565989"/>
<path fill-rule="evenodd" clip-rule="evenodd" d="M23.6581 5.79234C23.1176 5.24094 22.386 4.93335 21.625 4.93335H17.3125C17.3125 6.09993 16.8566 7.21775 16.0478 8.04298C15.239 8.86822 14.1434 9.33335 13 9.33335C11.8566 9.33335 10.761 8.86822 9.95221 8.04298C9.14338 7.21775 8.6875 6.09993 8.6875 4.93335H4.375C3.61397 4.93335 2.88235 5.24094 2.34191 5.79234C1.80147 6.34375 1.5 7.09021 1.5 7.86668V21.0667C1.5 21.8432 1.80147 22.5896 2.34191 23.141C2.88235 23.6924 3.61397 24 4.375 24H21.625C22.386 24 23.1176 23.6924 23.6581 23.141C24.1985 22.5896 24.5 21.8432 24.5 21.0667V7.86668C24.5 7.09021 24.1985 6.34375 23.6581 5.79234ZM6.44485 11.4452C6.84926 11.0326 7.39706 10.8 7.97059 10.8C8.54412 10.8 9.09191 11.0326 9.49632 11.4452C9.90073 11.8578 10.1287 12.4167 10.1287 13.0019C10.1287 13.5871 9.90073 14.146 9.49632 14.5586C9.09191 14.9712 8.54412 15.2038 7.97059 15.2038C7.39706 15.2038 6.84926 14.9712 6.44485 14.5586C6.04044 14.146 5.8125 13.5871 5.8125 13.0019C5.8125 12.4167 6.04044 11.8578 6.44485 11.4452ZM11.4926 21.0667H4.44853C4.34191 20.534 4.35294 19.9826 4.48162 19.4575C4.61029 18.9286 4.84926 18.4372 5.1875 18.0171C5.52573 17.5969 5.94853 17.2556 6.43015 17.023C6.91176 16.7905 7.4375 16.6704 7.97059 16.6704C8.50368 16.6704 9.02941 16.7905 9.51103 17.023C9.99265 17.2556 10.4154 17.5932 10.7537 18.0171C11.0919 18.4372 11.3309 18.9286 11.4596 19.4575C11.5882 19.9864 11.5993 20.534 11.4926 21.0667ZM19.7684 19.1686C19.5 19.4425 19.1324 19.6 18.7537 19.6H15.8787C15.4963 19.6 15.1324 19.4462 14.864 19.1686C14.5956 18.8911 14.4412 18.5197 14.4412 18.1333C14.4412 17.747 14.5919 17.3719 14.864 17.0981C15.1324 16.8242 15.5 16.6667 15.8787 16.6667H18.7537C19.136 16.6667 19.5 16.8205 19.7684 17.0981C20.0368 17.3719 20.1912 17.747 20.1912 18.1333C20.1912 18.5197 20.0404 18.8948 19.7684 19.1686ZM21.2059 14.7686C20.9375 15.0425 20.5699 15.2 20.1912 15.2H15.8787C15.4963 15.2 15.1324 15.0462 14.864 14.7686C14.5956 14.4948 14.4412 14.1197 14.4412 13.7333C14.4412 13.347 14.5919 12.9719 14.864 12.6981C15.1324 12.4242 15.5 12.2667 15.8787 12.2667H20.1912C20.5735 12.2667 20.9375 12.4205 21.2059 12.6981C21.4743 12.9719 21.6287 13.347 21.6287 13.7333C21.6287 14.1197 21.4779 14.4948 21.2059 14.7686Z" fill="#FC6D26"/>
</g>
<defs>
<clipPath id="clip0_1245_27725">
<rect width="23" height="22" fill="white" transform="translate(1.5 2)"/>
</clipPath>
</defs>
</svg>
