<svg width="20" height="20" viewBox="0 0 20 20" fill="none" xmlns="http://www.w3.org/2000/svg">

<path d="M17.4142 2.58579C16.6332 1.80474 15.3668 1.80474 14.5858 2.58579L7 10.1716V13H9.82842L17.4142 5.41421C18.1953 4.63316 18.1953 3.36683 17.4142 2.58579Z" fill="#4A5568"/>
<path fill-rule="evenodd" clip-rule="evenodd" d="M2 6C2 4.89543 2.89543 4 4 4H8C8.55228 4 9 4.44772 9 5C9 5.55228 8.55228 6 8 6H4V16H14V12C14 11.4477 14.4477 11 15 11C15.5523 11 16 11.4477 16 12V16C16 17.1046 15.1046 18 14 18H4C2.89543 18 2 17.1046 2 16V6Z" fill="#4A5568"/>
</svg>
