<svg width="20" height="20" viewBox="0 0 20 20" fill="none" xmlns="http://www.w3.org/2000/svg">
<path d="M9 9C9 7.89543 9.89543 7 11 7C12.1046 7 13 7.89543 13 9C13 10.1046 12.1046 11 11 11C10.4474 11 9.94881 10.7772 9.58579 10.4142C9.22276 10.0512 9 9.55256 9 9Z" fill="#374151"/>
<path fill-rule="evenodd" clip-rule="evenodd" d="M10 18C14.4183 18 18 14.4183 18 10C18 5.58172 14.4183 2 10 2C5.58172 2 2 5.58172 2 10C2 14.4183 5.58172 18 10 18ZM11 5C8.79086 5 7 6.79086 7 9C7 9.74138 7.20229 10.4364 7.55397 11.0318L5.29289 13.2929C4.90237 13.6834 4.90237 14.3166 5.29289 14.7071C5.68342 15.0976 6.31658 15.0976 6.70711 14.7071L8.96818 12.446C9.56362 12.7977 10.2586 13 11 13C13.2091 13 15 11.2091 15 9C15 6.79086 13.2091 5 11 5Z" fill="#374151"/>
</svg>
