<svg width="20" height="20" viewBox="0 0 20 20" fill="none" xmlns="http://www.w3.org/2000/svg">
<path fill-rule="evenodd" clip-rule="evenodd" d="M10 2C7.79086 2 6 3.79086 6 6V7H5C4.49046 7 4.06239 7.38314 4.00612 7.88957L3.00612 16.8896C2.97471 17.1723 3.06518 17.455 3.25488 17.6669C3.44458 17.8789 3.71556 18 4 18H16C16.2844 18 16.5554 17.8789 16.7451 17.6669C16.9348 17.455 17.0253 17.1723 16.9939 16.8896L15.9939 7.88957C15.9376 7.38314 15.5096 7 15 7H14V6C14 3.79086 12.2091 2 10 2ZM12 7V6C12 4.89543 11.1046 4 10 4C8.89543 4 8 4.89543 8 6V7H12ZM6 10C6 9.44772 6.44772 9 7 9C7.55228 9 8 9.44772 8 10C8 10.5523 7.55228 11 7 11C6.44772 11 6 10.5523 6 10ZM13 9C12.4477 9 12 9.44772 12 10C12 10.5523 12.4477 11 13 11C13.5523 11 14 10.5523 14 10C14 9.44772 13.5523 9 13 9Z" fill="#374151"/>
</svg>
