<svg width="20" height="20" viewBox="0 0 20 20" fill="none" xmlns="http://www.w3.org/2000/svg">
    <path fill="#4B5563" d="M 94 122 C 94 123.7 92.7 125 91 125 L 38 125 C 36.3 125 35 123.7 35 122 L 35 109 L 94 109 Z M 94 107 L 35 107 L 35 21 L 94 21 Z M 94 19 L 35 19 L 35 6 C 35 4.3 36.3 3 38 3 L 91 3 C 92.7 3 94 4.3 94 6 Z M 94 19 " transform="matrix(0.15625,0,0,0.15625,0,0)" />
    <path fill="#fff" d="M 73 10 L 55 10 C 54.4 10 54 10.4 54 11 C 54 11.6 54.4 12 55 12 L 73 12 C 73.6 12 74 11.6 74 11 C 74 10.4 73.6 10 73 10 Z M 73 10 " transform="matrix(0.15625,0,0,0.15625,0,0)" />
    <path fill="#fff" d="M 64 123 C 67.3 123 70 120.3 70 117 C 70 113.7 67.3 111 64 111 C 60.7 111 58 113.7 58 117 C 58 120.3 60.7 123 64 123 Z M 64 113 C 66.2 113 68 114.8 68 117 C 68 119.2 66.2 121 64 121 C 61.8 121 60 119.2 60 117 C 60 114.8 61.8 113 64 113 Z M 64 113 " transform="matrix(0.15625,0,0,0.15625,0,0)" />
</svg>