<svg width="20" height="20" viewBox="0 0 20 20" fill="none" xmlns="http://www.w3.org/2000/svg">

<path fill-rule="evenodd" clip-rule="evenodd" d="M17.7071 9.29289C18.0976 9.68342 18.0976 10.3166 17.7071 10.7071L10.7071 17.7071C10.3166 18.0976 9.68342 18.0976 9.29289 17.7071L2.29289 10.7071C2.0976 10.5118 1.99997 10.2558 2 9.99988V5C2 3.34315 3.34315 2 5 2H10.0003C10.2561 2.00007 10.5119 2.0977 10.7071 2.29289L17.7071 9.29289ZM5 6C5.55228 6 6 5.55228 6 5C6 4.44772 5.55228 4 5 4C4.44772 4 4 4.44772 4 5C4 5.55228 4.44772 6 5 6Z" fill="#4A5568"/>
</svg>
