<svg width="26" height="26" viewBox="0 0 26 26" fill="none" xmlns="http://www.w3.org/2000/svg">
<g clip-path="url(#clip0_1245_27719)">
<path d="M14.5089 6.89794C14.5089 8.11179 14.0319 9.27643 13.1817 10.1327C12.3315 10.9922 11.1828 11.4745 9.98211 11.4745C8.78146 11.4745 7.62948 10.9922 6.78253 10.1327C5.93234 9.27315 5.45532 8.11179 5.45532 6.89794C5.45532 5.6841 5.93234 4.51946 6.78253 3.6632C7.62948 2.80367 8.78146 2.32141 9.98211 2.32141C11.1828 2.32141 12.3347 2.80367 13.1817 3.6632C14.0319 4.52274 14.5089 5.6841 14.5089 6.89794Z" fill="#FC6D26"/>
<path d="M19.0357 23.6786C19.0357 21.2509 18.0817 18.9249 16.3846 17.2058C14.6874 15.49 12.3835 14.5255 9.98216 14.5255C7.58085 14.5255 5.2769 15.49 3.57976 17.2058C1.88262 18.9216 0.928589 21.2509 0.928589 23.6786H19.0357Z" fill="#FC6D26"/>
<path d="M17.5268 9.94897C17.1276 9.94897 16.7415 10.1097 16.4591 10.3951C16.1768 10.6806 16.0178 11.0677 16.0178 11.4745C16.0178 11.8813 16.1768 12.2684 16.4591 12.5538C16.7415 12.8392 17.1244 13 17.5268 13H23.5625C23.9616 13 24.3478 12.8392 24.6301 12.5538C24.9124 12.2684 25.0714 11.8813 25.0714 11.4745C25.0714 11.0677 24.9124 10.6806 24.6301 10.3951C24.3478 10.1097 23.9648 9.94897 23.5625 9.94897H17.5268Z" fill="#565989"/>
</g>
<defs>
<clipPath id="clip0_1245_27719">
<rect width="24.1429" height="21.3571" fill="white" transform="translate(0.928589 2.32141)"/>
</clipPath>
</defs>
</svg>
