<svg width="26" height="26" viewBox="0 0 26 26" fill="none" xmlns="http://www.w3.org/2000/svg">
<g clip-path="url(#clip0_1245_27707)">
<path d="M9.96477 11.4516C11.1728 11.4516 12.3279 10.9619 13.1818 10.0905C14.0357 9.21909 14.5156 8.04034 14.5156 6.80756C14.5156 5.57477 14.0357 4.39602 13.1818 3.52463C12.3312 2.65661 11.1728 2.16687 9.96477 2.16687C8.75673 2.16687 7.60165 2.65661 6.74775 3.528C5.89385 4.3994 5.41394 5.57815 5.41394 6.81093C5.41394 8.04372 5.89385 9.22247 6.74775 10.0939C7.60165 10.9653 8.75673 11.455 9.96477 11.455V11.4516Z" fill="#FC6D26"/>
<path d="M9.9648 14.5488C12.3776 14.5488 14.691 15.5283 16.3988 17.2677C18.1066 19.0105 19.0631 21.3714 19.0631 23.8336H0.866455C0.866455 21.3714 1.82627 19.0105 3.53076 17.2677C5.23856 15.5249 7.55203 14.5488 9.9648 14.5488Z" fill="#FC6D26"/>
<path d="M22.0981 8.35781C22.0981 7.94575 21.9393 7.55396 21.6546 7.2635C21.37 6.97303 20.9828 6.81091 20.5823 6.81091C20.1818 6.81091 19.7946 6.97303 19.51 7.2635C19.2253 7.55396 19.0665 7.94913 19.0665 8.35781V9.9047H17.5506C17.1468 9.9047 16.7629 10.0668 16.4783 10.3573C16.1937 10.6478 16.0348 11.0429 16.0348 11.4516C16.0348 11.8603 16.1937 12.2554 16.4783 12.5459C16.7629 12.8364 17.1468 12.9985 17.5506 12.9985H19.0665V14.5454C19.0665 14.9574 19.2253 15.3492 19.51 15.6397C19.7946 15.9302 20.1785 16.0923 20.5823 16.0923C20.9861 16.0923 21.37 15.9302 21.6546 15.6397C21.9393 15.3492 22.0981 14.9574 22.0981 14.5454V12.9985H23.614C24.0178 12.9985 24.4017 12.8364 24.6863 12.5459C24.971 12.2554 25.1298 11.8637 25.1298 11.4516C25.1298 11.0395 24.971 10.6478 24.6863 10.3573C24.4017 10.0668 24.0145 9.9047 23.614 9.9047H22.0981V8.35781Z" fill="#565989"/>
</g>
<defs>
<clipPath id="clip0_1245_27707">
<rect width="24.2667" height="21.6667" fill="white" transform="translate(0.866455 2.16687)"/>
</clipPath>
</defs>
</svg>
