<svg width="23" height="18" viewBox="0 0 23 18" fill="none" xmlns="http://www.w3.org/2000/svg">
<path d="M1.98305 0.0142294L3.66212 0L2.82418 0.837942H1.66037C1.50204 0.986955 1.48968 1.16381 1.48968 1.30347C1.48968 1.45864 1.55047 1.62094 1.66037 1.67588L19.6918 1.66192C20.797 1.66106 21.6934 2.55674 21.6934 3.66192V7.61907H17.2372C16.1931 7.61907 15.3468 8.46543 15.3468 9.50947C15.3468 10.5908 16.2233 11.4674 17.3047 11.4674H21.6934V15.4106C21.6934 16.5151 20.798 17.4106 19.6934 17.4106H2C0.89543 17.4106 0 16.5151 0 15.4106V2.01416C0 0.916201 0.885136 0.0235337 1.98305 0.0142294Z" fill="black"/>
<path d="M20.9873 11.1415H17.3562C16.4692 11.1415 15.7501 10.4224 15.7501 9.53541C15.7501 8.64841 16.4692 7.92935 17.3562 7.92935H20.9873C21.8743 7.92935 22.5933 8.64841 22.5933 9.53541C22.5933 10.4224 21.8743 11.1415 20.9873 11.1415Z" fill="black"/>
<circle cx="17.2398" cy="9.52771" r="0.682768" fill="white"/>
</svg>
