<svg width="25" height="27" viewBox="0 0 25 27" fill="none" xmlns="http://www.w3.org/2000/svg">
	<rect x="2.53284" y="11.825" width="18.7451" height="1.99392" transform="rotate(-39.1129 2.53284 11.825)" fill="black" />
	<path
		d="M10.943 6.22032L10.0225 6.8965C9.91602 6.97484 9.83163 7.01672 9.81709 6.99883C9.79885 6.97641 9.89227 6.87029 10.0259 6.76167L10.5692 6.31988C10.6692 6.23859 10.7717 6.16372 10.8613 6.10644C10.9159 6.07143 10.9819 6.01541 11.0189 5.97375L11.266 5.69508C11.3165 5.63827 11.2954 5.62912 11.2239 5.67337C11.0016 5.81021 10.7388 5.99939 10.4814 6.20849L10.4277 6.14245C10.4178 6.13034 10.3508 6.16841 10.2787 6.22705L10.0164 6.44028C9.94428 6.49892 9.89333 6.5568 9.90317 6.56891L9.95686 6.63495L9.93637 6.65161C9.41431 7.07607 9.05588 7.4925 9.17683 7.54248C9.26282 7.57792 9.59325 7.39496 9.97168 7.11698L10.8453 6.47525C10.9519 6.39704 11.0362 6.35503 11.0507 6.37291C11.0689 6.39534 10.9755 6.50146 10.8419 6.61008L10.2986 7.05187C10.1986 7.13316 10.0961 7.20803 10.0065 7.26531C9.95194 7.30032 9.88585 7.35634 9.84894 7.398L9.60176 7.67667C9.55129 7.73347 9.57235 7.74263 9.64392 7.69838C9.86619 7.56154 10.129 7.37236 10.3864 7.16326L10.4401 7.2293C10.4499 7.24141 10.517 7.20334 10.5891 7.1447L10.8514 6.93147C10.9235 6.87283 10.9745 6.81495 10.9646 6.80284L10.9107 6.73652C11.2916 6.42477 11.6188 6.09546 11.6957 5.93217C11.803 5.70415 11.4364 5.85775 10.943 6.22032Z"
		fill="black"
	/>
	<rect x="5.14746" y="12.1894" width="18.7451" height="7.2932" transform="rotate(-36.281 5.14746 12.1894)" fill="black" />
	<circle cx="14.8733" cy="9.57371" r="2.99487" transform="rotate(-36.281 14.8733 9.57371)" fill="white" />
	<path
		d="M15.3293 9.05722L14.2884 9.56705C14.1681 9.62636 14.0491 9.61957 13.9992 9.5516C13.9367 9.46638 13.9984 9.31486 14.1372 9.21297L14.7017 8.79857C14.8056 8.72231 14.922 8.66665 15.0332 8.6397C15.1009 8.62301 15.1669 8.56653 15.1916 8.50736L15.3574 8.11208C15.3914 8.03162 15.3388 7.97775 15.2481 7.99523C14.9658 8.04799 14.6642 8.18331 14.3964 8.37905L14.2122 8.12809C14.1784 8.08208 14.0895 8.08944 14.0145 8.14444L13.7421 8.34446C13.6671 8.39946 13.6335 8.48211 13.6672 8.52812L13.8515 8.77908L13.8302 8.7947C13.2878 9.19286 13.0617 9.79887 13.3611 10.1013C13.5738 10.3161 14.0174 10.2921 14.4454 10.0826L15.4333 9.59877C15.5539 9.53998 15.6725 9.54625 15.7224 9.61422C15.785 9.69944 15.7232 9.85096 15.5844 9.95285L15.0199 10.3673C14.916 10.4435 14.7996 10.4992 14.6884 10.5261C14.6207 10.5428 14.5547 10.5993 14.53 10.6585L14.3642 11.0537C14.3302 11.1342 14.3829 11.1881 14.4735 11.1706C14.7559 11.1178 15.0575 10.9825 15.3252 10.7868L15.5094 11.0377C15.5432 11.0837 15.6322 11.0764 15.7071 11.0214L15.9796 10.8214C16.0545 10.7664 16.0882 10.6837 16.0544 10.6377L15.8694 10.3857C16.2628 10.0897 16.5285 9.67175 16.4904 9.34492C16.4371 8.88847 15.8871 8.78368 15.3293 9.05722Z"
		fill="black"
	/>
	<path
		d="M2.48305 9.60365L4.16212 9.58942L3.32418 10.4274H2.16037C2.00204 10.5764 1.98968 10.7532 1.98968 10.8929C1.98968 11.0481 2.05047 11.2104 2.16037 11.2653L20.1918 11.2513C21.297 11.2505 22.1934 12.1462 22.1934 13.2513V17.2085H17.7372C16.6931 17.2085 15.8468 18.0548 15.8468 19.0989C15.8468 20.1802 16.7233 21.0568 17.8047 21.0568H22.1934V25C22.1934 26.1046 21.298 27 20.1934 27H2.5C1.39543 27 0.5 26.1046 0.5 25V11.6036C0.5 10.5056 1.38514 9.61295 2.48305 9.60365Z"
		fill="black"
	/>
	<path
		d="M21.4873 20.7309H17.8562C16.9692 20.7309 16.2501 20.0118 16.2501 19.1248C16.2501 18.2378 16.9692 17.5188 17.8562 17.5188H21.4873C22.3743 17.5188 23.0933 18.2378 23.0933 19.1248C23.0933 20.0118 22.3743 20.7309 21.4873 20.7309Z"
		fill="black"
	/>
	<circle cx="17.7398" cy="19.1171" r="0.682768" fill="white" />
</svg>
