<svg width="16" height="16" viewBox="0 0 16 16" fill="none" xmlns="http://www.w3.org/2000/svg">
<path d="M11.4444 13.7C10.8889 13.7 8.94444 12.5 9.77778 8.9C10.7214 4.82372 8.11111 3.2 6.44444 3.2C6.44444 3.2 5.61111 2 4.77778 2V3.5L2 7.1C2.11181 7.60984 2.21251 7.92952 2.55556 8.3C2.8986 8.67048 3.18283 8.86176 3.66667 8.9C4.44683 8.96165 5.33333 7.7 5.33333 7.7C5.59585 7.7 5.96468 7.62126 6.31065 7.4M4.22222 13.7C3.94444 13 3.66667 11.3 4.77778 10.1C5.95908 8.82419 6.31065 8.3 6.31065 7.4M6.31065 7.4C6.81889 7.07496 7.27778 6.44236 7.27778 5.3M5.88889 2.3C7.83333 1.4 13.6667 2.9 10.0556 12.5M7.06944 11.3C6.23612 11.9 6.23611 13.4 7.06943 14M11.4444 4.7H10.8889M11.7222 5.9H11.1667M12 7.1H11.4444M12 8.3H11.1667M11.7222 9.5H11.1667M11.4444 10.7H10.8889M10.8889 3.5H10.3333M10.0556 2.3H8.38889M9.77778 8.3H8.94444M9.5 9.5H8.38889M5.61111 5.3C5.61111 5.6 5.61111 5.6 5.33333 5.6C5.05556 5.6 5.05556 5.6 5.05556 5.3C5.05556 5 5.05556 5 5.33333 5C5.61111 5 5.61111 5 5.61111 5.3Z" stroke="black" stroke-linecap="round" stroke-linejoin="round"/>
</svg>
