<svg width="16" height="16" viewBox="0 0 16 16" fill="none" xmlns="http://www.w3.org/2000/svg">
<path d="M7.6069 7.40001C8.08046 8.10001 9.31172 9.50001 10.4483 9.50001C11.5848 9.50001 12.9345 8.2 13.2897 7.7V5.6C13.2897 5.6 12.0585 7.40001 11.1586 7.40001C10.7023 7.40001 10.1609 6.65626 9.73793 6.2M9.73793 6.2C9.32675 5.75644 9.02759 5.3 9.02759 5.3M9.73793 6.2C9.97471 5.70635 10.0221 5.3 11.1586 5.3C12.2241 5.3 12.9345 4.7 12.9345 4.1C12.9345 3.37798 11.869 3.8 11.869 3.2C11.869 2.84182 10.8034 2.6 10.8034 2.6C10.4259 2.45442 10.0242 2.08061 9.73793 2V2.9C8.79081 3 6.15189 3.45758 4.59386 5.3C2.81799 7.4 1.71101 8.5 2.06618 10C2.35032 11.2 3.81547 11.3 3.81547 11.3L3.34483 14H7.25495C7.23842 13.8866 7.20008 13.7411 7.13421 13.5907M14 2V14M7.43524 9.8C7.57947 11.24 6.12499 12.1 5.59133 12.5C6.20209 12.5 6.96771 13.2107 7.13421 13.5907M7.43524 9.8C7.92202 10.3406 8.17631 11.8326 8.07754 12.5C8.79005 12.5 9.71469 13.2271 9.74089 13.5907H7.13421M7.43524 9.8C7.8767 8.99552 8.07754 8 8.07754 8" stroke="black" stroke-linecap="round" stroke-linejoin="round"/>
</svg>
