<svg width="16" height="16" viewBox="0 0 16 16" fill="none" xmlns="http://www.w3.org/2000/svg">
<path d="M5.6 6.8H10.4M2 11.6L14 11.6M2 6.8L14 6.8M14 5V14L2 14L2 5M12.2 6.8V5.6M3.80001 6.8V5.6M3.80001 8V8.6M6.8 8V8.6M6.8 9.8V10.4M8 8V8.6M9.2 8V8.6M8 9.8V10.4M9.2 9.8V10.4M3.80001 9.9V10.4M12.2 8V8.6M12.2 9.9V10.4M5.6 14H10.4V4.4C10.4 4.4 10.4 2 8 2C5.6 2 5.6 4.4 5.6 4.4V14ZM6.8 14V12.8H9.2V14H6.8Z" stroke="black" stroke-linecap="round" stroke-linejoin="round"/>
<mask id="path-2-inside-1_6028_90" fill="white">
<path d="M9.5 4.5C9.5 5.32843 8.82843 6 8 6C7.17157 6 6.5 5.32843 6.5 4.5C6.5 3.67157 7.17157 3 8 3C8.82843 3 9.5 3.67157 9.5 4.5Z"/>
</mask>
<path d="M8.3 3.99999C8.3 3.8343 8.16569 3.69999 8 3.69999C7.83431 3.69999 7.7 3.8343 7.7 3.99999H8.3ZM8 4.49999H7.7C7.7 4.57955 7.73161 4.65586 7.78787 4.71212L8 4.49999ZM8.03787 4.96212C8.15503 5.07928 8.34497 5.07928 8.46213 4.96212C8.57929 4.84496 8.57929 4.65501 8.46213 4.53786L8.03787 4.96212ZM8 3.99999H7.7V4.49999H8H8.3V3.99999H8ZM8 4.49999L7.78787 4.71212L8.03787 4.96212L8.25 4.74999L8.46213 4.53786L8.21213 4.28786L8 4.49999ZM9.5 4.5H8.9C8.9 4.99706 8.49706 5.4 8 5.4V6V6.6C9.1598 6.6 10.1 5.6598 10.1 4.5H9.5ZM8 6V5.4C7.50294 5.4 7.1 4.99706 7.1 4.5H6.5H5.9C5.9 5.6598 6.8402 6.6 8 6.6V6ZM6.5 4.5H7.1C7.1 4.00294 7.50294 3.6 8 3.6V3V2.4C6.8402 2.4 5.9 3.3402 5.9 4.5H6.5ZM8 3V3.6C8.49706 3.6 8.9 4.00294 8.9 4.5H9.5H10.1C10.1 3.3402 9.1598 2.4 8 2.4V3Z" fill="black" mask="url(#path-2-inside-1_6028_90)"/>
</svg>
