<svg width="16" height="16" viewBox="0 0 16 16" fill="none" xmlns="http://www.w3.org/2000/svg">
<path d="M3.89065 8.28572C4.43857 9.72619 6.02752 13 8.00001 13C9.9725 13 11.5615 9.72619 12.1094 8.28572M4.71251 6.71428C4.84949 5.14285 5.53438 2 6.35625 2C7.17812 2 7.17812 2.78571 7.99999 2.78571C8.82186 2.78571 8.82186 2 9.64374 2C10.3012 2 11.0135 5.14285 11.2875 6.71428C10.7396 6.97618 9.31499 7.49999 7.99999 7.49999C6.685 7.49999 5.26042 6.97618 4.71251 6.71428ZM8.00002 5.53576C5.54514 5.53576 2.65785 3.1786 1.42504 4.35718C0.192221 5.53577 1.42504 9.07146 8.00002 9.07146C14.575 9.07146 15.8078 5.53574 14.575 4.35721C13.3421 3.17868 10.4549 5.53576 8.00002 5.53576Z" stroke="black"/>
</svg>
