<svg width="16" height="16" viewBox="0 0 16 16" fill="none" xmlns="http://www.w3.org/2000/svg">
<path d="M13.4 12.3571L10.7 7.85714L8 12.3571L5.3 7.85714L2.6 12.3571M2 4.64286C2 4.28782 2.26863 4 2.6 4H13.4C13.7314 4 14 4.28782 14 4.64286V12.3571C14 12.7122 13.7314 13 13.4 13H2.6C2.26863 13 2 12.7122 2 12.3571V4.64286ZM8 5.60714C7.1 5.60714 6.8 6.25 6.8 6.89286C6.8 7.53571 7.1 8.17857 8 8.17857C8.9 8.17857 9.2 7.53571 9.2 6.89286C9.2 6.25 8.9 5.60714 8 5.60714Z" stroke="black" stroke-linecap="round" stroke-linejoin="round"/>
</svg>
