<svg width="16" height="16" viewBox="0 0 16 16" fill="none" xmlns="http://www.w3.org/2000/svg">
<path d="M7.32574 6.73684H8.5L10.0278 5.15789M10.0278 5.15789L10.3333 8.94737M10.0278 5.15789L12.4722 5.78947L13.3889 3.57895M10.3333 8.94737L8.80556 10.5263L10.0278 14M10.3333 8.94737L11.5556 11.4737L14 12.4211M6.97222 2L7.27778 4.21053L5.05702 5.15789M5.05702 5.15789L3 7.36842L3.30556 9.26316M5.05702 5.15789L5.44444 8.63158M5.44444 8.63158L5.13889 11.4737L3.30556 14M5.44444 8.63158L7.27778 10.8421L6.97222 14M5.75 3.26316C5.75 4.13519 5.37155 4.52632 4.52778 4.52632C3.68401 4.52632 3.30556 4.13519 3.30556 3.26316C3.30556 2.39113 3.68401 2 4.52778 2C5.37155 2 5.75 2.39113 5.75 3.26316ZM11.25 3.26316C11.25 4.13519 10.8715 4.52632 10.0278 4.52632C9.18401 4.52632 8.80556 4.13519 8.80556 3.26316C8.80556 2.39113 9.18401 2 10.0278 2C10.8715 2 11.25 2.39113 11.25 3.26316Z" stroke="black" stroke-linecap="round" stroke-linejoin="round"/>
</svg>
