<svg width="16" height="16" viewBox="0 0 16 16" fill="none" xmlns="http://www.w3.org/2000/svg">
<path d="M8.19274 6.42105C8.60559 6.31579 9.43129 6.42105 9.43129 7.68421H10.6698V3.89474C10.6698 3.57895 10.3602 3.26316 10.0506 3.26316C9.74093 3.26316 9.43129 3.57895 9.43129 3.89474V4.84211C9.43129 5.47368 8.19274 5.47368 8.19274 4.84211M10.4678 7.68421C10.7416 7.89474 11.2891 8.56842 11.2891 9.57895M10.4678 7.68421H7.57347M10.4678 7.68421H12.8373C12.8373 8.63158 12.8373 9.57895 11.2891 9.57895M11.2891 9.57895C12.1148 10.2105 13.4688 11.777 12.8373 12.4211C12.5553 12.7087 12.2732 12.9964 11.2891 12.3293M7.57347 7.68421C7.57347 8.94737 8.19274 9.26316 9.12166 9.26316M7.57347 7.68421H4.78673V14H7.48801C8.34166 14 8.14791 12.7885 8.36662 11.903M8.36662 11.903C8.44333 11.5924 8.5708 11.3219 8.81202 11.1579C9.55515 10.6526 10.4678 11.7139 10.9795 12.1053C11.0898 12.1897 11.1928 12.2641 11.2891 12.3293M8.36662 11.903C8.58243 12.4967 9.15944 13.0526 9.74093 13.0526C10.3224 13.0526 11.0153 12.781 11.2891 12.3293M6.64456 7.68421C6.64456 7.36842 6.76841 6.10526 6.02528 6.10526H3.23855C2.61927 6.10526 2 5.78947 2 5.15789V2.63158C2 2.31579 2.30964 2 2.61927 2C2.92891 2 3.23855 2.31579 3.23855 2.63158V4.21053C3.23855 4.52632 3.54819 4.84211 3.85782 4.84211C4.16746 4.84211 4.4771 4.52632 4.4771 4.21053V2.94737C4.4771 2.63158 4.78673 2.31579 5.09637 2.31579C5.40601 2.31579 5.71565 2.63158 5.71565 2.94737V4.21053C5.71565 4.52632 6.02528 4.84211 6.33492 4.84211C6.64456 4.84211 6.9542 4.52632 6.9542 4.21053V3.57895C6.9542 3.26316 7.26383 2.94737 7.57347 2.94737C7.88311 2.94737 8.19274 3.26316 8.19274 3.57895V7.68421H6.64456Z" stroke="black" stroke-linecap="round" stroke-linejoin="round"/>
</svg>
