<svg width="16" height="16" viewBox="0 0 16 16" fill="none" xmlns="http://www.w3.org/2000/svg">
<g clip-path="url(#clip0_6028_15)">
<path d="M4.11785 6.67645C4.24135 6.17288 3.89233 5.67367 3.3383 5.56142C2.78427 5.44918 2.23504 5.7664 2.11154 6.26997C1.98805 6.77354 2.33707 7.27275 2.89109 7.385C3.44512 7.49724 3.99436 7.18002 4.11785 6.67645Z" fill="black"/>
<path d="M12.072 13.8871C12.2407 13.4589 11.9956 12.9875 11.5245 12.8342C11.0534 12.6808 10.5347 12.9036 10.366 13.3318C10.1973 13.76 10.4424 14.2314 10.9135 14.3848C11.3846 14.5381 11.9033 14.3153 12.072 13.8871Z" fill="black"/>
<path d="M2.81211 14.1765C2.81211 13.7216 2.40645 13.3529 1.90605 13.3529C1.40565 13.3529 1 13.7216 1 14.1765C1 14.6313 1.40565 15 1.90605 15C2.40645 15 2.81211 14.6313 2.81211 14.1765Z" fill="black"/>
<path d="M6.43632 14.1765C6.43632 13.7216 6.03066 13.3529 5.53026 13.3529C5.02986 13.3529 4.62421 13.7216 4.62421 14.1765C4.62421 14.6313 5.02986 15 5.53026 15C6.03066 15 6.43632 14.6313 6.43632 14.1765Z" fill="black"/>
<path d="M11.1393 6.83855C11.0098 6.39923 10.513 6.13851 10.0297 6.25623C9.54631 6.37395 9.25946 6.82552 9.38898 7.26484C9.51849 7.70417 10.0153 7.96488 10.4987 7.84717C10.982 7.72945 11.2688 7.27788 11.1393 6.83855Z" fill="black"/>
<path d="M14.6401 5.98595C14.5105 5.54663 14.0137 5.28593 13.5304 5.40365C13.047 5.52137 12.7602 5.97294 12.8897 6.41226C13.0192 6.85159 13.516 7.1123 13.9994 6.99459C14.4827 6.87687 14.7696 6.42528 14.6401 5.98595Z" fill="black"/>
<path d="M4.11785 6.67645C4.24135 6.17288 3.89233 5.67367 3.3383 5.56142C2.78427 5.44918 2.23504 5.7664 2.11154 6.26997C1.98805 6.77354 2.33707 7.27275 2.89109 7.385C3.44512 7.49724 3.99436 7.18001 4.11785 6.67645ZM4.11785 6.67645L5.45949 1.20576L7.01859 3.43581M12.072 13.8871C12.2407 13.4589 11.9956 12.9875 11.5245 12.8342C11.0534 12.6808 10.5347 12.9036 10.366 13.3318C10.1973 13.76 10.4424 14.2314 10.9135 14.3848C11.3846 14.5381 11.9033 14.3153 12.072 13.8871ZM12.072 13.8871L13.905 9.23529L15 11.3412M2.81211 14.1765C2.81211 13.7216 2.40645 13.3529 1.90605 13.3529C1.40565 13.3529 1 13.7216 1 14.1765C1 14.6313 1.40565 15 1.90605 15C2.40645 15 2.81211 14.6313 2.81211 14.1765ZM2.81211 14.1765L3.71816 9.23529H7.34237L6.43632 14.1765M6.43632 14.1765C6.43632 13.7216 6.03066 13.3529 5.53026 13.3529C5.02986 13.3529 4.62421 13.7216 4.62421 14.1765C4.62421 14.6313 5.02986 15 5.53026 15C6.03066 15 6.43632 14.6313 6.43632 14.1765ZM11.1393 6.83855C11.0098 6.39923 10.513 6.13851 10.0297 6.25623C9.54631 6.37395 9.25946 6.82552 9.38898 7.26484C9.51849 7.70417 10.0153 7.96488 10.4987 7.84717C10.982 7.72945 11.2688 7.27788 11.1393 6.83855ZM11.1393 6.83855L10.6075 1.85258L14.1082 1L14.6401 5.98595M14.6401 5.98595C14.5105 5.54663 14.0137 5.28593 13.5304 5.40365C13.047 5.52137 12.7602 5.97294 12.8897 6.41226C13.0192 6.85159 13.516 7.1123 13.9994 6.99459C14.4827 6.87687 14.7696 6.42528 14.6401 5.98595Z" stroke="black" stroke-linecap="round" stroke-linejoin="round"/>
</g>
<defs>
<clipPath id="clip0_6028_15">
<rect width="16" height="16" fill="white"/>
</clipPath>
</defs>
</svg>
