<svg width="16" height="16" viewBox="0 0 16 16" fill="none" xmlns="http://www.w3.org/2000/svg">
<path d="M14 12.4V14.2H2V12.4H14ZM14 12.4C13.5 11.7 11.78 10.3 8.89997 10.3C5.89997 10.3 3.89998 11.7 3.19998 12.4M14 12.4L14 10.3L3.50002 4.29999M4.99999 12.4V14.2M7.99999 12.4V14.2M11 12.4V14.2M3.50002 4.29999C2.90002 4.59999 2.90002 6.39999 3.50002 6.69999L9.50001 10.3M3.50002 4.29999C3.30002 3.69999 3.14001 2.5 4.10001 2.5L8.60001 5.2C8.60001 5.39999 8.72001 5.85999 9.20001 6.09999C9.68 6.33999 12 7.79999 13.1 8.49999L13.7 9.99999M3.19999 6.7C2.99999 7 2.77999 7.72 3.49999 8.2C4.21999 8.67999 5.99999 9.90974 6.79999 10.4646M3.5 8.49999V12.1" stroke="black" stroke-linecap="round" stroke-linejoin="round"/>
</svg>
