<svg width="16" height="16" viewBox="0 0 16 16" fill="none" xmlns="http://www.w3.org/2000/svg">
<path d="M9.31978 8.64015V9.02795M10.8325 9.02795V9.41574M12.3452 9.02795V9.41574M13.8578 9.02795V9.41574M10.0761 10.9669V10.5791M11.5888 10.9669V10.5791M3.6472 4.37441C2.89086 5.15 2.89086 6.31338 3.6472 7.47677M10.0761 6.31338C10.5804 6.31338 11.7401 6.4685 12.3452 7.08897M1.75634 8.50598C1.40846 8.28342 1.16725 8.03607 1 7.86456C2.51269 6.70119 1.47271 5.5378 1.75634 4.76221C2.66396 2.28032 4.90778 2.9525 5.91624 3.59882C7.42892 2.82323 9.69796 4.7622 11.967 5.15C14.236 5.53779 15.7487 7.08897 14.6142 8.64015C11.2106 9.41574 8.18527 7.86456 7.05075 7.86456C6.50812 7.86456 6.13851 8.13071 5.69365 8.4084M1.75634 8.50598C2.19509 8.78668 2.8035 9.02795 3.6472 9.02795C4.63367 9.02795 5.20843 8.7113 5.69365 8.4084M1.75634 8.50598C1.75634 9.71409 2.21015 12.1303 4.02538 12.1303C5.53806 12.1303 6.29441 11.7425 8.56344 12.5181C11.967 13.6815 13.1015 12.5181 13.1015 11.3547C12.7233 11.6133 11.5888 11.9752 10.0761 11.3547C7.63513 10.3535 5.84924 8.56444 5.69365 8.4084M5.15989 4.7622C5.53806 4.7622 7.42892 5.53779 7.42892 5.92559C7.42892 6.31338 5.53806 7.08897 5.15989 7.08897C4.78172 7.08897 4.78172 4.7622 5.15989 4.7622Z" stroke="black" stroke-linecap="round" stroke-linejoin="round"/>
</svg>
