<svg width="16" height="16" viewBox="0 0 16 16" fill="none" xmlns="http://www.w3.org/2000/svg">
<path d="M3.8 14H15M3.8 14H1.7M3.8 14V6.13158H1.7V14M1 14H1.7M3.8 7.5H12.2M3.8 12.6316H12.2M1.7 4.76316V3.05263H5.2C5.43333 2.36842 6.32 1 8 1C9.68 1 10.5667 2.36842 10.8 3.05263H14.3V4.76316M4.5 12.6316V9.89474C4.5 9.4386 4.78 8.52632 5.9 8.52632C7.02 8.52632 7.3 9.4386 7.3 9.89474V12.6316M8.7 12.6316V9.89474C8.7 9.4386 8.98 8.52632 10.1 8.52632C11.22 8.52632 11.5 9.4386 11.5 9.89474V12.6316M14.3 14V6.13158H12.2V14H14.3ZM11.5 6.13158V4.76316H15V6.13158H11.5ZM1 6.13158V4.76316H4.5V6.13158H1ZM8 2.71053C9.05 2.71053 9.75 3.39474 9.75 4.42105C9.75 5.44737 9.05 6.13158 8 6.13158C6.95 6.13158 6.25 5.44737 6.25 4.42105C6.25 3.39474 6.95 2.71053 8 2.71053Z" stroke="black" stroke-linecap="round" stroke-linejoin="round"/>
</svg>
