<svg width="16" height="16" viewBox="0 0 16 16" fill="none" xmlns="http://www.w3.org/2000/svg">
<path d="M1.33334 14.8558C2.12501 14.8558 2.52084 14.0558 3.44445 14.0558C4.36806 14.0558 4.63195 14.8558 5.55556 14.8558C6.34723 14.8558 6.74306 14.0558 7.66667 14.0558C8.59029 14.0558 8.85417 14.8558 9.77779 14.8558C10.5695 14.8558 10.9653 14.0558 11.8889 14.0558C12.8125 14.0558 13.0764 14.8558 14 14.8558M1.33331 12.7311C2.12498 12.7311 2.52081 11.9311 3.44442 11.9311C4.36804 11.9311 4.63192 12.7311 5.55554 12.7311C6.3472 12.7311 6.74304 11.9311 7.66665 11.9311C8.59026 11.9311 8.85415 12.7311 9.77776 12.7311C10.5694 12.7311 10.9653 11.9311 11.8889 11.9311C12.8125 11.9311 13.0764 12.7311 14 12.7311M8.33331 12.0926V10.1035M8.33331 10.1035V7.93103M8.33331 10.1035H11.9333M10.7333 5.93105C10.7333 5.23276 10.1961 4.66669 9.53331 4.66669C8.87057 4.66669 8.33331 5.23276 8.33331 5.93105V7.93103M11.9333 11.931V10.1035M11.9333 10.1035V7.93103M14.3333 5.93105C14.3333 5.23276 13.7961 4.66669 13.1333 4.66669C12.4706 4.66669 11.9333 5.23276 11.9333 5.93105V7.93103M11.9333 7.93103H8.33331" stroke="black" stroke-width="1.1" stroke-linecap="round" stroke-linejoin="round"/>
<path d="M4.00002 8.66667C4.7364 8.66667 5.33335 8.06971 5.33335 7.33333C5.33335 6.99518 5.20747 6.68644 5.00002 6.45139V3C5.00002 2.44772 4.55231 2 4.00002 2C3.44774 2 3.00002 2.44772 3.00002 3V6.45139C2.76634 6.69157 2.66669 6.97176 2.66669 7.33333C2.66669 8.06971 3.26364 8.66667 4.00002 8.66667Z" stroke="black" stroke-width="1.1" stroke-linejoin="round"/>
</svg>
