<svg width="16" height="16" viewBox="0 0 16 16" fill="none" xmlns="http://www.w3.org/2000/svg">
<path d="M12.5108 13C12.7901 12.309 12.53 11.6402 11.9999 11.3333C6.93328 8.39995 5.66661 6.33329 3.99997 3.99997C3.56674 3.39343 2.84393 3.17891 2.15645 3.56993M12.5108 13C12.4659 13.111 12.4071 13.2226 12.3333 13.3333C11.8 14.1333 10.8763 13.8703 10.3333 13.6667C8.55554 13 4.59997 10.8 1.66664 5.99997C1.43465 5.62043 0.999985 4.33328 1.99995 3.66662C2.05266 3.63147 2.10485 3.59927 2.15645 3.56993M12.5108 13C13.0072 13.1111 13.9856 13.043 14.3333 12C14.8378 10.4865 14.0282 10.0103 14 10C13.9718 9.98974 13.9423 9.97853 13.9117 9.96636M2.15645 3.56993C1.99317 3.26883 1.86661 2.53331 2.66661 1.99997C3.46661 1.46664 4.60006 1.50011 4.99997 2C5.08996 2.11248 5.17961 2.22358 5.26891 2.33331M5.26891 2.33331C5.62371 2.0322 6.36489 1.69822 6.99997 2.33331C7.99997 3.33331 10.6666 6.66664 13.3333 7.99997C13.7189 8.19979 14.3744 8.87281 13.9117 9.96636M5.26891 2.33331C9.31599 7.30619 12.6433 9.46243 13.9117 9.96636" stroke="black" stroke-width="1.1" stroke-linecap="round" stroke-linejoin="round"/>
<path d="M12.8201 10.8943C12.7239 10.695 12.6618 10.2969 12.2227 9.99824C11.5186 9.51931 11.1971 9.94514 10.7293 9.51931C10.1836 9.02252 10.2126 8.64502 9.66692 8.14822C9.12121 7.65143 8.50882 7.85429 8.04106 7.42847C7.49535 6.93167 7.71795 6.37395 7.17224 5.87715C6.62653 5.38035 6.11086 5.44449 5.7566 4.92045C5.35277 4.32309 5.59979 3.92379 5.05408 3.42699C4.81003 3.20482 4.51938 3.111 4.23078 3.03709" stroke="black" stroke-width="1.1" stroke-linecap="round" stroke-linejoin="round" stroke-dasharray="0.3 2"/>
</svg>
