<svg width="16" height="16" viewBox="0 0 16 16" fill="none" xmlns="http://www.w3.org/2000/svg">
<path d="M10.3333 4.66669H9.00001M10.3333 4.66669C10.7015 4.66669 11 4.96516 11 5.33335V14M10.3333 4.66669C12 3.33335 13 3.00002 14.3333 2.66669M9.00001 4.66669H7.00001M9.00001 4.66669V10M7.00001 4.66669H5.66667M7.00001 4.66669V7.33335M5.66667 4.66669C5.29848 4.66669 5.00001 4.96516 5.00001 5.33335V14M5.66667 4.66669C4.00001 3.33335 3.00001 3.00002 1.66667 2.66669M5.00001 14H1.66667M5.00001 14H7.00001M11 14H14.3333M11 14H9.00001M7.00001 9.33335V14M7.00001 14H9.00001M9.00001 14V12" stroke="black" stroke-width="1.1" stroke-linecap="round"/>
</svg>
