<svg width="16" height="16" viewBox="0 0 16 16" fill="none" xmlns="http://www.w3.org/2000/svg">
<path d="M1.66669 14.3333H1.11669C1.11669 14.6371 1.36293 14.8833 1.66669 14.8833L1.66669 14.3333ZM1.66669 13L1.51559 12.4712C1.27947 12.5386 1.11669 12.7544 1.11669 13H1.66669ZM6.66669 6.00001L6.15171 5.80689C6.12855 5.86864 6.11669 5.93406 6.11669 6.00001H6.66669ZM14.3334 14.3333V14.8833C14.6371 14.8833 14.8834 14.6371 14.8834 14.3333H14.3334ZM14.3334 13H14.8834C14.8834 12.7544 14.7206 12.5386 14.4845 12.4712L14.3334 13ZM9.33335 6.00001H9.88335C9.88335 5.93406 9.87149 5.86864 9.84834 5.80689L9.33335 6.00001ZM8.55002 1.33334C8.55002 1.02959 8.30378 0.783343 8.00002 0.783343C7.69626 0.783343 7.45002 1.02959 7.45002 1.33334H8.55002ZM7.00002 1.78334C6.69626 1.78334 6.45002 2.02959 6.45002 2.33334C6.45002 2.6371 6.69626 2.88334 7.00002 2.88334V1.78334ZM9.00002 2.88334C9.30378 2.88334 9.55002 2.6371 9.55002 2.33334C9.55002 2.02959 9.30378 1.78334 9.00002 1.78334V2.88334ZM11 10.9234L11.4151 10.5625L11 10.9234ZM2.21669 14.3333V13H1.11669V14.3333H2.21669ZM14.8834 14.3333V13H13.7834V14.3333H14.8834ZM6.66669 6.00001C7.18167 6.19313 7.18166 6.19315 7.18166 6.19315C7.18166 6.19314 7.18166 6.19314 7.18167 6.19312C7.18169 6.19307 7.18172 6.19299 7.18177 6.19286C7.18186 6.19262 7.18201 6.19221 7.18223 6.19164C7.18265 6.19051 7.18331 6.18875 7.18421 6.18639C7.18599 6.18165 7.1887 6.17449 7.19227 6.16506C7.19943 6.14619 7.21006 6.11826 7.22376 6.08256C7.25119 6.01114 7.29086 5.90875 7.33954 5.78577C7.43712 5.53926 7.56993 5.21242 7.71224 4.88713C7.85602 4.5585 8.00352 4.24527 8.13043 4.01965C8.1953 3.90433 8.24384 3.83174 8.27389 3.79475C8.28954 3.77549 8.28614 3.78348 8.26344 3.80078C8.2503 3.81079 8.15566 3.88334 8.00002 3.88334V2.78334C7.80271 2.78334 7.6612 2.87673 7.59679 2.9258C7.52282 2.98216 7.46375 3.04745 7.42016 3.1011C7.33172 3.20995 7.24745 3.34569 7.1717 3.48037C7.01735 3.75475 6.85236 4.10819 6.70447 4.44623C6.55512 4.7876 6.41709 5.12743 6.31675 5.38092C6.26647 5.50793 6.22542 5.61388 6.19685 5.6883C6.18256 5.72551 6.17138 5.75487 6.16373 5.77507C6.1599 5.78517 6.15695 5.79297 6.15493 5.79833C6.15392 5.80101 6.15314 5.80308 6.1526 5.80451C6.15233 5.80523 6.15212 5.80579 6.15197 5.80618C6.1519 5.80638 6.15184 5.80654 6.15179 5.80666C6.15177 5.80672 6.15175 5.80678 6.15174 5.80681C6.15172 5.80685 6.15171 5.80689 6.66669 6.00001ZM8.00002 3.88334C7.84438 3.88334 7.74974 3.81079 7.7366 3.80078C7.7139 3.78348 7.7105 3.77549 7.72615 3.79475C7.7562 3.83174 7.80474 3.90433 7.86961 4.01965C7.99652 4.24527 8.14403 4.5585 8.2878 4.88713C8.43012 5.21242 8.56293 5.53926 8.6605 5.78577C8.70918 5.90875 8.74885 6.01114 8.77628 6.08256C8.78998 6.11826 8.80062 6.14619 8.80777 6.16506C8.81135 6.17449 8.81405 6.18165 8.81584 6.18639C8.81673 6.18875 8.81739 6.19051 8.81781 6.19164C8.81803 6.19221 8.81818 6.19262 8.81827 6.19286C8.81832 6.19299 8.81835 6.19307 8.81837 6.19312C8.81838 6.19314 8.81838 6.19314 8.81838 6.19315C8.81838 6.19315 8.81837 6.19313 9.33335 6.00001C9.84834 5.80689 9.84832 5.80685 9.8483 5.80681C9.84829 5.80678 9.84827 5.80672 9.84825 5.80666C9.8482 5.80654 9.84814 5.80638 9.84807 5.80618C9.84792 5.80579 9.84771 5.80523 9.84744 5.80451C9.8469 5.80308 9.84612 5.80101 9.84511 5.79833C9.84309 5.79297 9.84014 5.78517 9.83632 5.77507C9.82866 5.75487 9.81748 5.72551 9.80319 5.6883C9.77462 5.61388 9.73357 5.50793 9.68329 5.38092C9.58295 5.12743 9.44493 4.7876 9.29557 4.44623C9.14768 4.10819 8.98269 3.75475 8.82835 3.48037C8.75259 3.34569 8.66832 3.20995 8.57988 3.1011C8.53629 3.04745 8.47722 2.98216 8.40325 2.9258C8.33884 2.87673 8.19733 2.78334 8.00002 2.78334V3.88334ZM8.55002 3.33334V2.33334H7.45002V3.33334H8.55002ZM8.55002 2.33334V1.33334H7.45002V2.33334H8.55002ZM7.00002 2.88334H8.00002V1.78334H7.00002V2.88334ZM8.00002 2.88334H9.00002V1.78334H8.00002V2.88334ZM6.11669 6.00001V14.3333H7.21669V6.00001H6.11669ZM6.66669 14.8833H9.33335V13.7833H6.66669V14.8833ZM8.78335 6.00001V14.3333H9.88335V6.00001H8.78335ZM1.66669 14.8833H3.33335V13.7833H1.66669V14.8833ZM1.81778 13.5288C2.41877 13.3571 3.03457 13.0859 3.62489 12.7169L3.04182 11.7841C2.5364 12.1001 2.01486 12.3285 1.51559 12.4712L1.81778 13.5288ZM3.88335 14.3333V12.2505H2.78335V14.3333H3.88335ZM3.33335 14.8833H5.00002V13.7833H3.33335V14.8833ZM5.00002 14.8833H6.66669V13.7833H5.00002V14.8833ZM3.62489 12.7169C4.26872 12.3144 4.88584 11.7934 5.42174 11.1533L4.5783 10.4472C4.12041 10.9941 3.59246 11.4399 3.04182 11.7841L3.62489 12.7169ZM5.42174 11.1533C6.48334 9.88529 7.21669 8.16088 7.21669 6.00001H6.11669C6.11669 7.89686 5.47794 9.37262 4.5783 10.4472L5.42174 11.1533ZM5.55002 14.3333V10.8003H4.45002V14.3333H5.55002ZM12.6667 14.8833H14.3334V13.7833H12.6667V14.8833ZM14.4845 12.4712C13.9745 12.3255 13.4484 12.1113 12.9431 11.8175L12.3903 12.7685C12.9807 13.1118 13.5919 13.3602 14.1823 13.5288L14.4845 12.4712ZM13.2167 14.3333V12.293H12.1167V14.3333H13.2167ZM9.33335 14.8833H11V13.7833H9.33335V14.8833ZM11 14.8833H12.6667V13.7833H11V14.8833ZM12.9431 11.8175C12.3926 11.4975 11.8684 11.084 11.4151 10.5625L10.585 11.2843C11.1254 11.9059 11.7463 12.3941 12.3903 12.7685L12.9431 11.8175ZM11.4151 10.5625C10.5273 9.54154 9.88335 8.07453 9.88335 6.00001H8.78335C8.78335 8.32135 9.51146 10.0496 10.585 11.2843L11.4151 10.5625ZM11.55 14.3333V10.9234H10.45V14.3333H11.55Z" fill="black"/>
</svg>
