<svg width="16" height="16" viewBox="0 0 16 16" fill="none" xmlns="http://www.w3.org/2000/svg">
<path d="M14.3333 14.3333H10.6667L9.63162 12.7807L9.9411 12.2894C10.1852 11.9018 10.6112 11.6666 11.0693 11.6666H11.9277C12.3874 11.6666 12.8147 11.9035 13.0583 12.2933L14.3333 14.3333Z" stroke="black" stroke-linecap="round" stroke-linejoin="round"/>
<path d="M3.73959 11.224L1.66666 14.3334H10.6667L8.59372 11.224C8.22279 10.6676 7.59833 10.3334 6.92962 10.3334H5.40369C4.73498 10.3334 4.11052 10.6676 3.73959 11.224Z" stroke="black" stroke-linecap="round" stroke-linejoin="round"/>
<path d="M1.66666 3.33337H6.66666C7.40304 3.33337 7.99999 3.85571 7.99999 4.50004C7.99999 5.14437 7.40304 5.66671 6.66666 5.66671C5.93028 5.66671 5.33332 6.18904 5.33332 6.83337C5.33332 7.47771 5.93028 8.00004 6.66666 8.00004H14.3333" stroke="black" stroke-linecap="round"/>
<path d="M5.33333 3.33329V2.33329M3.66667 3.33329V1.66663M2 3.33329V2.33329M7.66667 7.99996V6.99996M9.33333 7.99996V5.66663M11 7.99996V6.33329M12.6667 7.99996V4.99996M14.3333 7.99996V6.33329M9.33333 3.99996V2.99996M11 4.66663V3.66663M14.3333 4.66663V3.33329" stroke="black" stroke-linecap="round" stroke-linejoin="round"/>
</svg>
