<svg width="16" height="16" viewBox="0 0 16 16" fill="none" xmlns="http://www.w3.org/2000/svg">
<path d="M14.3333 2H11.7071C11.2544 2 10.8202 2.17986 10.5 2.5M10 5.39592V3.70711C10 3.25435 10.1799 2.82014 10.5 2.5M10 5.39592C9.87015 5.35466 9.73403 5.33333 9.5963 5.33333H6.73704C6.59931 5.33333 6.4632 5.35466 6.33334 5.39592M10 5.39592C10.1183 5.43351 10.2315 5.48765 10.3359 5.55727L10.4063 5.60418C10.7772 5.85147 11 6.26777 11 6.71358V9.40066M10.5 2.5H5.83334M2.00001 2H4.62623C5.07898 2 5.51319 2.17986 5.83334 2.5M6.33334 5.39592V3.70711C6.33334 3.25435 6.15348 2.82014 5.83334 2.5M6.33334 5.39592C6.215 5.43351 6.10187 5.48765 5.99744 5.55727L5.92707 5.60418C5.55614 5.85147 5.33334 6.26777 5.33334 6.71358V9.40066M5.33334 9.40066C5.20605 9.44109 5.08434 9.49933 4.97201 9.57422C4.573 9.84022 4.33334 10.288 4.33334 10.7676V14M5.33334 9.40066C5.47303 9.35628 5.61944 9.33333 5.7676 9.33333H10.5657C10.7139 9.33333 10.8603 9.35628 11 9.40066M11 9.40066C11.1273 9.44109 11.249 9.49933 11.3613 9.57422C11.7603 9.84022 12 10.288 12 10.7676V14M4.33334 14H1.66667M4.33334 14H12M12 14H14.3333M7.66667 5.33333V4M7.00001 5.33333V7M7.00001 8.33333V9.33333M9.33334 9.33333V7M6.00001 9.33333V11.6667M6.00001 13V14M10.3333 11.3333V14M8.66667 9.33333V11.3333" stroke="black" stroke-width="1.1" stroke-linecap="round" stroke-linejoin="round"/>
</svg>
