<svg width="16" height="16" viewBox="0 0 16 16" fill="none" xmlns="http://www.w3.org/2000/svg">
<path d="M7.99998 9.33335V14.3334M7.99998 9.33335L4.66665 5.66669L1.33331 9.33335V14.3334H7.99998M7.99998 9.33335L11.3333 5.66669L14.6666 9.33335V14.3334H7.99998M5.57574 6.66669H10.4242" stroke="black" stroke-width="1.1" stroke-linecap="round" stroke-linejoin="round"/>
<path d="M4.55002 8.78333V8.55H4.78335V8.78333H4.55002ZM11.2167 8.78333V8.55H11.45V8.78333H11.2167ZM3.21669 11.7833V11.2167H3.45002V11.7833H3.21669ZM5.88335 11.7833V11.2167H6.11669V11.7833H5.88335ZM9.88335 13.7833V11.2167H10.1167V13.7833H9.88335ZM12.55 11.7833V11.2167H12.7834V11.7833H12.55Z" stroke="black" stroke-width="1.1" stroke-linejoin="round"/>
</svg>
