<svg width="16" height="16" viewBox="0 0 16 16" fill="none" xmlns="http://www.w3.org/2000/svg">
<path d="M11.3333 12.6667V14H4.66667V12.6667M11.3333 12.6667H14V11.3333V5.33333C14 3.33333 12 2 11.3333 2M11.3333 12.6667V12M11.3333 2C10.8639 2 10.8201 2 10 2C9.88889 2.44444 9.33333 3.33333 8 3.33333C6.66667 3.33333 6.11111 2.44444 6 2C4.96999 2 5.34639 2 4.66667 2M11.3333 2C11.2222 2.88889 10.4 4.66667 8 4.66667C5.6 4.66667 4.77778 2.88889 4.66667 2M4.66667 2C4.38436 2 3.86295 2.2391 3.35557 2.66667C2.66478 3.24879 2 4.18026 2 5.33333C2 6.62254 2 9.2968 2 11.3333C2 11.8243 2 12.2782 2 12.6667H4.66667M4.66667 12.6667L6.66667 10.6667L8.66667 12.6667L10.6667 10.6667L11.3333 11.3333M4.66667 12.6667V10.6667M12 6L11.3333 7V11.3333M4 6L4.66667 7V10.6667M11.3333 11.3333V12M11.3333 12L10.6667 12.6667L8.66667 10.6667L6.66667 12.6667L4.66667 10.6667" stroke="black" stroke-width="1.1" stroke-linecap="round" stroke-linejoin="round"/>
<path d="M4.66669 4C4.66669 4.27614 4.44283 4.5 4.16669 4.5C3.89054 4.5 3.66669 4.27614 3.66669 4C3.66669 3.72386 3.89054 3.5 4.16669 3.5C4.44283 3.5 4.66669 3.72386 4.66669 4Z" fill="black"/>
<path d="M5.83331 5.16669C5.83331 5.44283 5.60946 5.66669 5.33331 5.66669C5.05717 5.66669 4.83331 5.44283 4.83331 5.16669C4.83331 4.89054 5.05717 4.66669 5.33331 4.66669C5.60946 4.66669 5.83331 4.89054 5.83331 5.16669Z" fill="black"/>
<circle cx="7.16669" cy="5.83331" r="0.5" fill="black"/>
<path d="M9.5 5.83331C9.5 6.10946 9.27614 6.33331 9 6.33331C8.72386 6.33331 8.5 6.10946 8.5 5.83331C8.5 5.55717 8.72386 5.33331 9 5.33331C9.27614 5.33331 9.5 5.55717 9.5 5.83331Z" fill="black"/>
<path d="M11.1667 5.16669C11.1667 5.44283 10.9428 5.66669 10.6667 5.66669C10.3905 5.66669 10.1667 5.44283 10.1667 5.16669C10.1667 4.89054 10.3905 4.66669 10.6667 4.66669C10.9428 4.66669 11.1667 4.89054 11.1667 5.16669Z" fill="black"/>
<path d="M12.3333 4C12.3333 4.27614 12.1095 4.5 11.8333 4.5C11.5572 4.5 11.3333 4.27614 11.3333 4C11.3333 3.72386 11.5572 3.5 11.8333 3.5C12.1095 3.5 12.3333 3.72386 12.3333 4Z" fill="black"/>
</svg>
