<svg width="16" height="16" viewBox="0 0 16 16" fill="none" xmlns="http://www.w3.org/2000/svg">
<path d="M1.66666 14.3334C2.11111 14.3482 3.2 14.1401 4 13.1889C4.93052 12.0826 5.57242 12.8707 7 12.5831M14.3333 14.3334C12.6667 13.6667 13.6667 13.6667 12.3333 13C11.3178 12.4922 11.4625 12.4676 11 12.264M11 12.264C10.8553 12.2003 10.6511 12.1191 10.3333 12C9.50173 11.6885 9.1888 11.7656 8.66667 11.9889M11 12.264C11.4444 12.0649 12.3333 11.4667 12.3333 10.6667C12.8889 10.3334 13.6667 9.33335 12.3333 8.00002C12.4323 7.55452 12.4696 6.91054 12.2918 6.33335M9.66666 1.66669C10.7333 2.46669 10.1111 3.33335 9.66666 3.66669C10.2 3.93335 10.3333 4.66669 10.3333 5.00002C11.5163 5.00002 12.0706 5.61495 12.2918 6.33335M12.2918 6.33335C12.9723 6.22224 14.2667 5.66669 14 4.33335C14.3472 3.7778 14.7665 2.46669 13.6667 1.66669M7 12.5831C7.10658 12.5616 7.21754 12.5341 7.33333 12.4995C7.96049 12.3115 8.35166 12.1236 8.66667 11.9889M7 12.5831C6.66666 12.2776 6.13333 11.4 6.66666 10.3334C6.4 10.2 6.04533 9.86669 5.97706 9.33335C5.54026 9.55558 4.53332 9.77352 3.99999 8.70686M4.81564 8.00002C4.43265 8.55558 3.4 9.40002 2.33333 8.33335C1.26666 7.26669 1.88888 6.11113 2.33333 5.66669C2.23534 5.61769 2.119 5.54818 2.00001 5.461M1.66666 3.66669C1.45878 4.29031 1.57927 5.15275 2.00001 5.461M2.00001 5.461C2.33334 5.30734 3 4.86669 3 4.33335C3.99999 4.33335 4.49301 3.33335 4.33332 2.66669M3.66667 6.33335C4.33333 6.66669 5.99999 6.66669 6.33332 5.33335C7 5.461 8.18486 4.00002 7.33334 3.00002M7.48261 7.70686C7.78732 7.58746 8.30285 7.50014 8.81594 7.65168M9.99999 8.70686C9.69794 8.08988 9.25784 7.78219 8.81594 7.65168M8.81594 7.65168C8.93864 7.33674 9.34723 6.70686 9.99999 6.70686M12.3333 4.33335C12.5556 3.90544 12.7333 2.87798 11.6667 2.19148M8.66667 11.9889C8.35303 11.5481 8.02362 10.5334 8.66666 10" stroke="black" stroke-width="1.1" stroke-linecap="round" stroke-linejoin="round"/>
<path d="M3.33333 10.3334C3.33333 10.6095 3.10947 10.8334 2.83333 10.8334C2.55719 10.8334 2.33333 10.6095 2.33333 10.3334C2.33333 10.0572 2.55719 9.83337 2.83333 9.83337C3.10947 9.83337 3.33333 10.0572 3.33333 10.3334Z" fill="black"/>
<path d="M5.33333 11C5.33333 11.2761 5.10947 11.5 4.83333 11.5C4.55719 11.5 4.33333 11.2761 4.33333 11C4.33333 10.7239 4.55719 10.5 4.83333 10.5C5.10947 10.5 5.33333 10.7239 5.33333 11Z" fill="black"/>
<path d="M15 10.5C15 10.7761 14.7761 11 14.5 11C14.2239 11 14 10.7761 14 10.5C14 10.2239 14.2239 10 14.5 10C14.7761 10 15 10.2239 15 10.5Z" fill="black"/>
<path d="M14.3333 7.33331C14.3333 7.60946 14.1095 7.83331 13.8333 7.83331C13.5572 7.83331 13.3333 7.60946 13.3333 7.33331C13.3333 7.05717 13.5572 6.83331 13.8333 6.83331C14.1095 6.83331 14.3333 7.05717 14.3333 7.33331Z" fill="black"/>
</svg>
