<svg width="16" height="16" viewBox="0 0 16 16" fill="none" xmlns="http://www.w3.org/2000/svg">
<path d="M4.66669 13H1.66669L1.66669 9.33331H14.3334V13H10.6667M5.66669 14.6666C6.11113 14.5555 6.66669 14.0666 6.66669 13C6.66669 11.9333 7.33335 11.4444 7.66669 11.3333M7.66669 14.6666C8.11113 14.5555 8.66669 14.0666 8.66669 13C8.66669 11.9333 9.33335 11.4444 9.66669 11.3333" stroke="black" stroke-width="1.1" stroke-linecap="round" stroke-linejoin="round"/>
<path d="M6.66669 9.33335H2.66669L3.00002 3.66669H6.33335L6.66669 9.33335ZM6.66669 9.33335H13.6667V5.00002L10.3334 6.66669V5.00002L6.66669 6.66669" stroke="black" stroke-width="1.1" stroke-linecap="round" stroke-linejoin="round"/>
<path d="M5.33336 3.66665C5.33329 2.99998 6.20002 2.59998 8.33336 2.33331C10 2.12498 10.3334 1.33331 10.3334 1.33331M3.66663 3.66665C3.66663 2.99998 3.80001 2.43327 4.66662 1.99998C5.53323 1.56669 6.33332 1.33331 6.33332 1.33331" stroke="black" stroke-width="1.1" stroke-linecap="round" stroke-linejoin="round"/>
</svg>
