<svg width="16" height="16" viewBox="0 0 16 16" fill="none" xmlns="http://www.w3.org/2000/svg">
<path d="M9.00002 4.3333L1.66669 10.6666L9.00002 7.99998C10 7.66661 11.3334 5.66663 9.00002 4.3333ZM9.00002 4.3333C9.66669 3.66665 10.6667 2.66665 12.3334 3.66665C12.7778 3.88888 13.6667 3.99998 14.6667 4.99998C14.2222 4.99998 13 4.99994 12.3334 5.33327C12 7.99994 10.2222 9.3601 9.33335 9.70683M6.66669 9.99998L3.66669 13H1.66669L5.00002 9.75026L6.66669 9.99998ZM6.66669 9.99998C7.01848 10.044 7.35154 10.0588 7.66669 10.0478M9.33335 9.70683C9.33335 10.249 9.53335 11.4667 10.3334 12M9.33335 9.70683C8.84367 9.90364 8.29024 10.0261 7.66669 10.0478M7.66669 10.0478C7.88891 10.4763 8.46669 11.4667 9.00002 12M7.66669 12H11.3334" stroke="black" stroke-width="1.1" stroke-linecap="round" stroke-linejoin="round"/>
</svg>
