<svg width="16" height="16" viewBox="0 0 16 16" fill="none" xmlns="http://www.w3.org/2000/svg">
<path d="M1.66667 2.78335C1.36292 2.78335 1.11667 3.0296 1.11667 3.33335C1.11667 3.63711 1.36292 3.88335 1.66667 3.88335V2.78335ZM14.3333 8.00002V8.55002C14.6371 8.55002 14.8833 8.30378 14.8833 8.00002H14.3333ZM2.55001 2.33335C2.55001 2.0296 2.30376 1.78335 2.00001 1.78335C1.69625 1.78335 1.45001 2.0296 1.45001 2.33335H2.55001ZM4.21667 1.66669C4.21667 1.36293 3.97043 1.11669 3.66667 1.11669C3.36292 1.11669 3.11667 1.36293 3.11667 1.66669H4.21667ZM5.88334 2.33335C5.88334 2.0296 5.63709 1.78335 5.33334 1.78335C5.02958 1.78335 4.78334 2.0296 4.78334 2.33335H5.88334ZM9.88334 5.66669C9.88334 5.36293 9.63709 5.11669 9.33334 5.11669C9.02958 5.11669 8.78334 5.36293 8.78334 5.66669H9.88334ZM8.78334 4.00002C8.78334 4.30378 9.02958 4.55002 9.33334 4.55002C9.63709 4.55002 9.88334 4.30378 9.88334 4.00002H8.78334ZM9.88334 3.00002C9.88334 2.69626 9.63709 2.45002 9.33334 2.45002C9.02958 2.45002 8.78334 2.69626 8.78334 3.00002H9.88334ZM11.55 6.33335C11.55 6.0296 11.3038 5.78335 11 5.78335C10.6962 5.78335 10.45 6.0296 10.45 6.33335H11.55ZM10.45 4.66669C10.45 4.97044 10.6962 5.21669 11 5.21669C11.3038 5.21669 11.55 4.97044 11.55 4.66669H10.45ZM11.55 3.66669C11.55 3.36293 11.3038 3.11669 11 3.11669C10.6962 3.11669 10.45 3.36293 10.45 3.66669H11.55ZM13.2167 5.00002C13.2167 4.69626 12.9704 4.45002 12.6667 4.45002C12.3629 4.45002 12.1167 4.69626 12.1167 5.00002H13.2167ZM14.8833 6.33335C14.8833 6.0296 14.6371 5.78335 14.3333 5.78335C14.0296 5.78335 13.7833 6.0296 13.7833 6.33335H14.8833ZM13.7833 4.66669C13.7833 4.97044 14.0296 5.21669 14.3333 5.21669C14.6371 5.21669 14.8833 4.97044 14.8833 4.66669H13.7833ZM14.8833 3.33335C14.8833 3.0296 14.6371 2.78335 14.3333 2.78335C14.0296 2.78335 13.7833 3.0296 13.7833 3.33335H14.8833ZM8.21667 7.00002C8.21667 6.69626 7.97043 6.45002 7.66667 6.45002C7.36291 6.45002 7.11667 6.69626 7.11667 7.00002H8.21667ZM1.66667 14.3334L1.20905 14.0283C1.09653 14.197 1.08604 14.414 1.18175 14.5929C1.27746 14.7717 1.46384 14.8834 1.66667 14.8834V14.3334ZM3.73961 11.224L3.28198 10.9189H3.28198L3.73961 11.224ZM14.3333 14.3334V14.8834C14.5333 14.8834 14.7175 14.7748 14.8144 14.6C14.9113 14.4251 14.9057 14.2114 14.7997 14.0419L14.3333 14.3334ZM9.94111 12.2894L10.4065 12.5825V12.5825L9.94111 12.2894ZM9.63163 12.7808L9.174 13.0859L9.63163 12.7808ZM8.59374 11.224L8.13611 11.529L8.59374 11.224ZM7.45 4.50002C7.45 4.77391 7.17058 5.11669 6.66667 5.11669V6.21669C7.63552 6.21669 8.55 5.5148 8.55 4.50002H7.45ZM6.66667 3.88335C7.17058 3.88335 7.45 4.22613 7.45 4.50002H8.55C8.55 3.48524 7.63552 2.78335 6.66667 2.78335V3.88335ZM5.88334 6.83335C5.88334 6.55947 6.16277 6.21669 6.66667 6.21669V5.11669C5.69782 5.11669 4.78334 5.81858 4.78334 6.83335H5.88334ZM6.66667 7.45002C6.16277 7.45002 5.88334 7.10724 5.88334 6.83335H4.78334C4.78334 7.84813 5.69782 8.55002 6.66667 8.55002V7.45002ZM6.66667 2.78335H5.33334V3.88335H6.66667V2.78335ZM5.33334 2.78335H3.66667V3.88335H5.33334V2.78335ZM3.66667 2.78335H2.00001V3.88335H3.66667V2.78335ZM2.00001 2.78335H1.66667V3.88335H2.00001V2.78335ZM6.66667 8.55002H7.66667V7.45002H6.66667V8.55002ZM7.66667 8.55002H9.33334V7.45002H7.66667V8.55002ZM9.33334 8.55002H11V7.45002H9.33334V8.55002ZM11 8.55002H12.6667V7.45002H11V8.55002ZM12.6667 8.55002H14.3333V7.45002H12.6667V8.55002ZM2.55001 3.33335V2.33335H1.45001V3.33335H2.55001ZM4.21667 3.33335V1.66669H3.11667V3.33335H4.21667ZM5.88334 3.33335V2.33335H4.78334V3.33335H5.88334ZM9.88334 8.00002V5.66669H8.78334V8.00002H9.88334ZM9.88334 4.00002V3.00002H8.78334V4.00002H9.88334ZM11.55 8.00002V6.33335H10.45V8.00002H11.55ZM11.55 4.66669V3.66669H10.45V4.66669H11.55ZM13.2167 8.00002V5.00002H12.1167V8.00002H13.2167ZM14.8833 8.00002V6.33335H13.7833V8.00002H14.8833ZM14.8833 4.66669V3.33335H13.7833V4.66669H14.8833ZM8.21667 8.00002V7.00002H7.11667V8.00002H8.21667ZM2.1243 14.6384L4.19724 11.529L3.28198 10.9189L1.20905 14.0283L2.1243 14.6384ZM5.40371 10.8834H6.92964V9.78335H5.40371V10.8834ZM1.66667 14.8834H10.6667V13.7834H1.66667V14.8834ZM10.6667 14.8834H14.3333V13.7834H10.6667V14.8834ZM11.0693 12.2167H11.9277V11.1167H11.0693V12.2167ZM12.5919 12.5849L13.8669 14.6249L14.7997 14.0419L13.5247 12.0019L12.5919 12.5849ZM9.47573 11.9963L9.16624 12.4877L10.097 13.0739L10.4065 12.5825L9.47573 11.9963ZM8.13611 11.529L9.174 13.0859L10.0893 12.4757L9.05137 10.9189L8.13611 11.529ZM9.174 13.0859L10.209 14.6384L11.1243 14.0283L10.0893 12.4757L9.174 13.0859ZM11.0693 11.1167C10.4223 11.1167 9.82056 11.4488 9.47573 11.9963L10.4065 12.5825C10.5499 12.3548 10.8002 12.2167 11.0693 12.2167V11.1167ZM6.92964 10.8834C7.41445 10.8834 7.86719 11.1256 8.13611 11.529L9.05137 10.9189C8.57843 10.2095 7.78224 9.78335 6.92964 9.78335V10.8834ZM11.9277 12.2167C12.1978 12.2167 12.4488 12.3558 12.5919 12.5849L13.5247 12.0019C13.1806 11.4512 12.577 11.1167 11.9277 11.1167V12.2167ZM4.19724 11.529C4.46616 11.1256 4.9189 10.8834 5.40371 10.8834V9.78335C4.55111 9.78335 3.75492 10.2095 3.28198 10.9189L4.19724 11.529Z" fill="black"/>
</svg>
