<svg width="16" height="16" viewBox="0 0 16 16" fill="none" xmlns="http://www.w3.org/2000/svg">
<path d="M8.00002 3.33333C7.06466 3.33333 6.19357 3.60852 5.4633 4.08235M8.00002 3.33333C8.54271 3.33333 9.06377 3.42597 9.54824 3.59629M8.00002 3.33333C8.00002 4.73082 7.74061 5.93185 7.35286 6.94761M4.00002 2L5.4633 4.08235M12.6667 14.3333L10.8261 11.714M1.66669 4.66667L3.89402 5.78033M14.3334 11L12.2396 9.9531M3.89402 5.78033C3.72673 6.08914 3.59326 6.41894 3.49858 6.76478M3.89402 5.78033C3.95059 5.67591 4.01103 5.57389 4.07514 5.47446C4.13489 5.38179 4.19784 5.29137 4.26383 5.20336C4.47878 4.91664 4.72597 4.65548 5.00002 4.42526M5.4633 4.08235C5.3017 4.1872 5.147 4.30178 5.00002 4.42526M10.8261 11.714C10.5702 11.909 10.2935 12.0781 10 12.2176C9.39385 12.5055 8.71575 12.6667 8.00002 12.6667C7.60524 12.6667 7.22191 12.6176 6.85579 12.5254M10.8261 11.714C11.0439 11.5479 11.2468 11.3631 11.4322 11.162M12.2396 9.9531C12.0341 10.3984 11.7605 10.8058 11.4322 11.162M12.2396 9.9531C12.3101 9.80017 12.3727 9.64276 12.4266 9.48143C12.5143 9.21943 12.5793 8.94707 12.6194 8.66667M4.42528 11C4.72333 11.3548 5.07322 11.6646 5.4633 11.9176M4.42528 11C3.83299 10.295 3.44543 9.41222 3.35413 8.44326C3.34038 8.29736 3.33335 8.1495 3.33335 8C3.33335 7.57239 3.39087 7.15821 3.49858 6.76478M4.42528 11C4.81647 10.6782 5.39301 10.1524 5.96938 9.40693M5.4633 11.9176C5.88535 12.1915 6.35444 12.399 6.85579 12.5254M5.4633 11.9176C6.82494 10.8252 9.54824 7.63147 9.54824 3.59629M9.54824 3.59629C10.0121 3.75936 10.4424 3.99365 10.8261 4.28602M6.85579 12.5254C7.31745 12.0446 7.94947 11.4898 8.57384 10.7339M10.8261 4.28602C11.9447 5.13854 12.6667 6.48496 12.6667 8C12.6667 8.22635 12.6506 8.44893 12.6194 8.66667M10.8261 4.28602C10.7753 5.89408 10.4823 7.18007 10.0657 8.22859M3.49858 6.76478C3.93474 7.44768 4.73704 8.50191 5.96938 9.40693M11.4322 11.162C10.367 11.162 9.41653 11.0001 8.57384 10.7339M5.00002 4.42526C5.31921 5.07991 6.08741 6.08038 7.35286 6.94761M12.6194 8.66667C11.6777 8.61173 10.8276 8.4547 10.0657 8.22859M7.35286 6.94761C7.18644 7.38356 6.99639 7.78539 6.79305 8.15397C6.53299 8.62539 6.2512 9.04243 5.96938 9.40693M10.0657 8.22859C9.88997 8.67085 9.69225 9.07086 9.48142 9.43498C9.19558 9.92865 8.88567 10.3563 8.57384 10.7339" stroke="black" stroke-width="1.1" stroke-linecap="round" stroke-linejoin="round"/>
<circle cx="4.16665" cy="2.16665" r="0.833333" fill="black"/>
<path d="M2.33335 4.66665C2.33335 5.12688 1.96026 5.49998 1.50002 5.49998C1.03978 5.49998 0.666687 5.12688 0.666687 4.66665C0.666687 4.20641 1.03978 3.83331 1.50002 3.83331C1.96026 3.83331 2.33335 4.20641 2.33335 4.66665Z" fill="black"/>
</svg>
