<svg width="17" height="16" viewBox="0 0 17 16" fill="none" xmlns="http://www.w3.org/2000/svg">
<path d="M13.4889 12C12.1764 12 11.8014 11 10.4889 11C9.17639 11 8.61389 12 7.48889 12C6.17639 12 5.80139 11 4.48889 11C3.17639 11 2.61389 12 1.48889 12M13.4889 14C12.1764 14 11.8014 13 10.4889 13C9.17639 13 8.61389 14 7.48889 14C6.17639 14 5.80139 13 4.48889 13C3.17639 13 2.61389 14 1.48889 14" stroke="black" stroke-width="1.1" stroke-linecap="round" stroke-linejoin="round"/>
<path d="M8.48889 10.3333C8.48889 10.3333 8.39825 9.39323 8.82222 8.3333C9.62222 6.3333 12.1556 7.66664 13.8222 2.66664C11.8222 3.99997 10.1556 2.33328 7.48889 4.66664C5.15556 2.66664 3.48889 3.99997 1.48889 1.99997C1.6 3.3333 2.48889 5.99997 5.82222 7.66664C6.66536 8.0882 6.15556 9.3333 5.82222 9.99997" stroke="black" stroke-width="1.1" stroke-linecap="round" stroke-linejoin="round"/>
</svg>
