<svg width="16" height="16" viewBox="0 0 16 16" fill="none" xmlns="http://www.w3.org/2000/svg">
<circle cx="13.1667" cy="13.0107" r="0.5" fill="black"/>
<circle cx="0.5" cy="0.5" r="0.5" transform="matrix(-1 0 0 1 3.66667 12.5107)" fill="black"/>
<circle cx="11.8333" cy="11.6773" r="0.5" fill="black"/>
<circle cx="0.5" cy="0.5" r="0.5" transform="matrix(-1 0 0 1 5 11.1773)" fill="black"/>
<path d="M1.66667 1.66669C1.66667 1.66669 2.10631 2.00001 3.00001 2.00002C4.33334 2.00003 4.45032 1.70568 5.33334 2.00004C6.21636 2.2944 6.62563 3.44832 6.62563 3.44832M9.45595 3.51364C10.1226 3.18031 11.4 2.06669 14.3333 2.33336M6.33334 7.66669V4.00002C6.33334 3.63183 6.63182 3.33335 7.00001 3.33335H9.00001C9.3682 3.33335 9.66667 3.63183 9.66667 4.00002V8.14617C9.66667 8.57988 10.078 8.91452 10.4998 8.81373C11.0295 8.68717 11.6972 8.4954 12.3333 8.17734C13 7.84399 13.3333 8.51067 14.3333 8.51067M6.33334 13V9.17734C6.22223 9.28845 5.66667 9.51067 4.33334 9.51067M6.33334 13C5.33334 12.6667 4.77778 13.6667 4.66667 14M6.33334 13C6.66667 12.3334 7.66667 12.3333 8.00001 12.6667C8.44445 12.3334 9.33334 12.3334 9.66667 13M9.66667 10.6667V13M9.66667 13C10.3333 13 11.0667 13.2 11.3333 14M8.00001 5.00002V6.33335M8.00001 8.00002V10.6667M1.66667 10.844C2.11112 10.3996 3.00001 9.51067 4.33334 9.51067M4.33334 9.51067C3.33334 8.17734 3.33334 7.66669 1.66667 8.00002M14.3333 14.4477H1.66667" stroke="black" stroke-width="1.1" stroke-linecap="round" stroke-linejoin="round"/>
</svg>
