<svg width="16" height="16" viewBox="0 0 16 16" fill="none" xmlns="http://www.w3.org/2000/svg">
<path d="M11.3333 6.33335C12.9333 9.80002 10.4444 11.5556 8.99998 12C8.52941 12 7.88433 12 7.20071 12M11.3333 6.33335C11.7778 6.44446 13.0666 6.40002 14.6666 5.33335C14.4444 4.66669 13.5333 3.26669 11.6666 3.00002M11.3333 6.33335C11.8237 5.84301 12.0041 5.23996 12.0235 4.66669C12.0463 3.99289 11.8467 3.36022 11.6666 3.00002M11.3333 6.33335C10.7048 6.33335 9.77993 7.22224 9.1175 9.00003M2.33328 11.3334C1.55067 10.6667 1.66665 10 1.66665 10C2.33328 10.3334 2.87945 10.2444 3.47229 9.94782M2.33328 11.3334C2.7009 11.6998 3.25077 12 3.66665 12C4.20603 12 5.78589 12 7.20071 12M2.33328 11.3334L4.99998 11.3334C6.33331 11.3334 8.29287 11.4547 8.99998 9.33335C9.0381 9.21897 9.07732 9.10787 9.1175 9.00003M11.6666 3.00002C10.6666 2.00003 8.33327 2.13749 8.33328 4.00003C8.33328 5.0667 8.66661 5.33335 7.99998 6.00002C6.99998 6.7778 5.13331 8.53335 4.33331 9.33335C4.06686 9.59981 3.76835 9.7997 3.47229 9.94782M3.47229 9.94782C5.05987 10.0763 8.14486 10.0667 9.1175 9.00003M7.20071 12V13.8792C7.68935 14.0306 8.93331 14.2667 9.99998 14" stroke="black" stroke-width="1.1" stroke-linecap="round" stroke-linejoin="round"/>
<path d="M11.1667 4.16669C11.1667 4.44283 10.9428 4.66669 10.6667 4.66669C10.3905 4.66669 10.1667 4.44283 10.1667 4.16669C10.1667 3.89054 10.3905 3.66669 10.6667 3.66669C10.9428 3.66669 11.1667 3.89054 11.1667 4.16669Z" fill="black"/>
<path d="M10.6667 4.33331C10.4445 4.44442 9.20002 4.66665 8.66669 4.66665" stroke="black" stroke-width="1.1" stroke-linecap="round" stroke-linejoin="round"/>
</svg>
