<svg width="16" height="16" viewBox="0 0 16 16" fill="none" xmlns="http://www.w3.org/2000/svg">
<path d="M14 12C12.6875 12 12.3125 11 11 11C9.6875 11 9.125 12 8 12C6.6875 12 6.3125 11 5 11C3.6875 11 3.125 12 2 12M14 14C12.6875 14 12.3125 13 11 13C9.6875 13 9.125 14 8 14C6.6875 14 6.3125 13 5 13C3.6875 13 3.125 14 2 14" stroke="black" stroke-width="1.1" stroke-linecap="round" stroke-linejoin="round"/>
<path d="M10 3C10 3 8.33332 6.31237 8.66666 8.6457C8.98971 8.6098 9.45888 8.60406 9.99999 8.66668M10 3C10 3 10.6667 6.00001 9.99999 8.66668M10 3C10.3333 2.33335 9.66666 1.50284 8.00002 1.97904C5.66669 2.64573 3.66669 5.97904 2.66669 10.3124M9.99999 8.66668C11.1338 8.79788 12.5836 9.5626 13.6667 10.6457M7.66666 3.97904C7.3333 3.6457 5.33335 5.97903 5.66666 7.64571C6.08007 9.71296 8.33334 3.97904 7.66666 3.97904Z" stroke="black" stroke-width="1.1" stroke-linecap="round" stroke-linejoin="round"/>
</svg>
