<svg width="16" height="16" viewBox="0 0 16 16" fill="none" xmlns="http://www.w3.org/2000/svg">
<g clip-path="url(#clip0_2003_1032)">
<path d="M1 14.3C1.77778 15.2333 2.55556 15.2333 3.33333 14.3C4.11111 15.2333 4.88889 15.2333 5.66667 14.3C6.44444 15.2333 7.22222 15.2333 8 14.3C8.77778 15.2333 9.55556 15.2333 10.3333 14.3C11.1111 15.2333 11.8889 15.2333 12.6667 14.3C13.4444 15.2333 14.2222 15.2333 15 14.3M1.70005 10.1V7.30002H10.1001V10.1M12.8999 10.8V5.19998M12.8999 5.19998H10.0999M12.8999 5.19998L13.6001 3.80002H9.4001L10.0999 5.19998M10.0999 5.19998V10.8M10.0999 3.79999V2.39999H12.8999V3.79999M11.5 2.4V1M2.75 7.30002V5.55002M2.75 5.55002H8.7M2.75 5.55002L5.9 3.80001M8.7 5.55002V7.30002M8.7 5.55002L5.9 3.80001M5.9 3.80001V3.10001M11.4999 6.60001V7.30001M11.4999 8.70001V9.40001M8.3499 8.70001H8.6999M6.5999 8.70001H6.9499M4.8499 8.70001H5.1999M3.0999 8.70001H3.4499M1 12.2H15L14.3 10.8H5.9C4.5 9.69265 2.4 9.69263 1 10.8V12.2Z" stroke="black" stroke-linecap="round" stroke-linejoin="round"/>
</g>
<defs>
<clipPath id="clip0_2003_1032">
<rect width="16" height="16" fill="white"/>
</clipPath>
</defs>
</svg>
