<svg width="16" height="16" viewBox="0 0 16 16" fill="none" xmlns="http://www.w3.org/2000/svg">
<g clip-path="url(#clip0_2003_651)">
<path d="M1 12.4872H2.10526L4.31579 13.2051M4.31579 13.2051H11.6842M4.31579 13.2051L3.57898 15H12.4211L11.6842 13.2051M11.6842 13.2051L13.8947 12.4872H15M2.47363 12.4872V3.15386H13.5263V12.4872M1.36844 2.07692C2.59651 1.59829 5.05265 1 8.00002 1C10.9474 1 13.4035 1.59829 14.6316 2.07692M4.3158 3.15385V1.71795M11.6842 3.15385V1.71795M4.68423 11.7692L5.78949 11.4102L3.94739 9.97435C3.94739 9.97435 5.05265 9.61537 8.00002 9.61537C10.9474 9.61537 12.0527 9.97435 12.0527 9.97435L10.2105 11.4102L11.3158 11.7692M8.00003 11.0513V11.4103M8.00003 11.0513L7.26318 11.4103M8.00003 11.0513L8.73687 11.4103M8.00003 11.4103V11.7692M8.00003 11.4103H7.26318M8.00003 11.4103H8.73687M8.00003 11.7692L7.26318 11.4103M8.00003 11.7692L8.73687 11.4103M2.84204 8.1795H13.5263M5.78955 4.58973V8.17947H10.2106V4.58973M2.84204 4.58973H13.1578" stroke="black" stroke-linecap="round" stroke-linejoin="round"/>
</g>
<defs>
<clipPath id="clip0_2003_651">
<rect width="16" height="16" fill="white"/>
</clipPath>
</defs>
</svg>
