<svg width="16" height="16" viewBox="0 0 16 16" fill="none" xmlns="http://www.w3.org/2000/svg">
<g clip-path="url(#clip0_2003_645)">
<path d="M12.8999 4.78378V6.2973M7.99991 2.51351V1M3.09991 4.78378V6.2973M5.54991 4.78378V6.2973M10.4499 4.78378V6.2973M11.5 2.51351C11.9667 2.51351 12.9 2.21081 12.9 1M3.1 1C3.1 1.5045 3.38 2.51351 4.5 2.51351M2.39994 14.6216V7.8108M5.89994 14.6216V7.8108M10.1 7.8108V10.0811M10.1 10.0811V14.6216M10.1 10.0811H8.7M10.1 10.0811H13.6M13.6 7.8108V10.0811M13.6 10.0811V14.6216M13.6 10.0811H15M1 10.0811H7.3M1 15H15M1.69997 4.78379L3.63843 2.51352H12.3615L14.3 4.78379H1.69997ZM1 7.81083L2.4 6.29732H6.6V7.81083H1ZM15 7.81083L13.6 6.29732L9.4 6.29732V7.81083L15 7.81083Z" stroke="black" stroke-linecap="round" stroke-linejoin="round"/>
</g>
<defs>
<clipPath id="clip0_2003_645">
<rect width="16" height="16" fill="white"/>
</clipPath>
</defs>
</svg>
