<svg width="16" height="16" viewBox="0 0 16 16" fill="none" xmlns="http://www.w3.org/2000/svg">
<path d="M5.20004 12C5.20004 12 5.20004 9.19999 8.00004 9.19999C10.8 9.19999 10.8 12 10.8 12M6.60002 12C6.60002 12 6.60002 10.6 8.00002 10.6C9.40002 10.6 9.40002 12 9.40002 12M2.39998 12C2.39998 12 2.39998 6.39998 7.99998 6.39998C13.6 6.39998 13.6 12 13.6 12M1 12C1 12 1 5 8 5C15 5 15 12 15 12M3.79996 12C3.79996 12 3.79996 7.80001 7.99996 7.80001C12.2 7.80001 12.2 12 12.2 12" stroke="black" stroke-linecap="round" stroke-linejoin="round"/>
</svg>
