<svg width="16" height="16" viewBox="0 0 16 16" fill="none" xmlns="http://www.w3.org/2000/svg">
<g clip-path="url(#clip0_2017_2043)">
<path d="M13.8947 8H15M13.8947 8C13.8947 11.2556 11.2556 13.8947 8 13.8947M13.8947 8C13.8947 4.74443 11.2556 2.10526 8 2.10526M8 13.8947V15M8 13.8947C4.74443 13.8947 2.10526 11.2556 2.10526 8M8 2.10526V1M8 2.10526C4.74443 2.10526 2.10526 4.74443 2.10526 8M2.10526 8H1M13.105 10.9474L14.3812 11.6842M5.05068 13.105L4.31577 14.3812M10.9474 2.89388L11.6842 1.61876M2.89388 5.05263L1.61874 4.31579M10.9474 13.105L11.6842 14.3812M2.89388 10.9474L1.61878 11.6842M13.105 5.05064L14.3813 4.31579M5.05068 2.895L4.31581 1.61876M5.89998 8.00001L6.59998 8M6.59998 8L7.49995 8M6.59998 8V6.95001M6.59998 8L7.12498 9.05M7.49995 8L8.32777 8M7.49995 8L6.82497 6.95001M7.49995 8V7L8.32777 8M8.32777 8L8.99995 8M8.32777 8L8.69998 6.95001M8.99995 8L9.39998 8.00001M8.99995 8L8.69998 6.95001M8.99995 8L9.29997 6.95001M9.39998 8.00001H10.1M9.39998 8.00001L8.87498 9.05M9.39998 8.00001V6.95001M6.59998 6.60001C6.59998 6.36667 6.73998 5.90001 7.29998 5.90001M6.59998 6.60001V6.95001M6.59998 6.60001L6.82497 6.95001M8.69998 5.90001C9.39998 5.90001 9.39998 6.60001 9.39998 6.60001M9.39998 6.60001V6.95001M9.39998 6.60001L9.29997 6.95001M6.59998 6.95001H5.89998M6.59998 6.95001H6.82497M7.29998 9.40001V9.75001M7.29998 9.40001L7.12498 9.05M7.29998 9.40001V9.05M7.12498 9.05H5.89998M7.12498 9.05H7.29998M8.69998 9.05V9.40001M8.69998 9.05H7.29998M8.69998 9.05H8.87498M8.69998 9.40001V9.75001M8.69998 9.40001L8.87498 9.05M8.87498 9.05H10.1M9.39998 6.95001H9.29997M9.39998 6.95001H10.1M6.82497 6.95001H8.69998M8.69998 8.70001H7.29998V9.05M8.69998 6.95001H9.29997M11.6842 8C11.6842 10.0347 10.0347 11.6842 8 11.6842C5.96527 11.6842 4.31579 10.0347 4.31579 8C4.31579 5.96527 5.96527 4.31579 8 4.31579C10.0347 4.31579 11.6842 5.96527 11.6842 8Z" stroke="black" stroke-width="0.75" stroke-linecap="round" stroke-linejoin="round"/>
</g>
<defs>
<clipPath id="clip0_2017_2043">
<rect width="16" height="16" fill="white"/>
</clipPath>
</defs>
</svg>
