<svg width="16" height="16" viewBox="0 0 16 16" fill="none" xmlns="http://www.w3.org/2000/svg">
<path d="M9.46666 14.6667V13.3334H6.53333V14.6667H9.46666Z" stroke="black" stroke-linecap="round" stroke-linejoin="round"/>
<path d="M7.26672 11.6666V13.3333M8.66671 13.3333V11.6666" stroke="black" stroke-linecap="round" stroke-linejoin="round"/>
<rect x="1.33337" y="10" width="13.3333" height="1.66931" stroke="black" stroke-linecap="round" stroke-linejoin="round"/>
<path d="M7.26664 10V2M8.7333 10V2M10.2 6.33333V10M5.79997 6.33333V10M11.6666 7.33333V10M4.3333 7.33333L4.33331 10M13.1333 8V10M2.86664 8L2.86664 10" stroke="black" stroke-linecap="round" stroke-linejoin="round"/>
<path d="M8.73339 2.66663H7.26672M7.26672 4.33329H8.73339M8.73339 6.33329H7.26672M7.26672 7.99996H8.73339" stroke="black" stroke-linecap="round" stroke-linejoin="round"/>
<path d="M1.33337 10L1.33339 8C4.26672 8 7.26671 5.33333 7.26671 4M14.6667 10V8C11.7334 8 8.73337 5.33333 8.73337 4" stroke="black" stroke-linecap="round" stroke-linejoin="round"/>
</svg>
