<svg width="16" height="16" viewBox="0 0 16 16" fill="none" xmlns="http://www.w3.org/2000/svg">
<path d="M4 10.0099C4 8.29172 4.83591 7.4425 6.50774 7.4425H9.33332C11.0052 7.4425 11.8411 8.29172 11.8411 10.0099" stroke="black" stroke-linecap="square" stroke-linejoin="round"/>
<path d="M7 14.3333V12.963H9V14.3153" stroke="black" stroke-linecap="round" stroke-linejoin="round"/>
<path d="M4.66663 14.3333V11.5927C4.94526 11.02 5.99375 10.0198 7.99995 10.0198C10.0061 10.0198 11.0547 11.02 11.3333 11.5927V14.3333" stroke="black" stroke-linecap="round" stroke-linejoin="round"/>
<path d="M8 1.33337V2.00004" stroke="black" stroke-linecap="round" stroke-linejoin="round"/>
<path d="M6.66663 6V10" stroke="black" stroke-linecap="square" stroke-linejoin="round"/>
<path d="M9.33337 6V10" stroke="black" stroke-linecap="square" stroke-linejoin="round"/>
<path d="M4.66663 7.33333V5.33333C4.66663 3.49238 6.15901 2 7.99996 2C9.84091 2 11.3333 3.49238 11.3333 5.33333V7.33333" stroke="black" stroke-linecap="round" stroke-linejoin="round"/>
<path d="M14 14.3334V10C14 8.52728 12.8061 7.33337 11.3333 7.33337H4.66667C3.19391 7.33337 2 8.52728 2 10V14.3334" stroke="black" stroke-linecap="round" stroke-linejoin="round"/>
<path d="M4.66663 5.66663H11.3333" stroke="black" stroke-linecap="round" stroke-linejoin="round"/>
<path d="M1.33337 14.3334H14.6667" stroke="black" stroke-linecap="round" stroke-linejoin="round"/>
<path d="M1.33337 10.0099H14.6667" stroke="black" stroke-linecap="round" stroke-linejoin="round"/>
</svg>
