<svg width="16" height="16" viewBox="0 0 16 16" fill="none" xmlns="http://www.w3.org/2000/svg">
<path d="M7.3 10.7105C7.57614 10.7105 7.8 10.4866 7.8 10.2105C7.8 9.93435 7.57614 9.71049 7.3 9.71049V10.7105ZM8.70007 9.71049C8.42393 9.71049 8.20007 9.93435 8.20007 10.2105C8.20007 10.4866 8.42393 10.7105 8.70007 10.7105V9.71049ZM15.0001 10.2105L15.5001 10.2105V10.2105L15.0001 10.2105ZM6.45996 13.6315V13.1315C6.18382 13.1315 5.95996 13.3554 5.95996 13.6315H6.45996ZM9.53996 13.6315H10.04C10.04 13.3554 9.8161 13.1315 9.53996 13.1315V13.6315ZM9.53996 15V15.5C9.8161 15.5 10.04 15.2761 10.04 15H9.53996ZM6.45996 15H5.95996C5.95996 15.2761 6.18382 15.5 6.45996 15.5V15ZM7.72998 11.921C7.72998 11.6449 7.50612 11.421 7.22998 11.421C6.95384 11.421 6.72998 11.6449 6.72998 11.921H7.72998ZM7.22998 13.6315H6.72998C6.72998 13.9077 6.95384 14.1315 7.22998 14.1315V13.6315ZM8.69996 13.6315V14.1315C8.97611 14.1315 9.19996 13.9077 9.19996 13.6315H8.69996ZM9.19996 11.921C9.19996 11.6449 8.97611 11.421 8.69996 11.421C8.42382 11.421 8.19996 11.6449 8.19996 11.921H9.19996ZM7.22998 10.2105H6.72998C6.72998 10.4867 6.95384 10.7105 7.22998 10.7105V10.2105ZM8.76998 10.2105V10.7105C9.04612 10.7105 9.26998 10.4867 9.26998 10.2105H8.76998ZM7.22998 2.68422L6.72998 2.68421V2.68422H7.22998ZM1.06995 7.65793C0.793804 7.65793 0.569946 7.88179 0.569946 8.15793C0.569946 8.43407 0.793804 8.65793 1.06995 8.65793V7.65793ZM7.72995 4.05267C7.72995 3.77653 7.50609 3.55267 7.22995 3.55267C6.9538 3.55267 6.72995 3.77653 6.72995 4.05267H7.72995ZM9.27002 4.05267C9.27002 3.77653 9.04616 3.55267 8.77002 3.55267C8.49388 3.55267 8.27002 3.77653 8.27002 4.05267H9.27002ZM14.93 8.65793C15.2062 8.65793 15.43 8.43407 15.43 8.15793C15.43 7.88179 15.2062 7.65793 14.93 7.65793V8.65793ZM10.8101 6.44736C10.8101 6.17121 10.5862 5.94736 10.3101 5.94736C10.0339 5.94736 9.81006 6.17121 9.81006 6.44736H10.8101ZM9.81006 10.2105C9.81006 10.4867 10.0339 10.7105 10.3101 10.7105C10.5862 10.7105 10.8101 10.4867 10.8101 10.2105H9.81006ZM6.18994 6.44736C6.18994 6.17121 5.96608 5.94736 5.68994 5.94736C5.4138 5.94736 5.18994 6.17121 5.18994 6.44736H6.18994ZM5.18994 10.2105C5.18994 10.4867 5.4138 10.7105 5.68994 10.7105C5.96608 10.7105 6.18994 10.4867 6.18994 10.2105H5.18994ZM12.35 7.47372C12.35 7.19758 12.1261 6.97372 11.85 6.97372C11.5738 6.97372 11.35 7.19758 11.35 7.47372H12.35ZM11.35 10.2106C11.35 10.4867 11.5738 10.7106 11.85 10.7106C12.1261 10.7106 12.35 10.4867 12.35 10.2106H11.35ZM4.65002 7.47372C4.65002 7.19758 4.42617 6.97372 4.15002 6.97372C3.87388 6.97372 3.65002 7.19758 3.65002 7.47372H4.65002ZM3.65002 10.2106C3.65002 10.4867 3.87388 10.7106 4.15002 10.7106C4.42617 10.7106 4.65002 10.4867 4.65002 10.2106H3.65002ZM13.8899 8.15788C13.8899 7.88174 13.666 7.65788 13.3899 7.65788C13.1138 7.65788 12.8899 7.88174 12.8899 8.15788H13.8899ZM12.8899 10.2105C12.8899 10.4867 13.1138 10.7105 13.3899 10.7105C13.666 10.7105 13.8899 10.4867 13.8899 10.2105H12.8899ZM1.5 8.15788C1.5 7.88174 1.27614 7.65788 1 7.65788C0.723858 7.65788 0.5 7.88174 0.5 8.15788H1.5ZM15.5 8.15787C15.5 7.88172 15.2761 7.65787 15 7.65788C14.7238 7.65789 14.5 7.88176 14.5 8.1579L15.5 8.15787ZM3.11011 8.15788C3.11011 7.88174 2.88625 7.65788 2.61011 7.65788C2.33397 7.65788 2.11011 7.88174 2.11011 8.15788H3.11011ZM2.11011 10.2105C2.11011 10.4867 2.33397 10.7105 2.61011 10.7105C2.88625 10.7105 3.11011 10.4867 3.11011 10.2105H2.11011ZM7.73 2.00001C7.73 1.72387 7.50615 1.50001 7.23001 1.5C6.95386 1.49999 6.73 1.72385 6.73 1.99999L7.73 2.00001ZM9.27 2.00001C9.27 1.72387 9.04615 1.50001 8.77001 1.5C8.49386 1.49999 8.27 1.72385 8.27 1.99999L9.27 2.00001ZM7.22998 3.89475C6.95384 3.89475 6.72998 4.11861 6.72998 4.39475C6.72998 4.67089 6.95384 4.89475 7.22998 4.89475V3.89475ZM8.76998 4.39475H9.26998V3.89475H8.76998V4.39475ZM8.76998 6.44738V6.94738H9.26998V6.44738H8.76998ZM7.22998 6.44738V5.94738H6.72998V6.44738H7.22998ZM7.22998 8.15791H6.72998V8.65791H7.22998V8.15791ZM8.76998 8.15791H9.26998V7.65791H8.76998V8.15791ZM15 11.921V12.421C15.2761 12.421 15.5 12.1972 15.5 11.921L15 11.921ZM1 11.921H0.5C0.5 12.1972 0.723858 12.421 1 12.421V11.921ZM1 10.7105H7.3V9.71049H1V10.7105ZM8.70007 10.7105H15.0001V9.71049H8.70007V10.7105ZM6.45996 14.1315H9.53996V13.1315H6.45996V14.1315ZM9.03996 13.6315V15H10.04V13.6315H9.03996ZM9.53996 14.5H6.45996V15.5H9.53996V14.5ZM6.95996 15V13.6315H5.95996V15H6.95996ZM6.72998 11.921V13.6315H7.72998V11.921H6.72998ZM7.22998 14.1315H8.69996V13.1315H7.22998V14.1315ZM9.19996 13.6315V11.921H8.19996V13.6315H9.19996ZM7.22998 10.7105H8.76998V9.71054H7.22998V10.7105ZM9.26998 10.2105V2.68422H8.26998V10.2105H9.26998ZM8.76998 2.18422H7.22998V3.18422H8.76998V2.18422ZM6.72998 2.68422V10.2105H7.72998V2.68422H6.72998ZM1.06995 8.65793C2.74883 8.65793 4.39099 7.91739 5.60249 7.02028C6.21155 6.56929 6.72961 6.06586 7.10052 5.57148C7.45857 5.09424 7.72995 4.55832 7.72995 4.05267H6.72995C6.72995 4.23122 6.61632 4.55057 6.30062 4.97135C5.99778 5.375 5.55334 5.81236 5.0074 6.21663C3.9089 7.03005 2.47106 7.65793 1.06995 7.65793V8.65793ZM8.27002 4.05267C8.27002 4.55832 8.54139 5.09424 8.89944 5.57148C9.27035 6.06586 9.78842 6.56929 10.3975 7.02028C11.609 7.91739 13.2511 8.65793 14.93 8.65793V7.65793C13.5289 7.65793 12.0911 7.03005 10.9926 6.21663C10.4466 5.81236 10.0022 5.375 9.69935 4.97135C9.38365 4.55057 9.27002 4.23122 9.27002 4.05267H8.27002ZM9.81006 6.44736V10.2105H10.8101V6.44736H9.81006ZM5.18994 6.44736V10.2105H6.18994V6.44736H5.18994ZM11.35 7.47372V10.2106H12.35V7.47372H11.35ZM3.65002 7.47372L3.65002 10.2106H4.65002L4.65002 7.47372H3.65002ZM12.8899 8.15788V10.2105H13.8899V8.15788H12.8899ZM0.5 8.15788V10.2105H1.5V8.15788H0.5ZM14.5 8.1579L14.5001 10.2105L15.5001 10.2105L15.5 8.15787L14.5 8.1579ZM2.11011 8.15788L2.11011 10.2105H3.11011V8.15788H2.11011ZM7.72998 2.68423L7.73 2.00001L6.73 1.99999L6.72998 2.68421L7.72998 2.68423ZM8.27 1.99999L8.26998 2.68421L9.26998 2.68423L9.27 2.00001L8.27 1.99999ZM7.22998 4.89475H8.76998V3.89475H7.22998V4.89475ZM8.26998 4.39475V6.44738H9.26998V4.39475H8.26998ZM8.76998 5.94738H7.22998V6.94738H8.76998V5.94738ZM6.72998 6.44738V8.15791H7.72998V6.44738H6.72998ZM7.22998 8.65791H8.76998V7.65791H7.22998V8.65791ZM8.26998 8.15791V10.2105H9.26998V8.15791H8.26998ZM15 11.421H1V12.421H15V11.421ZM1.5 11.921V10.2105H0.5V11.921H1.5ZM1 10.7105H15.0001V9.71049H1V10.7105ZM14.5001 10.2105L14.5 11.921L15.5 11.921L15.5001 10.2105L14.5001 10.2105Z" fill="black"/>
</svg>
