<svg width="16" height="16" viewBox="0 0 16 16" fill="none" xmlns="http://www.w3.org/2000/svg">
<g clip-path="url(#clip0_2003_1038)">
<path d="M4.48895 5.72868H3.98895H4.48895ZM8.4999 1.00005C8.49993 0.723909 8.27609 0.500028 7.99995 0.5C7.72381 0.499972 7.49993 0.723806 7.4999 0.999949L8.4999 1.00005ZM14.144 14.9805V15.4805C14.4201 15.4805 14.644 15.2567 14.644 14.9805H14.144ZM1.85602 14.9805H1.35602C1.35602 15.2567 1.57988 15.4805 1.85602 15.4805V14.9805ZM4.49994 12.0485L4.04819 11.8342C3.97471 11.9891 3.98572 12.1709 4.07736 12.3158C4.169 12.4607 4.3285 12.5485 4.49994 12.5485V12.0485ZM11.4999 12.0485V12.5485C11.6714 12.5485 11.8309 12.4607 11.9225 12.3158C12.0142 12.1709 12.0252 11.9891 11.9517 11.8342L11.4999 12.0485ZM3.29987 10.3546C3.29987 10.6307 3.52372 10.8546 3.79987 10.8546C4.07601 10.8546 4.29987 10.6307 4.29987 10.3546H3.29987ZM6.433 8.07905C6.70914 8.07905 6.933 7.85519 6.933 7.57905C6.933 7.30291 6.70914 7.07905 6.433 7.07905V8.07905ZM9.39989 7.07905C9.12375 7.07905 8.89989 7.30291 8.89989 7.57905C8.89989 7.85519 9.12375 8.07905 9.39989 8.07905V7.07905ZM11.533 10.3546C11.533 10.6307 11.7569 10.8546 12.033 10.8546C12.3092 10.8546 12.533 10.6307 12.533 10.3546H11.533ZM7.10004 8.04169C7.10004 7.76555 6.87618 7.54169 6.60004 7.54169C6.3239 7.54169 6.10004 7.76555 6.10004 8.04169H7.10004ZM6.10004 9.89206C6.10004 10.1682 6.3239 10.3921 6.60004 10.3921C6.87618 10.3921 7.10004 10.1682 7.10004 9.89206H6.10004ZM9.90004 8.04169C9.90004 7.76555 9.67618 7.54169 9.40004 7.54169C9.1239 7.54169 8.90004 7.76555 8.90004 8.04169H9.90004ZM8.90004 9.89206C8.90004 10.1682 9.1239 10.3921 9.40004 10.3921C9.67618 10.3921 9.90004 10.1682 9.90004 9.89206H8.90004ZM9.9001 6.08743V5.58743H8.9001V6.08743H9.9001ZM8.9001 7.25247V7.75247H9.9001V7.25247H8.9001ZM7.1001 6.04856V5.54856H6.1001V6.04856H7.1001ZM6.1001 7.21361V7.71361H7.1001V7.21361H6.1001ZM6.95007 13.5243V13.0243C6.67393 13.0243 6.45007 13.2481 6.45007 13.5243H6.95007ZM6.95007 15H6.45007C6.45007 15.1334 6.50339 15.2613 6.59816 15.3552C6.69293 15.4491 6.82129 15.5012 6.9547 15.5L6.95007 15ZM9.05007 14.9805L9.0547 15.4805C9.32903 15.478 9.55007 15.2549 9.55007 14.9805H9.05007ZM9.05007 13.5243H9.55007C9.55007 13.2481 9.32622 13.0243 9.05007 13.0243V13.5243ZM1 9.82036C0.723858 9.82036 0.5 10.0442 0.5 10.3204C0.5 10.5965 0.723858 10.8204 1 10.8204V9.82036ZM15 10.8204C15.2761 10.8204 15.5 10.5965 15.5 10.3204C15.5 10.0442 15.2761 9.82036 15 9.82036V10.8204ZM1 14.4999C0.723858 14.4999 0.5 14.7238 0.5 14.9999C0.5 15.2761 0.723858 15.4999 1 15.4999V14.4999ZM15 15.4999C15.2761 15.4999 15.5 15.2761 15.5 14.9999C15.5 14.7238 15.2761 14.4999 15 14.4999V15.4999ZM5 12.1282C5 11.8521 4.77614 11.6282 4.5 11.6282C4.22386 11.6282 4 11.8521 4 12.1282H5ZM4.5 15H4C4 15.2762 4.22386 15.5 4.5 15.5V15ZM11.5 15V15.5C11.7761 15.5 12 15.2762 12 15H11.5ZM12 12.1282C12 11.8521 11.7761 11.6282 11.5 11.6282C11.2239 11.6282 11 11.8521 11 12.1282H12ZM12.0106 5.72868C12.0106 4.62283 11.5941 3.55731 10.8451 2.76774L10.1196 3.45599C10.6874 4.05447 11.0106 4.87154 11.0106 5.72868H12.0106ZM10.8451 2.76774C10.0952 1.97728 9.07229 1.52795 7.99979 1.52795V2.52795C8.78956 2.52795 9.55267 2.85841 10.1196 3.45599L10.8451 2.76774ZM7.99979 1.52795C6.9273 1.52795 5.90442 1.97728 5.15452 2.76774L5.87999 3.45599C6.44691 2.85841 7.21002 2.52795 7.99979 2.52795V1.52795ZM5.15452 2.76774C4.40546 3.55731 3.98895 4.62283 3.98895 5.72868H4.98895C4.98895 4.87154 5.31222 4.05447 5.87999 3.45599L5.15452 2.76774ZM3.98895 5.72868V7.57909H4.98895V5.72868H3.98895ZM4.48895 8.07909H11.5106V7.07909H4.48895V8.07909ZM12.0106 7.57909V5.72868H11.0106V7.57909H12.0106ZM11.5106 5.22868L4.48895 5.22868V6.22868L11.5106 6.22868V5.22868ZM8.49979 2.028L8.4999 1.00005L7.4999 0.999949L7.49979 2.02789L8.49979 2.028ZM1.85602 10.8546H14.144V9.8546H1.85602V10.8546ZM13.644 10.3546V14.9805H14.644V10.3546H13.644ZM14.144 14.4805H1.85602V15.4805H14.144V14.4805ZM2.35602 14.9805V10.3546H1.35602V14.9805H2.35602ZM4.49994 12.5485H11.4999V11.5485H4.49994V12.5485ZM11.9517 11.8342C11.5691 11.0277 10.282 9.8546 7.99993 9.8546V10.8546C9.93083 10.8546 10.8456 11.8358 11.0482 12.2628L11.9517 11.8342ZM7.99993 9.8546C5.71782 9.8546 4.43078 11.0277 4.04819 11.8342L4.95169 12.2628C5.15424 11.8358 6.06902 10.8546 7.99993 10.8546V9.8546ZM2.35602 10.3546C2.35602 9.50008 2.55912 8.95213 2.87696 8.61706C3.19011 8.28694 3.69523 8.07909 4.48895 8.07909V7.07909C3.52726 7.07909 2.71591 7.33381 2.15145 7.92885C1.59168 8.51895 1.35602 9.35875 1.35602 10.3546H2.35602ZM4.29987 10.3546C4.29987 9.50011 4.503 8.95214 4.82089 8.61706C5.13409 8.28691 5.63928 8.07905 6.433 8.07905V7.07905C5.47129 7.07905 4.65991 7.33378 4.09541 7.92881C3.53559 8.51891 3.29987 9.35872 3.29987 10.3546H4.29987ZM11.5106 8.07909C12.3044 8.07909 12.8096 8.28695 13.1229 8.6171C13.4408 8.95218 13.644 9.50013 13.644 10.3546H14.644C14.644 9.3587 14.4082 8.51889 13.8483 7.92881C13.2837 7.3338 12.4723 7.07909 11.5106 7.07909V8.07909ZM9.39989 8.07905C10.1936 8.07905 10.6988 8.28691 11.012 8.61706C11.3299 8.95214 11.533 9.50011 11.533 10.3546H12.533C12.533 9.35872 12.2973 8.51891 11.7375 7.92881C11.173 7.33378 10.3616 7.07905 9.39989 7.07905V8.07905ZM6.10004 8.04169V9.89206H7.10004V8.04169H6.10004ZM8.90004 8.04169V9.89206H9.90004V8.04169H8.90004ZM8.9001 6.08743V7.25247H9.9001V6.08743H8.9001ZM6.1001 6.04856V7.21361H7.1001V6.04856H6.1001ZM6.45007 13.5243V15H7.45007V13.5243H6.45007ZM6.9547 15.5L9.0547 15.4805L9.04545 14.4806L6.94545 14.5L6.9547 15.5ZM9.55007 14.9805V13.5243H8.55007V14.9805H9.55007ZM1 10.8204H15V9.82036H1V10.8204ZM1 15.4999H15V14.4999H1V15.4999ZM4 12.1282V15H5V12.1282H4ZM4.5 15.5H11.5V14.5H4.5V15.5ZM12 15V12.1282H11V15H12ZM9.05007 13.0243H6.95007V14.0243H9.05007V13.0243Z" fill="black"/>
</g>
<defs>
<clipPath id="clip0_2003_1038">
<rect width="16" height="16" fill="white"/>
</clipPath>
</defs>
</svg>
