<svg width="16" height="16" viewBox="0 0 16 16" fill="none" xmlns="http://www.w3.org/2000/svg">
<g clip-path="url(#clip0_2008_1830)">
<rect width="16" height="16" fill="white"/>
<path d="M8.51291 1C8.51291 1 1.70708 1.52561 1.70708 4.67561C1.70708 7.87821 8.00708 6.6 8.00708 10.2756C8.00708 13.2199 1 13.25 1 13.25M15 2.05C15 2.05 8.35 1.69999 8.35 4.84999C8.35 8.05259 15 8 15 11.5C15 14.4443 8 15 8 15M11.5 6.60001V3.80001H15V6.60001M13.25 5.20001V6.25001M1 11.5V8.69999H4.5V11.5M2.75 10.1V11.15" stroke="black" stroke-linecap="round" stroke-linejoin="round"/>
</g>
<defs>
<clipPath id="clip0_2008_1830">
<rect width="16" height="16" fill="white"/>
</clipPath>
</defs>
</svg>
