<svg width="16" height="16" viewBox="0 0 16 16" fill="none" xmlns="http://www.w3.org/2000/svg">
<g clip-path="url(#clip0_2003_642)">
<path d="M1 15H15M1.70011 14.65V8.00001M1.70011 8.00001L5.20011 6.95001M1.70011 8.00001V6.25001L5.20011 5.20001H10.8001L14.3001 6.25001L14.2999 8.00001M5.20011 6.95001H10.7999M5.20011 6.95001V15H10.8001L10.7999 6.95001M5.20011 6.95001V3.09999M14.2999 14.65V8.00001M14.2999 8.00001L10.7999 6.95001M10.7999 6.95001L10.8001 3.09999M1.70011 6.59999V4.41249L5.20011 3.09999M5.20011 3.09999H10.8001M10.8001 3.09999L14.3001 4.41249V6.59999M3.10006 3.8C3.45006 2.86667 4.92006 1 8.00006 1C11.0801 1 12.5501 2.86667 12.9001 3.8M1.70011 4.49999V3.79999M14.2999 4.49999V3.79999M14.3 10.1H15M1.7 10.1H1M3.33333 9.75V15M12.6667 9.75V15M6.60006 9.4C6.60006 8.93333 6.88006 8 8.00006 8C9.12006 8 9.40006 8.93333 9.40006 9.4V15H6.60006V9.4Z" stroke="black" stroke-linecap="round" stroke-linejoin="round"/>
</g>
<defs>
<clipPath id="clip0_2003_642">
<rect width="16" height="16" fill="white"/>
</clipPath>
</defs>
</svg>
