<svg width="16" height="16" viewBox="0 0 16 16" fill="none" xmlns="http://www.w3.org/2000/svg">
<path d="M2 14.3611H15M9.94444 3.52778H11.0278M9.94444 3.52778V1M9.94444 3.52778L8.5 3.88889M9.94444 3.52778V4.97222L9.22222 6.41667M5.97222 3.52778H7.05556M7.05556 3.52778V1M7.05556 3.52778L8.5 3.88889M7.05556 3.52778V4.97222L7.77778 6.41667M6.33333 11.4722L5.61111 14M6.33333 11.4722H8.5M6.33333 11.4722L8.5 12.1944M6.33333 11.4722L7.77778 6.41667M10.6667 11.4722L11.3889 14M10.6667 11.4722H8.5M10.6667 11.4722L8.5 12.1944M10.6667 11.4722L9.22222 6.41667M8.5 11.4722V6.41667M8.5 11.4722V12.1944M8.5 12.1944V14.3611M7.77778 6.41667H8.5M9.22222 6.41667H8.5M8.5 3.88889V6.41667M8.5 3.88889V2.44444M7.05556 8.94444H9.94444L8.5 9.66667L7.05556 8.94444Z" stroke="black" stroke-linecap="round"/>
</svg>
