<svg width="16" height="16" viewBox="0 0 16 16" fill="none" xmlns="http://www.w3.org/2000/svg">
<path d="M11 12V15H8C8.125 14.5 8 13.5 9.5 13.5V12M8 14C4.85 14 2.05 12.7815 2.05 8.46154C1.7 8.46154 1 7.808 1 6.08C1 6.08 2.16667 5.77077 2.75 6.73077C2.86667 6.49077 3.38 6.08 4.5 6.08C4.85 7.16 3.8 8.46154 3.45 8.46154C3.45 9.02923 3.8 10.5385 6.6 10.5385C9.4 10.5385 9.05 5 11.5 5C13.25 5 13.6 5.96 13.6 6.44H15C15 8.6 13.39 8.6 12.55 8.6C13.6 10.76 13.24 14 11 14M12 6.5V7M11.5 14H15C15 13.6667 14.4545 12.5 13 12.5" stroke="black" stroke-linecap="round" stroke-linejoin="round"/>
</svg>
