<svg width="16" height="16" viewBox="0 0 16 16" fill="none" xmlns="http://www.w3.org/2000/svg">
<path d="M3.71267 5.4789C2.55304 5.36293 0.929565 5.61804 0.929565 7.56621C0.929565 10.0014 5.79999 8.95777 5.79999 11.0451C5.79999 12.1662 4.89676 12.9863 4.06056 13.5052M3.71267 5.4789C3.71267 5.4789 5.45212 2 7.88733 2C10.3225 2 12.062 5.4789 12.062 5.4789M3.71267 5.4789C3.71267 5.4789 0.581688 8.60987 7.88733 8.60987C15.193 8.60987 12.062 5.4789 12.062 5.4789M12.062 5.4789C13.2216 5.36293 14.8451 5.61804 14.8451 7.56621C14.8451 10.0014 9.97467 8.95777 9.97467 11.0451C9.97467 11.9488 10.9746 12.8939 11.7141 13.4803M13.8865 15C13.8865 15 11.3868 12.4366 7.88724 12.4366C4.38766 12.4366 1.88793 15 1.88793 15" stroke="black" stroke-linecap="round" stroke-linejoin="round"/>
</svg>
