<svg width="24" height="24" viewBox="0 0 24 24" fill="none" xmlns="http://www.w3.org/2000/svg">
<path d="M19 21.5C18 21.5 14.5 19.5 16 13.5C17.6984 6.70621 13 4 10 4C10 4 8.5 2 7 2V4.5L2 10.5C2.20125 11.3497 2.38253 11.8825 3 12.5C3.61747 13.1175 4.12909 13.4363 5 13.5C6.4043 13.6028 8 11.5 8 11.5C8.47252 11.5 9.13642 11.3688 9.75917 11M6 21.5C5.5 20.3333 5 17.5 7 15.5C9.12635 13.3737 9.75917 12.5 9.75917 11M9.75917 11C10.674 10.4583 11.5 9.40394 11.5 7.5M9 2.5C12.5 1 23 3.5 16.5 19.5M11.125 17.5C9.62501 18.5 9.625 21 11.125 22M4 11L4.5 10.5M19 6.5H18M19.5 8.5H18.5M20 10.5H19M20 12.5H18.5M19.5 14.5H18.5M19 16.5H18M18 4.5H17M16.5 2.5H13.5M16 12.5H14.5M15.5 14.5H13.5M8.5 7.5C8.5 8 8.5 8 8 8C7.5 8 7.5 8 7.5 7.5C7.5 7 7.5 7 8 7C8.5 7 8.5 7 8.5 7.5Z" stroke="black" stroke-width="1.5" stroke-linecap="round" stroke-linejoin="round"/>
</svg>
