<svg width="24" height="24" viewBox="0 0 24 24" fill="none" xmlns="http://www.w3.org/2000/svg">
<path d="M11.7039 11C12.4665 12.1667 14.4495 14.5 16.2799 14.5C18.1103 14.5 20.284 12.3333 20.856 11.5V8C20.856 8 18.8732 11 17.4239 11C16.6891 11 15.8171 9.76043 15.1359 9M15.1359 9C14.4737 8.26073 13.9919 7.5 13.9919 7.5M15.1359 9C15.5172 8.17725 15.5935 7.5 17.4239 7.5C19.14 7.5 20.284 6.5 20.284 5.5C20.284 4.29664 18.568 5 18.568 4C18.568 3.40303 16.8519 3 16.8519 3C16.2439 2.75737 15.597 2.13434 15.1359 2V3.5C13.6105 3.66667 9.36056 4.4293 6.85132 7.5C3.99128 11 2.55174 13 3.12375 15.5C3.58135 17.5 5.59773 17.5 5.59773 17.5L4.83976 22H11.137C11.1104 21.811 11.0487 21.5684 10.9426 21.3178M22 2V22M11.4274 15C11.6597 17.4 9.31723 18.8333 8.45777 19.5C9.4414 19.5 10.6744 20.6845 10.9426 21.3178M11.4274 15C12.2114 15.9011 12.6209 18.3876 12.4618 19.5C13.6093 19.5 15.0985 20.7119 15.1407 21.3178H10.9426M11.4274 15C12.1384 13.6592 12.4618 12 12.4618 12" stroke="black" stroke-width="1.5" stroke-linecap="round" stroke-linejoin="round"/>
</svg>
