<svg width="24" height="24" viewBox="0 0 24 24" fill="none" xmlns="http://www.w3.org/2000/svg">
<path d="M6.1193 13.3696C6.90011 15.5168 9.16443 20.3969 11.9753 20.3969C14.7862 20.3969 17.0505 15.5168 17.8313 13.3696M7.29048 11.0272C7.48568 8.68481 8.46169 4 9.63289 4C10.8041 4 10.8041 5.1712 11.9753 5.1712C13.1465 5.1712 13.1465 4 14.3177 4C15.2547 4 16.2697 8.68481 16.6601 11.0272C15.8793 11.4176 13.8492 12.1984 11.9753 12.1984C10.1014 12.1984 8.07129 11.4176 7.29048 11.0272ZM11.9753 9.27048C8.47703 9.27048 4.36251 5.75685 2.6057 7.51367C0.84888 9.2705 2.60571 14.5409 11.9753 14.5409C21.3449 14.5409 23.1017 9.27045 21.3449 7.51371C19.5881 5.75697 15.4736 9.27049 11.9753 9.27048Z" stroke="black" stroke-width="1.5"/>
</svg>
