<svg width="24" height="24" viewBox="0 0 24 24" fill="none" xmlns="http://www.w3.org/2000/svg">
<path d="M8 10H16M2 18L22 18M2 10L22 10M22 7V22L2 22L2 7M19 10V8M5.00001 10V8M4 12V13M4 15V16M6 12V13M6 15V16M10 12V13M10 15V16M12 12V13M14 12V13M12 15V16M14 15V16M18 12V13M18 15V16M20 12V13M20 15V16M8 22H16V6C16 6 16 2 12 2C8 2 8 6 8 6V22ZM10 22V20H14V22H10Z" stroke="black" stroke-width="1.5" stroke-linecap="round" stroke-linejoin="round"/>
<mask id="path-2-inside-1_6028_94" fill="white">
<path d="M15 6C15 7.65685 13.6569 9 12 9C10.3431 9 9 7.65685 9 6C9 4.34315 10.3431 3 12 3C13.6569 3 15 4.34315 15 6Z"/>
</mask>
<path d="M12.5 5C12.5 4.72386 12.2761 4.5 12 4.5C11.7239 4.5 11.5 4.72386 11.5 5H12.5ZM12 6H11.5C11.5 6.13261 11.5527 6.25979 11.6464 6.35355L12 6ZM12.1464 6.85355C12.3417 7.04882 12.6583 7.04882 12.8536 6.85355C13.0488 6.65829 13.0488 6.34171 12.8536 6.14645L12.1464 6.85355ZM12 5H11.5V6H12H12.5V5H12ZM12 6L11.6464 6.35355L12.1464 6.85355L12.5 6.5L12.8536 6.14645L12.3536 5.64645L12 6ZM15 6H14C14 7.10457 13.1046 8 12 8V9V10C14.2091 10 16 8.20914 16 6H15ZM12 9V8C10.8954 8 10 7.10457 10 6H9H8C8 8.20914 9.79086 10 12 10V9ZM9 6H10C10 4.89543 10.8954 4 12 4V3V2C9.79086 2 8 3.79086 8 6H9ZM12 3V4C13.1046 4 14 4.89543 14 6H15H16C16 3.79086 14.2091 2 12 2V3Z" fill="black" mask="url(#path-2-inside-1_6028_94)"/>
</svg>
