<svg width="24" height="24" viewBox="0 0 24 24" fill="none" xmlns="http://www.w3.org/2000/svg">
<path d="M11.0785 10H13L15.5 7.5M15.5 7.5L16 13.5M15.5 7.5L19.5 8.5L21 5M16 13.5L13.5 16L15.5 21.5M16 13.5L18 17.5L22 19M10.5 2.5L11 6L7.36603 7.5M7.36603 7.5L4 11L4.5 14M7.36603 7.5L8 13M8 13L7.5 17.5L4.5 21.5M8 13L11 16.5L10.5 21.5M8.5 4.5C8.5 5.88071 7.88071 6.5 6.5 6.5C5.11929 6.5 4.5 5.88071 4.5 4.5C4.5 3.11929 5.11929 2.5 6.5 2.5C7.88071 2.5 8.5 3.11929 8.5 4.5ZM17.5 4.5C17.5 5.88071 16.8807 6.5 15.5 6.5C14.1193 6.5 13.5 5.88071 13.5 4.5C13.5 3.11929 14.1193 2.5 15.5 2.5C16.8807 2.5 17.5 3.11929 17.5 4.5Z" stroke="black" stroke-width="1.5" stroke-linecap="round" stroke-linejoin="round"/>
</svg>
