<svg width="24" height="24" viewBox="0 0 24 24" fill="none" xmlns="http://www.w3.org/2000/svg">
<path d="M12.6966 9.36842C13.4097 9.19298 14.8359 9.36842 14.8359 11.4737H16.9752V5.15789C16.9752 4.63158 16.4404 4.10526 15.9055 4.10526C15.3707 4.10526 14.8359 4.63158 14.8359 5.15789V6.73684C14.8359 7.78947 12.6966 7.78947 12.6966 6.73684M16.6262 11.4737C17.0991 11.8246 18.0448 12.9474 18.0448 14.6316M16.6262 11.4737H11.6269M16.6262 11.4737H20.719C20.719 13.0526 20.719 14.6316 18.0448 14.6316M18.0448 14.6316C19.471 15.6842 21.8098 18.2949 20.719 19.3684C20.2318 19.8478 19.7446 20.3273 18.0448 19.2156M11.6269 11.4737C11.6269 13.5789 12.6966 14.1053 14.301 14.1053M11.6269 11.4737H6.81345V22H11.4793C12.9538 22 12.6191 19.9808 12.9969 18.505M12.9969 18.505C13.1294 17.9873 13.3496 17.5365 13.7662 17.2632C15.0498 16.4211 16.6262 18.1898 17.51 18.8421C17.7006 18.9828 17.8785 19.1068 18.0448 19.2156M12.9969 18.505C13.3697 19.4946 14.3663 20.4211 15.3707 20.4211C16.3751 20.4211 17.572 19.9683 18.0448 19.2156M10.0224 11.4737C10.0224 10.9474 10.2364 8.84211 8.95276 8.84211H4.13931C3.06966 8.84211 2 8.31579 2 7.26316V3.05263C2 2.52632 2.53483 2 3.06966 2C3.60448 2 4.13931 2.52632 4.13931 3.05263V5.68421C4.13931 6.21053 4.67414 6.73684 5.20897 6.73684C5.7438 6.73684 6.27862 6.21053 6.27862 5.68421V3.57895C6.27862 3.05263 6.81345 2.52632 7.34828 2.52632C7.88311 2.52632 8.41794 3.05263 8.41794 3.57895V5.68421C8.41794 6.21053 8.95276 6.73684 9.48759 6.73684C10.0224 6.73684 10.5572 6.21053 10.5572 5.68421V4.63158C10.5572 4.10526 11.0921 3.57895 11.6269 3.57895C12.1617 3.57895 12.6966 4.10526 12.6966 4.63158V11.4737H10.0224Z" stroke="black" stroke-width="1.5" stroke-linecap="round" stroke-linejoin="round"/>
</svg>
