<svg width="24" height="24" viewBox="0 0 24 24" fill="none" xmlns="http://www.w3.org/2000/svg">
<path d="M7.00867 10.1092C7.16744 9.38983 6.71871 8.67667 6.00639 8.51632C5.29407 8.35597 4.5879 8.80915 4.42913 9.52853C4.27035 10.2479 4.71908 10.9611 5.4314 11.1214C6.14373 11.2818 6.84989 10.8286 7.00867 10.1092Z" fill="black"/>
<path d="M17.2354 20.4102C17.4524 19.7985 17.1372 19.125 16.5315 18.9059C15.9258 18.6869 15.259 19.0051 15.042 19.6168C14.8251 20.2285 15.1403 20.902 15.746 21.1211C16.3517 21.3402 17.0185 21.0219 17.2354 20.4102Z" fill="black"/>
<path d="M5.32985 20.8235C5.32985 20.1738 4.80829 19.6471 4.16492 19.6471C3.52155 19.6471 3 20.1738 3 20.8235C3 21.4733 3.52155 22 4.16492 22C4.80829 22 5.32985 21.4733 5.32985 20.8235Z" fill="black"/>
<path d="M9.98955 20.8235C9.98955 20.1738 9.46799 19.6471 8.82462 19.6471C8.18125 19.6471 7.6597 20.1738 7.6597 20.8235C7.6597 21.4733 8.18125 22 8.82462 22C9.46799 22 9.98955 21.4733 9.98955 20.8235Z" fill="black"/>
<path d="M16.0363 10.3408C15.8698 9.71318 15.231 9.34073 14.6096 9.5089C13.9881 9.67707 13.6193 10.3222 13.7858 10.9498C13.9523 11.5774 14.5911 11.9498 15.2126 11.7817C15.834 11.6135 16.2028 10.9684 16.0363 10.3408Z" fill="black"/>
<path d="M20.5372 9.12279C20.3707 8.49519 19.7319 8.12276 19.1105 8.29093C18.489 8.45909 18.1202 9.1042 18.2868 9.7318C18.4533 10.3594 19.092 10.7319 19.7135 10.5637C20.3349 10.3955 20.7037 9.7504 20.5372 9.12279Z" fill="black"/>
<path d="M7.00867 10.1092C7.16744 9.38983 6.71871 8.67667 6.00639 8.51632C5.29407 8.35597 4.5879 8.80915 4.42913 9.52853C4.27035 10.2479 4.71908 10.9611 5.4314 11.1214C6.14373 11.2818 6.84989 10.8286 7.00867 10.1092ZM7.00867 10.1092L8.73364 2.29394L10.7382 5.47973M17.2354 20.4102C17.4524 19.7985 17.1372 19.125 16.5315 18.9059C15.9258 18.6869 15.259 19.0051 15.042 19.6168C14.8251 20.2285 15.1403 20.902 15.746 21.1211C16.3517 21.3402 17.0185 21.0219 17.2354 20.4102ZM17.2354 20.4102L19.5921 13.7647L21 16.7732M5.32985 20.8235C5.32985 20.1738 4.80829 19.6471 4.16492 19.6471C3.52155 19.6471 3 20.1738 3 20.8235C3 21.4733 3.52155 22 4.16492 22C4.80829 22 5.32985 21.4733 5.32985 20.8235ZM5.32985 20.8235L6.49477 13.7647H11.1545L9.98955 20.8235M9.98955 20.8235C9.98955 20.1738 9.46799 19.6471 8.82462 19.6471C8.18125 19.6471 7.6597 20.1738 7.6597 20.8235C7.6597 21.4733 8.18125 22 8.82462 22C9.46799 22 9.98955 21.4733 9.98955 20.8235ZM16.0363 10.3408C15.8698 9.71318 15.231 9.34074 14.6096 9.5089C13.9881 9.67707 13.6193 10.3222 13.7858 10.9498C13.9523 11.5774 14.5911 11.9498 15.2126 11.7817C15.834 11.6135 16.2028 10.9684 16.0363 10.3408ZM16.0363 10.3408L15.3525 3.21797L19.8534 2L20.5372 9.12279M20.5372 9.12279C20.3707 8.49519 19.7319 8.12276 19.1105 8.29093C18.489 8.45909 18.1202 9.1042 18.2868 9.7318C18.4533 10.3594 19.092 10.7319 19.7135 10.5637C20.3349 10.3955 20.7037 9.7504 20.5372 9.12279Z" stroke="black" stroke-width="1.5" stroke-linecap="round" stroke-linejoin="round"/>
</svg>
