<svg width="24" height="24" viewBox="0 0 24 24" fill="none" xmlns="http://www.w3.org/2000/svg">
<path d="M22 19V22H2V19H22ZM22 19C21.1667 17.8333 18.3 15.5 13.5 15.5C8.5 15.5 5.16667 17.8333 4 19M22 19L22 15.5L4.50001 5.5M4.5 19V22M7 19V22M9.5 19V22M12 19V22M14.5 19V22M17 19V22M19.5 19V22M4.50001 5.5C3.5 6 3.5 9 4.50001 9.5L14.5 15.5M4.50001 5.5C4.16667 4.5 3.89999 2.5 5.49999 2.5L13 7C13 7.33333 13.2 8.1 14 8.5C14.8 8.9 18.6667 11.3333 20.5 12.5L21.5 15M3.99999 9.5C3.66666 10 3.29999 11.2 4.49999 12C5.69999 12.8 8.66666 14.8496 10 15.7744M4.5 12.5V18.5" stroke="black" stroke-width="1.5" stroke-linecap="round" stroke-linejoin="round"/>
</svg>
