<svg width="24" height="24" viewBox="0 0 24 24" fill="none" xmlns="http://www.w3.org/2000/svg">
<path d="M13.8854 12.8962V13.4391M16.0464 13.4391V13.982M18.2074 13.4391V13.982M20.3684 13.4391V13.982M14.9659 16.1537V15.6108M17.1269 16.1537V15.6108M5.78172 6.92417C4.70122 8.01 4.70122 9.63874 5.78172 11.2675M14.9659 9.63874C15.6862 9.63874 17.343 9.8559 18.2074 10.7246M3.08049 12.7084C2.58351 12.3968 2.23892 12.0505 2 11.8104C4.16098 10.1817 2.6753 8.55292 3.08049 7.46709C4.37708 3.99245 7.58254 4.9335 9.0232 5.83835C11.1842 4.75252 14.4257 7.46709 17.6671 8.01C20.9086 8.55291 23.0696 10.7246 21.4488 12.8962C16.5866 13.982 12.2647 11.8104 10.6439 11.8104C9.86874 11.8104 9.34073 12.183 8.70522 12.5718M3.08049 12.7084C3.70727 13.1013 4.57643 13.4391 5.78172 13.4391C7.19096 13.4391 8.01204 12.9958 8.70522 12.5718M3.08049 12.7084C3.08049 14.3997 3.72879 17.7824 6.32197 17.7824C8.48295 17.7824 9.56344 17.2395 12.8049 18.3254C17.6671 19.9541 19.2879 18.3254 19.2879 16.6966C18.7476 17.0586 17.1269 17.5653 14.9659 16.6966C11.4788 15.2949 8.92749 12.7902 8.70522 12.5718M7.9427 7.46709C8.48295 7.46709 11.1842 8.55291 11.1842 9.09582C11.1842 9.63874 8.48295 10.7246 7.9427 10.7246C7.40246 10.7246 7.40246 7.46709 7.9427 7.46709Z" stroke="black" stroke-width="1.5" stroke-linecap="round" stroke-linejoin="round"/>
</svg>
