<svg width="24" height="24" viewBox="0 0 24 24" fill="none" xmlns="http://www.w3.org/2000/svg">
<path d="M6 21H22M6 21H3M6 21V9.5H3V21M2 21H3M6 11.5H18M6 19H18M3 7.5V5H8C8.33333 4 9.6 2 12 2C14.4 2 15.6667 4 16 5H21V7.5M7 19V15C7 14.3333 7.4 13 9 13C10.6 13 11 14.3333 11 15V19M13 19V15C13 14.3333 13.4 13 15 13C16.6 13 17 14.3333 17 15V19M21 21V9.5H18V21H21ZM17 9.5V7.5H22V9.5H17ZM2 9.5V7.5H7V9.5H2ZM12 4.5C13.5 4.5 14.5 5.5 14.5 7C14.5 8.5 13.5 9.5 12 9.5C10.5 9.5 9.5 8.5 9.5 7C9.5 5.5 10.5 4.5 12 4.5Z" stroke="black" stroke-width="1.5" stroke-linecap="round" stroke-linejoin="round"/>
</svg>
