<svg width="24" height="24" viewBox="0 0 24 24" fill="none" xmlns="http://www.w3.org/2000/svg">
<path d="M2.5 21.5H1.75C1.75 21.9142 2.08579 22.25 2.5 22.25V21.5ZM2.5 19.5L2.29396 18.7789C1.97198 18.8708 1.75 19.1651 1.75 19.5H2.5ZM10 9L9.29775 8.73666C9.26618 8.82087 9.25 8.91007 9.25 9H10ZM21.5 21.5V22.25C21.9142 22.25 22.25 21.9142 22.25 21.5H21.5ZM21.5 19.5H22.25C22.25 19.1651 22.028 18.8708 21.706 18.7789L21.5 19.5ZM14 9H14.75C14.75 8.91007 14.7338 8.82087 14.7022 8.73666L14 9ZM12.75 2C12.75 1.58579 12.4142 1.25 12 1.25C11.5858 1.25 11.25 1.58579 11.25 2H12.75ZM10.5 2.75C10.0858 2.75 9.75 3.08579 9.75 3.5C9.75 3.91421 10.0858 4.25 10.5 4.25V2.75ZM13.5 4.25C13.9142 4.25 14.25 3.91421 14.25 3.5C14.25 3.08579 13.9142 2.75 13.5 2.75V4.25ZM5 18.3758L4.60246 17.7398L5 18.3758ZM16.5 16.3851L17.066 15.893L16.5 16.3851ZM3.25 21.5V19.5H1.75V21.5H3.25ZM22.25 21.5V19.5H20.75V21.5H22.25ZM10 9C10.7022 9.26334 10.7022 9.26336 10.7022 9.26337C10.7022 9.26335 10.7022 9.26335 10.7023 9.26331C10.7023 9.26324 10.7023 9.26311 10.7024 9.26292C10.7025 9.26253 10.7028 9.26191 10.7031 9.26105C10.7038 9.25934 10.7048 9.25668 10.7061 9.25311C10.7088 9.24597 10.7129 9.23518 10.7182 9.22098C10.729 9.19259 10.745 9.15059 10.7656 9.09694C10.8068 8.9896 10.8664 8.83579 10.9395 8.65104C11.0861 8.2808 11.2857 7.78965 11.4996 7.30061C11.7156 6.80703 11.938 6.33444 12.1302 5.9927C12.2283 5.81839 12.3035 5.70519 12.3526 5.64482C12.378 5.61358 12.3771 5.62057 12.3497 5.6415C12.3353 5.65248 12.2094 5.75 12 5.75V4.25C11.7281 4.25 11.5319 4.37877 11.4406 4.44835C11.3362 4.52786 11.2519 4.6208 11.1884 4.69893C11.0597 4.85731 10.9358 5.05661 10.8229 5.2573C10.5932 5.66556 10.3469 6.19297 10.1254 6.69939C9.90183 7.21035 9.69515 7.7192 9.54483 8.09896C9.46953 8.28921 9.40803 8.4479 9.36526 8.55931C9.34387 8.61503 9.32714 8.65897 9.31569 8.68918C9.30996 8.70428 9.30555 8.71595 9.30254 8.72394C9.30103 8.72794 9.29987 8.73102 9.29907 8.73315C9.29867 8.73421 9.29836 8.73504 9.29814 8.73563C9.29803 8.73592 9.29794 8.73615 9.29788 8.73632C9.29785 8.73641 9.29781 8.73649 9.2978 8.73654C9.29777 8.7366 9.29775 8.73666 10 9ZM12 5.75C11.7906 5.75 11.6647 5.65248 11.6503 5.6415C11.6229 5.62057 11.622 5.61358 11.6474 5.64482C11.6965 5.70519 11.7717 5.81839 11.8698 5.9927C12.062 6.33444 12.2844 6.80703 12.5004 7.30061C12.7143 7.78965 12.9139 8.2808 13.0605 8.65104C13.1336 8.83579 13.1932 8.9896 13.2344 9.09694C13.255 9.15059 13.271 9.19259 13.2818 9.22098C13.2871 9.23518 13.2912 9.24597 13.2939 9.25311C13.2952 9.25668 13.2962 9.25934 13.2969 9.26105C13.2972 9.26191 13.2975 9.26253 13.2976 9.26292C13.2977 9.26311 13.2977 9.26324 13.2977 9.26331C13.2978 9.26335 13.2978 9.26335 13.2978 9.26337C13.2978 9.26336 13.2978 9.26334 14 9C14.7022 8.73666 14.7022 8.7366 14.7022 8.73654C14.7022 8.73649 14.7022 8.73641 14.7021 8.73632C14.7021 8.73615 14.702 8.73592 14.7019 8.73563C14.7016 8.73504 14.7013 8.73421 14.7009 8.73315C14.7001 8.73102 14.699 8.72794 14.6975 8.72394C14.6944 8.71595 14.69 8.70428 14.6843 8.68918C14.6729 8.65897 14.6561 8.61503 14.6347 8.55931C14.592 8.4479 14.5305 8.28921 14.4552 8.09896C14.3048 7.7192 14.0982 7.21035 13.8746 6.69939C13.6531 6.19297 13.4068 5.66556 13.1771 5.2573C13.0642 5.05661 12.9403 4.85731 12.8116 4.69893C12.7481 4.6208 12.6638 4.52786 12.5594 4.44835C12.4681 4.37877 12.2719 4.25 12 4.25V5.75ZM12.75 5V3.5H11.25V5H12.75ZM12.75 3.5V2H11.25V3.5H12.75ZM10.5 4.25H12V2.75H10.5V4.25ZM12 4.25H13.5V2.75H12V4.25ZM9.25 9V21.5H10.75V9H9.25ZM10 22.25H14V20.75H10V22.25ZM13.25 9V21.5H14.75V9H13.25ZM2.5 22.25H5V20.75H2.5V22.25ZM2.70604 20.2211C3.60059 19.9656 4.51785 19.5616 5.39754 19.0117L4.60246 17.7398C3.83853 18.2173 3.0498 18.5629 2.29396 18.7789L2.70604 20.2211ZM5.75 21.5V18.3758H4.25V21.5H5.75ZM5 22.25H7.5V20.75H5V22.25ZM7.5 22.25H10V20.75H7.5V22.25ZM5.39754 19.0117C6.35694 18.412 7.27654 17.6356 8.07507 16.6818L6.92493 15.7189C6.23277 16.5457 5.43477 17.2195 4.60246 17.7398L5.39754 19.0117ZM8.07507 16.6818C9.65643 14.793 10.75 12.2233 10.75 9H9.25C9.25 11.8633 8.28543 14.0939 6.92493 15.7189L8.07507 16.6818ZM8.25 21.5V16.2004H6.75V21.5H8.25ZM19 22.25H21.5V20.75H19V22.25ZM21.706 18.7789C20.9356 18.5587 20.1407 18.2352 19.377 17.7911L18.623 19.0879C19.5029 19.5994 20.414 19.9697 21.294 20.2211L21.706 18.7789ZM19.75 21.5V18.4395H18.25V21.5H19.75ZM14 22.25H16.5V20.75H14V22.25ZM16.5 22.25H19V20.75H16.5V22.25ZM19.377 17.7911C18.5449 17.3073 17.752 16.682 17.066 15.893L15.934 16.8772C16.7387 17.8027 17.6634 18.53 18.623 19.0879L19.377 17.7911ZM17.066 15.893C15.7217 14.3469 14.75 12.1286 14.75 9H13.25C13.25 12.4652 14.3364 15.0398 15.934 16.8772L17.066 15.893ZM17.25 21.5V16.3851H15.75V21.5H17.25Z" fill="black"/>
</svg>
