<svg width="24" height="24" viewBox="0 0 24 24" fill="none" xmlns="http://www.w3.org/2000/svg">
<path d="M21.5 3H17.5607C16.8815 3 16.2302 3.26978 15.75 3.75M15 8.09388V5.56066C15 4.88153 15.2698 4.23022 15.75 3.75M15 8.09388C14.8052 8.032 14.601 8 14.3944 8H10.1056C9.89896 8 9.69479 8.032 9.5 8.09388M15 8.09388C15.1775 8.15027 15.3472 8.23147 15.5038 8.3359L15.6094 8.40627C16.1658 8.7772 16.5 9.40166 16.5 10.0704V14.101M15.75 3.75H8.75M3 3H6.93934C7.61847 3 8.26978 3.26978 8.75 3.75M9.5 8.09388V5.56066C9.5 4.88153 9.23022 4.23022 8.75 3.75M9.5 8.09388C9.3225 8.15027 9.15279 8.23147 8.99615 8.3359L8.8906 8.40627C8.3342 8.7772 8 9.40166 8 10.0704V14.101M8 14.101C7.80906 14.1616 7.62651 14.249 7.45801 14.3613C6.8595 14.7603 6.5 15.4321 6.5 16.1514V21M8 14.101C8.20953 14.0344 8.42916 14 8.65139 14H15.8486C16.0708 14 16.2905 14.0344 16.5 14.101M16.5 14.101C16.6909 14.1616 16.8735 14.249 17.042 14.3613C17.6405 14.7603 18 15.4321 18 16.1514V21M6.5 21H2.5M6.5 21H18M18 21H21.5M11.5 8V6M10.5 8V10.5M10.5 12.5V14M14 14V10.5M9 14V17.5M9 19.5V21M15.5 17V21M13 14V17" stroke="black" stroke-width="1.5" stroke-linecap="round" stroke-linejoin="round"/>
</svg>
