<svg width="24" height="24" viewBox="0 0 24 24" fill="none" xmlns="http://www.w3.org/2000/svg">
<path d="M17 9.5C19.4 14.7 15.6667 17.3333 13.5 18C12.7942 18 11.8265 18 10.8011 18M17 9.5C17.6667 9.66666 19.6 9.6 22 8M17 9.5C17.7355 8.76448 18.0061 7.85991 18.0353 7M17 9.5C16.0572 9.5 14.6699 10.8333 13.6763 13.5M3.49995 17C2.32604 16 2.5 15 2.5 15C3.49995 15.5 4.31921 15.3666 5.20846 14.9217M3.49995 17C4.05138 17.5496 4.87618 18 5.5 18C6.30907 18 8.67886 18 10.8011 18M3.49995 17L7.5 17C9.5 17 12.4393 17.182 13.5 14C13.5572 13.8284 13.616 13.6618 13.6763 13.5M22 8C21.6667 7 20.3 4.9 17.5 4.5M22 8C21.1933 7.67732 20.4718 7.45225 19.8659 7.29855C18.9697 7.07119 18.3266 7 18.0353 7M17.5 4.5C17.7701 5.0403 18.0695 5.9893 18.0353 7M17.5 4.5C16 3.00001 12.4999 3.2062 12.4999 6.00001C12.4999 7.60001 12.9999 8 12 9C10.5 10.1667 7.7 12.8 6.5 14C6.10031 14.3997 5.65256 14.6995 5.20846 14.9217M5.20846 14.9217C7.58983 15.1145 12.2173 15.1 13.6763 13.5M10.8011 18V20.8187C11.5341 21.0458 13.4 21.4 15 21" stroke="black" stroke-width="1.5" stroke-linecap="round" stroke-linejoin="round"/>
<path d="M16.75 6.25C16.75 6.66421 16.4142 7 16 7C15.5858 7 15.25 6.66421 15.25 6.25C15.25 5.83579 15.5858 5.5 16 5.5C16.4142 5.5 16.75 5.83579 16.75 6.25Z" fill="black"/>
<path d="M16 6.5C15.6667 6.66667 13.8 7 13 7" stroke="black" stroke-linecap="round" stroke-linejoin="round"/>
</svg>
