<svg width="24" height="24" viewBox="0 0 24 24" fill="none" xmlns="http://www.w3.org/2000/svg">
<path d="M21.5 21.5H16L14.4474 19.1711L14.9117 18.4341C15.2778 17.8527 15.9168 17.5 16.604 17.5H17.8915C18.5811 17.5 19.222 17.8552 19.5875 18.44L21.5 21.5Z" stroke="black" stroke-width="1.5" stroke-linecap="round" stroke-linejoin="round"/>
<path d="M5.6094 16.8359L2.5 21.5H16L12.8906 16.8359C12.3342 16.0013 11.3975 15.5 10.3944 15.5H8.10555C7.10249 15.5 6.1658 16.0013 5.6094 16.8359Z" stroke="black" stroke-width="1.5" stroke-linecap="round" stroke-linejoin="round"/>
<path d="M2.5 5H10C11.1046 5 12 5.7835 12 6.75C12 7.7165 11.1046 8.5 10 8.5C8.89543 8.5 8 9.2835 8 10.25C8 11.2165 8.89543 12 10 12H21.5" stroke="black" stroke-width="1.5" stroke-linecap="round"/>
<path d="M8 5V3.5M5.5 5V2.5M3 5V3.5M11.5 12V10.5M14 12V8.5M16.5 12V9.5M19 12V7.5M21.5 12V9.5M14 6V4.5M16.5 7V5.5M21.5 7V5" stroke="black" stroke-width="1.5" stroke-linecap="round" stroke-linejoin="round"/>
</svg>
