<svg width="24" height="24" viewBox="0 0 24 24" fill="none" xmlns="http://www.w3.org/2000/svg">
<path d="M7 19.5H2.5L2.5 14H21.5V19.5H16M8.5 22C9.16667 21.8333 10 21.1 10 19.5C10 17.9 11 17.1667 11.5 17M11.5 22C12.1667 21.8333 13 21.1 13 19.5C13 17.9 14 17.1667 14.5 17" stroke="black" stroke-width="1.5" stroke-linecap="round" stroke-linejoin="round"/>
<path d="M10 14H4L4.5 5.5H9.5L10 14ZM10 14H20.5V7.5L15.5 10V7.5L10 10" stroke="black" stroke-width="1.5" stroke-linecap="round" stroke-linejoin="round"/>
<path d="M8.0001 5.5C8 4.5 9.3001 3.9 12.5001 3.5C15.0001 3.1875 15.5001 2 15.5001 2M5.5 5.5C5.5 4.5 5.70007 3.64993 6.99999 3C8.29991 2.35006 9.50004 2 9.50004 2" stroke="black" stroke-width="1.5" stroke-linecap="round" stroke-linejoin="round"/>
</svg>
