<svg width="24" height="24" viewBox="0 0 24 24" fill="none" xmlns="http://www.w3.org/2000/svg">
<path d="M21 18C19.0312 18 18.4688 16.5 16.5 16.5C14.5312 16.5 13.6875 18 12 18C10.0312 18 9.46875 16.5 7.5 16.5C5.53125 16.5 4.6875 18 3 18M21 21C19.0312 21 18.4688 19.5 16.5 19.5C14.5312 19.5 13.6875 21 12 21C10.0312 21 9.46875 19.5 7.5 19.5C5.53125 19.5 4.6875 21 3 21" stroke="black" stroke-width="1.5" stroke-linecap="round" stroke-linejoin="round"/>
<path d="M13.5 15.5C13.5 15.5 13.364 14.0899 14 12.5C15.2 9.49997 19 11.5 21.5 3.99997C18.5 5.99997 16 3.49994 12 6.99997C8.5 3.99997 6 5.99997 3 2.99997C3.16667 4.99997 4.5 8.99997 9.5 11.5C10.7647 12.1323 10 14 9.5 15" stroke="black" stroke-width="1.5" stroke-linecap="round" stroke-linejoin="round"/>
</svg>
