<svg width="25" height="24" viewBox="0 0 25 24" fill="none" xmlns="http://www.w3.org/2000/svg">
<circle cx="21.75" cy="19.516" r="0.75" fill="black"/>
<circle cx="0.75" cy="0.75" r="0.75" transform="matrix(-1 0 0 1 7.5 18.766)" fill="black"/>
<circle cx="19.75" cy="17.516" r="0.75" fill="black"/>
<circle cx="0.75" cy="0.75" r="0.75" transform="matrix(-1 0 0 1 9.5 16.766)" fill="black"/>
<path d="M4.5 2.5C4.5 2.5 5.15946 2.99999 6.5 3C8.5 3.00002 8.67547 2.55848 10 3.00003C11.3245 3.44157 11.9384 5.17245 11.9384 5.17245M16.1839 5.27043C17.1839 4.77043 19.1 3.10001 23.5 3.50001M11.5 11.5V6C11.5 5.44772 11.9477 5 12.5 5H15.5C16.0523 5 16.5 5.44772 16.5 6V12.2192C16.5 12.8698 17.117 13.3717 17.7497 13.2206C18.5442 13.0307 19.5458 12.7431 20.5 12.266C21.5 11.766 22 12.766 23.5 12.766M11.5 19.5V13.766C11.3333 13.9326 10.5 14.266 8.5 14.266M11.5 19.5C10 19 9.16667 20.5 9 21M11.5 19.5C12 18.5 13.5 18.5 14 19C14.6667 18.5 16 18.5 16.5 19.5M16.5 16V19.5M16.5 19.5C17.5 19.5 18.6 19.8 19 21M14 7.5V9.5M14 12V16M4.5 16.266C5.16667 15.5993 6.5 14.266 8.5 14.266M8.5 14.266C7 12.266 7 11.5 4.5 12M23.5 21.6716H4.5" stroke="black" stroke-width="1.5" stroke-linecap="round" stroke-linejoin="round"/>
</svg>
