<svg width="24" height="24" viewBox="0 0 24 24" fill="none" xmlns="http://www.w3.org/2000/svg">
<path d="M2.00004 22.2836C3.18754 22.2836 3.78129 21.0836 5.16671 21.0836C6.55212 21.0836 6.94796 22.2836 8.33337 22.2836C9.52087 22.2836 10.1146 21.0836 11.5 21.0836C12.8855 21.0836 13.2813 22.2836 14.6667 22.2836C15.8542 22.2836 16.448 21.0836 17.8334 21.0836C19.2188 21.0836 19.6146 22.2836 21 22.2836M2 19.0966C3.1875 19.0966 3.78125 17.8966 5.16667 17.8966C6.55208 17.8966 6.94792 19.0966 8.33333 19.0966C9.52083 19.0966 10.1146 17.8966 11.5 17.8966C12.8854 17.8966 13.2813 19.0966 14.6667 19.0966C15.8542 19.0966 16.4479 17.8966 17.8333 17.8966C19.2188 17.8966 19.6146 19.0966 21 19.0966M12.5 18.1389V15.1551M12.5 15.1551V11.8965M12.5 15.1551H17.9M16.1 8.89655C16.1 7.84911 15.2941 7 14.3 7C13.3059 7 12.5 7.84911 12.5 8.89655V11.8965M17.9 17.8965V15.1551M17.9 15.1551V11.8965M21.5 8.89655C21.5 7.84911 20.6941 7 19.7 7C18.7059 7 17.9 7.84911 17.9 8.89655V11.8965M17.9 11.8965H12.5" stroke="black" stroke-width="1.5" stroke-linecap="round" stroke-linejoin="round"/>
<circle cx="6" cy="11" r="1" fill="black"/>
<path d="M6 13C7.10457 13 8 12.1046 8 11C8 10.4928 7.81118 10.0297 7.5 9.67709V4.5C7.5 3.67157 6.82843 3 6 3C5.17157 3 4.5 3.67157 4.5 4.5V9.67709C4.14948 10.0374 4 10.4576 4 11C4 12.1046 4.89543 13 6 13Z" stroke="black" stroke-linejoin="round"/>
<path d="M6 11V4.5" stroke="black" stroke-linecap="round" stroke-linejoin="round"/>
</svg>
