<svg width="24" height="24" viewBox="0 0 24 24" fill="none" xmlns="http://www.w3.org/2000/svg">
<path d="M12 5C10.597 5 9.29032 5.41278 8.19491 6.12353M12 5C12.814 5 13.5956 5.13895 14.3223 5.39443M12 5C12 7.09623 11.6109 8.89778 11.0293 10.4214M6 3L8.19491 6.12353M19 21.5L16.2391 17.571M2.5 7L5.841 8.6705M21.5 16.5L18.3593 14.9297M5.841 8.6705C5.59007 9.13371 5.38986 9.62842 5.24784 10.1472M5.841 8.6705C5.92585 8.51387 6.01651 8.36084 6.11268 8.21169C6.20231 8.07268 6.29673 7.93705 6.39571 7.80503C6.71815 7.37496 7.08893 6.98323 7.5 6.63789M8.19491 6.12353C7.95252 6.28081 7.72047 6.45267 7.5 6.63789M16.2391 17.571C15.8552 17.8635 15.4403 18.1172 15 18.3264C14.0907 18.7583 13.0736 19 12 19C11.4078 19 10.8328 18.9265 10.2837 18.788M16.2391 17.571C16.5659 17.3219 16.8701 17.0447 17.1482 16.743M18.3593 14.9297C18.0511 15.5976 17.6407 16.2087 17.1482 16.743M18.3593 14.9297C18.4652 14.7002 18.559 14.4641 18.6399 14.2221C18.7714 13.8291 18.8689 13.4206 18.9291 13M6.63789 16.5C7.08496 17.0322 7.60981 17.4968 8.19491 17.8765M6.63789 16.5C5.74946 15.4425 5.16811 14.1183 5.03117 12.6649C5.01054 12.446 5 12.2243 5 12C5 11.3586 5.08627 10.7373 5.24784 10.1472M6.63789 16.5C7.22468 16.0173 8.08948 15.2286 8.95404 14.1104M8.19491 17.8765C8.82799 18.2872 9.53163 18.5985 10.2837 18.788M8.19491 17.8765C10.2374 16.2378 14.3223 11.4472 14.3223 5.39443M14.3223 5.39443C15.0181 5.63904 15.6636 5.99047 16.2391 6.42904M10.2837 18.788C10.9761 18.0669 11.9242 17.2347 12.8607 16.1008M16.2391 6.42904C17.917 7.70781 19 9.72744 19 12C19 12.3395 18.9758 12.6734 18.9291 13M16.2391 6.42904C16.1629 8.84113 15.7234 10.7701 15.0985 12.3429M5.24784 10.1472C5.90209 11.1715 7.10553 12.7529 8.95404 14.1104M17.1482 16.743C15.5504 16.743 14.1248 16.5001 12.8607 16.1008M7.5 6.63789C7.97879 7.61986 9.13109 9.12057 11.0293 10.4214M18.9291 13C17.5165 12.9176 16.2413 12.682 15.0985 12.3429M11.0293 10.4214C10.7796 11.0753 10.4945 11.6781 10.1895 12.231C9.79945 12.9381 9.37678 13.5636 8.95404 14.1104M15.0985 12.3429C14.8349 13.0063 14.5383 13.6063 14.2221 14.1525C13.7933 14.893 13.3285 15.5345 12.8607 16.1008" stroke="black" stroke-width="1.5" stroke-linecap="round" stroke-linejoin="round"/>
<circle cx="6.25" cy="3.25" r="1.25" fill="black"/>
<path d="M3.5 7C3.5 7.69036 2.94036 8.25 2.25 8.25C1.55964 8.25 1 7.69036 1 7C1 6.30964 1.55964 5.75 2.25 5.75C2.94036 5.75 3.5 6.30964 3.5 7Z" fill="black"/>
</svg>
