<svg width="24" height="24" viewBox="0 0 24 24" fill="none" xmlns="http://www.w3.org/2000/svg">
<path d="M17 19V21H7V19M17 19H21V17V8C21 5 18 3 17 3M17 19V18M17 3C16.2959 3 16.2302 3 15 3C14.8333 3.66667 14 5 12 5C10 5 9.16667 3.66667 9 3C7.45498 3 8.01958 3 7 3M17 3C16.8333 4.33333 15.6 7 12 7C8.4 7 7.16667 4.33333 7 3M7 3C6.57653 3 5.79442 3.35865 5.03335 4C3.99718 4.87318 3 6.2704 3 8C3 9.93381 3 13.9452 3 17C3 17.7364 3 18.4173 3 19H7M7 19L10 16L13 19L16 16L17 17M7 19V16M18 9L17 10.5V17M6 9L7 10.5V16M17 17V18M17 18L16 19L13 16L10 19L7 16" stroke="black" stroke-width="1.5" stroke-linecap="round" stroke-linejoin="round"/>
<path d="M7 6C7 6.41421 6.66421 6.75 6.25 6.75C5.83579 6.75 5.5 6.41421 5.5 6C5.5 5.58579 5.83579 5.25 6.25 5.25C6.66421 5.25 7 5.58579 7 6Z" fill="black"/>
<path d="M8.75 7.75C8.75 8.16421 8.41421 8.5 8 8.5C7.58579 8.5 7.25 8.16421 7.25 7.75C7.25 7.33579 7.58579 7 8 7C8.41421 7 8.75 7.33579 8.75 7.75Z" fill="black"/>
<circle cx="10.75" cy="8.75" r="0.75" fill="black"/>
<path d="M14.25 8.75C14.25 9.16421 13.9142 9.5 13.5 9.5C13.0858 9.5 12.75 9.16421 12.75 8.75C12.75 8.33579 13.0858 8 13.5 8C13.9142 8 14.25 8.33579 14.25 8.75Z" fill="black"/>
<path d="M16.75 7.75C16.75 8.16421 16.4142 8.5 16 8.5C15.5858 8.5 15.25 8.16421 15.25 7.75C15.25 7.33579 15.5858 7 16 7C16.4142 7 16.75 7.33579 16.75 7.75Z" fill="black"/>
<path d="M18.5 6C18.5 6.41421 18.1642 6.75 17.75 6.75C17.3358 6.75 17 6.41421 17 6C17 5.58579 17.3358 5.25 17.75 5.25C18.1642 5.25 18.5 5.58579 18.5 6Z" fill="black"/>
</svg>
