<svg width="24" height="24" viewBox="0 0 24 24" fill="none" xmlns="http://www.w3.org/2000/svg">
<path d="M2.5 4.25C2.08579 4.25 1.75 4.58579 1.75 5C1.75 5.41421 2.08579 5.75 2.5 5.75V4.25ZM21.5 12V12.75C21.9142 12.75 22.25 12.4142 22.25 12H21.5ZM3.75 3.5C3.75 3.08579 3.41421 2.75 3 2.75C2.58579 2.75 2.25 3.08579 2.25 3.5H3.75ZM6.25 2.5C6.25 2.08579 5.91421 1.75 5.5 1.75C5.08579 1.75 4.75 2.08579 4.75 2.5H6.25ZM8.75 3.5C8.75 3.08579 8.41421 2.75 8 2.75C7.58579 2.75 7.25 3.08579 7.25 3.5H8.75ZM14.75 8.5C14.75 8.08579 14.4142 7.75 14 7.75C13.5858 7.75 13.25 8.08579 13.25 8.5H14.75ZM13.25 6C13.25 6.41421 13.5858 6.75 14 6.75C14.4142 6.75 14.75 6.41421 14.75 6H13.25ZM14.75 4.5C14.75 4.08579 14.4142 3.75 14 3.75C13.5858 3.75 13.25 4.08579 13.25 4.5H14.75ZM17.25 9.5C17.25 9.08579 16.9142 8.75 16.5 8.75C16.0858 8.75 15.75 9.08579 15.75 9.5H17.25ZM15.75 7C15.75 7.41421 16.0858 7.75 16.5 7.75C16.9142 7.75 17.25 7.41421 17.25 7H15.75ZM17.25 5.5C17.25 5.08579 16.9142 4.75 16.5 4.75C16.0858 4.75 15.75 5.08579 15.75 5.5H17.25ZM19.75 7.5C19.75 7.08579 19.4142 6.75 19 6.75C18.5858 6.75 18.25 7.08579 18.25 7.5H19.75ZM22.25 9.5C22.25 9.08579 21.9142 8.75 21.5 8.75C21.0858 8.75 20.75 9.08579 20.75 9.5H22.25ZM20.75 7C20.75 7.41421 21.0858 7.75 21.5 7.75C21.9142 7.75 22.25 7.41421 22.25 7H20.75ZM22.25 5C22.25 4.58579 21.9142 4.25 21.5 4.25C21.0858 4.25 20.75 4.58579 20.75 5H22.25ZM12.25 10.5C12.25 10.0858 11.9142 9.75 11.5 9.75C11.0858 9.75 10.75 10.0858 10.75 10.5H12.25ZM2.5 21.5L1.87597 21.084C1.72254 21.3141 1.70823 21.61 1.83875 21.8539C1.96926 22.0978 2.22341 22.25 2.5 22.25V21.5ZM5.6094 16.8359L4.98537 16.4199L5.6094 16.8359ZM21.5 21.5V22.25C21.7726 22.25 22.0238 22.102 22.156 21.8636C22.2882 21.6251 22.2805 21.3337 22.136 21.1025L21.5 21.5ZM19.5875 18.44L20.2235 18.0425L19.5875 18.44ZM14.9117 18.4341L15.5463 18.8338L15.5463 18.8338L14.9117 18.4341ZM14.4474 19.1711L13.8234 19.5872L14.4474 19.1711ZM12.8906 16.8359L12.2666 17.2519L12.8906 16.8359ZM11.25 6.75C11.25 7.21134 10.7876 7.75 10 7.75V9.25C11.4216 9.25 12.75 8.22165 12.75 6.75H11.25ZM10 5.75C10.7876 5.75 11.25 6.28866 11.25 6.75H12.75C12.75 5.27835 11.4216 4.25 10 4.25V5.75ZM8.75 10.25C8.75 9.78866 9.21244 9.25 10 9.25V7.75C8.57842 7.75 7.25 8.77835 7.25 10.25H8.75ZM10 11.25C9.21244 11.25 8.75 10.7113 8.75 10.25H7.25C7.25 11.7217 8.57842 12.75 10 12.75V11.25ZM10 4.25H8V5.75H10V4.25ZM8 4.25H5.5V5.75H8V4.25ZM5.5 4.25H3V5.75H5.5V4.25ZM3 4.25H2.5V5.75H3V4.25ZM10 12.75H11.5V11.25H10V12.75ZM11.5 12.75H14V11.25H11.5V12.75ZM14 12.75H16.5V11.25H14V12.75ZM16.5 12.75H19V11.25H16.5V12.75ZM19 12.75H21.5V11.25H19V12.75ZM3.75 5V3.5H2.25V5H3.75ZM6.25 5V2.5H4.75V5H6.25ZM8.75 5V3.5H7.25V5H8.75ZM14.75 12V8.5H13.25V12H14.75ZM14.75 6V4.5H13.25V6H14.75ZM17.25 12V9.5H15.75V12H17.25ZM17.25 7V5.5H15.75V7H17.25ZM19.75 12V7.5H18.25V12H19.75ZM22.25 12V9.5H20.75V12H22.25ZM22.25 7V5H20.75V7H22.25ZM12.25 12V10.5H10.75V12H12.25ZM3.12404 21.916L6.23344 17.2519L4.98537 16.4199L1.87597 21.084L3.12404 21.916ZM8.10556 16.25H10.3945V14.75H8.10556V16.25ZM2.5 22.25H16V20.75H2.5V22.25ZM16 22.25H21.5V20.75H16V22.25ZM16.604 18.25H17.8915V16.75H16.604V18.25ZM18.9515 18.8375L20.864 21.8975L22.136 21.1025L20.2235 18.0425L18.9515 18.8375ZM14.277 18.0344L13.8128 18.7714L15.082 19.5709L15.5463 18.8338L14.277 18.0344ZM12.2666 17.2519L13.8234 19.5872L15.0715 18.7551L13.5146 16.4199L12.2666 17.2519ZM13.8234 19.5872L15.376 21.916L16.624 21.084L15.0715 18.7551L13.8234 19.5872ZM16.604 16.75C15.6592 16.75 14.7806 17.235 14.277 18.0344L15.5463 18.8338C15.7751 18.4704 16.1745 18.25 16.604 18.25V16.75ZM10.3945 16.25C11.1467 16.25 11.8493 16.626 12.2666 17.2519L13.5146 16.4199C12.8191 15.3766 11.6483 14.75 10.3945 14.75V16.25ZM17.8915 18.25C18.3225 18.25 18.7231 18.472 18.9515 18.8375L20.2235 18.0425C19.721 17.2385 18.8397 16.75 17.8915 16.75V18.25ZM6.23344 17.2519C6.65074 16.626 7.35326 16.25 8.10556 16.25V14.75C6.85173 14.75 5.68086 15.3766 4.98537 16.4199L6.23344 17.2519Z" fill="black"/>
</svg>
