<svg width="24" height="24" viewBox="0 0 24 24" fill="none" xmlns="http://www.w3.org/2000/svg">
<path d="M21 18C19.0312 18 18.4688 16.5 16.5 16.5C14.5312 16.5 13.6875 18 12 18C10.0312 18 9.46875 16.5 7.5 16.5C5.53125 16.5 4.6875 18 3 18M21 21C19.0312 21 18.4688 19.5 16.5 19.5C14.5312 19.5 13.6875 21 12 21C10.0312 21 9.46875 19.5 7.5 19.5C5.53125 19.5 4.6875 21 3 21" stroke="black" stroke-width="1.5" stroke-linecap="round" stroke-linejoin="round"/>
<path d="M15 4.49999C15 4.49999 12.5 9.46855 13 12.9685C13.4846 12.9147 14.1884 12.9061 15 13M15 4.49999C15 4.49999 16 9.00001 15 13M15 4.49999C15.5 3.50003 14.5 2.25426 12.0001 2.96856C8.50007 3.96859 5.50006 8.96856 4.00006 15.4686M15 13C16.7008 13.1968 18.8754 14.3439 20.5001 15.9686M11.5 5.96856C11 5.46855 8.00006 8.96854 8.50002 11.4686C9.12013 14.5694 12.5 5.96856 11.5 5.96856Z" stroke="black" stroke-width="1.5" stroke-linecap="round" stroke-linejoin="round"/>
</svg>
