<svg width="24" height="24" viewBox="0 0 24 24" fill="none" xmlns="http://www.w3.org/2000/svg">
<path d="M2.50001 21.5C3.16668 21.5223 4.80001 21.2101 6.00001 19.7834C7.3958 18.1239 8.35865 19.306 10.5 18.8746M21.5 21.5C19 20.5 20.5 20.5 18.5 19.5C16.9767 18.7383 17.1938 18.7013 16.5 18.396M16.5 18.396C16.2829 18.3004 15.9767 18.1785 15.5 18C14.2526 17.5328 13.7832 17.6484 13 17.9833M16.5 18.396C17.1667 18.0973 18.5 17.2 18.5 16C19.3333 15.5 20.5 14 18.5 12C18.6485 11.3317 18.7044 10.3658 18.4378 9.5M14.5 2.5C16.1 3.7 15.1667 5 14.5 5.5C15.3 5.9 15.5 7 15.5 7.5C17.2744 7.5 18.1059 8.4224 18.4378 9.5M18.4378 9.5C19.4585 9.33333 21.4 8.5 21 6.5C21.5208 5.66667 22.1498 3.7 20.5 2.5M10.5 18.8746C10.6599 18.8424 10.8263 18.8012 11 18.7491C11.9408 18.4672 12.5275 18.1853 13 17.9833M10.5 18.8746C10 18.4164 9.20001 17.1 10 15.5C9.60001 15.3 9.06801 14.8 8.96561 14C8.31041 14.3333 6.8 14.6603 6 13.0603M7.22348 12C6.64899 12.8333 5.10001 14.1 3.50001 12.5C1.90001 10.9 2.83334 9.16667 3.50001 8.5C3.35303 8.42651 3.17851 8.32224 3.00002 8.19147M2.5 5.5C2.18819 6.43544 2.36891 7.72909 3.00002 8.19147M3.00002 8.19147C3.50002 7.96098 4.50002 7.3 4.50002 6.5C6 6.5 6.73953 5 6.5 4M5.50002 9.5C6.50001 10 9 10 9.5 8C10.5 8.19147 12.2773 6 11 4.5M11.2239 11.5603C11.681 11.3812 12.4543 11.2502 13.2239 11.4775M15 13.0603C14.5469 12.1348 13.8868 11.6733 13.2239 11.4775M13.2239 11.4775C13.408 11.0051 14.0209 10.0603 15 10.0603M18.5 6.5C18.8334 5.85813 19.1 4.31694 17.5 3.28719M13 17.9833C12.5296 17.3222 12.0354 15.8 13 15" stroke="black" stroke-width="1.5" stroke-linecap="round" stroke-linejoin="round"/>
<path d="M5 15.5C5 15.9142 4.66421 16.25 4.25 16.25C3.83579 16.25 3.5 15.9142 3.5 15.5C3.5 15.0858 3.83579 14.75 4.25 14.75C4.66421 14.75 5 15.0858 5 15.5Z" fill="black"/>
<path d="M8 16.5C8 16.9142 7.66421 17.25 7.25 17.25C6.83579 17.25 6.5 16.9142 6.5 16.5C6.5 16.0858 6.83579 15.75 7.25 15.75C7.66421 15.75 8 16.0858 8 16.5Z" fill="black"/>
<path d="M22.5 15.75C22.5 16.1642 22.1642 16.5 21.75 16.5C21.3358 16.5 21 16.1642 21 15.75C21 15.3358 21.3358 15 21.75 15C22.1642 15 22.5 15.3358 22.5 15.75Z" fill="black"/>
<path d="M21.5 11C21.5 11.4142 21.1642 11.75 20.75 11.75C20.3358 11.75 20 11.4142 20 11C20 10.5858 20.3358 10.25 20.75 10.25C21.1642 10.25 21.5 10.5858 21.5 11Z" fill="black"/>
</svg>
