<svg width="24" height="24" viewBox="0 0 24 24" fill="none" xmlns="http://www.w3.org/2000/svg">
<path d="M13.5 6.49998L2.5 16L13.5 12C15 11.4999 17 8.49998 13.5 6.49998ZM13.5 6.49998C14.5 5.5 16 4.00001 18.5 5.5C19.1667 5.83334 20.5 6 22 7.50001C21.3333 7.50001 19.5 7.49994 18.5 7.99994C18 11.9999 15.3333 14.0402 14 14.5603M10 15L5.5 19.5H2.5L7.5 14.6254L10 15ZM10 15C10.5277 15.066 11.0273 15.0882 11.5 15.0717M14 14.5603C14 15.3735 14.3 17.2 15.5 18M14 14.5603C13.2655 14.8555 12.4353 15.0392 11.5 15.0717M11.5 15.0717C11.8333 15.7145 12.7 17.2 13.5 18M11.5 18H17" stroke="black" stroke-width="1.5" stroke-linecap="round" stroke-linejoin="round"/>
</svg>
