<svg width="24" height="24" viewBox="0 0 24 24" fill="none" xmlns="http://www.w3.org/2000/svg">
<path d="M18.7663 19.5C19.1852 18.4636 18.7951 17.4602 18 16.9999C10.4 12.5999 8.5 9.49993 6.00005 5.99996C5.3502 5.09015 4.26598 4.76836 3.23476 5.35489M18.7663 19.5C18.699 19.6665 18.6108 19.8339 18.5001 20C17.7001 21.2 16.3145 20.8054 15.5001 20.5C12.8334 19.5 6.90005 16.2 2.50005 8.99996C2.15207 8.43065 1.50007 6.49991 3.00001 5.49993C3.07909 5.44721 3.15736 5.39891 3.23476 5.35489M18.7663 19.5C19.5109 19.6666 20.9784 19.5646 21.5 18C22.2568 15.7297 21.0424 15.0154 21 15C20.9577 14.9846 20.9136 14.9678 20.8676 14.9495M3.23476 5.35489C2.98984 4.90325 2.8 3.79996 4 2.99996C5.2 2.19996 6.90018 2.25017 7.50005 2.99999C7.63503 3.16872 7.7695 3.33537 7.90345 3.49996M7.90345 3.49996C8.43565 3.04831 9.54742 2.54733 10.5 3.49996C12 4.99997 16 9.99997 20 12C20.5784 12.2997 21.5617 13.3092 20.8676 14.9495M7.90345 3.49996C13.9741 10.9593 18.965 14.1936 20.8676 14.9495" stroke="black" stroke-width="1.5" stroke-linecap="round" stroke-linejoin="round"/>
<path d="M19.2302 16.3416C19.0859 16.0425 18.9928 15.4455 18.3341 14.9974C17.278 14.279 16.7956 14.9178 16.094 14.279C15.2754 13.5338 15.319 12.9676 14.5004 12.2224C13.6819 11.4772 12.7633 11.7815 12.0617 11.1428C11.2431 10.3976 11.577 9.56098 10.7584 8.81578C9.93985 8.07059 9.16635 8.1668 8.63496 7.38074C8.02921 6.48469 8.39974 5.88575 7.58118 5.14055C7.2151 4.80728 6.77913 4.66656 6.34623 4.55569" stroke="black" stroke-width="1.5" stroke-linecap="round" stroke-linejoin="round" stroke-dasharray="0.5 1.5"/>
</svg>
