<svg width="24" height="24" viewBox="0 0 24 24" fill="none" xmlns="http://www.w3.org/2000/svg">
<path d="M12 14V21.5M12 14L7 8.5L2 14V21.5H12M12 14L17 8.5L22 14V21.5H12M8.36364 10H15.6364" stroke="black" stroke-width="1.5" stroke-linecap="round" stroke-linejoin="round"/>
<path d="M6.5 12.5H7.5V13.5H6.5V12.5ZM16.5 12.5H17.5V13.5H16.5V12.5ZM4.5 16.5H5.5V18H4.5V16.5ZM8.5 16.5H9.5V18H8.5V16.5ZM14.5 16.5H15.5V21H14.5V16.5ZM18.5 16.5H19.5V18H18.5V16.5Z" stroke="black" stroke-linejoin="round"/>
</svg>
