<svg width="24" height="24" viewBox="0 0 24 24" fill="none" xmlns="http://www.w3.org/2000/svg">
<path d="M2 21C3.11111 22.3333 4.22222 22.3333 5.33333 21C6.44445 22.3333 7.55556 22.3333 8.66667 21C9.77778 22.3333 10.8889 22.3333 12 21C13.1111 22.3333 14.2222 22.3333 15.3333 21C16.4444 22.3333 17.5556 22.3333 18.6667 21C19.7778 22.3333 20.8889 22.3333 22 21M3 15V11H15V15M19 16V8M19 8H15M19 8L20 6H14L15 8M15 8V16M15 6V4H19V6M17 4V2M4.5 11V8.5M4.5 8.5H13M4.5 8.5L9 6M13 8.5V11M13 8.5L9 6M9 6V5M17 10V11M17 13V14M12.5 13H13M10 13H10.5M7.5 13H8M5 13H5.5M2 18H22L21 16H9C7 14.4181 4 14.4181 2 16V18Z" stroke="black" stroke-width="1.5" stroke-linecap="round" stroke-linejoin="round"/>
</svg>
