<svg width="24" height="24" viewBox="0 0 24 24" fill="none" xmlns="http://www.w3.org/2000/svg">
<path d="M2.5 18H4L7 19M7 19H17M7 19L6 21.5H18L17 19M17 19L20 18H21.5M4.5 18V5H19.5V18M3 3.5C4.66667 2.83333 8 2 12 2C16 2 19.3333 2.83333 21 3.5M7 5V3M17 5V3M7.5 17L9 16.5L6.5 14.5C6.5 14.5 8 14 12 14C16 14 17.5 14.5 17.5 14.5L15 16.5L16.5 17M12 16V16.5M12 16L11 16.5M12 16L13 16.5M12 16.5V17M12 16.5H11M12 16.5H13M12 17L11 16.5M12 17L13 16.5M5 12H19.5M9 7V12H15V7M5 7H19" stroke="black" stroke-width="1.5" stroke-linecap="round" stroke-linejoin="round"/>
</svg>
