<svg width="24" height="24" viewBox="0 0 24 24" fill="none" xmlns="http://www.w3.org/2000/svg">
<path d="M19 7.40541V9.56757M12 4.16216V2M5 7.40541V9.56757M8.5 7.40541V9.56757M15.5 7.40541V9.56757M17 4.16216C17.6667 4.16216 19 3.72973 19 2M5 2C5 2.72072 5.4 4.16216 7 4.16216M4 21.4595V11.7297M9 21.4595V11.7297M15 11.7297V14.973M15 14.973V21.4595M15 14.973H13M15 14.973H20M20 11.7297V14.973M20 14.973V21.4595M20 14.973H22M2 14.973H11M2 22H22M3 7.40541L5.76923 4.16216H18.2308L21 7.40541H3ZM2 11.7297L4 9.56756H10V11.7297H2ZM22 11.7297L20 9.56756L14 9.56756V11.7297L22 11.7297Z" stroke="black" stroke-width="1.5" stroke-linecap="round" stroke-linejoin="round"/>
</svg>
