<svg width="24" height="24" viewBox="0 0 24 24" fill="none" xmlns="http://www.w3.org/2000/svg">
<path d="M22 12.625C22.3452 12.625 22.625 12.3452 22.625 12C22.625 11.6548 22.3452 11.375 22 11.375V12.625ZM11.375 22C11.375 22.3452 11.6548 22.625 12 22.625C12.3452 22.625 12.625 22.3452 12.625 22H11.375ZM12.625 2C12.625 1.65482 12.3452 1.375 12 1.375C11.6548 1.375 11.375 1.65482 11.375 2H12.625ZM2 11.375C1.65482 11.375 1.375 11.6548 1.375 12C1.375 12.3452 1.65482 12.625 2 12.625V11.375ZM19.6053 15.6693C19.3064 15.4967 18.9241 15.5991 18.7516 15.898C18.579 16.197 18.6814 16.5792 18.9803 16.7518L19.6053 15.6693ZM20.8035 17.8044C21.1025 17.977 21.4847 17.8746 21.6573 17.5757C21.8299 17.2767 21.7275 16.8945 21.4285 16.7219L20.8035 17.8044ZM8.32831 19.6047C8.50055 19.3056 8.3977 18.9235 8.09857 18.7512C7.79944 18.579 7.41731 18.6818 7.24506 18.981L8.32831 19.6047ZM6.1952 20.8042C6.02295 21.1033 6.1258 21.4854 6.42493 21.6577C6.72406 21.8299 7.10619 21.7271 7.27844 21.4279L6.1952 20.8042ZM15.6694 4.39285C15.4967 4.69172 15.599 5.074 15.8979 5.2467C16.1967 5.4194 16.579 5.31712 16.7517 5.01824L15.6694 4.39285ZM17.8043 3.19665C17.977 2.89778 17.8747 2.51549 17.5758 2.3428C17.277 2.1701 16.8947 2.27238 16.722 2.57125L17.8043 3.19665ZM4.39284 8.33062C4.6917 8.50332 5.07399 8.40104 5.24669 8.10217C5.41939 7.8033 5.31711 7.42102 5.01824 7.24832L4.39284 8.33062ZM3.19662 6.1957C2.89775 6.023 2.51547 6.12528 2.34277 6.42415C2.17007 6.72302 2.27235 7.1053 2.57122 7.278L3.19662 6.1957ZM16.7518 18.9804C16.5792 18.6814 16.197 18.579 15.8981 18.7516C15.5991 18.9242 15.4967 19.3064 15.6693 19.6054L16.7518 18.9804ZM16.7219 21.4286C16.8945 21.7275 17.2768 21.8299 17.5757 21.6573C17.8746 21.4847 17.977 21.1025 17.8044 20.8036L16.7219 21.4286ZM5.01825 16.7517C5.31711 16.579 5.41939 16.1967 5.24668 15.8978C5.07398 15.599 4.69169 15.4967 4.39283 15.6694L5.01825 16.7517ZM2.57126 16.722C2.27239 16.8947 2.17012 17.277 2.34282 17.5759C2.51553 17.8747 2.89781 17.977 3.19668 17.8043L2.57126 16.722ZM18.981 7.24499C18.6818 7.41723 18.5789 7.79935 18.7512 8.09849C18.9234 8.39762 19.3055 8.5005 19.6047 8.32827L18.981 7.24499ZM21.4279 7.27848C21.7271 7.10625 21.83 6.72413 21.6577 6.42499C21.4855 6.12585 21.1034 6.02298 20.8042 6.19521L21.4279 7.27848ZM7.24506 5.01902C7.4173 5.31815 7.79943 5.42102 8.09856 5.24877C8.39769 5.07653 8.50056 4.69441 8.32831 4.39527L7.24506 5.01902ZM7.27849 2.57208C7.10625 2.27294 6.72413 2.17008 6.42499 2.34232C6.12586 2.51457 6.023 2.89669 6.19524 3.19582L7.27849 2.57208ZM9 11.375C8.65482 11.375 8.375 11.6548 8.375 12C8.375 12.3452 8.65482 12.625 9 12.625V11.375ZM15 12.625C15.3452 12.625 15.625 12.3452 15.625 12C15.625 11.6548 15.3452 11.375 15 11.375V12.625ZM11 9.625C11.3452 9.625 11.625 9.34518 11.625 9C11.625 8.65482 11.3452 8.375 11 8.375V9.625ZM13 8.375C12.6548 8.375 12.375 8.65482 12.375 9C12.375 9.34518 12.6548 9.625 13 9.625V8.375ZM10.375 14.5C10.375 14.8452 10.6548 15.125 11 15.125C11.3452 15.125 11.625 14.8452 11.625 14.5H10.375ZM12.375 14.5C12.375 14.8452 12.6548 15.125 13 15.125C13.3452 15.125 13.625 14.8452 13.625 14.5H12.375ZM13 13.625C13.3452 13.625 13.625 13.3452 13.625 13C13.625 12.6548 13.3452 12.375 13 12.375V13.625ZM11 13V12.375H10.375V13H11ZM9 9.875C8.65482 9.875 8.375 10.1548 8.375 10.5C8.375 10.8452 8.65482 11.125 9 11.125V9.875ZM15 11.125C15.3452 11.125 15.625 10.8452 15.625 10.5C15.625 10.1548 15.3452 9.875 15 9.875V11.125ZM9 12.875C8.65482 12.875 8.375 13.1548 8.375 13.5C8.375 13.8452 8.65482 14.125 9 14.125V12.875ZM15 14.125C15.3452 14.125 15.625 13.8452 15.625 13.5C15.625 13.1548 15.3452 12.875 15 12.875V14.125ZM20.4211 12.625H22V11.375H20.4211V12.625ZM11.375 20.4211V22H12.625V20.4211H11.375ZM12.625 3.57895V2H11.375V3.57895H12.625ZM3.57895 11.375H2V12.625H3.57895V11.375ZM19.7961 12C19.7961 16.3056 16.3056 19.7961 12 19.7961V21.0461C16.996 21.0461 21.0461 16.996 21.0461 12H19.7961ZM12 19.7961C7.69436 19.7961 4.20395 16.3056 4.20395 12H2.95395C2.95395 16.996 7.004 21.0461 12 21.0461V19.7961ZM4.20395 12C4.20395 7.69436 7.69436 4.20395 12 4.20395V2.95395C7.004 2.95395 2.95395 7.004 2.95395 12H4.20395ZM12 4.20395C16.3056 4.20395 19.7961 7.69436 19.7961 12H21.0461C21.0461 7.004 16.996 2.95395 12 2.95395V4.20395ZM16.6382 12C16.6382 14.5616 14.5616 16.6382 12 16.6382V17.8882C15.2519 17.8882 17.8882 15.2519 17.8882 12H16.6382ZM12 16.6382C9.43842 16.6382 7.36184 14.5616 7.36184 12H6.11184C6.11184 15.2519 8.74806 17.8882 12 17.8882V16.6382ZM7.36184 12C7.36184 9.43842 9.43842 7.36184 12 7.36184V6.11184C8.74806 6.11184 6.11184 8.74806 6.11184 12H7.36184ZM12 7.36184C14.5616 7.36184 16.6382 9.43842 16.6382 12H17.8882C17.8882 8.74806 15.2519 6.11184 12 6.11184V7.36184ZM18.9803 16.7518L20.8035 17.8044L21.4285 16.7219L19.6053 15.6693L18.9803 16.7518ZM7.24506 18.981L6.1952 20.8042L7.27844 21.4279L8.32831 19.6047L7.24506 18.981ZM16.7517 5.01824L17.8043 3.19665L16.722 2.57125L15.6694 4.39285L16.7517 5.01824ZM5.01824 7.24832L3.19662 6.1957L2.57122 7.278L4.39284 8.33062L5.01824 7.24832ZM15.6693 19.6054L16.7219 21.4286L17.8044 20.8036L16.7518 18.9804L15.6693 19.6054ZM4.39283 15.6694L2.57126 16.722L3.19668 17.8043L5.01825 16.7517L4.39283 15.6694ZM19.6047 8.32827L21.4279 7.27848L20.8042 6.19521L18.981 7.24499L19.6047 8.32827ZM8.32831 4.39527L7.27849 2.57208L6.19524 3.19582L7.24506 5.01902L8.32831 4.39527ZM9 12.625H10V11.375H9V12.625ZM10 12.625H12V11.375H10V12.625ZM12 12.625H14V11.375H12V12.625ZM14 12.625H15V11.375H14V12.625ZM10.625 10C10.625 9.93335 10.6501 9.81946 10.7072 9.74019C10.7312 9.70685 10.7585 9.68251 10.7928 9.66482C10.8266 9.64739 10.8892 9.625 11 9.625V8.375C10.3963 8.375 9.95866 8.64054 9.69279 9.00981C9.44986 9.34721 9.375 9.73332 9.375 10H10.625ZM13 9.625C13.1406 9.625 13.2046 9.65836 13.2314 9.67628C13.2622 9.69681 13.2906 9.72865 13.316 9.77951C13.3426 9.83281 13.3591 9.89368 13.3679 9.9465C13.372 9.97143 13.3739 9.99083 13.3746 10.0016C13.375 10.0068 13.3751 10.0096 13.3751 10.0096C13.3751 10.0096 13.3751 10.0088 13.3751 10.0072C13.375 10.0064 13.375 10.0054 13.375 10.0042C13.375 10.0036 13.375 10.003 13.375 10.0023C13.375 10.0019 13.375 10.0016 13.375 10.0012C13.375 10.001 13.375 10.0007 13.375 10.0006C13.375 10.0003 13.375 10 14 10C14.625 10 14.625 9.99969 14.625 9.99938C14.625 9.99927 14.625 9.99895 14.625 9.99873C14.625 9.99829 14.625 9.99783 14.625 9.99736C14.625 9.99641 14.625 9.9954 14.625 9.99432C14.625 9.99216 14.6249 9.98973 14.6249 9.98705C14.6248 9.9817 14.6247 9.9753 14.6244 9.96795C14.6239 9.95325 14.623 9.93459 14.6215 9.9125C14.6183 9.86854 14.6123 9.80982 14.6009 9.741C14.5784 9.60632 14.5324 9.41719 14.434 9.22049C14.3344 9.02135 14.1753 8.80319 13.9248 8.63622C13.6704 8.46664 13.3594 8.375 13 8.375V9.625ZM9.375 10V10.5H10.625V10H9.375ZM9.375 10.5V12H10.625V10.5H9.375ZM10.375 14V14.5H11.625V14H10.375ZM9.44098 12.2795L10.191 13.7795L11.309 13.2205L10.559 11.7205L9.44098 12.2795ZM10.191 13.7795L10.441 14.2795L11.559 13.7205L11.309 13.2205L10.191 13.7795ZM12.375 13.5V14H13.625V13.5H12.375ZM12.375 14V14.5H13.625V14H12.375ZM13.559 14.2795L13.809 13.7795L12.691 13.2205L12.441 13.7205L13.559 14.2795ZM13.809 13.7795L14.559 12.2795L13.441 11.7205L12.691 13.2205L13.809 13.7795ZM14.625 12V10.5H13.375V12H14.625ZM14.625 10.5V10H13.375V10.5H14.625ZM9.55806 10.4419L10.0581 10.9419L10.9419 10.0581L10.4419 9.55806L9.55806 10.4419ZM10.0581 10.9419L11.5581 12.4419L12.4419 11.5581L10.9419 10.0581L10.0581 10.9419ZM12.4419 12.4419L13.9419 10.9419L13.0581 10.0581L11.5581 11.5581L12.4419 12.4419ZM13.9419 10.9419L14.4419 10.4419L13.5581 9.55806L13.0581 10.0581L13.9419 10.9419ZM13 12.375H11V13.625H13V12.375ZM9 11.125H10V9.875H9V11.125ZM10 11.125H10.5V9.875H10V11.125ZM10.5 11.125H13.5V9.875H10.5V11.125ZM13.5 11.125H14V9.875H13.5V11.125ZM14 11.125H15V9.875H14V11.125ZM9 14.125H10.75V12.875H9V14.125ZM10.75 14.125H11V12.875H10.75V14.125ZM11 14.125H13V12.875H11V14.125ZM13 14.125H13.25V12.875H13V14.125ZM13.25 14.125H15V12.875H13.25V14.125ZM10.375 13V13.5H11.625V13H10.375ZM10.375 13.5V14H11.625V13.5H10.375Z" fill="black"/>
</svg>
