<svg width="24" height="24" viewBox="0 0 24 24" fill="none" xmlns="http://www.w3.org/2000/svg">
<g clip-path="url(#clip0_4057_53)">
<path d="M20.8421 12H22.5M20.8421 12C20.8421 16.8834 16.8834 20.8421 12 20.8421M20.8421 12C20.8421 7.11664 16.8834 3.15789 12 3.15789M12 20.8421V22.5M12 20.8421C7.11664 20.8421 3.15789 16.8834 3.15789 12M12 3.15789V1.5M12 3.15789C7.11664 3.15789 3.15789 7.11664 3.15789 12M3.15789 12H1.5M19.6575 16.4211L21.5718 17.5263M7.57602 19.6575L6.47366 21.5719M16.4211 4.34083L17.5263 2.42815M4.34081 7.57894L2.42811 6.47369M16.4211 19.6575L17.5263 21.5719M4.34081 16.4211L2.42817 17.5263M19.6575 7.57596L21.5719 6.47369M7.57602 4.34251L6.47371 2.42815M8.84997 12L9.89997 12M9.89997 12L11.2499 12M9.89997 12V10.425M9.89997 12L10.6875 13.575M11.2499 12L12.4917 12M11.2499 12L10.2375 10.425M11.2499 12V10.5L12.4917 12M12.4917 12L13.4999 12M12.4917 12L13.05 10.425M13.4999 12L14.1 12M13.4999 12L13.05 10.425M13.4999 12L13.95 10.425M14.1 12H15.15M14.1 12L13.3125 13.575M14.1 12V10.425M9.89997 9.90001C9.89997 9.55001 10.11 8.85001 10.95 8.85001M9.89997 9.90001V10.425M9.89997 9.90001L10.2375 10.425M13.05 8.85001C14.1 8.85001 14.1 9.90001 14.1 9.90001M14.1 9.90001V10.425M14.1 9.90001L13.95 10.425M9.89997 10.425H8.84997M9.89997 10.425H10.2375M10.95 14.1V14.625M10.95 14.1L10.6875 13.575M10.95 14.1V13.575M10.6875 13.575H8.84997M10.6875 13.575H10.95M13.05 13.575V14.1M13.05 13.575H10.95M13.05 13.575H13.3125M13.05 14.1V14.625M13.05 14.1L13.3125 13.575M13.3125 13.575H15.15M14.1 10.425H13.95M14.1 10.425H15.15M10.2375 10.425H13.05M13.05 13.05H10.95V13.575M13.05 10.425H13.95M17.5263 12C17.5263 15.0521 15.0521 17.5263 12 17.5263C8.9479 17.5263 6.47368 15.0521 6.47368 12C6.47368 8.9479 8.9479 6.47368 12 6.47368C15.0521 6.47368 17.5263 8.9479 17.5263 12Z" stroke="black" stroke-width="1.5" stroke-linecap="round" stroke-linejoin="round"/>
</g>
<defs>
<clipPath id="clip0_4057_53">
<rect width="24" height="24" fill="white"/>
</clipPath>
</defs>
</svg>
