<svg width="24" height="24" viewBox="0 0 24 24" fill="none" xmlns="http://www.w3.org/2000/svg">
<path d="M2 15L1.25 15V15H2ZM11 15.75C11.4142 15.75 11.75 15.4142 11.75 15C11.75 14.5858 11.4142 14.25 11 14.25V15.75ZM13 14.25C12.5858 14.25 12.25 14.5858 12.25 15C12.25 15.4142 12.5858 15.75 13 15.75V14.25ZM9.8 20V19.25C9.38579 19.25 9.05 19.5858 9.05 20H9.8ZM14.2 20H14.95C14.95 19.5858 14.6142 19.25 14.2 19.25V20ZM14.2 22V22.75C14.6142 22.75 14.95 22.4142 14.95 22H14.2ZM9.8 22H9.05C9.05 22.4142 9.38579 22.75 9.8 22.75V22ZM11.65 17.5C11.65 17.0858 11.3142 16.75 10.9 16.75C10.4858 16.75 10.15 17.0858 10.15 17.5H11.65ZM10.9 20H10.15C10.15 20.4142 10.4858 20.75 10.9 20.75V20ZM13 20V20.75C13.4142 20.75 13.75 20.4142 13.75 20H13ZM13.75 17.5C13.75 17.0858 13.4142 16.75 13 16.75C12.5858 16.75 12.25 17.0858 12.25 17.5H13.75ZM10.9 15H10.15C10.15 15.4142 10.4858 15.75 10.9 15.75V15ZM13.1 15V15.75C13.5142 15.75 13.85 15.4142 13.85 15H13.1ZM2.1 11.25C1.68579 11.25 1.35 11.5858 1.35 12C1.35 12.4142 1.68579 12.75 2.1 12.75V11.25ZM11.65 6C11.65 5.58579 11.3142 5.25 10.9 5.25C10.4858 5.25 10.15 5.58579 10.15 6H11.65ZM13.85 6C13.85 5.58579 13.5142 5.25 13.1 5.25C12.6858 5.25 12.35 5.58579 12.35 6H13.85ZM21.9 12.75C22.3142 12.75 22.65 12.4142 22.65 12C22.65 11.5858 22.3142 11.25 21.9 11.25V12.75ZM16.05 9.5C16.05 9.08579 15.7142 8.75 15.3 8.75C14.8858 8.75 14.55 9.08579 14.55 9.5H16.05ZM14.55 15C14.55 15.4142 14.8858 15.75 15.3 15.75C15.7142 15.75 16.05 15.4142 16.05 15H14.55ZM9.45 9.5C9.45 9.08579 9.11421 8.75 8.7 8.75C8.28579 8.75 7.95 9.08579 7.95 9.5H9.45ZM7.95 15C7.95 15.4142 8.28579 15.75 8.7 15.75C9.11421 15.75 9.45 15.4142 9.45 15H7.95ZM18.25 11C18.25 10.5858 17.9142 10.25 17.5 10.25C17.0858 10.25 16.75 10.5858 16.75 11H18.25ZM16.75 15C16.75 15.4142 17.0858 15.75 17.5 15.75C17.9142 15.75 18.25 15.4142 18.25 15H16.75ZM7.25 11C7.25 10.5858 6.91421 10.25 6.5 10.25C6.08579 10.25 5.75 10.5858 5.75 11H7.25ZM5.75 15C5.75 15.4142 6.08579 15.75 6.5 15.75C6.91421 15.75 7.25 15.4142 7.25 15H5.75ZM20.45 12C20.45 11.5858 20.1142 11.25 19.7 11.25C19.2858 11.25 18.95 11.5858 18.95 12H20.45ZM18.95 15C18.95 15.4142 19.2858 15.75 19.7 15.75C20.1142 15.75 20.45 15.4142 20.45 15H18.95ZM2.75002 12C2.75003 11.5858 2.41424 11.25 2.00003 11.25C1.58582 11.25 1.25003 11.5858 1.25002 12L2.75002 12ZM22.75 12C22.75 11.5858 22.4142 11.25 22 11.25C21.5858 11.25 21.25 11.5858 21.25 12H22.75ZM5.05 12C5.05 11.5858 4.71421 11.25 4.3 11.25C3.88579 11.25 3.55 11.5858 3.55 12H5.05ZM3.55 15C3.55 15.4142 3.88579 15.75 4.3 15.75C4.71421 15.75 5.05 15.4142 5.05 15H3.55ZM11.65 3C11.65 2.58579 11.3142 2.25 10.9 2.25C10.4858 2.25 10.15 2.58579 10.15 3H11.65ZM13.85 3C13.85 2.58579 13.5142 2.25 13.1 2.25C12.6858 2.25 12.35 2.58579 12.35 3H13.85ZM10.9 5.75C10.4858 5.75 10.15 6.08579 10.15 6.5C10.15 6.91421 10.4858 7.25 10.9 7.25V5.75ZM13.1 6.5H13.85V5.75H13.1V6.5ZM13.1 9.5V10.25H13.85V9.5H13.1ZM10.9 9.5V8.75H10.15V9.5H10.9ZM10.9 12H10.15V12.75H10.9V12ZM13.1 12H13.85V11.25H13.1V12ZM22 17.5V18.25C22.1989 18.25 22.3897 18.171 22.5303 18.0303C22.671 17.8897 22.75 17.6989 22.75 17.5L22 17.5ZM2 17.5H1.25C1.25 17.9142 1.58579 18.25 2 18.25V17.5ZM2 15.75H11V14.25H2V15.75ZM13 15.75H22V14.25H13V15.75ZM9.8 20.75H14.2V19.25H9.8V20.75ZM13.45 20V22H14.95V20H13.45ZM14.2 21.25H9.8V22.75H14.2V21.25ZM10.55 22V20H9.05V22H10.55ZM10.15 17.5V20H11.65V17.5H10.15ZM10.9 20.75H13V19.25H10.9V20.75ZM13.75 20V17.5H12.25V20H13.75ZM10.9 15.75H13.1V14.25H10.9V15.75ZM13.85 15V4H12.35V15H13.85ZM13.1 3.25H10.9V4.75H13.1V3.25ZM10.15 4V15H11.65V4H10.15ZM2.1 12.75C4.51331 12.75 6.86878 11.6615 8.60289 10.3478C9.47525 9.68694 10.2173 8.94926 10.7486 8.22477C11.2617 7.52504 11.65 6.73995 11.65 6H10.15C10.15 6.26005 9.98831 6.72496 9.53895 7.33773C9.10774 7.92574 8.47475 8.56306 7.69711 9.15218C6.13122 10.3385 4.08669 11.25 2.1 11.25V12.75ZM12.35 6C12.35 6.73995 12.7383 7.52504 13.2514 8.22477C13.7827 8.94926 14.5248 9.68694 15.3971 10.3478C17.1312 11.6615 19.4867 12.75 21.9 12.75V11.25C19.9133 11.25 17.8688 10.3385 16.3029 9.15218C15.5252 8.56306 14.8923 7.92574 14.4611 7.33773C14.0117 6.72496 13.85 6.26005 13.85 6H12.35ZM14.55 9.5V15H16.05V9.5H14.55ZM7.95 9.5V15H9.45V9.5H7.95ZM16.75 11V15H18.25V11H16.75ZM5.75 11L5.75 15H7.25L7.25 11H5.75ZM18.95 12V15H20.45V12H18.95ZM1.25002 12L1.25 15L2.75 15L2.75002 12L1.25002 12ZM21.25 12V15H22.75V12H21.25ZM3.55 12L3.55 15H5.05L5.05 12H3.55ZM11.65 4V3H10.15V4H11.65ZM12.35 3V4H13.85V3H12.35ZM10.9 7.25H13.1V5.75H10.9V7.25ZM12.35 6.5V9.5H13.85V6.5H12.35ZM13.1 8.75H10.9V10.25H13.1V8.75ZM10.15 9.5V12H11.65V9.5H10.15ZM10.9 12.75H13.1V11.25H10.9V12.75ZM12.35 12V15H13.85V12H12.35ZM22 16.75H2V18.25H22V16.75ZM2.75 17.5V15H1.25V17.5H2.75ZM2 15.75H22V14.25H2V15.75ZM21.25 15L21.25 17.5L22.75 17.5L22.75 15L21.25 15Z" fill="black"/>
</svg>
