<svg width="24" height="24" viewBox="0 0 24 24" fill="none" xmlns="http://www.w3.org/2000/svg">
<path d="M6.98448 8.58643H6.23448H6.98448ZM12.75 2.00001C12.75 1.5858 12.4142 1.25001 12 1.25C11.5858 1.24999 11.25 1.58578 11.25 1.99999L12.75 2.00001ZM20.7771 21.4729V22.2229C21.1913 22.2229 21.5271 21.8871 21.5271 21.4729H20.7771ZM3.22289 21.4729H2.47289C2.47289 21.8871 2.80867 22.2229 3.22289 22.2229V21.4729ZM6.99999 17.389L6.32557 17.0609C6.21248 17.2934 6.22706 17.5676 6.36415 17.7868C6.50123 18.0059 6.7415 18.139 6.99999 18.139V17.389ZM17 17.389V18.139C17.2585 18.139 17.4987 18.0059 17.6358 17.7868C17.7729 17.5676 17.7875 17.2934 17.6744 17.0609L17 17.389ZM5.24999 15.0297C5.24999 15.4439 5.58577 15.7797 5.99999 15.7797C6.4142 15.7797 6.74999 15.4439 6.74999 15.0297H5.24999ZM9.7616 11.9137C10.1758 11.9137 10.5116 11.5779 10.5116 11.1637C10.5116 10.7495 10.1758 10.4137 9.7616 10.4137V11.9137ZM14 10.4137C13.5858 10.4137 13.25 10.7495 13.25 11.1637C13.25 11.5779 13.5858 11.9137 14 11.9137V10.4137ZM17.0116 15.0297C17.0116 15.4439 17.3474 15.7797 17.7616 15.7797C18.1758 15.7797 18.5116 15.4439 18.5116 15.0297H17.0116ZM10.75 11.808C10.75 11.3938 10.4142 11.058 9.99999 11.058C9.58577 11.058 9.24999 11.3938 9.24999 11.808H10.75ZM9.24999 14.3853C9.24999 14.7996 9.58577 15.1353 9.99999 15.1353C10.4142 15.1353 10.75 14.7996 10.75 14.3853H9.24999ZM14.75 11.808C14.75 11.3938 14.4142 11.058 14 11.058C13.5858 11.058 13.25 11.3938 13.25 11.808H14.75ZM13.25 14.3853C13.25 14.7996 13.5858 15.1353 14 15.1353C14.4142 15.1353 14.75 14.7996 14.75 14.3853H13.25ZM14.75 9.08602V8.33602H13.25V9.08602H14.75ZM13.25 10.7088V11.4588H14.75V10.7088H13.25ZM10.75 9.03188V8.28188H9.25V9.03188H10.75ZM9.25 10.6546V11.4046H10.75V10.6546H9.25ZM10.5 19.4445V18.6945C10.0858 18.6945 9.75 19.0303 9.75 19.4445H10.5ZM10.5 21.5H9.75C9.75 21.7001 9.82995 21.8919 9.97207 22.0327C10.1142 22.1735 10.3067 22.2518 10.5068 22.25L10.5 21.5ZM13.5 21.4729L13.5068 22.2229C13.9183 22.2192 14.25 21.8845 14.25 21.4729H13.5ZM13.5 19.4445H14.25C14.25 19.0303 13.9142 18.6945 13.5 18.6945V19.4445ZM2 14.232C1.58579 14.232 1.25 14.5678 1.25 14.982C1.25 15.3962 1.58579 15.732 2 15.732V14.232ZM22 15.732C22.4142 15.732 22.75 15.3962 22.75 14.982C22.75 14.5678 22.4142 14.232 22 14.232V15.732ZM2 20.75C1.58579 20.75 1.25 21.0858 1.25 21.5C1.25 21.9142 1.58579 22.25 2 22.25V20.75ZM22 22.25C22.4142 22.25 22.75 21.9142 22.75 21.5C22.75 21.0858 22.4142 20.75 22 20.75V22.25ZM7.75 17.5C7.75 17.0858 7.41421 16.75 7 16.75C6.58579 16.75 6.25 17.0858 6.25 17.5H7.75ZM7 21.5H6.25C6.25 21.9142 6.58579 22.25 7 22.25V21.5ZM17 21.5V22.25C17.4142 22.25 17.75 21.9142 17.75 21.5H17ZM17.75 17.5C17.75 17.0858 17.4142 16.75 17 16.75C16.5858 16.75 16.25 17.0858 16.25 17.5H17.75ZM17.7655 8.58643C17.7655 7.02695 17.1629 5.52735 16.084 4.41855L15.0089 5.4646C15.8112 6.28915 16.2655 7.41174 16.2655 8.58643H17.7655ZM16.084 4.41855C15.0044 3.30904 13.5358 2.68182 12 2.68182V4.18182C13.1245 4.18182 14.2073 4.64075 15.0089 5.4646L16.084 4.41855ZM12 2.68182C10.4641 2.68182 8.99551 3.30904 7.91595 4.41855L8.99102 5.4646C9.79263 4.64075 10.8754 4.18182 12 4.18182V2.68182ZM7.91595 4.41855C6.83707 5.52735 6.23448 7.02695 6.23448 8.58643H7.73448C7.73448 7.41173 8.18873 6.28915 8.99102 5.4646L7.91595 4.41855ZM6.23448 8.58643V11.1638H7.73448V8.58643H6.23448ZM6.98448 11.9138H17.0155V10.4138H6.98448V11.9138ZM17.7655 11.1638V8.58643H16.2655V11.1638H17.7655ZM17.0155 7.83643L6.98448 7.83643V9.33643L17.0155 9.33643V7.83643ZM12.75 3.43183L12.75 2.00001L11.25 1.99999L11.25 3.43181L12.75 3.43183ZM3.22289 15.7796H20.7771V14.2796H3.22289V15.7796ZM20.0271 15.0296V21.4729H21.5271V15.0296H20.0271ZM20.7771 20.7229H3.22289V22.2229H20.7771V20.7229ZM3.97289 21.4729V15.0296H2.47289V21.4729H3.97289ZM6.99999 18.139H17V16.639H6.99999V18.139ZM17.6744 17.0609C17.1167 15.9147 15.2625 14.2796 12 14.2796V15.7796C14.756 15.7796 16.0473 17.1452 16.3256 17.7171L17.6744 17.0609ZM12 14.2796C8.73746 14.2796 6.88322 15.9147 6.32557 17.0609L7.67441 17.7171C7.95267 17.1452 9.2439 15.7796 12 15.7796V14.2796ZM3.97289 15.0296C3.97289 13.8515 4.25961 13.1067 4.70081 12.6532C5.13831 12.2036 5.8515 11.9138 6.98448 11.9138V10.4138C5.60973 10.4138 4.44212 10.7682 3.62575 11.6072C2.81309 12.4424 2.47289 13.6305 2.47289 15.0296H3.97289ZM6.74999 15.0297C6.74999 13.8515 7.03672 13.1067 7.47792 12.6532C7.91543 12.2036 8.62862 11.9137 9.7616 11.9137V10.4137C8.38683 10.4137 7.21922 10.7682 6.40286 11.6072C5.59019 12.4424 5.24999 13.6305 5.24999 15.0297H6.74999ZM17.0155 11.9138C18.1484 11.9138 18.8616 12.2036 19.2991 12.6532C19.7403 13.1067 20.0271 13.8515 20.0271 15.0296H21.5271C21.5271 13.6304 21.1869 12.4424 20.3742 11.6072C19.5578 10.7682 18.3902 10.4138 17.0155 10.4138V11.9138ZM14 11.9137C15.1329 11.9137 15.8461 12.2036 16.2836 12.6532C16.7249 13.1067 17.0116 13.8515 17.0116 15.0297H18.5116C18.5116 13.6305 18.1714 12.4424 17.3587 11.6072C16.5423 10.7682 15.3747 10.4137 14 10.4137V11.9137ZM9.24999 11.808V14.3853H10.75V11.808H9.24999ZM13.25 11.808V14.3853H14.75V11.808H13.25ZM13.25 9.08602V10.7088H14.75V9.08602H13.25ZM9.25 9.03188V10.6546H10.75V9.03188H9.25ZM9.75 19.4445V21.5H11.25V19.4445H9.75ZM10.5068 22.25L13.5068 22.2229L13.4932 20.723L10.4932 20.75L10.5068 22.25ZM14.25 21.4729V19.4445H12.75V21.4729H14.25ZM2 15.732H22V14.232H2V15.732ZM2 22.25H22V20.75H2V22.25ZM6.25 17.5V21.5H7.75V17.5H6.25ZM7 22.25H17V20.75H7V22.25ZM17.75 21.5V17.5H16.25V21.5H17.75ZM13.5 18.6945H10.5V20.1945H13.5V18.6945Z" fill="black"/>
</svg>
