<svg width="24" height="24" viewBox="0 0 24 24" fill="none" xmlns="http://www.w3.org/2000/svg">
<path d="M14.2 22V20H9.80005V22H14.2Z" stroke="black" stroke-width="1.5" stroke-linecap="round" stroke-linejoin="round"/>
<path d="M10.9 17.5V20M13 20V17.5" stroke="black" stroke-width="1.5" stroke-linecap="round" stroke-linejoin="round"/>
<rect x="2" y="15" width="20" height="2.50397" stroke="black" stroke-width="1.5" stroke-linecap="round" stroke-linejoin="round"/>
<path d="M10.9 15V3M13.1 15V3M15.3 9.5V15M8.70005 9.5V15M17.5 11V15M6.50005 11L6.50005 15M19.7 12V15M4.30005 12L4.30005 15" stroke="black" stroke-width="1.5" stroke-linecap="round" stroke-linejoin="round"/>
<path d="M13.1 4H10.9M10.9 6.5H13.1M13.1 9.5H10.9M10.9 12H13.1" stroke="black" stroke-width="1.5" stroke-linecap="round" stroke-linejoin="round"/>
<path d="M2 15L2.00002 12C6.40002 12 10.9 8 10.9 6M22 15V12C17.6 12 13.1 8 13.1 6" stroke="black" stroke-width="1.5" stroke-linecap="round" stroke-linejoin="round"/>
</svg>
