<svg width="24" height="24" viewBox="0 0 24 24" fill="none" xmlns="http://www.w3.org/2000/svg">
<rect width="24" height="24" fill="white"/>
<path d="M12.7327 2C12.7327 2 3.01011 2.75087 3.01011 7.25087C3.01011 11.826 12.0101 10 12.0101 15.2509C12.0101 19.4569 2 19.5 2 19.5M22 3.5C22 3.5 12.5 2.99999 12.5 7.49999C12.5 12.0751 22 12 22 17C22 21.2061 12 22 12 22M17 10V6H22V10M19.5 8V9.5M2 17V13H7V17M4.5 15V16.5" stroke="black" stroke-width="1.5" stroke-linecap="round" stroke-linejoin="round"/>
</svg>
