<svg width="24" height="24" viewBox="0 0 24 24" fill="none" xmlns="http://www.w3.org/2000/svg">
<path d="M2 8L7 3L12 8M2 8H12M2 8V22H12V8M12 7L17 2L22 7M12 7H22M12 7V21H22V7M2 13H6M6 13H12M6 13V22M12 12H16M16 12H22M16 12V21M2 20H6V18M6 18H4M6 18H12M4 18H2M4 18V15M12 19H16V17M16 17H14M16 17H22M14 17H12M14 17V14M4 10V11M14 9V10M5.5 5.5H8.5V8H5.5V5.5ZM15.5 4.5H18.5V7H15.5V4.5ZM6 11V10H10.2377V11H6ZM16 10V9H20.2377V10H16ZM8 15H10V15.896H8V15ZM18 14H20V14.896H18V14Z" stroke="black" stroke-width="1.5" stroke-linecap="round" stroke-linejoin="round"/>
</svg>
