<svg width="24" height="24" viewBox="0 0 24 24" fill="none" xmlns="http://www.w3.org/2000/svg">
<path d="M2 22H22M3 21.5V12M3 12L8 10.5M3 12V9.5L8 8H16L21 9.5V12M8 10.5H16M8 10.5V22H16V10.5M8 10.5V5M21 21.5V12M21 12L16 10.5M16 10.5V5M3 10V6.875L8 5M8 5H16M16 5L21 6.875V10M5 6C5.5 4.66667 7.6 2 12 2C16.4 2 18.5 4.66667 19 6M18.5 14V22M5.5 14V22M3 7V6M21 7V6M10 18H8M14 18H16M21 15H22M3 15H2M10 14C10 13.3333 10.4 12 12 12C13.6 12 14 13.3333 14 14V22H10V14Z" stroke="black" stroke-width="1.5" stroke-linecap="round" stroke-linejoin="round"/>
</svg>
