<svg width="24" height="24" viewBox="0 0 24 24" fill="none" xmlns="http://www.w3.org/2000/svg">
<path d="M16 18V22H12C12.1667 21.3333 12 20 14 20V18M11.5 21C7 21 3.5 19.24 3.5 13C3 13 2 12.056 2 9.56C2 9.56 3.66667 9.11333 4.5 10.5C4.66667 10.1533 5.4 9.56 7 9.56C7.5 11.12 6 13 5.5 13C5.5 13.82 6 16 10 16C14 16 13.5 8 17 8C19.5 8 20 9.38667 20 10.08H22C22 13.2 19.7 13.2 18.5 13.2C20 16.32 19.2 21 16 21H21.5C21.5 20.3333 21 19 19 19M18 10V10.5" stroke="black" stroke-width="1.5" stroke-linecap="round" stroke-linejoin="round"/>
</svg>
