<svg width="24" height="24" viewBox="0 0 24 24" fill="none" xmlns="http://www.w3.org/2000/svg">
<path d="M6 7.99999C4.33333 7.83332 2 8.19998 2 11C2 14.5 9 13 9 16C9 17.6113 7.70183 18.7899 6.5 19.5358M6 7.99999C6 7.99999 8.50003 3 12 3C15.5 3 18 7.99999 18 7.99999M6 7.99999C6 7.99999 1.50003 12.5 12 12.5C22.5 12.5 18 7.99999 18 7.99999M18 7.99999C19.6667 7.83332 22 8.19998 22 11C22 14.5 15 13 15 16C15 17.2988 16.4371 18.6572 17.5 19.5M20.6224 21.6842C20.6224 21.6842 17.0297 18 12 18C6.97022 18 3.3775 21.6842 3.3775 21.6842" stroke="black" stroke-width="1.5" stroke-linecap="round" stroke-linejoin="round"/>
</svg>
