<svg viewBox="0 0 20 20" fill="currentColor">
  <path fill-rule="evenodd" d="M10 18a8 8 0 100-16.001A8 8 0 0010 18zM6.836 5.014a1 1 0 011.15.822l.497 2.981.006.035.011.065.514-3.081a1 1 0 011.972 0l.514 3.081.01-.065a.997.997 0 01.007-.035l.497-2.981a1 1 0 111.972.328L13.68 8H15a1 1 0 110 2h-1.653l-.166 1H15a1 1 0 110 2h-2.153l-.36 2.164a1 1 0 01-1.973 0L10 12.083l-.514 3.081a1 1 0 01-1.972 0L7.153 13H5a1 1 0 110-2h1.82l-.167-1H5a1 1 0 110-2h1.32l-.306-1.836a1 1 0 01.822-1.15z" clip-rule="evenodd"/>
</svg>
