<svg xmlns="http://www.w3.org/2000/svg" viewBox="0 0 20 20" fill="currentColor" aria-hidden="true">
  <path fill-rule="evenodd" d="M10 18a8 8 0 100-16 8 8 0 000 16zM8.732 6.232a2.5 2.5 0 013.536 0 .75.75 0 101.06-1.06A4 4 0 006.5 8v.165c0 .364.034.728.1 1.085h-.35a.75.75 0 000 1.5h.737a5.25 5.25 0 01-.367 3.072l-.055.123a.75.75 0 00.848 1.037l1.272-.283a3.493 3.493 0 011.604.021 4.992 4.992 0 002.422 0l.97-.242a.75.75 0 00-.363-1.456l-.971.243a3.491 3.491 0 01-1.694 0 4.992 4.992 0 00-2.258-.038c.19-.811.227-1.651.111-2.477H9.75a.75.75 0 000-1.5H8.136A4.397 4.397 0 018 8.165V8c0-.641.244-1.28.732-1.768z" clip-rule="evenodd"/>
</svg>
