<svg xmlns="http://www.w3.org/2000/svg" viewBox="0 0 20 20" fill="currentColor" aria-hidden="true">
  <path fill-rule="evenodd" d="M10 18a8 8 0 100-16 8 8 0 000 16zM8.798 7.45c.512-.67 1.135-.95 1.702-.95s1.19.28 1.702.95a.75.75 0 001.192-.91C12.637 5.55 11.596 5 10.5 5s-2.137.55-2.894 1.54A5.205 5.205 0 006.83 8H5.75a.75.75 0 000 1.5h.77a6.333 6.333 0 000 1h-.77a.75.75 0 000 1.5h1.08c.183.528.442 1.023.776 1.46.757.99 1.798 1.54 2.894 1.54s2.137-.55 2.894-1.54a.75.75 0 00-1.192-.91c-.512.67-1.135.95-1.702.95s-1.19-.28-1.702-.95a3.505 3.505 0 01-.343-.55h1.795a.75.75 0 000-1.5H8.026a4.835 4.835 0 010-1h2.224a.75.75 0 000-1.5H8.455c.098-.195.212-.38.343-.55z" clip-rule="evenodd"/>
</svg>
