<svg xmlns="http://www.w3.org/2000/svg" viewBox="0 0 20 20" fill="currentColor" aria-hidden="true">
  <path fill-rule="evenodd" d="M9.493 2.853a.75.75 0 00-1.486-.205L7.545 6H4.198a.75.75 0 000 1.5h3.14l-.69 5H3.302a.75.75 0 000 1.5h3.14l-.435 3.148a.75.75 0 001.486.205L7.955 14h2.986l-.434 3.148a.75.75 0 001.486.205L12.456 14h3.346a.75.75 0 000-1.5h-3.14l.69-5h3.346a.75.75 0 000-1.5h-3.14l.435-3.147a.75.75 0 00-1.486-.205L12.045 6H9.059l.434-3.147zM8.852 7.5l-.69 5h2.986l.69-5H8.852z" clip-rule="evenodd"/>
</svg>
