<svg xmlns="http://www.w3.org/2000/svg" viewBox="0 0 20 20" fill="currentColor" aria-hidden="true">
  <path fill-rule="evenodd" d="M1 6a3 3 0 013-3h12a3 3 0 013 3v8a3 3 0 01-3 3H4a3 3 0 01-3-3V6zm4 1.5a2 2 0 114 0 2 2 0 01-4 0zm2 3a4 4 0 00-3.665 2.395.75.75 0 00.416 1A8.98 8.98 0 007 14.5a8.98 8.98 0 003.249-.604.75.75 0 00.416-1.001A4.001 4.001 0 007 10.5zm5-3.75a.75.75 0 01.75-.75h2.5a.75.75 0 010 1.5h-2.5a.75.75 0 01-.75-.75zm0 6.5a.75.75 0 01.75-.75h2.5a.75.75 0 010 1.5h-2.5a.75.75 0 01-.75-.75zm.75-4a.75.75 0 000 1.5h2.5a.75.75 0 000-1.5h-2.5z" clip-rule="evenodd"/>
</svg>
