<svg xmlns="http://www.w3.org/2000/svg" viewBox="0 0 20 20" fill="currentColor" aria-hidden="true">
  <path fill-rule="evenodd" d="M7.171 4.146l1.947 2.466a3.514 3.514 0 011.764 0l1.947-2.466a6.52 6.52 0 00-5.658 0zm8.683 3.025l-2.466 1.947c.15.578.15 1.186 0 1.764l2.466 1.947a6.52 6.52 0 000-5.658zm-3.025 8.683l-1.947-2.466c-.578.15-1.186.15-1.764 0l-1.947 2.466a6.52 6.52 0 005.658 0zM4.146 12.83l2.466-1.947a3.514 3.514 0 010-1.764L4.146 7.171a6.52 6.52 0 000 5.658zM5.63 3.297a8.01 8.01 0 018.738 0 8.031 8.031 0 012.334 2.334 8.01 8.01 0 010 8.738 8.033 8.033 0 01-2.334 2.334 8.01 8.01 0 01-8.738 0 8.032 8.032 0 01-2.334-2.334 8.01 8.01 0 010-8.738A8.03 8.03 0 015.63 3.297zm5.198 4.882a2.008 2.008 0 00-2.243.407 1.994 1.994 0 00-.407 2.243 1.993 1.993 0 00.992.992 2.008 2.008 0 002.243-.407c.176-.175.31-.374.407-.585a2.008 2.008 0 00-.407-2.243 1.993 1.993 0 00-.585-.407z" clip-rule="evenodd"/>
</svg>
