<svg xmlns="http://www.w3.org/2000/svg" viewBox="0 0 20 20" fill="currentColor" aria-hidden="true">
  <path fill-rule="evenodd" d="M6 4.75A.75.75 0 016.75 4h10.5a.75.75 0 010 1.5H6.75A.75.75 0 016 4.75zM6 10a.75.75 0 01.75-.75h10.5a.75.75 0 010 1.5H6.75A.75.75 0 016 10zm0 5.25a.75.75 0 01.75-.75h10.5a.75.75 0 010 1.5H6.75a.75.75 0 01-.75-.75zM1.99 4.75a1 1 0 011-1H3a1 1 0 011 1v.01a1 1 0 01-1 1h-.01a1 1 0 01-1-1v-.01zM1.99 15.25a1 1 0 011-1H3a1 1 0 011 1v.01a1 1 0 01-1 1h-.01a1 1 0 01-1-1v-.01zM1.99 10a1 1 0 011-1H3a1 1 0 011 1v.01a1 1 0 01-1 1h-.01a1 1 0 01-1-1V10z" clip-rule="evenodd"/>
</svg>
