<svg xmlns="http://www.w3.org/2000/svg" viewBox="0 0 20 20" fill="currentColor" aria-hidden="true">
  <path fill-rule="evenodd" d="M10.339 2.237a.532.532 0 00-.678 0 11.947 11.947 0 01-7.078 2.75.5.5 0 00-.479.425A12.11 12.11 0 002 7c0 5.163 3.26 9.564 7.834 11.257a.48.48 0 00.332 0C14.74 16.564 18 12.163 18 7.001c0-.54-.035-1.07-.104-1.59a.5.5 0 00-.48-.425 11.947 11.947 0 01-7.077-2.75zM10 6a.75.75 0 01.75.75v3.5a.75.75 0 01-1.5 0v-3.5A.75.75 0 0110 6zm0 9a1 1 0 100-2 1 1 0 000 2z" clip-rule="evenodd"/>
</svg>
