<svg fill="none" viewBox="0 0 24 24" stroke="currentColor">
  <path fill="#000" d="M12 3v1-1zM9.986 7.836a1 1 0 10-1.972.328l1.972-.328zM10.5 17l-.986.164a1 1 0 001.972 0L10.5 17zM12 8l.986-.164a1 1 0 00-1.972 0L12 8zm1.5 9l-.986.164a1 1 0 001.972 0L13.5 17zm2.486-8.836a1 1 0 10-1.972-.328l1.972.328zM7 10a1 1 0 100 2v-2zm10 2a1 1 0 100-2v2zM7 13a1 1 0 100 2v-2zm10 2a1 1 0 100-2v2zm-2.5-5a1 1 0 100 2v-2zm-5 2a1 1 0 100-2v2zm.5 3a1 1 0 100-2v2zm4-2a1 1 0 100 2v-2zm6-1c0 1.05-.207 2.09-.609 3.062l1.848.765A10 10 0 0022 12h-2zm-.609 3.062a8 8 0 01-1.734 2.595l1.414 1.414a10 10 0 002.168-3.244l-1.848-.765zm-1.734 2.595a8 8 0 01-2.595 1.734l.765 1.848a10 10 0 003.244-2.168l-1.414-1.414zm-2.595 1.734C14.09 19.793 13.05 20 12 20v2a10 10 0 003.827-.761l-.765-1.848zM12 20c-1.05 0-2.09-.207-3.061-.609l-.766 1.848A10 10 0 0012 22v-2zm-3.061-.609a8 8 0 01-2.596-1.734L4.93 19.07a10 10 0 003.244 2.168l.766-1.848zm-2.596-1.734a8 8 0 01-1.734-2.595l-1.848.765A10 10 0 004.93 19.07l1.414-1.414zM4.61 15.062A8 8 0 014 12H2a10 10 0 00.761 3.827l1.848-.765zM4 12a8 8 0 012.343-5.657L4.93 4.93A10 10 0 002 12h2zm2.343-5.657A8 8 0 0112 4V2a10 10 0 00-7.071 2.929l1.414 1.414zM12 4a8 8 0 015.657 2.343L19.07 4.93A10 10 0 0012 2v2zm5.657 2.343A8 8 0 0120 12h2a10 10 0 00-2.929-7.071l-1.414 1.414zM8.014 8.164l1.5 9 1.972-.328-1.5-9-1.972.328zm3.472 9l1.5-9-1.972-.328-1.5 9 1.972.328zm-.472-9l1.5 9 1.972-.328-1.5-9-1.972.328zm3.472 9l1.5-9-1.972-.328-1.5 9 1.972.328zM14.5 12H17v-2h-2.5v2zM7 12h2.5v-2H7v2zm0 3h3v-2H7v2zm7 0h3v-2h-3v2z"/>
</svg>
