<svg fill="none" viewBox="0 0 24 24" stroke="currentColor">
  <path fill="#000" d="M10 6a1 1 0 000 2V6zm-2 4a1 1 0 100 2v-2zm8 2a1 1 0 100-2v2zm-4-9v1-1zm4 12a1 1 0 10-2 0h2zm-4 0v-.018-.017-.018-.017-.017-.018-.017-.017-.017-.018-.017-.017-.017-.017-.017-.016-.017-.017-.017-.017-.016-.017-.017-.016-.016-.017-.016-.017-.016-.016-.017-.016-.016-.016-.016-.016-.016-.016-.016-.016-.016-.016-.015-.016-.016-.015-.016-.015-.016-.016-.015-.015-.016-.015-.015-.015-.016-.015-.015-.015-.015-.015-.015-.015-.015-.015-.015-.014-.015-.015-.015-.014-.015-.014-.015-.014-.015-.014-.015-.014-.014-.015-.014-.014-.014-.015-.014-.014-.014-.014-.014-.014-.014-.014-.014-.013-.014-.014-.014-.013-.014-.014-.013-.014-.013-.014-.013-.014-.013-.013-.014-.013-.013-.014-.013-.013-.013-.013-.013-.013-.013-.014-.012-.013-.013-.013-.013-.013-.013-.012-.013-.013-.013-.012-.013-.013-.012-.013-.012-.013-.012-.013-.012-.012-.013-.012-.012-.013-.012-.012-.012-.013-.012-.012-.012-.012-.012-.012-.012-.012-.012-.012-.012-.012-.012-.011-.012-.012-.012-.012-.011-.012-.012-.011-.012-.012-.011-.012-.011-.012-.011-.012-.011-.012-.011-.011-.012-.011-.012-.01-.012-.011-.012-.01-.012-.011-.011-.012-.01-.012-.011-.011-.011-.011-.011-.011-.011-.011-.011-.011-.011-.01-.012-.01-.011-.011-.011-.01-.012-.01-.011-.01-.012-.01-.011-.01-.011-.01-.011-.011-.01-.011-.01-.011-.01-.011-.011-.01-.01-.011-.01-.011-.01-.011-.01-.01-.011-.01-.01-.011-.01-.01-.011-.01-.01-.011-.01-.01-.01-.01-.011-.01-.01-.01-.01-.011-.01-.01-.01-.01-.01-.01-.01-.01-.01-.011-.01-.01-.01-.01-.01-.01-.01-.01-.01-.01-.01-.01-.01-.01-.01-.01-.01-.01-.01-.01-.01-.01-.01-.009-.01-.01-.01-.01-.01-.01-.009-.01-.01-.01-.01-.01-.009-.01-.01-.01-.01-.01-.009-.01-.01-.01-.009-.01-.01-.01-.01-.009-.01-.01-.01-.01-.009-.01-.01-.01-.009-.01-.01-.01-.009-.01-.01-.01-.009-.01-.01-.01-.01-.009-.01-.01-.01-.009-.01-.01-.01-.01-.009-.01-.01-.01-.009-.01-.01-.01-.01-.01-.009-.01-.01-.01-.01-.009-.01-.01-.01-.01-.01-.01-.009-.01-.01-.01-.01-.01-.01-.01-.01-.01-.009-.01-.01-.01-.01-.01-.01-.01-.01-.01-.01-.01-.01-.01-.01-.01-.01-.01-.01-.01-.01-.01-.01-.01-.01-.01-.01-.011-.01-.01-.01-.01-.01-.011-.01-.01-.01-.011-.01-.01-.011-.01-.01-.011-.01-.01-.011-.01-.01-.011-.01-.011-.01-.011-.01-.011-.01-.011-.01-.011-.01-.011-.01-.011-.011-.01-.011-.011-.01-.011-.011-.01-.012-.01-.011-.011-.01-.012-.01-.011-.011-.011-.011-.011-.01-.012-.01-.012-.01-.012-.011-.011-.011-.011-.011-.012-.01-.012-.011-.011-.012-.011-.011-.012-.011-.011-.012-.011-.012-.011-.011-.012-.011-.012-.012-.011-.012-.011-.012-.012-.011V9h-2V15h2zm0-6c0-1.154-.29-1.953-.793-2.457a1.882 1.882 0 00-.735-.46A1.651 1.651 0 0010.018 6h-.013-.002C10.001 6 10 6 10 7s-.001 1-.002 1h-.002a.479.479 0 01-.051-.002.578.578 0 01-.105-.018c-.036-.012-.05-.026-.047-.023.003.003.052.051.102.203.052.156.105.42.105.84h2zm8 3c0 1.05-.207 2.09-.609 3.062l1.848.765A10 10 0 0022 12h-2zm-.609 3.062a8 8 0 01-1.734 2.595l1.414 1.414a10 10 0 002.168-3.244l-1.848-.765zm-1.734 2.595a8 8 0 01-2.595 1.734l.765 1.848a10 10 0 003.244-2.168l-1.414-1.414zm-2.595 1.734C14.09 19.793 13.05 20 12 20v2a10 10 0 003.827-.761l-.765-1.848zM12 20c-1.05 0-2.09-.207-3.061-.609l-.766 1.848A10 10 0 0012 22v-2zm-3.061-.609a8 8 0 01-2.596-1.734L4.93 19.07a10 10 0 003.244 2.168l.766-1.848zm-2.596-1.734a8 8 0 01-1.734-2.595l-1.848.765A10 10 0 004.93 19.07l1.414-1.414zM4.61 15.062A8 8 0 014 12H2a10 10 0 00.761 3.827l1.848-.765zM4 12a8 8 0 012.343-5.657L4.93 4.93A10 10 0 002 12h2zm2.343-5.657A8 8 0 0112 4V2a10 10 0 00-7.071 2.929l1.414 1.414zM12 4a8 8 0 015.657 2.343L19.07 4.93A10 10 0 0012 2v2zm5.657 2.343A8 8 0 0120 12h2a10 10 0 00-2.929-7.071l-1.414 1.414zM14 15a1 1 0 01-1 1v2a3 3 0 003-3h-2zm-1 1a1 1 0 01-1-1h-2a3 3 0 003 3v-2zm-5-4h8v-2H8v2z"/>
</svg>
