<svg fill="none" viewBox="0 0 24 24" stroke="currentColor">
  <path fill="#4A5568" d="M9.228 3.684L8.279 4l.949-.316zm1.498 4.493l-.949.316.949-.316zm-.502 1.21l.447.895-.447-.894zm-2.257 1.13l-.447-.895a1 1 0 00-.465 1.306l.912-.412zm5.516 5.516l-.41.912a1 1 0 001.305-.465l-.895-.447zm1.13-2.257l-.895-.447.894.447zm1.21-.502l-.316.949.316-.949zm4.493 1.498l.317-.949-.317.95zM5 2a3 3 0 00-3 3h2a1 1 0 011-1V2zm3.28 0H5v2h3.28V2zm1.897 1.368A2 2 0 008.279 2v2l1.898-.632zm1.497 4.493l-1.497-4.493L8.279 4l1.498 4.493 1.897-.632zm-1.002 2.421a2 2 0 001.002-2.421l-1.897.632.895 1.79zm-2.258 1.129l2.258-1.129-.895-1.789-2.257 1.13.894 1.788zm5.48 3.71a10.042 10.042 0 01-5.015-5.016l-1.824.822a12.042 12.042 0 006.018 6.018l.822-1.824zm-.176-1.793l-1.129 2.258 1.789.894 1.129-2.257-1.79-.895zm2.421-1.002a2 2 0 00-2.421 1.002l1.789.895.632-1.897zm4.494 1.497l-4.494-1.497-.632 1.897L20 15.72l.633-1.898zM22 15.721a2 2 0 00-1.367-1.898L20 15.721h2zM22 19v-3.28h-2V19h2zm-3 3a3 3 0 003-3h-2a1 1 0 01-1 1v2zm-1 0h1v-2h-1v2zM2 6c0 8.837 7.163 16 16 16v-2C10.268 20 4 13.732 4 6H2zm0-1v1h2V5H2z"/>
</svg>
