<svg fill="none" viewBox="0 0 24 24" stroke="currentColor">
  <path fill="#4B5563" d="M20 12a8 8 0 01-8 8v2c5.523 0 10-4.477 10-10h-2zm-8 8a8 8 0 01-8-8H2c0 5.523 4.477 10 10 10v-2zm-8-8a8 8 0 018-8V2C6.477 2 2 6.477 2 12h2zm8-8a8 8 0 018 8h2c0-5.523-4.477-10-10-10v2zm3 8a3 3 0 01-3 3v2a5 5 0 005-5h-2zm-3 3a3 3 0 01-3-3H7a5 5 0 005 5v-2zm-3-3a3 3 0 013-3V7a5 5 0 00-5 5h2zm3-3a3 3 0 013 3h2a5 5 0 00-5-5v2zm5.657-4.071L14.12 8.464l1.415 1.415 3.535-3.536-1.414-1.414zM14.12 15.536l3.536 3.535 1.414-1.414-3.536-3.536-1.414 1.415zM9.88 8.464L6.343 4.93 4.93 6.343 8.464 9.88 9.88 8.464zm-1.415 5.657L4.93 17.657l1.414 1.414 3.536-3.536-1.415-1.414z"/>
</svg>
