<svg xmlns="http://www.w3.org/2000/svg" viewBox="0 0 20 20" fill="currentColor" aria-hidden="true" data-slot="icon">
  <path d="M10 3.75a2 2 0 1 0-4 0 2 2 0 0 0 4 0ZM17.25 4.5a.75.75 0 0 0 0-1.5h-5.5a.75.75 0 0 0 0 1.5h5.5ZM5 3.75a.75.75 0 0 1-.75.75h-1.5a.75.75 0 0 1 0-1.5h1.5a.75.75 0 0 1 .75.75ZM4.25 17a.75.75 0 0 0 0-1.5h-1.5a.75.75 0 0 0 0 1.5h1.5ZM17.25 17a.75.75 0 0 0 0-1.5h-5.5a.75.75 0 0 0 0 1.5h5.5ZM9 10a.75.75 0 0 1-.75.75h-5.5a.75.75 0 0 1 0-1.5h5.5A.75.75 0 0 1 9 10ZM17.25 10.75a.75.75 0 0 0 0-1.5h-1.5a.75.75 0 0 0 0 1.5h1.5ZM14 10a2 2 0 1 0-4 0 2 2 0 0 0 4 0ZM10 16.25a2 2 0 1 0-4 0 2 2 0 0 0 4 0Z"/>
</svg>
