<svg xmlns="http://www.w3.org/2000/svg" viewBox="0 0 20 20" fill="currentColor" aria-hidden="true" data-slot="icon">
  <path fill-rule="evenodd" d="M13.2 2.24a.75.75 0 0 0 .04 1.06l2.1 1.95H6.75a.75.75 0 0 0 0 1.5h8.59l-2.1 1.95a.75.75 0 1 0 1.02 1.1l3.5-3.25a.75.75 0 0 0 0-1.1l-3.5-3.25a.75.75 0 0 0-1.06.04Zm-6.4 8a.75.75 0 0 0-1.06-.04l-3.5 3.25a.75.75 0 0 0 0 1.1l3.5 3.25a.75.75 0 1 0 1.02-1.1l-2.1-1.95h8.59a.75.75 0 0 0 0-1.5H4.66l2.1-1.95a.75.75 0 0 0 .04-1.06Z" clip-rule="evenodd"/>
</svg>
