<svg xmlns="http://www.w3.org/2000/svg" viewBox="0 0 20 20" fill="currentColor" aria-hidden="true" data-slot="icon">
  <path fill-rule="evenodd" d="M7.22 3.22A.75.75 0 0 1 7.75 3h9A2.25 2.25 0 0 1 19 5.25v9.5A2.25 2.25 0 0 1 16.75 17h-9a.75.75 0 0 1-.53-.22L.97 10.53a.75.75 0 0 1 0-1.06l6.25-6.25Zm3.06 4a.75.75 0 1 0-1.06 1.06L10.94 10l-1.72 1.72a.75.75 0 1 0 1.06 1.06L12 11.06l1.72 1.72a.75.75 0 1 0 1.06-1.06L13.06 10l1.72-1.72a.75.75 0 0 0-1.06-1.06L12 8.94l-1.72-1.72Z" clip-rule="evenodd"/>
</svg>
