<svg xmlns="http://www.w3.org/2000/svg" viewBox="0 0 20 20" fill="currentColor" aria-hidden="true" data-slot="icon">
  <path fill-rule="evenodd" d="M2 3.75A.75.75 0 0 1 2.75 3h11.5a.75.75 0 0 1 0 1.5H2.75A.75.75 0 0 1 2 3.75ZM2 7.5a.75.75 0 0 1 .75-.75h7.508a.75.75 0 0 1 0 1.5H2.75A.75.75 0 0 1 2 7.5ZM14 7a.75.75 0 0 1 .75.75v6.59l1.95-2.1a.75.75 0 1 1 1.1 1.02l-3.25 3.5a.75.75 0 0 1-1.1 0l-3.25-3.5a.75.75 0 1 1 1.1-1.02l1.95 2.1V7.75A.75.75 0 0 1 14 7ZM2 11.25a.75.75 0 0 1 .75-.75h4.562a.75.75 0 0 1 0 1.5H2.75a.75.75 0 0 1-.75-.75Z" clip-rule="evenodd"/>
</svg>
