<svg xmlns="http://www.w3.org/2000/svg" viewBox="0 0 20 20" fill="currentColor" aria-hidden="true">
  <path fill-rule="evenodd" d="M2 3.75A.75.75 0 012.75 3h11.5a.75.75 0 010 1.5H2.75A.75.75 0 012 3.75zM2 7.5a.75.75 0 01.75-.75h6.365a.75.75 0 010 1.5H2.75A.75.75 0 012 7.5zM14 7a.75.75 0 01.55.24l3.25 3.5a.75.75 0 11-1.1 1.02l-1.95-2.1v6.59a.75.75 0 01-1.5 0V9.66l-1.95 2.1a.75.75 0 11-1.1-1.02l3.25-3.5A.75.75 0 0114 7zM2 11.25a.75.75 0 01.75-.75H7A.75.75 0 017 12H2.75a.75.75 0 01-.75-.75z" clip-rule="evenodd"/>
</svg>
