<svg xmlns="http://www.w3.org/2000/svg" viewBox="0 0 20 20" fill="currentColor" aria-hidden="true" data-slot="icon">
  <path fill-rule="evenodd" d="M8.5 3.528v4.644c0 .729-.29 1.428-.805 1.944l-1.217 1.216a8.75 8.75 0 0 1 3.55.621l.502.201a7.25 7.25 0 0 0 4.178.365l-2.403-2.403a2.75 2.75 0 0 1-.805-1.944V3.528a40.205 40.205 0 0 0-3 0Zm4.5.084.19.015a.75.75 0 1 0 .12-1.495 41.364 41.364 0 0 0-6.62 0 .75.75 0 0 0 .12 1.495L7 3.612v4.56c0 .331-.132.649-.366.883L2.6 13.09c-1.496 1.496-.817 4.15 1.403 4.475C5.961 17.852 7.963 18 10 18s4.039-.148 5.997-.436c2.22-.325 2.9-2.979 1.403-4.475l-4.034-4.034A1.25 1.25 0 0 1 13 8.172v-4.56Z" clip-rule="evenodd"/>
</svg>
