<svg xmlns="http://www.w3.org/2000/svg" viewBox="0 0 20 20" fill="currentColor" aria-hidden="true">
  <path fill-rule="evenodd" d="M1 2.75A.75.75 0 011.75 2h10.5a.75.75 0 010 1.5H12v13.75a.75.75 0 01-.75.75h-1.5a.75.75 0 01-.75-.75v-2.5a.75.75 0 00-.75-.75h-2.5a.75.75 0 00-.75.75v2.5a.75.75 0 01-.75.75h-2.5a.75.75 0 010-1.5H2v-13h-.25A.75.75 0 011 2.75zM4 5.5a.5.5 0 01.5-.5h1a.5.5 0 01.5.5v1a.5.5 0 01-.5.5h-1a.5.5 0 01-.5-.5v-1zM4.5 9a.5.5 0 00-.5.5v1a.5.5 0 00.5.5h1a.5.5 0 00.5-.5v-1a.5.5 0 00-.5-.5h-1zM8 5.5a.5.5 0 01.5-.5h1a.5.5 0 01.5.5v1a.5.5 0 01-.5.5h-1a.5.5 0 01-.5-.5v-1zM8.5 9a.5.5 0 00-.5.5v1a.5.5 0 00.5.5h1a.5.5 0 00.5-.5v-1a.5.5 0 00-.5-.5h-1zM14.25 6a.75.75 0 00-.75.75V17a1 1 0 001 1h3.75a.75.75 0 000-1.5H18v-9h.25a.75.75 0 000-1.5h-4zm.5 3.5a.5.5 0 01.5-.5h1a.5.5 0 01.5.5v1a.5.5 0 01-.5.5h-1a.5.5 0 01-.5-.5v-1zm.5 3.5a.5.5 0 00-.5.5v1a.5.5 0 00.5.5h1a.5.5 0 00.5-.5v-1a.5.5 0 00-.5-.5h-1z" clip-rule="evenodd"/>
</svg>
