<svg xmlns="http://www.w3.org/2000/svg" viewBox="0 0 20 20" fill="currentColor" aria-hidden="true">
  <path d="M6.75.98l-.884.883a1.25 1.25 0 101.768 0L6.75.98zM13.25.98l-.884.883a1.25 1.25 0 101.768 0L13.25.98zM10 .98l.884.883a1.25 1.25 0 11-1.768 0L10 .98zM7.5 5.75a.75.75 0 00-1.5 0v.464c-1.179.305-2 1.39-2 2.622v.094c.1-.02.202-.038.306-.051A42.869 42.869 0 0110 8.5c1.93 0 3.83.129 5.694.379.104.013.206.03.306.051v-.094c0-1.232-.821-2.317-2-2.622V5.75a.75.75 0 00-1.5 0v.318a45.645 45.645 0 00-1.75-.062V5.75a.75.75 0 00-1.5 0v.256c-.586.01-1.17.03-1.75.062V5.75zM4.505 10.365A41.377 41.377 0 0110 10c1.863 0 3.697.124 5.495.365C16.967 10.562 18 11.838 18 13.28v.693a3.72 3.72 0 01-1.665-.393 5.222 5.222 0 00-4.67 0 3.722 3.722 0 01-3.33 0 5.222 5.222 0 00-4.67 0A3.72 3.72 0 012 13.972v-.693c0-1.441 1.033-2.716 2.505-2.914zM15.665 14.921a5.22 5.22 0 002.335.551V16.5a1.5 1.5 0 01-1.5 1.5h-13A1.5 1.5 0 012 16.5v-1.028c.8 0 1.6-.183 2.335-.551a3.722 3.722 0 013.33 0c1.47.735 3.2.735 4.67 0a3.722 3.722 0 013.33 0z"/>
</svg>
