<svg xmlns="http://www.w3.org/2000/svg" viewBox="0 0 20 20" fill="currentColor" aria-hidden="true">
  <path fill-rule="evenodd" d="M10 1c-1.716 0-3.408.106-5.07.31C3.806 1.45 3 2.414 3 3.517V16.75A2.25 2.25 0 005.25 19h9.5A2.25 2.25 0 0017 16.75V3.517c0-1.103-.806-2.068-1.93-2.207A41.403 41.403 0 0010 1zM5.99 8.75A.75.75 0 016.74 8h.01a.75.75 0 01.75.75v.01a.75.75 0 01-.75.75h-.01a.75.75 0 01-.75-.75v-.01zm.75 1.417a.75.75 0 00-.75.75v.01c0 .414.336.75.75.75h.01a.75.75 0 00.75-.75v-.01a.75.75 0 00-.75-.75h-.01zm-.75 2.916a.75.75 0 01.75-.75h.01a.75.75 0 01.75.75v.01a.75.75 0 01-.75.75h-.01a.75.75 0 01-.75-.75v-.01zm.75 1.417a.75.75 0 00-.75.75v.01c0 .414.336.75.75.75h.01a.75.75 0 00.75-.75v-.01a.75.75 0 00-.75-.75h-.01zm1.417-5.75a.75.75 0 01.75-.75h.01a.75.75 0 01.75.75v.01a.75.75 0 01-.75.75h-.01a.75.75 0 01-.75-.75v-.01zm.75 1.417a.75.75 0 00-.75.75v.01c0 .414.336.75.75.75h.01a.75.75 0 00.75-.75v-.01a.75.75 0 00-.75-.75h-.01zm-.75 2.916a.75.75 0 01.75-.75h.01a.75.75 0 01.75.75v.01a.75.75 0 01-.75.75h-.01a.75.75 0 01-.75-.75v-.01zm.75 1.417a.75.75 0 00-.75.75v.01c0 .414.336.75.75.75h.01a.75.75 0 00.75-.75v-.01a.75.75 0 00-.75-.75h-.01zm1.42-5.75a.75.75 0 01.75-.75h.01a.75.75 0 01.75.75v.01a.75.75 0 01-.75.75h-.01a.75.75 0 01-.75-.75v-.01zm.75 1.417a.75.75 0 00-.75.75v.01c0 .414.336.75.75.75h.01a.75.75 0 00.75-.75v-.01a.75.75 0 00-.75-.75h-.01zm-.75 2.916a.75.75 0 01.75-.75h.01a.75.75 0 01.75.75v.01a.75.75 0 01-.75.75h-.01a.75.75 0 01-.75-.75v-.01zm.75 1.417a.75.75 0 00-.75.75v.01c0 .414.336.75.75.75h.01a.75.75 0 00.75-.75v-.01a.75.75 0 00-.75-.75h-.01zM12.5 8.75a.75.75 0 01.75-.75h.01a.75.75 0 01.75.75v.01a.75.75 0 01-.75.75h-.01a.75.75 0 01-.75-.75v-.01zm.75 1.417a.75.75 0 00-.75.75v.01c0 .414.336.75.75.75h.01a.75.75 0 00.75-.75v-.01a.75.75 0 00-.75-.75h-.01zm0 2.166a.75.75 0 01.75.75v2.167a.75.75 0 11-1.5 0v-2.167a.75.75 0 01.75-.75zM6.75 4a.75.75 0 00-.75.75v.5c0 .414.336.75.75.75h6.5a.75.75 0 00.75-.75v-.5a.75.75 0 00-.75-.75h-6.5z" clip-rule="evenodd"/>
</svg>
