<svg xmlns="http://www.w3.org/2000/svg" viewBox="0 0 20 20" fill="currentColor" aria-hidden="true" data-slot="icon">
  <path fill-rule="evenodd" d="M10 2c-2.236 0-4.43.18-6.57.524C1.993 2.755 1 4.014 1 5.426v5.148c0 1.413.993 2.67 2.43 2.902.848.137 1.705.248 2.57.331v3.443a.75.75 0 0 0 1.28.53l3.58-3.579a.78.78 0 0 1 .527-.224 41.202 41.202 0 0 0 5.183-.5c1.437-.232 2.43-1.49 2.43-2.903V5.426c0-1.413-.993-2.67-2.43-2.902A41.289 41.289 0 0 0 10 2Zm0 7a1 1 0 1 0 0-2 1 1 0 0 0 0 2ZM8 8a1 1 0 1 1-2 0 1 1 0 0 1 2 0Zm5 1a1 1 0 1 0 0-2 1 1 0 0 0 0 2Z" clip-rule="evenodd"/>
</svg>
