<svg xmlns="http://www.w3.org/2000/svg" viewBox="0 0 20 20" fill="currentColor" aria-hidden="true" data-slot="icon">
  <path fill-rule="evenodd" d="M10 1c3.866 0 7 1.79 7 4s-3.134 4-7 4-7-1.79-7-4 3.134-4 7-4Zm5.694 8.13c.464-.264.91-.583 1.306-.952V10c0 2.21-3.134 4-7 4s-7-1.79-7-4V8.178c.396.37.842.688 1.306.953C5.838 10.006 7.854 10.5 10 10.5s4.162-.494 5.694-1.37ZM3 13.179V15c0 2.21 3.134 4 7 4s7-1.79 7-4v-1.822c-.396.37-.842.688-1.306.953-1.532.875-3.548 1.369-5.694 1.369s-4.162-.494-5.694-1.37A7.009 7.009 0 0 1 3 13.179Z" clip-rule="evenodd"/>
</svg>
