<svg xmlns="http://www.w3.org/2000/svg" viewBox="0 0 20 20" fill="currentColor" aria-hidden="true" data-slot="icon">
  <path fill-rule="evenodd" d="M15.988 3.012A2.25 2.25 0 0 1 18 5.25v6.5A2.25 2.25 0 0 1 15.75 14H13.5v-3.379a3 3 0 0 0-.879-2.121l-3.12-3.121a3 3 0 0 0-1.402-.791 2.252 2.252 0 0 1 1.913-1.576A2.25 2.25 0 0 1 12.25 1h1.5a2.25 2.25 0 0 1 2.238 2.012ZM11.5 3.25a.75.75 0 0 1 .75-.75h1.5a.75.75 0 0 1 .75.75v.25h-3v-.25Z" clip-rule="evenodd"/>
  <path d="M3.5 6A1.5 1.5 0 0 0 2 7.5v9A1.5 1.5 0 0 0 3.5 18h7a1.5 1.5 0 0 0 1.5-1.5v-5.879a1.5 1.5 0 0 0-.44-1.06L8.44 6.439A1.5 1.5 0 0 0 7.378 6H3.5Z"/>
</svg>
