<svg xmlns="http://www.w3.org/2000/svg" viewBox="0 0 20 20" fill="currentColor" aria-hidden="true" data-slot="icon">
  <path fill-rule="evenodd" d="M4.25 2A2.25 2.25 0 0 0 2 4.25v11.5A2.25 2.25 0 0 0 4.25 18h11.5A2.25 2.25 0 0 0 18 15.75V4.25A2.25 2.25 0 0 0 15.75 2H4.25Zm4.03 6.28a.75.75 0 0 0-1.06-1.06L4.97 9.47a.75.75 0 0 0 0 1.06l2.25 2.25a.75.75 0 0 0 1.06-1.06L6.56 10l1.72-1.72Zm4.5-1.06a.75.75 0 1 0-1.06 1.06L13.44 10l-1.72 1.72a.75.75 0 1 0 1.06 1.06l2.25-2.25a.75.75 0 0 0 0-1.06l-2.25-2.25Z" clip-rule="evenodd"/>
</svg>
