<svg xmlns="http://www.w3.org/2000/svg" viewBox="0 0 20 20" fill="currentColor" aria-hidden="true">
  <path fill-rule="evenodd" d="M6.28 5.22a.75.75 0 010 1.06L2.56 10l3.72 3.72a.75.75 0 01-1.06 1.06L.97 10.53a.75.75 0 010-1.06l4.25-4.25a.75.75 0 011.06 0zm7.44 0a.75.75 0 011.06 0l4.25 4.25a.75.75 0 010 1.06l-4.25 4.25a.75.75 0 01-1.06-1.06L17.44 10l-3.72-3.72a.75.75 0 010-1.06zM11.377 2.011a.75.75 0 01.612.867l-2.5 14.5a.75.75 0 01-1.478-.255l2.5-14.5a.75.75 0 01.866-.612z" clip-rule="evenodd"/>
</svg>
