<svg xmlns="http://www.w3.org/2000/svg" viewBox="0 0 20 20" fill="currentColor" aria-hidden="true">
  <path d="M13.024 9.25c.47 0 .827-.433.637-.863a4 4 0 00-4.094-2.364c-.468.05-.665.576-.43.984l1.08 1.868a.75.75 0 00.649.375h2.158zM7.84 7.758c-.236-.408-.79-.5-1.068-.12A3.982 3.982 0 006 10c0 .884.287 1.7.772 2.363.278.38.832.287 1.068-.12l1.078-1.868a.75.75 0 000-.75L7.839 7.758zM9.138 12.993c-.235.408-.039.934.43.984a4 4 0 004.094-2.364c.19-.43-.168-.863-.638-.863h-2.158a.75.75 0 00-.65.375l-1.078 1.868z"/>
  <path fill-rule="evenodd" d="M14.13 4.347l.644-1.117a.75.75 0 00-1.299-.75l-.644 1.116a6.954 6.954 0 00-2.081-.556V1.75a.75.75 0 00-1.5 0v1.29a6.954 6.954 0 00-2.081.556L6.525 2.48a.75.75 0 10-1.3.75l.645 1.117A7.04 7.04 0 004.347 5.87L3.23 5.225a.75.75 0 10-.75 1.3l1.116.644A6.954 6.954 0 003.04 9.25H1.75a.75.75 0 000 1.5h1.29c.078.733.27 1.433.556 2.081l-1.116.645a.75.75 0 10.75 1.298l1.117-.644a7.04 7.04 0 001.523 1.523l-.645 1.117a.75.75 0 101.3.75l.644-1.116a6.954 6.954 0 002.081.556v1.29a.75.75 0 001.5 0v-1.29a6.954 6.954 0 002.081-.556l.645 1.116a.75.75 0 001.299-.75l-.645-1.117a7.042 7.042 0 001.523-1.523l1.117.644a.75.75 0 00.75-1.298l-1.116-.645a6.954 6.954 0 00.556-2.081h1.29a.75.75 0 000-1.5h-1.29a6.954 6.954 0 00-.556-2.081l1.116-.644a.75.75 0 00-.75-1.3l-1.117.645a7.04 7.04 0 00-1.524-1.523zM10 4.5a5.475 5.475 0 00-2.781.754A5.527 5.527 0 005.22 7.277 5.475 5.475 0 004.5 10a5.475 5.475 0 00.752 2.777 5.527 5.527 0 002.028 2.004c.802.458 1.73.719 2.72.719a5.474 5.474 0 002.78-.753 5.527 5.527 0 002.001-2.027c.458-.802.719-1.73.719-2.72a5.475 5.475 0 00-.753-2.78 5.528 5.528 0 00-2.028-2.002A5.475 5.475 0 0010 4.5z" clip-rule="evenodd"/>
</svg>
