<svg xmlns="http://www.w3.org/2000/svg" viewBox="0 0 20 20" fill="currentColor" aria-hidden="true" data-slot="icon">
  <path fill-rule="evenodd" d="M4.5 2A1.5 1.5 0 0 0 3 3.5v13A1.5 1.5 0 0 0 4.5 18h11a1.5 1.5 0 0 0 1.5-1.5V7.621a1.5 1.5 0 0 0-.44-1.06l-4.12-4.122A1.5 1.5 0 0 0 11.378 2H4.5ZM6 5.75A.75.75 0 0 1 6.75 5h6.5a.75.75 0 0 1 0 1.5h-2.127c.4.5.683 1.096.807 1.75h1.32a.75.75 0 0 1 0 1.5h-1.32a4.003 4.003 0 0 1-3.404 3.216l1.754 1.754a.75.75 0 0 1-1.06 1.06l-3-3a.75.75 0 0 1 .53-1.28H8c1.12 0 2.067-.736 2.386-1.75H6.75a.75.75 0 0 1 0-1.5h3.636A2.501 2.501 0 0 0 8 6.5H6.75A.75.75 0 0 1 6 5.75Z" clip-rule="evenodd"/>
</svg>
