<svg xmlns="http://www.w3.org/2000/svg" viewBox="0 0 20 20" fill="currentColor" aria-hidden="true" data-slot="icon">
  <path fill-rule="evenodd" d="M4.5 2A1.5 1.5 0 0 0 3 3.5v13A1.5 1.5 0 0 0 4.5 18h11a1.5 1.5 0 0 0 1.5-1.5V7.621a1.5 1.5 0 0 0-.44-1.06l-4.12-4.122A1.5 1.5 0 0 0 11.378 2H4.5Zm3.846 4.294a.75.75 0 0 0-1.192.912L9.056 10H6.75a.75.75 0 0 0 0 1.5h2.5v1h-2.5a.75.75 0 0 0 0 1.5h2.5v1.25a.75.75 0 1 0 1.5 0V14h2.5a.75.75 0 1 0 0-1.5h-2.5v-1h2.5a.75.75 0 1 0 0-1.5h-2.306l1.902-2.794a.75.75 0 0 0-1.192-.912L10 8.765l-1.654-2.47Z" clip-rule="evenodd"/>
</svg>
