<svg xmlns="http://www.w3.org/2000/svg" viewBox="0 0 20 20" fill="currentColor" aria-hidden="true" data-slot="icon">
  <path fill-rule="evenodd" d="M3.75 3A1.75 1.75 0 0 0 2 4.75v10.5c0 .966.784 1.75 1.75 1.75h12.5A1.75 1.75 0 0 0 18 15.25v-8.5A1.75 1.75 0 0 0 16.25 5h-4.836a.25.25 0 0 1-.177-.073L9.823 3.513A1.75 1.75 0 0 0 8.586 3H3.75ZM10 8a.75.75 0 0 1 .75.75v1.5h1.5a.75.75 0 0 1 0 1.5h-1.5v1.5a.75.75 0 0 1-1.5 0v-1.5h-1.5a.75.75 0 0 1 0-1.5h1.5v-1.5A.75.75 0 0 1 10 8Z" clip-rule="evenodd"/>
</svg>
