<svg xmlns="http://www.w3.org/2000/svg" viewBox="0 0 20 20" fill="currentColor" aria-hidden="true" data-slot="icon">
  <path fill-rule="evenodd" d="M2 4.75C2 3.784 2.784 3 3.75 3h4.836c.464 0 .909.184 1.237.513l1.414 1.414a.25.25 0 0 0 .177.073h4.836c.966 0 1.75.784 1.75 1.75v8.5A1.75 1.75 0 0 1 16.25 17H3.75A1.75 1.75 0 0 1 2 15.25V4.75Zm8.75 4a.75.75 0 0 0-1.5 0v2.546l-.943-1.048a.75.75 0 1 0-1.114 1.004l2.25 2.5a.75.75 0 0 0 1.114 0l2.25-2.5a.75.75 0 1 0-1.114-1.004l-.943 1.048V8.75Z" clip-rule="evenodd"/>
</svg>
