<svg xmlns="http://www.w3.org/2000/svg" width="20" height="20" fill="none"><path fill="#0F172A" fill-rule="evenodd" d="M3.75 3.005A1.75 1.75 0 0 0 2 4.755v10.5c0 .966.784 1.75 1.75 1.75h12.5a1.75 1.75 0 0 0 1.75-1.75v-8.5a1.75 1.75 0 0 0-1.75-1.75h-4.836a.25.25 0 0 1-.177-.074L9.823 3.517a1.75 1.75 0 0 0-1.237-.512H3.75Zm7 10.25a.75.75 0 1 1-1.5 0v-2.546l-.943 1.047a.75.75 0 0 1-1.114-1.003l2.25-2.5a.75.75 0 0 1 1.114 0l2.25 2.5a.75.75 0 0 1-1.114 1.003l-.943-1.047v2.546Z" clip-rule="evenodd"/></svg>