<svg xmlns="http://www.w3.org/2000/svg" viewBox="0 0 20 20" fill="currentColor" aria-hidden="true" data-slot="icon">
  <path fill-rule="evenodd" d="M14 6.005a2.5 2.5 0 0 0-4-3 2.5 2.5 0 0 0-4 3H3.25c-.69 0-1.25.56-1.25 1.25v.5c0 .69.56 1.25 1.25 1.25h6v-3h1.5v3h6c.69 0 1.25-.56 1.25-1.25v-.5c0-.69-.56-1.25-1.25-1.25H14Zm-1-1.5a1 1 0 0 1-1 1h-1v-1a1 1 0 1 1 2 0Zm-6 0a1 1 0 0 0 1 1h1v-1a1 1 0 1 0-2 0Z" clip-rule="evenodd"/>
  <path d="M9.25 10.505H3v4.75a2.75 2.75 0 0 0 2.75 2.75h3.5v-7.5ZM10.75 18.005v-7.5H17v4.75a2.75 2.75 0 0 1-2.75 2.75h-3.5Z"/>
</svg>
