<svg xmlns="http://www.w3.org/2000/svg" viewBox="0 0 20 20" fill="currentColor" aria-hidden="true">
  <path fill-rule="evenodd" d="M18 10a8 8 0 11-16 0 8 8 0 0116 0zm-6.5 6.326a6.52 6.52 0 01-1.5.174 6.487 6.487 0 01-5.011-2.36l.49-.98a.423.423 0 01.614-.164l.294.196a.992.992 0 001.491-1.139l-.197-.593a.252.252 0 01.126-.304l1.973-.987a.938.938 0 00.361-1.359.375.375 0 01.239-.576l.125-.025A2.421 2.421 0 0012.327 6.6l.05-.149a1 1 0 00-.242-1.023l-1.489-1.489a.5.5 0 01-.146-.353v-.067a6.5 6.5 0 015.392 9.23 1.398 1.398 0 00-.68-.244l-.566-.566a1.5 1.5 0 00-1.06-.439h-.172a1.5 1.5 0 00-1.06.44l-.593.592a.501.501 0 01-.13.093l-1.578.79a1 1 0 00-.553.894v.191a1 1 0 001 1h.5a.5.5 0 01.5.5v.326z" clip-rule="evenodd"/>
</svg>
