<svg xmlns="http://www.w3.org/2000/svg" viewBox="0 0 20 20" fill="currentColor" aria-hidden="true" data-slot="icon">
  <path fill-rule="evenodd" d="M2.75 4a.75.75 0 0 1 .75.75v4.5h5v-4.5a.75.75 0 0 1 1.5 0v10.5a.75.75 0 0 1-1.5 0v-4.5h-5v4.5a.75.75 0 0 1-1.5 0V4.75A.75.75 0 0 1 2.75 4ZM15 9.5c-.729 0-1.445.051-2.146.15a.75.75 0 0 1-.208-1.486 16.887 16.887 0 0 1 3.824-.1c.855.074 1.512.78 1.527 1.637a17.476 17.476 0 0 1-.009.931 1.713 1.713 0 0 1-1.18 1.556l-2.453.818a1.25 1.25 0 0 0-.855 1.185v.309h3.75a.75.75 0 0 1 0 1.5h-4.5a.75.75 0 0 1-.75-.75v-1.059a2.75 2.75 0 0 1 1.88-2.608l2.454-.818c.102-.034.153-.117.155-.188a15.556 15.556 0 0 0 .009-.85.171.171 0 0 0-.158-.169A15.458 15.458 0 0 0 15 9.5Z" clip-rule="evenodd"/>
</svg>
