<svg xmlns="http://www.w3.org/2000/svg" viewBox="0 0 20 20" fill="currentColor" aria-hidden="true" data-slot="icon">
  <path fill-rule="evenodd" d="M2.75 4a.75.75 0 0 1 .75.75v4.5h5v-4.5a.75.75 0 0 1 1.5 0v10.5a.75.75 0 0 1-1.5 0v-4.5h-5v4.5a.75.75 0 0 1-1.5 0V4.75A.75.75 0 0 1 2.75 4ZM15 9.5c-.73 0-1.448.051-2.15.15a.75.75 0 1 1-.209-1.485 16.886 16.886 0 0 1 3.476-.128c.985.065 1.878.837 1.883 1.932V10a6.75 6.75 0 0 1-.301 2A6.75 6.75 0 0 1 18 14v.031c-.005 1.095-.898 1.867-1.883 1.932a17.018 17.018 0 0 1-3.467-.127.75.75 0 0 1 .209-1.485 15.377 15.377 0 0 0 3.16.115c.308-.02.48-.24.48-.441L16.5 14c0-.431-.052-.85-.15-1.25h-2.6a.75.75 0 0 1 0-1.5h2.6c.098-.4.15-.818.15-1.25v-.024c-.001-.201-.173-.422-.481-.443A15.485 15.485 0 0 0 15 9.5Z" clip-rule="evenodd"/>
</svg>
