<svg xmlns="http://www.w3.org/2000/svg" viewBox="0 0 20 20" fill="currentColor" aria-hidden="true">
  <path d="M1 9.25a1.25 1.25 0 112.5 0v7.5a1.25 1.25 0 11-2.5 0v-7.5zM11 4V2.7c0-.268.14-.526.395-.607A2 2 0 0114 4c0 .995-.182 1.948-.514 2.826-.204.54.166 1.174.744 1.174h2.52c1.243 0 2.261 1.01 2.146 2.247a23.864 23.864 0 01-1.341 5.974C17.153 17.323 16.072 18 14.9 18h-3.192a3 3 0 01-1.341-.317l-2.734-1.366A3 3 0 006.292 16H5V9h.963c.685 0 1.258-.483 1.612-1.068a4.011 4.011 0 012.166-1.73c.432-.143.853-.386 1.011-.814.16-.432.248-.9.248-1.388z"/>
</svg>
