<svg xmlns="http://www.w3.org/2000/svg" viewBox="0 0 20 20" fill="currentColor" aria-hidden="true" data-slot="icon">
  <path d="M14.916 2.404a.75.75 0 0 1-.32 1.011l-.596.31V17a1 1 0 0 1-1 1h-2.26a.75.75 0 0 1-.75-.75v-3.5a.75.75 0 0 0-.75-.75H6.75a.75.75 0 0 0-.75.75v3.5a.75.75 0 0 1-.75.75h-3.5a.75.75 0 0 1 0-1.5H2V9.957a.75.75 0 0 1-.596-1.372L2 8.275V5.75a.75.75 0 0 1 1.5 0v1.745l10.404-5.41a.75.75 0 0 1 1.012.319ZM15.861 8.57a.75.75 0 0 1 .736-.025l1.999 1.04A.75.75 0 0 1 18 10.957V16.5h.25a.75.75 0 0 1 0 1.5h-2a.75.75 0 0 1-.75-.75V9.21a.75.75 0 0 1 .361-.64Z"/>
</svg>
