<svg xmlns="http://www.w3.org/2000/svg" viewBox="0 0 20 20" fill="currentColor" aria-hidden="true">
  <path d="M10 2a.75.75 0 01.75.75v5.59l1.95-2.1a.75.75 0 111.1 1.02l-3.25 3.5a.75.75 0 01-1.1 0L6.2 7.26a.75.75 0 111.1-1.02l1.95 2.1V2.75A.75.75 0 0110 2z"/>
  <path d="M5.273 4.5a1.25 1.25 0 00-1.205.918l-1.523 5.52c-.006.02-.01.041-.015.062H6a1 1 0 01.894.553l.448.894a1 1 0 00.894.553h3.438a1 1 0 00.86-.49l.606-1.02A1 1 0 0114 11h3.47a1.318 1.318 0 00-.015-.062l-1.523-5.52a1.25 1.25 0 00-1.205-.918h-.977a.75.75 0 010-1.5h.977a2.75 2.75 0 012.651 2.019l1.523 5.52c.066.239.099.485.099.732V15a2 2 0 01-2 2H3a2 2 0 01-2-2v-3.73c0-.246.033-.492.099-.73l1.523-5.521A2.75 2.75 0 015.273 3h.977a.75.75 0 010 1.5h-.977z"/>
</svg>
