<svg xmlns="http://www.w3.org/2000/svg" viewBox="0 0 20 20" fill="currentColor" aria-hidden="true">
  <path fill-rule="evenodd" d="M1 11.27c0-.246.033-.492.099-.73l1.523-5.521A2.75 2.75 0 015.273 3h9.454a2.75 2.75 0 012.651 2.019l1.523 5.52c.066.239.099.485.099.732V15a2 2 0 01-2 2H3a2 2 0 01-2-2v-3.73zm3.068-5.852A1.25 1.25 0 015.273 4.5h9.454a1.25 1.25 0 011.205.918l1.523 5.52c.006.02.01.041.015.062H14a1 1 0 00-.86.49l-.606 1.02a1 1 0 01-.86.49H8.236a1 1 0 01-.894-.553l-.448-.894A1 1 0 006 11H2.53l.015-.062 1.523-5.52z" clip-rule="evenodd"/>
</svg>
