<svg xmlns="http://www.w3.org/2000/svg" viewBox="0 0 20 20" fill="currentColor" aria-hidden="true" data-slot="icon">
  <path fill-rule="evenodd" d="M6 4.75A.75.75 0 0 1 6.75 4h10.5a.75.75 0 0 1 0 1.5H6.75A.75.75 0 0 1 6 4.75ZM6 10a.75.75 0 0 1 .75-.75h10.5a.75.75 0 0 1 0 1.5H6.75A.75.75 0 0 1 6 10Zm0 5.25a.75.75 0 0 1 .75-.75h10.5a.75.75 0 0 1 0 1.5H6.75a.75.75 0 0 1-.75-.75ZM1.99 4.75a1 1 0 0 1 1-1H3a1 1 0 0 1 1 1v.01a1 1 0 0 1-1 1h-.01a1 1 0 0 1-1-1v-.01ZM1.99 15.25a1 1 0 0 1 1-1H3a1 1 0 0 1 1 1v.01a1 1 0 0 1-1 1h-.01a1 1 0 0 1-1-1v-.01ZM1.99 10a1 1 0 0 1 1-1H3a1 1 0 0 1 1 1v.01a1 1 0 0 1-1 1h-.01a1 1 0 0 1-1-1V10Z" clip-rule="evenodd"/>
</svg>
