<svg xmlns="http://www.w3.org/2000/svg" viewBox="0 0 20 20" fill="currentColor" aria-hidden="true">
  <path fill-rule="evenodd" d="M8.157 2.175a1.5 1.5 0 00-1.147 0l-4.084 1.69A1.5 1.5 0 002 5.251v10.877a1.5 1.5 0 002.074 1.386l3.51-1.453 4.26 1.763a1.5 1.5 0 001.146 0l4.083-1.69A1.5 1.5 0 0018 14.748V3.873a1.5 1.5 0 00-2.073-1.386l-3.51 1.452-4.26-1.763zM7.58 5a.75.75 0 01.75.75v6.5a.75.75 0 01-1.5 0v-6.5A.75.75 0 017.58 5zm5.59 2.75a.75.75 0 00-1.5 0v6.5a.75.75 0 001.5 0v-6.5z" clip-rule="evenodd"/>
</svg>
