<svg xmlns="http://www.w3.org/2000/svg" viewBox="0 0 20 20" fill="currentColor" aria-hidden="true">
  <path d="M13.92 3.845a19.361 19.361 0 01-6.3 1.98C6.765 5.942 5.89 6 5 6a4 4 0 00-.504 7.969 15.974 15.974 0 001.271 3.341c.397.77 1.342 1 2.05.59l.867-.5c.726-.42.94-1.321.588-2.021-.166-.33-.315-.666-.448-1.004 1.8.358 3.511.964 5.096 1.78A17.964 17.964 0 0015 10c0-2.161-.381-4.234-1.08-6.155zM15.243 3.097A19.456 19.456 0 0116.5 10c0 2.431-.445 4.758-1.257 6.904l-.03.077a.75.75 0 001.401.537 20.902 20.902 0 001.312-5.745 1.999 1.999 0 000-3.545 20.902 20.902 0 00-1.312-5.745.75.75 0 00-1.4.537l.029.077z"/>
</svg>
