<svg xmlns="http://www.w3.org/2000/svg" viewBox="0 0 20 20" fill="currentColor" aria-hidden="true" data-slot="icon">
  <path d="M13.92 3.845a19.362 19.362 0 0 1-6.3 1.98C6.765 5.942 5.89 6 5 6a4 4 0 0 0-.504 7.969 15.97 15.97 0 0 0 1.271 3.34c.397.771 1.342 1 2.05.59l.867-.5c.726-.419.94-1.32.588-2.02-.166-.331-.315-.666-.448-1.004 1.8.357 3.511.963 5.096 1.78A17.964 17.964 0 0 0 15 10c0-2.162-.381-4.235-1.08-6.155ZM15.243 3.097A19.456 19.456 0 0 1 16.5 10c0 2.43-.445 4.758-1.257 6.904l-.03.077a.75.75 0 0 0 1.401.537 20.903 20.903 0 0 0 1.312-5.745 2 2 0 0 0 0-3.546 20.902 20.902 0 0 0-1.312-5.745.75.75 0 0 0-1.4.537l.029.078Z"/>
</svg>
