<svg xmlns="http://www.w3.org/2000/svg" viewBox="0 0 20 20" fill="currentColor" aria-hidden="true" data-slot="icon">
  <path fill-rule="evenodd" d="M2 3.5A1.5 1.5 0 0 1 3.5 2h9A1.5 1.5 0 0 1 14 3.5v11.75A2.75 2.75 0 0 0 16.75 18h-12A2.75 2.75 0 0 1 2 15.25V3.5Zm3.75 7a.75.75 0 0 0 0 1.5h4.5a.75.75 0 0 0 0-1.5h-4.5Zm0 3a.75.75 0 0 0 0 1.5h4.5a.75.75 0 0 0 0-1.5h-4.5ZM5 5.75A.75.75 0 0 1 5.75 5h4.5a.75.75 0 0 1 .75.75v2.5a.75.75 0 0 1-.75.75h-4.5A.75.75 0 0 1 5 8.25v-2.5Z" clip-rule="evenodd"/>
  <path d="M16.5 6.5h-1v8.75a1.25 1.25 0 1 0 2.5 0V8a1.5 1.5 0 0 0-1.5-1.5Z"/>
</svg>
