<svg xmlns="http://www.w3.org/2000/svg" viewBox="0 0 20 20" fill="currentColor" aria-hidden="true" data-slot="icon">
  <path d="M3 1.25a.75.75 0 0 0 0 1.5h.25v2.5a.75.75 0 0 0 1.5 0V2A.75.75 0 0 0 4 1.25H3ZM2.97 8.654a3.5 3.5 0 0 1 1.524-.12.034.034 0 0 1-.012.012L2.415 9.579A.75.75 0 0 0 2 10.25v1c0 .414.336.75.75.75h2.5a.75.75 0 0 0 0-1.5H3.927l1.225-.613c.52-.26.848-.79.848-1.371 0-.647-.429-1.327-1.193-1.451a5.03 5.03 0 0 0-2.277.155.75.75 0 0 0 .44 1.434ZM7.75 3a.75.75 0 0 0 0 1.5h9.5a.75.75 0 0 0 0-1.5h-9.5ZM7.75 9.25a.75.75 0 0 0 0 1.5h9.5a.75.75 0 0 0 0-1.5h-9.5ZM7.75 15.5a.75.75 0 0 0 0 1.5h9.5a.75.75 0 0 0 0-1.5h-9.5ZM2.625 13.875a.75.75 0 0 0 0 1.5h1.5a.125.125 0 0 1 0 .25H3.5a.75.75 0 0 0 0 1.5h.625a.125.125 0 0 1 0 .25h-1.5a.75.75 0 0 0 0 1.5h1.5a1.625 1.625 0 0 0 1.37-2.5 1.625 1.625 0 0 0-1.37-2.5h-1.5Z"/>
</svg>
