<svg xmlns="http://www.w3.org/2000/svg" viewBox="0 0 20 20" fill="currentColor" aria-hidden="true">
  <path fill-rule="evenodd" d="M5.433 13.916l1.262-3.154a4 4 0 01.885-1.343L14.5 2.5a2.121 2.121 0 113 3l-6.92 6.919c-.383.383-.84.684-1.343.885l-3.154 1.262a.5.5 0 01-.65-.65zM2.5 5.75c0-.69.56-1.25 1.25-1.25H10A.75.75 0 0010 3H3.75A2.75 2.75 0 001 5.75v10.5A2.75 2.75 0 003.75 19h10.5A2.75 2.75 0 0017 16.25V10a.75.75 0 00-1.5 0v6.25c0 .69-.56 1.25-1.25 1.25H3.75c-.69 0-1.25-.56-1.25-1.25V5.75z" clip-rule="evenodd"/>
</svg>
