<svg xmlns="http://www.w3.org/2000/svg" viewBox="0 0 20 20" fill="currentColor" aria-hidden="true" data-slot="icon">
  <path d="M3.5 2A1.5 1.5 0 0 0 2 3.5V5c0 1.149.15 2.263.43 3.326a13.022 13.022 0 0 0 9.244 9.244c1.063.28 2.177.43 3.326.43h1.5a1.5 1.5 0 0 0 1.5-1.5v-1.148a1.5 1.5 0 0 0-1.175-1.465l-3.223-.716a1.5 1.5 0 0 0-1.767 1.052l-.267.933c-.117.41-.555.643-.95.48a11.542 11.542 0 0 1-6.254-6.254c-.163-.395.07-.833.48-.95l.933-.267a1.5 1.5 0 0 0 1.052-1.767l-.716-3.223A1.5 1.5 0 0 0 4.648 2H3.5ZM16.72 2.22a.75.75 0 1 1 1.06 1.06L14.56 6.5h2.69a.75.75 0 0 1 0 1.5h-4.5a.75.75 0 0 1-.75-.75v-4.5a.75.75 0 0 1 1.5 0v2.69l3.22-3.22Z"/>
</svg>
