<svg xmlns="http://www.w3.org/2000/svg" viewBox="0 0 20 20" fill="currentColor" aria-hidden="true" data-slot="icon">
  <path fill-rule="evenodd" d="M1 2.75A.75.75 0 0 1 1.75 2h16.5a.75.75 0 0 1 0 1.5H18v8.75A2.75 2.75 0 0 1 15.25 15h-1.072l.798 3.06a.75.75 0 0 1-1.452.38L13.41 18H6.59l-.114.44a.75.75 0 0 1-1.452-.38L5.823 15H4.75A2.75 2.75 0 0 1 2 12.25V3.5h-.25A.75.75 0 0 1 1 2.75ZM7.373 15l-.391 1.5h6.037l-.392-1.5H7.373ZM13.25 5a.75.75 0 0 1 .75.75v5.5a.75.75 0 0 1-1.5 0v-5.5a.75.75 0 0 1 .75-.75Zm-6.5 4a.75.75 0 0 1 .75.75v1.5a.75.75 0 0 1-1.5 0v-1.5A.75.75 0 0 1 6.75 9Zm4-1.25a.75.75 0 0 0-1.5 0v3.5a.75.75 0 0 0 1.5 0v-3.5Z" clip-rule="evenodd"/>
</svg>
