<svg xmlns="http://www.w3.org/2000/svg" viewBox="0 0 20 20" fill="currentColor" aria-hidden="true">
  <path fill-rule="evenodd" d="M1 2.75A.75.75 0 011.75 2h16.5a.75.75 0 010 1.5H18v8.75A2.75 2.75 0 0115.25 15h-1.072l.798 3.06a.75.75 0 01-1.452.38L13.41 18H6.59l-.114.44a.75.75 0 01-1.452-.38L5.823 15H4.75A2.75 2.75 0 012 12.25V3.5h-.25A.75.75 0 011 2.75zM7.373 15l-.391 1.5h6.037l-.392-1.5H7.373zm7.49-8.931a.75.75 0 01-.175 1.046 19.326 19.326 0 00-3.398 3.098.75.75 0 01-1.097.04L8.5 8.561l-2.22 2.22A.75.75 0 115.22 9.72l2.75-2.75a.75.75 0 011.06 0l1.664 1.663a20.786 20.786 0 013.122-2.74.75.75 0 011.046.176z" clip-rule="evenodd"/>
</svg>
