<svg xmlns="http://www.w3.org/2000/svg" viewBox="0 0 20 20" fill="currentColor" aria-hidden="true" data-slot="icon">
  <path d="M12 4.467c0-.405.262-.75.559-1.027.276-.257.441-.584.441-.94 0-.828-.895-1.5-2-1.5s-2 .672-2 1.5c0 .362.171.694.456.953.29.265.544.6.544.994a.968.968 0 0 1-1.024.974 39.655 39.655 0 0 1-3.014-.306.75.75 0 0 0-.847.847c.14.993.242 1.999.306 3.014A.968.968 0 0 1 4.447 10c-.393 0-.729-.253-.994-.544C3.194 9.17 2.862 9 2.5 9 1.672 9 1 9.895 1 11s.672 2 1.5 2c.356 0 .683-.165.94-.441.276-.297.622-.559 1.027-.559a.997.997 0 0 1 1.004 1.03 39.747 39.747 0 0 1-.319 3.734.75.75 0 0 0 .64.842c1.05.146 2.111.252 3.184.318A.97.97 0 0 0 10 16.948c0-.394-.254-.73-.545-.995C9.171 15.693 9 15.362 9 15c0-.828.895-1.5 2-1.5s2 .672 2 1.5c0 .356-.165.683-.441.94-.297.276-.559.622-.559 1.027a.998.998 0 0 0 1.03 1.005c1.337-.05 2.659-.162 3.961-.337a.75.75 0 0 0 .644-.644c.175-1.302.288-2.624.337-3.961A.998.998 0 0 0 16.967 12c-.405 0-.75.262-1.027.559-.257.276-.584.441-.94.441-.828 0-1.5-.895-1.5-2s.672-2 1.5-2c.362 0 .694.17.953.455.265.291.601.545.995.545a.97.97 0 0 0 .976-1.024 41.159 41.159 0 0 0-.318-3.184.75.75 0 0 0-.842-.64c-1.228.164-2.473.271-3.734.319A.997.997 0 0 1 12 4.467Z"/>
</svg>
