<svg xmlns="http://www.w3.org/2000/svg" viewBox="0 0 20 20" fill="currentColor" aria-hidden="true">
  <path fill-rule="evenodd" d="M17.45 3.473a.75.75 0 10-.4-1.446L5.313 5.265c-.84.096-1.671.217-2.495.362A2.212 2.212 0 001 7.817v7.933A2.25 2.25 0 003.25 18h13.5A2.25 2.25 0 0019 15.75V7.816c0-1.06-.745-2-1.817-2.189a41.124 41.124 0 00-5.406-.589l5.673-1.565zM16 9.5a1.5 1.5 0 11-3 0 1.5 1.5 0 013 0zM14.5 16a1.5 1.5 0 100-3 1.5 1.5 0 000 3zm-9.26-5a.75.75 0 01.75-.75H6a.75.75 0 01.75.75v.01a.75.75 0 01-.75.75h-.01a.75.75 0 01-.75-.75V11zm2.75-.75a.75.75 0 00-.75.75v.01c0 .415.336.75.75.75H8a.75.75 0 00.75-.75V11a.75.75 0 00-.75-.75h-.01zm-1.75-1.5A.75.75 0 016.99 8H7a.75.75 0 01.75.75v.01a.75.75 0 01-.75.75h-.01a.75.75 0 01-.75-.75v-.01zm3.583.42a.75.75 0 00-1.06 0l-.007.007a.75.75 0 000 1.06l.007.008a.75.75 0 001.06 0l.007-.007a.75.75 0 000-1.061l-.007-.007zm.427 2.08A.75.75 0 0111 12v.01a.75.75 0 01-.75.75h-.01a.75.75 0 01-.75-.75V12a.75.75 0 01.75-.75h.01zm-.42 3.584a.75.75 0 000-1.061l-.007-.007a.75.75 0 00-1.06 0l-.007.007a.75.75 0 000 1.06l.007.008a.75.75 0 001.06 0l.008-.007zm-3.59.416a.75.75 0 01.75-.75H7a.75.75 0 01.75.75v.01a.75.75 0 01-.75.75h-.01a.75.75 0 01-.75-.75v-.01zm-1.013-1.484a.75.75 0 00-1.06 0l-.008.007a.75.75 0 000 1.06l.007.008a.75.75 0 001.061 0l.007-.007a.75.75 0 000-1.061l-.007-.007zM3.75 11.25a.75.75 0 01.75.75v.01a.75.75 0 01-.75.75h-.01a.75.75 0 01-.75-.75V12a.75.75 0 01.75-.75h.01zm1.484-1.012a.75.75 0 000-1.061l-.007-.007a.75.75 0 00-1.06 0l-.007.007a.75.75 0 000 1.06l.007.008a.75.75 0 001.06 0l.007-.007zM7.24 13a.75.75 0 01.75-.75H8a.75.75 0 01.75.75v.01a.75.75 0 01-.75.75h-.01a.75.75 0 01-.75-.75V13zm-1.25-.75a.75.75 0 00-.75.75v.01c0 .415.336.75.75.75H6a.75.75 0 00.75-.75V13a.75.75 0 00-.75-.75h-.01z" clip-rule="evenodd"/>
</svg>
