<svg xmlns="http://www.w3.org/2000/svg" viewBox="0 0 20 20" fill="currentColor" aria-hidden="true">
  <path fill-rule="evenodd" d="M4.93 1.31a41.401 41.401 0 0110.14 0C16.194 1.45 17 2.414 17 3.517V18.25a.75.75 0 01-1.075.676l-2.8-1.344-2.8 1.344a.75.75 0 01-.65 0l-2.8-1.344-2.8 1.344A.75.75 0 013 18.25V3.517c0-1.103.806-2.068 1.93-2.207zm4.822 4.997a.75.75 0 10-1.004-1.114l-2.5 2.25a.75.75 0 000 1.114l2.5 2.25a.75.75 0 001.004-1.114L8.704 8.75h1.921a1.875 1.875 0 010 3.75.75.75 0 000 1.5 3.375 3.375 0 100-6.75h-1.92l1.047-.943z" clip-rule="evenodd"/>
</svg>
