<svg xmlns="http://www.w3.org/2000/svg" viewBox="0 0 20 20" fill="currentColor" aria-hidden="true" data-slot="icon">
  <path fill-rule="evenodd" d="M4.93 2.31a41.401 41.401 0 0 1 10.14 0C16.194 2.45 17 3.414 17 4.517V17.25a.75.75 0 0 1-1.075.676l-2.8-1.344-2.8 1.344a.75.75 0 0 1-.65 0l-2.8-1.344-2.8 1.344A.75.75 0 0 1 3 17.25V4.517c0-1.103.806-2.068 1.93-2.207Zm4.822 3.997a.75.75 0 1 0-1.004-1.114l-2.5 2.25a.75.75 0 0 0 0 1.114l2.5 2.25a.75.75 0 0 0 1.004-1.114L8.704 8.75h1.921a1.875 1.875 0 0 1 0 3.75.75.75 0 0 0 0 1.5 3.375 3.375 0 1 0 0-6.75h-1.92l1.047-.943Z" clip-rule="evenodd"/>
</svg>
