<svg xmlns="http://www.w3.org/2000/svg" viewBox="0 0 20 20" fill="currentColor" aria-hidden="true">
  <path fill-rule="evenodd" d="M4.606 12.97a.75.75 0 01-.134 1.051 2.494 2.494 0 00-.93 2.437 2.494 2.494 0 002.437-.93.75.75 0 111.186.918 3.995 3.995 0 01-4.482 1.332.75.75 0 01-.461-.461 3.994 3.994 0 011.332-4.482.75.75 0 011.052.134z" clip-rule="evenodd"/>
  <path fill-rule="evenodd" d="M5.752 12A13.07 13.07 0 008 14.248v4.002c0 .414.336.75.75.75a5 5 0 004.797-6.414 12.984 12.984 0 005.45-10.848.75.75 0 00-.735-.735 12.984 12.984 0 00-10.849 5.45A5 5 0 001 11.25c.001.414.337.75.751.75h4.002zM13 9a2 2 0 100-4 2 2 0 000 4z" clip-rule="evenodd"/>
</svg>
