<svg xmlns="http://www.w3.org/2000/svg" viewBox="0 0 20 20" fill="currentColor" aria-hidden="true" data-slot="icon">
  <path fill-rule="evenodd" d="M10 2a.75.75 0 0 1 .75.75v.258a33.186 33.186 0 0 1 6.668.83.75.75 0 0 1-.336 1.461 31.28 31.28 0 0 0-1.103-.232l1.702 7.545a.75.75 0 0 1-.387.832A4.981 4.981 0 0 1 15 14c-.825 0-1.606-.2-2.294-.556a.75.75 0 0 1-.387-.832l1.77-7.849a31.743 31.743 0 0 0-3.339-.254v11.505a20.01 20.01 0 0 1 3.78.501.75.75 0 1 1-.339 1.462A18.558 18.558 0 0 0 10 17.5c-1.442 0-2.845.165-4.191.477a.75.75 0 0 1-.338-1.462 20.01 20.01 0 0 1 3.779-.501V4.509c-1.129.026-2.243.112-3.34.254l1.771 7.85a.75.75 0 0 1-.387.83A4.98 4.98 0 0 1 5 14a4.98 4.98 0 0 1-2.294-.556.75.75 0 0 1-.387-.832L4.02 5.067c-.37.07-.738.148-1.103.232a.75.75 0 0 1-.336-1.462 32.845 32.845 0 0 1 6.668-.829V2.75A.75.75 0 0 1 10 2ZM5 7.543 3.92 12.33a3.499 3.499 0 0 0 2.16 0L5 7.543Zm10 0-1.08 4.787a3.498 3.498 0 0 0 2.16 0L15 7.543Z" clip-rule="evenodd"/>
</svg>
