<svg xmlns="http://www.w3.org/2000/svg" viewBox="0 0 20 20" fill="currentColor" aria-hidden="true">
  <path d="M4.464 3.162A2 2 0 016.28 2h7.44a2 2 0 011.816 1.162l1.154 2.5c.067.145.115.291.145.438A3.508 3.508 0 0016 6H4c-.288 0-.568.035-.835.1.03-.147.078-.293.145-.438l1.154-2.5z"/>
  <path fill-rule="evenodd" d="M2 9.5a2 2 0 012-2h12a2 2 0 110 4H4a2 2 0 01-2-2zm13.24 0a.75.75 0 01.75-.75H16a.75.75 0 01.75.75v.01a.75.75 0 01-.75.75h-.01a.75.75 0 01-.75-.75V9.5zm-2.25-.75a.75.75 0 00-.75.75v.01c0 .414.336.75.75.75H13a.75.75 0 00.75-.75V9.5a.75.75 0 00-.75-.75h-.01zM2 15a2 2 0 012-2h12a2 2 0 110 4H4a2 2 0 01-2-2zm13.24 0a.75.75 0 01.75-.75H16a.75.75 0 01.75.75v.01a.75.75 0 01-.75.75h-.01a.75.75 0 01-.75-.75V15zm-2.25-.75a.75.75 0 00-.75.75v.01c0 .414.336.75.75.75H13a.75.75 0 00.75-.75V15a.75.75 0 00-.75-.75h-.01z" clip-rule="evenodd"/>
</svg>
