<svg xmlns="http://www.w3.org/2000/svg" viewBox="0 0 20 20" fill="currentColor" aria-hidden="true" data-slot="icon">
  <path d="M4.464 3.162A2 2 0 0 1 6.28 2h7.44a2 2 0 0 1 1.816 1.162l1.154 2.5c.067.145.115.291.145.438A3.508 3.508 0 0 0 16 6H4c-.288 0-.568.035-.835.1.03-.147.078-.293.145-.438l1.154-2.5Z"/>
  <path fill-rule="evenodd" d="M2 9.5a2 2 0 0 1 2-2h12a2 2 0 1 1 0 4H4a2 2 0 0 1-2-2Zm13.24 0a.75.75 0 0 1 .75-.75H16a.75.75 0 0 1 .75.75v.01a.75.75 0 0 1-.75.75h-.01a.75.75 0 0 1-.75-.75V9.5Zm-2.25-.75a.75.75 0 0 0-.75.75v.01c0 .414.336.75.75.75H13a.75.75 0 0 0 .75-.75V9.5a.75.75 0 0 0-.75-.75h-.01ZM2 15a2 2 0 0 1 2-2h12a2 2 0 1 1 0 4H4a2 2 0 0 1-2-2Zm13.24 0a.75.75 0 0 1 .75-.75H16a.75.75 0 0 1 .75.75v.01a.75.75 0 0 1-.75.75h-.01a.75.75 0 0 1-.75-.75V15Zm-2.25-.75a.75.75 0 0 0-.75.75v.01c0 .414.336.75.75.75H13a.75.75 0 0 0 .75-.75V15a.75.75 0 0 0-.75-.75h-.01Z" clip-rule="evenodd"/>
</svg>
