<svg xmlns="http://www.w3.org/2000/svg" viewBox="0 0 20 20" fill="currentColor" aria-hidden="true" data-slot="icon">
  <path d="M4.632 3.533A2 2 0 0 1 6.577 2h6.846a2 2 0 0 1 1.945 1.533l1.976 8.234A3.489 3.489 0 0 0 16 11.5H4c-.476 0-.93.095-1.344.267l1.976-8.234Z"/>
  <path fill-rule="evenodd" d="M4 13a2 2 0 1 0 0 4h12a2 2 0 1 0 0-4H4Zm11.24 2a.75.75 0 0 1 .75-.75H16a.75.75 0 0 1 .75.75v.01a.75.75 0 0 1-.75.75h-.01a.75.75 0 0 1-.75-.75V15Zm-2.25-.75a.75.75 0 0 0-.75.75v.01c0 .414.336.75.75.75H13a.75.75 0 0 0 .75-.75V15a.75.75 0 0 0-.75-.75h-.01Z" clip-rule="evenodd"/>
</svg>
