<svg xmlns="http://www.w3.org/2000/svg" viewBox="0 0 20 20" fill="currentColor" aria-hidden="true" data-slot="icon">
  <path fill-rule="evenodd" d="M10.339 2.237a.531.531 0 0 0-.678 0 11.947 11.947 0 0 1-7.078 2.75.5.5 0 0 0-.479.425A12.11 12.11 0 0 0 2 7c0 5.163 3.26 9.564 7.834 11.257a.48.48 0 0 0 .332 0C14.74 16.564 18 12.163 18 7c0-.538-.035-1.069-.104-1.589a.5.5 0 0 0-.48-.425 11.947 11.947 0 0 1-7.077-2.75ZM10 6a.75.75 0 0 1 .75.75v3.5a.75.75 0 0 1-1.5 0v-3.5A.75.75 0 0 1 10 6Zm0 9a1 1 0 1 0 0-2 1 1 0 0 0 0 2Z" clip-rule="evenodd"/>
</svg>
