<svg xmlns="http://www.w3.org/2000/svg" viewBox="0 0 20 20" fill="currentColor" aria-hidden="true">
  <path fill-rule="evenodd" d="M9.661 2.237a.532.532 0 01.678 0 11.947 11.947 0 007.078 2.75.5.5 0 01.479.425c.069.52.104 1.05.104 1.589 0 5.162-3.26 9.563-7.834 11.256a.48.48 0 01-.332 0C5.26 16.564 2 12.163 2 7c0-.538.035-1.069.104-1.588a.5.5 0 01.48-.426 11.947 11.947 0 007.077-2.75zm4.105 5.772a.75.75 0 00-1.036-1.085 25.113 25.113 0 00-3.928 4.817L7.28 10.22a.75.75 0 00-1.06 1.06l2.2 2.201a.75.75 0 001.181-.157 23.603 23.603 0 014.165-5.315z" clip-rule="evenodd"/>
</svg>
