<svg xmlns="http://www.w3.org/2000/svg" viewBox="0 0 20 20" fill="currentColor" aria-hidden="true" data-slot="icon">
  <path d="M2 4.25A2.25 2.25 0 0 1 4.25 2h2.5A2.25 2.25 0 0 1 9 4.25v2.5A2.25 2.25 0 0 1 6.75 9h-2.5A2.25 2.25 0 0 1 2 6.75v-2.5ZM2 13.25A2.25 2.25 0 0 1 4.25 11h2.5A2.25 2.25 0 0 1 9 13.25v2.5A2.25 2.25 0 0 1 6.75 18h-2.5A2.25 2.25 0 0 1 2 15.75v-2.5ZM11 4.25A2.25 2.25 0 0 1 13.25 2h2.5A2.25 2.25 0 0 1 18 4.25v2.5A2.25 2.25 0 0 1 15.75 9h-2.5A2.25 2.25 0 0 1 11 6.75v-2.5ZM15.25 11.75a.75.75 0 0 0-1.5 0v2h-2a.75.75 0 0 0 0 1.5h2v2a.75.75 0 0 0 1.5 0v-2h2a.75.75 0 0 0 0-1.5h-2v-2Z"/>
</svg>
