<svg xmlns="http://www.w3.org/2000/svg" viewBox="0 0 20 20" fill="currentColor" aria-hidden="true" data-slot="icon">
  <path fill-rule="evenodd" d="M11.617 3.963c-1.186-.318-2.418-.323-3.416.015-.992.336-1.49.91-1.642 1.476-.152.566-.007 1.313.684 2.1.528.6 1.273 1.1 2.128 1.446h7.879a.75.75 0 0 1 0 1.5H2.75a.75.75 0 0 1 0-1.5h3.813a5.976 5.976 0 0 1-.447-.456C5.18 7.479 4.798 6.231 5.11 5.066c.312-1.164 1.268-2.055 2.61-2.509 1.336-.451 2.877-.42 4.286-.043.856.23 1.684.592 2.409 1.074a.75.75 0 1 1-.83 1.25 6.723 6.723 0 0 0-1.968-.875Zm1.909 8.123a.75.75 0 0 1 1.015.309c.53.99.607 2.062.18 3.01-.421.94-1.289 1.648-2.441 2.038-1.336.452-2.877.42-4.286.043-1.409-.377-2.759-1.121-3.69-2.18a.75.75 0 1 1 1.127-.99c.696.791 1.765 1.403 2.952 1.721 1.186.318 2.418.323 3.416-.015.853-.288 1.34-.756 1.555-1.232.21-.467.205-1.049-.136-1.69a.75.75 0 0 1 .308-1.014Z" clip-rule="evenodd"/>
</svg>
