<svg xmlns="http://www.w3.org/2000/svg" viewBox="0 0 20 20" fill="currentColor" aria-hidden="true">
  <path fill-rule="evenodd" d="M1 4.25A2.25 2.25 0 013.25 2h13.5A2.25 2.25 0 0119 4.25v11.51a2.25 2.25 0 01-2.25 2.25H11.5c-.072 0-.143-.003-.214-.01H8.714c-.07.007-.142.01-.214.01H3.25A2.25 2.25 0 011 15.76V4.25zm8.25 11.51v-.625a.75.75 0 00-.75-.75H3.25a.75.75 0 00-.75.75v.615c0 .414.336.75.75.75h5.373a.75.75 0 00.627-.74zm1.5 0a.75.75 0 00.627.74h5.373a.75.75 0 00.75-.75v-.615a.75.75 0 00-.75-.75H11.5a.75.75 0 00-.75.75v.625zm6.75-3.63v-.625a.75.75 0 00-.75-.75H11.5a.75.75 0 00-.75.75v.625c0 .414.336.75.75.75h5.25a.75.75 0 00.75-.75zm-8.25 0v-.625a.75.75 0 00-.75-.75H3.25a.75.75 0 00-.75.75v.625c0 .414.336.75.75.75H8.5a.75.75 0 00.75-.75zM17.5 8.5v-.625a.75.75 0 00-.75-.75H11.5a.75.75 0 00-.75.75V8.5c0 .414.336.75.75.75h5.25a.75.75 0 00.75-.75zm-8.25 0v-.625a.75.75 0 00-.75-.75H3.25a.75.75 0 00-.75.75V8.5c0 .414.336.75.75.75H8.5a.75.75 0 00.75-.75z" clip-rule="evenodd"/>
</svg>
