<svg xmlns="http://www.w3.org/2000/svg" viewBox="0 0 20 20" fill="currentColor" aria-hidden="true">
  <path fill-rule="evenodd" d="M.99 5.24A2.25 2.25 0 013.25 3h13.5A2.25 2.25 0 0119 5.25l.01 9.5A2.25 2.25 0 0116.76 17H3.26A2.267 2.267 0 011 14.74l-.01-9.5zm8.26 9.52v-.625a.75.75 0 00-.75-.75H3.25a.75.75 0 00-.75.75v.615c0 .414.336.75.75.75h5.373a.75.75 0 00.627-.74zm1.5 0a.75.75 0 00.627.74h5.373a.75.75 0 00.75-.75v-.615a.75.75 0 00-.75-.75H11.5a.75.75 0 00-.75.75v.625zm6.75-3.63v-.625a.75.75 0 00-.75-.75H11.5a.75.75 0 00-.75.75v.625c0 .414.336.75.75.75h5.25a.75.75 0 00.75-.75zm-8.25 0v-.625a.75.75 0 00-.75-.75H3.25a.75.75 0 00-.75.75v.625c0 .414.336.75.75.75H8.5a.75.75 0 00.75-.75zM17.5 7.5v-.625a.75.75 0 00-.75-.75H11.5a.75.75 0 00-.75.75V7.5c0 .414.336.75.75.75h5.25a.75.75 0 00.75-.75zm-8.25 0v-.625a.75.75 0 00-.75-.75H3.25a.75.75 0 00-.75.75V7.5c0 .414.336.75.75.75H8.5a.75.75 0 00.75-.75z" clip-rule="evenodd"/>
</svg>
