<svg xmlns="http://www.w3.org/2000/svg" viewBox="0 0 20 20" fill="currentColor" aria-hidden="true" data-slot="icon">
  <path fill-rule="evenodd" d="M15.75 3A2.25 2.25 0 0 1 18 5.25v1.214c0 .423-.277.788-.633 1.019A2.997 2.997 0 0 0 16 10c0 1.055.544 1.982 1.367 2.517.356.231.633.596.633 1.02v1.213A2.25 2.25 0 0 1 15.75 17H4.25A2.25 2.25 0 0 1 2 14.75v-1.213c0-.424.277-.789.633-1.02A2.998 2.998 0 0 0 4 10a2.997 2.997 0 0 0-1.367-2.517C2.277 7.252 2 6.887 2 6.463V5.25A2.25 2.25 0 0 1 4.25 3h11.5ZM13.5 7.396a.75.75 0 0 0-1.5 0v1.042a.75.75 0 0 0 1.5 0V7.396Zm0 4.167a.75.75 0 0 0-1.5 0v1.041a.75.75 0 0 0 1.5 0v-1.041Z" clip-rule="evenodd"/>
</svg>
