<svg xmlns="http://www.w3.org/2000/svg" viewBox="0 0 20 20" fill="currentColor" aria-hidden="true">
  <path fill-rule="evenodd" d="M.676 6.941A12.964 12.964 0 0110 3c3.657 0 6.963 1.511 9.324 3.941a.75.75 0 01-.008 1.053l-.353.354a.75.75 0 01-1.069-.008C15.894 6.28 13.097 5 10 5 6.903 5 4.106 6.28 2.106 8.34a.75.75 0 01-1.069.008l-.353-.354a.75.75 0 01-.008-1.053zm2.825 2.833A8.976 8.976 0 0110 7a8.976 8.976 0 016.499 2.774.75.75 0 01-.011 1.049l-.354.354a.75.75 0 01-1.072-.012A6.978 6.978 0 0010 9c-1.99 0-3.786.83-5.061 2.165a.75.75 0 01-1.073.012l-.354-.354a.75.75 0 01-.01-1.05zm2.82 2.84A4.989 4.989 0 0110 11c1.456 0 2.767.623 3.68 1.614a.75.75 0 01-.022 1.039l-.354.354a.75.75 0 01-1.085-.026A2.99 2.99 0 0010 13c-.88 0-1.67.377-2.22.981a.75.75 0 01-1.084.026l-.354-.354a.75.75 0 01-.021-1.039zm2.795 2.752a1.248 1.248 0 011.768 0 .75.75 0 010 1.06l-.354.354a.75.75 0 01-1.06 0l-.354-.353a.75.75 0 010-1.06z" clip-rule="evenodd"/>
</svg>
