<svg xmlns="http://www.w3.org/2000/svg" viewBox="0 0 20 20" fill="currentColor" aria-hidden="true">
  <path fill-rule="evenodd" d="M3.25 3A2.25 2.25 0 0 0 1 5.25v9.5A2.25 2.25 0 0 0 3.25 17h13.5A2.25 2.25 0 0 0 19 14.75v-9.5A2.25 2.25 0 0 0 16.75 3H3.25ZM2.5 9v5.75c0 .414.336.75.75.75h13.5a.75.75 0 0 0 .75-.75V9h-15ZM4 5.25a.75.75 0 0 0-.75.75v.01c0 .414.336.75.75.75h.01a.75.75 0 0 0 .75-.75V6a.75.75 0 0 0-.75-.75H4ZM6.25 6A.75.75 0 0 1 7 5.25h.01a.75.75 0 0 1 .75.75v.01a.75.75 0 0 1-.75.75H7a.75.75 0 0 1-.75-.75V6ZM10 5.25a.75.75 0 0 0-.75.75v.01c0 .414.336.75.75.75h.01a.75.75 0 0 0 .75-.75V6a.75.75 0 0 0-.75-.75H10Z" clip-rule="evenodd"/>
</svg>
