<svg xmlns="http://www.w3.org/2000/svg" viewBox="0 0 20 20" fill="currentColor" aria-hidden="true" data-slot="icon">
  <path fill-rule="evenodd" d="M4.25 2A2.25 2.25 0 0 0 2 4.25v11.5A2.25 2.25 0 0 0 4.25 18h11.5A2.25 2.25 0 0 0 18 15.75V4.25A2.25 2.25 0 0 0 15.75 2H4.25ZM3.5 8v7.75c0 .414.336.75.75.75h11.5a.75.75 0 0 0 .75-.75V8h-13ZM5 4.25a.75.75 0 0 0-.75.75v.01c0 .414.336.75.75.75h.01a.75.75 0 0 0 .75-.75V5a.75.75 0 0 0-.75-.75H5ZM7.25 5A.75.75 0 0 1 8 4.25h.01a.75.75 0 0 1 .75.75v.01a.75.75 0 0 1-.75.75H8a.75.75 0 0 1-.75-.75V5ZM11 4.25a.75.75 0 0 0-.75.75v.01c0 .414.336.75.75.75h.01a.75.75 0 0 0 .75-.75V5a.75.75 0 0 0-.75-.75H11Z" clip-rule="evenodd"/>
</svg>
