<svg width="16" height="16" viewBox="0 0 16 16" fill="none" xmlns="http://www.w3.org/2000/svg">
<path d="M3 2C2.44772 2 2 2.44772 2 3V4C2 4.55228 2.44772 5 3 5H13C13.5523 5 14 4.55228 14 4V3C14 2.44772 13.5523 2 13 2H3Z" fill="#0F172A"/>
<path fill-rule="evenodd" clip-rule="evenodd" d="M3 6H13V12C13 13.1046 12.1046 14 11 14H5C3.89543 14 3 13.1046 3 12V6ZM6 8.75C6 8.33579 6.33579 8 6.75 8H9.25C9.66421 8 10 8.33579 10 8.75C10 9.16421 9.66421 9.5 9.25 9.5H6.75C6.33579 9.5 6 9.16421 6 8.75Z" fill="#0F172A"/>
</svg>
