<svg width="16" height="16" viewBox="0 0 16 16" fill="none" xmlns="http://www.w3.org/2000/svg">
<path d="M13.25 6.25V2.75M13.25 2.75H9.75M13.25 2.75L6.75 9.25" stroke="#0F172A" stroke-width="1.5" stroke-linecap="round" stroke-linejoin="round"/>
<path d="M4.75 5.5C4.05964 5.5 3.5 6.05964 3.5 6.75V11.25C3.5 11.9404 4.05964 12.5 4.75 12.5H9.25C9.94036 12.5 10.5 11.9404 10.5 11.25V9C10.5 8.58579 10.8358 8.25 11.25 8.25C11.6642 8.25 12 8.58579 12 9V11.25C12 12.7688 10.7688 14 9.25 14H4.75C3.23122 14 2 12.7688 2 11.25V6.75C2 5.23122 3.23122 4 4.75 4H7C7.41421 4 7.75 4.33579 7.75 4.75C7.75 5.16421 7.41421 5.5 7 5.5H4.75Z" fill="#0F172A"/>
</svg>
