<svg width="16" height="16" viewBox="0 0 16 16" fill="none" xmlns="http://www.w3.org/2000/svg">
<path fill-rule="evenodd" clip-rule="evenodd" d="M8 1C4.13401 1 0.999999 4.13401 0.999999 8C1 11.866 4.13401 15 8 15C11.866 15 15 11.866 15 8C15 4.13401 11.866 1 8 1ZM7.25 11.25C7.25 11.6642 7.58579 12 8 12C8.41421 12 8.75 11.6642 8.75 11.25L8.75 6.56066L9.96967 7.78033C10.2626 8.07322 10.7374 8.07322 11.0303 7.78033C11.3232 7.48744 11.3232 7.01256 11.0303 6.71967L8.53033 4.21967C8.23744 3.92678 7.76256 3.92678 7.46967 4.21967L4.96967 6.71967C4.67678 7.01256 4.67678 7.48744 4.96967 7.78033C5.26256 8.07322 5.73744 8.07322 6.03033 7.78033L7.25 6.56066L7.25 11.25Z" fill="#0F172A"/>
</svg>
