<svg width="16" height="16" viewBox="0 0 16 16" fill="none" xmlns="http://www.w3.org/2000/svg">
<path fill-rule="evenodd" clip-rule="evenodd" d="M15 8C15 4.13401 11.866 1 8 1C4.13401 1 1 4.13401 1 8C1 11.866 4.13401 15 8 15C11.866 15 15 11.866 15 8ZM4.75 7.25C4.33579 7.25 4 7.58579 4 8C4 8.41421 4.33579 8.75 4.75 8.75L9.43934 8.75L8.21967 9.96967C7.92678 10.2626 7.92678 10.7374 8.21967 11.0303C8.51256 11.3232 8.98744 11.3232 9.28033 11.0303L11.7803 8.53033C12.0732 8.23744 12.0732 7.76256 11.7803 7.46967L9.28033 4.96967C8.98744 4.67678 8.51256 4.67678 8.21967 4.96967C7.92678 5.26256 7.92678 5.73744 8.21967 6.03033L9.43934 7.25L4.75 7.25Z" fill="#0F172A"/>
</svg>
