<svg width="16" height="16" viewBox="0 0 16 16" fill="none" xmlns="http://www.w3.org/2000/svg">
<path fill-rule="evenodd" clip-rule="evenodd" d="M4.26758 14C4.61339 14.5978 5.25973 15 6.00002 15H12C13.1046 15 14 14.1046 14 13V10C14 9.25972 13.5978 8.61337 13 8.26756V11C13 12.6569 11.6569 14 10 14H4.26758Z" fill="black"/>
<path fill-rule="evenodd" clip-rule="evenodd" d="M6.25 6H4C2.89543 6 2 6.89543 2 8V11C2 12.1046 2.89543 13 4 13H10C11.1046 13 12 12.1046 12 11V8C12 6.89543 11.1046 6 10 6H7.75V8.93934L8.96967 7.71967C9.26256 7.42677 9.73744 7.42677 10.0303 7.71967C10.3232 8.01256 10.3232 8.48743 10.0303 8.78033L7.53033 11.2803C7.23744 11.5732 6.76256 11.5732 6.46967 11.2803L3.96967 8.78033C3.67678 8.48744 3.67678 8.01256 3.96967 7.71967C4.26256 7.42678 4.73744 7.42678 5.03033 7.71967L6.25 8.93934L6.25 6Z" fill="black"/>
<path fill-rule="evenodd" clip-rule="evenodd" d="M7.75 1.75C7.75 1.33579 7.41421 1 7 1C6.58579 1 6.25 1.33579 6.25 1.75V6H7.75L7.75 1.75Z" fill="#0F172A"/>
</svg>
