<svg width="16" height="16" viewBox="0 0 16 16" fill="none" xmlns="http://www.w3.org/2000/svg">
<path fill-rule="evenodd" clip-rule="evenodd" d="M1 8C1 11.866 4.13401 15 8 15C11.866 15 15 11.866 15 8C15 4.13401 11.866 1 8 1C4.13401 1 1 4.13401 1 8ZM11.25 8.75C11.6642 8.75 12 8.41421 12 8C12 7.58579 11.6642 7.25 11.25 7.25H6.56066L7.78033 6.03033C8.07322 5.73744 8.07322 5.26256 7.78033 4.96967C7.48744 4.67678 7.01256 4.67678 6.71967 4.96967L4.21967 7.46967C3.92678 7.76256 3.92678 8.23744 4.21967 8.53033L6.71967 11.0303C7.01256 11.3232 7.48744 11.3232 7.78033 11.0303C8.07322 10.7374 8.07322 10.2626 7.78033 9.96967L6.56066 8.75H11.25Z" fill="#0F172A"/>
</svg>
