<svg width="16" height="16" viewBox="0 0 16 16" fill="none" xmlns="http://www.w3.org/2000/svg">
<path fill-rule="evenodd" clip-rule="evenodd" d="M8 15C11.866 15 15 11.866 15 8C15 4.13401 11.866 1 8 1C4.13401 1 1 4.13401 1 8C1 11.866 4.13401 15 8 15ZM8.75 4.75C8.75 4.33579 8.41421 4 8 4C7.58579 4 7.25 4.33579 7.25 4.75V9.43934L6.03033 8.21967C5.73744 7.92678 5.26256 7.92678 4.96967 8.21967C4.67678 8.51256 4.67678 8.98744 4.96967 9.28033L7.46967 11.7803C7.76256 12.0732 8.23744 12.0732 8.53033 11.7803L11.0303 9.28033C11.3232 8.98744 11.3232 8.51256 11.0303 8.21967C10.7374 7.92678 10.2626 7.92678 9.96967 8.21967L8.75 9.43934V4.75Z" fill="#0F172A"/>
</svg>
