<svg width="16" height="16" viewBox="0 0 16 16" fill="none" xmlns="http://www.w3.org/2000/svg">
<path fill-rule="evenodd" clip-rule="evenodd" d="M13.25 14C12.8358 14 12.5 13.6642 12.5 13.25V6.75H4.56066L5.53033 7.71967C5.82322 8.01256 5.82322 8.48744 5.53033 8.78033C5.23744 9.07322 4.76256 9.07322 4.46967 8.78033L2.21967 6.53033C1.92678 6.23744 1.92678 5.76256 2.21967 5.46967L4.46967 3.21967C4.76256 2.92678 5.23744 2.92678 5.53033 3.21967C5.82322 3.51256 5.82322 3.98744 5.53033 4.28033L4.56066 5.25H13.25C13.6642 5.25 14 5.58579 14 6V13.25C14 13.6642 13.6642 14 13.25 14Z" fill="black"/>
</svg>
