<svg width="16" height="16" viewBox="0 0 16 16" fill="none" xmlns="http://www.w3.org/2000/svg">
<path d="M3.75076 7.74953C3.75025 7.83296 3.75 7.91645 3.75 8C3.75 9.16875 3.79981 10.3259 3.89743 11.4693C3.97699 12.4012 4.72612 13.1296 5.65986 13.1831C6.43424 13.2275 7.21449 13.25 8 13.25C8.78551 13.25 9.56576 13.2275 10.3401 13.1831C11.2739 13.1296 12.023 12.4012 12.1026 11.4693C12.1089 11.3953 12.115 11.3213 12.1209 11.2472M3.75076 7.74953L1.75 9.75029M3.75076 7.74953L5.75153 9.75029M3.87948 4.74786C3.88527 4.67541 3.89125 4.60302 3.89743 4.53069C3.97699 3.5988 4.72612 2.87043 5.65986 2.8169C6.43424 2.7725 7.21449 2.75 8 2.75C8.78551 2.75 9.56576 2.7725 10.3401 2.81689C11.2739 2.87042 12.023 3.59879 12.1026 4.53067C12.2002 5.67414 12.25 6.83125 12.25 8C12.25 8.08339 12.2497 8.16672 12.2492 8.24999M12.2492 8.24999L10.25 6.25076M12.2492 8.24999L14.25 6.24923" stroke="#0F172A" stroke-width="1.5" stroke-linecap="round" stroke-linejoin="round"/>
</svg>
