<svg width="16" height="16" viewBox="0 0 16 16" fill="none" xmlns="http://www.w3.org/2000/svg">
<path d="M8.5 4.75C8.5 4.48569 8.36087 4.24089 8.13379 4.10564C7.90671 3.97038 7.62519 3.96464 7.39279 4.09053L1.39279 7.34053C1.15077 7.47163 1 7.72476 1 8C1 8.27524 1.15077 8.52837 1.39279 8.65947L7.39279 11.9095C7.62519 12.0354 7.90671 12.0296 8.13379 11.8944C8.36087 11.7591 8.5 11.5143 8.5 11.25V8.98838L13.8928 11.9095C14.1252 12.0354 14.4067 12.0296 14.6338 11.8944C14.8609 11.7591 15 11.5143 15 11.25V4.75C15 4.48569 14.8609 4.24089 14.6338 4.10564C14.4067 3.97038 14.1252 3.96464 13.8928 4.09053L8.5 7.01162V4.75Z" fill="#0F172A"/>
</svg>
