<svg width="16" height="16" viewBox="0 0 16 16" fill="none" xmlns="http://www.w3.org/2000/svg">
<path d="M4 7.75C4 7.33579 4.33579 7 4.75 7H10.25C10.6642 7 11 7.33579 11 7.75V8.25C11 8.66421 10.6642 9 10.25 9H4.75C4.33579 9 4 8.66421 4 8.25V7.75Z" fill="#0F172A"/>
<path fill-rule="evenodd" clip-rule="evenodd" d="M3.25 4C2.00736 4 1 5.00736 1 6.25V9.75C1 10.9926 2.00736 12 3.25 12H11.75C12.9926 12 14 10.9926 14 9.75V9.66465C14.5826 9.45873 15 8.90311 15 8.25V7.75C15 7.09689 14.5826 6.54127 14 6.33535V6.25C14 5.00736 12.9926 4 11.75 4H3.25ZM2.5 6.25C2.5 5.83579 2.83579 5.5 3.25 5.5H11.75C12.1642 5.5 12.5 5.83579 12.5 6.25V9.75C12.5 10.1642 12.1642 10.5 11.75 10.5H3.25C2.83579 10.5 2.5 10.1642 2.5 9.75V6.25Z" fill="#0F172A"/>
</svg>
