<svg width="16" height="16" viewBox="0 0 16 16" fill="none" xmlns="http://www.w3.org/2000/svg">
<path fill-rule="evenodd" clip-rule="evenodd" d="M4 7.37868V6.47487L10.7427 13.2175C10.2758 14.2677 9.2234 15 8 15C6.34315 15 5 13.6569 5 12H3C2.44772 12 2 11.5523 2 11V10.4142C2 10.149 2.10536 9.89464 2.29289 9.70711L3.56066 8.43934C3.84197 8.15804 4 7.7765 4 7.37868ZM6.5 12C6.5 12.8284 7.17157 13.5 8 13.5C8.82843 13.5 9.5 12.8284 9.5 12H6.5Z" fill="#0F172A"/>
<path d="M14 11C14 11.1535 13.9654 11.2988 13.9037 11.4288L4.92115 2.44627C5.65486 1.56267 6.76172 1 8 1C10.2091 1 12 2.79086 12 5V7.37868C12 7.7765 12.158 8.15804 12.4393 8.43934L13.7071 9.70711C13.8946 9.89464 14 10.149 14 10.4142V11Z" fill="#0F172A"/>
<path d="M2.21967 2.21967C2.51256 1.92678 2.98744 1.92678 3.28033 2.21967L13.7803 12.7197C14.0732 13.0126 14.0732 13.4874 13.7803 13.7803C13.4874 14.0732 13.0126 14.0732 12.7197 13.7803L2.21967 3.28033C1.92678 2.98744 1.92678 2.51256 2.21967 2.21967Z" fill="#0F172A"/>
</svg>
