<svg width="16" height="16" viewBox="0 0 16 16" fill="none" xmlns="http://www.w3.org/2000/svg">
<path fill-rule="evenodd" clip-rule="evenodd" d="M3 3C3 2.44772 3.44772 2 4 2H9C10.933 2 12.5 3.567 12.5 5.5C12.5 6.26179 12.2566 6.96674 11.8434 7.54133C12.5562 8.22395 13 9.18514 13 10.25C13 12.3211 11.3211 14 9.25 14H4C3.44772 14 3 13.5523 3 13V3ZM5.5 6.5V4.5H9C9.55228 4.5 10 4.94772 10 5.5C10 6.05228 9.55228 6.5 9 6.5H5.5ZM5.5 9V11.5H9.25C9.94036 11.5 10.5 10.9404 10.5 10.25C10.5 9.55964 9.94036 9 9.25 9H5.5Z" fill="black"/>
</svg>
