<svg width="16" height="16" viewBox="0 0 16 16" fill="none" xmlns="http://www.w3.org/2000/svg">
<path d="M13 2.75V10.5251L4.47487 2H12.25C12.6642 2 13 2.33579 13 2.75Z" fill="#0F172A"/>
<path d="M3 13.25V5.47487L7.79289 10.2678L4.28033 13.7803C4.06583 13.9948 3.74324 14.059 3.46299 13.9429C3.18273 13.8268 3 13.5533 3 13.25Z" fill="#0F172A"/>
<path d="M2.21967 2.21967C2.51256 1.92678 2.98744 1.92678 3.28033 2.21967L13.7803 12.7197C14.0732 13.0126 14.0732 13.4874 13.7803 13.7803C13.4874 14.0732 13.0126 14.0732 12.7197 13.7803L2.21967 3.28033C1.92678 2.98744 1.92678 2.51256 2.21967 2.21967Z" fill="#0F172A"/>
</svg>
