<svg width="16" height="16" viewBox="0 0 16 16" fill="none" xmlns="http://www.w3.org/2000/svg">
<path d="M7.25 3.68772C6.25693 3.24568 5.15715 3 4 3C3.44413 3 2.9015 3.05669 2.37757 3.16462C2.15412 3.21064 2 3.4115 2 3.63964V11.6344C2 11.9794 2.34235 12.2215 2.67903 12.1459C3.10405 12.0504 3.54614 12 4 12C5.1977 12 6.31344 12.3509 7.25 12.9556V3.68772Z" fill="black"/>
<path d="M8.75 12.9556C9.68656 12.3509 10.8023 12 12 12C12.4539 12 12.8959 12.0504 13.321 12.1459C13.6577 12.2215 14 11.9794 14 11.6344V3.63964C14 3.4115 13.8459 3.21064 13.6224 3.16462C13.0985 3.05669 12.5559 3 12 3C10.8428 3 9.74308 3.24568 8.75 3.68772V12.9556Z" fill="black"/>
</svg>
