<svg width="16" height="16" viewBox="0 0 16 16" fill="none" xmlns="http://www.w3.org/2000/svg">
<path d="M1 8.84861C1 9.84878 1.73847 10.7002 2.73405 10.7959C2.82262 10.8045 2.91127 10.8127 3 10.8207V13.25C3 13.5533 3.18273 13.8268 3.46299 13.9429C3.74324 14.059 4.06583 13.9948 4.28033 13.7803L6.10018 11.9605C5.72131 11.4012 5.5 10.7264 5.5 10V9C5.5 7.067 7.067 5.5 9 5.5H13V4.15148C13 3.15133 12.2615 2.29993 11.266 2.20415C9.86223 2.0691 8.43918 2 7 2C5.56082 2 4.13777 2.0691 2.734 2.20415C1.73845 2.29993 1 3.15133 1 4.15148V8.84861Z" fill="black"/>
<path d="M7 9C7 7.89543 7.89543 7 9 7H13C14.1046 7 15 7.89543 15 9V10C15 11.1046 14.1046 12 13 12H12.75V13.25C12.75 13.5533 12.5673 13.8268 12.287 13.9429C12.0068 14.059 11.6842 13.9948 11.4697 13.7803L9.68934 12H9C7.89543 12 7 11.1046 7 10V9Z" fill="black"/>
</svg>
