<svg width="16" height="16" viewBox="0 0 16 16" fill="none" xmlns="http://www.w3.org/2000/svg">
<path fill-rule="evenodd" clip-rule="evenodd" d="M7.46967 12.7803C7.76256 13.0732 8.23744 13.0732 8.53033 12.7803L11.7803 9.53033C12.0732 9.23744 12.0732 8.76256 11.7803 8.46967C11.4874 8.17678 11.0126 8.17678 10.7197 8.46967L8 11.1893L5.28033 8.46967C4.98744 8.17678 4.51256 8.17678 4.21967 8.46967C3.92678 8.76256 3.92678 9.23744 4.21967 9.53033L7.46967 12.7803ZM4.21967 4.53033L7.46967 7.78033C7.76256 8.07322 8.23744 8.07322 8.53033 7.78033L11.7803 4.53033C12.0732 4.23744 12.0732 3.76256 11.7803 3.46967C11.4874 3.17678 11.0126 3.17678 10.7197 3.46967L8 6.18934L5.28033 3.46967C4.98744 3.17678 4.51256 3.17678 4.21967 3.46967C3.92678 3.76256 3.92678 4.23744 4.21967 4.53033Z" fill="black"/>
</svg>
