<svg width="16" height="16" viewBox="0 0 16 16" fill="none" xmlns="http://www.w3.org/2000/svg">
<path d="M2 7C2 6.44772 2.44772 6 3 6H6.58579C6.851 6 7.10536 6.10536 7.29289 6.29289L10.7071 9.70711C10.8946 9.89464 11 10.149 11 10.4142V14C11 14.5523 10.5523 15 10 15H3C2.44772 15 2 14.5523 2 14V7Z" fill="black"/>
<path fill-rule="evenodd" clip-rule="evenodd" d="M12 3H11.9863C11.8619 1.87501 10.9081 1 9.75001 1H8.25001C7.09187 1 6.1381 1.87501 6.01374 3H6.00001C5.06809 3 4.28504 3.63739 4.06302 4.5H6.5858C7.24884 4.5 7.88472 4.76339 8.35356 5.23223L11.7678 8.64645C12.2366 9.11529 12.5 9.75117 12.5 10.4142V12.937C13.3626 12.715 14 11.9319 14 11V5C14 3.89543 13.1046 3 12 3ZM10.5 3.25V4H7.50001V3.25C7.50001 2.83579 7.8358 2.5 8.25001 2.5H9.75001C10.1642 2.5 10.5 2.83579 10.5 3.25Z" fill="black"/>
</svg>
