<svg width="16" height="16" viewBox="0 0 16 16" fill="none" xmlns="http://www.w3.org/2000/svg">
<path d="M2.5 3C1.67157 3 1 3.67157 1 4.5V5H15V4.5C15 3.67157 14.3284 3 13.5 3H2.5Z" fill="#333333"/>
<path fill-rule="evenodd" clip-rule="evenodd" d="M15 7H1V11.5C1 12.3284 1.67157 13 2.5 13H13.5C14.3284 13 15 12.3284 15 11.5V7ZM3 10.25C3 9.83579 3.33579 9.5 3.75 9.5H4.25C4.66421 9.5 5 9.83579 5 10.25C5 10.6642 4.66421 11 4.25 11H3.75C3.33579 11 3 10.6642 3 10.25ZM6.75 9.5C6.33579 9.5 6 9.83579 6 10.25C6 10.6642 6.33579 11 6.75 11H9.25C9.66421 11 10 10.6642 10 10.25C10 9.83579 9.66421 9.5 9.25 9.5H6.75Z" fill="#333333"/>
</svg>
