<svg width="16" height="16" viewBox="0 0 16 16" fill="none" xmlns="http://www.w3.org/2000/svg">
<path d="M6.375 5.5H7.25V7.25H6.375C5.89175 7.25 5.5 6.85825 5.5 6.375C5.5 5.89175 5.89175 5.5 6.375 5.5Z" fill="black"/>
<path d="M8.75 10.5V8.75H9.625C10.1082 8.75 10.5 9.14175 10.5 9.625C10.5 10.1082 10.1082 10.5 9.625 10.5H8.75Z" fill="black"/>
<path fill-rule="evenodd" clip-rule="evenodd" d="M15 8C15 11.866 11.866 15 8 15C4.13401 15 1 11.866 1 8C1 4.13401 4.13401 1 8 1C11.866 1 15 4.13401 15 8ZM7.25 3.75C7.25 3.33579 7.58579 3 8 3C8.41421 3 8.75 3.33579 8.75 3.75V4H11.25C11.6642 4 12 4.33579 12 4.75C12 5.16421 11.6642 5.5 11.25 5.5H8.75V7.25H9.625C10.9367 7.25 12 8.31332 12 9.625C12 10.9367 10.9367 12 9.625 12H8.75V12.25C8.75 12.6642 8.41421 13 8 13C7.58579 13 7.25 12.6642 7.25 12.25V12H4.75C4.33579 12 4 11.6642 4 11.25C4 10.8358 4.33579 10.5 4.75 10.5H7.25V8.75H6.375C5.06332 8.75 4 7.68668 4 6.375C4 5.06332 5.06332 4 6.375 4H7.25V3.75Z" fill="black"/>
</svg>
