<svg width="16" height="16" viewBox="0 0 16 16" fill="none" xmlns="http://www.w3.org/2000/svg">
<path fill-rule="evenodd" clip-rule="evenodd" d="M2 8C2 7.58579 2.33579 7.25 2.75 7.25H13.25C13.6642 7.25 14 7.58579 14 8C14 8.41421 13.6642 8.75 13.25 8.75H2.75C2.33579 8.75 2 8.41421 2 8Z" fill="black"/>
<path d="M9 3C9 3.55228 8.55228 4 8 4C7.44772 4 7 3.55228 7 3C7 2.44772 7.44772 2 8 2C8.55228 2 9 2.44772 9 3Z" fill="black"/>
<path d="M9 13C9 13.5523 8.55228 14 8 14C7.44772 14 7 13.5523 7 13C7 12.4477 7.44772 12 8 12C8.55228 12 9 12.4477 9 13Z" fill="black"/>
</svg>
