<svg width="16" height="16" viewBox="0 0 16 16" fill="none" xmlns="http://www.w3.org/2000/svg">
<path fill-rule="evenodd" clip-rule="evenodd" d="M2.5 3.5C2.5 2.67157 3.17157 2 4 2H8.87868C9.2765 2 9.65804 2.15804 9.93934 2.43934L13.0607 5.56066C13.342 5.84197 13.5 6.2235 13.5 6.62132V12.5C13.5 13.3284 12.8284 14 12 14H4C3.17157 14 2.5 13.3284 2.5 12.5V3.5ZM7.05213 6.23422C7.40595 5.64453 7.77213 5.5 8 5.5C8.22787 5.5 8.59405 5.64453 8.94787 6.23422C9.16098 6.58941 9.62168 6.70458 9.97686 6.49147C10.332 6.27836 10.4472 5.81766 10.2341 5.46248C9.70925 4.5877 8.92378 4 8 4C7.07622 4 6.29075 4.58771 5.76589 5.46248C5.5739 5.78245 5.41993 6.13263 5.30183 6.5H4.75C4.33579 6.5 4 6.83579 4 7.25C4 7.66421 4.33579 8 4.75 8H5.01785C5.00589 8.16697 5 8.33398 5 8.5C5 8.66602 5.00589 8.83303 5.01785 9H4.75C4.33579 9 4 9.33579 4 9.75C4 10.1642 4.33579 10.5 4.75 10.5H5.30183C5.41993 10.8674 5.5739 11.2175 5.76589 11.5375C6.29075 12.4123 7.07622 13 8 13C8.92378 13 9.70925 12.4123 10.2341 11.5375C10.4472 11.1823 10.332 10.7216 9.97686 10.5085C9.62168 10.2954 9.16098 10.4106 8.94787 10.7658C8.59405 11.3555 8.22787 11.5 8 11.5C7.77213 11.5 7.40595 11.3555 7.05213 10.7658C7.00166 10.6817 6.95435 10.5929 6.91033 10.5H7.25C7.66421 10.5 8 10.1642 8 9.75C8 9.33579 7.66421 9 7.25 9H6.52268C6.50767 8.83584 6.5 8.6687 6.5 8.5C6.5 8.3313 6.50767 8.16416 6.52268 8H7.25C7.66421 8 8 7.66421 8 7.25C8 6.83579 7.66421 6.5 7.25 6.5H6.91033C6.95435 6.40711 7.00166 6.31833 7.05213 6.23422Z" fill="black"/>
</svg>
