<svg width="16" height="16" viewBox="0 0 16 16" fill="none" xmlns="http://www.w3.org/2000/svg">
<path fill-rule="evenodd" clip-rule="evenodd" d="M6.70097 2.25C7.27832 1.25 8.72169 1.25 9.29904 2.25L14.4952 11.25C15.0725 12.25 14.3509 13.5 13.1962 13.5H2.80385C1.64915 13.5 0.927463 12.25 1.50481 11.25L6.70097 2.25ZM8 4C8.41422 4 8.75 4.33579 8.75 4.75V7.75C8.75 8.16421 8.41422 8.5 8 8.5C7.58579 8.5 7.25 8.16421 7.25 7.75V4.75C7.25 4.33579 7.58579 4 8 4ZM8 12C8.55229 12 9 11.5523 9 11C9 10.4477 8.55229 10 8 10C7.44772 10 7 10.4477 7 11C7 11.5523 7.44772 12 8 12Z" fill="black"/>
</svg>
