<svg width="16" height="16" viewBox="0 0 16 16" fill="none" xmlns="http://www.w3.org/2000/svg">
<path d="M2.25 8C2.25 6.86467 2.57904 5.8062 3.14696 4.91473M12.8718 12.4154C13.4376 11.0559 13.75 9.56443 13.75 8C13.75 4.82436 11.1756 2.25 8 2.25C6.86467 2.25 5.80619 2.57904 4.91473 3.14696M7.63299 14.7394C8.89114 13.7332 9.86136 12.3819 10.4003 10.8291M7.995 8C7.995 10.5069 6.39071 12.6391 4.15279 13.4259M2.21698 10.8748L2.25 10.875C3.83782 10.875 5.125 9.58782 5.125 8C5.125 6.41218 6.41218 5.125 8 5.125C9.58782 5.125 10.875 6.41218 10.875 8C10.875 8.07183 10.8741 8.14346 10.8724 8.21487" stroke="black" stroke-width="1.5" stroke-linecap="round" stroke-linejoin="round"/>
</svg>
