<svg width="16" height="16" viewBox="0 0 16 16" fill="none" xmlns="http://www.w3.org/2000/svg">
<path fill-rule="evenodd" clip-rule="evenodd" d="M2 3.50464C2 2.67621 2.67157 2.00464 3.5 2.00464H6.37868C6.7765 2.00464 7.15804 2.16267 7.43934 2.44398L8.56066 3.5653C8.84196 3.8466 9.2235 4.00464 9.62132 4.00464H12.5C13.3284 4.00464 14 4.67621 14 5.50464V12.5046C14 13.3331 13.3284 14.0046 12.5 14.0046H3.5C2.67157 14.0046 2 13.3331 2 12.5046V3.50464ZM7.25 11.2546C7.25 11.6689 7.58579 12.0046 8 12.0046C8.41421 12.0046 8.75 11.6689 8.75 11.2546V8.5653L9.46967 9.28497C9.76256 9.57786 10.2374 9.57786 10.5303 9.28497C10.8232 8.99208 10.8232 8.5172 10.5303 8.22431L8.53033 6.22431C8.23744 5.93142 7.76256 5.93142 7.46967 6.22431L5.46967 8.22431C5.17678 8.5172 5.17678 8.99207 5.46967 9.28497C5.76256 9.57786 6.23744 9.57786 6.53033 9.28497L7.25 8.5653L7.25 11.2546Z" fill="#0F172A"/>
</svg>
