<svg width="16" height="16" viewBox="0 0 16 16" fill="none" xmlns="http://www.w3.org/2000/svg">
<path d="M2 3.5C2 2.67157 2.67157 2 3.5 2H6.37868C6.7765 2 7.15804 2.15804 7.43934 2.43934L8.56066 3.56066C8.84196 3.84197 9.2235 4 9.62132 4H12.5C13.3284 4 14 4.67157 14 5.5V6.90135C13.5587 6.64609 13.0464 6.5 12.5 6.5H3.5C2.95357 6.5 2.44126 6.64609 2 6.90135V3.5Z" fill="black"/>
<path d="M2 9.5V12.5C2 13.3284 2.67157 14 3.5 14H12.5C13.3284 14 14 13.3284 14 12.5V9.5C14 8.67157 13.3284 8 12.5 8H3.5C2.67157 8 2 8.67157 2 9.5Z" fill="black"/>
</svg>
