<svg width="16" height="16" viewBox="0 0 16 16" fill="none" xmlns="http://www.w3.org/2000/svg">
<path fill-rule="evenodd" clip-rule="evenodd" d="M3.75 3.50464C3.75 4.06744 3.93597 4.58681 4.24982 5.00464H2C1.44772 5.00464 1 5.45235 1 6.00464C1 6.55692 1.44772 7.00464 2 7.00464H7.25V5.00464H8.75V7.00464H14C14.5523 7.00464 15 6.55692 15 6.00464C15 5.45235 14.5523 5.00464 14 5.00464H11.7492C12.0631 4.58681 12.249 4.06744 12.249 3.50464C12.249 2.12393 11.1297 1.00464 9.74902 1.00464C9.06791 1.00464 8.45041 1.27702 7.99951 1.7188C7.54862 1.27702 6.93112 1.00464 6.25 1.00464C4.86929 1.00464 3.75 2.12393 3.75 3.50464ZM7.24902 3.50464L7.2493 3.46693C7.22947 2.93212 6.78966 2.50464 6.25 2.50464C5.69772 2.50464 5.25 2.95235 5.25 3.50464C5.25 4.05692 5.69772 4.50464 6.25 4.50464H7.24936L7.24902 3.50464ZM9.74902 2.50464C9.20937 2.50464 8.76955 2.93212 8.74972 3.46693L8.75 3.50464V4.50464H9.74902C10.3013 4.50464 10.749 4.05692 10.749 3.50464C10.749 2.95235 10.3013 2.50464 9.74902 2.50464Z" fill="#0F172A"/>
<path d="M7.25 8.50464H2V12.0046C2 13.1092 2.89543 14.0046 4 14.0046H7.25V8.50464Z" fill="#0F172A"/>
<path d="M8.75 14.0046V8.50464H14V12.0046C14 13.1092 13.1046 14.0046 12 14.0046H8.75Z" fill="#0F172A"/>
</svg>
