<svg width="16" height="16" viewBox="0 0 16 16" fill="none" xmlns="http://www.w3.org/2000/svg">
<path d="M8.5 1C8.08579 1 7.75 1.33579 7.75 1.75V6.5C7.75 6.77614 7.52614 7 7.25 7C6.97386 7 6.75 6.77614 6.75 6.5V2.75C6.75 2.33579 6.41421 2 6 2C5.58579 2 5.25 2.33579 5.25 2.75V7.5C5.25 7.77614 5.02614 8 4.75 8C4.47386 8 4.25 7.77614 4.25 7.5V4.75C4.25 4.33579 3.91421 4 3.5 4C3.08579 4 2.75 4.33579 2.75 4.75V9.25C2.75 12.4256 5.32436 15 8.5 15C11.6756 15 14.25 12.4256 14.25 9.25V6.75C14.25 6.33579 13.9142 6 13.5 6C13.0858 6 12.75 6.33579 12.75 6.75V9.5C12.75 9.77614 12.5261 10 12.25 10C11.9739 10 11.75 9.77614 11.75 9.5V2.75C11.75 2.33579 11.4142 2 11 2C10.5858 2 10.25 2.33579 10.25 2.75V6.5C10.25 6.77614 10.0261 7 9.75 7C9.47386 7 9.25 6.77614 9.25 6.5V1.75C9.25 1.33579 8.91421 1 8.5 1Z" fill="black"/>
</svg>
