<svg width="16" height="16" viewBox="0 0 16 16" fill="none" xmlns="http://www.w3.org/2000/svg">
<path d="M3.28033 2.21967C2.98744 1.92678 2.51256 1.92678 2.21967 2.21967C1.92678 2.51256 1.92678 2.98744 2.21967 3.28033L12.7197 13.7803C13.0126 14.0732 13.4874 14.0732 13.7803 13.7803C14.0732 13.4874 14.0732 13.0126 13.7803 12.7197L10.781 9.72035C11.2421 8.47805 10.9746 7.02516 9.97476 6.02533C9.68186 5.73244 9.20699 5.73244 8.9141 6.02533C8.6212 6.31823 8.6212 6.7931 8.9141 7.08599C9.28853 7.46043 9.48385 7.94698 9.49904 8.43839L7.11616 6.0555L9.0854 4.08579C9.86645 3.30474 11.1328 3.30474 11.9138 4.08579C12.5348 4.70673 12.663 5.63602 12.2944 6.38407C12.1114 6.75563 12.2642 7.20525 12.6357 7.38833C13.0073 7.5714 13.4569 7.41861 13.64 7.04705C14.2838 5.74031 14.0634 4.11404 12.9745 3.02513C11.6077 1.65829 9.39158 1.65829 8.02474 3.02513L6.0555 4.99484L3.28033 2.21967Z" fill="black"/>
<path d="M3.70514 9.61596C3.88825 9.24442 3.7355 8.79479 3.36396 8.61167C2.99242 8.42856 2.54278 8.58131 2.35967 8.95285C1.71562 10.2597 1.93602 11.8861 3.02501 12.9751C4.39184 14.3419 6.60792 14.3419 7.97476 12.9751L8.35354 12.5963C8.64643 12.3034 8.64643 11.8285 8.35354 11.5356C8.06065 11.2427 7.58577 11.2427 7.29288 11.5356L6.9141 11.9144C6.13305 12.6955 4.86672 12.6955 4.08567 11.9144C3.46468 11.2934 3.33645 10.364 3.70514 9.61596Z" fill="black"/>
</svg>
