<svg width="16" height="16" viewBox="0 0 16 16" fill="none" xmlns="http://www.w3.org/2000/svg">
<path d="M3 4.75C3.55228 4.75 4 4.30228 4 3.75C4 3.19772 3.55228 2.75 3 2.75C2.44772 2.75 2 3.19772 2 3.75C2 4.30228 2.44772 4.75 3 4.75Z" fill="black"/>
<path d="M6.25 3C5.83579 3 5.5 3.33579 5.5 3.75C5.5 4.16421 5.83579 4.5 6.25 4.5H13.25C13.6642 4.5 14 4.16421 14 3.75C14 3.33579 13.6642 3 13.25 3H6.25Z" fill="black"/>
<path d="M6.25 7.25C5.83579 7.25 5.5 7.58579 5.5 8C5.5 8.41421 5.83579 8.75 6.25 8.75H13.25C13.6642 8.75 14 8.41421 14 8C14 7.58579 13.6642 7.25 13.25 7.25H6.25Z" fill="black"/>
<path d="M6.25 11.5C5.83579 11.5 5.5 11.8358 5.5 12.25C5.5 12.6642 5.83579 13 6.25 13H13.25C13.6642 13 14 12.6642 14 12.25C14 11.8358 13.6642 11.5 13.25 11.5H6.25Z" fill="black"/>
<path d="M4 12.25C4 12.8023 3.55228 13.25 3 13.25C2.44772 13.25 2 12.8023 2 12.25C2 11.6977 2.44772 11.25 3 11.25C3.55228 11.25 4 11.6977 4 12.25Z" fill="black"/>
<path d="M3 9C3.55228 9 4 8.55229 4 8C4 7.44772 3.55228 7 3 7C2.44772 7 2 7.44772 2 8C2 8.55229 2.44772 9 3 9Z" fill="black"/>
</svg>
