<svg width="16" height="16" viewBox="0 0 16 16" fill="none" xmlns="http://www.w3.org/2000/svg">
<path d="M5.9393 8.06066C5.35352 7.47487 5.35352 6.52513 5.9393 5.93934C6.52509 5.35355 7.47484 5.35355 8.06063 5.93934C8.64641 6.52513 8.64641 7.47487 8.06063 8.06066C7.47484 8.64645 6.52509 8.64645 5.9393 8.06066Z" fill="#0F172A"/>
<path fill-rule="evenodd" clip-rule="evenodd" d="M8 15C11.866 15 15 11.866 15 8C15 4.13401 11.866 1 8 1C4.13401 1 1 4.13401 1 8C1 11.866 4.13401 15 8 15ZM4.87864 4.87868C3.70707 6.05025 3.70707 7.94975 4.87864 9.12132C5.86708 10.1098 7.37364 10.2643 8.52406 9.58486L9.71924 10.7803C10.0121 11.0732 10.487 11.0732 10.7799 10.7804C11.0728 10.4875 11.0729 10.0126 10.78 9.71972L9.58475 8.52422C10.2642 7.37378 10.1098 5.86715 9.12129 4.87868C7.94971 3.70711 6.05022 3.70711 4.87864 4.87868Z" fill="#0F172A"/>
</svg>
