<svg width="16" height="16" viewBox="0 0 16 16" fill="none" xmlns="http://www.w3.org/2000/svg">
<path d="M6.25 8.75V7.75H5.25C4.83579 7.75 4.5 7.41421 4.5 7C4.5 6.58579 4.83579 6.25 5.25 6.25L6.25 6.25V5.25C6.25 4.83579 6.58579 4.5 7 4.5C7.41421 4.5 7.75 4.83579 7.75 5.25V6.25H8.75C9.16421 6.25 9.5 6.58579 9.5 7C9.5 7.41421 9.16421 7.75 8.75 7.75H7.75V8.75C7.75 9.16421 7.41421 9.5 7 9.5C6.58579 9.5 6.25 9.16421 6.25 8.75Z" fill="black"/>
<path fill-rule="evenodd" clip-rule="evenodd" d="M7 12C8.11014 12 9.13578 11.6382 9.96544 11.0261L12.7197 13.7803C13.0126 14.0732 13.4874 14.0732 13.7803 13.7803C14.0732 13.4874 14.0732 13.0126 13.7803 12.7197L11.0261 9.96544C11.6382 9.13578 12 8.11014 12 7C12 4.23858 9.76142 2 7 2C4.23858 2 2 4.23858 2 7C2 9.76142 4.23858 12 7 12ZM7 10.5C8.933 10.5 10.5 8.933 10.5 7C10.5 5.067 8.933 3.5 7 3.5C5.067 3.5 3.5 5.067 3.5 7C3.5 8.933 5.067 10.5 7 10.5Z" fill="black"/>
</svg>
