<svg width="16" height="16" viewBox="0 0 16 16" fill="none" xmlns="http://www.w3.org/2000/svg">
<path d="M5.5 3C5.5 2.33696 5.76339 1.70107 6.23223 1.23223C6.70107 0.763392 7.33696 0.5 8 0.5C8.66304 0.5 9.29893 0.763392 9.76777 1.23223C10.2366 1.70107 10.5 2.33696 10.5 3V8.5C10.5 9.16304 10.2366 9.79893 9.76777 10.2678C9.29893 10.7366 8.66304 11 8 11C7.33696 11 6.70107 10.7366 6.23223 10.2678C5.76339 9.79893 5.5 9.16304 5.5 8.5V3Z" fill="black"/>
<path d="M4 7C4.13261 7 4.25979 7.05268 4.35355 7.14645C4.44732 7.24022 4.5 7.36739 4.5 7.5V8.5C4.5 9.42826 4.86875 10.3185 5.52513 10.9749C6.1815 11.6313 7.07174 12 8 12C8.92826 12 9.8185 11.6313 10.4749 10.9749C11.1313 10.3185 11.5 9.42826 11.5 8.5V7.5C11.5 7.36739 11.5527 7.24022 11.6464 7.14645C11.7402 7.05268 11.8674 7 12 7C12.1326 7 12.2598 7.05268 12.3536 7.14645C12.4473 7.24022 12.5 7.36739 12.5 7.5V8.5C12.5 9.60695 12.092 10.6751 11.3541 11.5002C10.6162 12.3253 9.60008 12.8495 8.5 12.9727V14.5H10.5C10.6326 14.5 10.7598 14.5527 10.8536 14.6464C10.9473 14.7402 11 14.8674 11 15C11 15.1326 10.9473 15.2598 10.8536 15.3536C10.7598 15.4473 10.6326 15.5 10.5 15.5H5.5C5.36739 15.5 5.24021 15.4473 5.14645 15.3536C5.05268 15.2598 5 15.1326 5 15C5 14.8674 5.05268 14.7402 5.14645 14.6464C5.24021 14.5527 5.36739 14.5 5.5 14.5H7.5V12.9727C6.39992 12.8495 5.38381 12.3253 4.64589 11.5002C3.90797 10.6751 3.50002 9.60695 3.5 8.5V7.5C3.5 7.36739 3.55268 7.24022 3.64645 7.14645C3.74021 7.05268 3.86739 7 4 7Z" fill="black"/>
<path d="M12.6667 12.6667L11.7273 11.7273L3.606 3.606L2.66667 2.66667" stroke="black" stroke-width="1.5" stroke-linecap="round" stroke-linejoin="round"/>
</svg>
