<svg width="16" height="16" viewBox="0 0 16 16" fill="none" xmlns="http://www.w3.org/2000/svg">
<path fill-rule="evenodd" clip-rule="evenodd" d="M15 8C15 11.866 11.866 15 8 15C4.13401 15 1 11.866 1 8C1 4.13401 4.13401 1 8 1C11.866 1 15 4.13401 15 8ZM5.5 5.5C5.5 5.22386 5.72386 5 6 5H6.5C6.77614 5 7 5.22386 7 5.5V10.5C7 10.7761 6.77614 11 6.5 11H6C5.72386 11 5.5 10.7761 5.5 10.5V5.5ZM9.5 5C9.22386 5 9 5.22386 9 5.5V10.5C9 10.7761 9.22386 11 9.5 11H10C10.2761 11 10.5 10.7761 10.5 10.5V5.5C10.5 5.22386 10.2761 5 10 5H9.5Z" fill="#0F172A"/>
</svg>
