<svg width="16" height="16" viewBox="0 0 16 16" fill="none" xmlns="http://www.w3.org/2000/svg">
<path d="M1 4.80433C1 4.0189 1.86395 3.54006 2.53 3.95633L7.6432 7.15209C8.26987 7.54376 8.26987 8.45642 7.6432 8.84808L2.53 12.0438C1.86395 12.4601 1 11.9813 1 11.1958V4.80433Z" fill="black"/>
<path d="M13.5 4.50009C13.5 4.22394 13.7239 4.00009 14 4.00009H14.5C14.7761 4.00009 15 4.22394 15 4.50009V11.5001C15 11.7762 14.7761 12.0001 14.5 12.0001H14C13.7239 12.0001 13.5 11.7762 13.5 11.5001V4.50009Z" fill="black"/>
<path d="M10.5 4.00009C10.2239 4.00009 10 4.22394 10 4.50009V11.5001C10 11.7762 10.2239 12.0001 10.5 12.0001H11C11.2761 12.0001 11.5 11.7762 11.5 11.5001V4.50009C11.5 4.22394 11.2761 4.00009 11 4.00009H10.5Z" fill="black"/>
</svg>
