<svg width="16" height="16" viewBox="0 0 16 16" fill="none" xmlns="http://www.w3.org/2000/svg">
<path fill-rule="evenodd" clip-rule="evenodd" d="M8 1C8.41421 1 8.75 1.33579 8.75 1.75V8.25C8.75 8.66421 8.41421 9 8 9C7.58579 9 7.25 8.66421 7.25 8.25V1.75C7.25 1.33579 7.58579 1 8 1ZM4.11091 3.05025C4.40381 3.34315 4.40381 3.81802 4.11091 4.11091C1.96303 6.2588 1.96303 9.7412 4.11091 11.8891C6.2588 14.037 9.7412 14.037 11.8891 11.8891C14.037 9.7412 14.037 6.2588 11.8891 4.11091C11.5962 3.81802 11.5962 3.34315 11.8891 3.05025C12.182 2.75736 12.6569 2.75736 12.9497 3.05025C15.6834 5.78392 15.6834 10.2161 12.9497 12.9497C10.2161 15.6834 5.78392 15.6834 3.05025 12.9497C0.316582 10.2161 0.316583 5.78392 3.05025 3.05025C3.34315 2.75736 3.81802 2.75736 4.11091 3.05025Z" fill="black"/>
</svg>
