<svg width="16" height="16" viewBox="0 0 16 16" fill="none" xmlns="http://www.w3.org/2000/svg">
<path fill-rule="evenodd" clip-rule="evenodd" d="M4 5C2.89543 5 2 5.89543 2 7V10C2 10.9357 2.64257 11.7213 3.51051 11.9397L3.19452 13.8356C3.09293 14.4451 3.56297 15 4.18091 15H11.82C12.4379 15 12.908 14.4451 12.8064 13.8356L12.4904 11.9394C13.3579 11.7208 14 10.9354 14 10V7C14 5.89543 13.1046 5 12 5V2C12 1.44772 11.5523 1 11 1H5C4.44772 1 4 1.44772 4 2V5ZM5.5 5V2.5H10.5V5H5.5ZM10.7298 10.5H5.27114L4.77114 13.5H11.2298L10.7298 10.5Z" fill="#0F172A"/>
</svg>
