<svg width="16" height="16" viewBox="0 0 16 16" fill="none" xmlns="http://www.w3.org/2000/svg">
<path d="M9 3.88901C9 3.61619 9.18823 3.38689 9.41748 3.23898C9.77185 3.01035 10 2.65238 10 2.25C10 1.55964 9.32843 1 8.5 1C7.67157 1 7 1.55964 7 2.25C7 2.6599 7.23676 3.02372 7.60253 3.25167C7.82216 3.38855 8 3.60655 8 3.86534C8 4.19628 7.72506 4.46143 7.39458 4.44385C6.65084 4.40431 5.9127 4.34393 5.18072 4.2633C4.9575 4.23871 4.735 4.31545 4.57439 4.47242C4.41378 4.62939 4.33197 4.85007 4.35143 5.0738C4.41795 5.83834 4.46242 6.60928 4.48419 7.38597C4.49366 7.72377 4.22043 8 3.88249 8C3.61353 8 3.38734 7.81465 3.24251 7.58801C3.01404 7.23051 2.65445 7 2.25 7C1.55964 7 1 7.67157 1 8.5C1 9.32843 1.55964 10 2.25 10C2.65445 10 3.01404 9.76949 3.24252 9.41198C3.38734 9.18535 3.61353 9 3.88249 9C4.22042 9 4.49365 9.27623 4.48418 9.61403C4.45298 10.7263 4.37523 11.8268 4.25283 12.9137C4.20647 13.3252 4.50253 13.6965 4.91411 13.7429C5.74018 13.836 6.57371 13.9042 7.41391 13.9469C7.73398 13.9631 8 13.7063 8 13.3858C8 13.1149 7.8132 12.8871 7.58525 12.7407C7.22932 12.5122 7 12.1534 7 11.75C7 11.0596 7.67157 10.5 8.5 10.5C9.32843 10.5 10 11.0596 10 11.75C10 12.1534 9.77068 12.5122 9.41475 12.7407C9.1868 12.8871 9 13.1149 9 13.3858V13.4969C9 13.7739 9.22278 13.9997 9.49979 13.9997C10.6964 13.9997 11.881 13.9478 13.0515 13.8461C13.4066 13.8152 13.6909 13.5388 13.7317 13.1847C13.8672 12.0079 13.9524 10.8159 13.9848 9.61088C13.9939 9.27476 13.722 9 13.3858 9C13.1149 9 12.8871 9.1868 12.7407 9.41475C12.5122 9.77068 12.1534 10 11.75 10C11.0596 10 10.5 9.32843 10.5 8.5C10.5 7.67157 11.0596 7 11.75 7C12.1534 7 12.5122 7.22932 12.7407 7.58525C12.8871 7.8132 13.1149 8 13.3858 8C13.722 8 13.9939 7.72524 13.9848 7.38912C13.9635 6.59519 13.9192 5.80688 13.8528 5.02484C13.8359 4.82601 13.7404 4.64211 13.5876 4.51384C13.4347 4.38556 13.237 4.3235 13.0383 4.34137C11.873 4.44614 10.6927 4.49968 9.49979 4.49968C9.22274 4.49968 9 4.27379 9 3.99675V3.88901Z" fill="black"/>
</svg>
