<svg width="16" height="16" viewBox="0 0 16 16" fill="none" xmlns="http://www.w3.org/2000/svg">
<path d="M4.75 4.25C4.47386 4.25 4.25 4.47386 4.25 4.75C4.25 5.02614 4.47386 5.25 4.75 5.25C5.02614 5.25 5.25 5.02614 5.25 4.75C5.25 4.47386 5.02614 4.25 4.75 4.25Z" fill="#0F172A"/>
<path fill-rule="evenodd" clip-rule="evenodd" d="M2 3.5C2 2.67157 2.67157 2 3.5 2H6C6.82843 2 7.5 2.67157 7.5 3.5V6C7.5 6.82843 6.82843 7.5 6 7.5H3.5C2.67157 7.5 2 6.82843 2 6V3.5ZM3.5 3.5H6V6H3.5V3.5Z" fill="#0F172A"/>
<path d="M4.25 11.25C4.25 10.9739 4.47386 10.75 4.75 10.75C5.02614 10.75 5.25 10.9739 5.25 11.25C5.25 11.5261 5.02614 11.75 4.75 11.75C4.47386 11.75 4.25 11.5261 4.25 11.25Z" fill="#0F172A"/>
<path fill-rule="evenodd" clip-rule="evenodd" d="M2 10C2 9.17157 2.67157 8.5 3.5 8.5H6C6.82843 8.5 7.5 9.17157 7.5 10V12.5C7.5 13.3284 6.82843 14 6 14H3.5C2.67157 14 2 13.3284 2 12.5V10ZM3.5 12.5V10H6V12.5H3.5Z" fill="#0F172A"/>
<path d="M11.25 4.25C10.9739 4.25 10.75 4.47386 10.75 4.75C10.75 5.02614 10.9739 5.25 11.25 5.25C11.5261 5.25 11.75 5.02614 11.75 4.75C11.75 4.47386 11.5261 4.25 11.25 4.25Z" fill="#0F172A"/>
<path fill-rule="evenodd" clip-rule="evenodd" d="M10 2C9.17157 2 8.5 2.67157 8.5 3.5V6C8.5 6.82843 9.17157 7.5 10 7.5H12.5C13.3284 7.5 14 6.82843 14 6V3.5C14 2.67157 13.3284 2 12.5 2H10ZM12.5 3.5H10V6H12.5V3.5Z" fill="#0F172A"/>
<path d="M8.5 9.41667C8.5 8.91041 8.91041 8.5 9.41667 8.5C9.92293 8.5 10.3333 8.91041 10.3333 9.41667C10.3333 9.92293 9.92293 10.3333 9.41667 10.3333C8.91041 10.3333 8.5 9.92293 8.5 9.41667Z" fill="#0F172A"/>
<path d="M8.5 13.083C8.5 12.5768 8.91041 12.1663 9.41667 12.1663C9.92293 12.1663 10.3333 12.5768 10.3333 13.083C10.3333 13.5893 9.92293 13.9997 9.41667 13.9997C8.91041 13.9997 8.5 13.5893 8.5 13.083Z" fill="#0F172A"/>
<path d="M13.0827 8.5C12.5764 8.5 12.166 8.91041 12.166 9.41667C12.166 9.92293 12.5764 10.3333 13.0827 10.3333C13.5889 10.3333 13.9993 9.92293 13.9993 9.41667C13.9993 8.91041 13.5889 8.5 13.0827 8.5Z" fill="#0F172A"/>
<path d="M12.166 13.0837C12.166 12.5774 12.5764 12.167 13.0827 12.167C13.5889 12.167 13.9993 12.5774 13.9993 13.0837C13.9993 13.5899 13.5889 14.0003 13.0827 14.0003C12.5764 14.0003 12.166 13.5899 12.166 13.0837Z" fill="#0F172A"/>
<path d="M11.2493 10.333C10.7433 10.333 10.333 10.7436 10.333 11.2497C10.333 11.7556 10.7431 12.1662 11.249 12.1663C11.7552 12.1665 12.1657 11.7559 12.1657 11.2497C12.1657 10.7436 11.7554 10.333 11.2493 10.333Z" fill="#0F172A"/>
</svg>
