<svg width="16" height="16" viewBox="0 0 16 16" fill="none" xmlns="http://www.w3.org/2000/svg">
<path fill-rule="evenodd" clip-rule="evenodd" d="M15 8C15 11.866 11.866 15 8 15C4.13401 15 1 11.866 1 8C1 4.13401 4.13401 1 8 1C11.866 1 15 4.13401 15 8ZM9 11.5C9 12.0523 8.55228 12.5 8 12.5C7.44772 12.5 7 12.0523 7 11.5C7 10.9477 7.44772 10.5 8 10.5C8.55228 10.5 9 10.9477 9 11.5ZM7.29303 5.29289C7.68355 4.90237 8.31671 4.90237 8.70724 5.29289C9.09776 5.68342 9.09776 6.31658 8.70724 6.70711C8.58354 6.83081 8.43743 6.91429 8.2827 6.95959C7.82404 7.09387 7.25013 7.52576 7.25013 8.25V8.50022C7.25013 8.91444 7.58592 9.25022 8.00013 9.25022C8.41435 9.25022 8.75013 8.91444 8.75013 8.50022V8.38522C9.12313 8.26818 9.47391 8.06176 9.7679 7.76777C10.7442 6.79146 10.7442 5.20854 9.7679 4.23223C8.79159 3.25592 7.20868 3.25592 6.23237 4.23223C5.93947 4.52513 5.93947 5 6.23237 5.29289C6.52526 5.58579 7.00013 5.58579 7.29303 5.29289Z" fill="#0F172A"/>
</svg>
