<svg width="16" height="16" viewBox="0 0 16 16" fill="none" xmlns="http://www.w3.org/2000/svg">
<path d="M2 4C2 2.89543 2.89543 2 4 2H12C13.1046 2 14 2.89543 14 4C14 5.10457 13.1046 6 12 6H4C2.89543 6 2 5.10457 2 4Z" fill="black"/>
<path d="M2 9.25C2 8.83579 2.33579 8.5 2.75 8.5H13.25C13.6642 8.5 14 8.83579 14 9.25C14 9.66421 13.6642 10 13.25 10H2.75C2.33579 10 2 9.66421 2 9.25Z" fill="black"/>
<path d="M2.75 12.5C2.33579 12.5 2 12.8358 2 13.25C2 13.6642 2.33579 14 2.75 14H13.25C13.6642 14 14 13.6642 14 13.25C14 12.8358 13.6642 12.5 13.25 12.5H2.75Z" fill="black"/>
</svg>
