<svg width="16" height="16" viewBox="0 0 16 16" fill="none" xmlns="http://www.w3.org/2000/svg">
<path d="M12 6C13.1046 6 14 5.10457 14 4C14 2.89543 13.1046 2 12 2C10.8954 2 10 2.89543 10 4C10 4.05331 10.0021 4.10614 10.0062 4.1584L5.32293 6.50002C4.97036 6.18883 4.50723 6 4 6C2.89543 6 2 6.89543 2 8C2 9.10457 2.89543 10 4 10C4.50723 10 4.97035 9.81118 5.32292 9.5L10.0062 11.8416C10.0021 11.8939 10 11.9467 10 12C10 13.1046 10.8954 14 12 14C13.1046 14 14 13.1046 14 12C14 10.8954 13.1046 10 12 10C11.4928 10 11.0296 10.1888 10.6771 10.5L5.99382 8.1584C5.99791 8.10614 6 8.05331 6 8C6 7.9467 5.99791 7.89388 5.99382 7.84163L10.6771 5.5C11.0297 5.81118 11.4928 6 12 6Z" fill="black"/>
</svg>
