<svg width="16" height="16" viewBox="0 0 16 16" fill="none" xmlns="http://www.w3.org/2000/svg">
<circle cx="4" cy="14" r="1" fill="black"/>
<circle cx="12" cy="14" r="1" fill="black"/>
<path fill-rule="evenodd" clip-rule="evenodd" d="M1 1.75214C1 1.33792 1.33579 1.00214 1.75 1.00214H4.17476C4.52091 1.00214 4.8221 1.23903 4.90365 1.57544L5.25171 3.01118C7.98556 3.07227 10.6585 3.38279 13.2484 3.92106C13.4465 3.96223 13.6195 4.08168 13.7283 4.25229C13.837 4.42291 13.8722 4.63021 13.8259 4.82715L12.9801 8.42177C12.9003 8.76056 12.598 9 12.25 9H5.75C4.77034 9 3.93691 9.6261 3.62803 10.5H13.25C13.6642 10.5 14 10.8358 14 11.25C14 11.6642 13.6642 12 13.25 12H2.75C2.33579 12 2 11.6642 2 11.25C2 9.49838 3.20095 8.02725 4.82436 7.6151L3.58486 2.50214H1.75C1.33579 2.50214 1 2.16635 1 1.75214Z" fill="black"/>
</svg>
