<svg width="16" height="16" viewBox="0 0 16 16" fill="none" xmlns="http://www.w3.org/2000/svg">
<rect x="1.75" y="3.75" width="12.5" height="8.5" rx="1.25" stroke="black" stroke-width="1.5"/>
<path d="M1.75 7.5C1.75 6.80964 2.30964 6.25 3 6.25H6.75C7.44036 6.25 8 6.80964 8 7.5V8C8 8.69036 7.44036 9.25 6.75 9.25H3C2.30964 9.25 1.75 8.69036 1.75 8V7.5Z" stroke="black" stroke-width="1.5"/>
<path d="M1.75 10.5C1.75 9.80964 2.30964 9.25 3 9.25H6.75C7.44036 9.25 8 9.80964 8 10.5V11C8 11.6904 7.44036 12.25 6.75 12.25H3C2.30964 12.25 1.75 11.6904 1.75 11V10.5Z" stroke="black" stroke-width="1.5"/>
<path d="M8 7.5C8 6.80964 8.55964 6.25 9.25 6.25H13C13.6904 6.25 14.25 6.80964 14.25 7.5V8C14.25 8.69036 13.6904 9.25 13 9.25H9.25C8.55964 9.25 8 8.69036 8 8V7.5Z" stroke="black" stroke-width="1.5"/>
<path d="M8 10.5C8 9.80964 8.55964 9.25 9.25 9.25H13C13.6904 9.25 14.25 9.80964 14.25 10.5V11C14.25 11.6904 13.6904 12.25 13 12.25H9.25C8.55964 12.25 8 11.6904 8 11V10.5Z" stroke="black" stroke-width="1.5"/>
<rect x="2" y="4" width="12" height="2" fill="black"/>
</svg>
