<svg width="16" height="16" viewBox="0 0 16 16" fill="none" xmlns="http://www.w3.org/2000/svg">
<path fill-rule="evenodd" clip-rule="evenodd" d="M12.9189 4.72164C12.8043 4.29252 12.4118 4 11.9676 4H10C9.44772 4 9 4.44772 9 5V11.2676C9.29417 11.0974 9.63571 11 10 11C11.1046 11 12 11.8954 12 13H13C13.5523 13 14.0016 12.5521 13.9847 12.0001C13.9076 9.49048 13.5417 7.05362 12.9189 4.72164Z" fill="black"/>
<circle cx="10" cy="13" r="1" fill="black"/>
<path fill-rule="evenodd" clip-rule="evenodd" d="M8 9H2V12C2 12.5523 2.44772 13 3 13C3 11.8954 3.89543 11 5 11C6.10457 11 7 11.8954 7 13C7.55228 13 8 12.5523 8 12V9Z" fill="black"/>
<circle cx="5" cy="13" r="1" fill="black"/>
<path d="M2 3.05011C2 2.53369 2.39314 2.10051 2.90849 2.06726C3.59991 2.02265 4.29731 2 5 2C5.70269 2 6.40009 2.02265 7.09151 2.06726C7.60685 2.10051 8 2.53369 8 3.05011V8H2V3.05011Z" fill="black"/>
</svg>
