<svg width="16" height="16" viewBox="0 0 16 16" fill="none" xmlns="http://www.w3.org/2000/svg">
<path d="M8.5 4.5C8.5 5.88071 7.38071 7 6 7C4.61929 7 3.5 5.88071 3.5 4.5C3.5 3.11929 4.61929 2 6 2C7.38071 2 8.5 3.11929 8.5 4.5Z" fill="black"/>
<path d="M10.9008 12.0064C11.0099 12.5478 10.5518 13 9.99951 13H1.99951C1.44722 13 0.989075 12.5478 1.09823 12.0064C1.55903 9.72096 3.57829 8 5.99951 8C8.42072 8 10.44 9.72096 10.9008 12.0064Z" fill="black"/>
<path d="M14.0022 12H12.4129C12.4049 11.9053 12.3911 11.8086 12.3712 11.7099C12.1774 10.7486 11.7717 9.86398 11.205 9.10709C11.4588 9.03728 11.7262 9 12.0022 9C13.3152 9 14.4312 9.84347 14.8379 11.0181C15.0185 11.54 14.5545 12 14.0022 12Z" fill="black"/>
<path d="M12 8C13.1046 8 14 7.10457 14 6C14 4.89543 13.1046 4 12 4C10.8954 4 10 4.89543 10 6C10 7.10457 10.8954 8 12 8Z" fill="black"/>
</svg>
