<svg width="16" height="16" viewBox="0 0 16 16" fill="none" xmlns="http://www.w3.org/2000/svg">
<path d="M8 8C9.38071 8 10.5 6.88071 10.5 5.5C10.5 4.11929 9.38071 3 8 3C6.61929 3 5.5 4.11929 5.5 5.5C5.5 6.88071 6.61929 8 8 8Z" fill="#333333"/>
<path d="M3.15608 11.7634C3.31628 11.1341 3.59576 10.5524 3.96908 10.0439C3.81728 10.0151 3.66061 10 3.50043 10C2.50596 10 1.64711 10.5807 1.24442 11.4214C1.10787 11.7065 1.34602 12 1.66213 12H3.1106C3.12054 11.9228 3.13558 11.8439 3.15608 11.7634Z" fill="#333333"/>
<path d="M12.8474 11.7634C12.8679 11.8439 12.8829 11.9228 12.8929 12H14.3387C14.6548 12 14.893 11.7065 14.7564 11.4214C14.3538 10.5807 13.4949 10 12.5004 10C12.3411 10 12.1852 10.0149 12.0341 10.0434C12.4076 10.5521 12.6871 11.1339 12.8474 11.7634Z" fill="#333333"/>
<path d="M14 7.5C14 8.32843 13.3284 9 12.5 9C11.6716 9 11 8.32843 11 7.5C11 6.67157 11.6716 6 12.5 6C13.3284 6 14 6.67157 14 7.5Z" fill="#333333"/>
<path d="M3.5 9C4.32843 9 5 8.32843 5 7.5C5 6.67157 4.32843 6 3.5 6C2.67157 6 2 6.67157 2 7.5C2 8.32843 2.67157 9 3.5 9Z" fill="#333333"/>
<path d="M5.00032 13C4.44804 13 3.9875 12.5453 4.12375 12.0101C4.56427 10.2798 6.13284 9 8.00033 9C9.86781 9 11.4364 10.2798 11.8769 12.0101C12.0132 12.5453 11.5526 13 11.0003 13H5.00032Z" fill="#333333"/>
</svg>
