<svg width="16" height="16" viewBox="0 0 16 16" fill="none" xmlns="http://www.w3.org/2000/svg">
<path d="M5.28033 4.21967C4.98744 3.92678 4.51256 3.92678 4.21967 4.21967C3.92678 4.51256 3.92678 4.98744 4.21967 5.28033L6.93934 8L4.21967 10.7197C3.92678 11.0126 3.92678 11.4874 4.21967 11.7803C4.51256 12.0732 4.98744 12.0732 5.28033 11.7803L8 9.06066L10.7197 11.7803C11.0126 12.0732 11.4874 12.0732 11.7803 11.7803C12.0732 11.4874 12.0732 11.0126 11.7803 10.7197L9.06066 8L11.7803 5.28033C12.0732 4.98744 12.0732 4.51256 11.7803 4.21967C11.4874 3.92678 11.0126 3.92678 10.7197 4.21967L8 6.93934L5.28033 4.21967Z" fill="#0F172A"/>
</svg>
