<svg xmlns="http://www.w3.org/2000/svg" fill="none" viewBox="0 0 24 24" stroke-width="1.5" stroke="currentColor" aria-hidden="true" data-slot="icon">
  <path stroke-linecap="round" stroke-linejoin="round" d="M11.704 11c.762 1.167 2.745 3.5 4.576 3.5 1.83 0 4.004-2.167 4.576-3V8s-1.983 3-3.432 3c-.735 0-1.607-1.24-2.288-2m0 0c-.662-.74-1.144-1.5-1.144-1.5M15.136 9c.381-.823.458-1.5 2.288-1.5 1.716 0 2.86-1 2.86-2 0-1.203-1.716-.5-1.716-1.5 0-.597-1.716-1-1.716-1-.608-.243-1.255-.866-1.716-1v1.5c-1.525.167-5.775.93-8.285 4-2.86 3.5-4.3 5.5-3.727 8 .457 2 2.474 2 2.474 2L4.84 22h6.297a2.806 2.806 0 0 0-.194-.682M22 2v20m-10.573-7c.233 2.4-2.11 3.833-2.97 4.5.984 0 2.217 1.184 2.486 1.818M11.427 15c.784.901 1.194 3.388 1.035 4.5 1.147 0 2.636 1.212 2.679 1.818h-4.198M11.427 15c.711-1.34 1.035-3 1.035-3"/>
</svg>
