<svg xmlns="http://www.w3.org/2000/svg" fill="none" viewBox="0 0 24 24" stroke-width="1.5" stroke="currentColor" aria-hidden="true" data-slot="icon">
  <path stroke-linecap="round" stroke-linejoin="round" d="M19 21.5c-1 0-4.5-2-3-8C17.698 6.706 13 4 10 4c0 0-1.5-2-3-2v2.5l-5 6c.201.85.383 1.383 1 2s1.13.936 2 1c1.404.103 3-2 3-2 .473 0 1.136-.131 1.76-.5M6 21.5c-.5-1.167-1-4 1-6 2.126-2.126 2.76-3 2.76-4.5m0 0c.914-.542 1.74-1.596 1.74-3.5M9 2.5c3.5-1.5 14 1 7.5 17m-5.375-2c-1.5 1-1.5 3.5 0 4.5M4 11l.5-.5m14.5-4h-1m1.5 2h-1m1.5 2h-1m1 2h-1.5m1 2h-1m.5 2h-1m0-12h-1m-.5-2h-3m2.5 10h-1.5m1 2h-2m-5-7c0 .5 0 .5-.5.5s-.5 0-.5-.5 0-.5.5-.5.5 0 .5.5Z"/>
</svg>
