<svg xmlns="http://www.w3.org/2000/svg" fill="none" viewBox="0 0 24 24" stroke-width="1.5" stroke="currentColor" aria-hidden="true" data-slot="icon">
  <path d="M6.12 13.37c.78 2.147 3.044 7.027 5.855 7.027 2.811 0 5.075-4.88 5.856-7.027m-10.54-2.343C7.485 8.685 8.46 4 9.632 4c1.171 0 1.171 1.171 2.342 1.171S13.146 4 14.318 4c.937 0 1.952 4.685 2.342 7.027-.78.39-2.81 1.171-4.685 1.171-1.874 0-3.904-.78-4.685-1.17Zm4.684-1.757c-3.498 0-7.612-3.513-9.37-1.756-1.756 1.756 0 7.027 9.37 7.027s11.127-5.27 9.37-7.027c-1.757-1.757-5.871 1.756-9.37 1.756Z"/>
</svg>
