<svg xmlns="http://www.w3.org/2000/svg" fill="none" viewBox="0 0 24 24" stroke-width="1.5" stroke="currentColor" aria-hidden="true" data-slot="icon">
  <path stroke-linecap="round" stroke-linejoin="round" d="M12.697 9.368c.713-.175 2.139 0 2.139 2.106h2.14V5.158c0-.526-.536-1.053-1.07-1.053-.535 0-1.07.527-1.07 1.053v1.579c0 1.052-2.14 1.052-2.14 0m3.93 4.737c.473.35 1.419 1.473 1.419 3.158m-1.419-3.158h-5m5 0h4.093c0 1.579 0 3.158-2.674 3.158m0 0c1.426 1.052 3.765 3.663 2.674 4.736-.487.48-.974.96-2.674-.152m-6.418-7.742c0 2.105 1.07 2.631 2.674 2.631m-2.674-2.631H6.813V22h4.666c1.475 0 1.14-2.02 1.518-3.495m0 0c.132-.518.353-.968.77-1.242 1.283-.842 2.86.927 3.743 1.58.19.14.368.264.535.373m-5.048-.711c.373.99 1.37 1.916 2.374 1.916s2.201-.453 2.674-1.205m-8.023-7.742c0-.527.214-2.632-1.07-2.632H4.14C3.07 8.842 2 8.316 2 7.263v-4.21C2 2.526 2.535 2 3.07 2c.534 0 1.07.526 1.07 1.053v2.631c0 .527.534 1.053 1.069 1.053.535 0 1.07-.526 1.07-1.053V3.58c0-.526.534-1.053 1.07-1.053.534 0 1.069.527 1.069 1.053v2.105c0 .527.535 1.053 1.07 1.053.534 0 1.07-.526 1.07-1.053V4.632c0-.527.534-1.053 1.069-1.053.535 0 1.07.526 1.07 1.053v6.842h-2.675Z"/>
</svg>
