<svg xmlns="http://www.w3.org/2000/svg" fill="none" viewBox="0 0 24 24" stroke-width="1.5" stroke="currentColor" aria-hidden="true" data-slot="icon">
  <path fill="#000" d="M7.009 10.11a1.335 1.335 0 0 0-1.003-1.594A1.321 1.321 0 0 0 4.43 9.53c-.159.719.29 1.432 1.002 1.592A1.321 1.321 0 0 0 7.01 10.11ZM17.235 20.41a1.18 1.18 0 0 0-.703-1.504 1.162 1.162 0 0 0-1.49.71 1.18 1.18 0 0 0 .704 1.505c.606.22 1.272-.1 1.49-.71ZM5.33 20.823a1.17 1.17 0 0 0-1.165-1.176A1.17 1.17 0 0 0 3 20.824C3 21.473 3.522 22 4.165 22a1.17 1.17 0 0 0 1.165-1.177ZM9.99 20.823a1.17 1.17 0 0 0-1.165-1.176 1.17 1.17 0 0 0-1.165 1.177c0 .65.521 1.176 1.165 1.176a1.17 1.17 0 0 0 1.165-1.177ZM16.036 10.34c-.166-.627-.805-1-1.426-.831-.622.168-.99.813-.824 1.44.166.628.805 1 1.427.833.621-.168.99-.814.823-1.441ZM20.537 9.123c-.166-.628-.805-1-1.427-.832-.621.168-.99.813-.823 1.44.166.628.805 1 1.427.833.62-.168.99-.814.823-1.441Z"/>
  <path stroke-linecap="round" stroke-linejoin="round" d="M7.009 10.11a1.335 1.335 0 0 0-1.003-1.594A1.321 1.321 0 0 0 4.43 9.53c-.159.719.29 1.432 1.002 1.592A1.321 1.321 0 0 0 7.01 10.11Zm0 0 1.725-7.816 2.004 3.186m6.497 14.93a1.18 1.18 0 0 0-.703-1.504 1.162 1.162 0 0 0-1.49.71 1.18 1.18 0 0 0 .704 1.505c.606.22 1.272-.1 1.49-.71Zm0 0 2.357-6.645L21 16.773m-15.67 4.05a1.17 1.17 0 0 0-1.165-1.176A1.17 1.17 0 0 0 3 20.824C3 21.473 3.522 22 4.165 22a1.17 1.17 0 0 0 1.165-1.177Zm0 0 1.165-7.058h4.66L9.99 20.823m0 0a1.17 1.17 0 0 0-1.165-1.176 1.17 1.17 0 0 0-1.165 1.177c0 .65.521 1.176 1.165 1.176a1.17 1.17 0 0 0 1.165-1.177Zm6.046-10.482c-.166-.628-.805-1-1.426-.832-.622.168-.99.813-.824 1.44.166.628.805 1 1.427.833.621-.168.99-.814.823-1.441Zm0 0-.684-7.123L19.854 2l.684 7.123m0 0c-.166-.628-.805-1-1.427-.832-.621.168-.99.813-.823 1.44.166.628.805 1 1.427.833.62-.168.99-.814.823-1.441Z"/>
</svg>
