<svg xmlns="http://www.w3.org/2000/svg" fill="none" viewBox="0 0 24 24" stroke-width="1.5" stroke="currentColor" aria-hidden="true" data-slot="icon">
  <path stroke-linecap="round" stroke-linejoin="round" d="M22 19v3H2v-3h20Zm0 0c-.833-1.167-3.7-3.5-8.5-3.5-5 0-8.333 2.333-9.5 3.5m18 0v-3.5L4.5 5.5m0 13.5v3M7 19v3m2.5-3v3m2.5-3v3m2.5-3v3m2.5-3v3m2.5-3v3M4.5 5.5c-1 .5-1 3.5 0 4l10 6m-10-10c-.333-1-.6-3 1-3L13 7c0 .333.2 1.1 1 1.5.8.4 4.667 2.833 6.5 4l1 2.5M4 9.5c-.333.5-.7 1.7.5 2.5s4.167 2.85 5.5 3.774M4.5 12.5v6"/>
</svg>
