<svg xmlns="http://www.w3.org/2000/svg" fill="none" viewBox="0 0 24 24" stroke-width="1.5" stroke="currentColor" aria-hidden="true" data-slot="icon">
  <path stroke-linecap="round" stroke-linejoin="round" d="M13.885 12.896v.543m2.161 0v.543m2.161-.543v.543m2.161-.543v.543m-5.402 2.172v-.543m2.16.543v-.543M5.783 6.924c-1.08 1.086-1.08 2.715 0 4.343m9.184-1.628c.72 0 2.377.217 3.241 1.086M3.08 12.708c-.496-.311-.841-.658-1.08-.898 2.161-1.628.675-3.257 1.08-4.343 1.297-3.475 4.503-2.533 5.943-1.629 2.161-1.085 5.403 1.63 8.644 2.172 3.242.543 5.403 2.715 3.782 4.886-4.862 1.086-9.184-1.086-10.805-1.086-.775 0-1.303.373-1.939.762m-5.625.136c.627.393 1.496.731 2.702.731 1.409 0 2.23-.443 2.923-.867m-5.625.136c0 1.692.649 5.074 3.242 5.074 2.161 0 3.241-.543 6.483.543 4.862 1.63 6.483 0 6.483-1.628-.54.362-2.161.868-4.322 0-3.487-1.402-6.039-3.907-6.26-4.125m-.763-5.105c.54 0 3.241 1.086 3.241 1.629 0 .543-2.701 1.629-3.241 1.629s-.54-3.258 0-3.258Z"/>
</svg>
