<svg xmlns="http://www.w3.org/2000/svg" fill="none" viewBox="0 0 24 24" stroke-width="1.5" stroke="currentColor" aria-hidden="true" data-slot="icon">
  <path stroke-linecap="round" stroke-linejoin="round" d="M6 21h16M6 21H3m3 0V9.5H3V21m-1 0h1m3-9.5h12M6 19h12M3 7.5V5h5c.333-1 1.6-3 4-3s3.667 2 4 3h5v2.5M7 19v-4c0-.667.4-2 2-2s2 1.333 2 2v4m2 0v-4c0-.667.4-2 2-2s2 1.333 2 2v4m4 2V9.5h-3V21h3ZM17 9.5v-2h5v2h-5Zm-15 0v-2h5v2H2Zm10-5c1.5 0 2.5 1 2.5 2.5s-1 2.5-2.5 2.5-2.5-1-2.5-2.5 1-2.5 2.5-2.5Z"/>
</svg>
