<svg xmlns="http://www.w3.org/2000/svg" fill="none" viewBox="0 0 24 24" stroke-width="1.5" stroke="currentColor" aria-hidden="true" data-slot="icon">
  <path stroke-linecap="round" stroke-linejoin="round" d="M12 5c-1.403 0-2.71.413-3.805 1.124M12 5a6.99 6.99 0 0 1 2.322.394M12 5c0 2.096-.39 3.898-.97 5.421M6 3l2.195 3.124M19 21.5l-2.76-3.929M2.5 7l3.341 1.67M21.5 16.5l-3.14-1.57M5.84 8.67c-.25.464-.451.958-.593 1.477m.593-1.476A6.996 6.996 0 0 1 7.5 6.638m.695-.514c-.242.157-.475.329-.695.514m8.74 10.933A6.973 6.973 0 0 1 12 19a7.01 7.01 0 0 1-1.716-.212m5.955-1.217c.327-.25.631-.526.91-.828m1.21-1.813a7.01 7.01 0 0 1-1.21 1.813m1.21-1.813a6.941 6.941 0 0 0 .57-1.93M6.638 16.5c.447.532.972.997 1.557 1.377M6.638 16.5A6.969 6.969 0 0 1 5 12c0-.641.086-1.263.248-1.853m1.39 6.353a14.923 14.923 0 0 0 2.316-2.39m-.76 3.767c.634.41 1.338.722 2.09.911m-2.09-.912c2.043-1.638 6.128-6.429 6.128-12.482m0 0A6.984 6.984 0 0 1 16.24 6.43m-5.955 12.359c.692-.721 1.64-1.553 2.577-2.687m3.378-9.672A6.99 6.99 0 0 1 18.93 13m-2.69-6.571c-.076 2.412-.516 4.341-1.14 5.914m-9.851-2.196a15.023 15.023 0 0 0 3.706 3.963m8.194 2.633c-1.598 0-3.023-.243-4.287-.642M7.5 6.638c.479.982 1.631 2.483 3.53 3.783M18.93 13a16.886 16.886 0 0 1-3.832-.657M11.03 10.42c-.25.654-.534 1.257-.84 1.81-.39.707-.812 1.333-1.235 1.88m6.144-1.768c-.263.663-.56 1.263-.876 1.81-.429.74-.893 1.381-1.361 1.948"/>
  <circle cx="6.25" cy="3.25" r="1.25" fill="#000"/>
  <path fill="#000" d="M3.5 7A1.25 1.25 0 1 1 1 7a1.25 1.25 0 0 1 2.5 0Z"/>
</svg>
