<svg xmlns="http://www.w3.org/2000/svg" fill="none" viewBox="0 0 24 24" stroke-width="1.5" stroke="currentColor" aria-hidden="true" data-slot="icon">
  <path stroke-linecap="round" stroke-linejoin="round" d="M21 18c-1.969 0-2.531-1.5-4.5-1.5-1.969 0-2.813 1.5-4.5 1.5-1.969 0-2.531-1.5-4.5-1.5C5.531 16.5 4.687 18 3 18m18 3c-1.969 0-2.531-1.5-4.5-1.5-1.969 0-2.813 1.5-4.5 1.5-1.969 0-2.531-1.5-4.5-1.5C5.531 19.5 4.687 21 3 21M13.5 15.5s-.136-1.41.5-3c1.2-3 5-1 7.5-8.5-3 2-5.5-.5-9.5 3-3.5-3-6-1-9-4 .167 2 1.5 6 6.5 8.5 1.265.632.5 2.5 0 3.5"/>
</svg>
