<svg xmlns="http://www.w3.org/2000/svg" fill="none" viewBox="0 0 24 24" stroke-width="1.5" stroke="currentColor" aria-hidden="true" data-slot="icon">
  <path stroke-linecap="round" stroke-linejoin="round" d="M21 18c-1.969 0-2.531-1.5-4.5-1.5-1.969 0-2.813 1.5-4.5 1.5-1.969 0-2.531-1.5-4.5-1.5C5.531 16.5 4.687 18 3 18m18 3c-1.969 0-2.531-1.5-4.5-1.5-1.969 0-2.813 1.5-4.5 1.5-1.969 0-2.531-1.5-4.5-1.5C5.531 19.5 4.687 21 3 21M15 4.5s-2.5 4.969-2 8.469A9.242 9.242 0 0 1 15 13m0-8.5S16 9 15 13m0-8.5c.5-1-.5-2.246-3-1.531-3.5 1-6.5 6-8 12.5M15 13c1.7.197 3.875 1.344 5.5 2.969m-9-10c-.5-.5-3.5 3-3 5.5.62 3.1 4-5.5 3-5.5Z"/>
</svg>
