<svg xmlns="http://www.w3.org/2000/svg" fill="none" viewBox="0 0 24 24" stroke-width="1.5" stroke="currentColor" aria-hidden="true" data-slot="icon">
  <path fill="#000" d="M2.5 21.5h-.75c0 .414.336.75.75.75v-.75Zm0-2-.206-.721a.75.75 0 0 0-.544.721h.75ZM10 9l-.702-.263A.75.75 0 0 0 9.25 9H10Zm11.5 12.5v.75a.75.75 0 0 0 .75-.75h-.75Zm0-2h.75a.75.75 0 0 0-.544-.721l-.206.721ZM14 9h.75a.75.75 0 0 0-.048-.263L14 9Zm-1.25-7a.75.75 0 0 0-1.5 0h1.5Zm-2.25.75a.75.75 0 0 0 0 1.5v-1.5Zm3 1.5a.75.75 0 0 0 0-1.5v1.5ZM5 18.376l-.398-.636.398.636Zm11.5-1.99.566-.493-.566.492ZM3.25 21.5v-2h-1.5v2h1.5Zm19 0v-2h-1.5v2h1.5ZM10 9l.702.263.001-.002.003-.008.012-.032a41.723 41.723 0 0 1 .222-.57c.146-.37.346-.861.56-1.35.216-.494.438-.967.63-1.308.098-.175.173-.288.223-.348.025-.031.024-.024-.003-.003-.015.01-.14.108-.35.108v-1.5a.926.926 0 0 0-.56.198c-.104.08-.188.173-.252.25a4.082 4.082 0 0 0-.365.56c-.23.408-.476.935-.698 1.441a43.773 43.773 0 0 0-.827 2.037L10 9Zm2-3.25c-.21 0-.335-.098-.35-.109-.027-.02-.028-.027-.003.004.05.06.125.173.223.348.192.341.414.814.63 1.308a42.583 42.583 0 0 1 .782 1.92l.012.032a.242.242 0 0 0 .003.008v.002L14 9l.702-.263v-.001l-.001-.003-.004-.01-.013-.034-.05-.13a46.208 46.208 0 0 0-.76-1.86 17.048 17.048 0 0 0-.697-1.442c-.113-.2-.237-.4-.365-.558a1.512 1.512 0 0 0-.253-.25A.926.926 0 0 0 12 4.25v1.5Zm.75-.75V3.5h-1.5V5h1.5Zm0-1.5V2h-1.5v1.5h1.5Zm-2.25.75H12v-1.5h-1.5v1.5Zm1.5 0h1.5v-1.5H12v1.5ZM9.25 9v12.5h1.5V9h-1.5ZM10 22.25h4v-1.5h-4v1.5ZM13.25 9v12.5h1.5V9h-1.5ZM2.5 22.25H5v-1.5H2.5v1.5Zm.206-2.029c.895-.255 1.812-.66 2.692-1.21l-.796-1.271a9.12 9.12 0 0 1-2.308 1.039l.412 1.442ZM5.75 21.5v-3.124h-1.5V21.5h1.5Zm-.75.75h2.5v-1.5H5v1.5Zm2.5 0H10v-1.5H7.5v1.5Zm-2.102-3.238a11.33 11.33 0 0 0 2.677-2.33l-1.15-.963a9.83 9.83 0 0 1-2.323 2.02l.796 1.273Zm2.677-2.33C9.656 14.793 10.75 12.223 10.75 9h-1.5c0 2.863-.965 5.094-2.325 6.719l1.15.963ZM8.25 21.5v-5.3h-1.5v5.3h1.5Zm10.75.75h2.5v-1.5H19v1.5Zm2.706-3.471c-.77-.22-1.565-.544-2.329-.988l-.754 1.297c.88.511 1.791.882 2.671 1.133l.412-1.442ZM19.75 21.5v-3.06h-1.5v3.06h1.5Zm-5.75.75h2.5v-1.5H14v1.5Zm2.5 0H19v-1.5h-2.5v1.5Zm2.877-4.459a9.13 9.13 0 0 1-2.311-1.898l-1.132.984a10.63 10.63 0 0 0 2.689 2.21l.754-1.296Zm-2.311-1.898C15.722 14.347 14.75 12.129 14.75 9h-1.5c0 3.465 1.086 6.04 2.684 7.877l1.132-.984Zm.184 5.607v-5.115h-1.5V21.5h1.5Z"/>
</svg>
