<svg xmlns="http://www.w3.org/2000/svg" fill="none" viewBox="0 0 24 24" stroke-width="1.5" stroke="currentColor" aria-hidden="true" data-slot="icon">
  <path stroke-linecap="round" stroke-linejoin="round" d="M2 22.284c1.188 0 1.781-1.2 3.167-1.2 1.385 0 1.781 1.2 3.166 1.2 1.188 0 1.782-1.2 3.167-1.2 1.386 0 1.781 1.2 3.167 1.2 1.187 0 1.781-1.2 3.166-1.2 1.386 0 1.782 1.2 3.167 1.2M2 19.097c1.188 0 1.781-1.2 3.167-1.2 1.385 0 1.78 1.2 3.166 1.2 1.188 0 1.782-1.2 3.167-1.2 1.385 0 1.781 1.2 3.167 1.2 1.187 0 1.78-1.2 3.166-1.2s1.782 1.2 3.167 1.2m-8.5-.958v-2.984m0 0v-3.258m0 3.258h5.4m-1.8-6.258C16.1 7.849 15.294 7 14.3 7s-1.8.85-1.8 1.897v3m5.4 6v-2.742m0 0v-3.258m3.6-3C21.5 7.849 20.694 7 19.7 7s-1.8.85-1.8 1.897v3m0 0h-5.4"/>
  <circle cx="6" cy="11" r="1" fill="#000"/>
  <path stroke-linejoin="round" d="M6 13a2 2 0 0 0 1.5-3.323V4.5a1.5 1.5 0 1 0-3 0v5.177c-.35.36-.5.78-.5 1.323a2 2 0 0 0 2 2Z"/>
  <path stroke-linecap="round" stroke-linejoin="round" d="M6 11V4.5"/>
</svg>
