<svg xmlns="http://www.w3.org/2000/svg" fill="none" viewBox="0 0 24 24" stroke-width="1.5" stroke="currentColor" aria-hidden="true" data-slot="icon">
  <path stroke-linecap="round" stroke-linejoin="round" d="M13.5 6.5 2.5 16l11-4c1.5-.5 3.5-3.5 0-5.5Zm0 0c1-1 2.5-2.5 5-1 .667.333 2 .5 3.5 2-.667 0-2.5 0-3.5.5-.5 4-3.167 6.04-4.5 6.56M10 15l-4.5 4.5h-3l5-4.875L10 15Zm0 0a9.43 9.43 0 0 0 1.5.072m2.5-.512c0 .813.3 2.64 1.5 3.44M14 14.56a7.336 7.336 0 0 1-2.5.512m0 0c.333.643 1.2 2.128 2 2.928m-2 0H17"/>
</svg>
