<svg xmlns="http://www.w3.org/2000/svg" fill="none" viewBox="0 0 24 24" stroke-width="1.5" stroke="currentColor" aria-hidden="true" data-slot="icon">
  <path stroke-linecap="round" stroke-linejoin="round" d="M21.5 3h-3.94c-.678 0-1.33.27-1.81.75M15 8.094V5.56c0-.68.27-1.33.75-1.811M15 8.094A2 2 0 0 0 14.394 8h-4.288a2 2 0 0 0-.606.094m5.5 0c.178.056.347.137.504.242l.105.07a2 2 0 0 1 .891 1.664v4.031M15.75 3.75h-7M3 3h3.94c.678 0 1.33.27 1.81.75m.75 4.344V5.56c0-.68-.27-1.33-.75-1.811m.75 4.344a2 2 0 0 0-.504.242l-.105.07A2 2 0 0 0 8 10.07v4.031m0 0a2.15 2.15 0 0 0-1.5 2.05V21M8 14.101c.21-.067.43-.101.651-.101h7.198c.222 0 .442.034.651.101m0 0a2.15 2.15 0 0 1 1.5 2.05V21M6.5 21h-4m4 0H18m0 0h3.5m-10-13V6m-1 2v2.5m0 2V14m3.5 0v-3.5M9 14v3.5m0 2V21m6.5-4v4M13 14v3"/>
</svg>
