<svg xmlns="http://www.w3.org/2000/svg" fill="none" viewBox="0 0 24 24" stroke-width="1.5" stroke="currentColor" aria-hidden="true" data-slot="icon">
  <path fill="#000" d="M2.5 4.25a.75.75 0 0 0 0 1.5v-1.5Zm19 7.75v.75a.75.75 0 0 0 .75-.75h-.75ZM3.75 3.5a.75.75 0 0 0-1.5 0h1.5Zm2.5-1a.75.75 0 0 0-1.5 0h1.5Zm2.5 1a.75.75 0 0 0-1.5 0h1.5Zm6 5a.75.75 0 0 0-1.5 0h1.5ZM13.25 6a.75.75 0 0 0 1.5 0h-1.5Zm1.5-1.5a.75.75 0 0 0-1.5 0h1.5Zm2.5 5a.75.75 0 0 0-1.5 0h1.5ZM15.75 7a.75.75 0 0 0 1.5 0h-1.5Zm1.5-1.5a.75.75 0 0 0-1.5 0h1.5Zm2.5 2a.75.75 0 0 0-1.5 0h1.5Zm2.5 2a.75.75 0 0 0-1.5 0h1.5ZM20.75 7a.75.75 0 0 0 1.5 0h-1.5Zm1.5-2a.75.75 0 0 0-1.5 0h1.5Zm-10 5.5a.75.75 0 0 0-1.5 0h1.5Zm-9.75 11-.624-.416A.75.75 0 0 0 2.5 22.25v-.75Zm3.11-4.664-.625-.416.624.416ZM21.5 21.5v.75a.75.75 0 0 0 .636-1.148l-.636.398Zm-1.913-3.06.637-.398-.637.398Zm-4.675-.006.634.4-.634-.4Zm-.465.737-.624.416.624-.416Zm-1.556-2.335-.624.416.624-.416ZM11.25 6.75c0 .461-.462 1-1.25 1v1.5c1.422 0 2.75-1.028 2.75-2.5h-1.5Zm-1.25-1c.788 0 1.25.539 1.25 1h1.5c0-1.472-1.328-2.5-2.75-2.5v1.5Zm-1.25 4.5c0-.461.462-1 1.25-1v-1.5c-1.422 0-2.75 1.028-2.75 2.5h1.5Zm1.25 1c-.788 0-1.25-.539-1.25-1h-1.5c0 1.472 1.328 2.5 2.75 2.5v-1.5Zm0-7H8v1.5h2v-1.5Zm-2 0H5.5v1.5H8v-1.5Zm-2.5 0H3v1.5h2.5v-1.5Zm-2.5 0h-.5v1.5H3v-1.5Zm7 8.5h1.5v-1.5H10v1.5Zm1.5 0H14v-1.5h-2.5v1.5Zm2.5 0h2.5v-1.5H14v1.5Zm2.5 0H19v-1.5h-2.5v1.5Zm2.5 0h2.5v-1.5H19v1.5ZM3.75 5V3.5h-1.5V5h1.5Zm2.5 0V2.5h-1.5V5h1.5Zm2.5 0V3.5h-1.5V5h1.5Zm6 7V8.5h-1.5V12h1.5Zm0-6V4.5h-1.5V6h1.5Zm2.5 6V9.5h-1.5V12h1.5Zm0-5V5.5h-1.5V7h1.5Zm2.5 5V7.5h-1.5V12h1.5Zm2.5 0V9.5h-1.5V12h1.5Zm0-5V5h-1.5v2h1.5Zm-10 5v-1.5h-1.5V12h1.5Zm-9.126 9.916 3.11-4.664-1.249-.832-3.109 4.664 1.248.832Zm4.982-5.666h2.289v-1.5h-2.29v1.5Zm-5.606 6H16v-1.5H2.5v1.5Zm13.5 0h5.5v-1.5H16v1.5Zm.604-4h1.288v-1.5h-1.288v1.5Zm2.348.587 1.912 3.06 1.272-.794-1.912-3.06-1.273.794Zm-4.675-.803-.464.737 1.269.8.464-.737-1.269-.8Zm-2.01-.782 1.556 2.335 1.248-.832-1.556-2.335-1.248.832Zm1.556 2.335 1.553 2.329 1.248-.832-1.552-2.329-1.249.832Zm2.781-2.837a2.75 2.75 0 0 0-2.327 1.284l1.27.8a1.25 1.25 0 0 1 1.057-.584v-1.5Zm-6.21-.5a2.25 2.25 0 0 1 1.873 1.002l1.248-.832a3.75 3.75 0 0 0-3.12-1.67v1.5Zm7.498 2c.43 0 .831.222 1.06.587l1.271-.794a2.75 2.75 0 0 0-2.331-1.293v1.5Zm-11.659-.998a2.25 2.25 0 0 1 1.873-1.002v-1.5a3.75 3.75 0 0 0-3.12 1.67l1.247.832Z"/>
</svg>
