<svg xmlns="http://www.w3.org/2000/svg" fill="none" viewBox="0 0 24 24" stroke-width="1.5" stroke="currentColor" aria-hidden="true" data-slot="icon">
  <path stroke-linecap="round" stroke-linejoin="round" d="M18.766 19.5c.42-1.036.03-2.04-.766-2.5-7.6-4.4-9.5-7.5-12-11-.65-.91-1.734-1.232-2.765-.645M18.766 19.5a2.784 2.784 0 0 1-.266.5c-.8 1.2-2.186.805-3 .5-2.667-1-8.6-4.3-13-11.5-.348-.57-1-2.5.5-3.5.08-.053.157-.101.235-.145M18.766 19.5c.745.167 2.212.065 2.734-1.5.757-2.27-.458-2.985-.5-3a4.81 4.81 0 0 1-.132-.05M3.235 5.354C2.99 4.903 2.8 3.8 4 3s2.9-.75 3.5 0l.403.5m0 0c.533-.452 1.644-.953 2.597 0C12 5 16 10 20 12c.578.3 1.562 1.31.868 2.95M7.903 3.5c6.071 7.46 11.062 10.694 12.965 11.45"/>
  <path stroke-dasharray=".5 1.5" stroke-linecap="round" stroke-linejoin="round" d="M19.23 16.342c-.144-.3-.237-.896-.896-1.345-1.056-.718-1.538-.08-2.24-.718-.819-.745-.775-1.311-1.594-2.057-.818-.745-1.737-.44-2.438-1.08-.819-.744-.485-1.581-1.304-2.326-.818-.745-1.592-.65-2.123-1.435-.606-.896-.235-1.495-1.054-2.24-.366-.334-.802-.474-1.235-.585"/>
</svg>
