<svg xmlns="http://www.w3.org/2000/svg" fill="none" viewBox="0 0 24 24" stroke-width="1.5" stroke="currentColor" aria-hidden="true" data-slot="icon">
  <path stroke-linecap="round" stroke-linejoin="round" d="M17 9.5c2.4 5.2-1.333 7.833-3.5 8.5h-2.699M17 9.5c.667.167 2.6.1 5-1.5m-5 1.5c.735-.736 1.006-1.64 1.035-2.5M17 9.5c-.943 0-2.33 1.333-3.324 4M3.5 17c-1.174-1-1-2-1-2 1 .5 1.82.367 2.708-.078M3.5 17c.551.55 1.376 1 2 1h5.301M3.5 17h4c2 0 4.94.182 6-3 .057-.172.116-.338.176-.5M22 8c-.333-1-1.7-3.1-4.5-3.5M22 8a17.1 17.1 0 0 0-2.134-.701C18.97 7.07 18.326 7 18.036 7M17.5 4.5c.27.54.57 1.49.535 2.5M17.5 4.5c-1.5-1.5-5-1.294-5 1.5 0 1.6.5 2-.5 3-1.5 1.167-4.3 3.8-5.5 5-.4.4-.847.7-1.292.922m0 0c2.382.192 7.01.178 8.468-1.422M10.801 18v2.819c.733.227 2.599.581 4.199.181"/>
  <path fill="#000" d="M16.75 6.25a.75.75 0 1 1-1.5 0 .75.75 0 0 1 1.5 0Z"/>
  <path stroke-linecap="round" stroke-linejoin="round" d="M16 6.5c-.333.167-2.2.5-3 .5"/>
</svg>
