<svg xmlns="http://www.w3.org/2000/svg" fill="none" viewBox="0 0 24 24" stroke-width="1.5" stroke="currentColor" aria-hidden="true" data-slot="icon">
  <path stroke-linecap="round" stroke-linejoin="round" d="M21.5 21.5H16l-1.553-2.329.465-.737a2 2 0 0 1 1.692-.934h1.288a2 2 0 0 1 1.695.94L21.5 21.5Z"/>
  <path stroke-linecap="round" stroke-linejoin="round" d="M5.61 16.836 2.5 21.5H16l-3.11-4.664a3 3 0 0 0-2.496-1.336H8.106a3 3 0 0 0-2.497 1.336Z"/>
  <path stroke-linecap="round" d="M2.5 5H10c1.105 0 2 .784 2 1.75s-.895 1.75-2 1.75-2 .784-2 1.75S8.895 12 10 12h11.5"/>
  <path stroke-linecap="round" stroke-linejoin="round" d="M8 5V3.5M5.5 5V2.5M3 5V3.5m8.5 8.5v-1.5M14 12V8.5m2.5 3.5V9.5M19 12V7.5m2.5 4.5V9.5M14 6V4.5M16.5 7V5.5m5 1.5V5"/>
</svg>
