<svg xmlns="http://www.w3.org/2000/svg" fill="none" viewBox="0 0 24 24" stroke-width="1.5" stroke="currentColor" aria-hidden="true" data-slot="icon">
  <path stroke-linecap="round" stroke-linejoin="round" d="M2.5 21.5c.667.022 2.3-.29 3.5-1.717 1.396-1.66 2.359-.477 4.5-.908m11 2.625c-2.5-1-1-1-3-2-1.523-.762-1.306-.799-2-1.104m0 0a20.094 20.094 0 0 0-1-.396c-1.247-.467-1.717-.352-2.5-.017m3.5.413c.667-.299 2-1.196 2-2.396.833-.5 2-2 0-4 .148-.668.204-1.634-.062-2.5m-3.938-7c1.6 1.2.667 2.5 0 3 .8.4 1 1.5 1 2 1.774 0 2.606.922 2.938 2m0 0c1.02-.167 2.962-1 2.562-3 .52-.833 1.15-2.8-.5-4m-10 16.375c.16-.033.326-.074.5-.126.94-.282 1.527-.564 2-.766m-2.5.892C10 18.416 9.2 17.1 10 15.5c-.4-.2-.932-.7-1.034-1.5-.656.333-2.166.66-2.966-.94M7.223 12c-.574.833-2.123 2.1-3.723.5-1.6-1.6-.667-3.333 0-4a3.56 3.56 0 0 1-.5-.309M2.5 5.5c-.312.935-.131 2.23.5 2.691m0 0c.5-.23 1.5-.891 1.5-1.691C6 6.5 6.74 5 6.5 4m-1 5.5c1 .5 3.5.5 4-1.5 1 .191 2.777-2 1.5-3.5m.224 7.06a3.23 3.23 0 0 1 2-.083M15 13.06c-.453-.925-1.113-1.387-1.776-1.583m0 0c.184-.472.797-1.417 1.776-1.417m3.5-3.56c.333-.642.6-2.183-1-3.213M13 17.983c-.47-.66-.965-2.183 0-2.983"/>
  <path fill="#000" d="M5 15.5a.75.75 0 1 1-1.5 0 .75.75 0 0 1 1.5 0ZM8 16.5a.75.75 0 1 1-1.5 0 .75.75 0 0 1 1.5 0ZM22.5 15.75a.75.75 0 1 1-1.5 0 .75.75 0 0 1 1.5 0ZM21.5 11a.75.75 0 1 1-1.5 0 .75.75 0 0 1 1.5 0Z"/>
</svg>
