<svg xmlns="http://www.w3.org/2000/svg" fill="none" viewBox="0 0 25 24" stroke-width="1.5" stroke="currentColor" aria-hidden="true" data-slot="icon">
  <circle cx="21.75" cy="19.516" r=".75" fill="#000"/>
  <circle cx=".75" cy=".75" r=".75" fill="#000" transform="matrix(-1 0 0 1 7.5 18.766)"/>
  <circle cx="19.75" cy="17.516" r=".75" fill="#000"/>
  <circle cx=".75" cy=".75" r=".75" fill="#000" transform="matrix(-1 0 0 1 9.5 16.766)"/>
  <path stroke-linecap="round" stroke-linejoin="round" d="M4.5 2.5s.66.5 2 .5c2 0 2.175-.442 3.5 0 1.325.442 1.938 2.172 1.938 2.172m4.246.098c1-.5 2.916-2.17 7.316-1.77m-12 8V6a1 1 0 0 1 1-1h3a1 1 0 0 1 1 1v6.22c0 .65.617 1.152 1.25 1 .794-.19 1.796-.477 2.75-.954 1-.5 1.5.5 3 .5m-12 6.734v-5.734c-.167.167-1 .5-3 .5m3 5.234C10 19 9.167 20.5 9 21m2.5-1.5c.5-1 2-1 2.5-.5.667-.5 2-.5 2.5.5m0-3.5v3.5m0 0c1 0 2.1.3 2.5 1.5M14 7.5v2m0 2.5v4m-9.5.266c.667-.667 2-2 4-2m0 0C7 12.266 7 11.5 4.5 12m19 9.672h-19"/>
</svg>
