<svg xmlns="http://www.w3.org/2000/svg" fill="none" viewBox="0 0 24 24" stroke-width="1.5" stroke="currentColor" aria-hidden="true" data-slot="icon">
  <g clip-path="url(#a)">
    <path stroke-linecap="round" stroke-linejoin="round" d="M20.842 12H22.5m-1.658 0A8.842 8.842 0 0 1 12 20.842M20.842 12A8.842 8.842 0 0 0 12 3.158m0 17.684V22.5m0-1.658A8.842 8.842 0 0 1 3.158 12M12 3.158V1.5m0 1.658A8.842 8.842 0 0 0 3.158 12m0 0H1.5m18.157 4.421 1.915 1.105M7.576 19.657l-1.102 1.915M16.42 4.34l1.105-1.913M4.341 7.578 2.428 6.475m13.993 13.183 1.105 1.915m-13.185-5.15-1.913 1.104m17.23-9.95 1.914-1.102M7.576 4.343 6.474 2.428M8.85 12H9.9m0 0h1.35M9.9 12v-1.575M9.9 12l.787 1.575M11.25 12h1.242m-1.242 0-1.012-1.575M11.25 12v-1.5l1.242 1.5m0 0H13.5m-1.008 0 .558-1.575M13.5 12h.6m-.6 0-.45-1.575M13.5 12l.45-1.575M14.1 12h1.05m-1.05 0-.787 1.575M14.1 12v-1.575M9.9 9.9c0-.35.21-1.05 1.05-1.05M9.9 9.9v.525m0-.525.338.525M13.05 8.85c1.05 0 1.05 1.05 1.05 1.05m0 0v.525m0-.525-.15.525m-4.05 0H8.85m1.05 0h.338m.712 3.675v.525m0-.525-.262-.525m.262.525v-.525m-.262 0H8.85m1.838 0h.262m2.1 0v.525m0-.525h-2.1m2.1 0h.262m-.262.525v.525m0-.525.262-.525m0 0h1.838m-1.05-3.15h-.15m.15 0h1.05m-4.912 0h2.812m0 2.625h-2.1v.525m2.1-3.15h.9M17.526 12a5.526 5.526 0 1 1-11.052 0 5.526 5.526 0 0 1 11.052 0Z"/>
  </g>
  <defs>
    <clipPath id="a">
      <path fill="#fff" d="M0 0h24v24H0z"/>
    </clipPath>
  </defs>
</svg>
