<svg xmlns="http://www.w3.org/2000/svg" fill="none" viewBox="0 0 24 24" stroke-width="1.5" stroke="currentColor" aria-hidden="true" data-slot="icon">
  <path fill="#000" d="M22 12.625a.625.625 0 1 0 0-1.25v1.25ZM11.375 22a.625.625 0 1 0 1.25 0h-1.25Zm1.25-20a.625.625 0 1 0-1.25 0h1.25ZM2 11.375a.625.625 0 1 0 0 1.25v-1.25Zm17.605 4.294a.625.625 0 1 0-.625 1.083l.625-1.083Zm1.198 2.135a.625.625 0 1 0 .625-1.082l-.625 1.082Zm-12.475 1.8a.625.625 0 1 0-1.083-.623l1.083.624Zm-2.133 1.2a.625.625 0 1 0 1.083.624l-1.083-.624ZM15.67 4.393a.625.625 0 0 0 1.083.625l-1.083-.625Zm2.135-1.196a.625.625 0 0 0-1.082-.626l1.082.626ZM4.393 8.33a.625.625 0 0 0 .625-1.083l-.625 1.083ZM3.197 6.196a.625.625 0 1 0-.626 1.082l.626-1.082ZM16.752 18.98a.625.625 0 1 0-1.083.625l1.083-.625Zm-.03 2.449a.625.625 0 0 0 1.082-.625l-1.082.625ZM5.018 16.752a.625.625 0 0 0-.625-1.083l.625 1.083Zm-2.447-.03a.625.625 0 0 0 .626 1.082l-.626-1.082Zm16.41-9.477a.625.625 0 1 0 .624 1.083l-.624-1.083Zm2.447.033a.625.625 0 1 0-.624-1.083l.624 1.083ZM7.245 5.02a.625.625 0 1 0 1.083-.624l-1.083.624Zm.033-2.447a.625.625 0 1 0-1.083.624l1.083-.624ZM9 11.375a.625.625 0 1 0 0 1.25v-1.25Zm6 1.25a.625.625 0 1 0 0-1.25v1.25Zm-4-3a.625.625 0 1 0 0-1.25v1.25Zm2-1.25a.625.625 0 1 0 0 1.25v-1.25ZM10.375 14.5a.625.625 0 1 0 1.25 0h-1.25Zm2 0a.625.625 0 1 0 1.25 0h-1.25Zm.625-.875a.625.625 0 1 0 0-1.25v1.25ZM11 13v-.625h-.625V13H11ZM9 9.875a.625.625 0 1 0 0 1.25v-1.25Zm6 1.25a.625.625 0 1 0 0-1.25v1.25Zm-6 1.75a.625.625 0 1 0 0 1.25v-1.25Zm6 1.25a.625.625 0 1 0 0-1.25v1.25Zm5.421-1.5H22v-1.25h-1.579v1.25Zm-9.046 7.796V22h1.25v-1.579h-1.25Zm1.25-16.842V2h-1.25v1.579h1.25Zm-9.046 7.796H2v1.25h1.579v-1.25ZM19.796 12A7.796 7.796 0 0 1 12 19.796v1.25A9.046 9.046 0 0 0 21.046 12h-1.25ZM12 19.796A7.796 7.796 0 0 1 4.204 12h-1.25A9.046 9.046 0 0 0 12 21.046v-1.25ZM4.204 12A7.796 7.796 0 0 1 12 4.204v-1.25A9.046 9.046 0 0 0 2.954 12h1.25ZM12 4.204A7.796 7.796 0 0 1 19.796 12h1.25A9.046 9.046 0 0 0 12 2.954v1.25ZM16.638 12A4.638 4.638 0 0 1 12 16.638v1.25A5.888 5.888 0 0 0 17.888 12h-1.25ZM12 16.638A4.638 4.638 0 0 1 7.362 12h-1.25A5.888 5.888 0 0 0 12 17.888v-1.25ZM7.362 12A4.638 4.638 0 0 1 12 7.362v-1.25A5.888 5.888 0 0 0 6.112 12h1.25ZM12 7.362A4.638 4.638 0 0 1 16.638 12h1.25A5.888 5.888 0 0 0 12 6.112v1.25Zm6.98 9.39 1.823 1.052.625-1.082-1.823-1.053-.625 1.083ZM7.245 18.98l-1.05 1.823 1.083.624 1.05-1.823-1.083-.624Zm9.507-13.963 1.052-1.821-1.082-.626-1.053 1.822 1.083.625ZM5.018 7.248 3.197 6.196 2.57 7.278l1.822 1.053.625-1.083ZM15.67 19.605l1.053 1.824 1.082-.625-1.052-1.824-1.083.625ZM4.393 15.67 2.57 16.722l.626 1.082 1.821-1.052-.625-1.083Zm15.212-7.34 1.823-1.05-.624-1.084-1.823 1.05.624 1.083ZM8.328 4.394l-1.05-1.823-1.083.624 1.05 1.823 1.083-.624ZM9 12.625h1v-1.25H9v1.25Zm1 0h2v-1.25h-2v1.25Zm2 0h2v-1.25h-2v1.25Zm2 0h1v-1.25h-1v1.25ZM10.625 10c0-.067.025-.18.082-.26a.237.237 0 0 1 .086-.075.445.445 0 0 1 .207-.04v-1.25c-.604 0-1.041.266-1.307.635a1.741 1.741 0 0 0-.318.99h1.25ZM13 9.625c.14 0 .205.033.231.051.031.02.06.053.085.104a.608.608 0 0 1 .059.222v.008V10L14 10h.625v-.033a1.66 1.66 0 0 0-.024-.226 1.854 1.854 0 0 0-.167-.52c-.1-.2-.259-.418-.51-.585A1.639 1.639 0 0 0 13 8.375v1.25ZM9.375 10v.5h1.25V10h-1.25Zm0 .5V12h1.25v-1.5h-1.25Zm1 3.5v.5h1.25V14h-1.25Zm-.934-1.72.75 1.5 1.118-.56-.75-1.5-1.118.56Zm.75 1.5.25.5 1.118-.56-.25-.5-1.118.56Zm2.184-.28v.5h1.25v-.5h-1.25Zm0 .5v.5h1.25V14h-1.25Zm1.184.28.25-.5-1.118-.56-.25.5 1.118.56Zm.25-.5.75-1.5-1.118-.56-.75 1.5 1.118.56Zm.816-1.78v-1.5h-1.25V12h1.25Zm0-1.5V10h-1.25v.5h1.25Zm-5.067-.058.5.5.884-.884-.5-.5-.884.884Zm.5.5 1.5 1.5.884-.884-1.5-1.5-.884.884Zm2.384 1.5 1.5-1.5-.884-.884-1.5 1.5.884.884Zm1.5-1.5.5-.5-.884-.884-.5.5.884.884ZM13 12.375h-2v1.25h2v-1.25Zm-4-1.25h1v-1.25H9v1.25Zm1 0h.5v-1.25H10v1.25Zm.5 0h3v-1.25h-3v1.25Zm3 0h.5v-1.25h-.5v1.25Zm.5 0h1v-1.25h-1v1.25Zm-5 3h1.75v-1.25H9v1.25Zm1.75 0H11v-1.25h-.25v1.25Zm.25 0h2v-1.25h-2v1.25Zm2 0h.25v-1.25H13v1.25Zm.25 0H15v-1.25h-1.75v1.25ZM10.375 13v.5h1.25V13h-1.25Zm0 .5v.5h1.25v-.5h-1.25Z"/>
</svg>
