<svg xmlns="http://www.w3.org/2000/svg" fill="none" viewBox="0 0 24 24" stroke-width="1.5" stroke="currentColor" aria-hidden="true" data-slot="icon">
  <path fill="#000" d="M2 15h-.75H2Zm9 .75a.75.75 0 0 0 0-1.5v1.5Zm2-1.5a.75.75 0 0 0 0 1.5v-1.5ZM9.8 20v-.75a.75.75 0 0 0-.75.75h.75Zm4.4 0h.75a.75.75 0 0 0-.75-.75V20Zm0 2v.75a.75.75 0 0 0 .75-.75h-.75Zm-4.4 0h-.75c0 .414.336.75.75.75V22Zm1.85-4.5a.75.75 0 0 0-1.5 0h1.5ZM10.9 20h-.75c0 .414.336.75.75.75V20Zm2.1 0v.75a.75.75 0 0 0 .75-.75H13Zm.75-2.5a.75.75 0 0 0-1.5 0h1.5ZM10.9 15h-.75c0 .414.336.75.75.75V15Zm2.2 0v.75a.75.75 0 0 0 .75-.75h-.75Zm-11-3.75a.75.75 0 0 0 0 1.5v-1.5ZM11.65 6a.75.75 0 0 0-1.5 0h1.5Zm2.2 0a.75.75 0 0 0-1.5 0h1.5Zm8.05 6.75a.75.75 0 0 0 0-1.5v1.5ZM16.05 9.5a.75.75 0 0 0-1.5 0h1.5Zm-1.5 5.5a.75.75 0 0 0 1.5 0h-1.5Zm-5.1-5.5a.75.75 0 0 0-1.5 0h1.5ZM7.95 15a.75.75 0 0 0 1.5 0h-1.5Zm10.3-4a.75.75 0 0 0-1.5 0h1.5Zm-1.5 4a.75.75 0 0 0 1.5 0h-1.5Zm-9.5-4a.75.75 0 0 0-1.5 0h1.5Zm-1.5 4a.75.75 0 0 0 1.5 0h-1.5Zm14.7-3a.75.75 0 0 0-1.5 0h1.5Zm-1.5 3a.75.75 0 0 0 1.5 0h-1.5Zm-16.2-3a.75.75 0 1 0-1.5 0h1.5Zm20 0a.75.75 0 0 0-1.5 0h1.5Zm-17.7 0a.75.75 0 0 0-1.5 0h1.5Zm-1.5 3a.75.75 0 0 0 1.5 0h-1.5Zm8.1-12a.75.75 0 0 0-1.5 0h1.5Zm2.2 0a.75.75 0 0 0-1.5 0h1.5ZM10.9 5.75a.75.75 0 0 0 0 1.5v-1.5Zm2.2.75h.75v-.75h-.75v.75Zm0 3v.75h.75V9.5h-.75Zm-2.2 0v-.75h-.75v.75h.75Zm0 2.5h-.75v.75h.75V12Zm2.2 0h.75v-.75h-.75V12Zm8.9 5.5v.75a.75.75 0 0 0 .75-.75H22Zm-20 0h-.75c0 .414.336.75.75.75v-.75Zm0-1.75h9v-1.5H2v1.5Zm11 0h9v-1.5h-9v1.5Zm-3.2 5h4.4v-1.5H9.8v1.5Zm3.65-.75v2h1.5v-2h-1.5Zm.75 1.25H9.8v1.5h4.4v-1.5Zm-3.65.75v-2h-1.5v2h1.5Zm-.4-4.5V20h1.5v-2.5h-1.5Zm.75 3.25H13v-1.5h-2.1v1.5Zm2.85-.75v-2.5h-1.5V20h1.5Zm-2.85-4.25h2.2v-1.5h-2.2v1.5Zm2.95-.75V4h-1.5v11h1.5ZM13.1 3.25h-2.2v1.5h2.2v-1.5ZM10.15 4v11h1.5V4h-1.5ZM2.1 12.75c2.413 0 4.769-1.088 6.503-2.402.872-.661 1.614-1.399 2.146-2.123.513-.7.901-1.485.901-2.225h-1.5c0 .26-.162.725-.611 1.338-.431.588-1.064 1.225-1.842 1.814C6.131 10.34 4.087 11.25 2.1 11.25v1.5ZM12.35 6c0 .74.388 1.525.901 2.225.532.724 1.274 1.462 2.146 2.123 1.734 1.313 4.09 2.402 6.503 2.402v-1.5c-1.987 0-4.031-.912-5.597-2.098-.778-.589-1.41-1.226-1.842-1.814-.45-.613-.611-1.078-.611-1.338h-1.5Zm2.2 3.5V15h1.5V9.5h-1.5Zm-6.6 0V15h1.5V9.5h-1.5Zm8.8 1.5v4h1.5v-4h-1.5Zm-11 0v4h1.5v-4h-1.5Zm13.2 1v3h1.5v-3h-1.5Zm-17.7 0v3h1.5v-3h-1.5Zm20 0v3h1.5v-3h-1.5Zm-17.7 0v3h1.5v-3h-1.5Zm8.1-8V3h-1.5v1h1.5Zm.7-1v1h1.5V3h-1.5ZM10.9 7.25h2.2v-1.5h-2.2v1.5Zm1.45-.75v3h1.5v-3h-1.5Zm.75 2.25h-2.2v1.5h2.2v-1.5Zm-2.95.75V12h1.5V9.5h-1.5Zm.75 3.25h2.2v-1.5h-2.2v1.5Zm1.45-.75v3h1.5v-3h-1.5ZM22 16.75H2v1.5h20v-1.5Zm-19.25.75V15h-1.5v2.5h1.5ZM2 15.75h20v-1.5H2v1.5ZM21.25 15v2.5h1.5V15h-1.5Z"/>
</svg>
