<svg xmlns="http://www.w3.org/2000/svg" fill="none" viewBox="0 0 24 24" stroke-width="1.5" stroke="currentColor" aria-hidden="true" data-slot="icon">
  <path fill="#000" d="M6.984 8.586h-.75.75ZM12.75 2a.75.75 0 0 0-1.5 0h1.5Zm8.027 19.473v.75a.75.75 0 0 0 .75-.75h-.75Zm-17.554 0h-.75c0 .414.336.75.75.75v-.75ZM7 17.389l-.674-.328A.75.75 0 0 0 7 18.139v-.75Zm10 0v.75a.75.75 0 0 0 .674-1.078l-.674.328Zm-11.75-2.36a.75.75 0 0 0 1.5 0h-1.5Zm4.512-3.115a.75.75 0 0 0 0-1.5v1.5Zm4.238-1.5a.75.75 0 0 0 0 1.5v-1.5Zm3.012 4.616a.75.75 0 0 0 1.5 0h-1.5Zm-6.262-3.222a.75.75 0 0 0-1.5 0h1.5Zm-1.5 2.577a.75.75 0 1 0 1.5 0h-1.5Zm5.5-2.577a.75.75 0 0 0-1.5 0h1.5Zm-1.5 2.577a.75.75 0 1 0 1.5 0h-1.5Zm1.5-5.299v-.75h-1.5v.75h1.5Zm-1.5 1.623v.75h1.5v-.75h-1.5Zm-2.5-1.677v-.75h-1.5v.75h1.5Zm-1.5 1.623v.75h1.5v-.75h-1.5Zm1.25 8.79v-.75a.75.75 0 0 0-.75.75h.75Zm0 2.055h-.75a.75.75 0 0 0 .757.75l-.007-.75Zm3-.027.007.75a.75.75 0 0 0 .743-.75h-.75Zm0-2.028h.75a.75.75 0 0 0-.75-.75v.75ZM2 14.232a.75.75 0 0 0 0 1.5v-1.5Zm20 1.5a.75.75 0 0 0 0-1.5v1.5ZM2 20.75a.75.75 0 0 0 0 1.5v-1.5Zm20 1.5a.75.75 0 0 0 0-1.5v1.5ZM7.75 17.5a.75.75 0 0 0-1.5 0h1.5Zm-.75 4h-.75c0 .414.336.75.75.75v-.75Zm10 0v.75a.75.75 0 0 0 .75-.75H17Zm.75-4a.75.75 0 0 0-1.5 0h1.5Zm.015-8.914c0-1.559-.602-3.059-1.681-4.167l-1.075 1.046a4.478 4.478 0 0 1 1.256 3.121h1.5ZM16.084 4.42A5.698 5.698 0 0 0 12 2.682v1.5c1.124 0 2.207.459 3.009 1.283l1.075-1.046ZM12 2.682a5.698 5.698 0 0 0-4.084 1.737L8.99 5.465A4.198 4.198 0 0 1 12 4.182v-1.5ZM7.916 4.419a5.978 5.978 0 0 0-1.682 4.167h1.5c0-1.174.455-2.297 1.257-3.121L7.916 4.419ZM6.234 8.586v2.578h1.5V8.586h-1.5Zm.75 3.328h10.031v-1.5H6.986v1.5Zm10.781-.75V8.586h-1.5v2.578h1.5Zm-.75-3.328H6.986v1.5h10.03v-1.5ZM12.75 3.432V2h-1.5v1.432h1.5ZM3.223 15.78h17.554v-1.5H3.223v1.5Zm16.804-.75v6.443h1.5V15.03h-1.5Zm.75 5.693H3.223v1.5h17.554v-1.5Zm-16.804.75V15.03h-1.5v6.443h1.5ZM7 18.139h10v-1.5H7v1.5Zm10.674-1.078c-.557-1.146-2.412-2.781-5.674-2.781v1.5c2.756 0 4.047 1.365 4.326 1.937l1.348-.656ZM12 14.28c-3.263 0-5.117 1.635-5.674 2.78l1.348.657c.279-.572 1.57-1.937 4.326-1.937v-1.5Zm-8.027.75c0-1.178.287-1.923.728-2.377.437-.45 1.15-.74 2.283-.74v-1.5c-1.374 0-2.542.355-3.358 1.194-.813.835-1.153 2.024-1.153 3.423h1.5Zm2.777 0c0-1.178.287-1.923.728-2.377.437-.45 1.15-.74 2.284-.74v-1.5c-1.375 0-2.543.355-3.36 1.194-.812.835-1.152 2.024-1.152 3.423h1.5Zm10.265-3.116c1.133 0 1.847.29 2.284.74.441.453.728 1.197.728 2.376h1.5c0-1.4-.34-2.588-1.153-3.423-.816-.839-1.984-1.193-3.358-1.193v1.5Zm-3.015 0c1.133 0 1.846.29 2.284.74.44.453.728 1.197.728 2.376h1.5c0-1.4-.34-2.588-1.153-3.423-.817-.839-1.984-1.193-3.359-1.193v1.5Zm-4.75-.106v2.577h1.5v-2.577h-1.5Zm4 0v2.577h1.5v-2.577h-1.5Zm0-2.722v1.623h1.5V9.086h-1.5Zm-4-.054v1.623h1.5V9.032h-1.5Zm.5 10.413V21.5h1.5v-2.055h-1.5Zm.757 2.805 3-.027-.014-1.5-3 .027.014 1.5Zm3.743-.777v-2.028h-1.5v2.028h1.5ZM2 15.732h20v-1.5H2v1.5Zm0 6.518h20v-1.5H2v1.5Zm4.25-4.75v4h1.5v-4h-1.5ZM7 22.25h10v-1.5H7v1.5Zm10.75-.75v-4h-1.5v4h1.5Zm-4.25-2.805h-3v1.5h3v-1.5Z"/>
</svg>
