<svg xmlns="http://www.w3.org/2000/svg" fill="none" viewBox="0 0 24 24" stroke-width="1.5" stroke="currentColor" aria-hidden="true" data-slot="icon">
  <path stroke-linecap="square" stroke-linejoin="round" d="M6 15.015c0-2.578 1.254-3.851 3.762-3.851H14c2.508 0 3.762 1.274 3.762 3.85"/>
  <path stroke-linecap="round" stroke-linejoin="round" d="M10.5 21.5v-2.055h3v2.028"/>
  <path stroke-linecap="round" stroke-linejoin="round" d="M7 21.5v-4.11c.418-.86 1.99-2.36 5-2.36s4.582 1.5 5 2.36v4.11M12 2v1"/>
  <path stroke-linecap="square" stroke-linejoin="round" d="M10 9v6M14 9v6"/>
  <path stroke-linecap="round" stroke-linejoin="round" d="M7 11V8a5 5 0 0 1 10 0v3M21 21.5V15a4 4 0 0 0-4-4H7a4 4 0 0 0-4 4v6.5M7 8.5h10M2 21.5h20M2 15.015h20"/>
</svg>
