<svg width="24" height="24" viewBox="0 0 24 24" fill="none" xmlns="http://www.w3.org/2000/svg">
<path fill-rule="evenodd" clip-rule="evenodd" d="M2.25 13.5C2.25 8.94365 5.94365 5.25 10.5 5.25C10.9142 5.25 11.25 5.58579 11.25 6V12.75H18C18.4142 12.75 18.75 13.0858 18.75 13.5C18.75 18.0563 15.0563 21.75 10.5 21.75C5.94365 21.75 2.25 18.0563 2.25 13.5Z" fill="#0F172A"/>
<path fill-rule="evenodd" clip-rule="evenodd" d="M12.75 3C12.75 2.58579 13.0858 2.25 13.5 2.25C18.0563 2.25 21.75 5.94365 21.75 10.5C21.75 10.9142 21.4142 11.25 21 11.25H13.5C13.0858 11.25 12.75 10.9142 12.75 10.5V3Z" fill="#0F172A"/>
</svg>
