<svg width="24" height="24" viewBox="0 0 24 24" fill="none" xmlns="http://www.w3.org/2000/svg">
<path d="M3 12L2.29289 11.2929C2.10536 11.4804 2 11.7348 2 12C2 12.2652 2.10536 12.5196 2.29289 12.7071L3 12ZM9.41421 18.4142L10.1213 17.7071L9.41421 18.4142ZM9.41421 5.58579L10.1213 6.29289L9.41421 5.58579ZM11.2929 13.2929C10.9024 13.6834 10.9024 14.3166 11.2929 14.7071C11.6834 15.0976 12.3166 15.0976 12.7071 14.7071L11.2929 13.2929ZM16.7071 10.7071C17.0976 10.3166 17.0976 9.68342 16.7071 9.29289C16.3166 8.90237 15.6834 8.90237 15.2929 9.29289L16.7071 10.7071ZM12.7071 9.29289C12.3166 8.90237 11.6834 8.90237 11.2929 9.29289C10.9024 9.68342 10.9024 10.3166 11.2929 10.7071L12.7071 9.29289ZM15.2929 14.7071C15.6834 15.0976 16.3166 15.0976 16.7071 14.7071C17.0976 14.3166 17.0976 13.6834 16.7071 13.2929L15.2929 14.7071ZM10.8284 6H19V4H10.8284V6ZM20 7V17H22V7H20ZM19 18H10.8284V20H19V18ZM10.1213 17.7071L3.70711 11.2929L2.29289 12.7071L8.70711 19.1213L10.1213 17.7071ZM3.70711 12.7071L10.1213 6.29289L8.70711 4.87868L2.29289 11.2929L3.70711 12.7071ZM10.8284 18C10.5632 18 10.3089 17.8946 10.1213 17.7071L8.70711 19.1213C9.26972 19.6839 10.0328 20 10.8284 20V18ZM20 17C20 17.5523 19.5523 18 19 18V20C20.6569 20 22 18.6569 22 17H20ZM19 6C19.5523 6 20 6.44772 20 7H22C22 5.34315 20.6569 4 19 4V6ZM10.8284 4C10.0328 4 9.26972 4.31607 8.70711 4.87868L10.1213 6.29289C10.3089 6.10536 10.5632 6 10.8284 6V4ZM12.7071 14.7071L14.7071 12.7071L13.2929 11.2929L11.2929 13.2929L12.7071 14.7071ZM14.7071 12.7071L16.7071 10.7071L15.2929 9.29289L13.2929 11.2929L14.7071 12.7071ZM11.2929 10.7071L13.2929 12.7071L14.7071 11.2929L12.7071 9.29289L11.2929 10.7071ZM13.2929 12.7071L15.2929 14.7071L16.7071 13.2929L14.7071 11.2929L13.2929 12.7071Z" fill="#374151"/>
</svg>
