<svg width="24" height="24" viewBox="0 0 24 24" fill="none" xmlns="http://www.w3.org/2000/svg">
<path d="M2.25 15C2.25 17.4853 4.26472 19.5 6.75 19.5H18C20.0711 19.5 21.75 17.8211 21.75 15.75C21.75 14.1479 20.7453 12.7805 19.3316 12.2433C19.4407 11.9324 19.5 11.5981 19.5 11.25C19.5 9.59315 18.1569 8.25 16.5 8.25C16.1767 8.25 15.8654 8.30113 15.5737 8.39575C14.9765 6.1526 12.9312 4.5 10.5 4.5C7.6005 4.5 5.25 6.85051 5.25 9.75C5.25 10.0832 5.28105 10.4092 5.3404 10.7252C3.54555 11.3167 2.25 13.0071 2.25 15Z" stroke="#0F172A" stroke-width="1.5" stroke-linecap="round" stroke-linejoin="round"/>
</svg>
