<svg width="24" height="24" viewBox="0 0 24 24" fill="none" xmlns="http://www.w3.org/2000/svg">
<path d="M7 21C4.79086 21 3 19.2091 3 17V5C3 3.89543 3.89543 3 5 3H9C10.1046 3 11 3.89543 11 5V17C11 19.2091 9.20914 21 7 21ZM7 21H19C20.1046 21 21 20.1046 21 19V15C21 13.8954 20.1046 13 19 13H16.6569M11 7.34312L12.6569 5.68629C13.4379 4.90524 14.7042 4.90524 15.4853 5.68629L18.3137 8.51472C19.0948 9.29577 19.0948 10.5621 18.3137 11.3431L9.82843 19.8284M7 17H7.01" stroke="#4A5568" stroke-width="2" stroke-linecap="round" stroke-linejoin="round"/>
</svg>
