<svg width="24" height="24" viewBox="0 0 24 24" fill="none" xmlns="http://www.w3.org/2000/svg">
<path d="M8.30768 11H13.6923" stroke="#FC6D26" stroke-width="1.8" stroke-linecap="round" stroke-linejoin="round"/>
<path d="M8.30768 14.8776H13.6923" stroke="#FC6D26" stroke-width="1.8" stroke-linecap="round" stroke-linejoin="round"/>
<path d="M15.4872 19.7245H6.51283C6.0342 19.7245 5.57949 19.5177 5.24445 19.1558C4.90941 18.7939 4.71796 18.3027 4.71796 17.7857V4.21429C4.71796 3.69728 4.90941 3.20612 5.24445 2.84422C5.57949 2.48232 6.0342 2.27551 6.51283 2.27551H11.5265C11.7658 2.27551 11.9932 2.37891 12.1607 2.55987L17.0188 7.80749C17.1863 7.98844 17.2821 8.23402 17.2821 8.49252V17.7857C17.2821 18.3027 17.0906 18.7939 16.7556 19.1558C16.4205 19.5177 15.9658 19.7245 15.4872 19.7245V19.7245Z" stroke="#8D95A4" stroke-width="1.8" stroke-linecap="round" stroke-linejoin="round"/>
</svg>
