<svg width="24" height="24" viewBox="0 0 24 24" fill="none" xmlns="http://www.w3.org/2000/svg">
<path d="M11.9999 11C11.9999 14.5172 10.9911 17.7988 9.24707 20.5712M5.80688 18.5304C5.82459 18.5005 5.84273 18.4709 5.8613 18.4413C7.2158 16.2881 7.99991 13.7418 7.99991 11C7.99991 8.79086 9.79077 7 11.9999 7C14.209 7 15.9999 8.79086 15.9999 11C15.9999 12.017 15.9307 13.0186 15.7966 14M13.6792 20.8436C14.2909 19.6226 14.7924 18.3369 15.1707 17M19.0097 18.132C19.6547 15.8657 20 13.4732 20 11C20 6.58172 16.4183 3 12 3C10.5429 3 9.17669 3.38958 8 4.07026M3 15.3641C3.64066 14.0454 4 12.5646 4 11C4 9.54285 4.38958 8.17669 5.07026 7" stroke="#374151" stroke-width="2" stroke-linecap="round" stroke-linejoin="round"/>
</svg>
