<svg width="24" height="24" viewBox="0 0 24 24" fill="none" xmlns="http://www.w3.org/2000/svg">
<path d="M12.9999 11C12.9999 10.4477 12.5522 10 11.9999 10C11.4476 10 10.9999 10.4477 10.9999 11H12.9999ZM8.40062 20.0387C8.10655 20.5062 8.24712 21.1236 8.7146 21.4177C9.18209 21.7117 9.79945 21.5712 10.0935 21.1037L8.40062 20.0387ZM5.8613 18.4413L5.01485 17.9089L5.01485 17.9089L5.8613 18.4413ZM4.94708 18.0197C4.66507 18.4946 4.8214 19.1081 5.29625 19.3902C5.7711 19.6722 6.38467 19.5159 6.66668 19.041L4.94708 18.0197ZM12.7851 20.3957C12.5378 20.8895 12.7375 21.4903 13.2313 21.7377C13.7251 21.9851 14.3259 21.7853 14.5733 21.2915L12.7851 20.3957ZM16.1329 17.2723C16.2833 16.7409 15.9744 16.1882 15.443 16.0378C14.9116 15.8874 14.3589 16.1963 14.2085 16.7277L16.1329 17.2723ZM14.8058 13.8647C14.7311 14.4119 15.1141 14.9161 15.6613 14.9908C16.2085 15.0655 16.7127 14.6825 16.7874 14.1353L14.8058 13.8647ZM18.0479 17.8582C17.8967 18.3894 18.2047 18.9426 18.7359 19.0938C19.2671 19.2449 19.8203 18.9369 19.9715 18.4057L18.0479 17.8582ZM2.10052 14.9272C1.85919 15.4239 2.06626 16.0223 2.56303 16.2636C3.0598 16.5049 3.65815 16.2979 3.89948 15.8011L2.10052 14.9272ZM7.49927 3.20465C7.02121 3.4812 6.85785 4.09292 7.13439 4.57098C7.41094 5.04904 8.02267 5.21241 8.50073 4.93586L7.49927 3.20465ZM5.93586 7.50073C6.21241 7.02267 6.04904 6.41094 5.57098 6.13439C5.09292 5.85785 4.4812 6.02121 4.20465 6.49927L5.93586 7.50073ZM10.9999 11C10.9999 14.3233 10.0473 17.4211 8.40062 20.0387L10.0935 21.1037C11.9349 18.1765 12.9999 14.7111 12.9999 11H10.9999ZM16.9999 11C16.9999 8.23858 14.7613 6 11.9999 6V8C13.6568 8 14.9999 9.34315 14.9999 11H16.9999ZM6.99991 11C6.99991 13.5479 6.27194 15.9105 5.01485 17.9089L6.70775 18.9738C8.15965 16.6658 8.99991 13.9356 8.99991 11H6.99991ZM11.9999 6C9.23848 6 6.99991 8.23858 6.99991 11H8.99991C8.99991 9.34315 10.3431 8 11.9999 8V6ZM5.01485 17.9089C4.99173 17.9456 4.96914 17.9826 4.94708 18.0197L6.66668 19.041C6.68004 19.0185 6.69373 18.9961 6.70776 18.9738L5.01485 17.9089ZM14.5733 21.2915C15.2129 20.0149 15.7373 18.6704 16.1329 17.2723L14.2085 16.7277C13.8475 18.0034 13.3689 19.2304 12.7851 20.3957L14.5733 21.2915ZM16.7874 14.1353C16.9276 13.1092 16.9999 12.0625 16.9999 11H14.9999C14.9999 11.9716 14.9338 12.9279 14.8058 13.8647L16.7874 14.1353ZM21 11C21 6.02944 16.9706 2 12 2V4C15.866 4 19 7.13401 19 11H21ZM19.9715 18.4057C20.6416 16.0513 21 13.5667 21 11H19C19 13.3797 18.6678 15.6801 18.0479 17.8582L19.9715 18.4057ZM3 11C3 12.41 2.67647 13.7416 2.10052 14.9272L3.89948 15.8011C4.60485 14.3491 5 12.7193 5 11H3ZM12 2C10.3624 2 8.82407 2.4383 7.49927 3.20465L8.50073 4.93586C9.52931 4.34086 10.7233 4 12 4V2ZM4.20465 6.49927C3.4383 7.82407 3 9.36237 3 11H5C5 9.72333 5.34086 8.52931 5.93586 7.50073L4.20465 6.49927Z" fill="#374151"/>
</svg>
