<svg width="24" height="24" viewBox="0 0 24 24" fill="none" xmlns="http://www.w3.org/2000/svg">
<path d="M17.6569 18.6568C14.5327 21.781 9.46734 21.781 6.34315 18.6568C4.78105 17.0947 4 15.0474 4 13C4 10.9526 4.78105 8.90523 6.34315 7.34313C6.34315 7.34313 7.00004 8.99995 9.00004 9.99995C9.00004 7.99995 9.50004 4.99996 11.9859 3C14 5 16.0912 5.77745 17.6569 7.34313C19.219 8.90523 20 10.9526 20 13C20 15.0474 19.2189 17.0947 17.6569 18.6568Z" stroke="#374151" stroke-width="2" stroke-linecap="round" stroke-linejoin="round"/>
<path d="M9.87868 16.1213C11.0503 17.2928 12.9497 17.2928 14.1213 16.1213C14.7071 15.5355 15 14.7677 15 14C15 13.2322 14.7071 12.4644 14.1213 11.8786C13.5392 11.2965 12.7775 11.0037 12.0146 11L10.9999 13.9999L9 14C9.00001 14.7677 9.2929 15.5355 9.87868 16.1213Z" stroke="#374151" stroke-width="2" stroke-linecap="round" stroke-linejoin="round"/>
</svg>
