<svg width="24" height="24" viewBox="0 0 24 24" fill="none" xmlns="http://www.w3.org/2000/svg">
<path d="M3.05493 11H5C6.10457 11 7 11.8954 7 13V14C7 15.1046 7.89543 16 9 16C10.1046 16 11 16.8954 11 18V20.9451M8 3.93552V5.5C8 6.88071 9.11929 8 10.5 8H11C12.1046 8 13 8.89543 13 10C13 11.1046 13.8954 12 15 12C16.1046 12 17 11.1046 17 10C17 8.89543 17.8954 8 19 8L20.0645 8M15 20.4879V18C15 16.8954 15.8954 16 17 16H20.0645M21 12C21 16.9706 16.9706 21 12 21C7.02944 21 3 16.9706 3 12C3 7.02944 7.02944 3 12 3C16.9706 3 21 7.02944 21 12Z" stroke="#4A5568" stroke-width="2" stroke-linecap="round" stroke-linejoin="round"/>
</svg>
