
<svg width="31" height="18" viewBox="0 0 31 18" fill="none" xmlns="http://www.w3.org/2000/svg">
    <path d="M8.5981 13.422V3.05496L10.7835 0.538828L10.7836 0.538725C11.0018 0.287045 11.2909 0.15 11.5884 0.15H14.6442L11.5607 3.40653L11.5606 3.40666C10.3223 4.7176 10.235 6.93331 11.3734 8.36834L11.3735 8.36847C12.5047 9.79143 14.4597 9.92289 15.7312 8.58462L15.7315 8.58437L16.8477 7.40421L22.8036 12.981C22.8037 12.9811 22.8038 12.9812 22.8039 12.9812C23.3037 13.4528 23.3846 14.3107 22.9708 14.8989L22.5848 15.4471L22.5844 15.4476C22.1836 16.0225 21.4691 16.0991 20.9821 15.6444L8.5981 13.422ZM8.5981 13.422L12.9664 17.2148L12.9708 17.2186L12.9708 17.2187C14.0135 18.1976 15.5453 18.0197 16.4018 16.8058L16.4061 16.7997L16.411 16.7941L16.4191 16.7847L16.5246 16.663L16.6385 16.7768L17.3641 17.5016C17.9394 18.0425 18.7873 17.9444 19.2617 17.2699L19.2618 17.2698L20.5374 15.461L20.6369 15.3199L20.7627 15.4382L20.9818 15.6441L8.5981 13.422ZM24.3012 12.0596C24.2574 12.0186 24.2209 11.9852 24.194 11.9608V3.14891H29.944C30.4135 3.14891 30.7941 3.52947 30.7941 3.99891V12.4904C30.7941 12.9599 30.4135 13.3404 29.9441 13.3404H25.43C25.2405 13.0312 24.9329 12.6888 24.6723 12.4222C24.5293 12.276 24.3974 12.1496 24.3012 12.0596ZM23.894 3.05488V11.6593C23.8711 11.6382 23.8485 11.6175 23.8267 11.5966L23.8256 11.5956L18.0207 6.16011L18.9773 5.14974L18.9778 5.1493C19.2928 4.81391 19.3166 4.25727 19.0265 3.89436C18.7306 3.51885 18.2097 3.49455 17.8825 3.83715L17.882 3.83766L14.6523 7.25049C14.6428 7.25636 14.6313 7.26483 14.62 7.27676C14.0126 7.90046 13.034 7.74973 12.5672 7.16048L12.5671 7.16033C12.0333 6.48824 12.0241 5.40454 12.6452 4.73128L12.6453 4.73133L12.6483 4.72783C12.6527 4.72272 12.6562 4.71808 12.6587 4.71456C12.6613 4.71097 12.6634 4.70777 12.6649 4.70532C12.6653 4.70465 12.6658 4.70398 12.6662 4.70333L16.6495 0.496763C16.8632 0.271125 17.1376 0.15 17.4181 0.15H20.9078C21.206 0.15 21.4985 0.28758 21.7118 0.537784L21.7126 0.538725L23.894 3.05488ZM14.683 7.23544L14.6814 7.23612L14.683 7.23544ZM8.2981 3.1492V13.3407L2.5 13.35H2.49976H1.9C1.43056 13.35 1.05 12.9694 1.05 12.5V4.01129C1.05 3.54247 1.42958 3.16218 1.89839 3.16129L8.2981 3.1492Z" stroke="black" stroke-width="0.3"/>
</svg>
