<svg width="24" height="24" viewBox="0 0 24 24" fill="none" xmlns="http://www.w3.org/2000/svg">
<path d="M7 11.5V14M7 11.5V5.5C7 4.67157 7.67157 4 8.5 4C9.32843 4 10 4.67157 10 5.5M7 11.5C7 10.6716 6.32843 10 5.5 10C4.67157 10 4 10.6716 4 11.5V13.5C4 17.6421 7.35786 21 11.5 21C15.6421 21 19 17.6421 19 13.5V8.5C19 7.67157 18.3284 7 17.5 7C16.6716 7 16 7.67157 16 8.5M10 5.5V11M10 5.5V4.5C10 3.67157 10.6716 3 11.5 3C12.3284 3 13 3.67157 13 4.5V5.5M13 5.5V11M13 5.5C13 4.67157 13.6716 4 14.5 4C15.3284 4 16 4.67157 16 5.5V8.5M16 8.5V11" stroke="#374151" stroke-width="2" stroke-linecap="round" stroke-linejoin="round"/>
</svg>
