<svg width="24" height="24" viewBox="0 0 24 24" fill="none" xmlns="http://www.w3.org/2000/svg">
<path d="M10 6H5C3.89543 6 3 6.89543 3 8V17C3 18.1046 3.89543 19 5 19H19C20.1046 19 21 18.1046 21 17V8C21 6.89543 20.1046 6 19 6H14M10 6V5C10 3.89543 10.8954 3 12 3C13.1046 3 14 3.89543 14 5V6M10 6C10 7.10457 10.8954 8 12 8C13.1046 8 14 7.10457 14 6M9 14C10.1046 14 11 13.1046 11 12C11 10.8954 10.1046 10 9 10C7.89543 10 7 10.8954 7 12C7 13.1046 7.89543 14 9 14ZM9 14C10.3062 14 11.4174 14.8348 11.8292 16M9 14C7.69378 14 6.58249 14.8348 6.17065 16M15 11H18M15 15H17" stroke="#374151" stroke-width="2" stroke-linecap="round" stroke-linejoin="round"/>
</svg>
