<svg viewBox="0 0 24 24" fill="currentColor" stroke="currentColor" xmlns="http://www.w3.org/2000/svg">
<circle cx="19" cy="5" r="1.5" fill="none" />
<circle cx="15" cy="10" r="1.5" fill="none" />
<path fill-rule="evenodd" clip-rule="evenodd" d="M11.4769 2.01346C11.6502 2.00452 11.8246 2 12 2C12.1754 2 12.3498 2.00452 12.5231 2.01346C12.7988 2.02768 13.0109 2.26277 12.9967 2.53855C12.9824 2.81432 12.7473 3.02635 12.4716 3.01213C12.3154 3.00408 12.1582 3 12 3C11.8418 3 11.6846 3.00408 11.5284 3.01213C11.2527 3.02635 11.0176 2.81432 11.0033 2.53855C10.9891 2.26277 11.2012 2.02768 11.4769 2.01346ZM10.0234 2.69239C10.0947 2.95916 9.93622 3.23324 9.66944 3.30455C9.36417 3.38615 9.06529 3.4834 8.77371 3.59541C8.51593 3.69443 8.22669 3.56573 8.12767 3.30795C8.02865 3.05017 8.15735 2.76093 8.41513 2.66191C8.73936 2.53736 9.07173 2.42921 9.41121 2.33846C9.67798 2.26715 9.95205 2.42561 10.0234 2.69239ZM13.9766 2.69239C14.0479 2.42561 14.322 2.26715 14.5888 2.33846C14.9283 2.42921 15.2606 2.53736 15.5849 2.66191C15.8426 2.76093 15.9713 3.05017 15.8723 3.30795C15.7733 3.56573 15.4841 3.69443 15.2263 3.59541C14.9347 3.4834 14.6358 3.38615 14.3306 3.30455C14.0638 3.23324 13.9053 2.95916 13.9766 2.69239ZM7.24447 3.75895C7.39508 3.9904 7.32955 4.30012 7.0981 4.45074C6.83428 4.62241 6.58 4.80755 6.33622 5.0052C6.12172 5.17911 5.80685 5.14621 5.63294 4.93171C5.45903 4.71721 5.49194 4.40234 5.70644 4.22843C5.97715 4.00894 6.25959 3.80329 6.55268 3.61257C6.78413 3.46196 7.09386 3.52749 7.24447 3.75895ZM4.93171 5.63294C5.14621 5.80685 5.17911 6.12172 5.0052 6.33622C4.80755 6.58 4.62241 6.83428 4.45074 7.0981C4.30012 7.32955 3.9904 7.39509 3.75895 7.24447C3.52749 7.09386 3.46196 6.78414 3.61257 6.55268C3.80329 6.2596 4.00894 5.97716 4.22843 5.70644C4.40234 5.49194 4.71721 5.45903 4.93171 5.63294ZM20.692 8.12767C20.9498 8.02865 21.2391 8.15735 21.3381 8.41513C21.4626 8.73936 21.5708 9.07173 21.6615 9.41121C21.7328 9.67798 21.5744 9.95205 21.3076 10.0234C21.0408 10.0947 20.7668 9.93622 20.6955 9.66944C20.6139 9.36417 20.5166 9.06529 20.4046 8.77371C20.3056 8.51593 20.4343 8.22669 20.692 8.12767ZM3.30795 8.12767C3.56573 8.22669 3.69443 8.51593 3.59541 8.77371C3.4834 9.06529 3.38615 9.36417 3.30455 9.66944C3.23324 9.93622 2.95916 10.0947 2.69239 10.0234C2.42561 9.95205 2.26715 9.67798 2.33846 9.41121C2.42921 9.07173 2.53736 8.73936 2.66191 8.41513C2.76093 8.15735 3.05017 8.02865 3.30795 8.12767ZM2.53855 11.0033C2.81432 11.0176 3.02635 11.2527 3.01213 11.5284C3.00408 11.6846 3 11.8418 3 12C3 12.1582 3.00408 12.3154 3.01213 12.4716C3.02635 12.7473 2.81432 12.9824 2.53855 12.9967C2.26277 13.0109 2.02768 12.7988 2.01346 12.5231C2.00452 12.3498 2 12.1754 2 12C2 11.8246 2.00452 11.6502 2.01346 11.4769C2.02768 11.2012 2.26277 10.9891 2.53855 11.0033ZM21.4615 11.0033C21.7372 10.9891 21.9723 11.2012 21.9865 11.4769C21.9955 11.6502 22 11.8246 22 12C22 12.1754 21.9955 12.3498 21.9865 12.5231C21.9723 12.7988 21.7372 13.0109 21.4615 12.9967C21.1857 12.9824 20.9736 12.7473 20.9879 12.4716C20.9959 12.3154 21 12.1582 21 12C21 11.8418 20.9959 11.6846 20.9879 11.5284C20.9736 11.2527 21.1857 11.0176 21.4615 11.0033ZM2.69239 13.9766C2.95916 13.9053 3.23324 14.0638 3.30455 14.3306C3.38615 14.6358 3.4834 14.9347 3.59541 15.2263C3.69443 15.4841 3.56573 15.7733 3.30795 15.8723C3.05017 15.9713 2.76093 15.8426 2.66191 15.5849C2.53736 15.2606 2.42921 14.9283 2.33846 14.5888C2.26715 14.322 2.42561 14.0479 2.69239 13.9766ZM21.3076 13.9766C21.5744 14.0479 21.7328 14.322 21.6615 14.5888C21.5708 14.9283 21.4626 15.2606 21.3381 15.5849C21.2391 15.8426 20.9498 15.9713 20.692 15.8723C20.4343 15.7733 20.3056 15.4841 20.4046 15.2263C20.5166 14.9347 20.6139 14.6358 20.6955 14.3306C20.7668 14.0638 21.0408 13.9053 21.3076 13.9766ZM20.2411 16.7555C20.4725 16.9061 20.538 17.2159 20.3874 17.4473C20.1967 17.7404 19.9911 18.0228 19.7716 18.2936C19.5977 18.5081 19.2828 18.541 19.0683 18.3671C18.8538 18.1931 18.8209 17.8783 18.9948 17.6638C19.1924 17.42 19.3776 17.1657 19.5493 16.9019C19.6999 16.6704 20.0096 16.6049 20.2411 16.7555ZM3.75895 16.7555C3.9904 16.6049 4.30012 16.6704 4.45074 16.9019C4.62241 17.1657 4.80755 17.42 5.0052 17.6638C5.17911 17.8783 5.14621 18.1931 4.93171 18.3671C4.71721 18.541 4.40234 18.5081 4.22843 18.2936C4.00894 18.0228 3.80329 17.7404 3.61257 17.4473C3.46196 17.2159 3.52749 16.9061 3.75895 16.7555ZM5.63294 19.0683C5.80685 18.8538 6.12172 18.8209 6.33622 18.9948C6.58 19.1924 6.83428 19.3776 7.0981 19.5493C7.32955 19.6999 7.39509 20.0096 7.24447 20.2411C7.09386 20.4725 6.78414 20.538 6.55268 20.3874C6.2596 20.1967 5.97716 19.9911 5.70644 19.7716C5.49194 19.5977 5.45903 19.2828 5.63294 19.0683ZM18.3671 19.0683C18.541 19.2828 18.5081 19.5977 18.2936 19.7716C18.0228 19.9911 17.7404 20.1967 17.4473 20.3874C17.2159 20.538 16.9061 20.4725 16.7555 20.2411C16.6049 20.0096 16.6704 19.6999 16.9019 19.5493C17.1657 19.3776 17.42 19.1924 17.6638 18.9948C17.8783 18.8209 18.1931 18.8538 18.3671 19.0683ZM8.12767 20.692C8.22669 20.4343 8.51593 20.3056 8.77371 20.4046C9.06529 20.5166 9.36417 20.6139 9.66944 20.6955C9.93622 20.7668 10.0947 21.0408 10.0234 21.3076C9.95205 21.5744 9.67798 21.7328 9.41121 21.6615C9.07173 21.5708 8.73936 21.4626 8.41513 21.3381C8.15735 21.2391 8.02865 20.9498 8.12767 20.692ZM15.8723 20.692C15.9713 20.9498 15.8426 21.2391 15.5849 21.3381C15.2606 21.4626 14.9283 21.5708 14.5888 21.6615C14.322 21.7328 14.0479 21.5744 13.9766 21.3076C13.9053 21.0408 14.0638 20.7668 14.3306 20.6955C14.6358 20.6139 14.9347 20.5166 15.2263 20.4046C15.4841 20.3056 15.7733 20.4343 15.8723 20.692ZM11.0033 21.4615C11.0176 21.1857 11.2527 20.9736 11.5284 20.9879C11.6846 20.9959 11.8418 21 12 21C12.1582 21 12.3154 20.9959 12.4716 20.9879C12.7473 20.9736 12.9824 21.1857 12.9967 21.4615C13.0109 21.7372 12.7988 21.9723 12.5231 21.9865C12.3498 21.9955 12.1754 22 12 22C11.8246 22 11.6502 21.9955 11.4769 21.9865C11.2012 21.9723 10.9891 21.7372 11.0033 21.4615Z" stroke="none" />
<path d="M17.4473 3.61257C17.2159 3.46196 16.9061 3.52749 16.7555 3.75895C16.6049 3.9904 16.6704 4.30012 16.9019 4.45074C17.1657 4.62241 17.42 4.80755 17.6638 5.0052L18.2936 4.22843C18.0228 4.00894 17.7404 3.80329 17.4473 3.61257Z" stroke="none" />
<path d="M20.3874 6.55268C20.1967 6.25959 19.9911 5.97715 19.7716 5.70644L18.9948 6.33622C19.1924 6.58 19.3776 6.83428 19.5493 7.0981C19.6999 7.32955 20.0096 7.39508 20.2411 7.24447C20.4725 7.09386 20.538 6.78413 20.3874 6.55268Z" stroke="none" />
<circle cx="12" cy="12" r="6.5" fill="none" />
</svg>

