<svg width="24" height="24" viewBox="0 0 24 24" fill="none" xmlns="http://www.w3.org/2000/svg">
<path d="M12 7.5H13.5M12 10.5H13.5M6 13.5H13.5M6 16.5H13.5M16.5 7.5H19.875C20.4963 7.5 21 8.00368 21 8.625V18C21 19.2426 19.9926 20.25 18.75 20.25M16.5 7.5V18C16.5 19.2426 17.5074 20.25 18.75 20.25M16.5 7.5V4.875C16.5 4.25368 15.9963 3.75 15.375 3.75H4.125C3.50368 3.75 3 4.25368 3 4.875V18C3 19.2426 4.00736 20.25 5.25 20.25H18.75M6 7.5H9V10.5H6V7.5Z" stroke="#0F172A" stroke-width="1.5" stroke-linecap="round" stroke-linejoin="round"/>
</svg>
