<svg width="24" height="24" viewBox="0 0 24 24" fill="none" xmlns="http://www.w3.org/2000/svg">
<path d="M9.5205 4.67834H4.655C4.14038 4.67834 3.63745 4.88887 3.27488 5.25144C2.91231 5.61402 2.70178 6.11694 2.70178 6.63156V17.345C2.70178 17.8596 2.91231 18.3626 3.27488 18.7251C3.63745 19.0877 4.14038 19.2982 4.655 19.2982H15.3684C15.8831 19.2982 16.386 19.0877 16.7486 18.7251C17.1111 18.3626 17.3217 17.8596 17.3217 17.345V12.4678" stroke="#8D95A4" stroke-width="1.8" stroke-linecap="round" stroke-linejoin="round"/>
<path d="M15.3743 3.59649C15.5497 3.40936 15.7719 3.25731 16.0058 3.16374C16.2398 3.05848 16.4971 3.0117 16.7544 3C17.0117 3 17.269 3.04678 17.5146 3.14035C17.7602 3.23392 17.9708 3.38596 18.1579 3.5614C18.345 3.74854 18.4854 3.95906 18.5789 4.20468C18.6725 4.4386 18.731 4.69591 18.7193 4.96491C18.7193 5.22222 18.6608 5.47953 18.5556 5.71345C18.4503 5.94737 18.3099 6.16959 18.1228 6.34503L9.76023 14.7193H7V11.9591L15.3743 3.59649Z" stroke="#FC6D26" stroke-width="1.8" stroke-linecap="round" stroke-linejoin="round"/>
</svg>
