<svg width="24" height="24" viewBox="0 0 24 24" fill="none" xmlns="http://www.w3.org/2000/svg">
<path d="M4 4V3H3V4H4ZM20 4H21V3H20V4ZM6.29289 11.2929C5.90237 11.6834 5.90237 12.3166 6.29289 12.7071C6.68342 13.0976 7.31658 13.0976 7.70711 12.7071L6.29289 11.2929ZM10 9L10.7071 8.29289C10.3166 7.90237 9.68342 7.90237 9.29289 8.29289L10 9ZM13 12L12.2929 12.7071C12.6834 13.0976 13.3166 13.0976 13.7071 12.7071L13 12ZM17.7071 8.70711C18.0976 8.31658 18.0976 7.68342 17.7071 7.29289C17.3166 6.90237 16.6834 6.90237 16.2929 7.29289L17.7071 8.70711ZM7.29289 20.2929C6.90237 20.6834 6.90237 21.3166 7.29289 21.7071C7.68342 22.0976 8.31658 22.0976 8.70711 21.7071L7.29289 20.2929ZM12 17L12.7071 16.2929C12.3166 15.9024 11.6834 15.9024 11.2929 16.2929L12 17ZM15.2929 21.7071C15.6834 22.0976 16.3166 22.0976 16.7071 21.7071C17.0976 21.3166 17.0976 20.6834 16.7071 20.2929L15.2929 21.7071ZM3 3C2.44772 3 2 3.44772 2 4C2 4.55228 2.44772 5 3 5V3ZM21 5C21.5523 5 22 4.55228 22 4C22 3.44772 21.5523 3 21 3V5ZM4 5H20V3H4V5ZM19 4V16H21V4H19ZM19 16H5V18H19V16ZM5 16V4H3V16H5ZM5 16H3C3 17.1046 3.89543 18 5 18V16ZM19 16V18C20.1046 18 21 17.1046 21 16H19ZM7.70711 12.7071L10.7071 9.70711L9.29289 8.29289L6.29289 11.2929L7.70711 12.7071ZM9.29289 9.70711L12.2929 12.7071L13.7071 11.2929L10.7071 8.29289L9.29289 9.70711ZM13.7071 12.7071L17.7071 8.70711L16.2929 7.29289L12.2929 11.2929L13.7071 12.7071ZM8.70711 21.7071L12.7071 17.7071L11.2929 16.2929L7.29289 20.2929L8.70711 21.7071ZM11.2929 17.7071L15.2929 21.7071L16.7071 20.2929L12.7071 16.2929L11.2929 17.7071ZM3 5H21V3H3V5Z" fill="#374151"/>
</svg>
