<svg width="20" height="20" viewBox="0 0 20 20" fill="none" xmlns="http://www.w3.org/2000/svg">
    <path stroke="#4B5563" stroke-width="0.5" d="M 14.21875 0.15625 L 5.9375 0.15625 C 5.5 0.15625 5.15625 0.5 5.15625 0.9375 L 5.15625 19.0625 C 5.15625 19.5 5.5 19.84375 5.9375 19.84375 L 14.21875 19.84375 C 14.65625 19.84375 15 19.5 15 19.0625 L 15 0.9375 C 15 0.5 14.65625 0.15625 14.21875 0.15625 Z M 14.6875 19.0625 C 14.6875 19.328125 14.484375 19.53125 14.21875 19.53125 L 5.9375 19.53125 C 5.671875 19.53125 5.46875 19.328125 5.46875 19.0625 L 5.46875 17.03125 L 14.6875 17.03125 Z M 14.6875 16.71875 L 5.46875 16.71875 L 5.46875 3.28125 L 14.6875 3.28125 Z M 14.6875 2.96875 L 5.46875 2.96875 L 5.46875 0.9375 C 5.46875 0.671875 5.671875 0.46875 5.9375 0.46875 L 14.21875 0.46875 C 14.484375 0.46875 14.6875 0.671875 14.6875 0.9375 Z M 14.6875 2.96875 " />
    <path stroke="#4B5563" stroke-width="0.5" d="M 11.40625 1.5625 L 8.59375 1.5625 C 8.5 1.5625 8.4375 1.625 8.4375 1.71875 C 8.4375 1.8125 8.5 1.875 8.59375 1.875 L 11.40625 1.875 C 11.5 1.875 11.5625 1.8125 11.5625 1.71875 C 11.5625 1.625 11.5 1.5625 11.40625 1.5625 Z M 11.40625 1.5625 " />
    <path stroke="#4B5563" stroke-width="0.5" d="M 10 19.21875 C 10.515625 19.21875 10.9375 18.796875 10.9375 18.28125 C 10.9375 17.765625 10.515625 17.34375 10 17.34375 C 9.484375 17.34375 9.0625 17.765625 9.0625 18.28125 C 9.0625 18.796875 9.484375 19.21875 10 19.21875 Z M 10 17.65625 C 10.34375 17.65625 10.625 17.9375 10.625 18.28125 C 10.625 18.625 10.34375 18.90625 10 18.90625 C 9.65625 18.90625 9.375 18.625 9.375 18.28125 C 9.375 17.9375 9.65625 17.65625 10 17.65625 Z M 10 17.65625 " />
</svg>