<svg width="24" height="24" viewBox="0 0 24 24" fill="none" xmlns="http://www.w3.org/2000/svg">
<path d="M19.0711 4.92894C18.6805 4.53842 18.0474 4.53842 17.6569 4.92894C17.2663 5.31946 17.2663 5.95263 17.6569 6.34315L19.0711 4.92894ZM18.364 18.364L17.6569 19.0711H17.6569L18.364 18.364ZM16.2426 7.75737C15.8521 7.36684 15.219 7.36684 14.8284 7.75737C14.4379 8.14789 14.4379 8.78106 14.8284 9.17158L16.2426 7.75737ZM15.5355 15.5355L14.8284 16.2426L14.8284 16.2427L15.5355 15.5355ZM7.75736 16.2427C8.14788 16.6332 8.78105 16.6332 9.17157 16.2427C9.5621 15.8521 9.5621 15.219 9.17157 14.8284L7.75736 16.2427ZM8.03998 12.5662C7.96233 12.0194 7.45612 11.6391 6.90932 11.7167C6.36252 11.7943 5.9822 12.3005 6.05984 12.8473L8.03998 12.5662ZM4.92893 19.0711C5.31946 19.4616 5.95262 19.4616 6.34315 19.0711C6.73367 18.6806 6.73367 18.0474 6.34315 17.6569L4.92893 19.0711ZM4.41704 9.44452C4.59296 8.921 4.31118 8.354 3.78767 8.17807C3.26415 8.00215 2.69714 8.28393 2.52122 8.80744L4.41704 9.44452ZM3.70711 2.29289C3.31658 1.90237 2.68342 1.90237 2.29289 2.29289C1.90237 2.68342 1.90237 3.31658 2.29289 3.70711L3.70711 2.29289ZM20.2929 21.7071C20.6834 22.0976 21.3166 22.0976 21.7071 21.7071C22.0976 21.3166 22.0976 20.6834 21.7071 20.2929L20.2929 21.7071ZM17.6569 6.34315C20.781 9.46735 20.781 14.5327 17.6569 17.6569L19.0711 19.0711C22.9763 15.1658 22.9763 8.83418 19.0711 4.92894L17.6569 6.34315ZM14.8284 9.17158C16.3905 10.7337 16.3905 13.2663 14.8284 14.8284L16.2426 16.2427C18.5858 13.8995 18.5858 10.1005 16.2426 7.75737L14.8284 9.17158ZM12 12H14C14 10.8954 13.1046 10 12 10V12ZM9.17157 14.8284C8.5339 14.1908 8.15753 13.394 8.03998 12.5662L6.05984 12.8473C6.2362 14.0894 6.80287 15.2882 7.75736 16.2427L9.17157 14.8284ZM6.34315 17.6569C4.1231 15.4368 3.47919 12.2354 4.41704 9.44452L2.52122 8.80744C1.35084 12.2902 2.15154 16.2937 4.92893 19.0711L6.34315 17.6569ZM12 12L12 12V10C11.448 10 10.9466 10.225 10.5858 10.5858L12 12ZM2.29289 3.70711L10.5858 12L12 10.5858L3.70711 2.29289L2.29289 3.70711ZM10.5858 12L12 13.4142L13.4142 12L12 10.5858L10.5858 12ZM12 13.4142L14.8284 16.2426L16.2426 14.8284L13.4142 12L12 13.4142ZM14.8284 16.2427L17.6569 19.0711L19.0711 17.6569L16.2426 14.8284L14.8284 16.2427ZM17.6569 19.0711L20.2929 21.7071L21.7071 20.2929L19.0711 17.6569L17.6569 19.0711ZM12 12L12 12L13.4142 13.4142C13.7751 13.0534 14 12.552 14 12H12Z" fill="#374151"/>
</svg>
