<svg width="24" height="24" viewBox="0 0 24 24" fill="none" xmlns="http://www.w3.org/2000/svg">
<path d="M4 5C4 4.44772 4.44772 4 5 4H19C19.5523 4 20 4.44772 20 5V7C20 7.55228 19.5523 8 19 8H5C4.44772 8 4 7.55228 4 7V5Z" stroke="#4A5568" stroke-width="2" stroke-linecap="round" stroke-linejoin="round"/>
<path d="M4 13C4 12.4477 4.44772 12 5 12H11C11.5523 12 12 12.4477 12 13V19C12 19.5523 11.5523 20 11 20H5C4.44772 20 4 19.5523 4 19V13Z" stroke="#4A5568" stroke-width="2" stroke-linecap="round" stroke-linejoin="round"/>
<path d="M16 13C16 12.4477 16.4477 12 17 12H19C19.5523 12 20 12.4477 20 13V19C20 19.5523 19.5523 20 19 20H17C16.4477 20 16 19.5523 16 19V13Z" stroke="#4A5568" stroke-width="2" stroke-linecap="round" stroke-linejoin="round"/>
</svg>
