<svg width="24" height="24" viewBox="0 0 24 24" fill="none" xmlns="http://www.w3.org/2000/svg">
<path d="M18 7.5V10.5M18 10.5V13.5M18 10.5H21M18 10.5H15M12.75 6.375C12.75 8.23896 11.239 9.75 9.375 9.75C7.51104 9.75 6 8.23896 6 6.375C6 4.51104 7.51104 3 9.375 3C11.239 3 12.75 4.51104 12.75 6.375ZM3.00092 19.2343C3.00031 19.198 3 19.1615 3 19.125C3 15.6042 5.85418 12.75 9.375 12.75C12.8958 12.75 15.75 15.6042 15.75 19.125V19.1276C15.75 19.1632 15.7497 19.1988 15.7491 19.2343C13.8874 20.3552 11.7065 21 9.375 21C7.04353 21 4.86264 20.3552 3.00092 19.2343Z" stroke="#0F172A" stroke-width="1.5" stroke-linecap="round" stroke-linejoin="round"/>
</svg>
