<svg width="24" height="24" viewBox="0 0 24 24" fill="none" xmlns="http://www.w3.org/2000/svg">
<path fill-rule="evenodd" clip-rule="evenodd" d="M17.1442 12.1629C16.949 11.3756 15.8019 11.3756 15.6067 12.1629C15.5823 12.284 15.5212 12.393 15.448 12.4778C15.3748 12.5747 15.265 12.6353 15.143 12.6838C15.0331 12.7322 14.9111 12.7443 14.7769 12.7443C14.6426 12.7443 14.545 12.6959 14.423 12.6353C13.7152 12.2235 12.9098 12.9987 13.3369 13.7013C13.6176 14.1373 13.3735 14.7309 12.8488 14.852C12.0434 15.0458 12.0434 16.1602 12.8488 16.354C12.9708 16.3782 13.0807 16.4388 13.1783 16.5115C13.2759 16.5842 13.3369 16.6932 13.3857 16.8022C13.4345 16.9112 13.4467 17.0323 13.4467 17.1535C13.4467 17.2746 13.3979 17.3836 13.3369 17.4926C12.9098 18.1952 13.7152 18.9704 14.423 18.5586C14.5206 18.498 14.6426 18.4617 14.7769 18.4496C14.8989 18.4496 15.0331 18.4496 15.143 18.5101C15.2528 18.5586 15.3504 18.6313 15.448 18.7161C15.5212 18.813 15.5823 18.922 15.6067 19.031C15.8019 19.8184 16.949 19.8184 17.1442 19.031C17.1686 18.9099 17.2297 18.8009 17.3029 18.7161C17.3761 18.6192 17.4859 18.5586 17.6079 18.5101C17.7178 18.4617 17.8398 18.4496 17.974 18.4496C18.1083 18.4496 18.2059 18.498 18.3279 18.5586C19.0357 18.9704 19.8411 18.1952 19.414 17.4926C19.353 17.3957 19.3164 17.2746 19.3042 17.1535C19.3042 17.0323 19.3042 16.9112 19.3652 16.8022C19.414 16.6932 19.4872 16.5963 19.5726 16.5115C19.6702 16.4388 19.7801 16.3782 19.9021 16.354C20.7075 16.1602 20.7075 15.0458 19.9021 14.852C19.7801 14.8278 19.6702 14.7672 19.5726 14.6945C19.475 14.6218 19.414 14.5128 19.3652 14.4038C19.3164 14.2948 19.3042 14.1737 19.3042 14.0525C19.3042 13.9314 19.353 13.8224 19.414 13.7134C19.8411 13.0108 19.0357 12.2356 18.3279 12.6474C18.2303 12.708 18.1083 12.7443 17.974 12.7564C17.852 12.7564 17.7178 12.7564 17.6079 12.6959C17.4981 12.6474 17.4005 12.5747 17.3029 12.49C17.2297 12.393 17.1686 12.284 17.1442 12.175V12.1629ZM16.3755 17.1171C16.7904 17.1171 17.1808 16.9597 17.4615 16.6811C17.7544 16.4025 17.913 16.0027 17.913 15.6151C17.913 15.2275 17.7544 14.8278 17.4615 14.5492C17.1686 14.2706 16.7781 14.1131 16.3755 14.1131C15.9728 14.1131 15.5701 14.2706 15.2894 14.5492C14.9965 14.8278 14.8379 15.2275 14.8379 15.6151C14.8379 16.0027 14.9965 16.4025 15.2894 16.6811C15.5823 16.9597 15.9728 17.1171 16.3755 17.1171Z" fill="#FC6D26"/>
<path d="M10.8231 13.144C10.1885 12.9502 9.50514 12.8412 8.82178 12.8412C7.07675 12.8412 5.40495 13.5195 4.17245 14.7308C2.93995 15.9421 2.24438 17.5652 2.24438 19.2732H11.543M12.5681 6.42123C12.5681 7.40239 12.1654 8.3351 11.4698 9.01343C10.7742 9.70387 9.81022 10.0915 8.80957 10.0915C7.80893 10.0915 6.8571 9.70387 6.14933 9.01343C5.45376 8.32298 5.05106 7.39028 5.05106 6.42123C5.05106 5.45219 5.45376 4.50737 6.14933 3.82904C6.8449 3.13859 7.80893 2.75098 8.80957 2.75098C9.81022 2.75098 10.762 3.13859 11.4698 3.82904C12.1654 4.51948 12.5681 5.45219 12.5681 6.42123V6.42123Z" stroke="#8D95A4" stroke-width="1.8" stroke-linecap="round" stroke-linejoin="round"/>
</svg>
