<svg width="24" height="24" viewBox="0 0 24 24" fill="none" xmlns="http://www.w3.org/2000/svg">
<path d="M5.76655 4.44503C6.01234 3.95045 5.81065 3.35027 5.31607 3.10449C4.82149 2.8587 4.22131 3.06039 3.97552 3.55497L5.76655 4.44503ZM3.97552 20.445C4.22131 20.9396 4.82149 21.1413 5.31607 20.8955C5.81065 20.6497 6.01234 20.0495 5.76655 19.555L3.97552 20.445ZM18.1045 19.555C17.8588 20.0495 18.0604 20.6497 18.555 20.8955C19.0496 21.1413 19.6498 20.9396 19.8956 20.445L18.1045 19.555ZM19.8956 3.55497C19.6498 3.06039 19.0496 2.8587 18.555 3.10449C18.0604 3.35027 17.8588 3.95045 18.1045 4.44503L19.8956 3.55497ZM9 8C8.44772 8 8 8.44772 8 9C8 9.55228 8.44772 10 9 10V8ZM11.2072 9.72528L10.2457 10L11.2072 9.72528ZM12.7928 15.2747L11.8313 15.5494L12.7928 15.2747ZM15 17C15.5523 17 16 16.5523 16 16C16 15.4477 15.5523 15 15 15V17ZM16 10C16.5523 10 17 9.55228 17 9C17 8.44772 16.5523 8 16 8V10ZM14.4014 9.69842L15.1606 10.3492L14.4014 9.69842ZM9.59864 15.3016L10.3579 15.9524H10.3579L9.59864 15.3016ZM8 15C7.44772 15 7 15.4477 7 16C7 16.5523 7.44772 17 8 17V15ZM4 12C4 9.28416 4.63611 6.71976 5.76655 4.44503L3.97552 3.55497C2.71071 6.10007 2 8.96847 2 12H4ZM5.76655 19.555C4.63611 17.2802 4 14.7158 4 12H2C2 15.0315 2.71072 17.8999 3.97552 20.445L5.76655 19.555ZM19.8711 12C19.8711 14.7158 19.235 17.2802 18.1045 19.555L19.8956 20.445C21.1604 17.8999 21.8711 15.0315 21.8711 12H19.8711ZM18.1045 4.44503C19.235 6.71976 19.8711 9.28416 19.8711 12H21.8711C21.8711 8.96847 21.1604 6.10007 19.8956 3.55497L18.1045 4.44503ZM9 10H10.2457V8H9V10ZM10.2457 10L11.8313 15.5494L13.7543 15L12.1687 9.45056L10.2457 10ZM13.7543 17H15V15H13.7543V17ZM11.8313 15.5494C12.0766 16.408 12.8613 17 13.7543 17V15L11.8313 15.5494ZM10.2457 10H10.2457L12.1687 9.45056C11.9234 8.59196 11.1387 8 10.2457 8V10ZM16 8H15.9199V10H16V8ZM13.6421 9.04763L8.83939 14.6508L10.3579 15.9524L15.1606 10.3492L13.6421 9.04763ZM8.08013 15H8V17H8.08013V15ZM8.83939 14.6508C8.64941 14.8724 8.37206 15 8.08013 15V17C8.9559 17 9.78795 16.6173 10.3579 15.9524L8.83939 14.6508ZM15.9199 8C15.0441 8 14.212 8.38269 13.6421 9.04763L15.1606 10.3492C15.3506 10.1276 15.6279 10 15.9199 10V8Z" fill="#374151"/>
</svg>
