<svg width="24" height="29" viewBox="0 0 24 29" fill="none" xmlns="http://www.w3.org/2000/svg">
	<path
		d="M3.24793 12.2644L2.16037 12.2653C2.05047 12.2103 1.98968 12.048 1.98968 11.8929C1.98968 11.7532 2.00204 11.5763 2.16037 11.4273H3.32418L4.16212 10.5894L2.48305 10.6036C1.38514 10.6129 0.5 11.5056 0.5 12.6035V26C0.5 27.1045 1.39543 28 2.5 28H20.1934C21.298 28 22.1934 27.1045 22.1934 26V22.0568H17.8047C16.7233 22.0568 15.8468 21.1802 15.8468 20.0989V20.0989C15.8468 19.0548 16.6931 18.2085 17.7372 18.2085H22.1934V14.2498C22.1934 13.1452 21.298 12.2498 20.1934 12.2498H16.5M3.24793 12.2644L17.07 0.999969L18.35 2.54997L6.31676 12.2644M3.24793 12.2644H6.31676M6.31676 12.2644L7 12.2498M16.5 12.2498L22.1934 8L19 3.5L7 12.2498M16.5 12.2498H7"
		stroke="black"
		stroke-width="0.2"
	/>
	<path
		d="M21.4873 21.7309H17.8562C16.9692 21.7309 16.2501 21.0118 16.2501 20.1248C16.2501 19.2378 16.9692 18.5187 17.8562 18.5187H21.4873C22.3743 18.5187 23.0933 19.2378 23.0933 20.1248C23.0933 21.0118 22.3743 21.7309 21.4873 21.7309Z"
		stroke="black"
		stroke-width="0.2"
	/>
	<circle cx="17.7398" cy="20.1171" r="0.682768" fill="black" />
	<path
		d="M16.4892 8.70449L16.4892 8.7045L15.5575 9.13313C15.5575 9.13314 15.5575 9.13315 15.5574 9.13316L15.5574 9.1332L15.5365 9.08777L16.4892 8.70449ZM16.4892 8.70449C16.7303 8.59339 16.9712 8.57191 17.1576 8.62745C17.3421 8.68241 17.4744 8.81233 17.5088 9.01234M16.4892 8.70449L16.4683 8.65907C16.9677 8.42903 17.482 8.56208 17.5581 9.00386M15.9625 10.0329C15.901 10.045 15.8433 10.0954 15.824 10.1508L15.694 10.5209C15.6673 10.5962 15.7192 10.6511 15.8019 10.6396C16.0597 10.6055 16.3304 10.4932 16.5663 10.3209L16.7513 10.5729C16.7852 10.6191 16.8669 10.6173 16.9329 10.5688L17.173 10.3926C17.239 10.3442 17.2652 10.2667 17.2313 10.2205L17.0455 9.96748C17.3916 9.7062 17.6126 9.32017 17.5581 9.00386M15.9625 10.0329L15.9719 10.0821C15.9719 10.082 15.972 10.082 15.972 10.082M15.9625 10.0329L15.9721 10.082C15.9721 10.082 15.9721 10.082 15.972 10.082M15.9625 10.0329C16.0637 10.0136 16.168 9.96695 16.2595 9.89978L16.7567 9.53476C16.879 9.44502 16.9271 9.30304 16.8643 9.21747C16.8142 9.14922 16.7042 9.13621 16.5962 9.18561L15.7119 9.59243M15.972 10.082C15.9275 10.0908 15.8845 10.1291 15.8712 10.1673L15.8711 10.1674L15.7412 10.5375L15.7411 10.5376C15.7327 10.5615 15.7387 10.5735 15.7437 10.5789C15.7497 10.5855 15.7652 10.5942 15.795 10.5901L15.7954 10.59C16.0439 10.5572 16.3069 10.4485 16.5368 10.2805L16.5771 10.2511L16.6066 10.2913L16.7916 10.5433C16.7962 10.5495 16.8071 10.5568 16.829 10.5564C16.8505 10.5559 16.8777 10.5473 16.9034 10.5285L17.1434 10.3523C17.169 10.3335 17.1853 10.3101 17.1922 10.2897C17.1992 10.269 17.1956 10.2564 17.191 10.2501L17.0052 9.99707L16.976 9.9573L17.0154 9.92758C17.1833 9.80078 17.3201 9.64425 17.4081 9.48243C17.4962 9.32022 17.5336 9.15614 17.5088 9.01234M15.972 10.082C16.0812 10.0611 16.1922 10.0112 16.2891 9.94009L16.7863 9.57507C16.8547 9.52487 16.9041 9.45886 16.9273 9.3906C16.9504 9.32252 16.9483 9.24742 16.9046 9.18788C16.8342 9.0919 16.6935 9.08614 16.5754 9.14014L16.5753 9.14018L15.691 9.547M17.5088 9.01234C17.5088 9.01235 17.5088 9.01235 17.5088 9.01235L17.5581 9.00386M17.5088 9.01234L17.5581 9.00386M15.691 9.547L15.7119 9.59243M15.691 9.547C15.5053 9.63241 15.3151 9.67352 15.148 9.66772C14.9807 9.66192 14.8402 9.60946 14.7472 9.51209M15.691 9.547L15.691 9.547L15.7119 9.59243M15.7119 9.59243C15.3287 9.76862 14.9202 9.76554 14.7111 9.54663M14.7472 9.51209C14.6157 9.37439 14.5851 9.17533 14.6478 8.96268C14.7105 8.74989 14.866 8.52868 15.0972 8.35892L15.116 8.34515L15.1563 8.31557L15.1267 8.27526L14.9417 8.02326C14.9371 8.01702 14.9334 8.00438 14.9405 7.98369C14.9474 7.96327 14.9637 7.9399 14.9893 7.92106L15.2293 7.74488C15.255 7.72603 15.2822 7.71751 15.3037 7.71702C15.3256 7.71653 15.3365 7.72384 15.3411 7.73007L15.5261 7.98208L15.5556 8.02229L15.5959 7.99286C15.8258 7.8249 16.0888 7.7162 16.3373 7.68333L16.3376 7.68329C16.3675 7.67915 16.383 7.68792 16.389 7.69443C16.394 7.69983 16.4 7.71189 16.3916 7.7358L16.3915 7.73591L16.2616 8.10601L16.2615 8.10609C16.2482 8.14432 16.2052 8.18259 16.1607 8.19135L14.7472 9.51209ZM14.7472 9.51209C14.7472 9.51209 14.7472 9.5121 14.7472 9.5121L14.7111 9.54663M14.7472 9.51209L14.7111 9.54663M14.7472 9.51209L15.0676 8.31861M14.7111 9.54663C14.4167 9.23838 14.5899 8.66932 15.0676 8.31861M15.0676 8.31861L15.0864 8.30485L15.0568 8.26454L14.9014 8.05284C14.8675 8.00664 14.8937 7.9292 14.9597 7.88075L15.1998 7.70457C15.2658 7.65612 15.3475 7.65429 15.3814 7.70049L15.5664 7.95249C15.8023 7.78014 16.073 7.66785 16.3308 7.63376L15.0676 8.31861Z"
		stroke="black"
		stroke-width="0.1"
	/>
</svg>
