
<svg width="24" height="19" viewBox="0 0 24 19" fill="none" xmlns="http://www.w3.org/2000/svg">
<path d="M2.98305 0.603646L4.66212 0.589417L3.82418 1.42736H2.66037C2.50204 1.57637 2.48968 1.75323 2.48968 1.89288C2.48968 2.04806 2.55047 2.21035 2.66037 2.2653L3.74793 2.26446H6.81676L7.5 2.24978H17H20.6934C21.798 2.24978 22.6934 3.14521 22.6934 4.24978V8.20848H18.2372C17.1931 8.20848 16.3468 9.05485 16.3468 10.0989C16.3468 11.1802 17.2233 12.0568 18.3047 12.0568H22.6934V16C22.6934 17.1046 21.798 18 20.6934 18H3C1.89543 18 1 17.1046 1 16V2.60357C1 1.50562 1.88514 0.61295 2.98305 0.603646Z" stroke="black" stroke-width="0.2"/>
<path d="M21.9873 11.7309H18.3562C17.4692 11.7309 16.7501 11.0118 16.7501 10.1248C16.7501 9.23782 17.4692 8.51877 18.3562 8.51877H21.9873C22.8743 8.51877 23.5933 9.23782 23.5933 10.1248C23.5933 11.0118 22.8743 11.7309 21.9873 11.7309Z" stroke="black" stroke-width="0.2"/>
<circle cx="18.2398" cy="10.1171" r="0.682768" fill="black"/>
</svg>
