<svg width="24" height="24" viewBox="0 0 24 24" fill="none" xmlns="http://www.w3.org/2000/svg">
<rect width="24" height="24" fill="white"/>
<path d="M7.40396 15.6968C7.01344 16.0873 7.01344 16.7204 7.40396 17.111C7.79449 17.5015 8.42765 17.5015 8.81817 17.111L7.40396 15.6968ZM15.1821 17.111C15.5727 17.5015 16.2058 17.5015 16.5963 17.111C16.9869 16.7204 16.9869 16.0873 16.5963 15.6968L15.1821 17.111ZM12.0002 19C11.4479 19 11.0002 19.4477 11.0002 20C11.0002 20.5523 11.4479 21 12.0002 21V19ZM12.0102 21C12.5624 21 13.0102 20.5523 13.0102 20C13.0102 19.4477 12.5624 19 12.0102 19V21ZM4.22202 12.2218C3.83149 12.6124 3.83149 13.2455 4.22202 13.6361C4.61254 14.0266 5.24571 14.0266 5.63623 13.6361L4.22202 12.2218ZM18.3642 13.6361C18.7547 14.0266 19.3878 14.0266 19.7784 13.6361C20.1689 13.2455 20.1689 12.6124 19.7784 12.2218L18.3642 13.6361ZM0.686448 8.68629C0.295924 9.07681 0.295924 9.70998 0.686448 10.1005C1.07697 10.491 1.71014 10.491 2.10066 10.1005L0.686448 8.68629ZM21.8997 10.1005C22.2902 10.491 22.9233 10.491 23.3139 10.1005C23.7044 9.70998 23.7044 9.07682 23.3139 8.68629L21.8997 10.1005ZM8.81817 17.111C10.5755 15.3536 13.4248 15.3536 15.1821 17.111L16.5963 15.6968C14.0579 13.1584 9.94237 13.1584 7.40396 15.6968L8.81817 17.111ZM12.0002 21H12.0102V19H12.0002V21ZM5.63623 13.6361C9.15095 10.1213 14.8494 10.1213 18.3642 13.6361L19.7784 12.2218C15.4826 7.92607 8.51779 7.92607 4.22202 12.2218L5.63623 13.6361ZM2.10066 10.1005C7.568 4.63317 16.4323 4.63316 21.8997 10.1005L23.3139 8.68629C17.0655 2.4379 6.93484 2.4379 0.686448 8.68629L2.10066 10.1005Z" fill="#374151"/>
</svg>
